<svg width="240" height="282" viewBox="0 0 240 282" fill="none" xmlns="http://www.w3.org/2000/svg">
<path fill-rule="evenodd" clip-rule="evenodd" d="M99.1394 28.3408C91.7334 33.9874 85.5314 41.0014 80.8508 48.9861C73.182 47.4554 64.9183 47.1297 56.5514 48.3281C58.6514 39.2048 62.9541 30.6181 69.1701 23.4454C70.6168 21.7841 72.7588 20.8928 74.9568 21.0514C83.5108 21.6581 91.7708 24.1921 99.1394 28.3408ZM119.999 71.3348C127.409 63.1476 136.077 57.1579 145.297 53.2468C139.809 45.0194 132.221 38.2574 123.131 33.7121C121.161 32.7274 118.837 32.7274 116.868 33.7121C107.777 38.2574 100.189 45.0194 94.7014 53.2468C103.922 57.1579 112.59 63.148 119.999 71.3348ZM164.636 140.499C171.029 137.312 176.895 133.103 182.01 127.988C197.443 112.551 202.847 89.7168 195.935 68.9874C195.24 66.9014 193.597 65.2588 191.511 64.5634C170.801 57.6614 147.962 63.0421 132.511 78.4888C127.396 83.6034 123.182 89.4694 119.999 95.8674C116.817 89.4694 112.603 83.6034 107.488 78.4888C92.0508 63.0561 69.2168 57.6521 48.4874 64.5634C46.3968 65.2588 44.7588 66.9014 44.0634 68.9874C37.1614 89.6981 42.5421 112.537 57.9888 127.988C63.0988 133.098 68.9694 137.312 75.3628 140.499C68.9694 143.687 63.1034 147.896 57.9888 153.011C42.5561 168.448 37.1521 191.282 44.0634 212.011C44.7588 214.097 46.4014 215.74 48.4874 216.435C69.1981 223.337 92.0368 217.957 107.488 202.51C112.603 197.395 116.817 191.529 119.999 185.131C123.182 191.529 127.396 197.395 132.511 202.51C148.032 218.031 170.894 223.309 191.511 216.435C193.602 215.74 195.24 214.097 195.935 212.011C202.837 191.301 197.457 168.462 182.01 153.011C176.9 147.901 171.029 143.687 164.636 140.499ZM224.262 143.631C220.071 152.012 214 159.11 206.631 164.472C202.672 155.642 196.878 147.48 189.164 140.499C196.564 133.803 202.501 125.74 206.627 116.522C213.995 121.884 220.071 128.987 224.262 137.368C225.247 139.337 225.247 141.661 224.262 143.631ZM33.3721 164.477C37.4979 155.259 43.4348 147.196 50.8348 140.499C43.1217 133.519 37.3271 125.356 33.3674 116.527C25.9988 121.889 19.9274 128.987 15.7368 137.368C14.7521 139.337 14.7521 141.661 15.7368 143.631C19.9274 152.012 26.0034 159.115 33.3721 164.477ZM145.391 227.789C139.935 235.732 132.506 242.265 123.644 246.699C121.723 247.655 119.415 247.709 117.386 246.699C108.398 242.205 100.88 235.545 95.4061 227.444C104.682 223.394 113.012 217.385 119.999 209.664C127.42 217.864 136.117 223.866 145.391 227.789ZM237.053 194.068C229.759 200.391 221 204.731 211.704 206.789C213.445 197.381 213.286 187.703 211.205 178.295C218.494 173.656 224.906 167.711 230.109 160.725C235.471 168.901 238.743 178.397 239.447 188.281C239.606 190.479 238.715 192.621 237.053 194.068ZM170.829 257.553C177.049 250.381 181.347 241.789 183.447 232.666C175.469 233.82 167.197 233.597 159.297 232.036C154.519 240.007 148.214 246.983 140.705 252.574C148.111 256.774 156.432 259.336 165.042 259.947C165.21 259.961 165.373 259.966 165.541 259.966C167.562 259.966 169.494 259.093 170.829 257.553ZM74.9568 259.947C83.8001 259.317 92.3308 256.634 99.8814 252.238C92.5081 246.666 86.3201 239.745 81.6208 231.859C73.4868 233.565 64.909 233.879 56.5514 232.671C58.6514 241.794 62.9541 250.381 69.1701 257.553C70.5048 259.093 72.4368 259.966 74.4574 259.966C74.6254 259.966 74.7888 259.961 74.9568 259.947ZM183.447 48.3281C175.081 47.1297 166.817 47.4554 159.148 48.9861C154.467 41.0014 148.265 33.9874 140.859 28.3408C148.228 24.1921 156.488 21.6581 165.042 21.0514C167.24 20.8928 169.382 21.7841 170.829 23.4454C177.045 30.6181 181.347 39.2048 183.447 48.3281ZM2.94543 194.941C10.2861 201.306 19.1061 205.66 28.4721 207.699C26.5448 198.007 26.6474 188.001 28.7988 178.295C21.6494 173.749 15.3448 167.949 10.1974 161.135C4.65343 169.414 1.26543 179.083 0.55143 189.154C0.392763 191.352 1.2841 193.494 2.94543 194.941ZM239.447 92.7174C238.743 102.601 235.471 112.098 230.109 120.274C224.906 113.283 218.494 107.343 211.2 102.704C213.281 93.3008 213.445 83.6174 211.704 74.2094C221 76.2674 229.759 80.6074 237.053 86.9308C238.715 88.3774 239.606 90.5194 239.447 92.7174ZM9.88943 120.274C15.0928 113.288 21.5048 107.343 28.7941 102.704C26.7128 93.2961 26.5588 83.6128 28.2948 74.2094C18.9988 76.2674 10.2394 80.6074 2.94543 86.9308C1.2841 88.3774 0.392763 90.5194 0.55143 92.7174C1.2561 102.601 4.52743 112.098 9.88943 120.274ZM98.9994 140.499C98.9994 128.921 108.421 119.499 119.999 119.499C131.577 119.499 140.999 128.921 140.999 140.499C140.999 152.077 131.577 161.499 119.999 161.499C108.421 161.499 98.9994 152.077 98.9994 140.499ZM112.999 140.499C112.999 144.363 116.135 147.499 119.999 147.499C123.863 147.499 126.999 144.363 126.999 140.499C126.999 136.635 123.863 133.499 119.999 133.499C116.135 133.499 112.999 136.635 112.999 140.499Z" fill="#8E7CC3"/>
<path d="M65.5414 246.282C57.2308 246.348 50.6976 246.718 45.1664 247.498C31.8676 249.372 23.9608 253.775 20.4583 262.08C18.6704 266.319 19.5314 269.984 22.8145 272.837C25.6334 275.287 30.2192 277.14 36.4613 278.496L36.8098 278.571C47.4883 280.838 62.65 281.658 81.8769 281.37L83.0591 281.351C92.0913 281.195 101.353 280.824 112.5 280.225L123.598 279.596C127.498 279.371 131.515 279.14 132.945 279.064L134.88 278.964C138.988 278.759 141.636 278.683 143.27 278.734L145.103 278.803C171.599 279.774 192.276 278.449 205.579 275.325C211.647 273.901 215.989 272.134 218.416 270.124C221.046 267.946 221.5 265.326 219.55 263.011C213.469 255.791 203.488 251.712 187.362 249.538L186.529 249.428C173.131 247.689 156.467 247.155 124.799 247.134L120.242 247.13C114.08 247.112 108.181 247.028 100.35 246.86L81.0862 246.422C75.3207 246.301 72.0779 246.264 68.4643 246.269L65.5414 246.282Z" fill="white"/>
<ellipse cx="120.147" cy="269.879" rx="99.4359" ry="10.3792" fill="#E7EAEE"/>
<path fill-rule="evenodd" clip-rule="evenodd" d="M140.542 196.184C142.347 196.503 143.584 194.739 146.378 188.859L146.585 188.432L146.788 188.026C150.119 181.475 153.972 179.386 158.346 181.761L160.101 176.581L159.511 176.31L158.944 176.054C149.864 171.997 144.96 171.751 144.232 175.314L144.16 175.704L144.1 176.018C143.566 178.735 142.263 183.967 141.321 188.422L141.162 189.182C140.375 192.999 139.915 196.074 140.542 196.184Z" fill="white"/>
<path fill-rule="evenodd" clip-rule="evenodd" d="M121.206 143.647C121.206 143.647 134.48 145.406 141.194 145.101C147.907 144.796 157.726 141.989 157.726 141.989L157.493 150.467C157.493 150.467 188.813 149.834 184.084 175.492C180.968 192.391 157.132 185.442 157.132 185.442L161.691 175.492C161.691 175.492 175.988 176.526 170.782 172.176C169.816 171.369 163.641 170.256 155.516 170.473C148.538 170.66 142.475 168.569 141.845 166.692C139.48 159.654 142.914 155.952 142.914 155.952C142.914 155.952 139.592 157.569 140.222 161.499C140.852 165.43 136.21 245.912 136.21 245.912C136.21 245.912 132.011 246.657 129.899 246.657C127.787 246.657 124.88 245.912 124.88 245.912L121.206 143.647Z" fill="white"/>
<path fill-rule="evenodd" clip-rule="evenodd" d="M121.206 143.647C121.206 143.647 128.207 246.576 127.232 246.415C126.497 246.293 124.88 245.912 124.88 245.912L121.206 143.647Z" fill="#E7EAEE"/>
<path fill-rule="evenodd" clip-rule="evenodd" d="M126.971 247.498C127.431 251.548 126.571 253.171 126.685 253.171C128.561 253.171 129.682 253.134 132.691 252.9C132.691 252.9 132.523 251.155 132.523 250.335C132.523 249.355 132.691 247.498 132.691 247.498H126.971Z" fill="white"/>
<path d="M122.333 49.988C122.333 49.988 115.333 52.6166 115.333 47.6685C115.333 42.7205 120.734 45.1871 120.734 45.1871" fill="white"/>
<path d="M153.133 50.5044C154.603 50.8313 159.2 53.6982 159.2 46.7567C159.2 43.4439 153.95 45.8368 153.95 45.8368" fill="white"/>
<path d="M136.428 21.5542C130.645 22.1152 118.525 27.6144 120.732 43.3258C122.442 55.5052 131.552 68.6333 137.15 68.6333C142.646 68.6333 151.899 57.5817 153.243 46.7008C155.986 24.4795 142.211 20.9931 136.428 21.5542Z" fill="white"/>
<path fill-rule="evenodd" clip-rule="evenodd" d="M136.643 32.7972C136.95 32.0839 137.943 32.0363 138.318 32.7171C140.226 36.1891 142.363 38.6085 144.716 39.9935C147.091 41.3921 149.893 41.5301 152.752 40.2483C153.222 40.0374 153.774 40.2478 153.985 40.7181C154.196 41.1885 153.986 41.7407 153.515 41.9516C150.108 43.4792 146.668 43.3097 143.768 41.6021C141.508 40.2711 139.473 38.1561 137.653 35.2681L137.586 35.1607L137.526 35.2775C136.056 38.0676 134.16 40.296 131.839 41.9515L131.605 42.1151C128.682 44.1266 125.252 45.021 121.347 44.8006C120.833 44.7716 120.439 44.3308 120.468 43.8162C120.497 43.3015 120.938 42.9079 121.453 42.9369C124.955 43.1346 127.975 42.3472 130.547 40.5774C133.143 38.7906 135.174 36.2042 136.643 32.7972Z" fill="#E7EAEE"/>
<path fill-rule="evenodd" clip-rule="evenodd" d="M166.493 122.195C165.93 132.787 161.973 137.281 157.027 137.926C156.37 138.012 157.29 141.787 156.718 142.282C153.458 145.101 147.712 145.223 138.702 145.305C130.545 145.379 125.285 144.72 121.629 143.222C121.35 143.107 121.602 138.356 121.312 138.331C116.733 137.926 111.458 133.862 110.176 122.809C105.836 85.3859 118.889 78.1532 131.313 72.1906C131.987 71.8672 132.353 71.3037 133.023 70.9834C134.435 70.3076 134.067 71.863 137.277 71.863C140.488 71.863 140.488 70.644 141.933 71.3347C142.473 71.5924 142.562 73.2022 143.099 73.4856C155.813 80.1941 168.049 92.9211 166.493 122.195Z" fill="white"/>
<path fill-rule="evenodd" clip-rule="evenodd" d="M143.099 73.4856C159.888 79.5614 167.686 95.7978 166.493 122.195C165.063 153.844 129.118 125.511 141.101 98.2461C143.956 91.7502 147.707 119.253 147.748 119.369C148.704 122.074 151.623 124.171 154.576 125.293C154.576 125.293 155.897 106.23 153.6 97.2417C151.439 88.7879 143.099 73.4856 143.099 73.4856Z" fill="white"/>
<path fill-rule="evenodd" clip-rule="evenodd" d="M132.288 67.2333C132.288 67.2333 132.76 68.6476 132.596 69.5216C132.432 70.3957 131.43 71.81 131.43 71.81C131.43 71.81 103.559 80.3114 110.014 122.74C117.193 153.51 142.364 133.499 137.996 108.964C137.815 90.7459 133.691 96.9141 130.592 116.99C129.834 121.901 120.52 123.296 120.52 123.296" fill="white"/>
<ellipse cx="145.433" cy="55.3334" rx="2.56667" ry="2.1" fill="#FF8A65"/>
<ellipse cx="130.033" cy="55.3334" rx="2.56667" ry="2.1" fill="#FF8A65"/>
<path d="M132.622 58.1655C132.733 57.6621 135.031 58.0572 135.677 58.9168L135.877 59.1832C136.479 59.9815 136.846 60.2333 137.623 60.2333C138.616 60.2333 138.954 60.0553 139.518 59.3163L139.669 59.1135C140.324 58.2161 142.636 57.5644 142.811 58.0491C142.986 58.5338 142.736 59.0689 142.251 59.2443C141.887 59.3758 141.681 59.5481 141.326 60.0124L141.16 60.2364C140.191 61.5629 139.386 62.1 137.623 62.1C136.192 62.1 135.362 61.5639 134.478 60.4272L134.185 60.0387L134.053 59.8667C133.761 59.4976 133.583 59.3482 133.377 59.2893L133.332 59.2781C132.829 59.167 132.511 58.6688 132.622 58.1655Z" fill="#333333"/>
<path d="M134.435 44.2884C133.323 43.9482 132.309 43.8507 131.723 43.9219C131.092 43.9985 130.294 44.3238 129.559 44.624C128.969 44.8643 128.42 45.0884 128.027 45.1558C127.637 45.2228 127.052 45.201 126.481 45.1798C125.76 45.153 125.063 45.1271 124.815 45.2823C124.369 45.5604 125.034 46.0096 125.423 46.0611C126.768 46.239 127.747 46.2813 128.396 46.1776C128.972 46.0855 129.491 45.9262 130.197 45.6553L130.934 45.375C131.424 45.1927 131.55 45.1633 131.723 45.1594L131.845 45.1597C132.338 45.1721 133.066 45.3199 134.009 45.6084C134.383 45.723 134.782 45.5204 134.9 45.1558C135.018 44.7913 134.81 44.4029 134.435 44.2884Z" fill="#333333"/>
<path d="M137.186 54.304C137.713 52.766 138.018 45.1894 137.439 45.1834C136.859 45.1774 136.384 45.6426 136.378 46.2224C136.369 47.0377 136.374 47.8198 136.379 48.553C136.394 50.7536 136.405 52.5143 136.037 53.4143L135.959 53.6001C135.483 54.7797 135.35 55.7834 136.62 56.0183C137.379 56.1585 140.785 54.2268 140.589 53.6811C140.392 53.1354 139.791 52.852 139.245 53.0482L139.102 53.099C138.778 53.2127 138.354 53.5673 137.973 53.8865C137.634 54.1701 137.329 54.4258 137.156 54.46L137.129 54.4649L137.186 54.304Z" fill="#333333"/>
<path d="M141.498 44.2884C142.61 43.9482 143.623 43.8507 144.21 43.9219C144.841 43.9985 145.638 44.3238 146.374 44.624C146.963 44.8643 147.513 45.0884 147.906 45.1558C148.296 45.2228 148.881 45.201 149.452 45.1798C150.173 45.153 150.87 45.1271 151.118 45.2823C151.564 45.5604 150.899 46.0096 150.51 46.0611C149.165 46.239 148.186 46.2813 147.537 46.1776C146.961 46.0855 146.442 45.9262 145.736 45.6553L144.999 45.375C144.509 45.1927 144.383 45.1633 144.21 45.1594L144.088 45.1597C143.595 45.1721 142.867 45.3199 141.924 45.6084C141.549 45.723 141.15 45.5204 141.033 45.1558C140.915 44.7913 141.123 44.4029 141.498 44.2884Z" fill="#333333"/>
<path d="M147.506 49.5643C147.799 49.064 147.631 48.4207 147.131 48.1275C146.954 48.0241 146.814 48.2204 146.602 48.518C146.213 49.0641 145.58 49.9512 144.033 49.9512C142.474 49.9512 141.835 49.0558 141.446 48.511C141.238 48.2207 141.102 48.03 140.936 48.1275C140.435 48.4207 140.268 49.064 140.561 49.5643C141.301 50.8266 142.505 51.4833 144.033 51.4833C145.562 51.4833 146.766 50.8266 147.506 49.5643Z" fill="#333333"/>
<path d="M134.102 48.1506C134.589 48.4646 134.73 49.1144 134.416 49.6019C133.612 50.85 132.327 51.4833 130.694 51.4833C129.048 51.4833 127.776 50.8385 127.028 49.5656C126.734 49.0657 126.621 48.3914 127.401 48.1282C127.741 48.0133 128.087 48.3459 128.514 48.7569C129.064 49.2864 129.749 49.9461 130.733 49.9461C132.596 49.9461 133.255 49.0127 133.631 48.4801C133.821 48.212 133.938 48.0455 134.102 48.1506Z" fill="#333333"/>
<path fill-rule="evenodd" clip-rule="evenodd" d="M137.428 0.252861C131.544 1.30236 127.038 5.76002 126.158 12.3454C126.116 12.6585 126.088 12.9638 126.075 13.2614C125.055 13.5812 122.035 14.5563 122.118 14.8607C122.195 15.1441 124.874 14.5072 126.081 14.2047C126.256 17.0921 127.887 19.1619 130.636 20.4284C131.335 20.7507 132.087 21.0154 132.886 21.2287C130.046 22.1234 127.142 23.7601 124.849 26.0088C120.61 30.164 118.646 36.0247 119.692 43.4718C119.702 43.539 119.711 43.6062 119.721 43.6735C116.34 42.6321 114.283 44.0141 114.283 47.6686C114.283 51.335 119.644 53.3955 121.912 51.9049C124.197 57.9573 127.757 63.5527 131.335 66.7919C131.227 67.0263 131.204 67.3009 131.292 67.5654C131.555 68.3538 131.635 68.9488 131.563 69.3282L131.549 69.3976C131.468 69.7316 131.235 70.2083 130.845 70.804L130.77 70.9158L130.552 70.9845C111.816 77.0018 104.646 94.4392 108.975 122.898L108.991 122.979L109.071 123.315C111.16 131.968 115.114 137.017 120.039 138.326C120.038 138.349 120.038 138.373 120.039 138.397C120.9 167.546 121.652 190.771 122.296 208.073L122.53 214.217L122.763 220.041C123.093 228.046 123.389 234.2 123.651 238.506L123.819 241.149C124.107 245.472 124.275 246.424 124.892 246.86L124.952 246.9L124.998 246.928C125.131 247.005 125.295 247.074 125.49 247.135C125.261 247.134 125.03 247.134 124.799 247.134L120.242 247.13C114.08 247.112 108.181 247.028 100.35 246.86L81.0862 246.422C75.3207 246.301 72.0779 246.264 68.4643 246.269L65.5414 246.282C57.2308 246.348 50.6976 246.718 45.1664 247.498C31.8676 249.372 23.9608 253.775 20.4583 262.08C18.6704 266.319 19.5314 269.984 22.8145 272.837C25.6334 275.287 30.2192 277.14 36.4613 278.496L36.8098 278.571C47.4883 280.838 62.65 281.658 81.8769 281.37L83.0591 281.351C92.0913 281.195 101.353 280.824 112.5 280.225L123.598 279.596C127.498 279.371 131.515 279.14 132.945 279.064L134.88 278.964C138.988 278.759 141.636 278.683 143.27 278.734L145.103 278.804C171.599 279.774 192.276 278.449 205.579 275.325C211.647 273.901 215.989 272.134 218.416 270.124C221.046 267.946 221.5 265.326 219.55 263.011C213.469 255.792 203.488 251.712 187.362 249.538L186.529 249.428C174.976 247.929 160.995 247.325 137.061 247.174L137.192 247.165C137.787 247.125 138.256 246.642 138.279 246.046L140.011 197.473C140.06 197.474 140.11 197.473 140.162 197.47C142.424 197.314 143.956 195.916 146.747 190.656L147.079 190.024L147.459 189.289C148.14 188.032 149.947 186.08 151.496 184.407L151.497 184.407C152.513 183.309 153.419 182.331 153.821 181.749C154.656 181.912 155.869 182.041 157.459 182.133L157.658 182.144L156.396 185.209L156.372 185.275C156.214 185.755 156.469 186.28 156.955 186.447C173.608 192.175 182.661 187.705 184.999 175.67C188.334 158.505 179.309 149.881 158.51 150.101L158.838 139.114C160.117 138.933 161.313 138.418 162.386 137.548C165.422 135.083 167.193 129.976 167.542 122.242C168.73 95.9679 161.061 79.4257 144.483 72.8862L143.919 72.6691L143.865 72.5208C143.574 71.6946 143.378 71.0256 143.279 70.522L143.257 70.4088C143.153 69.8183 143.153 68.8313 143.27 67.4806C143.284 67.3125 143.258 67.1502 143.2 67.0033C147.284 63.699 151.27 57.7628 153.215 51.6232L153.264 51.6402C153.284 51.6472 153.305 51.6546 153.327 51.6623L154.223 51.9809C154.811 52.1787 155.303 52.306 155.807 52.3722C158.569 52.735 160.25 50.9347 160.25 46.7568C160.25 45.1777 159.49 44.0852 158.069 43.8362C157.139 43.6733 155.972 43.8887 154.523 44.4535C155.214 35.3724 153.087 28.877 148.75 24.8176C147.117 23.2882 145.205 22.1678 143.22 21.444C145.065 20.9504 146.914 20.1152 148.351 18.9723C151.648 16.35 152.689 12.406 150.797 7.28386L157.228 5.84895L157.279 5.83107C157.495 5.74177 157.549 5.2061 157.549 4.80594C157.549 4.40578 157.221 3.94737 156.973 4.01773L150.394 6.28376C148.278 1.58546 142.945 -0.731252 137.428 0.252861ZM127.393 248.537L127.708 248.537C129.223 248.54 130.703 248.546 132.148 248.556C132.037 249.824 132.01 251.369 132.12 252.5H127.726C127.683 251.595 127.57 249.922 127.393 248.537ZM126.104 248.536C126.004 249.337 125.922 250.239 125.849 251.051C125.791 251.688 125.739 252.269 125.686 252.7C125.65 252.728 125.616 252.76 125.584 252.794C123.127 255.403 120.585 257.102 117.959 257.908L117.531 258.036C115.285 258.692 111.079 259.727 111.163 259.704C109.33 260.226 108.442 260.828 108.13 262.085C107.617 264.155 109.711 265.063 115.143 265.099L115.557 265.1C116.449 265.099 117.236 265.008 118.969 264.734L120.318 264.518C121.678 264.307 122.483 264.217 123.22 264.21L123.539 264.212C123.926 264.222 124.325 264.262 125.199 264.373L126.266 264.512C126.884 264.591 127.321 264.64 127.782 264.678C129.692 264.836 131.15 264.703 132.372 264.117C135.534 262.6 135.918 258.827 133.849 253.115C133.846 253.109 133.844 253.102 133.841 253.095C133.852 253.032 133.858 252.966 133.858 252.9V248.569C160.255 248.802 174.962 250.22 187.05 251.85L187.979 251.979C203.034 254.111 212.246 257.962 217.766 264.515C219.994 267.16 215.975 270.488 205.046 273.054C191.841 276.154 171.072 277.462 144.377 276.441L143.566 276.41C141.656 276.334 138.441 276.436 133.114 276.718L128.216 276.993C126.352 277.1 124.207 277.223 122.178 277.34C119.147 277.515 116.377 277.675 115.198 277.74L112.377 277.895C101.718 278.468 92.7917 278.832 84.1453 278.997L83.019 279.018C63.3942 279.355 47.975 278.556 37.2943 276.289C24.8934 273.656 18.9951 269.341 21.6749 262.987C24.7653 255.659 32.7787 250.727 45.1166 248.929L45.492 248.875C49.1796 248.355 53.3429 248.436 58.2198 248.532C60.6465 248.579 63.2499 248.63 66.0593 248.612L68.4669 248.603C72.3747 248.597 98.4222 248.218 98.4222 248.218C107.541 248.421 114.032 248.517 120.964 248.531L126.104 248.536ZM141.628 68.1397C140.078 69.1243 138.549 69.6833 137.15 69.6833C136.051 69.6833 134.872 69.2811 133.663 68.5533C133.705 68.9718 133.694 69.3584 133.627 69.7152C133.485 70.4775 133.034 71.828 132.287 72.8836C132.266 72.9128 132.244 72.9408 132.221 72.9676C133.222 73.5354 134.771 74.1251 136.91 73.8254C139.266 73.4953 140.568 72.658 141.359 72.0072C141.236 70.7569 141.394 69.2742 141.628 68.1397ZM141.617 73.2583C140.639 74.5375 138.99 75.9254 136.91 75.9254C133.776 75.9254 131.717 75.1476 131.048 73.4976C113.714 79.1258 106.076 94.7832 109.995 121.751L110.112 122.54L110.175 122.809C112.58 132.795 118.252 137.181 123.837 136.497L124.009 136.474C129.009 135.771 133.884 130.957 135.189 125.472L135.382 124.646C136.355 120.411 136.946 116.668 136.946 113.592L136.943 112.315C136.911 105.613 136.624 100.653 136.263 98.4655L136.237 98.3161L136.198 98.4243C136.045 98.8365 135.882 99.3414 135.711 99.9364L135.66 100.118C134.872 102.912 133.948 107.454 132.896 113.764C132.124 118.402 119.72 124.224 119.534 123.675C119.476 123.503 120.493 122.803 121.937 121.808L121.939 121.807L121.945 121.803C122.507 121.416 123.135 120.983 123.789 120.52C123.766 120.477 123.743 120.432 123.719 120.383C121.891 116.717 120.765 113.501 120.349 110.72C119.938 107.972 120.897 96.9113 121.507 96.9143L121.584 96.9172C121.892 96.9387 121.824 98.372 121.724 100.497C121.614 102.812 121.466 105.949 121.723 108.975C122.002 112.26 123.459 115.569 124.47 117.868C124.75 118.503 124.995 119.061 125.173 119.519C127.846 117.536 130.526 115.215 130.825 113.419L131.064 112.005C132.009 106.469 132.852 102.384 133.592 99.713L133.638 99.5478C134.044 98.1087 134.423 97.0804 134.796 96.4265C135.384 95.3989 136.273 94.8641 137.208 95.6077C138.247 96.4337 138.767 99.9874 138.958 106.466C139.117 103.564 139.381 101.215 139.739 99.4562C140.038 97.9861 140.402 96.922 140.856 96.2491C141.502 95.2938 142.51 94.968 143.427 95.6095L143.489 95.6547C145.46 97.1634 146.788 104.481 146.866 113.997L146.869 114.793L146.888 114.904C148.092 119.452 150.586 122.103 152.849 123.692C157.466 116.124 154.779 102.106 153.639 96.1597C153.31 94.4461 153.11 93.4027 153.25 93.3773C153.885 93.2627 154.492 93.6837 154.606 94.3177C156.066 102.386 156.817 108.352 156.857 112.243C156.898 116.181 156.239 120.331 154.884 124.691C154.864 124.754 154.84 124.814 154.811 124.871C155.501 125.226 156.107 125.482 156.565 125.676C157.155 125.925 157.497 126.07 157.453 126.186C157.246 126.728 148.877 126.728 144.783 115.052C144.769 115.011 144.769 114.953 144.769 114.901L144.769 114.883C144.769 110.013 144.436 105.67 143.85 102.357C143.583 100.848 143.271 99.6021 142.938 98.6871L142.894 98.567C142.745 98.1749 142.599 97.8677 142.474 97.6549L142.469 97.6455L142.443 97.6971C142.223 98.1501 141.998 98.8852 141.797 99.8749L141.764 100.039C141.662 100.562 141.535 101.141 141.395 101.774C140.795 104.509 139.969 108.27 139.95 112.957L139.949 113.656C139.949 121.832 145.696 131.731 152.229 135.61C159.018 139.641 164.833 135.679 165.445 122.147C166.619 96.164 159.444 78.7538 142.742 74.473C142.197 74.3332 141.838 73.8818 141.617 73.2583ZM138.935 116.161C138.697 119.063 138.091 122.345 137.232 125.957C135.734 132.253 130.193 137.726 124.301 138.554C123.283 138.697 122.291 138.706 121.33 138.58C121.389 139.437 121.457 140.672 121.531 142.23C121.741 142.201 121.962 142.228 122.17 142.322C123.707 143.013 132.217 143.968 139.61 144.116L140.159 144.126C148.953 144.258 155.251 143.28 156.433 141.486L156.505 139.09C155.081 138.875 153.594 138.309 152.09 137.416C145.586 133.554 139.924 124.478 138.935 116.161ZM116.383 47.6686C116.201 44.9493 118.404 45.1279 120.029 45.4378C120.375 47.1606 120.857 48.9 121.446 50.614L121.363 50.6117C119.558 50.5616 116.571 50.4787 116.383 47.6686ZM154.394 45.8783C154.361 46.1925 154.324 46.5095 154.285 46.8295C154.142 47.9867 153.907 49.1595 153.593 50.331C155.697 50.5801 159.22 50.7177 158.562 46.0446C158.305 44.2247 155.96 45.2117 154.394 45.8783ZM136.836 20.4693C137.734 20.4159 138.664 20.4478 139.605 20.5661C141.989 20.5368 145.555 19.4495 147.189 17.5113C153.6 9.90749 144.711 1.2931 137.808 2.40658C132.682 3.23342 127.844 6.83329 127.074 12.5927C126.705 15.3592 128.511 19.7651 136.836 20.4693ZM123.125 185.701C124.1 214.3 125.15 245.088 125.624 245.912C125.704 246.057 126.92 246.068 127.885 246.077L127.887 246.077H127.891C128.144 246.08 128.38 246.082 128.573 246.086L129.092 246.094L129.682 246.095C131.11 246.088 132.912 246.021 135.083 245.894L135.988 245.839L139.556 160.813C139.458 158.879 137.674 156.668 136.474 155.182C135.76 154.297 135.253 153.669 135.432 153.509C135.906 153.085 139.615 157.244 140.299 158.714C140.311 158.764 140.326 158.831 140.342 158.913C140.763 157.809 141.356 156.652 142.128 155.448C142.406 155.014 145.935 150.119 143.417 155.166C138.026 165.974 144.133 170.367 154.792 170.405L154.832 170.406L154.836 170.406C154.925 170.406 154.99 170.407 155.136 170.388C159.286 169.861 163.79 170.105 167.338 170.567C170.826 171.022 176.854 174.418 170.031 176.335C168.4 176.793 165.78 176.517 162.755 175.859L161.936 175.724L157.131 185.442L157.961 185.621C172.521 190.251 180.965 185.931 183.102 175.638L183.167 175.314C186.215 159.627 179.672 149.918 158.484 150.954L158.457 151.875C158.437 152.519 157.899 153.026 157.255 153.006C156.611 152.987 156.105 152.449 156.125 151.805L156.145 151.106C148.726 151.65 153.585 150.719 156.169 150.303L156.345 144.44C153.29 145.994 147.661 146.574 140.177 146.46L139.563 146.449C132.313 146.304 124.201 145.434 121.64 144.61C122.027 153.486 122.564 169.229 123.125 185.698L123.125 185.701ZM159.858 176.801L158.127 181.006C156.926 180.823 156.099 180.611 155.478 180.452C155.272 180.399 155.089 180.352 154.923 180.314C154.697 178.643 154.703 177.43 154.914 176.715C155.097 176.094 155.362 175.743 155.707 175.585C156.451 175.828 157.327 176.093 158.335 176.379L159.093 176.592L159.858 176.801ZM153.345 180.431C153.436 180.371 153.533 180.325 153.632 180.294C153.381 178.949 153.379 176.902 153.59 176.188C153.733 175.701 153.855 175.319 154.019 175.01C153.779 174.927 153.414 174.741 152.964 174.511C150.897 173.452 147.043 171.48 145.345 174.575C142.481 179.798 139.965 196.209 140.697 196.213C141.739 196.22 144.387 192.516 146.13 189.227L146.207 189.08L146.656 188.206C148.024 185.553 150.21 182.488 153.345 180.431ZM161.52 174.691C161.147 174.625 160.777 174.791 160.576 175.1C160.497 175.051 160.408 175.014 160.313 174.991L153.851 173.395L153.709 173.314C148.795 170.537 145.618 170.772 143.401 173.866C142.615 174.963 142.221 176.342 142.032 178.172L142.009 178.403L141.982 178.719C141.957 179.036 141.937 179.364 141.917 179.768L141.838 181.456L141.823 181.711C141.798 182.109 141.774 182.368 141.739 182.611L141.716 182.756L141.645 183.148L141.601 183.35C141.576 183.459 141.546 183.584 141.506 183.739L141.391 184.176L140.69 186.705C140.565 187.283 140.447 187.827 140.337 188.337L141.088 167.268C143.448 170.198 148.464 171.742 155.631 171.296L156.221 171.263C156.499 171.249 156.779 171.234 157.061 171.219L157.07 171.218L157.121 171.215L157.132 171.215C160.253 171.047 163.64 170.865 166.708 171.546C174.36 173.246 171.23 174.808 170.556 175.144L170.516 175.165L170.496 175.175L170.408 175.217C169.33 175.696 166.801 175.599 162.022 174.778L161.52 174.691ZM111.419 261.107L111.674 261.032C111.551 261.07 120.78 259.763 125.719 254.624C126.652 253.655 132.309 254.367 132.309 254.367L132.315 254.381C134.445 257.908 134.752 261.574 132.08 262.655C131.137 263.037 129.544 263.417 127.936 263.284L127.702 263.264L127.372 263.231C127.146 263.207 126.902 263.178 126.616 263.142L125.027 262.937C124.19 262.835 123.821 262.809 123.316 262.809C122.433 262.809 118.19 263.433 118.19 263.433C116.895 263.631 116.236 263.699 115.554 263.7C112.827 263.704 111.109 263.033 110.264 262.689L110.184 262.655C110.108 262.621 110.046 262.587 109.998 262.556L109.946 262.519L109.942 262.535C110.04 262.14 110.37 261.426 111.419 261.107ZM152.705 46.8295C152.972 44.6696 153.06 42.6506 152.989 40.7738C149.756 42.0577 146.519 41.822 143.768 40.2021C141.508 38.8712 139.472 36.7562 137.653 33.8681L137.586 33.7612L137.526 33.8775C136.056 36.6677 134.16 38.8961 131.838 40.5515L131.605 40.7151C128.691 42.7203 125.274 43.6153 121.384 43.4027L121.4 43.4718C123.617 53.2333 131.325 68.2729 137.277 68.6333C139.554 68.7712 142.858 65.0939 145.921 61.1076C149.229 56.8033 152.098 51.7481 152.705 46.8295ZM147.315 26.3507C150.228 29.0769 152.284 33.2418 152.853 38.8095C152.819 38.8203 152.785 38.8333 152.751 38.8484C149.893 40.1301 147.09 40.4588 144.715 39.0602C142.363 37.6752 140.225 34.7891 138.317 31.3171C137.943 30.6364 136.95 30.6839 136.642 31.3973C136.581 31.539 136.514 31.6986 136.441 31.8736C135.598 33.8904 133.903 37.9446 130.225 40.0848C127.548 41.6428 123.597 42.0373 121.646 42.2321L121.644 42.2323L121.641 42.2326C121.467 42.25 121.309 42.2658 121.17 42.2807C121.097 41.8264 121.042 41.375 121.004 40.927C123.233 40.5233 127.917 38.9807 129.8 37.7978C132.189 36.2973 132.921 34.766 134.137 32.2201C134.36 31.7535 134.599 31.2527 134.868 30.7119C135.099 30.2449 135.649 27.1332 134.346 29.4995C134.266 29.6433 134.182 29.8002 134.092 29.9687L134.092 29.9697L134.091 29.9703L134.091 29.9708C132.735 32.5064 129.979 37.6577 120.95 40.0074C120.775 34.7797 122.888 30.0951 125.978 27.0657C128.864 24.2364 133.228 22.3657 136.545 22.044C140.034 21.7056 144.252 23.4828 147.315 26.3507Z" fill="#333333"/>
<path fill-rule="evenodd" clip-rule="evenodd" d="M52.856 189.421C52.2973 183.467 49.5262 177.573 45.1348 173.526C41.9373 170.579 37.3548 168.111 33.0787 170.222C26.5001 174.148 24.7336 182.206 25.3969 189.421C26.2192 198.364 30.3966 203.879 38.4217 207.172C42.9436 209.028 45.9495 211.475 48.4041 215.741C50.3675 219.151 51.5123 223.422 53.9796 226.514C57.6684 231.136 62.2845 233.191 67.9742 232.423C69.102 232.423 72.7348 235.805 73.87 237.854C76.8348 243.205 79.3796 248.855 80.5475 254.896C80.8883 256.659 80.6471 263.255 81.8507 264.527C84.0513 266.856 83.4066 262.372 83.2751 261.019C82.182 249.813 78.1589 240.265 72.3176 230.844C74.1121 228.501 74.3712 222.536 73.8074 220.654C72.3176 214.821 53.9809 201.409 52.856 189.421Z" fill="white"/>
<path fill-rule="evenodd" clip-rule="evenodd" d="M32.4056 168.87L32.3729 168.887C26.2619 172.535 24.0268 177.632 24.4656 189.464C24.9267 201.896 29.436 204.1 37.5314 207.502L37.778 207.604C42.3224 209.468 45.1885 211.899 47.533 215.973L47.721 216.306C48.1307 217.044 48.4966 217.798 49.0126 218.949L49.937 221.046C51.1845 223.86 51.9793 225.34 53.1483 226.805C56.9851 231.613 61.7841 233.666 67.5701 232.885L67.6251 232.874L67.6784 232.857C68.575 232.505 71.6234 235.605 72.9953 238.08C76.3271 244.094 78.4788 249.338 79.5498 254.616L79.6228 254.984C79.6918 255.342 79.7373 255.891 79.7902 256.936L79.8633 258.482C79.8807 258.843 79.897 259.157 79.9142 259.453L79.9247 259.629C80.0988 262.507 80.3846 264.149 81.045 264.848C81.9271 265.781 82.7415 265.957 83.1878 265.147C83.4417 264.685 83.5011 263.941 83.4465 262.893L83.4247 262.544C83.4119 262.365 83.396 262.179 83.377 261.98L83.226 260.51C82.1563 250.32 78.6752 241.074 72.5289 231.054L72.4093 230.86L72.4855 230.739C73.9566 228.31 74.4929 222.873 73.7879 220.52C72.5827 216.5 70.1988 213.246 65.8612 208.956L65.1059 208.212C57.7715 200.957 55.3113 197.215 53.2955 189.231L52.6017 186.468L52.5842 186.401C50.9286 180.018 49.191 176.219 45.9052 173.191C41.9628 169.558 36.4208 166.888 32.4056 168.87ZM45.2727 173.877C48.2871 176.655 50.4182 180.165 51.9831 186.011L52.3195 187.304L52.7878 189.182C53.2955 194.214 54.8646 200.143 64.4503 208.876L64.9598 209.378C69.3512 213.688 71.7225 216.88 72.8938 220.788C73.5597 223.01 72.9501 228.641 71.4805 230.561C71.3626 230.714 71.3522 230.925 71.4544 231.09C77.705 241.171 81.2261 250.411 82.297 260.6L82.4284 261.87L82.4651 262.254C82.4813 262.438 82.4946 262.611 82.505 262.777L82.5145 262.942C82.5598 263.813 82.5096 264.443 82.3702 264.696L82.3633 264.713L82.38 264.718C82.2564 264.691 82.0276 264.529 81.7233 264.207C81.3008 263.76 81.0274 262.241 80.8689 259.775L80.8359 259.221L80.7142 256.729C80.6646 255.784 80.6199 255.254 80.5498 254.864L80.5391 254.807C79.4733 249.294 77.2646 243.86 73.8117 237.628L73.7359 237.493C72.1214 234.656 68.985 231.481 67.4107 231.963L67.4011 231.966L67.4453 231.96C61.9928 232.696 57.5147 230.78 53.8778 226.223C52.7403 224.798 51.9609 223.325 50.6812 220.421L50.0217 218.92C49.3257 217.352 48.8953 216.469 48.3419 215.508C45.9361 211.327 42.9736 208.776 38.3887 206.847L38.1323 206.741C30.196 203.483 26.1943 198.071 25.395 189.379L25.3722 189.119C24.6983 181.091 27.1079 174.168 32.6707 170.732L32.8346 170.632L32.8186 170.64C36.4233 168.861 41.5839 170.478 45.2727 173.877Z" fill="#333333"/>
<path fill-rule="evenodd" clip-rule="evenodd" d="M78.7051 232.565C81.4049 232.98 83.757 231.399 84.6626 228.765C85.445 226.488 85.5214 223.84 86.4102 221.687C87.0224 220.204 87.9962 218.945 89.1869 217.88C92.3281 215.072 95.6075 214.37 96.5438 209.71C97.2779 206.056 96.3664 198.609 91.2673 199.352C87.7199 199.871 84.8532 204.611 83.2009 207.6C81.1564 211.299 79.2487 215.263 78.1744 219.327C76.4046 226.02 76.1655 233.45 76.1436 240.305C76.1409 241.131 75.9685 251.222 77.1483 251.057C78.3171 250.893 77.5769 240.418 77.6766 238.249" fill="white"/>
<path d="M79.6184 225.952C80.1685 222.514 81.4345 220.571 82.8284 220.922C84.1801 221.262 84.4503 223.507 83.4173 225.876C82.3353 228.358 81.3649 229.575 80.4515 229.388C79.5629 229.206 79.3253 227.892 79.5901 226.132L79.6184 225.952ZM58.0979 220.646C59.2198 220.716 60.764 221.573 62.2034 222.838C63.6468 224.107 64.7303 225.562 65.012 226.733C65.3874 228.294 64.3864 229.255 62.2288 229.255C61.223 229.255 60.345 229.094 59.3997 228.546C58.0053 227.738 56.9757 226.262 56.4544 223.996C55.9466 221.789 56.5647 220.55 58.0979 220.646ZM82.6009 221.827C81.9835 221.672 80.5838 223.09 80.1028 225.917L80.0472 226.271C79.9418 226.971 79.9418 227.562 80.0091 228.013C80.4514 230.98 82.1231 227.189 82.7366 225.593C83.5172 223.562 83.2042 221.98 82.6009 221.827ZM58.0403 221.577C57.2654 221.529 56.5108 222.106 56.8977 223.787C57.363 225.809 58.7058 227.531 59.8684 228.205C60.6433 228.655 61.3727 228.788 62.2288 228.788C63.8371 228.788 64.3225 227.856 64.1048 226.951C63.8773 226.005 62.8993 224.692 61.5872 223.539C60.2894 222.399 58.9083 221.632 58.0403 221.577ZM58.0501 210.191C58.6839 209.134 60.3443 209.822 62.0257 211.669C63.0773 212.825 64.5499 214.824 64.9847 215.812C65.1618 216.214 65.2217 216.515 65.0862 216.788C64.8814 217.202 64.4739 217.213 63.9974 217.018C63.3886 216.768 62.3593 216.053 60.8382 214.813L60.3499 214.411C58.4181 212.806 57.4937 211.119 58.0501 210.191ZM88.4339 211.737C90.6473 208.178 92.5644 206.832 93.386 208.37C93.9905 209.503 93.2023 211.866 91.6263 213.421C89.6783 215.343 88.1119 216.659 87.2991 216.925C86.4079 217.217 86.065 216.536 86.385 215.574C86.6247 214.853 87.2218 213.712 88.2083 212.102L88.4339 211.737ZM58.9202 210.645C58.8707 210.651 58.8587 210.658 58.8509 210.671C58.7794 210.79 58.3669 211.139 58.6282 211.616C58.9717 212.242 60.0659 213.429 60.9466 214.161C62.3425 215.32 63.818 216.07 64.4446 216.432L64.5071 216.467L64.4388 216.337C63.9315 215.411 62.3112 213.393 61.4388 212.412L61.3352 212.297C60.6024 211.492 59.9259 210.968 59.3938 210.747C59.1892 210.663 59.0265 210.632 58.9202 210.645ZM92.5628 208.344C92.4846 208.198 92.3227 208.191 91.8714 208.507C91.1774 208.994 89.8063 210.547 88.76 212.23C87.6748 213.975 86.6828 216.076 86.9876 216.3C87.3354 216.553 89.1355 214.535 90.5296 213.188L90.971 212.757C92.2849 211.461 92.9354 209.043 92.5628 208.344ZM39.8499 201.791C40.4836 200.734 42.144 201.421 43.8255 203.269C44.8771 204.424 46.3506 206.424 46.7854 207.411C46.9626 207.814 47.0224 208.114 46.887 208.388C46.6822 208.802 46.274 208.813 45.7972 208.618C45.1884 208.368 44.159 207.653 42.638 206.413L42.1497 206.011C40.2183 204.406 39.2939 202.72 39.8499 201.791ZM40.72 202.244C40.6706 202.25 40.6585 202.258 40.6507 202.271C40.5795 202.39 40.1666 202.738 40.428 203.215C40.7713 203.841 41.8656 205.028 42.7464 205.76C44.1426 206.92 45.1521 207.67 45.7786 208.032L45.8411 208.067L45.7718 207.937C45.2645 207.011 44.111 204.992 43.2386 204.012L43.135 203.897C42.4021 203.092 41.7257 202.567 41.1936 202.347C40.9891 202.262 40.8263 202.232 40.72 202.244ZM89.3089 202.435C91.4905 201.48 92.9097 201.412 92.9026 202.6C92.8976 203.403 91.8148 204.523 90.1634 205.532C88.4892 206.554 86.9265 206.61 86.5423 205.56C86.1757 204.558 87.2774 203.324 89.3089 202.435ZM49.1839 198.991C49.8179 197.934 51.4773 198.622 53.1585 200.469C54.2102 201.625 55.6837 203.624 56.1184 204.612C56.2956 205.014 56.3555 205.314 56.22 205.588C56.0152 206.002 55.6069 206.013 55.1302 205.818C54.5214 205.568 53.492 204.853 51.971 203.613L51.4827 203.211C49.5511 201.606 48.6275 199.919 49.1839 198.991ZM91.7542 202.657C91.3133 202.678 90.1638 202.435 87.6653 203.674C87.2042 203.903 86.9092 205.118 86.9524 205.239C87.0578 205.527 88.4331 205.962 89.677 205.202C90.4135 204.753 91.0227 203.814 91.4417 203.38C91.7208 203.091 91.8903 202.841 91.9475 202.689L91.9563 202.662C91.9185 202.657 91.8721 202.654 91.8147 202.655L91.7542 202.657ZM50.054 199.445C50.0044 199.451 49.9915 199.458 49.9837 199.471C49.9123 199.59 49.6521 199.992 49.9134 200.469C50.2565 201.095 51.2596 202.681 51.6126 202.96C53.036 204.087 54.9519 204.87 55.5784 205.232L55.6409 205.267L55.5716 205.137C55.0644 204.211 53.445 202.192 52.5725 201.212L52.4681 201.097C51.7354 200.292 51.0596 199.768 50.5276 199.547C50.3232 199.463 50.1603 199.432 50.054 199.445ZM28.7268 189.823C30.0669 188.203 36.2519 193.806 36.1712 196.605C36.124 198.238 35.4132 199.076 34.2356 198.862C33.3624 198.703 32.2978 197.934 31.2415 196.782C28.956 194.288 27.6024 191.182 28.7268 189.823ZM29.4104 189.998C28.7979 190.886 29.513 194.024 31.4622 196.151C32.3927 197.166 33.7794 198.296 34.4026 198.41C34.923 198.504 35.206 198.171 35.2386 197.044C35.2684 196.009 34.1158 193.843 32.429 192.315C31.6769 191.633 30.3329 189.999 29.5423 189.989C29.4415 189.987 29.4248 189.976 29.4456 189.951L29.4104 189.998ZM40.3011 176.574C41.0406 176.194 42.1564 176.794 43.5852 178.059C46.3305 180.49 48.9157 184.167 48.5384 185.637C48.1193 187.266 46.6028 187.649 44.9427 186.72C43.3197 185.812 41.7309 183.816 40.6536 181.164C39.5784 178.518 39.4023 177.035 40.3011 176.574ZM42.9661 178.758C42.311 177.966 41.2269 176.766 40.7268 176.937C40.2014 177.117 40.1986 178.713 41.1155 180.481L41.263 180.852C42.2658 183.32 43.9773 185.577 45.3987 186.372C46.5776 187.032 47.3881 186.827 47.6341 185.871C47.8853 184.894 45.1696 181.422 42.9661 178.758Z" fill="#FF8A65"/>
<path fill-rule="evenodd" clip-rule="evenodd" d="M91.2 198.89C93.7761 198.515 96.0537 200.005 97.0005 202.729C97.7443 204.869 97.4236 207.7 97.0014 209.801C96.4598 212.497 95.3315 213.938 92.8464 215.722L91.3528 216.77C90.8371 217.137 90.4139 217.457 90.0091 217.79C89.8333 217.935 89.6633 218.08 89.498 218.228C88.296 219.303 87.3994 220.514 86.8416 221.865L86.7653 222.055C86.4698 222.812 86.2828 223.563 86.0129 224.964L85.7815 226.189C85.5469 227.408 85.37 228.142 85.1039 228.917C84.0827 231.887 81.9262 233.46 79.101 233.027C78.8463 232.987 78.0093 233.051 79.8848 232.671C81.7602 232.291 83.3371 231.185 84.2213 228.613C84.4701 227.889 84.639 227.187 84.8664 226.005L85.0991 224.773C85.402 223.202 85.608 222.407 85.9789 221.509C86.5931 220.021 87.5736 218.697 88.8759 217.532C89.0509 217.376 89.2305 217.222 89.4159 217.07C89.7865 216.764 90.1695 216.472 90.6159 216.15L91.0701 215.827C91.4464 215.563 92.02 215.164 92.1361 215.082L92.4586 214.85C94.6566 213.247 96.0769 211.987 96.553 209.618C96.9434 207.675 96.3394 205.013 95.6522 203.035C94.8379 200.692 93.4034 199.046 91.3348 199.347C88.2889 199.792 80.7273 210.861 78.6366 217.638C76.9163 223.214 76.4796 231.773 76.5936 239.459L76.612 240.554L76.6094 242.064C76.6104 243.287 76.6225 244.309 76.6548 245.373L76.6633 245.64C76.7145 247.177 76.8032 248.441 76.9362 249.35C76.98 249.65 77.0282 249.906 77.0796 250.115L77.1059 250.217L77.12 250.153C77.1781 249.873 77.2254 249.507 77.2615 249.061L77.2731 248.91L77.2939 248.589C77.3513 247.595 77.3628 246.323 77.3384 244.734L77.317 243.625C77.3076 243.217 77.2962 242.779 77.2819 242.269L77.2037 239.337C77.1949 238.881 77.1957 238.642 77.2028 238.419L77.2377 237.57C77.263 236.88 77.2786 236.163 77.2963 235.024L77.3227 233.373C77.3933 229.6 77.5312 227.721 77.9807 225.41C78.0485 225.061 78.1226 224.718 78.2033 224.378C79.381 219.419 81.9155 215.85 84.3676 211.477C85.1039 210.163 88.9691 208.152 89.0046 208.407C89.0401 208.662 85.6951 210.172 84.6799 211.861C82.5201 215.453 80.2626 219.746 79.1114 224.594C79.0336 224.921 78.9622 225.252 78.8968 225.588L78.8117 226.043C78.4421 228.093 78.3206 229.929 78.2557 233.4L78.2072 236.292C78.1948 236.88 78.181 237.349 78.162 237.825L78.1339 238.518C78.1278 238.774 78.1305 239.089 78.1468 239.764L78.2459 243.427C78.2545 243.786 78.2614 244.118 78.2672 244.45L78.2826 245.521C78.3265 249.673 78.1331 251.39 77.2132 251.519C76.493 251.62 76.2225 250.919 76.0127 249.485C75.8818 248.59 75.7936 247.392 75.7401 245.945L75.7305 245.671C75.6914 244.498 75.6772 243.401 75.6761 242.067L75.6771 240.317C75.4797 232.33 76.3947 223.251 78.2114 217.362C80.4019 210.263 87.6666 199.407 91.2 198.89Z" fill="#333333"/>
<ellipse cx="77.0667" cy="255.767" rx="18.2" ry="13.5333" fill="white"/>
<ellipse cx="69.8356" cy="255.767" rx="10.9689" ry="13.5333" fill="#E7EAEE"/>
<path fill-rule="evenodd" clip-rule="evenodd" d="M95.2667 241.65H58.8667C58.5445 241.65 58.2833 241.911 58.2833 242.233C58.2833 252.203 59.2242 258.41 61.724 262.72C64.5428 267.579 69.3994 269.883 77.0667 269.883C84.734 269.883 89.5906 267.579 92.4093 262.72C94.9092 258.41 95.85 252.203 95.85 242.233C95.85 241.911 95.5888 241.65 95.2667 241.65ZM60.3843 242.817H94.2153L94.215 242.951C94.1705 252.308 94.1756 258.154 91.8668 262.134C89.2768 266.599 84.3477 269.183 77.0667 269.183C69.7857 269.183 65.3232 266.133 62.7332 261.668L62.6462 261.516C60.431 257.592 60.4533 252.344 60.3872 243.318L60.3843 242.817Z" fill="#333333"/>
</svg>
