<svg width="350" height="350" viewBox="0 0 350 350" fill="none" xmlns="http://www.w3.org/2000/svg">
<path d="M175 336.021C265.487 336.021 338.842 296.508 338.842 247.765C338.842 199.023 265.487 159.509 175 159.509C84.5125 159.509 11.158 199.023 11.158 247.765C11.158 296.508 84.5125 336.021 175 336.021Z" fill="#F5F5F5"/>
<path d="M308.903 262.5C316.197 266.609 316.267 273.392 309.064 277.662C301.861 281.932 290.108 282.051 282.814 277.942C275.52 273.833 275.443 267.05 282.653 262.78C289.863 258.51 301.609 258.37 308.903 262.5Z" fill="#E0E0E0"/>
<path d="M56.07 244.671C63.364 248.78 63.434 255.563 56.231 259.826C49.028 264.089 37.275 264.222 29.981 260.113C22.687 256.004 22.61 249.2 29.813 244.951C37.016 240.702 48.776 240.562 56.07 244.671Z" fill="#E0E0E0"/>
<path d="M90.2999 296.667L167.713 252C167.897 251.936 168.056 251.816 168.168 251.657C168.281 251.499 168.341 251.309 168.341 251.114C168.341 250.92 168.281 250.73 168.168 250.572C168.056 250.413 167.897 250.293 167.713 250.229L162.155 247.023C161.68 246.781 161.155 246.655 160.622 246.655C160.089 246.655 159.564 246.781 159.089 247.023L127.659 265.167C127.184 265.409 126.659 265.535 126.126 265.535C125.593 265.535 125.068 265.409 124.593 265.167L67.2909 232.05C66.8172 231.808 66.2931 231.683 65.7614 231.683C65.2297 231.683 64.7055 231.808 64.2319 232.05L61.5439 233.597C61.3602 233.661 61.201 233.781 61.0884 233.94C60.9758 234.098 60.9153 234.288 60.9153 234.483C60.9153 234.677 60.9758 234.867 61.0884 235.025C61.201 235.184 61.3602 235.304 61.5439 235.368L118.902 268.485C119.086 268.549 119.245 268.669 119.357 268.828C119.47 268.986 119.53 269.176 119.53 269.371C119.53 269.565 119.47 269.755 119.357 269.913C119.245 270.072 119.086 270.192 118.902 270.256L81.6689 291.69C81.4844 291.752 81.3241 291.871 81.2105 292.029C81.097 292.187 81.0359 292.377 81.0359 292.572C81.0359 292.767 81.097 292.957 81.2105 293.115C81.3241 293.273 81.4844 293.392 81.6689 293.454L87.2689 296.667C87.7392 296.903 88.2582 297.026 88.7844 297.026C89.3106 297.026 89.8295 296.903 90.2999 296.667Z" fill="#E0E0E0"/>
<path d="M179.074 250.369C184.436 253.337 184.436 258.146 179.074 261.114C173.712 264.082 165.025 264.082 159.67 261.114C154.315 258.146 154.308 253.337 159.67 250.369C165.032 247.401 173.719 247.401 179.074 250.369Z" fill="#E0E0E0"/>
<path d="M222.488 312.403C248.135 312.403 268.926 300.892 268.926 286.692C268.926 272.492 248.135 260.981 222.488 260.981C196.841 260.981 176.05 272.492 176.05 286.692C176.05 300.892 196.841 312.403 222.488 312.403Z" fill="#E0E0E0"/>
<path d="M141.785 237.58V235.564L105.882 256.333L107.597 257.341L141.785 237.58Z" fill="#37474F"/>
<path d="M97.0201 100.877C97.1083 100.928 97.1782 101.006 97.2197 101.099C97.2612 101.192 97.2722 101.295 97.2511 101.395L67.5081 233.443L66.6541 237.188C66.2462 237.219 65.8373 237.14 65.4711 236.957L63.4761 235.809C63.3886 235.756 63.32 235.677 63.2798 235.583C63.2396 235.488 63.2299 235.384 63.2521 235.284L93.7861 99.729C93.8026 99.6565 93.8358 99.5889 93.8831 99.5315C93.9305 99.4742 93.9905 99.4287 94.0586 99.3988C94.1266 99.3689 94.2008 99.3553 94.275 99.3591C94.3492 99.363 94.4215 99.3842 94.4861 99.421L97.0201 100.877Z" fill="#37474F"/>
<path d="M100.751 99.078L70.063 235.27C70.0396 235.377 69.9938 235.478 69.9287 235.566C69.8636 235.654 69.7805 235.727 69.6851 235.781L67.69 236.936C67.3721 237.108 67.0153 237.195 66.6541 237.188L67.5081 233.443L97.3001 101.052L100.751 99.078Z" fill="#455A64"/>
<path d="M104.181 282.618V286.559C103.797 286.567 103.417 286.48 103.075 286.307L101.22 285.236C101.095 285.179 100.988 285.09 100.91 284.978C100.831 284.866 100.783 284.735 100.772 284.599V166.32L104.202 168.294L104.181 282.618Z" fill="#37474F"/>
<path d="M107.604 166.327V284.627C107.585 284.757 107.533 284.879 107.453 284.983C107.374 285.087 107.269 285.169 107.149 285.222L105.301 286.3C104.959 286.489 104.572 286.583 104.181 286.573V168.273L107.604 166.327Z" fill="#455A64"/>
<path d="M148.561 260.932C148.187 260.916 147.822 260.81 147.497 260.624L145.6 259.525C145.479 259.455 145.374 259.359 145.293 259.244C145.212 259.129 145.157 258.998 145.131 258.86L124.733 152.46L128.156 154.434L147.84 257.089L148.561 260.932Z" fill="#37474F"/>
<path d="M151.977 258.937C151.964 259.077 151.914 259.21 151.831 259.324C151.749 259.437 151.637 259.526 151.508 259.581L149.8 260.617L149.716 260.666C149.371 260.847 148.986 260.939 148.596 260.932L147.896 257.103L128.149 154.448L131.586 152.481L151.949 258.79L151.977 258.937Z" fill="#455A64"/>
<path d="M106.421 261.954L145.208 239.561V235.613L106.421 258.006V261.954Z" fill="#455A64"/>
<path d="M74.781 190.715V192.115C74.8016 192.496 74.9118 192.866 75.1028 193.195C75.2938 193.525 75.5602 193.805 75.88 194.012L87.367 200.641C87.7051 200.814 88.0794 200.904 88.459 200.904C88.8387 200.904 89.2129 200.814 89.551 200.641L141.981 170.38C142.299 170.172 142.564 169.891 142.754 169.562C142.943 169.232 143.053 168.863 143.073 168.483V167.083C143.053 166.704 142.943 166.336 142.753 166.007C142.564 165.679 142.299 165.4 141.981 165.193L130.494 158.557C130.155 158.384 129.779 158.294 129.399 158.294C129.018 158.294 128.642 158.384 128.303 158.557L75.88 188.818C75.5602 189.025 75.2938 189.305 75.1028 189.635C74.9118 189.964 74.8016 190.335 74.781 190.715Z" fill="#8E7CC3"/>
<path opacity="0.4" d="M75.88 190.085L87.367 196.7C87.7051 196.873 88.0793 196.963 88.459 196.963C88.8386 196.963 89.2129 196.873 89.551 196.7L141.981 166.439C142.099 166.382 142.199 166.292 142.269 166.181C142.339 166.069 142.376 165.941 142.376 165.809C142.376 165.678 142.339 165.549 142.269 165.437C142.199 165.326 142.099 165.236 141.981 165.179L130.494 158.543C130.155 158.37 129.779 158.28 129.398 158.28C129.018 158.28 128.642 158.37 128.303 158.543L75.88 188.818C75.7597 188.875 75.6581 188.964 75.5868 189.076C75.5156 189.189 75.4778 189.319 75.4778 189.452C75.4778 189.584 75.5156 189.715 75.5868 189.827C75.6581 189.939 75.7597 190.029 75.88 190.085Z" fill="white"/>
<path opacity="0.1" d="M88.4591 196.98V200.9C88.0792 200.906 87.704 200.817 87.3671 200.641L75.8801 194.005C75.5636 193.797 75.3001 193.517 75.1105 193.189C74.921 192.861 74.8106 192.493 74.7881 192.115V190.715C74.8057 190.381 74.8926 190.054 75.0432 189.755C75.1938 189.456 75.4049 189.192 75.6631 188.979C75.2851 189.322 75.3621 189.784 75.8801 190.085L87.3671 196.7C87.7024 196.882 88.0776 196.978 88.4591 196.98Z" fill="#1F1F1F"/>
<path d="M71.7151 200.949L68.5231 199.101C67.9868 198.752 67.5343 198.288 67.1979 197.744C66.8615 197.199 66.6495 196.587 66.5771 195.951L59.9901 81.711C59.9861 81.0853 60.1399 80.4687 60.4372 79.9182C60.7345 79.3676 61.1657 78.9009 61.6911 78.561L136.647 35.343C137.211 35.0565 137.835 34.9072 138.467 34.9072C139.1 34.9072 139.723 35.0565 140.287 35.343L143.5 37.191C144.036 37.5397 144.489 38.0032 144.824 38.5479C145.159 39.0927 145.369 39.7051 145.439 40.341L152.033 154.581C152.037 155.207 151.883 155.823 151.586 156.374C151.289 156.924 150.857 157.391 150.332 157.731L75.3621 200.949C74.7969 201.236 74.1722 201.385 73.5386 201.385C72.9049 201.385 72.2802 201.236 71.7151 200.949Z" fill="#E0E0E0"/>
<path d="M145.383 40.026C145.187 39.102 144.396 38.773 143.479 39.326L68.5231 82.509C67.9842 82.8511 67.5505 83.3356 67.2701 83.909L60.4241 79.961C60.7162 79.3912 61.1532 78.9084 61.6911 78.561L136.647 35.35C137.211 35.0668 137.833 34.9193 138.464 34.9193C139.094 34.9193 139.716 35.0668 140.28 35.35L143.5 37.205C143.986 37.5259 144.403 37.9408 144.727 38.4253C145.05 38.9097 145.273 39.454 145.383 40.026Z" fill="#FAFAFA"/>
<path d="M66.822 85.659L73.416 199.899C73.3921 200.134 73.4384 200.372 73.5492 200.581C73.66 200.79 73.8302 200.961 74.0385 201.074C74.2467 201.186 74.4836 201.234 74.7192 201.212C74.9547 201.19 75.1784 201.098 75.362 200.949L150.318 157.731C150.843 157.391 151.275 156.924 151.572 156.374C151.869 155.823 152.023 155.207 152.019 154.581L145.425 40.341C145.451 40.1057 145.406 39.868 145.297 39.6582C145.187 39.4484 145.017 39.2761 144.809 39.1634C144.601 39.0506 144.364 39.0026 144.128 39.0253C143.892 39.048 143.669 39.1406 143.486 39.291L68.523 82.509C67.9999 82.8512 67.5705 83.3185 67.2735 83.8685C66.9764 84.4185 66.8213 85.0339 66.822 85.659Z" fill="#F0F0F0"/>
<path d="M89.6772 62.412L96.4602 66.332C96.7453 66.4771 97.0607 66.5527 97.3807 66.5527C97.7006 66.5527 98.016 66.4771 98.3012 66.332L116.585 55.776C116.852 55.6002 117.074 55.3643 117.233 55.0871C117.393 54.8099 117.485 54.4992 117.502 54.18V52.99C117.485 52.6708 117.393 52.3601 117.233 52.083C117.074 51.8058 116.852 51.5698 116.585 51.394L109.795 47.474C109.51 47.3322 109.196 47.2584 108.878 47.2584C108.56 47.2584 108.246 47.3322 107.961 47.474L89.6772 58.03C89.4085 58.2046 89.1848 58.4401 89.0242 58.7175C88.8637 58.9948 88.7708 59.3061 88.7532 59.626V60.823C88.7708 61.142 88.8637 61.4523 89.0243 61.7285C89.1849 62.0047 89.4086 62.2389 89.6772 62.412Z" fill="#8E7CC3"/>
<path opacity="0.4" d="M89.6771 59.094L96.4601 63C96.7453 63.1451 97.0607 63.2207 97.3806 63.2207C97.7006 63.2207 98.016 63.1451 98.3011 63L116.585 52.444C116.697 52.4072 116.795 52.3359 116.864 52.2404C116.933 52.1449 116.97 52.0299 116.97 51.912C116.97 51.7941 116.933 51.6791 116.864 51.5836C116.795 51.4881 116.697 51.4168 116.585 51.38L109.795 47.46C109.51 47.3182 109.196 47.2444 108.878 47.2444C108.56 47.2444 108.246 47.3182 107.961 47.46L89.6771 58.03C89.5651 58.0668 89.4675 58.1381 89.3984 58.2336C89.3292 58.3291 89.292 58.4441 89.292 58.562C89.292 58.6799 89.3292 58.7949 89.3984 58.8904C89.4675 58.9859 89.5651 59.0572 89.6771 59.094Z" fill="white"/>
<path opacity="0.1" d="M97.3002 63.231V66.535C97.0194 66.5334 96.7431 66.4638 96.4952 66.332L89.7122 62.419C89.4448 62.2436 89.2224 62.0078 89.0631 61.7305C88.9038 61.4532 88.812 61.1423 88.7952 60.823V59.626C88.8097 59.3421 88.8839 59.0645 89.013 58.8112C89.1421 58.5579 89.323 58.3347 89.5442 58.156C89.2082 58.436 89.2642 58.856 89.7122 59.094L96.4602 63C96.7161 63.1469 97.0051 63.2263 97.3002 63.231Z" fill="#1F1F1F"/>
<path d="M91.357 24.381C91.346 24.1182 91.405 23.8573 91.528 23.6248C91.651 23.3923 91.8336 23.1967 92.057 23.058L96.257 20.629C96.4945 20.5085 96.7572 20.4457 97.0235 20.4457C97.2899 20.4457 97.5525 20.5085 97.79 20.629L99.498 21.609C99.7241 21.7585 99.9167 21.9533 100.064 22.181C100.211 22.4087 100.309 22.6644 100.352 22.932L103.152 50.267L94.5 55.244L91.357 24.381Z" fill="#455A64"/>
<path d="M97.3771 53.585L94.5001 55.244L91.3501 24.388C91.336 24.1315 91.3891 23.8757 91.5041 23.646L94.7451 25.508C94.6253 25.7385 94.572 25.9979 94.5911 26.257L97.3771 53.585Z" fill="#263238"/>
<path d="M94.5982 26.25C94.5864 25.9871 94.6451 25.7259 94.7682 25.4933C94.8912 25.2607 95.0742 25.0652 95.2982 24.927L99.4982 22.498C99.5769 22.4345 99.6724 22.395 99.7731 22.3845C99.8738 22.374 99.9754 22.3928 100.066 22.4386C100.156 22.4845 100.231 22.5555 100.282 22.643C100.333 22.7305 100.357 22.8309 100.352 22.932L103.152 50.267L97.3982 53.585L94.5982 26.25Z" fill="#37474F"/>
<path d="M313.6 244.027H279.181L280.735 268.485C280.735 270.76 282.184 273.042 285.166 274.785C291.13 278.285 300.853 278.418 306.866 275.023C309.911 273.308 311.43 271.026 311.43 268.723L313.6 244.027Z" fill="#37474F"/>
<path d="M284.27 236.404C277.508 240.219 277.438 246.512 284.116 250.467C290.794 254.422 301.7 254.534 308.462 250.726C315.224 246.918 315.301 240.625 308.616 236.67C301.931 232.715 291.032 232.596 284.27 236.404Z" fill="#455A64"/>
<path d="M312.095 243.733C312.088 244.191 312.006 244.646 311.85 245.077C311.325 246.694 309.925 248.192 307.734 249.424C304.193 251.242 300.247 252.129 296.268 252C291.942 251.944 287.868 250.957 284.879 249.2C282.779 247.947 281.379 246.4 280.889 244.86C280.725 244.397 280.642 243.909 280.644 243.418C280.679 241.318 282.219 239.295 285.012 237.741C288.043 236.019 292.124 235.095 296.457 235.151C300.44 235.106 304.367 236.087 307.86 238C310.618 239.589 312.116 241.633 312.095 243.733Z" fill="#263238"/>
<path d="M296.457 246.456C292.124 246.421 288.057 247.338 285.012 249.06L284.844 249.158H284.879C287.896 250.943 291.942 251.958 296.268 251.958C300.247 252.085 304.193 251.196 307.734 249.375L307.895 249.277H307.86C304.36 247.384 300.436 246.413 296.457 246.456Z" fill="#8E7CC3"/>
<path opacity="0.15" d="M297.563 252C296.465 251.775 295.409 251.378 294.434 250.824C293.478 250.329 292.733 249.507 292.334 248.507C292.245 248.26 292.2 247.999 292.201 247.737C292.213 247.39 292.297 247.049 292.446 246.736C289.853 247.044 287.34 247.837 285.04 249.074L284.872 249.172H284.907C287.924 250.957 291.97 251.972 296.296 251.972C296.702 252 297.136 252 297.563 252Z" fill="#263238"/>
<path d="M302.911 253.211C303.611 252.833 304.122 253.155 304.115 253.911C304.091 254.334 303.967 254.745 303.753 255.11C303.538 255.475 303.24 255.784 302.883 256.011C302.183 256.396 301.665 256.074 301.679 255.311C301.705 254.889 301.83 254.479 302.044 254.114C302.258 253.749 302.555 253.44 302.911 253.211Z" fill="#263238"/>
<path d="M279.58 250.859C278.096 254.653 276.948 259.826 280.28 262.283C280.462 262.416 280.63 262.535 280.812 262.654V264.257C280.378 263.991 279.923 263.69 279.489 263.368C274.554 259.714 277.571 251.706 279.489 247.814L279.58 250.859Z" fill="#E0E0E0"/>
<path d="M303.485 254.926C303.296 255.311 298.55 264.39 290.745 266.21C289.865 266.424 288.963 266.532 288.057 266.532C285.465 266.483 282.942 265.694 280.784 264.257V262.654C284.011 264.894 287.252 265.664 290.43 264.922C297.633 263.235 302.246 254.422 302.281 254.31C302.369 254.159 302.511 254.046 302.678 253.995C302.845 253.943 303.026 253.955 303.184 254.03C303.265 254.066 303.338 254.119 303.397 254.185C303.457 254.251 303.502 254.328 303.53 254.412C303.559 254.496 303.569 254.585 303.562 254.674C303.554 254.762 303.528 254.848 303.485 254.926Z" fill="#E0E0E0"/>
<path d="M60.7529 226.212H26.3479L27.8949 250.677C27.8949 252.945 29.3439 255.234 32.3259 256.977C38.2829 260.477 48.0129 260.61 54.0259 257.215C57.0779 255.5 58.5969 253.218 58.5899 250.915L60.7529 226.212Z" fill="#37474F"/>
<path d="M31.4368 218.596C24.6678 222.404 24.6048 228.704 31.2828 232.659C37.9608 236.614 48.8669 236.726 55.6289 232.918C62.3909 229.11 62.4679 222.817 55.7829 218.862C49.0979 214.907 38.1988 214.788 31.4368 218.596Z" fill="#455A64"/>
<path d="M59.2618 225.918C59.2525 226.379 59.1698 226.835 59.0168 227.269C58.4918 228.879 57.0848 230.377 54.8938 231.616C51.3545 233.433 47.4116 234.322 43.4348 234.199C39.1018 234.143 35.0348 233.149 32.0458 231.399C29.9458 230.146 28.5458 228.599 28.0558 227.052C27.8914 226.589 27.8085 226.101 27.8108 225.61C27.8458 223.51 29.3858 221.494 32.1718 219.933C35.2098 218.211 39.2908 217.294 43.6168 217.35C47.597 217.293 51.5254 218.257 55.0268 220.15C57.7778 221.781 59.2758 223.825 59.2618 225.918Z" fill="#263238"/>
<path d="M32.046 231.371C35.056 233.149 39.102 234.171 43.435 234.171C47.4118 234.294 51.3547 233.405 54.894 231.588C56.5753 230.757 57.9447 229.407 58.8 227.738C57.9588 226.096 56.6314 224.754 54.999 223.895C51.4989 221.998 47.5696 221.034 43.589 221.095C39.263 221.039 35.189 221.956 32.144 223.678C30.4705 224.507 29.103 225.845 28.238 227.5C29.0722 229.156 30.4038 230.51 32.046 231.371Z" fill="#FF8A65"/>
<path opacity="0.15" d="M54.8939 231.616L55.3839 231.322C52.7917 232.112 50.0923 232.492 47.3829 232.449C43.4104 232.497 39.4911 231.534 35.9939 229.649C33.8939 228.396 32.4939 226.849 32.0039 225.302C31.8456 224.852 31.7652 224.379 31.7659 223.902C30.2602 224.727 29.0398 225.989 28.2659 227.521C29.1024 229.172 30.4337 230.52 32.0739 231.378C35.0839 233.156 39.1299 234.178 43.4629 234.178C47.4284 234.303 51.361 233.422 54.8939 231.616Z" fill="#263238"/>
<path d="M50.0779 235.403C50.7779 235.025 51.2889 235.347 51.2819 236.103C51.2545 236.526 51.128 236.936 50.9128 237.301C50.6976 237.666 50.3996 237.975 50.0429 238.203C49.3429 238.581 48.8319 238.266 48.8389 237.503C48.8636 237.08 48.9889 236.668 49.2044 236.303C49.4199 235.938 49.7193 235.629 50.0779 235.403Z" fill="#263238"/>
<path d="M26.747 233.044C25.263 236.845 24.108 242.018 27.447 244.475C27.636 244.608 27.804 244.727 27.986 244.839V246.449C27.545 246.176 27.097 245.882 26.663 245.56C21.763 241.899 24.745 233.898 26.663 230.006L26.747 233.044Z" fill="#E0E0E0"/>
<path d="M50.6449 237.118C50.4629 237.503 45.7449 246.582 37.9119 248.402C37.0293 248.614 36.1246 248.719 35.2169 248.717C32.6281 248.67 30.1069 247.883 27.9509 246.449V244.839C31.1779 247.079 34.4189 247.849 37.5969 247.114C44.7999 245.427 49.4129 236.614 49.4479 236.502C49.5351 236.35 49.6762 236.236 49.8435 236.183C50.0107 236.129 50.1918 236.141 50.3509 236.215C50.4315 236.253 50.5035 236.307 50.5624 236.373C50.6213 236.44 50.6659 236.518 50.6935 236.603C50.721 236.688 50.7309 236.777 50.7226 236.865C50.7142 236.954 50.6878 237.04 50.6449 237.118Z" fill="#E0E0E0"/>
<path d="M215.11 93.03C211.694 92.561 209.167 93.814 206.668 97.447C204.169 101.08 192.591 120.638 192.591 120.638L174.86 100.632C172.452 97.727 170.737 95.823 167.335 94.199C165.94 93.8556 164.482 93.8556 163.086 94.199C158.83 95.473 151.662 102.053 157.143 105.175C160.398 107.037 162.841 106.778 165.69 107.73C166.614 108.038 168.406 109.83 170.401 112.511C174.902 118.538 184.072 129.92 186.571 132.279C190.939 136.395 194.628 138.74 199.934 132.405C206.5 124.6 215.11 111.937 215.11 111.937V93.037" fill="#FFA8A7"/>
<path d="M164.577 99.946L158.067 105.644C158.336 105.713 158.593 105.821 158.83 105.966L162.624 103.257C163.856 102.382 165.347 101.213 165.347 101.213C165.347 101.213 168.581 100.786 169.918 99.694C171.255 98.602 164.577 99.946 164.577 99.946Z" fill="#F28F8F"/>
<path d="M146.342 111.545C149.997 107.609 153.86 103.87 157.913 100.345C162.538 96.5142 167.479 93.0814 172.683 90.083C172.764 90.0418 172.854 90.0203 172.945 90.0203C173.037 90.0203 173.127 90.0418 173.208 90.083C173.348 90.1548 173.454 90.2791 173.502 90.4286C173.551 90.5781 173.538 90.7408 173.467 90.881C173.445 90.921 173.42 90.9585 173.39 90.993C173.39 90.993 166.929 99.071 161 104.118C156.895 107.546 152.609 110.751 148.162 113.722C148.054 113.78 147.934 113.81 147.812 113.81C147.69 113.81 147.57 113.78 147.462 113.722C147.135 113.585 146.844 113.373 146.615 113.103C146.385 112.833 146.222 112.513 146.139 112.168C146.119 112.055 146.128 111.94 146.163 111.831C146.198 111.723 146.26 111.624 146.342 111.545Z" fill="#FF8A65"/>
<path opacity="0.1" d="M173.502 90.895C173.48 90.935 173.454 90.9725 173.425 91.007C173.425 91.007 166.964 99.085 161.035 104.132C157.045 107.527 152.635 110.705 150.143 112.413L149.205 110.824C149.205 110.824 173.558 90.524 173.243 90.097C173.383 90.1688 173.488 90.2931 173.537 90.4426C173.585 90.5921 173.573 90.7548 173.502 90.895Z" fill="#1F1F1F"/>
<path d="M146.678 113.134C146.482 113.631 145.432 116.333 143.563 117.334C143.38 117.127 143.159 116.956 142.912 116.83C141.96 116.34 141.365 116.998 140.609 116.711C139.853 116.424 140.217 115.003 140.217 114.989C140.785 113.828 141.7 112.871 142.835 112.252C143.91 111.686 145.125 111.443 146.335 111.552L148.19 113.743L146.678 113.134Z" fill="#455A64"/>
<path d="M145.229 118.587C144.27 118.587 144.095 117.929 143.563 117.341C145.432 116.333 146.482 113.631 146.678 113.141L148.197 113.743C148.106 114.051 148.015 114.387 147.91 114.744L147.826 115.01C147.763 115.185 147.7 115.374 147.623 115.556C147.504 115.849 147.366 116.135 147.21 116.41C147.099 116.61 146.977 116.804 146.846 116.991C146.547 117.411 146.205 117.798 145.824 118.146C145.639 118.31 145.44 118.458 145.229 118.587Z" fill="#37474F"/>
<path d="M145.215 118.594C145.109 118.664 144.999 118.727 144.886 118.783L144.627 118.902L144.522 118.944H144.445L144.298 118.993L144.116 119.042L143.71 119.133L143.304 119.189H142.898C142.069 119.195 141.246 119.04 140.476 118.734L140.315 118.664H140.266L140.084 118.58C139.716 118.391 139.364 118.171 139.034 117.922C138.887 117.81 138.754 117.705 138.628 117.593L138.306 117.292L138.173 117.152L138.061 117.019C137.996 116.955 137.937 116.885 137.886 116.809C137.835 116.749 137.788 116.686 137.746 116.62C138.122 116.623 138.494 116.541 138.834 116.381C139.174 116.221 139.475 115.987 139.713 115.696C139.917 115.467 140.097 115.219 140.252 114.954C140.252 114.954 139.895 116.354 140.644 116.676C141.393 116.998 141.995 116.305 142.947 116.795C143.194 116.921 143.414 117.092 143.598 117.299C144.13 117.887 144.298 118.559 145.264 118.545L145.215 118.594Z" fill="#8E7CC3"/>
<path opacity="0.1" d="M137.711 116.662C139.115 117.602 140.825 117.973 142.492 117.698C142.867 117.642 143.229 117.521 143.563 117.341C144.095 117.929 144.263 118.601 145.229 118.587C145.123 118.657 145.013 118.72 144.9 118.776L144.641 118.895L144.536 118.937H144.459L144.312 118.986L144.13 119.035L143.724 119.126L143.318 119.182H142.912C142.083 119.188 141.26 119.033 140.49 118.727L140.329 118.657H140.28L140.098 118.573C139.73 118.384 139.378 118.164 139.048 117.915C138.901 117.803 138.768 117.698 138.642 117.586L138.32 117.285L138.187 117.145L138.075 117.012C138.01 116.948 137.951 116.878 137.9 116.802C137.849 116.742 137.802 116.679 137.76 116.613L137.711 116.662Z" fill="#1F1F1F"/>
<path d="M148.197 113.736C148.089 113.794 147.969 113.824 147.847 113.824C147.725 113.824 147.605 113.794 147.497 113.736C147.17 113.599 146.879 113.387 146.65 113.117C146.42 112.847 146.257 112.527 146.174 112.182C146.139 112.07 146.133 111.951 146.156 111.836C146.18 111.721 146.231 111.614 146.307 111.524C147.07 110.691 147.924 109.802 148.834 108.871C148.736 108.987 148.667 109.126 148.636 109.275C148.604 109.424 148.61 109.579 148.652 109.725C148.757 110.159 148.962 110.563 149.251 110.904C149.541 111.244 149.906 111.512 150.318 111.685C150.457 111.752 150.612 111.782 150.766 111.772C150.921 111.762 151.07 111.713 151.2 111.629C150.066 112.469 148.96 113.232 148.197 113.736Z" fill="#EBEBEB"/>
<path d="M149.205 110.824C149.499 111.219 149.896 111.524 150.353 111.706C150.493 111.773 150.647 111.803 150.801 111.793C150.956 111.783 151.105 111.734 151.235 111.65C150.066 112.469 148.96 113.232 148.197 113.75C148.089 113.808 147.969 113.838 147.847 113.838C147.725 113.838 147.605 113.808 147.497 113.75C147.166 113.615 146.872 113.401 146.643 113.127V113.092L149.17 110.817L149.205 110.824Z" fill="#E0E0E0"/>
<path d="M166.292 94.01C165.413 93.6718 164.504 93.4209 163.576 93.261C162.617 92.9609 161.604 92.8726 160.608 93.002C160.225 93.0306 159.857 93.1637 159.544 93.387C159.257 93.6477 159.02 93.9584 158.844 94.304C157.745 96.019 155.841 96.992 154.742 98.686C153.769 100.191 152.642 104.524 153.797 105.56C154.497 106.204 155.96 104.517 156.506 103.264C156.751 104.23 158.165 103.817 159.117 101.78C159.908 100.1 160.811 97.902 160.811 97.902L166.292 94.01Z" fill="#FFA8A7"/>
<path d="M160.468 96.229C160.298 96.3575 160.167 96.5294 160.087 96.7265C160.006 96.9236 159.981 97.1387 160.013 97.349C160.065 97.8149 160.223 98.2626 160.475 98.658L160.79 97.902L160.468 96.229Z" fill="#F28F8F"/>
<path d="M174.86 100.632C172.886 98.294 171.115 96.348 169.134 95.844C166.474 95.144 165.837 95.844 162.771 95.627C158.417 95.326 160.44 99.029 164.136 99.827C167.832 100.625 169.918 99.666 169.918 99.666C169.918 99.666 173.327 104.678 174.86 100.632Z" fill="#FFA8A7"/>
<path d="M221.319 85.449H228.417C233.072 85.449 237.536 83.6003 240.829 80.3094C244.121 77.0186 245.971 72.5549 245.973 67.9C245.973 62.302 243.75 56.9331 239.792 52.974C235.834 49.015 230.466 46.7899 224.868 46.788C220.335 46.852 215.933 48.3193 212.268 50.988C198.87 50.533 198.709 67.459 207.921 70.511C207.9 80.178 211.617 85.449 221.319 85.449Z" fill="#263238"/>
<path d="M234.43 83.475C234.514 85.869 234.43 89.425 238.49 91.371C238.49 91.371 236.159 96.152 240.898 98.427C240.898 98.427 239.113 103.173 243.054 105.266C242.628 106.422 242.578 107.684 242.911 108.87C243.244 110.057 243.943 111.108 244.909 111.874C244.909 111.874 241.969 116.417 244.909 119.385C243.936 120.326 243.287 121.552 243.054 122.885C242.76 124.985 243.943 127.883 245.973 128.485C245.973 128.485 244.573 126.637 245.973 125.174C247.373 123.711 248.71 122.052 246.96 119.77C246.96 119.77 250.887 117.782 248.36 111.86C248.36 111.86 251.692 107.555 247.492 104.349C247.492 104.349 250.397 99.4 245.518 96.957C245.518 96.957 248.255 93.625 244.643 89.411C244.643 89.411 249.725 82.544 242.347 76.811L234.43 83.475Z" fill="#263238"/>
<path d="M248.423 274.295C248.862 276.822 249.096 279.381 249.123 281.946C249.207 286.587 250.061 288.246 250.173 292.04C250.306 296.394 249.55 298.018 247.786 300.44C246.022 302.862 241.381 305.102 239.428 300.972C237.475 296.842 237.72 294.126 238.343 289.856C238.994 285.446 239.043 283.003 239.449 279.636C239.778 276.675 240.149 274.421 240.149 274.421L248.423 274.295Z" fill="#263238"/>
<path d="M235.249 243.467L250.537 243.187C250.306 253.393 248.682 264.719 248.437 274.295C248.381 276.101 248.479 288.295 247.8 292.012C246.778 297.612 240.163 296.835 239.813 293.496C239.463 290.157 240.24 275.919 240.219 274.449C240.275 268.303 237.419 257.936 235.886 246.911C235.802 246.4 235.319 243.992 235.249 243.467Z" fill="#FFA8A7"/>
<path d="M215.6 266.357C215.6 266.357 216.202 266.035 216.3 266.672C216.447 267.442 216.671 269.024 217 270.277C217.441 272.027 217.812 274.911 217.546 276.332C217.28 277.753 213.962 279.594 211.806 280.252C209.136 281.069 206.699 282.509 204.694 284.452C202.559 286.461 197.953 288.365 194.81 288.337C191.1 288.337 188.51 287.105 187.285 285.11C186.06 283.115 188.398 282.884 192.647 280.133L195.937 277.991C202.664 273.602 205.128 271.243 207.025 266.854L215.6 266.357Z" fill="#263238"/>
<path d="M206.997 263.634C207.109 260.477 204.939 233.667 204.939 233.667L219.464 240.289C216.349 258.846 215.691 263.221 215.635 266.259C215.698 266.513 215.726 266.774 215.719 267.036C215.719 270.641 211.638 272.587 208.46 274.988C205.767 277.099 202.895 278.973 199.878 280.588C197.568 281.743 192.878 281.848 192.304 280.364C196.168 277.417 201.789 273 204.862 269.633C206.325 268.03 206.885 266.798 206.997 263.634Z" fill="#FFA8A7"/>
<path d="M244.3 143.885C249.9 156.128 249.9 165.585 248.948 181.216C248.108 195.538 246.757 208.152 246.757 208.152C246.974 210.693 250.509 215.656 250.957 226.891C251.384 237.391 250.257 250.74 250.257 250.74C250.257 250.74 242.326 255.143 236.46 250.705C236.46 250.705 230.797 223.678 229.138 210.532C227.696 199.059 225.176 184.401 225.176 184.401L219.8 210.469C219.8 210.469 221.83 216.902 222.299 221.795C223.048 229.495 218.729 244.713 218.729 244.713C218.729 244.713 210.532 247.156 205.527 242.718C205.527 242.718 203.651 218.029 202.958 208.719C202.02 196.245 203.987 162.47 205.527 144.592L244.3 143.885Z" fill="#37474F"/>
<path d="M225.134 184.401L222.936 164.801C222.936 164.801 213.066 163.485 208.6 159.285C208.6 159.285 210.889 165.41 219.156 166.6L221.494 184.338L219.8 210.469L225.134 184.401Z" fill="#263238"/>
<path d="M232.33 93.478C235.277 93.681 240.646 94.178 240.646 94.178C243.74 95.907 244.524 97.321 245.098 101.43C245.343 103.18 243.915 107.849 242.69 114.478L240.373 126.77L240.625 132.867C241.829 136.591 244.552 141.211 246.96 148.029C235.144 154.623 225.26 154.868 216.244 153.713C209.391 152.838 205.744 151.179 204.561 149.513C204.813 142.779 205.366 138.628 205.485 131.593C205.534 128.639 205.275 125.65 205.163 122.248C200.564 118.468 200.508 112.189 203.021 108.129C208.845 98.7 214.508 92.729 218.26 93.065L232.33 93.478Z" fill="#8E7CC3"/>
<path opacity="0.6" d="M232.33 93.478C235.277 93.681 240.646 94.178 240.646 94.178C243.74 95.907 244.524 97.321 245.098 101.43C245.343 103.18 243.915 107.849 242.69 114.478L240.373 126.77L240.625 132.867C241.829 136.591 244.552 141.211 246.96 148.029C235.144 154.623 225.26 154.868 216.244 153.713C209.391 152.838 205.744 151.179 204.561 149.513C204.813 142.779 205.366 138.628 205.485 131.593C205.534 128.639 205.275 125.65 205.163 122.248C200.564 118.468 200.508 112.189 203.021 108.129C208.845 98.7 214.508 92.729 218.26 93.065L232.33 93.478Z" fill="white"/>
<path d="M206.99 74.151C207.221 84.364 210.539 86.891 212.198 87.619C213.857 88.347 217.098 87.899 220.178 87.388V93.513C220.178 93.513 216.587 97.279 216.86 100.093C217.133 102.907 222.502 103.215 226.541 100.471C228.755 98.9409 230.759 97.129 232.505 95.081C232.834 94.6887 233.015 94.1932 233.016 93.681V79.24C233.016 79.24 234.724 81.053 237.741 78.981C238.386 78.5608 238.938 78.012 239.362 77.369C239.785 76.7259 240.072 76.0024 240.203 75.2436C240.335 74.4849 240.308 73.7072 240.125 72.9591C239.942 72.211 239.607 71.5087 239.141 70.896C237.832 69.356 234.493 69.244 232.89 71.645C231.987 73.409 231.868 75.18 230.853 74.445C228.165 72.506 228.753 68.558 227.619 67.676C226.002 66.388 224.224 66.276 221.053 65.233C218.12 64.253 212.975 61.901 211.001 56.833C208.747 58.184 206.71 62.097 206.99 74.151Z" fill="#FFA8A7"/>
<path d="M218.33 72.1C218.322 72.3767 218.396 72.6496 218.543 72.8843C218.69 73.1189 218.903 73.3047 219.155 73.4182C219.408 73.5318 219.688 73.5679 219.961 73.522C220.234 73.4761 220.488 73.3503 220.689 73.1605C220.891 72.9707 221.031 72.7254 221.094 72.4557C221.156 72.1859 221.137 71.9037 221.038 71.6449C220.94 71.386 220.768 71.1621 220.542 71.0014C220.317 70.8407 220.049 70.7504 219.772 70.742C219.588 70.7364 219.405 70.7671 219.233 70.8323C219.061 70.8975 218.903 70.996 218.77 71.1221C218.636 71.2483 218.528 71.3995 218.452 71.5673C218.377 71.7351 218.335 71.9161 218.33 72.1Z" fill="#263238"/>
<path d="M208.292 71.764C208.269 72.1121 208.385 72.455 208.615 72.7175C208.844 72.9801 209.169 73.1406 209.517 73.164C209.694 73.1822 209.872 73.1622 210.04 73.1055C210.208 73.0487 210.362 72.9565 210.492 72.835C210.621 72.7135 210.723 72.5657 210.79 72.4014C210.858 72.2372 210.889 72.0604 210.882 71.883C210.89 71.7129 210.865 71.5429 210.807 71.3826C210.75 71.2223 210.662 71.0749 210.547 70.9488C210.433 70.8227 210.295 70.7204 210.141 70.6477C209.987 70.575 209.82 70.5333 209.65 70.525C209.48 70.5167 209.31 70.542 209.15 70.5995C208.989 70.6569 208.842 70.7453 208.716 70.8597C208.59 70.9741 208.487 71.1123 208.415 71.2662C208.342 71.4202 208.3 71.5869 208.292 71.757V71.764Z" fill="#263238"/>
<path d="M214.69 70.483L214.466 79.072L209.944 77.672L214.69 70.483Z" fill="#F28F8F"/>
<path d="M220.185 87.381C223.468 86.954 230.23 85.008 231.28 82.341C230.854 83.6939 230.023 84.8837 228.9 85.75C226.877 87.479 220.171 89.425 220.171 89.425L220.185 87.381Z" fill="#F28F8F"/>
<path d="M219.17 67.634L222.67 69.153C222.864 68.6701 222.864 68.1309 222.669 67.6482C222.475 67.1655 222.101 66.7766 221.627 66.563C221.396 66.4693 221.148 66.4228 220.898 66.4261C220.649 66.4294 220.402 66.4824 220.173 66.5822C219.945 66.6819 219.738 66.8263 219.566 67.0069C219.393 67.1875 219.259 67.4007 219.17 67.634Z" fill="#263238"/>
<path d="M220.5 79.926L216.202 81.424C216.288 81.7101 216.432 81.9759 216.623 82.2054C216.814 82.435 217.05 82.6237 217.316 82.7602C217.582 82.8967 217.872 82.9783 218.171 83.0001C218.469 83.0219 218.768 82.9834 219.051 82.887C219.345 82.7943 219.617 82.6428 219.851 82.4417C220.084 82.2406 220.275 81.9942 220.41 81.7172C220.546 81.4403 220.624 81.1387 220.639 80.8308C220.655 80.5229 220.607 80.2151 220.5 79.926Z" fill="#B16668"/>
<path d="M208.012 68.397L211.148 66.766C211.052 66.5566 210.914 66.369 210.743 66.2147C210.572 66.0604 210.371 65.9426 210.153 65.8686C209.935 65.7945 209.704 65.7658 209.474 65.7841C209.244 65.8024 209.021 65.8673 208.817 65.975C208.397 66.1977 208.079 66.5736 207.929 67.0247C207.779 67.4757 207.809 67.9672 208.012 68.397Z" fill="#263238"/>
<path d="M203.553 107.268C211.953 110.684 219.898 110.355 224.469 110.026C227.108 109.83 228.669 110.026 229.047 114.821C229.229 117.208 230.566 134.526 230.566 134.526C230.566 134.526 216.566 138.243 205.366 133.063C205.366 133.063 201.453 119.686 201.068 115.269C200.683 110.852 203.553 107.268 203.553 107.268Z" fill="#8E7CC3"/>
<path opacity="0.3" d="M203.553 107.268C211.953 110.684 219.898 110.355 224.469 110.026C227.108 109.83 228.669 110.026 229.047 114.821C229.229 117.208 230.566 134.526 230.566 134.526C230.566 134.526 216.566 138.243 205.366 133.063C205.366 133.063 201.453 119.686 201.068 115.269C200.683 110.852 203.553 107.268 203.553 107.268Z" fill="#263238"/>
<path d="M205.205 137.564C205.205 137.564 204.393 146.041 203.413 158.319C202.433 170.597 201.53 185.038 201.362 187.635C201.194 190.232 206.843 192.934 213.129 194.362C220.059 195.93 228.102 196.427 231.553 195.93C235.004 195.433 236.859 194.446 236.957 190.848C237.055 187.25 230.902 139.125 230.902 139.125L205.205 137.564Z" fill="#8E7CC3"/>
<path opacity="0.3" d="M205.205 137.564C205.205 137.564 204.393 146.041 203.413 158.319C202.433 170.597 201.53 185.038 201.362 187.635C201.194 190.232 206.843 192.934 213.129 194.362C220.059 195.93 228.102 196.427 231.553 195.93C235.004 195.433 236.859 194.446 236.957 190.848C237.055 187.25 230.902 139.125 230.902 139.125L205.205 137.564Z" fill="#263238"/>
<path d="M205.373 133.063C209.573 134.589 222.733 137.529 240.59 131.992L241.941 136.192C230.213 140.834 217.252 141.328 205.205 137.592L205.373 133.063Z" fill="#8E7CC3"/>
<path opacity="0.45" d="M205.373 133.063C209.573 134.589 222.733 137.529 240.59 131.992L241.941 136.192C230.213 140.834 217.252 141.328 205.205 137.592L205.373 133.063Z" fill="#263238"/>
<path d="M233.961 93.597C231.301 94.997 221.872 102.445 221.291 112.392C221.291 114.744 225.4 114.744 225.4 112.392C225.4 112.392 225.519 107.261 230.566 101.332C235.529 95.508 239.386 93.94 239.386 93.94C237.596 93.6212 235.777 93.5061 233.961 93.597Z" fill="#8E7CC3"/>
<path d="M215.11 93.03C212.45 94.43 206.423 98.679 202.811 109.2C202.195 111.699 205.877 112.35 206.493 109.851C206.493 109.851 207.249 106.463 211.428 100.506C215.432 94.794 220.185 93.107 220.185 93.107C220.185 93.107 218.953 92.54 215.11 93.03Z" fill="#8E7CC3"/>
<g opacity="0.55">
<path d="M233.961 93.597C231.301 94.997 221.872 102.445 221.291 112.392C221.291 114.744 225.4 114.744 225.4 112.392C225.4 112.392 225.519 107.261 230.566 101.332C235.529 95.508 239.386 93.94 239.386 93.94C237.596 93.6212 235.777 93.5061 233.961 93.597Z" fill="#263238"/>
<path d="M215.11 93.03C212.45 94.43 206.423 98.679 202.811 109.2C202.195 111.699 205.877 112.35 206.493 109.851C206.493 109.851 207.249 106.463 211.428 100.506C215.432 94.794 220.185 93.107 220.185 93.107C220.185 93.107 218.953 92.54 215.11 93.03Z" fill="#263238"/>
</g>
<path d="M224.518 111.937C224.518 112.181 224.446 112.419 224.31 112.621C224.175 112.824 223.983 112.982 223.757 113.075C223.532 113.168 223.285 113.193 223.046 113.145C222.807 113.098 222.587 112.98 222.415 112.808C222.243 112.636 222.125 112.416 222.078 112.177C222.03 111.938 222.054 111.691 222.148 111.466C222.241 111.24 222.399 111.048 222.601 110.913C222.804 110.777 223.042 110.705 223.286 110.705C223.448 110.704 223.609 110.735 223.759 110.797C223.908 110.858 224.045 110.949 224.159 111.064C224.274 111.178 224.364 111.315 224.426 111.464C224.488 111.614 224.519 111.775 224.518 111.937Z" fill="#263238"/>
<path d="M205.996 109.2C205.996 109.444 205.924 109.682 205.788 109.884C205.653 110.087 205.461 110.245 205.235 110.338C205.01 110.431 204.763 110.456 204.524 110.408C204.285 110.361 204.065 110.243 203.893 110.071C203.721 109.899 203.603 109.679 203.556 109.44C203.508 109.201 203.533 108.954 203.626 108.729C203.719 108.503 203.877 108.311 204.08 108.176C204.282 108.04 204.52 107.968 204.764 107.968C205.091 107.968 205.404 108.098 205.635 108.329C205.866 108.56 205.996 108.873 205.996 109.2Z" fill="#263238"/>
<path d="M204.449 145.943C208.005 147.763 218.883 148.785 225.806 147.798C225.806 147.798 226.128 159.614 225.806 161.553C225.484 163.492 224.938 164.619 220.906 164.885C216.006 165.207 207.921 164.395 204.463 162.54C202.482 161.476 202.643 161.14 202.734 157.759C202.797 154.896 204.449 145.943 204.449 145.943Z" fill="#8E7CC3"/>
<path opacity="0.55" d="M204.449 145.943C208.005 147.763 218.883 148.785 225.806 147.798C225.806 147.798 226.128 159.614 225.806 161.553C225.484 163.492 224.938 164.619 220.906 164.885C216.006 165.207 207.921 164.395 204.463 162.54C202.482 161.476 202.643 161.14 202.734 157.759C202.797 154.896 204.449 145.943 204.449 145.943Z" fill="#263238"/>
<path d="M239.4 93.94C242.522 93.94 245.406 93.772 247.905 96.88C250.404 99.988 262.5 120.442 265.3 125.188C268.1 129.934 268.891 133.063 265.3 136.388C261.436 139.958 241.5 152.845 241.5 152.845L233.8 146.09L252.364 130.109L239.505 112.329C239.505 112.329 232.687 101.78 239.4 93.94Z" fill="#FFA8A7"/>
<path d="M241.563 152.838C237.3 156.1 230.566 161.49 223.643 161.49C214.858 161.49 209.874 156.59 212.891 153.958C215.908 151.326 227.136 150.227 233.891 146.083L241.563 152.838Z" fill="#FFA8A7"/>
<path d="M249.732 138.215C243.075 135.31 235.844 135.226 232.379 137.074C228.914 138.922 229.229 141.092 229.481 143.15C229.684 144.83 227.171 146.762 220.857 145.768C214.186 144.711 207.109 145.285 204.477 148.988C201.124 153.692 208.915 159.831 220.703 162.855C236.88 167.006 254.429 163.66 260.778 155.043C266.763 146.895 254.576 140.329 249.732 138.215Z" fill="#263238"/>
<path d="M219.275 154.126C217.539 155.12 214.921 155.232 213.423 154.364C211.925 153.496 212.114 151.991 213.843 150.99C215.572 149.989 218.19 149.884 219.695 150.745C221.2 151.606 221.004 153.125 219.275 154.126Z" fill="#8E7CC3"/>
<path d="M231.658 159.306C229.929 160.307 227.311 160.412 225.813 159.551C224.315 158.69 224.497 157.171 226.233 156.17C227.969 155.169 230.58 155.064 232.078 155.932C233.576 156.8 233.387 158.305 231.658 159.306Z" fill="#8E7CC3"/>
<path d="M246.533 159.012C244.804 160.013 242.186 160.118 240.688 159.257C239.19 158.396 239.372 156.877 241.108 155.876C242.844 154.875 245.455 154.77 246.953 155.638C248.451 156.506 248.262 158.011 246.533 159.012Z" fill="#FF8A65"/>
<path d="M255.857 152.026C254.128 153.02 251.51 153.132 250.012 152.264C248.514 151.396 248.703 149.891 250.432 148.89C252.161 147.889 254.779 147.784 256.277 148.645C257.775 149.506 257.6 151.025 255.857 152.026Z" fill="#8E7CC3"/>
<path d="M248.423 144.592C246.694 145.586 244.076 145.698 242.578 144.83C241.08 143.962 241.269 142.457 242.998 141.456C244.727 140.455 247.345 140.35 248.843 141.211C250.341 142.072 250.159 143.591 248.423 144.592Z" fill="#8E7CC3"/>
<path opacity="0.7" d="M219.275 154.126C217.539 155.12 214.921 155.232 213.423 154.364C211.925 153.496 212.114 151.991 213.843 150.99C215.572 149.989 218.19 149.884 219.695 150.745C221.2 151.606 221.004 153.125 219.275 154.126Z" fill="#A5D6A7"/>
<path opacity="0.4" d="M231.658 159.306C229.929 160.307 227.311 160.412 225.813 159.551C224.315 158.69 224.497 157.171 226.233 156.17C227.969 155.169 230.58 155.064 232.078 155.932C233.576 156.8 233.387 158.305 231.658 159.306Z" fill="#5E548E"/>
<path opacity="0.3" d="M255.857 152.026C254.128 153.02 251.51 153.132 250.012 152.264C248.514 151.396 248.703 149.891 250.432 148.89C252.161 147.889 254.779 147.784 256.277 148.645C257.775 149.506 257.6 151.025 255.857 152.026Z" fill="#1F1F1F"/>
<path opacity="0.5" d="M248.423 144.592C246.694 145.586 244.076 145.698 242.578 144.83C241.08 143.962 241.269 142.457 242.998 141.456C244.727 140.455 247.345 140.35 248.843 141.211C250.341 142.072 250.159 143.591 248.423 144.592Z" fill="#1F1F1F"/>
<path d="M235.9 144.473C233.8 143.899 232.967 143.724 230.895 143.164C229.799 142.823 228.641 142.728 227.503 142.885C226.366 143.043 225.278 143.449 224.315 144.074C222.418 145.236 219.653 146.706 220.066 147.413C220.815 148.694 223.377 148.568 225.89 147.854C227.388 147.427 229.565 148.554 232.435 148.554C235.305 148.554 239.561 145.852 235.9 144.473Z" fill="#FFA8A7"/>
<path d="M181.202 231.812H157.535L160.181 253.596C160.3 254.856 161.189 256.102 162.855 257.096C166.453 259.196 172.284 259.196 175.882 257.096C177.548 256.137 178.437 254.891 178.556 253.596L181.202 231.812Z" fill="#8E7CC3"/>
<path opacity="0.65" d="M181.202 231.812H157.535L160.181 253.596C160.3 254.856 161.189 256.102 162.855 257.096C166.453 259.196 172.284 259.196 175.882 257.096C177.548 256.137 178.437 254.891 178.556 253.596L181.202 231.812Z" fill="white"/>
<path d="M161 226.975C165.627 224.308 173.124 224.308 177.751 226.975C182.378 229.642 182.378 233.975 177.751 236.649C173.124 239.323 165.627 239.316 161 236.649C156.373 233.982 156.38 229.649 161 226.975Z" fill="#8E7CC3"/>
<path opacity="0.8" d="M161 226.975C165.627 224.308 173.124 224.308 177.751 226.975C182.378 229.642 182.378 233.975 177.751 236.649C173.124 239.323 165.627 239.316 161 236.649C156.373 233.982 156.38 229.649 161 226.975Z" fill="white"/>
<path d="M169.4 237.3C166.72 237.364 164.069 236.74 161.7 235.487C159.908 234.451 158.9 233.156 158.9 231.84C158.9 230.524 159.887 229.229 161.7 228.193C164.089 226.993 166.726 226.368 169.4 226.368C172.074 226.368 174.711 226.993 177.1 228.193C178.892 229.229 179.9 230.524 179.9 231.84C179.9 233.156 178.913 234.451 177.1 235.487C174.73 236.738 172.079 237.362 169.4 237.3Z" fill="#263238"/>
<mask id="mask0_139_1205" style="mask-type:luminance" maskUnits="userSpaceOnUse" x="153" y="185" width="37" height="53">
<path d="M169.05 237.3C166.486 237.302 163.961 236.669 161.7 235.459C159.985 234.486 158.9 233.184 158.9 231.812C158.9 230.727 153.503 203.112 153.503 203.112L168.756 185.843L189.805 201.985C189.805 201.985 186.879 221.585 186.151 228.585C186.018 229.88 179.851 231.602 179.851 231.77C179.851 233.982 177.625 235.165 176.057 235.921C173.852 236.894 171.459 237.365 169.05 237.3Z" fill="white"/>
</mask>
<g mask="url(#mask0_139_1205)">
<path d="M162.89 215.719C164.247 220.91 165.324 226.17 166.117 231.476C166.873 237.434 167.124 243.445 166.866 249.445C166.856 249.536 166.825 249.623 166.775 249.7C166.725 249.777 166.658 249.84 166.579 249.886C166.512 249.926 166.438 249.953 166.36 249.964C166.283 249.975 166.204 249.971 166.129 249.951C166.053 249.932 165.982 249.897 165.92 249.85C165.858 249.803 165.806 249.744 165.767 249.676C165.743 249.64 165.727 249.599 165.718 249.557C165.718 249.557 162.365 239.757 161.28 232.057C160.589 226.755 160.177 221.421 160.048 216.076C160.056 215.96 160.091 215.848 160.151 215.748C160.211 215.648 160.293 215.564 160.391 215.502C160.681 215.299 161.014 215.167 161.364 215.117C161.715 215.067 162.072 215.101 162.407 215.215C162.523 215.253 162.627 215.319 162.711 215.407C162.796 215.495 162.857 215.602 162.89 215.719Z" fill="#FF8A65"/>
<path opacity="0.1" d="M165.767 249.711C165.744 249.675 165.727 249.634 165.718 249.592C165.718 249.592 162.365 239.792 161.28 232.092C160.58 226.905 160.244 221.466 160.125 218.456L161.973 218.519C161.973 218.519 166.068 249.963 166.6 249.9C166.534 249.944 166.459 249.975 166.38 249.99C166.302 250.004 166.221 250.002 166.143 249.985C166.065 249.967 165.991 249.934 165.927 249.887C165.862 249.84 165.808 249.78 165.767 249.711Z" fill="#1F1F1F"/>
<path d="M161.364 215.152C161.049 214.718 159.334 212.352 159.481 210.252C159.754 210.204 160.017 210.109 160.258 209.972C161.182 209.426 160.958 208.572 161.595 208.096C162.232 207.62 163.247 208.677 163.254 208.684C163.931 209.785 164.249 211.069 164.164 212.359C164.067 213.573 163.625 214.734 162.89 215.705L160.041 216.09L161.364 215.152Z" fill="#455A64"/>
<path d="M157.535 211.001C158.039 210.189 158.704 210.399 159.481 210.266C159.334 212.366 161.049 214.718 161.364 215.166L160.041 216.118C159.831 215.88 159.593 215.628 159.341 215.348L159.159 215.131C159.04 214.984 158.921 214.83 158.802 214.662C158.618 214.405 158.452 214.136 158.305 213.857C158.196 213.657 158.098 213.451 158.011 213.241C157.815 212.763 157.672 212.266 157.584 211.757C157.547 211.507 157.53 211.254 157.535 211.001Z" fill="#37474F"/>
<path d="M157.535 210.987V210.609C157.538 210.595 157.538 210.581 157.535 210.567L157.577 210.287V210.182V210.098C157.574 210.049 157.574 210 157.577 209.951C157.577 209.888 157.612 209.832 157.626 209.769C157.668 209.636 157.717 209.505 157.773 209.377C157.822 209.25 157.878 209.126 157.941 209.006C158.004 208.887 158.074 208.768 158.144 208.649C158.582 207.946 159.152 207.335 159.824 206.85L159.971 206.745H160.013L160.181 206.64C160.537 206.43 160.909 206.25 161.294 206.101C161.469 206.038 161.637 205.982 161.791 205.94L162.225 205.828L162.414 205.793H162.582C162.672 205.776 162.763 205.764 162.855 205.758H163.086C162.882 206.074 162.752 206.432 162.705 206.805C162.658 207.178 162.695 207.557 162.813 207.914C162.894 208.21 163.007 208.496 163.149 208.768C163.149 208.768 162.134 207.697 161.49 208.18C160.846 208.663 161.077 209.51 160.153 210.056C159.912 210.193 159.649 210.288 159.376 210.336C158.599 210.469 157.934 210.259 157.43 211.071L157.535 210.987Z" fill="#FF8A65"/>
<path opacity="0.1" d="M163.191 205.688C161.643 206.376 160.414 207.628 159.754 209.188C159.598 209.533 159.505 209.903 159.481 210.28C158.704 210.413 158.039 210.203 157.535 211.015V210.637C157.538 210.623 157.538 210.609 157.535 210.595L157.577 210.315V210.21V210.126C157.574 210.077 157.574 210.028 157.577 209.979C157.577 209.916 157.612 209.86 157.626 209.797C157.668 209.664 157.717 209.533 157.773 209.405C157.822 209.278 157.878 209.154 157.941 209.034C158.004 208.915 158.074 208.796 158.144 208.677C158.581 207.974 159.152 207.363 159.824 206.878L159.971 206.773H160.013L160.181 206.668C160.537 206.458 160.909 206.278 161.294 206.129C161.469 206.066 161.637 206.01 161.791 205.968L162.225 205.856L162.414 205.821H162.582C162.672 205.804 162.763 205.792 162.855 205.786H163.086L163.191 205.688Z" fill="#1F1F1F"/>
<path d="M160.041 216.104C160.05 215.989 160.086 215.878 160.146 215.78C160.205 215.682 160.287 215.598 160.384 215.537C160.674 215.334 161.007 215.202 161.358 215.152C161.708 215.102 162.065 215.136 162.4 215.25C162.513 215.285 162.615 215.345 162.701 215.426C162.786 215.508 162.851 215.608 162.89 215.719C163.177 216.811 163.471 218.008 163.772 219.268C163.725 219.124 163.643 218.993 163.535 218.887C163.426 218.781 163.294 218.703 163.149 218.659C162.726 218.514 162.275 218.471 161.832 218.533C161.39 218.596 160.968 218.761 160.601 219.016C160.471 219.1 160.364 219.215 160.289 219.35C160.215 219.486 160.175 219.638 160.174 219.793C160.111 218.4 160.062 217 160.041 216.104Z" fill="#EBEBEB"/>
<path d="M161.966 218.519C161.474 218.558 161.002 218.729 160.601 219.016C160.471 219.1 160.364 219.215 160.289 219.35C160.215 219.486 160.175 219.638 160.174 219.793C160.111 218.393 160.062 217.028 160.041 216.104C160.05 215.989 160.086 215.878 160.146 215.78C160.205 215.682 160.287 215.598 160.384 215.537C160.673 215.328 161.01 215.195 161.364 215.152L161.931 218.505L161.966 218.519Z" fill="#E0E0E0"/>
<path d="M170.429 199.647C170.429 199.647 171.64 225.547 171.731 233.527C171.714 239.531 171.191 245.523 170.17 251.44V251.475C170.141 251.595 170.075 251.703 169.981 251.784C169.887 251.864 169.77 251.913 169.646 251.923C169.523 251.933 169.4 251.904 169.294 251.84C169.188 251.776 169.105 251.68 169.057 251.566C169.037 251.526 169.023 251.484 169.015 251.44C169.015 251.44 166.915 241.304 166.859 233.513C166.803 225.722 167.559 199.668 167.559 199.668C167.583 199.555 167.633 199.449 167.705 199.358C167.776 199.267 167.868 199.193 167.972 199.143C168.288 198.984 168.637 198.901 168.99 198.901C169.344 198.901 169.693 198.984 170.009 199.143C170.112 199.191 170.203 199.261 170.275 199.348C170.348 199.435 170.4 199.537 170.429 199.647Z" fill="#D84315"/>
<path opacity="0.1" d="M169.043 251.566C169.023 251.526 169.009 251.484 169.001 251.44C169.001 251.44 166.901 241.304 166.845 233.513C166.789 228.277 167.062 205.009 167.328 202.013L169.148 202.314C169.148 202.314 169.302 251.86 169.848 251.888C169.774 251.922 169.695 251.941 169.613 251.943C169.532 251.946 169.451 251.931 169.376 251.901C169.3 251.871 169.232 251.826 169.175 251.768C169.118 251.71 169.073 251.642 169.043 251.566Z" fill="#1F1F1F"/>
<path d="M168.987 198.891C168.728 198.422 167.328 195.881 167.748 193.802C168.025 193.792 168.298 193.73 168.553 193.62C169.54 193.207 169.407 192.325 170.121 191.933C170.835 191.541 171.682 192.724 171.689 192.731C172.217 193.912 172.368 195.227 172.123 196.497C171.869 197.687 171.281 198.779 170.429 199.647H167.552L168.987 198.891Z" fill="#455A64"/>
<path d="M165.725 194.285C166.327 193.543 166.957 193.837 167.748 193.802C167.328 195.902 168.728 198.422 168.987 198.891L167.587 199.668C167.405 199.402 167.209 199.122 167.006 198.807L166.852 198.576C166.754 198.415 166.656 198.24 166.565 198.065C166.413 197.787 166.279 197.5 166.166 197.204C166.087 196.999 166.017 196.782 165.956 196.553C165.826 196.054 165.749 195.542 165.725 195.027C165.7 194.78 165.7 194.532 165.725 194.285Z" fill="#37474F"/>
<path d="M165.725 194.271C165.725 194.145 165.767 194.019 165.795 193.893V193.858C165.795 193.767 165.844 193.676 165.872 193.585C165.9 193.494 165.872 193.515 165.872 193.48C165.871 193.454 165.871 193.429 165.872 193.403C165.888 193.353 165.906 193.304 165.928 193.256C165.948 193.199 165.972 193.143 165.998 193.088C166.061 192.962 166.124 192.836 166.194 192.717C166.26 192.596 166.332 192.479 166.411 192.367C166.488 192.255 166.565 192.15 166.649 192.045C167.176 191.402 167.823 190.868 168.553 190.47L168.707 190.393H168.756L168.938 190.309C169.319 190.149 169.712 190.02 170.114 189.924C170.296 189.882 170.464 189.847 170.625 189.826C170.786 189.805 170.933 189.784 171.066 189.77H171.255H171.703H171.934C171.693 190.058 171.519 190.395 171.425 190.759C171.33 191.122 171.318 191.501 171.388 191.87C171.43 192.174 171.505 192.472 171.612 192.759C171.612 192.759 170.744 191.569 170.044 191.961C169.344 192.353 169.463 193.235 168.476 193.648C168.221 193.758 167.948 193.82 167.671 193.83C166.88 193.865 166.271 193.571 165.648 194.313L165.725 194.271Z" fill="#A5D6A7"/>
<path opacity="0.1" d="M172.011 189.742C170.393 190.222 169.017 191.297 168.161 192.752C167.963 193.075 167.823 193.43 167.748 193.802C166.957 193.837 166.348 193.543 165.725 194.285C165.725 194.159 165.767 194.033 165.795 193.907V193.872C165.795 193.781 165.844 193.69 165.872 193.599C165.9 193.508 165.872 193.529 165.872 193.494C165.871 193.468 165.871 193.443 165.872 193.417C165.887 193.367 165.906 193.318 165.928 193.27C165.948 193.213 165.972 193.157 165.998 193.102C166.061 192.976 166.124 192.85 166.194 192.731C166.26 192.61 166.332 192.493 166.411 192.381C166.488 192.269 166.565 192.164 166.649 192.059C167.176 191.416 167.823 190.882 168.553 190.484L168.707 190.407H168.756L168.938 190.323C169.319 190.163 169.712 190.034 170.114 189.938C170.296 189.896 170.464 189.861 170.625 189.84C170.786 189.819 170.933 189.798 171.066 189.784H171.255H171.703H171.934L172.011 189.742Z" fill="#1F1F1F"/>
<path d="M167.552 199.668C167.577 199.555 167.626 199.449 167.698 199.358C167.77 199.267 167.861 199.193 167.965 199.143C168.281 198.984 168.63 198.901 168.983 198.901C169.337 198.901 169.686 198.984 170.002 199.143C170.108 199.192 170.202 199.265 170.276 199.356C170.35 199.447 170.402 199.554 170.429 199.668C170.576 200.788 170.709 202.013 170.842 203.301C170.818 203.149 170.757 203.006 170.665 202.884C170.572 202.761 170.45 202.664 170.31 202.601C169.911 202.399 169.469 202.294 169.022 202.294C168.575 202.294 168.133 202.399 167.734 202.601C167.597 202.667 167.478 202.765 167.386 202.887C167.295 203.009 167.234 203.151 167.209 203.301C167.335 201.915 167.454 200.578 167.552 199.668Z" fill="#EBEBEB"/>
<path d="M169.148 202.3C168.662 202.279 168.178 202.387 167.748 202.615C167.611 202.681 167.492 202.779 167.4 202.901C167.309 203.023 167.248 203.165 167.223 203.315C167.349 201.915 167.468 200.557 167.566 199.647C167.59 199.534 167.64 199.428 167.712 199.337C167.783 199.246 167.875 199.172 167.979 199.122C168.291 198.95 168.644 198.863 169.001 198.87L169.134 202.265L169.148 202.3Z" fill="#E0E0E0"/>
<path d="M174.65 226.597L172.76 241.941C172.751 242.12 172.792 242.298 172.877 242.456C172.962 242.614 173.089 242.746 173.243 242.837C173.658 243.115 174.133 243.292 174.629 243.353C175.125 243.414 175.629 243.357 176.099 243.187C176.272 243.137 176.429 243.041 176.552 242.909C176.675 242.777 176.761 242.614 176.799 242.438L178.689 227.094L174.65 226.597Z" fill="#5E548E"/>
<path d="M178.199 231.042L173.873 232.876L174.65 226.597L178.682 227.094L178.199 231.042Z" fill="#37474F"/>
<path d="M182.231 215.04L181.853 218.162L184.744 216.937L183.967 223.356C183.783 224.404 183.355 225.394 182.716 226.246C182.077 227.097 181.247 227.786 180.292 228.256L175.203 230.405C174.879 230.577 174.519 230.666 174.153 230.666C173.787 230.666 173.426 230.577 173.103 230.405C173.047 230.405 170.877 228.76 170.429 228.375C170.172 228.116 169.985 227.798 169.883 227.448C169.782 227.098 169.769 226.729 169.848 226.373L170.632 219.947L182.231 215.04Z" fill="#5E548E"/>
<path d="M175.203 230.391L180.292 228.242C181.247 227.772 182.077 227.083 182.716 226.232C183.355 225.38 183.783 224.39 183.967 223.342L184.744 216.923L173.159 221.823L172.375 228.249C172.144 230.202 173.404 231.154 175.203 230.391Z" fill="#5E548E"/>
<path d="M173.159 221.844L184.744 216.937L185.899 207.564L174.314 212.478L173.159 221.844Z" fill="#F0F0F0"/>
<path d="M173.159 221.844L174.314 212.478L171.801 210.581L170.646 219.947L173.159 221.844Z" fill="#EBEBEB"/>
<path d="M172.823 224.63L184.408 219.723L184.254 220.997L172.655 225.974L172.823 224.63Z" fill="#8E7CC3"/>
<path d="M172.823 224.63L170.31 222.733L170.142 224.077L172.655 225.974L172.823 224.63Z" fill="#8E7CC3"/>
<path opacity="0.1" d="M172.823 224.63L170.31 222.733L170.142 224.077L172.655 225.974L172.823 224.63Z" fill="#1F1F1F"/>
<path d="M171.451 213.444C171.451 213.444 172.081 215.789 173.866 216.125L174.314 212.478L171.801 210.581L171.451 213.444Z" fill="#8E7CC3"/>
<path opacity="0.1" d="M171.451 213.444C171.451 213.444 172.081 215.789 173.866 216.125L174.314 212.478L171.801 210.581L171.451 213.444Z" fill="#1F1F1F"/>
<path d="M173.866 216.125C174.438 216.438 175.079 216.602 175.731 216.602C176.383 216.602 177.025 216.438 177.597 216.125C178.997 215.327 179.858 212.016 182.343 212.254C184.093 212.422 185.052 214.41 185.052 214.41L185.899 207.543L174.314 212.443L173.866 216.125Z" fill="#8E7CC3"/>
<path d="M185.899 207.564L183.386 205.667L171.801 210.581L174.314 212.478L185.899 207.564Z" fill="#8E7CC3"/>
<path opacity="0.7" d="M185.899 207.564L183.386 205.667L171.801 210.581L174.314 212.478L185.899 207.564Z" fill="white"/>
</g>
</svg>
