<svg width="350" height="351" viewBox="0 0 350 351" fill="none" xmlns="http://www.w3.org/2000/svg">
<path fill-rule="evenodd" clip-rule="evenodd" d="M109.13 222.43C66.7708 232.304 42.5351 218.517 36.4232 181.069C27.2553 124.896 58.312 65.8825 100.925 60.2254C143.538 54.5682 161.452 70.7054 191.402 90.9697C221.352 111.234 308.159 158.914 318.022 167.007C327.884 175.099 348.986 206.721 306.778 226.75C278.64 240.103 243.636 237.588 201.764 219.206C187.045 212.77 173.641 209.365 161.552 208.989C149.464 208.613 131.99 213.093 109.13 222.43Z" fill="#A5D6A7"/>
<path d="M157.415 151.115C161.223 153.6 162.753 156.814 162.008 160.759C158.442 166.104 156.659 170.732 156.659 174.644C156.659 178.556 156.391 183.645 155.854 189.91L126.218 190.536L126.155 190.498C125.363 190.513 124.584 190.526 123.819 190.536C117.223 190.622 111.371 191.495 111.095 191.538C108.936 191.873 105.043 187.866 103.963 186.509C102.228 184.327 101.403 181.746 101.036 178.936C100.69 176.286 101.178 173.822 102.136 171.46C103.256 168.701 105.008 166.312 107.229 164.209C109.666 161.975 112.289 160.152 115.23 158.808C115.344 158.755 117.455 157.716 117.556 157.73C117.624 157.739 120.999 158.82 125.692 161.013C131.018 157.227 136.779 153.22 142.976 148.994C148.795 147.923 153.608 148.63 157.415 151.115Z" fill="white"/>
<path fill-rule="evenodd" clip-rule="evenodd" d="M119.067 215.613C123.727 216.573 126.536 214.745 127.495 210.128C128.933 203.203 120.245 204.44 117.587 200.876C114.928 197.312 120.825 196.598 127.495 198.737C134.171 198.444 136.098 198.827 136.481 196.986C136.865 195.145 133.386 193.985 124.096 194.288C114.806 194.592 116.173 194.605 116.88 202.366C117.351 207.541 118.08 211.956 119.067 215.613Z" fill="white"/>
<path d="M234.88 230.403C231.299 227.441 228.776 225.577 227.424 224.386C224.195 221.54 220.888 218.784 217.63 215.97C216.961 215.392 216.31 214.769 215.759 214.08C215.068 213.215 215.225 212.619 216.317 212.198C217.179 211.865 218.12 211.713 219.04 211.566C221.783 211.127 224.53 210.718 227.279 210.324C228.487 210.15 229.705 210.049 230.916 209.898C231.133 209.872 231.339 209.763 231.55 209.693C231.445 209.523 231.365 209.329 231.232 209.186C230.171 208.04 229.1 206.903 228.032 205.765C227.938 205.665 227.838 205.57 227.741 205.472C227.893 205.436 228.043 205.387 228.197 205.364C231.012 204.949 233.826 204.531 236.643 204.126C238.492 203.86 240.34 203.584 242.195 203.366C244.094 203.143 245.998 202.962 247.903 202.805C249.607 202.664 251.317 202.605 253.02 202.463C254.112 202.372 255.193 202.157 256.284 202.069C257.649 201.958 259.021 201.941 260.387 201.847C262.093 201.73 263.796 201.559 265.503 201.445C266.938 201.349 268.377 201.323 269.812 201.226C270.969 201.148 272.12 200.977 273.278 200.907C274.409 200.839 275.544 200.846 276.678 200.82C279.613 200.751 282.547 200.667 285.482 200.619C287.278 200.589 289.089 200.478 290.865 200.669C291.791 200.769 292.849 201.247 293.51 201.899C295.177 203.546 296.656 205.385 298.206 207.151C299.157 208.234 300.109 209.315 301.044 210.411C303.016 212.72 304.972 215.043 306.946 217.351C307.558 218.068 308.214 218.747 308.83 219.462C309.006 219.667 309.109 219.935 309.246 220.174C309.052 220.016 308.474 219.521 308.666 219.696C327.7 237.012 247.542 240.694 234.88 230.403Z" fill="white"/>
<path d="M18.0599 166.418C18.1248 164.635 18.18 162.852 18.2492 161.069C18.2716 160.493 18.3367 159.919 18.3723 159.343C18.6676 154.563 19.2355 149.813 20.4588 145.179C21.4349 141.481 22.7239 137.884 24.2905 134.371C26.0776 130.363 28.2502 126.595 30.7536 123.011C32.029 121.186 33.422 119.426 34.9042 117.762C36.6876 115.76 38.5199 113.778 40.5184 111.995C42.8001 109.959 45.2521 108.104 47.7144 106.283C48.2627 105.878 49.2318 105.68 49.886 105.849C51.0349 106.146 51.201 107.145 50.3222 107.908C48.3269 109.639 47.3774 111.85 47.2311 114.418C47.1504 115.836 47.2832 117.266 47.2045 118.684C46.945 123.36 48.3103 127.664 50.3323 131.77C52.2654 135.695 55.0802 138.927 59.1191 140.816C61.4366 141.899 63.9149 142.66 66.3555 143.461C68.4754 144.157 70.6476 144.695 72.7901 145.325C74.8919 145.943 76.9624 146.503 79.1894 145.761C80.3319 145.38 81.189 146.402 80.7515 147.509C79.0972 151.696 77.6875 156.042 74.7814 159.572C73.0382 161.69 71.0213 163.65 68.8638 165.35C65.6965 167.847 62.0545 169.626 58.4166 171.38C54.8683 173.09 51.4 174.965 47.836 176.641C43.821 178.528 39.7523 180.306 35.6808 182.071C32.3961 183.496 29.0802 184.85 25.7609 186.194C24.9672 186.515 24.117 186.74 23.2711 186.88C22.4236 187.021 20.5617 185.692 20.229 184.814C19.3849 182.585 18.8111 180.292 18.5742 177.917C18.43 176.471 18.2359 175.03 18.0127 173.587C17.9612 173.485 17.9612 173.382 18.0127 173.229C18.0985 171.251 18.1345 169.325 18.1585 167.399C18.1591 167.346 18.0299 167.291 17.9612 167.238C17.9612 166.999 17.9612 166.76 17.9612 166.469C17.9955 166.418 18.0599 166.419 18.0599 166.418Z" fill="white"/>
<path fill-rule="evenodd" clip-rule="evenodd" d="M155.5 189.847L217.869 188.258H220.428C224.157 191.036 228.249 192.233 232.703 191.849C239.385 191.274 245.284 183.899 246.662 173.618C246.865 172.817 247.358 172.624 248.14 173.04C249 174.719 250.528 175.451 252.722 175.237C253.674 175.134 254.205 175.357 254.742 176.391C255.28 177.425 258.123 178.725 259.905 177.682C261.687 176.638 269.904 163.33 269.904 161.09C269.904 158.851 270.365 153.96 270.727 153.644C271.09 153.329 271.772 153.585 273.096 153.165C274.42 152.746 275.554 153.163 279.799 142.018C284.045 130.874 290.541 114.213 291.233 102.547C291.924 90.8815 283.684 95.0047 279.799 99.8728C275.914 104.741 265.085 117.276 255.062 124.082C253.835 124.999 252.834 125.429 252.058 125.374C251.593 122.477 249.688 121.398 246.343 122.136C245.043 122.37 243.979 121.342 243.151 119.053C241.007 107.17 236.118 98.5707 228.485 93.2565C217.035 85.2851 197.526 80.7297 192.832 97.3966C189.703 108.508 191.584 122.007 198.476 137.895L195.607 140.378C184.315 144.284 175.091 149.106 167.935 154.844C157.199 163.45 156.994 171.845 156.424 178.77C156.045 183.386 155.736 187.078 155.5 189.847Z" fill="white"/>
<path d="M132.421 141.86C132.516 140.957 132.56 140.049 132.664 139.147C132.67 139.099 133.128 138.995 133.26 139.086C134.488 139.929 135.702 140.793 136.892 141.689C137.214 141.932 137.239 142.174 137.386 141.538C137.614 140.545 139.027 140.267 139.874 140.973C141.815 142.592 142.794 144.769 143.505 147.136C144.121 149.189 143.877 151.276 143.937 153.35C143.975 154.681 145.222 155.686 146.531 155.739C147.499 155.779 148.516 156.203 149.387 156.684C151.493 157.845 152.848 159.679 153.513 161.988C154.23 164.474 153.563 166.688 152.122 168.754C150.811 170.634 149.617 172.602 147.715 173.98C146.662 174.742 145.45 175.375 144.626 176.337C143.741 177.371 142.726 178.045 141.521 178.51C138.553 179.655 135.31 178.17 133.857 175.695C132.322 172.431 126.843 175.091 124.72 170.275C123.648 168.685 123.231 167.352 123.462 167.219C123.744 167.057 123.354 166.645 122.855 166.121C120.675 163.831 118.738 161.35 117.413 158.447C117.204 157.988 116.988 157.515 116.897 157.027C116.841 156.726 116.925 156.298 117.119 156.09C117.242 155.96 117.729 156.054 117.976 156.188C118.345 156.39 118.638 156.728 118.979 156.987C119.56 157.429 119.883 157.241 119.726 156.552C119.278 154.593 119.69 152.733 120.379 150.936C120.75 149.967 121.355 149.083 121.916 148.199C121.969 148.115 122.509 148.242 122.744 148.394C123.179 148.676 123.557 149.048 123.958 149.383C123.985 148.847 123.994 148.31 124.046 147.777C124.077 147.461 124.155 147.144 124.251 146.839C124.732 145.314 124.99 145.236 126.263 146.193C126.434 146.321 126.639 146.405 126.828 146.509C126.853 146.315 126.888 146.122 126.904 145.927C127.044 144.25 126.709 142.729 125.483 141.484C125.469 141.469 125.735 141.031 125.888 141.019C127.653 140.881 129.419 140.807 131.034 141.751C131.364 141.943 131.694 142.138 132.075 142.382C132.228 142.243 132.4 142.059 132.421 141.86Z" fill="white"/>
<path fill-rule="evenodd" clip-rule="evenodd" d="M158.602 80.1853C153.388 84.5067 151.024 90.7629 151.509 98.954C152.236 111.241 166.53 119.994 173.444 116.289C180.357 112.584 187.992 107.187 188.903 95.6977C189.291 106.63 190.436 111.951 175.697 119.879C160.957 127.808 145.548 115.505 143.319 110.435C141.09 105.364 135.724 94.1706 146.614 81.1844C148.105 79.4669 152.101 79.1339 158.602 80.1853Z" fill="white"/>
<path fill-rule="evenodd" clip-rule="evenodd" d="M282.834 223.942C284.095 223.803 285.257 223.693 286.41 223.521C289.03 223.132 291.644 222.705 294.263 222.311C295.821 222.077 297.403 221.963 298.94 221.631C300.018 221.398 300.995 221.55 301.987 221.876C302.147 221.929 302.269 222.095 302.409 222.209C302.241 222.303 302.081 222.458 301.905 222.481C299.602 222.771 297.293 223.014 294.994 223.328C292.682 223.644 290.382 224.044 288.072 224.374C286.462 224.604 284.843 224.768 283.231 224.983C282.39 225.095 281.559 225.276 280.719 225.388C279.529 225.546 278.332 225.652 277.143 225.812C275.747 226 274.358 226.234 272.963 226.427C271.842 226.582 270.715 226.695 269.593 226.848C268.164 227.043 266.739 227.265 265.311 227.465C264.257 227.613 263.202 227.746 262.146 227.881C261.035 228.023 259.919 228.133 258.812 228.306C258.142 228.41 257.526 228.405 257.327 227.634C257.146 226.931 257.505 226.38 258.189 226.229C259.127 226.021 260.089 225.907 261.047 225.817C262.183 225.71 263.326 225.664 264.467 225.602C265.871 225.526 267.278 225.488 268.68 225.386C270.172 225.279 271.66 225.107 273.151 224.981C274.904 224.832 276.661 224.724 278.413 224.555C279.323 224.467 280.224 224.283 281.131 224.151C281.663 224.073 282.197 224.011 282.834 223.942Z" fill="#E7EAEE"/>
<path fill-rule="evenodd" clip-rule="evenodd" d="M255.474 214.229C256.735 214.161 257.896 214.112 259.053 214.019C260.281 213.919 261.505 213.753 262.734 213.658C264.113 213.551 265.498 213.508 266.877 213.405C268.443 213.289 270.004 213.125 271.569 213.004C272.727 212.916 273.888 212.883 275.045 212.791C276.496 212.675 277.943 212.507 279.394 212.391C280.551 212.298 281.713 212.269 282.87 212.177C284.399 212.055 285.923 211.827 287.453 211.776C289.199 211.717 290.953 211.174 292.698 211.776C292.905 211.848 293.094 211.974 293.292 212.075C293.104 212.11 292.917 212.159 292.728 212.179C291.404 212.32 290.078 212.44 288.756 212.595C287.15 212.783 285.551 213.03 283.943 213.194C282.767 213.314 281.578 213.306 280.401 213.418C278.786 213.572 277.18 213.804 275.566 213.966C274.395 214.084 273.218 214.134 272.044 214.231C270.514 214.358 268.985 214.497 267.456 214.64C266.062 214.77 264.669 214.9 263.278 215.051C261.502 215.243 259.73 215.48 257.952 215.655C256.265 215.822 254.571 215.915 252.884 216.078C251.71 216.192 250.545 216.408 249.37 216.499C248.912 216.535 248.401 216.436 247.981 216.249C247.68 216.116 247.491 215.734 247.251 215.463C247.555 215.257 247.844 214.898 248.164 214.868C250.112 214.682 252.067 214.577 254.018 214.428C254.471 214.394 254.92 214.297 255.474 214.229Z" fill="#E7EAEE"/>
<path fill-rule="evenodd" clip-rule="evenodd" d="M148.169 240.051C148.063 240.136 148.008 240.201 147.955 240.199C147.473 240.185 146.991 240.16 146.51 240.137C146.97 239.82 147.39 239.332 147.897 239.216C149.892 238.759 151.689 237.954 153.353 236.766C155.528 235.213 156.87 233.178 157.359 230.577C157.434 230.176 157.322 229.997 156.838 230C156.148 230.003 155.456 229.89 154.767 229.812C153.418 229.659 152.344 228.706 152.226 227.569C152.15 226.84 153.245 225.312 154.054 224.918C155.935 224.001 158.025 225.811 158.56 227.379C158.775 228.01 158.878 227.781 159.162 227.521C160.504 226.294 160.944 224.718 160.837 222.987C160.723 221.138 159.908 219.65 158.304 218.609C157.747 218.248 157.534 217.735 157.965 217.08C158.435 216.365 159.74 216.316 160.249 216.948C160.939 217.803 161.543 218.788 161.923 219.812C162.845 222.295 162.609 224.71 161.058 226.932C160.947 227.091 160.856 227.274 160.713 227.398C159.495 228.456 158.839 229.771 158.344 231.321C156.875 235.919 153.505 238.633 148.937 239.992C148.717 240.058 148.46 240.001 148.169 240.051ZM154.383 226.147C153.501 226.669 153.26 228.168 154.095 228.428C155.059 228.73 156.173 228.563 157.222 228.573C157.267 228.574 157.343 228.31 157.357 228.165C157.494 226.755 156.172 225.782 154.383 226.147Z" fill="#FF8A65"/>
<path fill-rule="evenodd" clip-rule="evenodd" d="M271.232 218.724C274.142 218.447 276.948 218.15 279.758 217.902C281.75 217.726 283.748 217.637 285.741 217.473C286.97 217.372 288.195 217.21 289.421 217.064C291.113 216.863 292.805 216.488 294.493 216.507C295.456 216.518 296.576 216.831 297.232 217.806C297.283 217.882 297.34 217.953 297.395 218.027C297.268 218.052 297.131 218.12 297.015 218.096C294.813 217.629 292.647 218.081 290.462 218.282C288.939 218.423 287.39 218.255 285.857 218.324C284.318 218.394 282.785 218.591 281.249 218.722C279.552 218.867 277.853 218.979 276.159 219.146C275.249 219.237 274.35 219.439 273.441 219.547C272.09 219.707 270.733 219.81 269.382 219.972C267.838 220.157 266.292 220.343 264.758 220.598C262.934 220.902 261.127 221.305 259.305 221.617C257.5 221.927 255.691 222.257 253.87 222.417C253.041 222.49 252.163 222.232 251.334 222.019C250.696 221.855 250.841 221.406 251.247 221.111C251.575 220.873 251.976 220.667 252.37 220.605C253.555 220.42 254.752 220.309 255.944 220.175C257.205 220.033 258.464 219.876 259.727 219.765C261.526 219.606 263.329 219.502 265.126 219.338C266.219 219.238 267.303 219.051 268.395 218.936C269.304 218.84 270.217 218.793 271.232 218.724Z" fill="#E7EAEE"/>
<path fill-rule="evenodd" clip-rule="evenodd" d="M251.929 210.159C254.33 209.885 256.626 209.596 258.927 209.342C260.422 209.177 261.924 209.082 263.419 208.918C264.292 208.822 265.156 208.642 266.027 208.518C266.625 208.432 267.229 208.384 267.828 208.307C269.661 208.072 271.491 207.804 273.328 207.601C275.196 207.394 277.073 207.266 278.943 207.07C280.655 206.89 282.358 206.61 284.074 206.488C284.69 206.444 285.34 206.698 285.952 206.889C286.156 206.953 286.289 207.244 286.454 207.431C286.22 207.508 285.99 207.637 285.751 207.654C284.416 207.75 283.077 207.798 281.743 207.903C280.334 208.015 278.928 208.16 277.523 208.313C276.446 208.43 275.374 208.593 274.298 208.717C273.007 208.866 271.71 208.967 270.423 209.137C268.533 209.387 266.649 209.688 264.761 209.951C262.716 210.235 260.664 210.472 258.623 210.784C256.861 211.054 255.113 211.417 253.354 211.712C251.042 212.099 248.723 212.448 246.412 212.837C245.567 212.979 245.054 212.497 244.978 211.827C244.909 211.219 245.444 210.998 246.128 210.952C247.923 210.832 249.71 210.573 251.498 210.357C251.614 210.343 251.717 210.227 251.929 210.159Z" fill="#E7EAEE"/>
<path fill-rule="evenodd" clip-rule="evenodd" d="M278.753 231.696C276.512 231.976 274.375 232.25 272.239 232.539C271.329 232.662 270.425 232.898 269.515 232.909C269.22 232.913 268.633 232.306 268.679 232.085C268.772 231.636 269.156 230.968 269.508 230.906C271.004 230.647 272.533 230.581 274.049 230.434C275.417 230.301 276.783 230.149 278.151 230.017C279.667 229.87 281.184 229.729 282.701 229.597C284.4 229.449 286.1 229.305 287.801 229.178C288.966 229.091 290.135 229.057 291.299 228.959C292.668 228.844 294.032 228.668 295.401 228.549C296.497 228.454 297.598 228.431 298.693 228.327C299.822 228.22 300.945 228.053 302.072 227.917C302.207 227.9 302.357 227.882 302.483 227.92C302.918 228.054 303.346 228.213 303.776 228.362C303.397 228.493 303.026 228.692 302.637 228.743C300.33 229.046 298.019 229.306 295.711 229.598C294.176 229.792 292.646 230.036 291.109 230.219C289.699 230.388 288.281 230.485 286.871 230.654C286.129 230.743 285.401 230.962 284.658 231.044C283.077 231.218 281.491 231.335 279.908 231.491C279.554 231.526 279.206 231.626 278.753 231.696Z" fill="#E7EAEE"/>
<path fill-rule="evenodd" clip-rule="evenodd" d="M107.229 164.209C109.666 161.975 112.289 160.152 115.23 158.808C115.344 158.755 115.461 158.629 115.563 158.643C116.004 158.703 116.441 158.803 116.879 158.889C116.562 159.105 116.267 159.369 115.924 159.532C112.521 161.144 109.352 163.101 106.774 165.904C104.268 168.629 102.471 171.686 102.075 175.503C101.711 179.012 102.156 182.294 104.141 185.254C105.206 186.842 106.645 188.027 108.392 188.814C108.531 188.877 108.662 188.957 108.796 189.03C108.64 189.061 108.485 189.099 108.328 189.124C106.168 189.459 105.043 187.866 103.963 186.509C102.228 184.327 101.403 181.746 101.036 178.936C100.69 176.286 101.178 173.822 102.136 171.46C103.256 168.701 105.008 166.312 107.229 164.209Z" fill="#00160A"/>
<path fill-rule="evenodd" clip-rule="evenodd" d="M242.355 209.543C241.988 208.736 242.52 207.842 243.364 207.85C244.806 207.863 246.248 207.96 247.69 208.033C248.793 208.088 249.895 208.161 250.997 208.226C251.13 208.234 251.298 208.192 251.39 208.254C251.696 208.461 251.976 208.705 252.266 208.934C251.986 209.072 251.715 209.307 251.426 209.329C250.532 209.395 249.624 209.46 248.736 209.379C247.163 209.237 245.677 209.59 244.225 210.035C243.435 210.277 242.936 210.024 242.355 209.543Z" fill="#E7EAEE"/>
<path fill-rule="evenodd" clip-rule="evenodd" d="M34.0751 143.027C33.8694 144.275 33.6417 145.418 33.4661 146.568C33.3548 147.297 33.3299 148.039 33.2505 148.773C33.1208 149.971 32.8929 151.166 32.8581 152.366C32.7739 155.273 32.8004 158.183 32.7383 161.091C32.6785 163.896 33.219 166.61 33.8727 169.312C33.9997 169.836 34.0381 170.455 34.3494 170.846C34.8271 171.447 34.3836 171.738 34.0482 171.83C33.7278 171.918 33.1027 171.761 32.9742 171.52C32.6222 170.858 32.3837 170.11 32.2394 169.37C31.8738 167.494 31.4306 165.613 31.302 163.716C31.128 161.148 31.2486 158.561 31.1884 155.984C31.1153 152.86 31.5756 149.793 32.0047 146.713C32.7131 141.63 33.726 136.618 35.3323 131.74C35.5262 131.151 35.9616 130.582 36.4252 130.155C36.9915 129.634 37.8638 130.111 37.9886 130.897C38.1362 131.827 37.7123 132.539 37.2011 133.242C35.6623 135.36 34.893 137.774 34.4865 140.325C34.3485 141.191 34.2122 142.058 34.0751 143.027Z" fill="#E7EAEE"/>
<path fill-rule="evenodd" clip-rule="evenodd" d="M44.4515 165.193C44.379 165.832 45.5277 166.597 44.247 166.839C43.9007 166.904 43.1429 166.212 42.9836 165.743C42.5009 164.322 42.0337 162.854 41.904 161.377C41.7248 159.338 41.8591 157.274 41.8591 155.22C41.8591 154.982 41.8591 154.744 41.8591 154.506C41.8591 151.273 41.8738 148.04 41.8492 144.807C41.8426 143.95 41.6422 143.091 41.6672 142.237C41.6856 141.609 41.816 140.935 42.1051 140.379C42.3117 139.981 42.8455 139.541 43.2687 139.506C43.5595 139.482 44.143 140.095 44.1904 140.469C44.3145 141.449 44.2645 142.457 44.1913 143.447C44.1344 144.216 43.8643 144.972 43.8179 145.741C43.7019 147.662 43.6513 149.587 43.5894 151.51C43.5091 154 43.2822 156.498 43.4214 158.978C43.5364 161.027 44.0914 163.054 44.4515 165.193Z" fill="#E7EAEE"/>
<path fill-rule="evenodd" clip-rule="evenodd" d="M54.2535 161.045C52.3074 158.036 50.8569 154.859 49.9493 151.448C49.7663 150.76 49.9253 149.888 50.1833 149.203C50.3072 148.874 51.168 148.504 51.4466 148.651C51.8247 148.85 52.1256 149.508 52.1778 150.001C52.3792 151.904 52.5089 153.788 53.1364 155.639C53.8989 157.889 55.2069 159.767 56.4736 161.695C56.7372 162.097 57.5259 162.493 56.9697 163.003C56.4154 163.51 55.8522 162.922 55.4342 162.456C55.0413 162.018 54.6791 161.551 54.2535 161.045Z" fill="#E7EAEE"/>
<path fill-rule="evenodd" clip-rule="evenodd" d="M63.1849 154.598C62.0145 153.459 60.8426 152.421 59.7947 151.264C59.2497 150.662 59.3519 149.897 60.007 149.323C60.6603 148.75 61.069 149.285 61.4453 149.72C62.8692 151.37 64.273 153.037 65.6781 154.704C65.7578 154.798 65.8421 155.036 65.8219 155.05C65.5922 155.209 65.2953 155.502 65.1069 155.445C64.4633 155.248 63.856 154.925 63.1849 154.598Z" fill="#E7EAEE"/>
<path fill-rule="evenodd" clip-rule="evenodd" d="M124.842 293.041C127.488 293.704 130.043 294.33 132.564 295.061C133.027 295.195 133.356 295.754 133.746 296.117C133.198 296.152 132.616 296.32 132.108 296.199C129.489 295.571 126.866 294.942 124.29 294.174C121.762 293.42 119.288 292.499 116.792 291.647C116.673 291.606 116.574 291.514 116.46 291.457C115.849 291.152 115.198 290.841 115.679 290.021C116.123 289.265 116.814 289.283 117.498 289.67C118.501 290.237 119.424 290.952 120.468 291.427C121.848 292.054 123.311 292.511 124.842 293.041Z" fill="#E7EAEE"/>
<path fill-rule="evenodd" clip-rule="evenodd" d="M128.298 285.248C129.374 285.868 130.406 286.421 131.414 287.015C131.628 287.142 131.755 287.421 131.922 287.629C131.565 287.771 131.131 288.124 130.864 288.023C128.724 287.207 126.61 286.32 124.502 285.423C123.343 284.931 122.198 284.402 121.069 283.843C120.437 283.531 119.717 283.203 120.264 282.236C120.606 281.632 121.415 281.482 122.169 281.894C124.192 282.999 126.22 284.095 128.298 285.248Z" fill="#E7EAEE"/>
<path fill-rule="evenodd" clip-rule="evenodd" d="M122.351 273.78C122.309 272.295 123.261 271.667 124.497 272.401C126.599 273.647 128.647 274.987 130.701 276.314C131.313 276.71 131.892 277.168 132.437 277.653C132.641 277.835 132.706 278.174 132.834 278.441C132.478 278.434 132.073 278.537 131.775 278.403C130.016 277.609 128.277 276.772 126.543 275.924C125.154 275.246 123.782 274.531 122.351 273.78Z" fill="#E7EAEE"/>
<path fill-rule="evenodd" clip-rule="evenodd" d="M129.477 263.437C131.283 263.46 132.241 264.662 133.272 265.725C133.568 266.03 133.808 266.412 133.986 266.797C134.162 267.18 134.401 267.702 133.911 267.961C133.69 268.078 133.202 267.847 132.907 267.663C132.06 267.135 131.262 266.532 130.419 265.998C130.116 265.806 129.693 265.788 129.407 265.581C128.991 265.278 128.649 264.877 128.276 264.517C128.643 264.157 129.01 263.797 129.477 263.437Z" fill="#E7EAEE"/>
<path fill-rule="evenodd" clip-rule="evenodd" d="M135.252 234.101C136.742 237.193 137.936 240.382 138.334 243.821C138.548 245.665 138.793 247.508 138.939 249.358C139.071 251.037 139.173 252.728 139.136 254.41C139.091 256.423 138.874 258.432 138.75 260.443C138.664 261.842 138.65 263.246 138.532 264.642C138.365 266.605 138.098 268.56 137.936 270.523C137.813 272.01 137.732 273.504 137.735 274.995C137.738 276.692 137.86 278.388 137.924 280.085C137.997 282.021 137.833 284 138.184 285.884C138.709 288.703 139.429 291.511 140.363 294.222C141.736 298.207 144.113 301.671 146.735 304.932C148.354 306.946 150.223 308.734 152.855 309.428C152.889 309.437 152.918 309.754 152.851 309.813C151.88 310.663 150.672 310.317 149.648 310.18C147.359 309.875 145.094 309.334 142.846 308.784C137.131 307.387 131.425 305.956 125.728 304.489C122.953 303.774 120.207 302.942 117.443 302.182C117.037 302.07 116.512 301.885 116.193 302.041C114.581 302.831 113.336 301.963 112.152 301.16C109.555 299.4 108.083 296.845 107.319 293.841C106.266 289.699 107.113 285.745 108.641 281.913C109.649 279.386 110.852 276.932 112.059 274.491C113.284 272.014 114.822 269.724 116.686 267.677C117.316 266.985 118.082 266.419 118.766 265.775C119.705 264.891 119.754 263.679 119.832 262.524C119.921 261.186 119.718 259.816 119.91 258.499C120.563 254.023 122.538 250.005 124.615 246.071C125.65 244.11 126.965 242.246 128.426 240.576C129.509 239.337 130.934 238.335 132.611 237.859C133.126 237.714 133.271 237.596 132.888 236.954C132.333 236.025 131.551 234.946 132.533 233.702C133.708 232.526 134.556 232.658 135.252 234.101ZM136.813 243.434C136.773 243.474 136.706 243.509 136.697 243.555C136.621 243.948 136.612 244.363 136.478 244.734C135.884 246.371 135.425 248.087 134.603 249.604C132.955 252.647 130.851 255.387 128.366 257.813C126.199 259.928 124.001 262.011 121.853 264.144C120.628 265.36 119.367 266.565 118.312 267.923C116.62 270.1 114.842 272.269 113.546 274.681C112.041 277.484 110.913 280.507 109.824 283.508C109.139 285.393 108.675 287.391 108.389 289.379C108.081 291.514 108.492 293.645 109.458 295.591C110.17 297.026 111.173 298.216 112.815 298.733C114.779 299.351 116.707 300.082 118.666 300.716C123.014 302.123 127.347 303.585 131.734 304.861C135.018 305.817 138.367 306.555 141.704 307.318C143.594 307.749 145.516 308.041 147.429 308.37C147.58 308.396 147.766 308.214 147.937 308.129C147.851 308.008 147.777 307.877 147.678 307.768C146.98 306.993 146.202 306.279 145.589 305.442C143.902 303.14 142.053 300.914 140.688 298.428C138.266 294.015 136.642 289.283 136.278 284.194C136.166 282.627 136.008 281.063 135.871 279.293C135.871 277.328 135.792 275.359 135.895 273.399C135.984 271.719 136.286 270.051 136.486 268.377C136.63 267.167 136.679 265.939 136.916 264.748C137.369 262.472 137.156 261.553 135.22 260.255C134.32 259.651 133.19 259.07 133.146 257.806C133.128 257.271 133.556 256.637 133.96 256.223C134.082 256.098 134.945 256.446 135.227 256.782C135.864 257.541 136.346 258.431 136.903 259.259C136.993 259.393 137.147 259.483 137.272 259.593C137.353 259.455 137.492 259.322 137.505 259.178C137.592 258.215 137.711 257.249 137.705 256.284C137.698 255.044 137.574 253.806 137.516 252.566C137.439 250.905 137.385 249.242 137.306 247.581C137.251 246.398 137.184 245.215 137.092 244.034C137.076 243.828 136.91 243.634 136.813 243.434ZM132.585 239.202C130.383 239.961 128.869 241.578 127.678 243.447C125.3 247.179 123.407 251.169 122.171 255.423C121.595 257.405 121.35 259.488 122.121 261.523C122.166 261.643 122.483 261.792 122.506 261.768C125.454 258.653 128.415 255.549 131.311 252.386C134.266 249.158 135.382 245.307 134.83 240.991C134.579 239.033 134.441 238.983 132.585 239.202ZM290.865 200.669C291.791 200.769 292.849 201.247 293.509 201.899C295.177 203.546 296.656 205.385 298.206 207.151C299.157 208.234 300.109 209.315 301.044 210.411C303.016 212.72 304.972 215.043 306.946 217.351C307.558 218.068 308.214 218.747 308.83 219.462C309.006 219.667 309.109 219.935 309.246 220.174C309.052 220.016 308.843 219.872 308.666 219.696C304.004 215.028 299.36 210.341 294.678 205.694C293.144 204.173 291.402 202.885 289.299 202.285C287.082 201.653 284.823 201.438 282.501 201.819C281.331 202.011 280.102 201.812 278.903 201.86C276.234 201.967 273.567 202.143 270.898 202.241C269.334 202.298 267.764 202.207 266.201 202.28C264.529 202.357 262.862 202.546 261.193 202.689C259.657 202.821 258.121 202.945 256.588 203.095C255.373 203.214 254.163 203.381 252.948 203.5C251.404 203.653 249.854 203.745 248.314 203.928C247.009 204.083 245.715 204.339 244.415 204.534C242.968 204.751 241.517 204.94 240.071 205.158C237.843 205.494 235.618 205.84 233.395 206.205C233.313 206.218 233.176 206.54 233.223 206.607C233.635 207.2 234.058 207.789 234.523 208.341C236.844 211.096 239.196 213.826 241.503 216.593C244.12 219.729 246.653 222.937 249.314 226.035C251.181 228.209 253.022 230.452 255.658 231.792C255.743 231.835 255.818 231.896 255.897 231.948C255.801 231.964 255.694 232.016 255.61 231.992C254 231.519 252.32 231.325 251.144 229.803C248.974 226.992 246.636 224.311 244.404 221.547C241.641 218.128 239.015 214.592 235.733 211.631C235.466 211.39 235.186 211.14 234.869 210.982C234.166 210.631 233.52 210.513 232.972 211.345C231.88 213 230.689 214.59 229.599 216.246C228.872 217.351 229.108 217.892 230.423 218.787C233.886 221.143 237.648 222.821 241.672 223.964C243.348 224.44 245.01 225.043 246.2 226.454C246.285 226.554 246.375 226.649 246.463 226.746C246.321 226.733 246.17 226.747 246.04 226.701C240.62 224.785 235.194 222.886 229.793 220.918C228.905 220.595 228.088 220.023 227.313 219.462C226.819 219.104 226.842 218.568 227.165 217.993C228.275 216.015 229.336 214.011 230.406 212.011C230.479 211.876 230.51 211.562 230.485 211.553C230.212 211.46 229.911 211.324 229.643 211.365C228.522 211.536 227.392 211.697 226.297 211.983C223.825 212.628 221.37 213.341 218.913 214.046C218.77 214.087 218.676 214.302 218.559 214.437C219.18 214.922 219.801 215.407 220.474 215.944C223.077 218.209 225.631 220.42 228.179 222.638C229.544 223.825 230.901 225.023 232.261 226.216C232.317 226.264 232.375 226.311 232.432 226.358C232.304 226.38 232.164 226.445 232.048 226.416C230.396 225.998 228.776 225.577 227.424 224.386C224.195 221.54 220.888 218.784 217.63 215.97C216.961 215.392 216.31 214.769 215.759 214.08C215.068 213.215 215.225 212.619 216.317 212.198C217.179 211.865 218.12 211.713 219.04 211.566C221.782 211.127 224.53 210.718 227.279 210.324C228.487 210.15 229.705 210.049 230.916 209.898C231.133 209.871 231.339 209.763 231.55 209.693C231.445 209.522 231.365 209.329 231.232 209.185C230.171 208.04 229.1 206.903 228.032 205.765C227.938 205.664 227.838 205.57 227.741 205.472C227.893 205.436 228.043 205.387 228.197 205.364C231.012 204.949 233.826 204.531 236.643 204.125C238.492 203.859 240.34 203.584 242.195 203.366C244.094 203.143 245.998 202.962 247.903 202.805C249.606 202.664 251.317 202.605 253.02 202.463C254.112 202.372 255.193 202.157 256.284 202.069C257.649 201.958 259.02 201.941 260.387 201.847C262.093 201.73 263.796 201.559 265.503 201.445C266.938 201.349 268.377 201.323 269.811 201.226C270.969 201.148 272.12 200.977 273.278 200.907C274.409 200.839 275.544 200.846 276.678 200.82C279.612 200.751 282.547 200.667 285.482 200.619C287.278 200.589 289.089 200.478 290.865 200.669ZM120.157 193.741C120.94 193.823 121.74 193.717 122.529 193.764C124.451 193.878 126.371 194.054 128.294 194.162C130.084 194.262 131.883 194.242 133.668 194.393C135.495 194.548 136.59 195.312 136.472 197.502C136.367 199.477 136.331 201.457 136.26 203.434C136.195 205.274 136.123 207.114 136.059 208.954C136.05 209.226 136.06 209.5 136.077 209.772C136.093 210.008 136.131 210.242 136.16 210.477C136.092 210.477 135.973 210.497 135.964 210.474C135.868 210.22 135.743 209.965 135.712 209.7C135.605 208.771 135.535 207.839 135.446 206.908C135.313 205.52 135.178 204.132 135.038 202.744C134.968 202.042 134.887 201.341 134.804 200.641C134.753 200.205 134.704 199.769 134.626 199.338C134.594 199.154 134.492 198.983 134.422 198.807C134.278 198.888 134.106 198.942 133.995 199.056C132.646 200.458 131.724 202.093 131.37 204.038C131.331 204.252 131.202 204.448 131.115 204.652C131.044 204.472 130.984 204.285 130.898 204.112C129.322 200.958 126.84 198.863 123.45 198.147C121.901 197.819 120.229 198.098 118.612 198.088C117.798 198.083 117.664 198.55 117.734 199.245C117.889 200.757 118.004 202.273 118.149 203.786C118.346 205.845 118.557 207.902 118.757 209.961C118.897 211.405 119.012 212.853 119.176 214.295C119.222 214.7 119.407 215.089 119.522 215.486C119.577 215.673 119.618 215.863 119.665 216.051C119.458 215.907 119.122 215.803 119.067 215.613C118.788 214.659 118.583 213.682 118.35 212.714C118.08 211.59 117.808 210.466 117.537 209.239C117.265 207.324 116.892 205.521 116.747 203.699C116.542 201.124 116.149 198.52 116.722 195.956C117.047 194.505 118.703 193.59 120.157 193.741ZM114.637 198.801C115.06 198.95 115.38 199.402 115.745 199.722C115.493 200.014 115.283 200.366 114.981 200.587C114.318 201.071 113.527 201.4 112.932 201.951C111.519 203.26 112.188 205.862 113.655 206.549C114.331 206.866 115.007 207.189 115.661 207.551C115.897 207.682 116.067 207.936 116.268 208.134C116.024 208.14 115.78 208.147 115.536 208.153C113.97 208.194 112.796 207.47 111.918 206.211C110.596 204.314 111.298 202.459 112.855 200.974C113.001 200.835 113.134 200.68 113.284 200.544C113.477 200.369 113.681 200.206 113.88 200.037C113.493 199.988 113.066 199.807 112.725 199.912C111.455 200.307 110.734 201.368 110.348 202.53C109.023 206.519 112.155 209.751 115.708 209.335C116.083 209.291 116.488 209.511 116.88 209.609C116.785 209.668 116.698 209.75 116.596 209.783C113.621 210.753 111.087 209.654 109.65 206.78C109.551 206.581 109.415 206.402 109.296 206.112C108.609 202.588 110.077 199.96 113.299 198.909C113.721 198.771 114.248 198.663 114.637 198.801ZM118.259 194.801C117.629 194.946 117.407 195.627 117.741 196.232C118.198 197.059 118.902 197.09 119.751 197.006C121.091 196.874 122.456 196.77 123.791 196.884C125.484 197.029 127.15 197.491 128.843 197.651C130.252 197.784 131.684 197.678 133.208 197.575C133.803 197.541 134.398 197.496 134.994 197.474C135.71 197.448 136.12 196.875 135.734 196.261C135.497 195.885 135.009 195.493 134.593 195.441C132.853 195.224 131.099 195.096 129.347 195.007C128.108 194.944 126.862 195.044 125.623 194.983C123.747 194.89 121.876 194.694 120 194.597C119.423 194.567 118.827 194.671 118.259 194.801ZM211.101 187.35C213.173 187.391 215.24 187.726 217.308 187.941C217.462 187.957 217.629 188.005 217.757 188.089C218.027 188.266 218.276 188.475 218.533 188.672C218.205 188.704 217.876 188.745 217.547 188.768C215.484 188.909 213.422 189.059 211.358 189.173C211.015 189.192 210.659 188.971 210.316 188.989C208.183 189.104 206.053 189.273 203.921 189.38C203.441 189.404 202.948 189.174 202.468 189.199C200.404 189.305 198.343 189.477 196.278 189.589C195.901 189.609 195.511 189.386 195.134 189.406C193.001 189.519 190.871 189.687 188.739 189.796C188.293 189.819 187.835 189.592 187.389 189.615C185.325 189.723 183.263 189.895 181.199 190.005C180.787 190.026 180.363 189.801 179.952 189.823C177.819 189.933 175.689 190.101 173.557 190.213C173.179 190.233 172.789 190.01 172.412 190.03C170.279 190.143 168.149 190.307 166.017 190.422C165.674 190.44 165.318 190.22 164.975 190.238C162.842 190.352 160.712 190.521 158.58 190.628C158.1 190.652 157.607 190.423 157.128 190.448C155.063 190.554 153.002 190.726 150.937 190.837C150.56 190.858 150.17 190.635 149.793 190.655C147.66 190.767 145.53 190.935 143.398 191.045C142.986 191.067 142.562 190.842 142.151 190.863C140.052 190.974 137.956 191.143 135.858 191.253C135.446 191.275 135.022 191.05 134.611 191.071C132.478 191.182 130.348 191.351 128.216 191.462C127.804 191.483 127.38 191.258 126.969 191.28C124.904 191.39 122.843 191.558 120.778 191.67C120.401 191.69 120.011 191.467 119.634 191.487C117.501 191.6 115.371 191.763 113.239 191.879C112.93 191.896 112.608 191.676 112.299 191.695C110.541 191.803 108.785 191.968 107.026 192.078C105.829 192.152 104.624 192.12 103.43 192.224C101.724 192.372 100.015 192.535 98.3269 192.815C97.0062 193.034 95.7266 193.51 94.4052 193.719C94.0329 193.778 93.4842 193.375 93.2046 193.028C93.0862 192.881 93.3526 192.205 93.6178 191.987C94.705 191.093 96.0132 190.941 97.4697 191.058C98.3761 190.989 99.1804 190.924 99.9838 190.849C101.443 190.714 102.9 190.53 104.362 190.445C106.292 190.332 108.226 190.231 110.158 190.24C113.401 190.257 116.644 190.41 119.887 190.419C122.297 190.426 124.708 190.299 127.119 190.225C129.153 190.161 131.188 190.086 133.223 190.018C135.36 189.947 137.497 189.88 139.634 189.809C141.669 189.742 143.704 189.693 145.738 189.596C148.155 189.481 150.57 189.307 152.988 189.199C153.503 189.176 154.028 189.4 154.543 189.381C157.61 189.267 160.676 189.112 163.742 188.981C164.3 188.957 164.861 189.009 165.418 188.971C167.242 188.848 169.064 188.682 170.89 188.575C171.3 188.55 171.726 188.779 172.136 188.755C173.996 188.648 175.852 188.477 177.711 188.366C178.054 188.345 178.411 188.569 178.753 188.548C180.578 188.437 182.4 188.265 184.226 188.158C184.636 188.134 185.061 188.363 185.472 188.339C187.332 188.232 189.188 188.058 191.047 187.95C191.458 187.926 191.883 188.155 192.294 188.131C194.085 188.024 195.873 187.847 197.664 187.743C198.109 187.717 198.568 187.948 199.013 187.922C200.805 187.818 202.592 187.646 204.383 187.533C204.691 187.513 205.014 187.734 205.322 187.716C207.25 187.602 209.178 187.312 211.101 187.35ZM211.066 85.3486C215.583 85.7665 219.839 87.2139 223.757 89.4501C226.059 90.7643 228.2 92.3896 230.297 94.0234C233.549 96.5579 236.104 99.7335 238.311 103.196C239.956 105.779 241.394 108.476 242.249 111.412C243.025 114.082 243.72 116.796 244.153 119.537C244.467 121.517 244.281 123.573 244.339 125.595C244.399 127.661 244.182 129.698 243.962 131.754C243.425 136.771 242.484 141.686 241.074 146.533C240.463 148.637 240.904 150.814 241.305 152.944C241.656 154.81 242.304 156.553 243.297 158.175C243.417 158.37 243.407 158.644 243.457 158.881C243.203 158.865 242.935 158.894 242.696 158.825C240.974 158.321 240.415 156.917 240.004 155.379C239.71 154.276 239.443 153.149 238.993 152.106C238.479 150.913 238.279 151.027 237.15 151.589C234.824 152.747 232.46 153.846 230.047 154.806C226.778 156.107 223.339 156.78 219.862 157.325C217.974 157.621 216.067 158.197 214.645 159.574C213.985 160.215 213.472 161.124 213.191 162.006C212.838 163.111 212.757 164.275 213.414 165.418C213.803 166.095 214.212 166.21 214.859 166.032C218.001 165.168 221.12 164.209 224.291 163.472C226.727 162.906 229.238 162.669 231.698 162.197C234.252 161.707 236.823 161.587 239.409 161.599C239.603 161.6 239.798 161.651 239.992 161.678C239.816 161.719 239.641 161.763 239.464 161.8C237.06 162.292 234.654 162.774 232.251 163.276C230.075 163.73 227.904 164.213 225.727 164.669C223.295 165.179 220.853 165.649 218.426 166.184C217.242 166.444 216.057 166.746 214.916 167.148C213.322 167.71 212.822 168.698 212.734 170.505C212.636 172.538 212.987 174.441 213.476 176.328C214.354 179.716 215.859 182.804 218.293 185.417C220.339 187.612 222.645 189.391 225.578 190.148C227.16 190.557 228.813 190.814 230.444 190.876C232.478 190.953 234.454 190.573 236.383 189.762C238.8 188.746 240.667 187.15 242.051 185.013C243.573 182.667 244.574 180.072 244.935 177.292C245.234 174.985 245.547 172.655 245.529 170.337C245.503 166.995 244.811 163.734 243.518 160.623C243.438 160.43 243.124 160.157 243.74 160.139C245.37 160.092 246.988 161.577 247.009 163.271C247.029 164.821 247.081 166.374 246.999 167.919C246.85 170.72 249.842 174.38 252.307 175.012C252.846 175.15 252.894 174.959 252.763 174.68C251.26 171.501 252.182 168.393 253.075 165.321C254.798 159.389 257.161 153.689 259.526 147.99C261.84 142.416 264.061 136.804 266.307 131.203C268.213 126.452 270.087 121.688 271.991 116.937C273.825 112.361 275.678 107.794 277.524 103.223C277.583 103.077 277.68 102.946 277.738 102.799C277.848 102.521 277.942 102.237 278.043 101.955C277.755 102.149 277.4 102.288 277.192 102.545C274.724 105.588 272.427 108.784 269.787 111.669C266.965 114.752 263.902 117.629 260.798 120.438C258.582 122.444 256.127 124.189 253.774 126.045C253.554 126.219 253.299 126.35 253.061 126.5C253.083 126.223 253.134 125.944 253.125 125.668C253.053 123.547 255.023 123.356 256.208 122.43C257.992 121.035 259.846 119.724 261.571 118.26C264.784 115.534 267.342 112.206 269.948 108.927C270.652 108.041 271.406 107.194 272.189 106.277C274.474 103.798 276.623 101.286 278.964 98.9659C281.018 96.9314 283.299 95.1527 286.182 94.3155C287.467 93.9422 289.803 94.7989 290.668 96.1537C291.57 97.5673 291.929 99.1176 291.924 100.803C291.915 104.301 291.202 107.691 290.463 111.079C289.656 114.776 288.873 118.48 287.974 122.155C287.447 124.31 286.827 126.458 286.051 128.536C284.204 133.479 282.329 138.416 280.287 143.28C279.125 146.049 277.688 148.713 276.227 151.343C275.417 152.8 274.22 153.911 272.294 153.824C271.506 153.788 270.999 154.706 270.89 155.826C270.732 157.454 270.598 159.097 270.262 160.694C269.581 163.927 268.131 166.867 266.393 169.652C265.08 171.756 263.62 173.769 262.264 175.848C261.325 177.288 260.081 178.45 258.378 178.54C257.311 178.596 256.201 177.92 255.119 177.549C254.942 177.489 254.787 177.325 254.658 177.177C254.128 176.57 253.72 175.673 253.058 175.416C252.439 175.176 251.538 175.781 250.793 175.706C249.519 175.578 248.454 174.918 247.675 173.854C247.523 173.646 247.35 173.164 247.185 173.957C246.736 176.11 246.168 178.241 245.562 180.357C244.457 184.212 242.411 187.527 239.285 190.051C237.348 191.616 235.115 192.652 232.5 192.795C229.847 192.941 227.469 192.222 225.095 191.167C221.736 189.675 218.784 187.64 216.025 185.225C212.068 181.761 209.068 177.612 207.009 172.849C205.857 170.184 205.181 167.307 204.401 164.495C203.615 161.661 202.626 158.943 201 156.458C199.527 154.207 198.452 151.745 198.045 149.08C197.909 148.191 198.211 147.203 198.453 146.297C198.936 144.495 199.202 142.677 198.794 140.852C198.591 139.943 198.035 139.118 197.713 138.228C196.42 134.659 195.06 131.11 193.914 127.494C193.124 125 192.578 122.422 192.052 119.856C191.716 118.212 191.611 116.522 191.412 114.851C191.266 113.632 191.088 112.415 191.009 111.191C190.897 109.434 190.92 107.666 190.777 105.911C190.593 103.648 190.929 101.407 191.486 99.2796C192.031 97.1992 193.094 95.2267 194.114 93.3033C195.295 91.0747 196.912 89.1614 199.1 87.8067C201.054 86.5969 203.14 85.698 205.458 85.528C207.324 85.3911 209.217 85.1776 211.066 85.3486ZM196.197 139.961C196.067 140.175 195.989 140.482 195.799 140.587C194.688 141.201 193.577 141.825 192.418 142.338C190.452 143.207 188.45 143.997 186.361 144.82C183.095 146.274 179.867 147.603 176.788 149.217C173.72 150.825 170.868 152.797 168.206 155.054C164.309 158.358 161.164 162.236 159.133 166.917C158.303 168.829 157.734 170.925 157.456 172.992C157.09 175.728 157.135 178.518 156.987 181.283C156.862 183.604 156.725 185.925 156.573 188.244C156.516 189.119 155.836 188.47 155.479 188.629C155.45 188.642 155.153 188.29 155.171 188.128C155.343 186.585 155.652 185.052 155.732 183.506C155.833 181.557 155.741 179.599 155.76 177.645C155.796 173.9 156.51 170.305 158.068 166.878C159.519 163.688 161.475 160.861 163.797 158.246C167.302 154.298 171.498 151.276 176.073 148.731C180.4 146.323 184.886 144.267 189.529 142.544C191.544 141.796 193.505 140.906 195.496 140.093C195.712 140.005 195.962 140.003 196.197 139.961ZM251.131 185.278C252.91 185.529 254.681 185.839 256.457 186.106C257.542 186.268 258.628 186.471 259.718 186.519C261.317 186.59 262.921 186.511 264.521 186.546C265.694 186.572 266.866 186.673 268.037 186.754C268.867 186.812 269.695 186.943 270.525 186.956C272.445 186.987 274.367 186.987 276.287 186.962C280.786 186.903 285.286 186.777 289.785 186.783C290.934 186.785 292.084 187.18 293.233 187.392C293.3 187.405 293.397 187.363 293.435 187.399C293.698 187.649 293.949 187.913 294.203 188.173C293.871 188.199 293.538 188.246 293.205 188.247C290.93 188.254 288.654 188.27 286.379 188.241C285.48 188.229 284.584 188.068 283.685 188.043C280.387 187.954 277.088 187.887 273.79 187.826C272.612 187.804 271.434 187.822 270.153 187.822C268.678 187.822 267.305 187.848 265.934 187.816C263.836 187.768 261.738 187.645 259.639 187.617C256.987 187.581 254.333 187.659 251.682 187.586C250.44 187.552 249.2 187.311 247.969 187.103C247.281 186.987 247.12 186.35 247.349 185.831C247.506 185.473 248.034 185.098 248.412 185.078C249.314 185.032 250.23 185.151 251.131 185.278ZM198.476 142.321C198.403 142.362 198.308 142.385 198.26 142.445C196.762 144.338 195.096 146.125 193.817 148.156C192.099 150.884 190.68 153.805 189.832 156.946C189.373 158.644 189.041 160.376 188.642 162.09C188.381 163.214 187.788 164.143 186.816 164.765C185.526 165.593 184.159 166.304 182.888 167.158C179.723 169.283 177.719 172.293 176.55 175.864C175.897 177.861 175.485 179.906 175.863 182.046C176.093 183.347 176.189 184.671 176.332 185.987C176.355 186.196 176.312 186.412 176.299 186.626C176.021 186.6 175.61 186.68 175.491 186.53C175.165 186.118 174.812 185.632 174.738 185.135C174.516 183.652 174.428 182.149 174.274 180.655C174.241 180.344 174.148 180.039 174.083 179.731C173.806 180.038 173.489 180.319 173.259 180.658C171.722 182.922 170.21 185.201 168.67 187.463C168.557 187.628 168.294 187.691 168.1 187.802C168.05 187.456 167.846 187.031 167.978 186.779C168.465 185.847 168.998 184.923 169.632 184.085C171.115 182.123 172.797 180.298 174.144 178.252C175.033 176.903 175.514 175.277 176.116 173.752C176.733 172.19 177.707 170.912 178.966 169.825C180.554 168.453 182.135 167.073 183.77 165.645C184.881 164.467 186.07 163.434 186.97 162.191C188.156 160.553 188.578 158.555 189.058 156.61C190.073 152.496 191.881 148.766 194.549 145.463C195.214 144.64 195.844 143.776 196.602 143.048C197.014 142.652 197.659 142.494 198.206 142.246C198.271 142.216 198.385 142.293 198.476 142.321ZM49.886 105.849C51.0349 106.146 51.201 107.145 50.3222 107.908C48.3269 109.639 47.3774 111.85 47.2311 114.418C47.1504 115.836 47.2832 117.266 47.2045 118.684C46.945 123.36 48.3103 127.664 50.3323 131.77C52.2654 135.695 55.0802 138.927 59.1191 140.816C61.4366 141.899 63.9149 142.66 66.3555 143.461C68.4754 144.158 70.6476 144.695 72.7901 145.325C74.8919 145.943 76.9624 146.504 79.1894 145.761C80.3319 145.38 81.189 146.402 80.7515 147.509C79.0972 151.696 77.6875 156.042 74.7814 159.572C73.0382 161.69 71.0213 163.65 68.8638 165.35C65.6965 167.847 62.0545 169.626 58.4166 171.38C54.8683 173.09 51.4 174.965 47.836 176.641C43.821 178.528 39.7523 180.306 35.6808 182.071C32.3961 183.496 29.0802 184.85 25.7609 186.194C24.9672 186.515 24.117 186.74 23.2711 186.88C22.4236 187.021 20.5617 185.692 20.229 184.814C19.3849 182.585 18.8111 180.292 18.5742 177.917C18.43 176.471 18.2359 175.03 18.0127 173.587C17.9612 173.485 17.9612 173.382 18.0127 173.229C18.0985 171.251 18.1345 169.325 18.1585 167.399C18.1591 167.346 18.0299 167.291 17.9612 167.238V166.469C17.9955 166.418 18.0599 166.419 18.0599 166.418C18.1248 164.635 18.18 162.852 18.2492 161.069C18.2716 160.493 18.3367 159.919 18.3723 159.343C18.6676 154.563 19.2355 149.813 20.4588 145.179C21.4349 141.481 22.7239 137.884 24.2905 134.371C26.0776 130.363 28.2502 126.595 30.7536 123.011C32.029 121.186 33.422 119.427 34.9042 117.763C36.6876 115.76 38.5199 113.778 40.5184 111.995C42.8001 109.959 45.2521 108.104 47.7144 106.283C48.2627 105.878 49.2318 105.68 49.886 105.849ZM46.8919 108.659C46.7762 108.711 46.6454 108.743 46.5471 108.817C43.4512 111.164 40.374 113.534 37.8104 116.479C36.2178 118.308 34.5898 120.112 33.0863 122.012C29.432 126.629 26.6041 131.718 24.451 137.334C24.3779 137.543 24.293 137.749 24.2334 137.962C23.3082 141.267 22.3293 144.559 21.4897 147.886C21.1172 149.362 21.0103 150.906 20.8149 152.424C20.5999 154.093 20.3604 155.764 20.2465 157.442C20.1527 158.824 20.2791 160.22 20.2133 161.605C20.1316 163.326 19.8936 165.041 19.8359 166.762C19.797 167.924 19.9846 169.093 20.0132 170.26C20.0478 171.67 19.9951 173.083 20.0296 174.493C20.058 175.649 20.0857 176.814 20.2461 177.957C20.4425 179.357 20.7924 180.734 21.0479 182.126C21.4168 184.136 22.2426 184.915 24.2108 185.057C25.5903 185.157 26.6387 184.341 26.8318 183.049C26.8552 182.892 27.1025 182.619 27.1347 182.634C28.8737 183.45 30.3832 182.628 31.9073 181.981C35.1457 180.607 38.3986 179.264 41.6046 177.818C46.3747 175.667 51.1251 173.471 55.8522 171.228C58.0638 170.178 60.2357 169.034 62.3646 167.827C66.5195 165.47 70.3176 162.676 73.3937 158.96C75.7777 156.08 77.2514 152.806 78.1054 149.224C78.2676 148.543 78.0287 147.953 77.2153 147.778C75.0102 147.305 72.8104 146.807 70.602 146.349C66.1134 145.42 61.7746 144.126 57.7407 141.86C52.5611 138.95 49.243 134.556 47.2505 129.128C46.3052 126.553 45.546 123.885 45.5656 121.081C45.5803 118.975 45.3949 116.852 45.6193 114.77C45.8266 112.846 46.4624 110.968 46.9018 109.069C46.9316 108.94 46.8967 108.796 46.8919 108.659ZM133.26 139.085C134.488 139.929 135.702 140.793 136.891 141.689C137.214 141.932 137.239 142.174 137.385 141.538C137.614 140.545 139.027 140.267 139.874 140.973C141.815 142.592 142.794 144.769 143.505 147.136C144.121 149.189 143.877 151.276 143.936 153.35C143.975 154.681 145.222 155.685 146.531 155.739C147.498 155.779 148.516 156.203 149.387 156.684C151.493 157.845 152.847 159.679 153.513 161.988C154.23 164.474 153.563 166.688 152.121 168.754C150.811 170.634 149.617 172.602 147.714 173.98C146.662 174.742 145.45 175.375 144.626 176.337C143.741 177.371 142.725 178.045 141.52 178.51C138.553 179.655 135.31 178.17 133.857 175.695C132.547 173.466 129.394 173.956 128.173 175.763C127.64 176.551 127.493 177.592 127.095 178.484C126.851 179.031 127.088 178.948 127.454 178.894C129.268 178.624 131.083 178.366 132.899 178.11C132.992 178.097 133.092 178.133 133.189 178.146C133.117 178.201 133.05 178.266 132.972 178.31C131.172 179.327 129.223 179.902 127.185 180.145C125.641 180.329 124.063 180.624 122.54 180.468C121.341 180.345 120.12 179.749 119.061 179.111C117.811 178.359 117.436 177.082 117.46 175.589C117.507 172.69 118.619 170.244 120.455 168.124C120.984 167.513 121.918 167.256 122.661 166.828C122.943 166.666 123.354 166.645 122.855 166.121C120.675 163.831 118.738 161.35 117.413 158.447C117.204 157.988 116.988 157.515 116.897 157.027C116.841 156.726 116.924 156.298 117.119 156.09C117.241 155.96 117.729 156.054 117.975 156.188C118.345 156.39 118.638 156.728 118.979 156.987C119.56 157.429 119.883 157.241 119.726 156.552C119.278 154.593 119.689 152.733 120.378 150.936C120.75 149.967 121.354 149.083 121.916 148.199C121.969 148.115 122.509 148.242 122.743 148.394C123.179 148.676 123.556 149.048 123.958 149.383C123.985 148.847 123.993 148.31 124.046 147.777C124.077 147.461 124.155 147.144 124.251 146.839C124.732 145.314 124.99 145.236 126.263 146.193C126.434 146.321 126.638 146.405 126.827 146.509L126.882 146.121C126.891 146.056 126.898 145.991 126.904 145.926C127.044 144.25 126.709 142.729 125.483 141.484C125.468 141.469 125.734 141.031 125.887 141.019C127.653 140.88 129.419 140.807 131.034 141.751C131.364 141.943 131.693 142.138 132.074 142.382C132.228 142.243 132.4 142.059 132.421 141.86C132.516 140.957 132.56 140.049 132.664 139.147C132.67 139.098 133.128 138.995 133.26 139.085ZM121.497 168.282C121.457 168.357 121.431 168.445 121.375 168.505C119.366 170.625 118.43 173.144 118.504 176.066C118.544 177.652 119.39 178.82 120.977 179.11C121.985 179.294 123.031 179.285 124.062 179.314C124.186 179.317 124.389 179.026 124.437 178.841C124.741 177.661 124.719 176.346 125.984 175.441C126.337 175.304 126.69 175.169 127.042 175.031C127.202 174.968 127.486 174.91 127.493 174.831C127.508 174.663 127.427 174.402 127.298 174.322C126.952 174.108 126.573 173.872 126.183 173.818C124.386 173.568 123.111 172.621 122.38 170.991C122.032 170.215 121.843 169.369 121.582 168.554C121.553 168.464 121.525 168.373 121.497 168.282ZM126.291 176.159C126.154 176.675 125.998 177.188 125.901 177.712C125.885 177.8 126.16 178.052 126.24 178.028C126.566 177.929 126.671 176.361 126.291 176.159ZM133.741 140.201C133.851 140.578 134.006 140.948 134.061 141.332C134.187 142.204 134.112 143.038 133.255 143.551C132.57 143.962 132.058 143.469 131.592 143.108C130.535 142.29 129.286 142.184 128.045 142.028C127.367 141.943 127.336 142.222 127.558 142.805C127.883 143.663 128.289 144.575 128.263 145.452C128.247 146.002 127.544 146.57 127.075 147.058C126.638 147.514 126.219 147.298 125.873 146.848C125.82 146.779 125.649 146.801 125.532 146.781C125.54 146.966 125.516 147.16 125.562 147.335C125.833 148.377 125.444 149.384 124.351 149.983C123.595 150.398 123.062 149.765 122.602 149.275C122.256 148.907 122.225 149.131 122.078 149.411C120.801 151.854 120.655 154.409 121.333 157.035C121.501 157.688 121.201 158.013 120.662 157.988C120.035 157.959 119.419 157.712 118.793 157.586C118.503 157.528 118.2 157.533 117.903 157.509C117.984 157.795 118.021 158.102 118.152 158.363C119.235 160.518 120.628 162.467 122.436 164.052C123.502 164.986 124.157 165.806 124.125 167.418C124.083 169.524 125.204 171.246 127.148 172.391C128.696 173.304 130.342 173.113 131.976 173.169C132.812 173.198 133.42 173.487 133.917 174.149L134.115 174.414C135.135 175.783 136.143 177.145 137.969 177.624C140.028 178.163 141.91 177.947 143.497 176.497C143.828 176.194 143.831 175.472 143.845 174.94C143.848 174.843 143.178 174.672 142.808 174.631C141.33 174.466 139.843 174.841 138.35 174.437C136.242 173.866 134.304 173.026 132.706 171.504C132.405 171.217 132.151 170.88 131.875 170.566C132.361 170.681 132.848 170.791 133.332 170.913C133.453 170.943 133.592 170.979 133.679 171.059C135.938 173.141 138.59 174.048 141.655 173.806C144.765 173.561 146.367 171.928 146.528 169.198C146.693 166.379 146.149 163.649 144.852 161.093C144.664 160.723 144.666 160.21 144.711 159.777C144.887 158.096 145.309 156.399 143.505 155.204C143.201 155.003 143.117 154.33 143.096 153.869C143.035 152.499 142.603 151.987 141.266 151.863C140.451 151.787 139.994 151.299 139.808 150.534C139.754 150.312 139.756 150.076 139.733 149.847C139.516 150.042 139.24 150.202 139.091 150.44C138.335 151.651 137.207 152.4 136.02 153.124C135.419 153.491 135.225 153.449 135.076 152.769C135.006 152.449 134.746 152.171 134.573 151.874C134.405 152.112 134.232 152.346 134.072 152.589C133.861 152.91 133.712 153.29 133.447 153.554C132.5 154.496 131.544 155.433 130.523 156.291C130.301 156.477 129.634 156.481 129.465 156.298C129.242 156.056 129.272 155.548 129.262 155.153C129.251 154.759 129.348 154.364 129.35 153.969C129.351 153.814 129.229 153.535 129.15 153.53C128.981 153.52 128.72 153.603 128.643 153.734L128.241 154.41C127.84 155.087 127.446 155.769 127.123 156.483C126.258 158.396 125.904 160.427 125.856 162.526C125.849 162.821 125.534 163.139 125.297 163.384C125.216 163.468 124.797 163.405 124.772 163.329C124.661 162.998 124.574 162.633 124.598 162.289C124.634 161.742 124.776 161.204 124.856 160.659C125.341 157.372 126.764 154.577 129.22 152.328C129.31 152.246 129.624 152.24 129.63 152.258C129.853 153.02 130.061 153.787 130.249 154.559C130.291 154.733 130.252 154.927 130.251 155.112C130.415 155.037 130.599 154.988 130.742 154.883C132.295 153.734 133.538 152.318 134.43 150.593C134.644 150.177 134.945 149.806 135.206 149.414L135.664 150.248C135.816 150.527 135.966 150.806 136.11 151.089C136.165 151.198 136.078 151.378 136.131 151.489C136.17 151.572 136.4 151.665 136.426 151.638C137.219 150.819 137.982 149.969 138.788 149.162C139.096 148.853 139.678 148.343 139.825 148.433C140.305 148.726 140.657 149.242 141.019 149.702C141.102 149.807 140.968 150.073 141.045 150.196C141.185 150.42 141.485 150.791 141.583 150.753C142.082 150.56 142.582 150.308 142.984 149.963C143.145 149.825 143.054 149.394 142.976 148.994C142.563 146.38 141.531 144.069 139.647 142.176C139.529 142.057 139.406 141.941 139.286 141.824C139.253 141.981 139.221 142.139 139.189 142.296C139.009 143.164 138.075 143.687 137.401 143.161C136.551 142.498 135.877 141.614 135.064 140.896C134.702 140.576 134.187 140.428 133.741 140.201ZM205.706 161.611C205.634 161.684 205.51 161.748 205.497 161.83C205.449 162.124 205.378 162.434 205.424 162.719C205.677 164.284 205.996 165.839 206.23 167.406C206.64 170.14 207.324 172.794 208.736 175.187C209.237 176.036 210.05 176.703 210.732 177.442C210.81 177.526 210.961 177.542 211.078 177.589C211.073 177.517 211.076 177.443 211.062 177.372C210.897 176.518 210.832 175.628 210.542 174.817C209.85 172.885 209.052 170.99 208.194 168.978C207.679 167.584 207.135 166.2 206.66 164.792C206.332 163.824 206.102 162.823 205.823 161.838C205.801 161.758 205.746 161.687 205.706 161.611ZM260.798 157.02C260.794 157.113 260.599 157.191 260.508 157.29C260.261 157.561 259.973 157.81 259.789 158.119C257.762 161.522 256.696 165.269 255.871 169.099C255.652 170.115 255.457 171.137 255.251 172.361C255.182 172.948 255.044 173.536 255.063 174.119C255.085 174.798 255.079 175.557 255.378 176.13C256.215 177.737 258.46 177.691 259.837 176.845C261.112 176.062 261.724 174.8 262.415 173.609C263.592 171.578 264.574 169.432 265.797 167.431C267.459 164.709 269.099 161.998 269.849 158.855C270.074 157.91 269.593 157.265 268.583 157.294C266.208 157.362 263.9 156.894 261.588 156.461C260.811 156.315 260.829 156.275 260.798 157.02ZM145.916 156.594C145.506 158.362 145.769 160.049 146.278 161.717C147.019 164.147 147.827 166.559 147.579 169.156C147.406 170.974 146.59 172.409 145.028 173.412C144.788 173.566 144.681 173.926 144.512 174.192C144.828 174.257 145.146 174.38 145.46 174.368C145.652 174.36 145.861 174.173 146.022 174.023C147.177 172.95 148.472 171.982 149.428 170.751C150.389 169.514 151.01 168.012 151.882 166.523C152.082 165.571 152.318 164.625 152.474 163.666C152.825 161.514 151.748 159.443 149.784 158.712C148.499 158.233 147.091 158.055 146.545 156.494C146.456 156.239 146.123 155.704 145.916 156.594ZM83.73 109.917C86.2393 110.215 88.7661 110.68 91.1736 111.434C93.7538 112.242 96.0144 113.779 97.844 115.804C100.338 118.565 101.966 121.774 102.689 125.46C102.995 127.02 103.091 128.569 103.062 130.138C103.043 131.133 102.94 132.128 102.865 133.122C102.704 135.248 103.238 137.27 103.765 139.296C104.305 141.371 104.109 143.45 103.918 145.557C103.637 148.67 102.466 151.487 101.195 154.257C100.377 156.04 99.27 157.695 98.2379 159.374C97.3647 160.794 96.4133 162.166 95.4454 163.611C94.1399 165.666 92.8655 167.658 91.6403 169.679C91.1002 170.57 90.6607 171.522 90.1729 172.445C90.1133 172.558 90.0538 172.678 89.9664 172.767C89.6637 173.077 89.3487 173.375 89.0383 173.677C89.009 173.236 88.8346 172.741 88.9734 172.361C90.0837 169.318 91.7949 166.603 93.6505 163.967C95.8972 160.775 98.2843 157.669 99.8773 154.066C100.924 151.699 101.75 149.264 102.041 146.679C102.21 145.181 102.4 143.679 102.434 142.175C102.469 140.683 102.322 139.185 102.246 137.69C102.242 137.616 102.113 137.48 102.106 137.484C101.939 137.58 101.747 137.662 101.626 137.804C100.987 138.557 100.377 139.334 99.737 140.087C98.1108 141.998 96.1305 143.285 93.6314 143.841C91.1628 144.391 89.0874 143.672 87.3335 142.064C85.111 140.025 85.1444 137.531 86.6736 135.171C88.0725 133.011 90.0996 131.866 92.707 131.5C95.2561 131.141 97.5702 131.849 99.8845 132.605C100.74 132.884 101.266 133.183 101.307 131.974C101.353 130.604 101.268 129.216 101.464 127.869C101.716 126.136 101.112 124.623 100.623 123.051C99.6567 119.939 97.7891 117.503 95.2904 115.442C93.3735 113.861 91.2229 112.775 88.8778 112.137C86.4569 111.48 84 111.179 81.4246 111.44C77.2523 111.863 73.6267 113.46 70.3326 115.903C67.999 117.633 66.1831 119.873 64.5737 122.284C64.3339 122.643 63.9379 122.898 63.6155 123.202C63.2127 123.583 62.6755 123.692 62.3879 123.247C62.1695 122.91 62.0902 122.189 62.3038 121.914L62.8004 121.274C63.7954 119.992 64.8102 118.711 65.9924 117.62C67.4404 116.283 69.1001 115.158 70.7443 114.055C73.4924 112.212 76.5036 110.972 79.7955 110.468C81.11 110.267 82.4584 109.766 83.73 109.917ZM123.267 169.755C123.252 169.885 123.209 170.019 123.224 170.145C123.363 171.32 124.133 172.099 125.005 172.751C125.297 172.969 125.807 172.893 126.218 172.951C126.002 172.617 125.799 172.273 125.563 171.954C125.423 171.764 125.231 171.612 125.062 171.238C124.56 170.804 124.06 170.368 123.555 169.937C123.47 169.864 123.364 169.815 123.267 169.755ZM285.13 96.8859C284.031 97.8006 282.938 98.7265 281.895 99.703C280.183 101.305 279.099 103.355 278.203 105.455C276.318 109.87 274.576 114.347 272.792 118.805C270.164 125.375 267.55 131.951 264.93 138.73C264.793 138.947 264.616 139.149 264.524 139.384C262.858 143.617 261.208 147.857 259.542 152.091C258.258 155.354 256.895 158.588 255.681 161.876C254.558 164.918 253.831 168.073 253.408 171.29C253.367 171.6 253.472 171.929 253.51 172.25C253.541 171.977 253.53 171.691 253.618 171.438C253.678 171.269 253.95 171.171 254.005 171.002C255.049 167.775 256.007 164.519 257.128 161.319C257.899 159.116 258.868 156.98 259.791 154.833C260.222 153.83 260.607 153.733 261.576 154.213C262.23 154.537 262.896 154.84 263.536 155.191C264.547 155.745 265.619 155.955 266.762 155.854C267.576 155.782 268.595 154.842 268.615 153.966C268.634 153.111 268.254 152.425 267.262 152.334C266.642 152.278 266.008 152.308 265.401 152.19C264.953 152.103 264.54 151.84 264.112 151.655C264.391 151.441 264.65 151.191 264.957 151.028C265.146 150.927 265.407 150.958 265.636 150.932C267.169 150.754 268.471 151.488 269.818 152.013C272.246 152.959 273.614 152.779 274.847 151.159C275.51 150.289 275.954 149.234 276.393 148.218C278.382 143.605 280.493 139.036 282.254 134.338C284.077 129.478 285.775 124.546 287.11 119.536C288.545 114.145 290.119 108.747 290.397 103.114C290.473 101.562 290.34 100.061 289.896 98.5287C289.182 96.0627 286.854 95.4512 285.13 96.8859ZM200.734 146.26C200.647 146.429 200.535 146.59 200.475 146.768C199.704 149.052 199.825 151.34 200.892 153.456C202.009 155.671 203.378 157.76 204.649 159.897C204.703 159.988 204.883 160.004 205.004 160.055C205.043 159.89 205.152 159.705 205.11 159.564C204.746 158.316 204.332 157.083 203.991 155.83C203.921 155.571 203.998 155.139 204.178 154.979C204.445 154.741 204.893 154.511 205.216 154.565C206.148 154.72 206.923 155.828 207.015 156.934C207.166 158.761 207.22 160.602 207.496 162.41C207.94 165.318 209.087 168.01 210.361 170.646C210.43 170.788 210.564 170.899 210.668 171.025C210.77 170.862 210.92 170.712 210.966 170.535C211.125 169.914 211.155 169.244 211.403 168.665C212.279 166.626 212.264 164.665 211.193 162.69C210.607 161.609 210.15 160.459 209.533 159.237C209.097 157.982 208.89 156.575 208.172 155.509C207.064 153.866 205.572 152.484 204.308 150.939C203.192 149.576 202.165 148.14 201.098 146.736L200.734 146.26ZM142.28 165.726C142.515 166.128 142.696 166.499 142.994 166.717C144.112 167.534 143.987 169.735 142.886 170.414C142.64 170.566 142.215 170.438 141.872 170.438C141.872 170.16 141.786 169.848 141.886 169.609C142.582 167.933 141.859 166.56 140.034 166.12C139.748 166.051 139.488 165.877 139.216 165.752C139.466 165.598 139.711 165.436 139.967 165.293C140.241 165.141 140.525 165.007 140.806 164.867C141.862 164.34 142.031 164.428 142.28 165.726ZM144.129 156.96C144.295 157.914 144.244 158.945 144.072 159.904C143.939 160.653 141.976 161.064 140.908 160.926C139.78 160.779 139.086 160.106 138.385 159.389C137.775 158.763 137.079 158.272 136.217 158.62C135.343 158.973 135.31 159.841 135.351 160.766C135.105 162.392 134.633 163.708 133.213 164.671C131.333 165.946 129.167 165.012 128.322 163.467C128.227 163.292 128.057 163.157 127.922 163.004C127.82 163.154 127.686 163.292 127.621 163.456C127.113 164.739 126.562 166.009 126.142 167.319C125.88 168.136 126.253 168.508 127.088 168.499C127.646 168.494 128.204 168.489 128.762 168.504C128.908 168.509 129.052 168.589 129.197 168.635C129.117 168.771 129.067 168.982 128.95 169.031C128.423 169.247 127.799 169.682 127.354 169.553C126.184 169.214 125.158 168.573 125.091 167.123C124.983 164.761 126.25 162.979 127.599 161.241C129.135 159.263 131.402 158.564 133.688 157.917C136.559 157.104 139.429 156.287 142.3 155.477C142.899 155.308 143.966 156.018 144.129 156.96ZM133.149 158.798C132.125 159.204 131.113 159.651 130.134 160.155C128.445 161.025 128.267 162.563 129.674 163.783C131.137 165.051 133.015 164.621 133.568 162.809C133.878 161.792 133.944 160.703 134.12 159.443C134.167 158.68 133.687 158.584 133.149 158.798ZM137.393 159.553C137.483 159.589 137.57 159.635 137.663 159.659C139.052 160.013 140.133 162.276 139.473 163.502C139.342 163.744 139.075 163.909 138.871 164.109C138.82 163.91 138.764 163.711 138.719 163.51C138.589 162.914 138.463 162.317 138.288 161.671C137.971 161.021 137.7 160.42 137.436 159.816C137.402 159.737 137.406 159.641 137.393 159.553ZM141.712 156.106C140.559 156.508 139.451 157.035 138.12 157.51C138.085 157.665 137.976 157.853 138.028 157.968C138.692 159.425 141.187 160.452 142.681 159.903C143.563 159.58 144.05 158.462 143.76 157.432C143.559 156.719 142.376 155.874 141.712 156.106ZM247.61 120.835C249.595 121.028 251.18 121.895 252.388 123.603C253.051 124.542 252.547 125.32 252.391 126.108C251.828 128.951 251.149 131.769 250.503 134.594C249.972 136.92 249.431 139.244 248.887 141.567C248.163 144.663 247.435 147.758 246.702 150.851C246.174 153.077 245.64 155.301 245.096 157.523C245.039 157.756 244.894 157.966 244.79 158.186C244.694 157.954 244.499 157.714 244.518 157.493C244.668 155.739 244.82 153.984 245.049 152.239C245.289 150.403 245.583 148.573 245.911 146.751C246.302 144.577 246.713 142.404 247.189 140.248C248.267 135.365 249.658 130.576 251.25 125.839C251.882 123.957 250.086 122.715 248.633 122.748C247.704 122.769 246.903 122.981 246.05 123.189C245.909 123.223 245.687 122.911 245.502 122.657C245.502 122.487 245.481 122.409 245.506 122.352C245.703 121.903 244.986 121.079 246.043 120.98C246.567 120.932 247.097 120.785 247.61 120.835ZM145.788 148.163C147.034 148.181 148.279 148.347 149.523 148.335C151.303 148.318 153.001 148.697 154.591 149.398C155.989 150.013 157.28 150.865 158.67 151.664C160.291 153.108 161.525 154.723 162 156.791C162.062 157.063 161.763 157.415 161.631 157.73C161.419 157.541 161.072 157.385 161.014 157.156C159.884 152.777 156.702 150.646 152.548 149.577C150.278 148.993 147.982 149.137 145.679 149.342C145.38 149.369 144.712 149.763 144.687 148.977C144.664 148.255 145.275 148.155 145.788 148.163ZM205.003 86.7975C200.957 87.3718 197.964 89.694 195.696 93.0279C193.224 96.6614 192.397 100.791 192.289 105.035C192.211 108.064 192.574 111.114 192.875 114.142C193.1 116.404 193.421 118.671 193.918 120.888C194.544 123.681 195.407 126.422 196.144 129.191C197.376 133.822 198.927 138.345 200.894 142.714C202.991 147.372 205.747 151.592 209.62 155.004C210.87 156.106 212.319 156.902 214.004 157.069C216.104 157.278 218.143 156.882 220.15 156.268C224.445 154.954 228.784 153.774 233.035 152.335C236.918 151.021 239.336 148.204 240.198 144.204C240.845 141.204 241.39 138.178 241.842 135.143C242.227 132.561 242.539 129.955 242.648 127.35C242.731 125.357 242.471 123.348 242.319 121.349C242.204 119.826 242.019 118.308 241.865 116.582C241.364 113.55 240.457 110.649 239.261 107.812C237.444 103.501 234.941 99.7077 231.558 96.4346C227.869 92.8666 223.461 90.597 218.667 89.0359C215.961 88.1549 213.161 87.5066 210.359 86.996C208.614 86.678 206.749 86.5498 205.003 86.7975ZM84.5146 114.542C84.3942 114.73 84.2871 114.928 84.1515 115.105C81.634 118.379 78.9686 121.55 76.6304 124.948C73.8717 128.957 71.5666 133.25 69.777 137.873C69.08 139.322 68.4422 140.723 67.7848 142.116C67.4368 142.853 66.7132 142.76 66.22 142.523C65.686 142.266 65.7519 141.721 66.0718 141.149C68.7067 136.433 71.2358 131.656 73.9317 126.976C75.5853 124.105 77.3719 121.297 79.3017 118.606C80.334 117.167 81.79 116.03 83.0723 114.775C83.2427 114.608 83.5086 114.49 83.746 114.454C83.9923 114.417 84.2576 114.507 84.5146 114.542ZM91.2696 133.366C88.4466 134.115 87.0434 136.181 87.2879 138.899C87.4421 140.612 88.1199 141.708 89.7435 142.17C91.6047 142.699 93.4629 142.457 95.2154 141.752C97.7294 140.741 99.7858 139.213 100.41 136.145C100.475 135.319 100.237 134.714 99.5007 134.176C96.8912 132.269 94.1371 132.605 91.2696 133.366ZM150.117 79.5624C150.049 79.6478 149.98 79.682 149.911 79.7674C149.69 79.867 149.417 79.8484 149.257 79.9733C145.266 83.0916 142.763 87.1653 141.447 92.0054C140.823 94.3039 140.539 96.648 140.643 99.0126C140.825 103.174 142.131 106.977 144.498 110.438C147.083 114.219 150.519 117.001 154.621 118.954C156.971 120.072 159.466 120.878 162.109 121.018C163.298 121.082 164.514 120.886 165.681 121.06C167.921 121.393 170.007 120.79 172.077 120.188C176.245 118.975 179.913 116.881 183.055 113.853C185.374 111.62 187.379 109.192 188.703 106.246C188.729 106.188 188.761 106.133 188.791 106.077C188.83 106.153 188.912 106.235 188.902 106.305C188.705 107.8 188.801 109.315 187.737 110.649C184.446 114.78 180.629 118.26 175.683 120.28C173.567 121.145 171.308 121.7 169.074 122.226C167.73 122.543 166.304 122.677 164.922 122.641C161.424 122.549 158.05 121.811 154.822 120.422C151.375 118.939 148.357 116.856 145.785 114.15C142.794 111.004 140.706 107.342 139.824 103.084C139.473 101.388 139.194 99.6347 139.217 97.9122C139.292 92.5312 140.874 87.57 144.007 83.1652C144.861 81.9649 146.009 80.9676 147.051 79.9049C147.542 79.4041 149.723 79.1626 150.117 79.5624ZM154.515 79.6143C154.567 79.6204 154.612 79.6837 154.66 79.7203C154.571 79.7521 154.483 79.7875 154.392 79.8152C150.881 80.8873 148.379 83.1929 146.708 86.3853C145.684 88.3417 145.129 90.4677 144.816 92.6851C144.18 97.1926 145.221 101.343 147.385 105.211C150.058 109.989 153.839 113.626 159.073 115.508C160.742 116.109 162.467 116.753 164.208 116.911C168.389 117.289 172.405 116.539 176.128 114.444C178.903 112.882 181.183 110.792 183.228 108.366C185.6 105.551 186.949 102.271 187.788 98.7654C188.082 97.5365 187.956 96.2073 188.033 94.9246C188.047 94.6842 188.114 94.447 188.157 94.2084C188.438 94.3535 188.872 94.43 188.973 94.6561C189.334 95.4617 189.89 96.3505 189.807 97.1488C189.636 98.7899 189.224 100.435 188.691 102.003C187.307 106.073 184.863 109.468 181.69 112.327C178.738 114.986 175.334 116.844 171.461 117.777C170.15 118.093 168.823 118.455 167.489 118.532C166.253 118.604 164.986 118.387 163.753 118.179C162.109 117.903 160.431 117.672 158.863 117.139C154.533 115.666 150.9 113.163 147.972 109.575C145.632 106.708 144.28 103.45 143.632 99.8781C142.869 95.6749 143.552 91.6025 145.108 87.6706C146.16 85.0101 147.694 82.6524 149.797 80.6873C149.956 80.5386 150.044 80.3132 150.165 80.0209C150.233 79.8841 150.301 79.8499 150.369 79.8157C151.717 79.0467 153.122 79.4524 154.515 79.6143ZM308.853 116.268C310.261 116.283 311.667 116.475 313.075 116.585C314.788 116.719 316.501 116.888 318.217 116.954C319.86 117.017 321.509 116.928 323.151 116.985C323.96 117.013 324.785 117.156 325.555 117.385C325.817 117.463 325.931 117.963 326.113 118.269C325.863 118.344 325.617 118.439 325.362 118.487C325.065 118.542 324.759 118.556 324.405 118.54C320.989 118.429 317.625 118.34 314.261 118.314C312.899 118.303 311.535 118.479 310.172 118.471C309.504 118.467 308.835 118.249 308.171 118.108C307.479 117.961 307.272 117.387 307.53 116.968C307.751 116.607 308.398 116.263 308.853 116.268ZM164.656 82.4549C165.426 86.1263 166.138 89.8103 166.893 93.4851C167.281 95.3717 166.821 96.1548 165.198 97.0708C163.055 98.2811 160.981 99.6293 158.932 101.004C157.906 101.693 157.064 101.933 156.502 101.389C155.971 100.875 155.884 100.422 156.592 99.9402C158.808 98.4317 161.034 96.9336 163.177 95.3203C163.643 94.9691 164.063 94.1305 164.015 93.5597C163.839 91.4751 163.468 89.407 163.147 87.3365C163.013 86.4725 162.821 85.618 162.655 84.6559C162.576 83.8072 162.348 83.0347 162.471 82.3261C162.548 81.882 163.108 81.2756 163.53 81.1996C164.277 81.0647 164.53 81.857 164.656 82.4549ZM305.91 73.8764C306.035 74.007 306.104 74.3627 306.016 74.4925C305.594 75.1153 305.109 75.6961 304.595 76.3432C302.936 78.6042 301.35 80.8292 299.698 83.0052C299.482 83.2901 298.782 83.5616 298.561 83.4271C298 83.0851 298.506 82.7202 298.738 82.3326C300.282 79.7602 301.776 77.1586 303.306 74.5781C304.011 73.3898 305.156 73.0882 305.91 73.8764ZM258.863 40.6341C259.133 40.6567 259.437 40.9829 259.619 41.252C260.288 42.2392 259.936 43.3488 259.803 44.3744C259.571 46.1639 259.15 47.9277 258.823 49.705C258.67 50.535 258.55 51.3713 258.415 52.3075C258.145 53.7005 257.851 54.9861 257.61 56.2819C257.171 58.6354 256.78 60.9979 256.34 63.3511C255.973 65.3141 255.576 67.2717 255.171 69.2271C254.505 72.4376 253.845 75.6494 253.133 78.8494C252.938 79.7274 252.254 80.0562 251.694 79.6361C251.505 79.4944 251.316 79.1314 251.361 78.9212C252.41 74.0263 253.534 69.1478 254.551 64.2465C255.3 60.6429 255.835 56.993 256.615 53.3973C257.358 49.9718 257.741 46.5376 257.631 43.0322C257.612 42.4259 257.897 41.7855 258.143 41.2059C258.255 40.9433 258.632 40.6148 258.863 40.6341ZM203.303 64.9427C203.5 65.2762 203.702 65.6064 203.903 66.0428C204.236 67.8161 204.58 69.4825 204.899 71.1542C205.06 71.9968 205.184 72.8476 205.304 73.6978C205.334 73.909 205.286 74.1323 205.274 74.35C204.98 74.3006 204.505 74.3507 204.422 74.1852C203.993 73.3325 203.608 72.4446 203.317 71.5306C202.985 70.4835 202.846 69.3652 202.471 68.3386C202.265 67.7768 201.706 67.3676 201.381 66.8396C201.1 66.383 200.769 65.8602 200.755 65.3579C200.747 65.0356 201.229 64.4941 201.571 64.4116C202.169 64.2672 202.879 64.2272 203.303 64.9427Z" fill="#00160A"/>
<path d="M135.121 167.268C136.337 166.942 137.217 166.284 137.087 165.798C136.957 165.311 135.866 165.181 134.65 165.507C133.434 165.833 132.554 166.491 132.684 166.977C132.814 167.463 133.906 167.593 135.121 167.268Z" fill="#FF8A65"/>
<path fill-rule="evenodd" clip-rule="evenodd" d="M143.49 163.315C144.358 162.99 144.858 162.332 144.679 161.845C144.511 161.359 143.869 161.229 143.173 161.555C142.408 161.88 141.727 162.539 141.723 163.025C141.73 163.511 142.553 163.641 143.49 163.315Z" fill="#FF8A65"/>
</svg>
