<svg width="350" height="351" viewBox="0 0 350 351" fill="none" xmlns="http://www.w3.org/2000/svg">
<g id="Illustration/Order Placed">
<path id="Blob" fill-rule="evenodd" clip-rule="evenodd" d="M216.724 72.6376C217.272 52.2836 191.512 17.5368 149.311 23.5909C103.106 30.2191 69.5803 83.3094 76.259 142.648L76.5134 144.927C80.6135 181.989 81.9834 211.184 74.8993 252.294C69.6028 283.03 107.267 351.079 190.58 340.314C273.894 329.549 319.657 229.648 280.341 182.51C227.828 119.548 215.524 117.185 216.724 72.6376Z" fill="#A5D6A7"/>
<path id="Path" fill-rule="evenodd" clip-rule="evenodd" d="M167.246 131.979C165.817 128.301 163.109 125.297 160.765 122.122C154.499 113.633 150.612 103.406 149.66 92.8976C149.152 87.2877 151.082 59.9072 161.287 53.4839C156.249 51.9328 151.082 50.3154 146.95 47.0426C142.817 43.7698 139.893 38.4191 141.005 33.2663C142.688 25.4674 152.817 22.1192 160.372 24.6825C167.928 27.2459 173.363 33.7308 178.392 39.9249C183.2 39.5199 184.394 32.4348 188.786 30.4355C191.748 29.0868 195.192 30.4695 198.064 32.0015C206.421 36.4598 214.249 42.5732 218.668 50.9515C223.088 59.3298 223.47 70.2665 217.839 77.8836C219.891 75.5354 224.141 78.4559 223.898 81.5642C223.655 84.6725 220.909 86.9281 218.288 88.616C215.667 90.3038 212.737 92.0537 211.702 94.9944C209.094 102.397 204.952 109.255 199.613 115.008C196.351 118.523 192.606 121.685 190.187 125.825C187.767 129.965 186.959 135.529 189.781 139.406C193.534 135.412 200.001 134.289 204.88 136.784C209.76 139.279 212.635 145.18 211.594 150.561C218.393 151.144 224.501 156.53 225.93 163.202C239.715 177.098 250.975 193.491 258.997 211.345C264.088 222.678 267.87 234.546 271.64 246.384C273.115 251.017 274.608 255.869 273.786 260.66C272.118 270.39 261.562 276.122 251.758 277.274C239.551 278.708 226.831 275.147 217.143 267.584C211.968 283.677 206.802 301.256 212.685 317.104C213.945 320.498 211.425 324.353 208.134 325.861C204.843 327.369 201.055 327.149 197.443 326.898C177.201 325.495 156.958 324.092 136.716 322.689C132.474 322.395 126.674 319.899 128.176 315.921C131.529 307.037 132.487 297.262 130.923 287.896C129.729 294.204 127.66 300.346 124.792 306.09C124.792 306.09 114.688 326.898 104.611 316.219C98.8683 304.615 98.6207 291.026 100.316 278.19C102.011 265.353 105.516 252.792 106.885 239.917C108.219 227.374 107.51 214.682 108.815 202.136C110.119 189.59 113.725 176.742 122.289 167.48C129.064 160.152 135.839 152.825 142.615 145.497C144.439 143.524 146.362 141.484 148.885 140.558C151.407 139.632 154.705 140.221 156.002 142.574C157.601 140.584 159.473 138.44 162.011 138.174C164.55 137.908 167.2 141.018 165.57 142.982C168.491 140.329 168.676 135.658 167.246 131.979Z" fill="white"/>
<path id="Path_2" fill-rule="evenodd" clip-rule="evenodd" d="M221.264 163.202C235.049 177.098 246.308 193.491 254.33 211.345C259.422 222.678 263.203 234.546 266.973 246.384C268.448 251.017 269.941 255.869 269.119 260.66C267.451 270.39 256.896 276.122 247.091 277.274C234.884 278.708 222.948 274.404 213.259 266.841C208.084 282.934 202.135 301.256 208.018 317.104C208.551 318.54 209.942 320.165 209.35 321.554C208.542 323.446 205.366 324.991 203.468 325.861C202.968 326.09 204.302 321.356 204.244 314.407C204.145 302.581 199.187 261.497 210.858 264.211C239.363 270.84 260.854 269.812 261.305 262.74C263.593 226.84 219.834 156.53 221.264 163.202Z" fill="#E7EAEE"/>
<path id="Combined Shape" d="M137.738 33.2661C139.421 25.4672 149.55 22.1188 157.106 24.6821C164.661 27.2455 170.096 33.7312 175.125 39.9253C177.773 39.7022 179.325 37.4522 180.918 35.1421C182.218 33.258 183.546 31.3332 185.519 30.4351C188.481 29.0866 191.926 30.4695 194.797 32.0015C203.155 36.4597 210.983 42.5734 215.402 50.9517C219.821 59.3299 220.203 70.2663 214.573 77.8833C216.624 75.5353 220.874 78.4557 220.631 81.564C220.388 84.6723 217.642 86.9279 215.021 88.6157C214.882 88.7055 214.741 88.7959 214.6 88.8862C212.093 90.4934 209.416 92.2106 208.435 94.9946C205.828 102.397 201.685 109.255 196.346 115.007C195.912 115.475 195.47 115.937 195.023 116.395L193.673 117.764C191.185 120.275 188.696 122.787 186.92 125.825C184.501 129.965 183.692 135.529 186.514 139.406C190.267 135.412 196.735 134.29 201.614 136.785C206.493 139.28 209.369 145.18 208.328 150.56C215.126 151.143 221.234 156.53 222.664 163.202C236.448 177.097 247.708 193.491 255.73 211.344C260.822 222.677 264.603 234.546 268.373 246.384C269.848 251.016 271.341 255.869 270.519 260.661C268.85 270.39 258.296 276.122 248.492 277.274C236.285 278.708 223.565 275.147 213.876 267.583C208.701 283.677 203.535 301.256 209.418 317.104C209.939 318.507 209.814 319.989 209.255 321.351C209.286 321.419 209.319 321.486 209.35 321.553C209.274 321.588 209.198 321.623 209.123 321.657C208.286 323.461 206.696 325.023 204.868 325.861C201.576 327.369 197.788 327.148 194.176 326.898L133.45 322.689C129.208 322.395 123.408 319.899 124.909 315.921C128.262 307.037 129.22 297.262 127.656 287.896C126.462 294.204 124.393 300.346 121.526 306.089C122.702 296.499 125.917 287.162 130.896 278.881C134.44 272.987 132.399 265.486 130.579 258.854C121.96 227.452 120.624 194.076 126.705 162.085C113.726 171.572 108.307 188.407 106.768 204.409C106.124 211.099 106.018 217.836 105.912 224.568C105.764 233.938 105.616 243.301 104.02 252.518C103.291 256.729 102.262 260.892 101.234 265.05C99.6098 271.621 97.9881 278.183 97.5522 284.921C96.8715 295.444 99.115 305.913 101.345 316.219C95.6021 304.615 95.3541 291.026 97.0493 278.19C97.8273 272.299 98.9861 266.465 100.145 260.633C101.511 253.758 102.878 246.883 103.619 239.917C104.29 233.6 104.444 227.245 104.598 220.89C104.75 214.627 104.901 208.364 105.548 202.136C106.853 189.59 110.459 176.742 119.022 167.48L139.348 145.497C141.172 143.524 143.095 141.484 145.618 140.558C148.14 139.632 151.438 140.221 152.736 142.574C154.335 140.584 156.206 138.439 158.745 138.173C161.283 137.907 163.933 141.017 162.303 142.982C165.224 140.329 165.409 135.657 163.98 131.979C162.859 129.095 160.953 126.626 159.052 124.164C158.529 123.485 158.005 122.807 157.499 122.122C151.232 113.633 147.346 103.406 146.394 92.8979C145.886 87.2881 147.815 59.9072 158.02 53.4839C152.982 51.9328 147.815 50.3152 143.683 47.0425C139.551 43.7697 136.626 38.4189 137.738 33.2661ZM129.861 158.927C123.808 180.251 123.236 202.854 125.786 224.873C128.336 246.891 133.937 268.438 140.075 289.738C137.493 285.321 135.606 280.497 134.507 275.5C131.506 279.797 128.356 284.694 129.212 289.865C130.651 298.549 129.733 307.611 126.584 315.831C125.866 317.705 127.157 319.868 128.925 320.819C130.693 321.77 132.791 321.816 134.798 321.841L161.521 322.173C160.784 321.238 161.051 319.685 162.057 319.048C161.788 321.953 165.512 323.32 168.403 323.713C182.058 325.571 196.573 327.312 209.123 321.657C209.169 321.556 209.213 321.454 209.255 321.351C205.424 313.027 204.723 303.525 205.748 294.415C206.781 285.23 209.482 276.327 212.169 267.484C212.615 266.017 210.286 265.631 208.767 265.422C206.071 265.053 204.114 262.756 202.428 260.62L195.573 251.934C191.148 246.329 186.046 240.313 178.988 239.227C177.03 238.926 175.05 239.036 173.066 239.146C171.857 239.213 170.647 239.279 169.441 239.253C164.757 239.153 160.113 237.611 156.299 234.89C155.385 234.238 154.457 233.42 154.269 232.312C154.086 231.23 155.063 229.962 156.101 230.238C152.797 229.241 149.65 227.722 146.813 225.756C146.29 225.394 145.756 224.992 145.487 224.416C144.905 223.171 145.868 221.645 147.138 221.12C148.408 220.594 149.847 220.786 151.207 220.987C149.585 220.657 147.911 220.306 146.552 219.362C145.193 218.417 144.219 216.712 144.64 215.111C145.061 213.51 147.267 212.52 148.511 213.612C147.969 211.996 149.145 210.205 150.684 209.472C152.223 208.739 154.006 208.796 155.708 208.89C162.851 209.284 169.973 210.046 177.037 211.172L176.001 196.642C175.959 196.049 175.908 195.428 175.586 194.928C175.175 194.288 174.413 193.984 173.7 193.719C159.322 188.393 144.53 184.181 129.502 181.137L132.869 244.208C132.972 246.142 133.511 248.595 135.421 248.91C147.294 250.864 158.941 254.19 170.055 258.8C171.616 259.448 172.758 257.263 173.045 255.597L175.893 239.09C176.289 246.068 175.29 253.122 172.974 259.716C174.746 260.133 175.771 257.792 176.054 255.995L178.626 239.683C179.064 245.465 178.558 251.318 177.135 256.94C176.808 258.231 176.312 259.658 175.105 260.22C174.083 260.696 172.887 260.387 171.805 260.072L134.198 249.104C133.607 248.932 132.989 248.745 132.55 248.312C131.898 247.668 131.81 246.663 131.759 245.748L128.629 188.877C128.427 185.191 128.628 181.495 128.83 177.808L129.861 158.927ZM153.739 315.55C159.516 315.626 165.28 316.683 170.708 318.662C171.055 318.788 171.434 318.949 171.583 319.286C171.733 319.623 171.422 320.125 171.08 319.988C165.401 317.712 159.268 316.576 153.151 316.668C152.575 316.677 151.941 316.678 151.5 316.307C151.953 315.62 152.915 315.54 153.739 315.55ZM222.712 165.604C222.138 165.279 221.417 164.993 220.846 165.324C220.424 165.569 220.237 166.071 220.083 166.535C215.126 181.493 212.324 197.065 209.539 212.575C209.277 214.035 210.315 215.28 211.304 216.465C211.503 216.704 211.701 216.94 211.885 217.175C212.984 218.578 213.419 221.111 211.759 221.758C209.549 222.62 209.511 225.692 209.863 228.039L210.716 233.731C210.864 234.713 211.541 236.017 212.447 235.609C217.209 233.461 222.014 231.299 227.114 230.165C232.214 229.031 237.698 228.985 242.519 231C247.34 233.016 251.366 237.331 252.148 242.498C251.246 241.548 250.515 240.458 249.783 239.369C249.187 238.481 248.591 237.593 247.902 236.779C243.868 232.015 237.058 230.368 230.853 231.05C224.648 231.733 218.861 234.403 213.202 237.036C219.78 244.673 219.387 257.347 212.348 264.562C221.518 272.537 233.91 276.693 246.034 275.861C251.792 275.465 257.629 273.91 262.188 270.37C266.747 266.83 269.819 261.068 269.131 255.337C268.854 253.03 268.006 250.841 267.165 248.668C267.075 248.439 266.986 248.209 266.898 247.979C264.722 242.319 262.933 236.461 261.147 230.61C257.231 217.782 253.322 204.982 245.356 194.339C244.064 192.613 242.674 190.96 241.286 189.308L241.285 189.307L239.886 187.635C238.495 185.958 237.137 184.257 235.914 182.455C234.856 180.897 233.879 179.247 232.902 177.595C230.133 172.917 227.357 168.228 222.712 165.604ZM209.562 236.377C208.965 236.318 208.161 236.924 208.594 237.339C212.345 240.925 214.858 246.058 214.393 251.226C213.929 256.395 210.029 261.328 204.9 262.115C206.417 263.916 209.312 264.056 211.368 262.908C213.424 261.759 214.747 259.619 215.581 257.417C217.856 251.404 216.941 244.285 213.217 239.044C212.316 237.776 211.111 236.532 209.562 236.377ZM140.446 147.947C135.157 149.9 132.14 155.616 131.21 161.176C130.662 164.454 130.669 167.78 130.675 171.11C130.68 173.429 130.683 175.751 130.5 178.058C146.445 181.18 162.162 185.467 177.483 190.875C178.421 191.207 179.406 191.576 180.032 192.349C180.705 193.181 180.83 194.314 180.929 195.379C181.429 200.767 181.901 206.377 179.974 211.432L179.991 195.678C179.992 194.806 179.842 193.714 179.012 193.447C177.721 193.031 177.115 195.004 177.221 196.357L178.144 208.068C178.27 209.671 178.503 211.477 179.793 212.437L156.612 210.109C154.204 209.867 151.318 209.827 149.91 211.794C150.141 213.677 152.392 214.468 154.25 214.855L169.005 217.931C164.388 218.886 159.535 218.03 155.167 216.255C154.836 216.121 154.506 215.981 154.176 215.841H154.174L154.173 215.84H154.172C152.789 215.254 151.401 214.665 149.918 214.469C148.081 214.227 146.003 214.727 144.936 216.243C151.538 220.609 159.211 223.343 167.086 224.135C167.039 224.99 165.899 225.246 165.045 225.184C163.379 225.063 161.761 224.666 160.154 224.2L158.549 223.718H158.547C157.556 223.416 156.563 223.113 155.562 222.859C152.401 222.057 148.857 221.792 146.051 223.454C152.367 228.605 160.694 230.395 168.679 232.027L155.458 231.746C157.796 235.907 163.043 237.439 167.809 237.692C169.218 237.767 170.641 237.764 172.062 237.762C175.448 237.758 178.831 237.753 182.031 238.783C187.84 240.651 192.047 245.582 195.933 250.287L203.427 259.359C204.449 260.596 206.396 260.733 207.839 260.034C209.283 259.334 210.303 257.986 211.101 256.594C212.688 253.829 213.632 250.583 213.12 247.436C212.607 244.29 210.436 241.317 207.377 240.419C202.123 238.879 198.392 234.208 195.813 229.377C194.928 227.719 194.132 226.007 193.337 224.297C191.817 221.026 190.298 217.759 188.155 214.871C187.512 214.005 186.812 213.17 186.113 212.335C184.383 210.273 182.655 208.212 181.799 205.688C186.201 209.948 189.938 214.894 192.831 220.293C193.144 220.879 193.49 221.511 194.096 221.783C194.484 221.957 194.926 221.956 195.351 221.952L206.715 221.843C207.852 221.832 209.042 221.808 210.038 221.259C211.033 220.71 211.736 219.453 211.276 218.414C210.839 217.427 209.579 217.072 208.509 217.211C207.889 217.292 207.297 217.495 206.704 217.698C206.273 217.845 205.841 217.993 205.399 218.094C203.196 218.598 200.948 217.933 198.711 217.273C196.291 216.558 193.884 215.847 191.565 216.627C193.065 214.144 192.967 211.073 192.873 208.156L192.863 207.854L192.858 207.7C192.382 192.206 195.819 176.606 202.764 162.748C200.201 164.581 198.361 167.4 197.714 170.485C197.638 170.851 197.575 171.224 197.514 171.595C197.357 172.55 197.199 173.505 196.778 174.37C195.07 177.874 190.246 178.133 186.364 177.783C183.182 177.496 179.847 177.078 177.255 175.209C175.955 174.272 174.908 173.014 173.868 171.763C172.482 170.098 171.107 168.445 169.158 167.578C165.925 166.139 162.469 167.337 158.973 168.55C155.815 169.646 152.623 170.753 149.532 169.938C147.79 169.479 146.586 171.618 146.063 173.341L143.785 180.852C142.722 176.747 144.021 172.115 147.062 169.16C145.759 168.305 146.11 166.552 146.458 164.815C146.809 163.056 147.157 161.315 145.78 160.544C141.623 158.219 140.801 152.696 140.446 147.947ZM206.592 223.367C203.374 223.094 200.132 223.088 196.913 223.348L197.555 226.154C197.654 226.585 197.744 227.074 197.5 227.444C197.257 227.813 196.54 227.809 196.478 227.371L196.007 224.014C195.983 223.843 195.956 223.662 195.846 223.529C195.567 223.191 194.957 223.434 194.809 223.846C194.661 224.259 194.818 224.713 194.981 225.12C197.67 231.837 202.704 238.021 209.609 240.184C209.391 239.64 208.974 239.223 208.555 238.804C208.326 238.575 208.096 238.345 207.898 238.093C207.338 237.382 207.118 236.181 207.873 235.68C208.106 235.525 208.405 235.457 208.697 235.391C209.144 235.29 209.575 235.192 209.726 234.79C208.751 231.507 208.103 228.126 207.795 224.715C207.758 224.3 207.697 223.833 207.364 223.583C207.147 223.42 206.862 223.39 206.592 223.367ZM210.126 152.669C208.681 152.819 207.492 154.739 208.519 155.767C209.341 156.59 209.582 157.936 209.098 158.994C208.614 160.051 207.437 160.747 206.277 160.663C205.528 160.608 205.016 161.38 204.683 162.053C196.895 177.791 193.29 195.575 194.333 213.103C194.364 213.617 194.421 214.182 194.792 214.539C195.051 214.788 195.417 214.887 195.766 214.976L200.904 216.291C202.34 216.658 203.831 217.028 205.291 216.764C206.75 216.5 208.173 215.413 208.325 213.938C210.198 195.736 214.39 177.773 220.768 160.623C221.064 159.827 220.304 159.061 219.627 158.548L214.043 154.321C212.885 153.444 211.572 152.52 210.126 152.669ZM206.412 212.81C206.714 212.801 207.018 212.911 207.246 213.11C207.804 213.6 207.731 214.626 207.108 215.032C206.485 215.437 205.517 215.089 205.294 214.38C205.072 213.671 205.669 212.833 206.412 212.81ZM196.059 210.605C196.718 210.392 197.511 210.847 197.658 211.524C197.805 212.201 197.272 212.945 196.584 213.024C196.272 213.06 195.946 212.971 195.695 212.782C195.525 212.654 195.388 212.482 195.302 212.287C195.025 211.652 195.4 210.818 196.059 210.605ZM132.707 179.505C131.608 179.333 130.296 179.263 129.583 180.116C140.745 181.665 151.497 185.149 162.24 188.628C165.551 189.701 168.862 190.774 172.184 191.79C174.063 192.364 175.973 192.924 177.936 192.996C173.797 190.611 169.155 189.266 164.565 187.942L149.483 183.593C143.949 181.997 138.397 180.397 132.707 179.505ZM195.495 145.383C191.523 145.726 187.898 147.497 184.271 149.269C180.772 150.978 177.27 152.689 173.449 153.123C175.745 154.68 176.828 157.666 176.517 160.423C176.206 163.18 174.662 165.691 172.655 167.607C174.373 170.898 177.211 173.591 180.587 175.134C181.777 175.678 183.14 176.084 184.379 175.665C184.65 175.573 184.939 175.451 185.232 175.327C186.302 174.873 187.435 174.392 187.972 175.284C188.979 176.955 191.55 176.572 193.217 175.558C194.356 174.865 195.415 173.927 195.884 172.679C196.353 171.431 196.076 169.837 194.98 169.079C194.069 168.448 193.763 167.088 194.316 166.128C194.869 165.169 196.199 164.752 197.201 165.223C198.075 165.635 198.895 164.608 199.417 163.794C200.647 161.879 202.459 160.344 204.549 159.444C203.712 158.213 203.83 156.418 204.821 155.307C202.262 153.437 200.209 150.882 198.935 147.98C198.725 149.709 196.35 150.718 194.96 149.669C193.57 148.621 193.89 146.059 195.495 145.383ZM174.73 166.519C175.233 165.17 177.168 164.621 178.304 165.505C179.441 166.389 179.385 168.399 178.202 169.219C177.018 170.039 175.117 169.385 174.689 168.01C174.538 167.527 174.553 166.993 174.73 166.519ZM150.108 143.168C149.219 141.434 146.845 140.652 145.099 141.517C142.619 142.746 142.273 146.08 142.259 148.848C142.256 149.5 142.44 150.366 143.091 150.403C144.756 150.497 145.543 153.082 144.214 154.089C142.913 155.076 143.843 157.213 145.137 158.208C145.419 158.425 145.721 158.633 146.025 158.842C147.114 159.592 148.223 160.355 148.507 161.6C148.719 162.527 148.406 163.509 148.101 164.468C147.719 165.668 147.349 166.832 148.028 167.807C148.859 169.001 150.633 168.885 152.063 168.617C156.537 167.778 160.972 166.727 165.346 165.469C162.704 163.309 161.427 159.607 162.176 156.278C162.367 155.432 161.488 154.777 160.777 154.28C160.066 153.783 159.362 152.814 159.911 152.142C160.206 151.78 159.803 151.274 159.434 150.988L152.331 145.481C151.478 144.82 150.6 144.128 150.108 143.168ZM168.304 152.18C167.279 152.034 166.124 152.138 165.39 152.869C163.777 154.474 163.14 156.922 163.518 159.167C163.896 161.411 165.214 163.436 166.951 164.907C168.249 166.006 170.08 166.837 171.622 166.118C172.08 165.903 172.473 165.567 172.822 165.201C174.773 163.152 175.458 159.986 174.531 157.313C173.603 154.64 171.105 152.581 168.304 152.18ZM149.824 162.053C150.004 160.708 151.579 159.745 152.859 160.197C153.958 160.585 154.627 161.907 154.29 163.022C154.023 163.902 153.18 164.577 152.262 164.644C150.908 164.743 149.643 163.399 149.824 162.053ZM184.974 155.913C185.822 155.096 187.316 155.084 188.175 155.888C189.093 156.747 189.105 158.387 188.201 159.259C187.296 160.132 185.657 160.06 184.833 159.111C184.061 158.222 184.127 156.729 184.974 155.913ZM183.521 128.044C181.386 129.708 179.223 131.39 176.744 132.476C174.264 133.562 171.394 134.006 168.838 133.116C167.973 132.814 166.584 132.681 166.55 133.597C166.381 138.184 164.664 142.7 161.743 146.241C160.977 145.658 160.874 144.547 160.99 143.592C161.014 143.387 161.046 143.181 161.078 142.974C161.193 142.218 161.31 141.456 161.095 140.732C160.821 139.81 159.699 139.058 158.892 139.582L153.086 143.352C155.859 146.719 159.471 149.39 163.502 151.056C164.089 151.298 164.807 151.506 165.316 151.126C166.686 150.105 168.376 150.67 170.109 151.25C171.631 151.76 173.187 152.281 174.59 151.748C179.154 150.012 183.634 148.058 188.01 145.892C190.507 144.656 193.277 143.314 195.962 144.056C198.424 144.737 200.077 146.978 201.535 149.075L204.595 153.477C205.25 154.419 206.89 153.903 207.357 152.855C207.823 151.807 207.505 150.594 207.181 149.494L205.687 144.417C205.204 142.777 204.7 141.094 203.646 139.75C201.507 137.021 197.513 136.334 194.157 137.204C190.8 138.073 187.933 140.206 185.194 142.332L184.945 142.525C182.286 144.59 179.571 146.699 176.373 147.736C175.99 147.569 176.303 146.994 176.636 146.744L185.076 140.407C183.441 136.532 182.896 132.203 183.521 128.044ZM160.008 54.7251C159.627 54.6092 159.214 54.4943 158.837 54.6245C158.466 54.7528 158.214 55.0906 157.99 55.4126C151.451 64.7812 147.957 76.2008 147.906 87.6255C147.855 99.0502 151.215 110.438 157.267 120.128C159.411 123.561 161.918 126.821 165.086 129.338C166.608 130.547 168.323 131.596 170.236 131.938C173.888 132.591 177.461 130.587 180.466 128.413C195.269 117.701 205.034 101.32 211.872 84.3765L208.169 88.0581C207.409 88.8146 206.567 89.6121 205.503 89.7505C204.44 89.8886 203.205 88.9619 203.481 87.9253C204.681 83.4117 204.893 78.6378 204.098 74.0356C203.712 71.8012 202.827 69.3018 200.704 68.5073C187.287 63.4885 173.713 58.8911 160.008 54.7251ZM188.291 92.4692C189.859 90.7783 192.931 89.9707 194.309 91.8198C194.655 92.2841 194.836 92.8522 194.937 93.4224C195.267 95.2887 194.789 97.2069 194.112 98.9771C191.195 106.599 184.308 112.572 176.35 114.381C173.148 115.11 169.615 115.153 166.765 113.521C163.915 111.889 162.084 108.217 163.333 105.18C164.8 101.616 169.341 100.616 173.195 100.535C173.532 100.528 173.874 100.523 174.217 100.518C177.793 100.465 181.612 100.408 184.2 98.0269C185.121 97.1796 185.785 96.1135 186.451 95.0454C187.012 94.1451 187.573 93.2427 188.291 92.4692ZM191.969 92.3335C191.392 92.2482 190.816 92.5066 190.336 92.8394C189.143 93.6672 188.378 94.9144 187.609 96.1685C186.999 97.1637 186.385 98.1636 185.553 98.9614C183.381 101.045 180.13 101.414 177.131 101.673L171.367 102.172C169.897 102.3 168.374 102.444 167.094 103.179C164.691 104.56 163.858 108.09 165.39 110.4C167.047 112.898 170.501 113.44 173.484 113.152C182.68 112.262 190.961 105.205 193.299 96.2671C193.697 94.7481 193.522 92.563 191.969 92.3335ZM156.405 99.3325C156.572 101.897 156.65 104.468 156.638 107.039C155.504 106.207 155.377 104.582 155.433 103.176C155.475 102.129 155.56 101.084 155.688 100.044C155.732 99.6841 156.044 99.3745 156.405 99.3325ZM194.537 87.9126C194.747 87.748 195.046 87.7643 195.305 87.8276C196.726 88.1749 197.605 89.5697 198.255 90.8804C198.427 91.2271 198.596 91.6317 198.445 91.9878C198.293 92.3436 197.655 92.42 197.572 92.0425C197.231 90.4833 196.059 89.131 194.565 88.5708C194.315 88.4771 194.326 88.0772 194.537 87.9126ZM176.259 79.4673C176.205 80.7309 175.568 81.9482 174.591 82.7524C173.896 83.3253 173.047 83.6944 172.373 84.2925C171.699 84.8905 171.212 85.8581 171.56 86.689C171.991 87.7152 173.374 87.9091 174.469 87.7114C174.859 87.6411 175.262 87.5415 175.644 87.646C176.026 87.7506 176.362 88.1532 176.231 88.5269C176.139 88.7892 175.864 88.9353 175.605 89.0366C174 89.6643 171.997 89.4307 170.806 88.1851C169.616 86.9394 169.586 84.6591 170.946 83.6011C172.717 82.2232 174.488 80.8451 176.259 79.4673ZM204.169 70.0278C203.92 70.3047 204.1 70.7385 204.274 71.0679C206.776 75.8022 206.069 81.5174 205.307 86.8179C205.226 87.3811 205.145 87.9508 205.201 88.5171C206.827 87.2307 208.464 85.9337 209.817 84.3628C211.17 82.7918 212.239 80.9112 212.528 78.8579C212.576 78.5185 212.602 78.1734 212.629 77.8286C212.694 77.0121 212.758 76.1963 213.096 75.4585C213.386 74.8265 212.649 74.2281 212.026 73.9194L204.169 70.0278ZM218.35 78.9937C217.446 78.2657 216.027 78.5205 215.164 79.2964C214.3 80.0723 213.887 81.2304 213.639 82.3647C213.566 82.6978 213.505 83.0343 213.443 83.3706C213.294 84.1794 213.145 84.9881 212.843 85.7505C212.794 85.8754 212.74 86.0015 212.686 86.1284C212.414 86.7658 212.133 87.4254 212.335 88.0688C215.593 87.8596 218.54 85.2354 219.124 82.0239C219.319 80.9461 219.203 79.6805 218.35 78.9937ZM187.887 72.5601C188.703 72.0138 189.754 71.7111 190.677 72.0454C191.809 72.4553 192.43 73.6895 192.645 74.8735C192.952 76.5681 192.583 78.4677 191.335 79.6548C190.088 80.8418 187.883 81.0317 186.678 79.8013C186.269 79.383 185.998 78.8435 185.831 78.2827C185.209 76.2036 186.084 73.7677 187.887 72.5601ZM157.656 26.6714C154.534 25.3201 150.924 24.8278 147.711 25.9458C149.159 26.0192 150.293 27.6679 149.843 29.0454C149.394 30.423 147.504 31.0853 146.292 30.2905C145.081 29.4956 144.937 27.4999 146.021 26.5386C142.736 27.5112 139.975 30.1099 138.805 33.3306C138.575 33.9655 138.403 34.6674 138.614 35.3091C138.733 35.6709 138.966 35.9924 139.197 36.3101C139.523 36.7589 139.843 37.2009 139.829 37.7388C139.71 42.0443 143.925 45.9421 148.208 45.4878C149.047 45.3989 149.385 46.2362 149.736 47.104C149.903 47.518 150.074 47.9389 150.302 48.27C150.711 48.8617 151.394 49.1916 152.048 49.4907C158.696 52.5315 165.575 55.0674 172.606 57.0688C173.421 57.3008 174.536 57.397 174.881 56.6235C175.345 55.5856 176.693 55.0471 177.745 55.479C178.796 55.911 179.376 57.2412 178.976 58.3052C178.797 58.782 179.384 59.1691 179.863 59.3423L203.815 68.0015C203.373 66.229 205.625 64.4678 207.239 65.3228C208.853 66.178 208.661 69.0306 206.946 69.6606L215.7 74.0747L217.272 61.228C217.345 60.6279 217.105 59.7351 216.525 59.9067C215.451 60.2246 214.185 59.6173 213.761 58.5806C213.337 57.5439 213.814 56.2237 214.803 55.6978C215.564 55.293 215.849 54.2953 215.68 53.4497C215.512 52.6042 214.991 51.8769 214.471 51.189C208.849 43.747 201.727 37.4114 193.559 32.9087C191.37 31.702 188.717 30.6143 186.455 31.6772C185.145 32.2928 184.264 33.5047 183.403 34.689C183.266 34.8773 183.129 35.065 182.992 35.2495C181.269 37.5585 179.138 39.5619 176.727 41.1382L184.359 48.9028C183.728 47.5402 184.688 45.7041 186.167 45.4458C187.647 45.1876 189.173 46.5895 189.041 48.0854C188.908 49.5812 187.161 50.6936 185.75 50.1802C188.936 52.755 192.464 55.4579 196.561 55.4946C198.178 55.509 199.306 57.6717 198.392 59.0054C197.478 60.3389 195.055 60.0681 194.458 58.5659C193.787 56.8812 192.059 55.9667 190.429 55.104L190.428 55.103L190.423 55.1011L190.421 55.1001L190.418 55.0981C190.249 55.0085 190.081 54.919 189.915 54.8296C184.436 51.8785 180.223 47.1931 176.032 42.5298C174.932 41.3063 173.834 40.0836 172.714 38.895C170.588 36.6371 168.357 34.4766 166.033 32.4233C163.483 30.1714 160.778 28.0227 157.656 26.6714ZM165.203 65.731C165.661 65.6981 166.147 65.743 166.533 65.9937C167.087 66.3537 167.312 67.0466 167.435 67.6958C167.743 69.3245 167.599 71.1425 166.556 72.4312C165.514 73.7197 163.397 74.1858 162.159 73.0845C161.773 72.7411 161.501 72.2827 161.319 71.7993C160.827 70.4958 160.987 68.964 161.738 67.7905C162.489 66.6171 163.813 65.8305 165.203 65.731ZM206.084 45.4497C207.307 45.3891 208.479 46.4255 208.569 47.646C208.664 48.9409 207.507 50.1893 206.208 50.1929C204.985 50.1962 203.862 49.1059 203.83 47.8823C203.797 46.6587 204.862 45.5106 206.084 45.4497ZM166.019 45.6792C167.292 45.0492 169.049 45.8655 169.389 47.2446C169.563 47.9512 169.391 48.7351 168.936 49.3032C168.048 50.4124 166.111 50.4147 165.22 49.3081C164.33 48.2015 164.746 46.3094 166.019 45.6792ZM155.212 37.1304C155.664 35.9823 157.13 35.3579 158.271 35.8276C159.167 36.1967 159.775 37.172 159.71 38.1392C159.614 39.5844 157.92 40.6769 156.564 40.1685C155.409 39.7352 154.761 38.2785 155.212 37.1304ZM195.442 35.8159C196.578 35.3164 198.074 35.9643 198.487 37.1353C198.862 38.1989 198.296 39.5045 197.263 39.9585C196.231 40.4124 194.887 39.9468 194.356 38.9517C193.772 37.8559 194.305 36.3157 195.442 35.8159Z" fill="#00160A"/>
</g>
</svg>
