<svg width="350" height="350" viewBox="0 0 350 350" fill="none" xmlns="http://www.w3.org/2000/svg">
<path d="M116.991 153.02C116.34 153.174 115.682 153.314 115.031 153.475C95.431 158.004 77.105 164.843 61.25 173.992C-1.51203 210.231 -1.51203 268.982 61.25 305.214C124.012 341.446 225.75 341.453 288.54 305.214C304.388 296.1 316.232 285.488 324.1 274.197C324.366 273.819 324.625 273.434 324.877 273.056L116.991 153.02Z" fill="#F5F5F5"/>
<path d="M326.662 275.583C326.542 275.583 326.424 275.551 326.319 275.492L108.29 149.583C108.168 149.475 108.088 149.328 108.063 149.168C108.037 149.007 108.069 148.843 108.152 148.703C108.235 148.563 108.364 148.456 108.516 148.401C108.669 148.346 108.837 148.345 108.99 148.4L327.005 274.309C327.158 274.402 327.27 274.551 327.317 274.724C327.364 274.897 327.342 275.082 327.257 275.24C327.196 275.344 327.109 275.429 327.004 275.489C326.9 275.55 326.782 275.582 326.662 275.583Z" fill="#E0E0E0"/>
<path d="M236.25 225.071L236.67 224.826V180.173L198.002 157.85L197.582 158.088L236.25 180.418V225.071Z" fill="#8E7CC3"/>
<path d="M236.67 224.826C236.952 224.664 237.186 224.431 237.348 224.149C237.51 223.867 237.595 223.548 237.594 223.223V180.6C237.593 180.3 237.513 180.005 237.364 179.745C237.214 179.485 236.999 179.268 236.74 179.116L199.85 157.85C199.57 157.685 199.251 157.598 198.926 157.598C198.601 157.598 198.282 157.685 198.002 157.85L236.67 180.173V224.826Z" fill="#FFCCBC"/>
<path d="M236.67 180.173V224.826C236.952 224.664 237.186 224.431 237.348 224.149C237.51 223.867 237.595 223.548 237.594 223.223V180.6C237.594 180.3 237.514 180.005 237.363 179.746L236.67 180.173Z" fill="#FFCCBC"/>
<path d="M197.582 158.088L236.25 180.418V225.071L197.582 202.741V158.088Z" fill="#8E7CC3"/>
<path opacity="0.75" d="M197.582 158.088L236.25 180.418V225.071L197.582 202.741V158.088Z" fill="#A5D6A7"/>
<path d="M236.25 178.864L236.67 178.619V133.966L198.002 111.643L197.582 111.888L236.25 134.211V178.864Z" fill="#8E7CC3"/>
<path d="M236.67 178.619C236.951 178.458 237.184 178.225 237.346 177.945C237.508 177.665 237.594 177.347 237.594 177.023V134.4C237.594 134.101 237.514 133.806 237.365 133.547C237.215 133.288 236.999 133.073 236.74 132.923L199.85 111.622C199.569 111.461 199.25 111.376 198.926 111.376C198.602 111.376 198.283 111.461 198.002 111.622L236.67 133.945V178.619Z" fill="#FFCCBC"/>
<path d="M236.67 133.966V178.619C236.951 178.458 237.184 178.225 237.346 177.945C237.508 177.665 237.594 177.347 237.594 177.023V134.4C237.592 134.1 237.512 133.806 237.363 133.546L236.67 133.966Z" fill="#FFCCBC"/>
<path d="M197.582 111.888L236.25 134.211V178.864L197.582 156.534V111.888Z" fill="#8E7CC3"/>
<path opacity="0.75" d="M197.582 111.888L236.25 134.211V178.864L197.582 156.534V111.888Z" fill="#5E548E"/>
<path d="M237.594 133.434L198.926 111.111L198.002 111.643L236.67 133.966V178.619L236.25 178.864L198.002 156.779V157.85L236.67 180.173V224.826L237.594 224.259V133.434Z" fill="#333333"/>
<path d="M276.262 248.171L276.682 247.926V203.273L238.014 180.95L237.594 181.195L276.262 203.518V248.171Z" fill="#8E7CC3"/>
<path d="M276.682 247.926C276.963 247.765 277.196 247.532 277.358 247.252C277.52 246.972 277.606 246.654 277.606 246.33V203.7C277.607 203.4 277.528 203.106 277.378 202.846C277.228 202.587 277.012 202.372 276.752 202.223L239.862 180.922C239.581 180.761 239.262 180.676 238.938 180.676C238.614 180.676 238.295 180.761 238.014 180.922L276.682 203.245V247.926Z" fill="#FFCCBC"/>
<path d="M276.682 203.273V247.926C276.963 247.765 277.196 247.532 277.358 247.252C277.52 246.972 277.606 246.654 277.606 246.33V203.7C277.606 203.401 277.529 203.107 277.382 202.846L276.682 203.273Z" fill="#FFCCBC"/>
<path d="M237.594 181.195L276.262 203.518V248.171L237.594 225.841V181.195Z" fill="#8E7CC3"/>
<path opacity="0.75" d="M237.594 181.195L276.262 203.518V248.171L237.594 225.841V181.195Z" fill="#DDF5E5"/>
<path d="M276.262 201.964L276.682 201.726V157.073L238.014 134.743L237.594 134.988L276.262 157.311V201.964Z" fill="#8E7CC3"/>
<path d="M276.682 201.726C276.963 201.564 277.197 201.33 277.359 201.048C277.521 200.767 277.606 200.448 277.606 200.123V157.5C277.607 157.199 277.528 156.904 277.378 156.643C277.228 156.383 277.012 156.166 276.752 156.016L239.862 134.715C239.581 134.554 239.262 134.469 238.938 134.469C238.614 134.469 238.295 134.554 238.014 134.715L276.682 157.045V201.726Z" fill="#FFCCBC"/>
<path d="M276.682 157.073V201.726C276.963 201.564 277.197 201.33 277.359 201.049C277.521 200.767 277.606 200.448 277.606 200.123V157.5C277.607 157.198 277.53 156.902 277.382 156.639L276.682 157.073Z" fill="#FFCCBC"/>
<path d="M237.594 134.988L276.262 157.311V201.964L237.594 179.641V134.988Z" fill="#8E7CC3"/>
<path opacity="0.75" d="M237.594 134.988L276.262 157.311V201.964L237.594 179.641V134.988Z" fill="#FFCCBC"/>
<path d="M276.262 155.764L276.682 155.519V110.866L238.014 88.543L237.594 88.781L276.262 111.111V155.764Z" fill="#8E7CC3"/>
<path d="M276.682 155.519C276.964 155.357 277.198 155.124 277.36 154.842C277.522 154.56 277.607 154.241 277.606 153.916V111.3C277.606 111 277.527 110.704 277.377 110.444C277.227 110.183 277.012 109.967 276.752 109.816L239.862 88.522C239.582 88.357 239.263 88.27 238.938 88.27C238.613 88.27 238.294 88.357 238.014 88.522L276.682 110.845V155.519Z" fill="#FFCCBC"/>
<path d="M276.682 110.866V155.519C276.964 155.357 277.198 155.124 277.36 154.842C277.522 154.56 277.607 154.241 277.606 153.916V111.3C277.608 111.001 277.531 110.706 277.382 110.446L276.682 110.866Z" fill="#FFCCBC"/>
<path d="M237.594 88.781L276.262 111.111V155.764L237.594 133.434V88.781Z" fill="#8E7CC3"/>
<path opacity="0.75" d="M237.594 88.781L276.262 111.111V155.764L237.594 133.434V88.781Z" fill="#D1C4E9"/>
<path d="M276.262 109.557L276.682 109.312V64.659L238.014 42.336L237.594 42.574L276.262 64.904V109.557Z" fill="#8E7CC3"/>
<path d="M276.682 109.312C276.963 109.151 277.196 108.918 277.358 108.638C277.52 108.358 277.606 108.04 277.606 107.716V65.1C277.607 64.8003 277.528 64.5056 277.378 64.2461C277.228 63.9867 277.012 63.7716 276.752 63.623L239.862 42.322C239.581 42.1605 239.262 42.0755 238.938 42.0755C238.614 42.0755 238.295 42.1605 238.014 42.322L276.682 64.645V109.312Z" fill="#FFCCBC"/>
<path d="M276.682 64.659V109.312C276.963 109.151 277.196 108.918 277.358 108.638C277.52 108.358 277.606 108.04 277.606 107.716V65.1C277.606 64.8007 277.529 64.5065 277.382 64.246L276.682 64.659Z" fill="#FFCCBC"/>
<path d="M237.594 42.574L276.262 64.904V109.557L237.594 87.227V42.574Z" fill="#8E7CC3"/>
<path opacity="0.75" d="M237.594 42.574L276.262 64.904V109.557L237.594 87.227V42.574Z" fill="#8E7CC3"/>
<path d="M238.014 41.265V42.336L276.682 64.666V109.312L276.262 109.557L238.014 87.472V88.543L276.682 110.866V155.519L276.262 155.764L237.594 133.441V134.988L238.014 134.743L276.682 157.073V201.726L276.262 201.964L237.594 179.641V181.195L238.014 180.95L276.682 203.273V247.926L277.606 247.359V64.127L238.014 41.265Z" fill="#333333"/>
<path d="M316.281 271.271L316.701 271.033V226.38L278.026 204.05L277.606 204.295L316.281 226.618V271.271Z" fill="#8E7CC3"/>
<path d="M316.701 271.033C316.981 270.869 317.213 270.635 317.375 270.354C317.537 270.073 317.623 269.754 317.625 269.43V226.835C317.625 226.534 317.545 226.238 317.394 225.977C317.243 225.716 317.026 225.5 316.764 225.351L279.874 204.05C279.593 203.889 279.274 203.804 278.95 203.804C278.626 203.804 278.307 203.889 278.026 204.05L316.701 226.38V271.033Z" fill="#FFCCBC"/>
<path d="M316.701 226.38V271.033C316.981 270.869 317.213 270.635 317.375 270.354C317.537 270.073 317.623 269.754 317.625 269.43V226.835C317.624 226.533 317.544 226.236 317.394 225.974L316.701 226.38Z" fill="#FFCCBC"/>
<path d="M277.606 204.295L316.281 226.618V271.271L277.606 248.948V204.295Z" fill="#8E7CC3"/>
<path opacity="0.75" d="M277.606 204.295L316.281 226.618V271.271L277.606 248.948V204.295Z" fill="#FF8A65"/>
<path d="M316.281 225.064L316.701 224.826V180.173L278.026 157.85L277.606 158.088L316.281 180.418V225.064Z" fill="#8E7CC3"/>
<path d="M316.701 224.826C316.982 224.663 317.215 224.429 317.377 224.148C317.539 223.867 317.625 223.548 317.625 223.223V180.6C317.624 180.299 317.543 180.004 317.392 179.743C317.241 179.483 317.025 179.267 316.764 179.116L279.874 157.815C279.593 157.653 279.274 157.568 278.95 157.568C278.626 157.568 278.307 157.653 278.026 157.815L316.701 180.145V224.826Z" fill="#FFCCBC"/>
<path d="M316.701 180.173V224.826C316.982 224.663 317.215 224.429 317.377 224.148C317.539 223.867 317.625 223.548 317.625 223.223V180.6C317.625 180.3 317.545 180.005 317.394 179.746L316.701 180.173Z" fill="#FFCCBC"/>
<path d="M277.606 158.088L316.281 180.418V225.064L277.606 202.741V158.088Z" fill="#8E7CC3"/>
<path opacity="0.75" d="M277.606 158.088L316.281 180.418V225.064L277.606 202.741V158.088Z" fill="#8E7CC3"/>
<path d="M316.281 178.864L316.701 178.619V133.966L278.026 111.643L277.606 111.881L316.281 134.211V178.864Z" fill="#8E7CC3"/>
<path d="M316.701 178.619C316.981 178.457 317.213 178.224 317.375 177.944C317.537 177.664 317.623 177.347 317.625 177.023V134.4C317.625 134.1 317.545 133.805 317.393 133.546C317.242 133.286 317.025 133.071 316.764 132.923L279.874 111.622C279.593 111.461 279.274 111.376 278.95 111.376C278.626 111.376 278.307 111.461 278.026 111.622L316.701 133.945V178.619Z" fill="#FFCCBC"/>
<path d="M316.701 133.966V178.619C316.981 178.457 317.213 178.224 317.375 177.944C317.537 177.664 317.623 177.347 317.625 177.023V134.4C317.623 134.1 317.543 133.806 317.394 133.546L316.701 133.966Z" fill="#FFCCBC"/>
<path d="M277.606 111.881L316.281 134.211V178.864L277.606 156.534V111.881Z" fill="#8E7CC3"/>
<path opacity="0.75" d="M277.606 111.881L316.281 134.211V178.864L277.606 156.534V111.881Z" fill="#FF8A65"/>
<path d="M316.281 132.657L316.701 132.412V87.766L278.026 65.436L277.606 65.681L316.281 88.004V132.657Z" fill="#8E7CC3"/>
<path d="M316.701 132.419C316.981 132.255 317.213 132.021 317.375 131.74C317.537 131.459 317.623 131.14 317.625 130.816V88.2C317.625 87.8997 317.545 87.6049 317.393 87.3455C317.242 87.0861 317.025 86.8713 316.764 86.723L279.874 65.422C279.593 65.2605 279.274 65.1755 278.95 65.1755C278.626 65.1755 278.307 65.2605 278.026 65.422L316.701 87.752V132.419Z" fill="#FFCCBC"/>
<path d="M316.701 87.766V132.419C316.981 132.255 317.213 132.021 317.375 131.74C317.537 131.459 317.623 131.14 317.625 130.816V88.2C317.623 87.9002 317.543 87.6059 317.394 87.346L316.701 87.766Z" fill="#FFCCBC"/>
<path d="M277.606 65.681L316.281 88.004V132.657L277.606 110.334V65.681Z" fill="#8E7CC3"/>
<path opacity="0.75" d="M277.606 65.681L316.281 88.004V132.657L277.606 110.334V65.681Z" fill="#FFCCBC"/>
<path d="M277.606 64.127V65.681L278.026 65.436L316.701 87.766V132.419L316.281 132.657L277.606 110.334V111.881L278.026 111.643L316.701 133.966V178.619L316.281 178.864L277.606 156.534V158.088L278.026 157.85L316.701 180.173V224.826L316.281 225.064L277.606 202.741V204.295L278.026 204.05L316.701 226.38V271.033L317.625 270.459V87.227L277.606 64.127Z" fill="#333333"/>
<path opacity="0.2" d="M236.25 178.864V171.864L230.314 175.434L236.25 178.864ZM237.58 171.031V179.62L254.527 189.42L276.227 176.365V157.311L268.156 152.649L237.58 171.031ZM225.568 172.683L236.236 166.271V158.284L218.785 168.784L225.568 172.683ZM274.211 200.767L276.248 199.542V193.592L269.164 197.848L274.211 200.767ZM267.841 198.667L237.58 216.867V222.824L272.909 201.6L267.841 198.667ZM256.9 237.006L264.67 241.5L276.262 234.5V205.1L239.743 227.052L256.9 237.006ZM197.554 195.118V202.741L215.306 212.989L236.222 200.389V180.418L228.963 176.218L197.554 195.118ZM290.087 72.898L277.578 80.423V106.526L312.221 85.68L290.087 72.898ZM277.578 158.088V175.588L292.411 166.677L277.578 158.088ZM307.041 175.098L277.578 192.801V198.758L312.088 178.01L307.041 175.098ZM211.701 120.036L197.582 128.52V154.7L233.877 132.86L211.701 120.036ZM236.25 223.636V217.7L229.95 221.473L235.004 224.392L236.25 223.636ZM217.483 169.596L197.582 181.573V189.567L224.266 173.516L217.483 169.596ZM256.9 53.739L237.594 42.574V70.266L261.1 56.14L256.9 53.739ZM237.594 181.195V199.612L253.225 190.218L237.594 181.195ZM250.894 96.495L237.594 104.496V130.627L273.063 109.291L256.963 99.974L250.894 96.495ZM313.418 177.247L316.267 175.539V169.589L308.385 174.3L313.418 177.247ZM277.606 147V156.548L293.755 165.872L316.281 152.334V134.211L307.384 129.073L277.606 147ZM303.877 217.91L316.281 210.455V181.055L278.95 203.518L303.877 217.91ZM277.606 133.399V141.4L302.659 126.336L295.855 122.409L277.606 133.399ZM297.171 121.625L303.975 125.552L316.281 118.153V110.131L297.171 121.625ZM316.281 132.657V123.725L308.7 128.282L316.281 132.657ZM316.281 271.257V237.3L287.462 254.625L316.281 271.257ZM277.606 204.288V233.688L302.561 218.694L277.606 204.288ZM276.234 155.743V147.791L269.5 151.858L276.234 155.743ZM264.782 149.1L276.262 142.191V134.211L257.985 145.208L264.782 149.1ZM256.669 145.971L237.594 157.5V165.48L263.494 149.919L256.9 146.153L256.669 145.971ZM256.9 98.392L274.4 108.5L276.283 107.366V81.2L252.245 95.648L256.9 98.392ZM237.594 75.838V87.227L275.485 64.456L265.811 58.856L237.594 75.838Z" fill="white"/>
<path d="M235.13 157.647L236.18 156.849L235.13 154.833C234.941 154.483 234.941 154.084 235.13 153.951C235.319 153.818 235.606 153.951 235.788 154.329L236.845 156.345L237.902 155.547C238.084 155.414 238.378 155.547 238.56 155.932C238.742 156.317 238.742 156.674 238.56 156.814L237.503 157.612L238.56 159.6C238.742 159.95 238.742 160.349 238.56 160.482C238.378 160.615 238.084 160.482 237.902 160.104L236.845 158.088L235.788 158.9C235.606 159.033 235.312 158.865 235.13 158.515C234.948 158.165 234.941 157.787 235.13 157.647Z" fill="#E0E0E0" fill-opacity="0.6"/>
<path d="M275.254 180.754L276.304 179.956L275.254 177.933C275.065 177.583 275.065 177.191 275.254 177.051C275.443 176.911 275.73 177.051 275.912 177.436L276.969 179.452L278.026 178.654C278.208 178.514 278.502 178.689 278.684 179.039C278.866 179.389 278.866 179.781 278.684 179.921L277.627 180.719L278.684 182.735C278.866 183.085 278.866 183.477 278.684 183.617C278.502 183.757 278.208 183.582 278.026 183.239L276.969 181.216L275.912 182C275.73 182.14 275.436 182 275.254 181.622C275.072 181.244 275.1 180.887 275.254 180.754Z" fill="#E0E0E0" fill-opacity="0.6"/>
<path d="M235.361 157.339L236.418 156.541L235.361 154.525C235.179 154.175 235.179 153.783 235.361 153.643C235.543 153.503 235.837 153.643 236.019 154.021L237.076 156.044L238.133 155.246C238.315 155.106 238.616 155.246 238.798 155.624C238.98 156.002 238.98 156.373 238.798 156.506L237.741 157.304L238.798 159.327C238.98 159.67 238.98 160.069 238.798 160.209C238.616 160.349 238.315 160.174 238.133 159.824L237.076 157.808L236.019 158.606C235.837 158.746 235.543 158.571 235.361 158.221C235.179 157.871 235.2 157.5 235.361 157.339Z" fill="#E0E0E0" fill-opacity="0.6"/>
<path d="M275.485 180.446L276.542 179.648L275.485 177.632C275.303 177.282 275.303 176.883 275.485 176.75C275.667 176.617 275.961 176.75 276.143 177.128L277.2 179.144L278.257 178.346C278.439 178.213 278.74 178.381 278.922 178.731C279.104 179.081 279.104 179.473 278.922 179.613L277.9 180.411L278.957 182.427C279.139 182.777 279.139 183.176 278.957 183.309C278.775 183.442 278.474 183.309 278.292 182.931L277.2 180.915L276.143 181.713C275.961 181.846 275.667 181.713 275.485 181.328C275.303 180.943 275.303 180.6 275.485 180.446Z" fill="#E0E0E0" fill-opacity="0.6"/>
<path d="M275.485 133.84L276.542 133.042L275.485 131.026C275.303 130.676 275.303 130.284 275.485 130.144C275.667 130.004 275.961 130.179 276.143 130.522L277.2 132.545L278.257 131.747C278.439 131.607 278.74 131.747 278.922 132.125C279.104 132.503 279.104 132.874 278.922 133.007L277.9 133.805L278.957 135.828C279.139 136.171 279.139 136.57 278.957 136.71C278.775 136.85 278.474 136.675 278.292 136.325L277.2 134.309L276.143 135.1C275.961 135.24 275.667 135.1 275.485 134.715C275.303 134.33 275.303 133.98 275.485 133.84Z" fill="#E0E0E0" fill-opacity="0.6"/>
<path d="M275.485 87.241L276.542 86.443L275.485 84.42C275.303 84.07 275.303 83.678 275.485 83.538C275.667 83.398 275.961 83.538 276.143 83.923L277.2 85.939L278.257 85.141C278.439 85.001 278.74 85.176 278.922 85.526C279.104 85.876 279.104 86.268 278.922 86.408L277.9 87.206L278.957 89.222C279.139 89.572 279.139 89.964 278.957 90.104C278.775 90.244 278.474 90.069 278.292 89.719L277.2 87.703L276.143 88.501C275.961 88.641 275.667 88.501 275.485 88.123C275.303 87.745 275.303 87.374 275.485 87.241Z" fill="#E0E0E0" fill-opacity="0.6"/>
<path d="M256.284 100.191L257.341 99.393L256.284 97.37C256.102 97.02 256.102 96.628 256.284 96.488C256.466 96.348 256.767 96.488 256.949 96.873L258.006 98.889L259.063 98.091C259.245 97.951 259.539 98.126 259.721 98.476C259.903 98.826 259.903 99.218 259.721 99.358L258.664 100.156L259.7 102.2C259.882 102.55 259.882 102.942 259.7 103.082C259.518 103.222 259.224 103.047 259.042 102.704L257.985 100.681L256.928 101.479C256.746 101.619 256.445 101.479 256.263 101.101C256.081 100.723 256.102 100.324 256.284 100.191Z" fill="#E0E0E0" fill-opacity="0.6"/>
<path d="M256.284 146.412L257.341 145.614L256.284 143.598C256.102 143.248 256.102 142.856 256.284 142.716C256.466 142.576 256.767 142.751 256.949 143.101L258.006 145.117L259.063 144.319C259.245 144.179 259.539 144.354 259.721 144.697C259.903 145.04 259.903 145.446 259.721 145.586L258.664 146.384L259.7 148.4C259.882 148.75 259.882 149.142 259.7 149.282C259.518 149.422 259.224 149.282 259.042 148.897L257.985 146.881L256.949 147.7C256.767 147.84 256.466 147.665 256.284 147.322C256.102 146.979 256.102 146.552 256.284 146.412Z" fill="#E0E0E0" fill-opacity="0.6"/>
<path d="M256.284 192.64L257.341 191.842L256.284 189.826C256.102 189.476 256.102 189.084 256.284 188.944C256.466 188.804 256.767 188.979 256.949 189.329L258.006 191.345L259.063 190.547C259.245 190.407 259.539 190.547 259.721 190.925C259.903 191.303 259.903 191.674 259.721 191.807L258.664 192.605L259.7 194.6C259.882 194.95 259.882 195.342 259.7 195.482C259.518 195.622 259.224 195.447 259.042 195.097L257.985 193.081L256.949 193.9C256.767 194.04 256.466 193.865 256.284 193.515C256.102 193.165 256.102 192.78 256.284 192.64Z" fill="#E0E0E0" fill-opacity="0.6"/>
<path d="M215.411 168.896L216.461 168.091L215.411 166.075C215.222 165.725 215.222 165.333 215.411 165.193C215.6 165.053 215.887 165.193 216.069 165.578L217.126 167.594L218.183 166.796C218.365 166.656 218.659 166.831 218.841 167.181C219.023 167.531 219.023 167.923 218.841 168.063L217.791 168.861L218.841 170.877C219.023 171.227 219.023 171.619 218.841 171.759C218.659 171.899 218.365 171.724 218.183 171.374L217.126 169.358L216.069 170.156C215.887 170.296 215.593 170.121 215.411 169.778C215.229 169.435 215.222 169.029 215.411 168.896Z" fill="#E0E0E0" fill-opacity="0.6"/>
<path d="M296.1 123.263L297.157 122.465L296.1 120.442C295.918 120.099 295.918 119.7 296.1 119.56C296.282 119.42 296.576 119.56 296.765 119.945L297.815 121.961L298.872 121.163C299.054 121.023 299.355 121.163 299.537 121.548C299.719 121.933 299.719 122.29 299.537 122.43L298.487 123.2L299.544 125.216C299.726 125.566 299.726 125.958 299.544 126.098C299.362 126.238 299.061 126.098 298.879 125.72L297.822 123.697L296.772 124.495C296.583 124.635 296.289 124.495 296.107 124.117C295.925 123.739 295.925 123.396 296.1 123.263Z" fill="#E0E0E0" fill-opacity="0.6"/>
<path d="M296.1 169.491L297.157 168.686L296.1 166.67C295.918 166.32 295.918 165.928 296.1 165.788C296.282 165.648 296.576 165.788 296.765 166.173L297.815 168.189L298.872 167.391C299.054 167.251 299.355 167.426 299.537 167.776C299.719 168.126 299.719 168.518 299.537 168.658L298.48 169.456L299.537 171.472C299.719 171.822 299.719 172.214 299.537 172.354C299.355 172.494 299.054 172.319 298.872 171.969L297.815 169.953L296.765 170.751C296.576 170.891 296.282 170.751 296.1 170.373C295.918 169.995 295.925 169.624 296.1 169.491Z" fill="#E0E0E0" fill-opacity="0.6"/>
<path d="M296.1 215.712L297.157 214.914L296.1 212.898C295.918 212.548 295.918 212.156 296.1 212.016C296.282 211.876 296.576 212.051 296.765 212.401L297.815 214.417L298.872 213.619C299.054 213.479 299.355 213.619 299.537 213.997C299.719 214.375 299.719 214.746 299.537 214.879L298.48 215.684L299.537 217.7C299.719 218.05 299.719 218.442 299.537 218.582C299.355 218.722 299.054 218.547 298.872 218.197L297.815 216.181L296.8 217C296.611 217.14 296.317 216.965 296.135 216.615C295.953 216.265 295.925 215.852 296.1 215.712Z" fill="#E0E0E0" fill-opacity="0.6"/>
<path d="M235.361 204.533L236.418 203.735L235.361 201.719C235.179 201.369 235.179 200.977 235.361 200.837C235.543 200.697 235.837 200.837 236.019 201.222L237.076 203.238L238.133 202.44C238.315 202.3 238.616 202.44 238.798 202.818C238.98 203.196 238.98 203.567 238.798 203.7L237.741 204.498L238.798 206.521C238.98 206.871 238.98 207.263 238.798 207.403C238.616 207.543 238.315 207.368 238.133 207.018L237.076 205.002L236.019 205.8C235.837 205.94 235.543 205.765 235.361 205.415C235.179 205.065 235.2 204.673 235.361 204.533Z" fill="#E0E0E0" fill-opacity="0.6"/>
<path d="M275.485 227.64L276.542 226.842L275.485 224.826C275.303 224.476 275.303 224.077 275.485 223.944C275.667 223.811 275.961 223.944 276.143 224.322L277.2 226.338L278.257 225.54C278.439 225.407 278.74 225.575 278.922 225.925C279.104 226.275 279.104 226.667 278.922 226.807L277.9 227.605L278.957 229.621C279.139 229.971 279.139 230.37 278.957 230.503C278.775 230.636 278.474 230.503 278.292 230.125L277.2 228.109L276.143 228.9C275.961 229.033 275.667 228.865 275.485 228.515C275.303 228.165 275.303 227.78 275.485 227.64Z" fill="#E0E0E0" fill-opacity="0.6"/>
<path d="M165.116 247.226C136.871 263.361 91.084 263.361 62.839 247.226C34.594 231.091 34.594 204.932 62.839 188.797C91.084 172.662 136.871 172.697 165.116 188.797C193.361 204.897 193.361 231.091 165.116 247.226Z" fill="#E0E0E0"/>
<path d="M283.22 285.607L234.99 313.453L186.76 285.614L234.99 257.768L283.22 285.607Z" fill="#E0E0E0"/>
<path d="M196.322 284.382V284.865L234.99 307.195L273.658 284.865V284.382L234.99 306.712L196.322 284.382Z" fill="#8E7CC3"/>
<path d="M196.322 284.9C196.321 285.225 196.406 285.544 196.568 285.826C196.73 286.108 196.964 286.341 197.246 286.503L234.136 307.804C234.396 307.952 234.691 308.03 234.99 308.03C235.289 308.03 235.584 307.952 235.844 307.804L272.734 286.503C273.016 286.341 273.25 286.108 273.412 285.826C273.574 285.544 273.659 285.225 273.658 284.9L234.99 307.23L196.322 284.9Z" fill="#FFCCBC"/>
<path d="M234.99 307.195L196.322 284.9C196.321 285.225 196.406 285.544 196.568 285.826C196.73 286.108 196.964 286.341 197.246 286.503L234.136 307.804C234.395 307.955 234.69 308.035 234.99 308.035V307.195Z" fill="#FFCCBC"/>
<path d="M273.658 284.382L234.99 306.712L196.322 284.382L234.99 262.059L273.658 284.382Z" fill="#8E7CC3"/>
<path opacity="0.7" d="M273.658 284.382L234.99 306.712L196.322 284.382L234.99 262.059L273.658 284.382Z" fill="white"/>
<path opacity="0.4" d="M214.9 273.7L209.762 292.173L219.233 297.64L227.997 266.14L214.9 273.7ZM250.6 271.096L241.773 302.841L256.823 294.147L261.492 277.347L250.6 271.096ZM221.704 299.061L223.678 300.202L234.129 262.598L231.399 264.18L221.704 299.061Z" fill="white"/>
<path d="M196.322 281.68V282.163L234.99 304.493L273.658 282.163V281.68L234.99 304.003L196.322 281.68Z" fill="#8E7CC3"/>
<path d="M196.322 282.163C196.322 282.488 196.408 282.807 196.57 283.088C196.732 283.369 196.965 283.603 197.246 283.766L234.136 305.06C234.395 305.211 234.69 305.291 234.99 305.291C235.29 305.291 235.585 305.211 235.844 305.06L272.734 283.766C273.015 283.603 273.248 283.369 273.41 283.088C273.572 282.807 273.658 282.488 273.658 282.163L234.99 304.5L196.322 282.163Z" fill="#FFCCBC"/>
<path d="M234.99 304.5L196.322 282.177C196.322 282.502 196.408 282.821 196.57 283.102C196.732 283.383 196.965 283.617 197.246 283.78L234.136 305.074C234.395 305.225 234.69 305.305 234.99 305.305V304.5Z" fill="#FFCCBC"/>
<path d="M273.658 281.68L234.99 304.003L196.322 281.68L234.99 259.35L273.658 281.68Z" fill="#8E7CC3"/>
<path opacity="0.7" d="M273.658 281.68L234.99 304.003L196.322 281.68L234.99 259.35L273.658 281.68Z" fill="white"/>
<path opacity="0.4" d="M214.9 270.963L209.762 289.429L219.233 294.903L227.997 263.403L214.9 270.963ZM250.6 268.352L241.773 300.097L256.823 291.41L261.492 274.61L250.6 268.352ZM221.704 296.352L223.678 297.486L234.129 259.889L231.399 261.464L221.704 296.352Z" fill="white"/>
<path d="M196.322 278.971V279.461L234.99 301.784L273.658 279.461V278.971L234.99 301.301L196.322 278.971Z" fill="#8E7CC3"/>
<path d="M196.322 279.461C196.322 279.785 196.408 280.103 196.57 280.383C196.732 280.663 196.965 280.896 197.246 281.057L234.136 302.358C234.396 302.506 234.691 302.584 234.99 302.584C235.289 302.584 235.584 302.506 235.844 302.358L272.734 281.057C273.016 280.895 273.25 280.662 273.412 280.38C273.574 280.098 273.659 279.779 273.658 279.454L234.99 301.784L196.322 279.461Z" fill="#FFCCBC"/>
<path d="M234.99 301.784L196.322 279.461C196.322 279.785 196.408 280.103 196.57 280.383C196.732 280.663 196.965 280.896 197.246 281.057L234.136 302.358C234.395 302.509 234.69 302.589 234.99 302.589V301.784Z" fill="#FFCCBC"/>
<path d="M273.658 278.971L234.99 301.301L196.322 278.971L234.99 256.648L273.658 278.971Z" fill="#8E7CC3"/>
<path opacity="0.7" d="M273.658 278.971L234.99 301.301L196.322 278.971L234.99 256.648L273.658 278.971Z" fill="white"/>
<path opacity="0.4" d="M214.9 268.254L209.762 286.727L219.233 292.194L227.997 260.694L214.9 268.254ZM250.6 265.65L241.773 297.395L256.823 288.701L261.492 271.936L250.6 265.65ZM221.704 293.615L223.678 294.756L234.129 257.152L231.399 258.734L221.704 293.615Z" fill="white"/>
<path d="M196.322 276.269V276.752L234.99 299.075L273.658 276.752V276.269L234.99 298.592L196.322 276.269Z" fill="#8E7CC3"/>
<path d="M196.322 276.752C196.322 277.077 196.408 277.396 196.57 277.677C196.732 277.958 196.965 278.192 197.246 278.355L234.136 299.649C234.395 299.8 234.69 299.88 234.99 299.88C235.29 299.88 235.585 299.8 235.844 299.649L272.734 278.355C273.015 278.192 273.248 277.958 273.41 277.677C273.572 277.396 273.658 277.077 273.658 276.752L234.99 299.075L196.322 276.752Z" fill="#FFCCBC"/>
<path d="M234.99 299.075L196.322 276.752C196.322 277.077 196.408 277.396 196.57 277.677C196.732 277.958 196.965 278.192 197.246 278.355L234.136 299.649C234.395 299.8 234.69 299.88 234.99 299.88V299.075Z" fill="#FFCCBC"/>
<path d="M273.658 276.269L234.99 298.592L196.322 276.269L234.99 253.939L273.658 276.269Z" fill="#8E7CC3"/>
<path opacity="0.7" d="M273.658 276.269L234.99 298.592L196.322 276.269L234.99 253.939L273.658 276.269Z" fill="white"/>
<path opacity="0.4" d="M214.9 265.552L209.762 284.018L219.233 289.492L227.997 257.992L214.9 265.552ZM250.6 262.941L241.752 294.7L256.802 286.013L261.471 269.213L250.6 262.941ZM221.704 290.941L223.678 292.075L234.129 254.478L231.399 256.053L221.704 290.941Z" fill="white"/>
<path d="M196.322 273.56V274.05L234.99 296.373L273.658 274.05V273.56L234.99 295.89L196.322 273.56Z" fill="#8E7CC3"/>
<path d="M196.322 274.05C196.322 274.374 196.408 274.692 196.57 274.972C196.732 275.252 196.965 275.485 197.246 275.646L234.136 296.947C234.396 297.095 234.691 297.173 234.99 297.173C235.289 297.173 235.584 297.095 235.844 296.947L272.734 275.646C273.016 275.484 273.25 275.251 273.412 274.969C273.574 274.687 273.659 274.368 273.658 274.043L234.99 296.373L196.322 274.05Z" fill="#FFCCBC"/>
<path d="M234.99 296.373L196.322 274.05C196.322 274.374 196.408 274.692 196.57 274.972C196.732 275.252 196.965 275.485 197.246 275.646L234.136 296.947C234.395 297.098 234.69 297.178 234.99 297.178V296.373Z" fill="#FFCCBC"/>
<path d="M273.658 273.56L234.99 295.89L196.322 273.56L234.99 251.237L273.658 273.56Z" fill="#8E7CC3"/>
<path opacity="0.85" d="M273.658 273.56L234.99 295.89L196.322 273.56L234.99 251.237L273.658 273.56Z" fill="white"/>
<path opacity="0.4" d="M214.9 262.843L209.762 281.316L219.233 286.783L227.997 255.283L214.9 262.843ZM250.6 260.239L241.773 291.984L256.823 283.29L261.492 266.525L250.6 260.239ZM221.704 288.239L223.678 289.38L234.129 251.776L231.399 253.358L221.704 288.239Z" fill="white"/>
<path d="M196.322 270.858V271.341L234.99 293.664L273.658 271.341V270.858L234.99 293.181L196.322 270.858Z" fill="#8E7CC3"/>
<path d="M196.322 271.341C196.322 271.666 196.408 271.985 196.57 272.266C196.732 272.547 196.965 272.781 197.246 272.944L234.136 294.238C234.395 294.389 234.69 294.469 234.99 294.469C235.29 294.469 235.585 294.389 235.844 294.238L272.734 272.944C273.015 272.781 273.248 272.547 273.41 272.266C273.572 271.985 273.658 271.666 273.658 271.341L234.99 293.664L196.322 271.341Z" fill="#FFCCBC"/>
<path d="M234.99 293.664L196.322 271.341C196.322 271.666 196.408 271.985 196.57 272.266C196.732 272.547 196.965 272.781 197.246 272.944L234.136 294.238C234.395 294.389 234.69 294.469 234.99 294.469V293.664Z" fill="#FFCCBC"/>
<path d="M273.658 270.858L234.99 293.181L196.322 270.858L234.99 248.528L273.658 270.858Z" fill="#8E7CC3"/>
<path opacity="0.85" d="M273.658 270.858L234.99 293.181L196.322 270.858L234.99 248.528L273.658 270.858Z" fill="white"/>
<path opacity="0.4" d="M214.9 260.141L209.748 278.6L219.219 284.074L227.983 252.574L214.9 260.141ZM250.6 257.53L241.773 289.275L256.823 280.588L261.492 263.788L250.6 257.53ZM221.704 285.53L223.678 286.664L234.129 249.067L231.399 250.642L221.704 285.53Z" fill="white"/>
<path d="M196.322 268.149V268.632L234.99 290.962L273.658 268.632V268.149L234.99 290.479L196.322 268.149Z" fill="#8E7CC3"/>
<path d="M196.322 268.639C196.322 268.963 196.408 269.281 196.57 269.561C196.732 269.841 196.965 270.074 197.246 270.235L234.136 291.536C234.395 291.687 234.69 291.767 234.99 291.767C235.29 291.767 235.585 291.687 235.844 291.536L272.734 270.235C273.015 270.074 273.248 269.841 273.41 269.561C273.572 269.281 273.658 268.963 273.658 268.639L234.99 290.962L196.322 268.639Z" fill="#FFCCBC"/>
<path d="M234.99 290.962L196.322 268.639C196.322 268.963 196.408 269.281 196.57 269.561C196.732 269.841 196.965 270.074 197.246 270.235L234.136 291.536C234.395 291.687 234.69 291.767 234.99 291.767V290.962Z" fill="#FFCCBC"/>
<path d="M273.658 268.149L234.99 290.479L196.322 268.149L234.99 245.826L273.658 268.149Z" fill="#8E7CC3"/>
<path opacity="0.85" d="M273.658 268.149L234.99 290.479L196.322 268.149L234.99 245.826L273.658 268.149Z" fill="white"/>
<path opacity="0.4" d="M214.9 257.432L209.762 275.905L219.219 281.4L227.983 249.9L214.9 257.432ZM250.6 254.8L241.773 286.545L256.802 277.9L261.471 261.1L250.6 254.8ZM221.683 282.8L223.657 283.941L234.108 246.337L231.378 247.919L221.683 282.8Z" fill="white"/>
<path d="M196.322 265.447V265.93L234.99 288.26L273.658 265.93V265.447L234.99 287.77L196.322 265.447Z" fill="#8E7CC3"/>
<path d="M196.322 265.93C196.322 266.255 196.408 266.574 196.57 266.855C196.732 267.136 196.965 267.37 197.246 267.533L234.136 288.827C234.395 288.978 234.69 289.058 234.99 289.058C235.29 289.058 235.585 288.978 235.844 288.827L272.734 267.533C273.015 267.37 273.248 267.136 273.41 266.855C273.572 266.574 273.658 266.255 273.658 265.93L234.99 288.26L196.322 265.93Z" fill="#FFCCBC"/>
<path d="M234.99 288.26L196.322 265.93C196.322 266.255 196.408 266.574 196.57 266.855C196.732 267.136 196.965 267.37 197.246 267.533L234.136 288.827C234.395 288.978 234.69 289.058 234.99 289.058V288.26Z" fill="#FFCCBC"/>
<path d="M273.658 265.447L234.99 287.77L196.322 265.447L234.99 243.117L273.658 265.447Z" fill="#8E7CC3"/>
<path opacity="0.85" d="M273.658 265.447L234.99 287.77L196.322 265.447L234.99 243.117L273.658 265.447Z" fill="white"/>
<path opacity="0.4" d="M214.9 254.73L209.762 273.196L219.233 278.67L227.997 247.17L214.9 254.73ZM250.6 252.119L241.773 283.864L256.823 275.177L261.492 258.377L250.6 252.119ZM221.704 280.119L223.678 281.253L234.108 243.6L231.378 245.175L221.704 280.119Z" fill="white"/>
<path d="M196.322 262.738V263.228L234.99 285.551L273.658 263.228V262.738L234.99 285.068L196.322 262.738Z" fill="#8E7CC3"/>
<path d="M196.322 263.2C196.322 263.524 196.408 263.842 196.57 264.122C196.732 264.402 196.965 264.635 197.246 264.796L234.136 286.097C234.395 286.248 234.69 286.328 234.99 286.328C235.29 286.328 235.585 286.248 235.844 286.097L272.734 264.796C273.015 264.635 273.248 264.402 273.41 264.122C273.572 263.842 273.658 263.524 273.658 263.2L234.99 285.551L196.322 263.2Z" fill="#FFCCBC"/>
<path d="M234.99 285.551L196.322 263.2C196.322 263.524 196.408 263.842 196.57 264.122C196.732 264.402 196.965 264.635 197.246 264.796L234.136 286.097C234.395 286.248 234.69 286.328 234.99 286.328V285.551Z" fill="#FFCCBC"/>
<path d="M273.658 262.738L234.99 285.068L196.322 262.738L234.99 240.415L273.658 262.738Z" fill="#8E7CC3"/>
<path opacity="0.85" d="M273.658 262.738L234.99 285.068L196.322 262.738L234.99 240.415L273.658 262.738Z" fill="white"/>
<path opacity="0.4" d="M214.9 252L209.762 270.473L219.233 275.94L227.997 244.44L214.9 252ZM250.6 249.396L241.773 281.141L256.823 272.454L261.492 255.654L250.6 249.396ZM221.704 277.361L223.678 278.502L234.129 240.898L231.399 242.48L221.704 277.361Z" fill="white"/>
<path d="M196.322 260.036V260.519L234.99 282.842L273.658 260.519V260.036L234.99 282.359L196.322 260.036Z" fill="#8E7CC3"/>
<path d="M196.322 260.519C196.322 260.844 196.408 261.163 196.57 261.444C196.732 261.725 196.965 261.959 197.246 262.122L234.136 283.416C234.395 283.567 234.69 283.647 234.99 283.647C235.29 283.647 235.585 283.567 235.844 283.416L272.734 262.122C273.015 261.959 273.248 261.725 273.41 261.444C273.572 261.163 273.658 260.844 273.658 260.519L234.99 282.849L196.322 260.519Z" fill="#FFCCBC"/>
<path d="M234.99 282.849L196.322 260.519C196.322 260.844 196.408 261.163 196.57 261.444C196.732 261.725 196.965 261.959 197.246 262.122L234.136 283.416C234.395 283.567 234.69 283.647 234.99 283.647V282.849Z" fill="#FFCCBC"/>
<path d="M273.658 260.036L234.99 282.359L196.322 260.036L234.99 237.706L273.658 260.036Z" fill="#8E7CC3"/>
<path opacity="0.85" d="M273.658 260.036L234.99 282.359L196.322 260.036L234.99 237.706L273.658 260.036Z" fill="#A5D6A7"/>
<path opacity="0.4" d="M214.9 249.319L209.762 267.792L219.233 273.259L227.997 241.759L214.9 249.319ZM250.6 246.708L241.752 278.46L256.802 269.766L261.471 252.966L250.6 246.708ZM221.704 274.708L223.678 275.842L234.129 238.245L231.399 239.82L221.704 274.708Z" fill="white"/>
<path d="M166.46 117.39C161.945 120.414 154.294 123.389 154.294 123.389C154.294 123.389 148.967 114.016 145.817 108.444C137.83 94.318 136.416 90.685 126.217 89.915L125.517 116.074C125.517 116.074 128.17 120.463 136.479 131.642C138.887 134.883 139.881 136.01 144.326 140.791C147.385 144.088 150.185 145.782 153.195 145.348C155.407 145.033 158.424 143.703 162.449 140.791C167.179 137.382 171.598 133.559 175.651 129.367L166.46 117.39Z" fill="#FFA8A7"/>
<path d="M125.776 89.6C131.698 89.95 134.484 90.412 137.676 93.709C140.868 97.006 144.158 103.124 146.531 107.373C148.904 111.622 152.502 118.699 152.502 118.699C148.84 119.488 145.378 121.02 142.331 123.2C139.421 125.32 137.296 128.346 136.29 131.803L124.901 118.3L125.776 89.6Z" fill="#E0E0E0"/>
<path d="M154.294 123.389C154.294 123.389 149.352 124.929 147.084 132.181C147.084 132.181 146.496 125.79 153.587 122.129L154.294 123.389Z" fill="#FF8A65"/>
<path d="M189.294 119.112C185.64 122.794 182.392 123.627 179.725 125.58C177.583 127.141 176.806 128.324 174.545 130.41C174.545 130.41 165.249 124.425 166.46 117.39C168.483 115.521 170.24 114.506 171.297 112.791C171.997 111.678 171.822 108.262 171.934 107.009C172.116 104.909 173.138 102.872 173.971 100.954C174.538 99.652 174.909 98.273 175.42 96.95C175.588 96.509 175.707 95.879 176.267 95.886C176.612 95.9187 176.94 96.0467 177.216 96.2557C177.491 96.4646 177.704 96.7463 177.828 97.069C178.794 99.169 178.038 101.199 177.982 103.404C177.966 103.486 177.972 103.571 177.997 103.65C178.023 103.73 178.068 103.802 178.129 103.859C178.304 103.978 178.542 103.859 178.71 103.705C180.11 102.564 181.783 101.206 183.54 100.632C183.736 100.565 183.942 100.527 184.149 100.52C185.458 100.555 186.536 102.214 187.117 103.222C187.954 104.7 188.416 106.361 188.461 108.059C188.629 113.603 189.294 119.112 189.294 119.112Z" fill="#FF8A65"/>
<path d="M149.499 112.805C148.099 111.881 143.64 111.342 137.431 116.403C131.222 121.464 130.788 125.79 130.753 126.567C130.676 128.394 133.084 129.92 133.784 130.648C134.484 131.376 135.086 133.224 135.996 133.616C136.621 133.838 137.307 133.813 137.914 133.546L136.773 131.971C136.773 131.971 136.976 128.352 143.262 123.655C149.548 118.958 152.131 119.609 152.131 119.609L152.943 121.009C153.228 120.774 153.427 120.452 153.511 120.093C153.594 119.734 153.557 119.357 153.405 119.021C152.956 118.006 152.359 117.062 151.634 116.221C150.85 115.164 151.669 114.233 149.499 112.805Z" fill="#E0E0E0"/>
<path opacity="0.15" d="M149.499 112.805C148.099 111.881 143.64 111.342 137.431 116.403C131.222 121.464 130.788 125.79 130.753 126.567C130.676 128.394 133.084 129.92 133.784 130.648C134.484 131.376 135.086 133.224 135.996 133.616C136.621 133.838 137.307 133.813 137.914 133.546L136.773 131.971C136.773 131.971 136.976 128.352 143.262 123.655C149.548 118.958 152.131 119.609 152.131 119.609L152.943 121.009C153.228 120.774 153.427 120.452 153.511 120.093C153.594 119.734 153.557 119.357 153.405 119.021C152.956 118.006 152.359 117.062 151.634 116.221C150.85 115.164 151.669 114.233 149.499 112.805Z" fill="#333333"/>
<path d="M136.08 120.666C137.13 108.591 136.08 97.944 127.68 89.369C127.68 89.369 116.62 87.969 111.664 88.375C107.954 88.69 104.048 87.675 98.322 89.544C93.87 90.986 88.193 92.568 81.949 94.941C79.1053 96.7783 76.7951 99.3316 75.2506 102.344C73.706 105.357 72.9816 108.724 73.15 112.105C73.731 123.2 74.081 127.176 74.55 138.075C74.963 148.008 73.591 151.228 71.561 162.799C77.434 174.055 118.461 179.872 134.792 159.334C132.937 154 134.932 133.833 136.08 120.666Z" fill="#F0F0F0"/>
<path d="M99.813 50.666C99.813 50.666 96.313 50.442 94.346 52.913C92.379 55.384 90.846 60.13 92.302 65.8C93.912 72.037 97.72 78.316 98.504 80.108C99.0326 81.2122 99.9647 82.0716 101.108 82.509L101.444 75.089L101.542 69.909C101.542 69.909 105.973 66.409 106.596 62.748C107.394 58.009 105.728 55.174 105.728 55.174L99.813 50.666Z" fill="#333333"/>
<path d="M124.516 61.124C122.442 60.091 120.199 59.4412 117.894 59.206L111.713 58.359L105.098 57.449C105.098 57.449 98.098 55.762 98.448 50.743C98.5666 49.1316 99.1941 47.5996 100.24 46.368C101.361 45.0716 102.691 43.9715 104.174 43.113C107.186 41.3643 110.617 40.4667 114.1 40.516C116.838 40.5935 119.553 41.0288 122.178 41.811C123.97 42.287 125.79 42.84 127.631 42.665C128.954 42.546 130.431 41.874 130.718 40.565C131.349 41.4792 131.699 42.5573 131.726 43.6676C131.754 44.7778 131.457 45.8719 130.872 46.816C131.767 46.8813 132.615 47.2397 133.286 47.8357C133.956 48.4317 134.412 49.232 134.582 50.113C134.967 52.073 133.959 53.557 132.72 54.922C132.874 54.754 133.483 56.224 133.532 56.322C133.881 57.1998 133.94 58.1663 133.7 59.08C133.357 60.361 132.132 61.18 130.9 61.691C129.865 62.0967 128.749 62.2567 127.641 62.1583C126.534 62.0599 125.464 61.7059 124.516 61.124Z" fill="#333333"/>
<path d="M94.5 76.776C98.21 78.918 100.177 76.006 100.177 76.006L98.119 90.909C103.089 102.445 123.179 102.2 118.482 93.009L118.867 88.718C119.983 88.7951 121.103 88.7669 122.213 88.634C127.624 88.053 129.213 84.973 130.319 81.312C132.027 75.614 132.419 67.557 131.019 58.142C130.753 56.322 130.116 54.32 128.534 53.389C124.6 51.1 120.638 53.718 114.8 55.531C112.385 56.28 106.652 56.273 105.196 55.461C107.023 57.792 106.512 64.701 103.39 67.298C102.978 67.9946 102.437 68.6054 101.794 69.097C100.471 70.091 99.652 67.228 98.686 66.059C97.72 64.89 93.863 63.651 91.924 67.116C91.4496 67.917 91.1397 68.8046 91.0124 69.7269C90.8852 70.6491 90.9433 71.5875 91.1831 72.487C91.423 73.3866 91.8399 74.2292 92.4095 74.9657C92.979 75.7021 93.6897 76.3176 94.5 76.776Z" fill="#FFA8A7"/>
<path d="M118.888 88.718C114.429 88.375 110.677 87.577 107.737 85.729C105.315 84.21 102.074 80.227 101.563 76.629C101.227 82.292 103.124 85.099 106.96 87.479C110.796 89.859 115.773 90.629 118.685 90.895L118.888 88.718Z" fill="#FF8A65"/>
<path d="M114.961 60.487L111.384 62.489C111.126 61.998 111.067 61.4266 111.22 60.8934C111.372 60.3602 111.725 59.9063 112.203 59.626C112.439 59.4948 112.7 59.4129 112.968 59.3853C113.237 59.3577 113.509 59.385 113.767 59.4655C114.024 59.546 114.263 59.6781 114.469 59.8537C114.674 60.0293 114.841 60.2447 114.961 60.487Z" fill="#333333"/>
<path d="M129.339 62.678L125.776 60.578C125.9 60.3393 126.072 60.1284 126.28 59.9581C126.489 59.7879 126.73 59.662 126.989 59.5879C127.247 59.5139 127.518 59.4934 127.785 59.5276C128.052 59.5618 128.309 59.6501 128.541 59.787C129.021 60.0735 129.371 60.534 129.52 61.0725C129.669 61.611 129.604 62.186 129.339 62.678Z" fill="#333333"/>
<path d="M112.756 65.646C112.742 65.9771 112.827 66.3048 113 66.5875C113.173 66.8703 113.426 67.0953 113.727 67.2341C114.028 67.3729 114.363 67.4193 114.69 67.3672C115.018 67.3152 115.322 67.1671 115.565 66.9418C115.808 66.7165 115.979 66.4242 116.055 66.1017C116.132 65.7793 116.111 65.4414 115.995 65.1309C115.88 64.8204 115.674 64.5512 115.405 64.3575C115.137 64.1638 114.816 64.0544 114.485 64.043C114.044 64.0278 113.614 64.1878 113.29 64.4881C112.966 64.7885 112.774 65.2047 112.756 65.646Z" fill="#333333"/>
<path d="M125.258 66.017C125.246 66.3479 125.332 66.6749 125.506 66.9568C125.679 67.2387 125.933 67.4626 126.234 67.6004C126.535 67.7381 126.87 67.7834 127.197 67.7306C127.524 67.6777 127.828 67.529 128.07 67.3034C128.312 67.0778 128.482 66.7853 128.558 66.463C128.634 66.1408 128.613 65.8032 128.497 65.4931C128.381 65.183 128.176 64.9142 127.907 64.7209C127.638 64.5275 127.318 64.4183 126.987 64.407C126.763 64.3765 126.535 64.3961 126.32 64.4644C126.104 64.5328 125.906 64.6481 125.741 64.8022C125.575 64.9563 125.446 65.1452 125.363 65.3553C125.279 65.5654 125.244 65.7914 125.258 66.017Z" fill="#333333"/>
<path d="M120.015 63.518L120.631 74.221L126.378 72.548C124.959 69.0998 122.785 66.0139 120.015 63.518Z" fill="#FF8A65"/>
<path d="M114.842 74.739L121.485 77.154C121.136 78.0437 120.457 78.7646 119.59 79.1662C118.723 79.5679 117.734 79.6194 116.83 79.31C116.394 79.1479 115.995 78.8994 115.657 78.5794C115.319 78.2594 115.049 77.8744 114.863 77.4476C114.677 77.0208 114.58 76.5609 114.576 76.0954C114.573 75.63 114.663 75.1686 114.842 74.739Z" fill="#B16668"/>
<path d="M118.468 79.478C118.271 78.5284 117.804 77.6561 117.122 76.9666C116.44 76.2772 115.572 75.8 114.625 75.593C114.509 76.3716 114.665 77.1664 115.067 77.8435C115.468 78.5205 116.091 79.0385 116.83 79.31C117.355 79.4936 117.916 79.5512 118.468 79.478Z" fill="#FF8A65"/>
<path d="M108.934 216.195C108.024 217.056 104.405 215.558 102.207 213.85C100.009 212.142 94.0309 209.384 91.7069 208.138C88.4916 206.624 85.149 205.396 81.7179 204.47C76.2649 203.182 73.8779 203 71.2179 200.27C70.6237 199.675 70.1653 198.958 69.8741 198.169C69.5829 197.38 69.4658 196.537 69.5309 195.699C69.5309 195.699 71.6309 198.247 79.8419 196.987C88.0529 195.727 92.4419 193.396 95.3819 193.837C98.3219 194.278 106.106 196.525 111.223 192.493C112.812 191.233 112.147 189.308 111.468 189.084C112.756 189.784 113.134 190.855 113.491 191.954C113.729 192.654 114.009 193.627 114.191 194.278C114.723 195.937 115.591 199.066 117.81 200.578C119.021 201.418 119.448 201.67 119.007 202.678L108.934 216.195Z" fill="#333333"/>
<path d="M71.2949 192.136C68.8589 194.18 69.1459 195.272 69.4259 196.854C69.7059 198.436 70.3919 198.905 72.0089 199.479C74.0249 200.179 77.6579 200.179 81.2349 199.479C84.8119 198.779 92.2179 195.888 94.4719 196.098C96.7259 196.308 100.471 197.834 104.972 197.393C109.473 196.952 111.363 195.699 112.511 194.593C112.869 194.274 113.141 193.87 113.304 193.419C113.466 192.968 113.514 192.484 113.442 192.01C113.442 192.01 113.393 189.21 109.767 188.307C106.652 187.509 71.2949 192.136 71.2949 192.136Z" fill="#333333"/>
<path d="M118.538 202.482C115.038 201.117 113.302 205.863 111.538 207.865C109.774 209.867 108.738 209.965 105.112 208.964C103.252 208.446 101.331 208.182 99.3999 208.18C99.3999 208.18 102.438 209.258 103.635 210.588C104.832 211.918 103.257 212.821 104.958 213.822C107.611 215.39 110.327 217.021 112.007 218.022L116.151 220.759L126.462 227.276L131.362 207.508L118.538 202.482Z" fill="#FFA8A7"/>
<path d="M69.5031 195.678C68.7261 192.878 76.2091 187.124 84.9661 186.851C93.7231 186.578 92.9251 188.468 99.0991 188.034C105.273 187.6 108.094 187.089 111.44 189.063C113.071 190.008 113.54 193.34 107.597 194.768C101.654 196.196 97.3701 194.194 94.5841 194.033C91.7981 193.872 86.8351 196.385 78.7991 197.645C72.3381 198.66 70.1611 198.03 69.5031 195.678Z" fill="#333333"/>
<path d="M73.1499 223.881C72.2469 224.742 68.6279 223.237 66.4229 221.529C64.2179 219.821 58.2469 217.07 55.9229 215.817C52.7075 214.305 49.3648 213.08 45.9339 212.156C40.4809 210.868 38.0939 210.686 35.4339 207.956C34.8416 207.358 34.3849 206.64 34.095 205.85C33.8051 205.06 33.6888 204.217 33.7539 203.378C33.7539 203.378 35.8539 205.933 44.0579 204.666C52.2619 203.399 56.6229 201.082 59.5979 201.523C62.5729 201.964 70.3289 204.204 75.4389 200.172C77.0349 198.919 76.3699 196.987 75.6839 196.763C76.9789 197.463 77.3499 198.541 77.7139 199.633C77.9449 200.333 78.2249 201.313 78.4139 201.964C78.9389 203.623 79.8139 206.752 82.0259 208.264C83.2369 209.111 83.6639 209.363 83.2299 210.364L73.1499 223.881Z" fill="#333333"/>
<path d="M35.511 199.822C33.075 201.866 33.362 202.958 33.649 204.54C33.936 206.122 34.615 206.591 36.225 207.165C38.241 207.865 41.881 207.865 45.451 207.165C49.021 206.465 56.441 203.567 58.688 203.784C60.935 204.001 64.694 205.52 69.188 205.079C73.682 204.638 75.579 203.385 76.727 202.279C77.0849 201.958 77.3579 201.554 77.5216 201.102C77.6853 200.65 77.7345 200.165 77.665 199.689C77.665 199.689 77.616 196.889 73.983 195.993C70.875 195.195 35.511 199.822 35.511 199.822Z" fill="#333333"/>
<path d="M82.754 210.168C79.254 208.768 77.525 213.549 75.754 215.551C73.983 217.553 72.954 217.651 69.328 216.65C67.4545 216.128 65.5189 215.862 63.574 215.859C63.574 215.859 66.612 216.937 67.816 218.274C69.02 219.611 67.431 220.5 69.132 221.508C71.785 223.076 74.501 224.7 76.181 225.708L80.325 228.452L90.643 234.962L95.508 215.201L82.754 210.168Z" fill="#FFA8A7"/>
<path d="M33.726 203.357C32.949 200.557 40.432 194.81 49.182 194.53C57.932 194.25 57.141 196.154 63.322 195.713C69.503 195.272 72.31 194.768 75.656 196.742C77.287 197.687 77.756 201.026 71.813 202.454C65.87 203.882 61.6 201.88 58.8 201.719C56 201.558 51.051 204.064 43.022 205.331C36.554 206.346 34.377 205.709 33.726 203.357Z" fill="#333333"/>
<path d="M171.997 208.964C167.3 198.282 149.1 174.496 140 162.841C136.542 158.438 135.317 152.999 135.59 147.441C136.864 121.149 135.919 103.341 128.275 89.257L122.507 88.816C126.658 97.398 128.023 104.454 128.625 114.674L101.5 116.235C99.3021 102.403 97.5731 98 95.1441 90.335C92.4468 90.8526 89.8151 91.6673 87.2971 92.764C95.5991 111.517 94.3531 123.361 91.8121 140.448C90.5871 148.694 81.0321 153.048 73.3881 149.716C67.0881 171.416 70.2101 186.018 78.8201 198.079C82.8209 203.483 87.1209 208.66 91.7001 213.584L88.5641 212.394C86.2543 214.524 84.5985 217.268 83.7901 220.304C82.0471 227.381 83.2791 230.37 83.2791 230.37C83.2791 230.37 96.6771 240.009 109.837 246.806C123.711 253.981 133.756 252.406 140.147 245.581C143.199 242.333 144.165 236.894 142.499 230.111L143.472 230.419C158.361 235.151 167.174 235.627 172.928 228.256C176.33 223.902 175.749 217.476 171.997 208.964Z" fill="#8E7CC3"/>
<path opacity="0.35" d="M171.997 208.964C167.3 198.282 149.1 174.496 140 162.841C136.542 158.438 135.317 152.999 135.59 147.441C136.864 121.149 135.919 103.341 128.275 89.257L122.507 88.816C126.658 97.398 128.023 104.454 128.625 114.674L101.5 116.235C99.3021 102.403 97.5731 98 95.1441 90.335C92.4468 90.8526 89.8151 91.6673 87.2971 92.764C95.5991 111.517 94.3531 123.361 91.8121 140.448C90.5871 148.694 81.0321 153.048 73.3881 149.716C67.0881 171.416 70.2101 186.018 78.8201 198.079C82.8209 203.483 87.1209 208.66 91.7001 213.584L88.5641 212.394C86.2543 214.524 84.5985 217.268 83.7901 220.304C82.0471 227.381 83.2791 230.37 83.2791 230.37C83.2791 230.37 96.6771 240.009 109.837 246.806C123.711 253.981 133.756 252.406 140.147 245.581C143.199 242.333 144.165 236.894 142.499 230.111L143.472 230.419C158.361 235.151 167.174 235.627 172.928 228.256C176.33 223.902 175.749 217.476 171.997 208.964Z" fill="white"/>
<path opacity="0.5" d="M137.718 159.866C137.795 159.796 137.858 159.712 137.935 159.642C137.837 159.453 137.739 159.257 137.648 159.061L136.899 159.698C136.843 159.509 136.78 159.32 136.731 159.145C136.633 158.781 136.521 158.445 136.402 158.053C136.187 157.392 135.922 156.749 135.611 156.128L136.36 155.526C136.29 155.274 136.227 155.015 136.171 154.756C135.205 155.526 134.218 156.268 133.182 156.954C131.244 158.234 129.205 159.353 127.085 160.3C122.689 162.23 118.057 163.571 113.309 164.29C108.01 165.065 102.653 165.37 97.3001 165.2C92.483 165.188 87.6739 164.806 82.9151 164.059C78.7151 163.31 74.5151 161.959 71.0781 159.425C71.0291 159.712 70.9871 159.999 70.9381 160.286C73.9775 162.333 77.3911 163.76 80.9831 164.486C85.6101 165.372 90.3073 165.84 95.0181 165.886C94.9607 166.221 94.9372 166.561 94.9481 166.901C94.9481 167.377 94.9481 167.853 94.9831 168.301C95.0107 168.77 95.0621 169.237 95.1371 169.701C95.1789 170.084 95.2515 170.463 95.3541 170.835C91.1072 170.781 86.87 170.414 82.6771 169.736C78.2741 168.959 73.9061 167.51 70.3641 164.731C70.3641 165.053 70.3081 165.368 70.2871 165.676C73.3815 167.847 76.8924 169.354 80.5981 170.1C79.7861 174.23 81.0181 178.5 82.6981 182.231C84.6371 186.431 87.1851 190.372 89.5511 194.355L104.552 219.604C107.352 224.259 110.103 228.907 112.847 233.604C110.796 234.395 108.528 233.646 106.617 232.771C104.335 231.735 102.144 230.454 99.9251 229.271L86.3591 222.068L83.6711 220.668C83.6151 220.92 83.5521 221.172 83.5031 221.41L92.4001 226.1L99.4911 229.866C101.745 231.063 103.978 232.358 106.302 233.422C108.626 234.486 111.258 235.207 113.687 234.073C113.754 234.035 113.805 233.972 113.828 233.898C113.852 233.824 113.846 233.744 113.813 233.674C108.794 225.274 103.838 216.874 98.8541 208.474C97.1974 205.674 95.5361 202.874 93.8701 200.074C94.6993 199.947 95.4752 199.586 96.1073 199.035C96.7394 198.483 97.2016 197.763 97.4401 196.959C98.1051 194.936 97.7761 192.64 97.4401 190.589C96.6771 186.291 95.0111 182.231 93.5341 178.143C92.7361 175.924 92.0151 173.677 91.3501 171.416C92.5751 171.486 93.7931 171.535 95.0111 171.577C100.523 171.829 106.046 171.626 111.524 170.968C114.12 170.631 116.691 170.13 119.224 169.47C119.623 170.905 120.155 172.312 120.624 173.719C121.093 175.126 121.653 176.68 122.136 178.178C123.035 180.646 123.494 183.252 123.494 185.878C123.697 185.654 123.914 185.409 124.124 185.178C123.984 181.615 122.605 177.968 121.457 174.734C120.827 172.963 120.26 171.157 119.532 169.421C120.141 169.26 120.75 169.085 121.352 168.896C121.555 169.596 121.905 170.296 122.164 170.94C122.423 171.584 122.689 172.249 122.941 172.914C123.459 174.314 123.935 175.714 124.397 177.156C124.903 178.567 125.326 180.007 125.664 181.468C125.767 181.963 125.842 182.463 125.888 182.966C126.063 182.728 126.245 182.483 126.413 182.231C126.413 182.021 126.343 181.797 126.301 181.58C125.951 180.083 125.514 178.609 124.992 177.163C124.495 175.672 123.984 174.188 123.424 172.718C123.144 172.018 122.857 171.276 122.542 170.562C122.294 169.955 122.004 169.365 121.674 168.798C123.074 168.357 124.474 167.867 125.832 167.3C130.209 165.556 134.235 163.038 137.718 159.866ZM94.4581 183.043C95.1451 184.952 95.7292 186.896 96.2081 188.867C96.7278 190.833 96.9751 192.861 96.9431 194.894C96.8451 196.854 95.7951 199.458 93.4431 199.416C92.7571 198.254 92.0571 197.087 91.3431 195.916C90.0971 193.811 88.8464 191.711 87.5911 189.616C86.4431 187.684 85.2881 185.745 84.2661 183.736C83.1014 181.548 82.1969 179.232 81.5711 176.834C81.0494 174.683 80.9308 172.455 81.2211 170.261C84.4086 170.883 87.6371 171.271 90.8811 171.423C91.5251 175.441 93.1421 179.235 94.4581 183.043ZM135.233 156.443C135.429 157.01 135.632 157.563 135.814 158.13C135.926 158.48 136.038 158.83 136.136 159.194C136.234 159.558 136.276 159.831 136.381 160.139L135.261 161.028L135.121 160.678C134.981 160.3 134.834 159.922 134.687 159.544C134.54 159.166 134.372 158.753 134.218 158.354C134.106 158.044 133.977 157.74 133.833 157.444C134.309 157.101 134.778 156.8 135.233 156.422V156.443ZM97.0691 170.94H95.9491C95.9491 170.772 95.8861 170.604 95.8511 170.436C95.8161 170.268 95.7671 169.974 95.7251 169.736C95.6621 169.309 95.6061 168.875 95.5711 168.441C95.5361 168.007 95.5151 167.573 95.5151 167.139C95.5431 166.743 95.5431 166.345 95.5151 165.949L97.7271 166.005C97.7271 166.292 97.7271 166.593 97.7271 166.866C97.7283 167.35 97.754 167.834 97.8041 168.315C97.893 169.212 98.0379 170.103 98.2381 170.982L97.0691 170.94ZM113.071 170.03C108.314 170.733 103.508 171.04 98.7001 170.947C98.5034 170.098 98.3584 169.238 98.2661 168.371C98.2241 167.895 98.1961 167.419 98.1751 166.971C98.1751 166.649 98.1751 166.32 98.1401 165.998C102.687 166.098 107.235 165.864 111.748 165.298C116.659 164.694 121.47 163.446 126.056 161.588C128.655 160.528 131.145 159.217 133.49 157.675C133.56 157.899 133.651 158.123 133.721 158.326C133.868 158.725 134.008 159.131 134.155 159.53L134.575 160.685C134.645 160.881 134.715 161.07 134.792 161.266C134.802 161.299 134.813 161.332 134.827 161.364C134.218 161.819 133.602 162.267 132.972 162.687C131.034 163.971 128.993 165.09 126.868 166.033C122.466 167.964 117.826 169.301 113.071 170.009V170.03Z" fill="#8E7CC3"/>
<g opacity="0.4">
<path d="M88.564 212.394L91.7 213.584C91.7 213.584 107.24 232.295 114.646 234.115C108.493 233.079 102.808 230.173 98.364 225.792C93.8 221.116 88.564 212.394 88.564 212.394Z" fill="#8E7CC3"/>
<path d="M172.9 228.256C167.139 235.62 158.333 235.151 143.444 230.419L142.464 230.104C142.042 228.377 141.495 226.683 140.826 225.036C136.948 215.327 120.288 188.937 120.288 188.937C120.288 188.937 130.249 181.125 132.139 168.084C134.183 178.808 126.7 188.461 126.7 188.461C126.7 188.461 144.9 211.078 151.9 221.291C157.402 229.306 164.661 230.335 169.96 227.626C174.692 225.211 175.105 221.053 175.147 220.5C175.365 223.272 174.566 226.029 172.9 228.256Z" fill="#8E7CC3"/>
<path d="M136.066 233.59C134.68 229.684 132.995 225.89 131.026 222.243C129.066 218.603 126.94 215.063 124.649 211.624C122.367 208.187 119.952 204.841 117.355 201.635L123.718 212.212C125.818 215.712 127.862 219.289 129.773 222.908C130.746 224.707 131.663 226.534 132.573 228.375C133 229.306 133.455 230.223 133.861 231.175L134.463 232.575C134.666 233.044 134.876 233.513 135.051 233.975C136.656 237.74 137.73 241.71 138.243 245.77V244.223C138.243 243.964 138.243 243.705 138.243 243.446L138.166 242.676L138.005 241.122L137.725 239.589C137.315 237.552 136.761 235.548 136.066 233.59ZM166.6 219.31C165.963 217.332 165.187 215.402 164.276 213.535C162.455 209.817 160.348 206.246 157.976 202.853C155.61 199.456 153.09 196.189 150.416 193.053C147.749 189.903 144.963 186.865 142.016 183.953L149.562 193.711C152.04 196.987 154.497 200.27 156.814 203.637C157.99 205.317 159.11 207.025 160.202 208.754C160.734 209.622 161.294 210.476 161.805 211.365L162.561 212.688C162.82 213.136 163.086 213.57 163.317 214.025C165.344 217.588 166.863 221.417 167.832 225.4L167.664 223.86C167.629 223.608 167.608 223.349 167.566 223.09L167.398 222.334L167.062 220.815L166.6 219.31Z" fill="#8E7CC3"/>
</g>
<path d="M184.373 137.067L184.8 136.822V92.176L146.125 69.846L145.705 70.091L184.373 92.414V137.067Z" fill="#8E7CC3"/>
<path d="M184.8 136.822C185.081 136.661 185.314 136.428 185.476 136.148C185.639 135.868 185.724 135.55 185.724 135.226V92.624C185.725 92.3243 185.647 92.0296 185.497 91.7701C185.347 91.5107 185.13 91.2956 184.87 91.147L147.98 69.846C147.699 69.6845 147.38 69.5995 147.056 69.5995C146.732 69.5995 146.413 69.6845 146.132 69.846L184.8 92.169V136.822Z" fill="#FFCCBC"/>
<path d="M184.8 92.169V136.822C185.081 136.661 185.314 136.428 185.476 136.148C185.639 135.868 185.724 135.55 185.724 135.226V92.624C185.725 92.3247 185.647 92.0305 185.5 91.77L184.8 92.169Z" fill="#FFCCBC"/>
<path d="M145.705 70.091L184.373 92.414V137.067L145.705 114.737V70.091Z" fill="#8E7CC3"/>
<path opacity="0.75" d="M145.705 70.091L184.373 92.414V137.067L145.705 114.737V70.091Z" fill="white"/>
<path opacity="0.4" d="M165.039 81.249L145.705 70.091V97.776L169.19 83.65L165.039 81.249ZM160.335 123.2L165.039 125.916L182.49 135.996L184.38 134.855V108.738L160.335 123.2ZM173.922 86.394L145.705 103.362V114.758L183.596 91.98L173.922 86.394Z" fill="#A5D6A7"/>
<path d="M189.189 101.675C189.567 99.253 189.336 99.071 188.181 98.511C187.295 98.0464 186.31 97.7997 185.31 97.7912C184.309 97.7827 183.321 98.0126 182.427 98.462C180.873 99.295 179.27 100.058 178.668 100.884C178.066 101.71 179.613 103.068 181.895 102.501C185.486 101.605 185.906 102.501 185.906 102.501C184.371 102.889 182.857 103.356 181.37 103.901C180.145 104.433 178.248 106.092 176.995 106.988C175.742 107.884 176.351 109.788 178.962 109.221L176.666 110.866C175.063 112.021 174.93 113.246 176.848 113.666C177.477 113.82 178.14 113.75 178.724 113.47C178.724 113.47 176.862 114.401 177.135 115.038C177.912 116.865 179.298 116.753 183.603 115.955C184.814 115.738 186.816 116.389 187.572 116.557C188.531 116.956 188.972 117.957 189.294 119.189L191.576 115.801C191.933 115.179 192.082 114.458 192 113.745C191.918 113.032 191.61 112.364 191.121 111.839C191.121 111.839 193.221 110.852 192.675 109.529C192.24 108.585 191.607 107.745 190.82 107.065C191.083 106.673 191.229 106.214 191.243 105.743C191.257 105.271 191.137 104.805 190.897 104.398C190.497 103.593 189.843 102.943 189.035 102.55L189.189 101.675Z" fill="#FFA8A7"/>
<path d="M178.962 109.2C179.628 108.663 180.345 108.194 181.104 107.8C181.924 107.529 182.782 107.392 183.645 107.394C185.316 107.295 186.993 107.339 188.657 107.527C187.022 107.866 185.362 108.067 183.694 108.129C182.889 108.125 182.085 108.195 181.293 108.339C180.558 108.563 179.767 108.941 178.962 109.2Z" fill="#FF8A65"/>
<path d="M178.724 113.4C179.407 112.77 180.237 112.322 181.139 112.098C182.024 111.867 182.928 111.722 183.841 111.664C185.644 111.518 187.458 111.565 189.252 111.804C187.478 112.095 185.691 112.294 183.897 112.399C182.119 112.539 180.376 112.609 178.724 113.4Z" fill="#FF8A65"/>
<path d="M72.8842 103.915C74.4382 101.339 77.8332 96.978 81.7952 96.124C85.5822 99.442 87.8712 106.064 90.2582 108.661C94.7592 113.561 110.39 129.724 110.39 129.724C110.39 129.724 133 119.56 135.198 117.18C136.157 116.137 136.976 112.28 137.375 110.95C137.933 108.926 138.707 106.969 139.685 105.112C139.953 104.564 140.295 104.056 140.7 103.6C140.972 103.285 141.318 103.045 141.708 102.9C141.985 102.841 142.274 102.878 142.527 103.005C142.527 103.005 143.521 100.863 143.892 100.205C144.851 98.553 146.202 96.159 147.287 94.605C147.623 94.1702 147.998 93.7672 148.407 93.401C148.55 93.2957 148.715 93.223 148.889 93.1881C149.064 93.1532 149.244 93.1568 149.416 93.1989C149.589 93.2409 149.751 93.3203 149.89 93.4314C150.028 93.5425 150.141 93.6826 150.22 93.842C150.591 94.423 150.332 95.62 150.08 96.25C149.751 97.069 148.827 98.903 148.498 99.75C149.408 98.273 150.36 96.46 151.158 95.347C151.636 94.6697 152.188 94.0476 152.803 93.492C153.356 92.9674 154.012 92.5623 154.728 92.302C154.965 92.2427 155.213 92.238 155.452 92.2882C155.691 92.3384 155.916 92.4422 156.11 92.5917C156.303 92.7413 156.46 92.9328 156.569 93.1518C156.677 93.3708 156.735 93.6115 156.737 93.856C157.182 93.8445 157.621 93.9671 157.995 94.2081C158.37 94.449 158.663 94.7971 158.837 95.207C159.194 96.047 158.431 97.79 157.647 98.952C158.914 98.357 160.153 99.596 160.097 100.751C160.055 101.745 158.76 103.789 158.305 104.678C156.499 108.234 154.98 111.202 154.336 113.778C153.965 115.262 152.936 118.601 152.523 120.078C151.806 122.922 150.145 125.44 147.812 127.218C146.769 128.023 145.551 128.723 143.276 130.298C138.705 133.462 132.076 138.103 129.752 139.804C126.448 142.226 121.961 145.733 116.914 148.526C109.606 152.565 106.085 152.026 101.283 148.855C96.4812 145.684 85.4632 136.066 78.0572 128.716C71.2462 121.989 70.0982 108.542 72.8842 103.915Z" fill="#FFA8A7"/>
<path d="M157.64 98.959C158.998 98.259 160.552 99.876 160.069 101.248C159.581 102.53 158.991 103.77 158.305 104.958L157.108 107.415C155.51 110.68 154.296 114.119 153.489 117.663L152.747 120.302C152.033 123.025 150.477 125.453 148.302 127.239C145.74 129.136 141.918 131.593 139.321 133.539C133.994 137.13 126.721 142.639 121.436 146.139C114.835 150.206 108.514 154.336 101.276 148.939C102.789 149.95 104.462 150.695 106.225 151.144C111.734 152.138 116.725 148.491 121.149 145.726C126.301 142.149 133.665 136.626 138.929 133.014L143.416 129.885C146.398 127.89 149.716 126.105 151.228 122.696C153.363 117.726 154.028 112.091 156.828 107.331L158.088 104.902C158.515 104.09 159.005 103.32 159.418 102.515C159.831 101.71 160.307 100.828 159.873 99.988C159.791 99.7786 159.669 99.5874 159.513 99.4255C159.357 99.2635 159.17 99.1339 158.964 99.0442C158.758 98.9544 158.536 98.9063 158.311 98.9025C158.087 98.8987 157.863 98.9393 157.654 99.022L157.64 98.959Z" fill="#FF8A65"/>
<path d="M157.374 99.19C156.85 99.7111 156.366 100.27 155.925 100.863C155.477 101.493 154.588 103.152 154.196 103.824C153.766 104.564 153.378 105.329 153.034 106.113C152.662 106.876 152.386 107.683 152.215 108.514C152.215 108.591 152.292 108.731 152.362 108.626C152.773 107.937 153.133 107.218 153.44 106.477C153.776 105.805 154.126 105.14 154.49 104.482C154.854 103.831 155.729 102.193 156.121 101.563C156.583 100.828 157.031 100.093 157.486 99.358C157.535 99.281 157.5 99.085 157.374 99.19Z" fill="#FF8A65"/>
<path d="M156.373 93.975C155.623 94.7428 154.933 95.5665 154.308 96.439C153.458 97.6868 152.671 98.9764 151.949 100.303C151.389 101.248 150.871 102.214 150.381 103.208C149.793 104.186 149.372 105.255 149.135 106.372C149.135 106.456 149.226 106.715 149.345 106.575C149.633 106.201 149.869 105.788 150.045 105.35C150.269 104.846 150.493 104.349 150.745 103.852C151.212 102.886 151.709 101.941 152.236 101.017C152.754 100.128 153.783 98.217 154.336 97.384C154.7 96.831 155.036 96.25 155.421 95.711C155.806 95.172 156.198 94.703 156.534 94.164C156.555 94.08 156.492 93.87 156.373 93.975Z" fill="#FF8A65"/>
<path d="M150.045 96.285C150.339 95.6016 150.426 94.8475 150.297 94.115C150.052 95.55 148.302 98.742 147.077 100.905C145.677 103.397 145.677 104.818 145.677 104.818C145.677 104.818 146.202 103.677 148.435 99.757C148.792 98.938 149.716 97.104 150.045 96.285Z" fill="#FF8A65"/>
<path d="M141.673 102.935C141.541 102.979 141.414 103.038 141.295 103.11C140.726 105.259 140.317 107.446 140.07 109.655C140.07 109.655 141.393 105.532 142.492 103.04C142.239 102.913 141.95 102.876 141.673 102.935Z" fill="#FF8A65"/>
<path d="M81.9561 94.941C76.9371 96.649 71.0151 102.053 70.4901 108.276C69.9651 114.499 71.5821 122.178 76.4331 127.827C81.2841 133.476 89.8451 140.791 89.8451 140.791C89.8451 140.791 90.4751 135.415 96.5931 129.822C102.711 124.229 105.7 123.9 105.7 123.9C94.5001 110.845 94.7871 111.209 92.6521 108.759C89.0331 104.657 86.2681 99.589 81.9561 94.941Z" fill="#E0E0E0"/>
<path d="M104.237 121.023C102.718 120.246 98.182 120.183 92.484 125.923C86.786 131.663 86.618 137.823 86.667 138.642C86.786 140.476 88.949 140.917 89.726 141.575C90.503 142.233 91.707 143.857 92.666 144.158C93.3755 144.281 94.105 144.125 94.703 143.724L93.261 142.415C93.261 142.415 93.324 137.977 99.141 132.58C104.958 127.183 107.891 127.127 107.891 127.127L109.291 128.59C109.554 128.297 109.721 127.931 109.768 127.54C109.816 127.149 109.742 126.753 109.557 126.406C108.899 125.209 107.639 125.146 106.757 124.187C105.875 123.228 106.575 122.22 104.237 121.023Z" fill="#E0E0E0"/>
<path opacity="0.15" d="M104.237 121.023C102.718 120.246 98.182 120.183 92.484 125.923C86.786 131.663 86.618 137.823 86.667 138.642C86.786 140.476 88.949 140.917 89.726 141.575C90.503 142.233 91.707 143.857 92.666 144.158C93.3755 144.281 94.105 144.125 94.703 143.724L93.261 142.415C93.261 142.415 93.324 137.977 99.141 132.58C104.958 127.183 107.891 127.127 107.891 127.127L109.291 128.59C109.554 128.297 109.721 127.931 109.768 127.54C109.816 127.149 109.742 126.753 109.557 126.406C108.899 125.209 107.639 125.146 106.757 124.187C105.875 123.228 106.575 122.22 104.237 121.023Z" fill="#333333"/>
</svg>
