<svg width="102" height="100" viewBox="0 0 102 100" fill="none" xmlns="http://www.w3.org/2000/svg">
<path d="M29.1611 71.3936C30.025 68.6547 30.9927 65.9414 32.1123 63.2829C33.2306 60.6185 34.5092 58.023 35.9414 55.5102C37.4674 52.8341 39.1882 50.2717 41.09 47.843C43.6242 44.5717 46.6029 41.6628 49.9415 39.1989C51.6279 37.9636 53.4214 36.8784 55.301 35.956C56.2679 35.4714 57.2748 35.0692 58.3108 34.754C59.4146 34.4144 60.5674 34.2578 61.7228 34.2904C62.3579 34.3118 62.9862 34.4275 63.5867 34.6334C64.2599 34.8615 64.8687 35.2449 65.3627 35.7519C65.8711 36.2835 66.2258 36.9405 66.3899 37.6543C66.5401 38.3131 66.5545 38.9951 66.432 39.6594C66.322 40.2739 66.1246 40.8697 65.8456 41.4293C65.5827 41.9483 65.2714 42.442 64.9158 42.9037C64.2658 43.7645 63.5449 44.5706 62.7606 45.3137C61.2114 46.7836 59.4693 48.0402 57.5813 49.0495C55.6861 50.0633 53.653 50.8011 51.545 51.24C48.9217 51.7941 46.2116 51.8107 43.5816 51.2888C43.2247 51.2121 42.8729 51.1134 42.5284 50.9933C42.1722 50.8692 41.8271 50.7162 41.4965 50.5356C40.816 50.1807 40.2031 49.7112 39.6853 49.1482C39.1621 48.5743 38.7531 47.9079 38.4796 47.1838C38.2204 46.4929 38.0656 45.768 38.0203 45.0323C37.9518 43.6636 38.1138 42.2932 38.4998 40.9772C38.6729 40.3427 38.8796 39.7176 39.1191 39.1045C39.238 38.8002 39.361 38.498 39.4934 38.2005C39.624 37.9011 39.7601 37.6251 39.8934 37.3364C40.9618 35.0511 42.1806 32.8377 43.5419 30.7105C49.0281 22.2125 56.5703 15.2051 65.4843 10.3238C65.8145 10.1347 66.155 9.96321 66.4937 9.78801C66.8337 9.61541 67.1697 9.43475 67.5144 9.27059C68.2047 8.94427 68.8906 8.60921 69.5939 8.31371C70.9875 7.69529 72.4124 7.16219 73.8292 6.66673C74.961 6.27515 76.1161 5.95305 77.2879 5.70227C77.764 5.60701 78.1882 5.52923 78.5671 5.47385C78.9482 5.42655 79.2821 5.39549 79.5736 5.37845C80.422 5.32889 80.4544 5.49353 79.8029 5.81273C79.6399 5.89251 79.4341 5.98191 79.1874 6.07997C78.9401 6.17542 78.6542 6.28588 78.3294 6.41135C78.0053 6.53552 77.6428 6.66803 77.242 6.80887C76.8443 6.95759 76.4117 7.12147 75.9424 7.28909C73.4755 8.19309 71.0605 9.23029 68.7083 10.396C63.333 13.0585 58.4144 16.5418 54.1327 20.718C49.8537 24.8621 46.2796 29.6641 43.549 34.9379C43.3659 35.3017 43.1819 35.6672 42.9971 36.0342C42.8234 36.4062 42.6493 36.7791 42.4746 37.1531C42.2944 37.524 42.1421 37.9083 41.9749 38.2855C41.8105 38.6653 41.6422 39.0431 41.5022 39.4097C40.9252 40.8243 40.5594 42.3146 40.4163 43.8337C40.3299 44.9661 40.4964 46.0607 40.998 46.9164C41.2545 47.345 41.5932 47.7198 41.9951 48.0197C42.2051 48.1758 42.4282 48.3139 42.6619 48.4326C42.8945 48.558 43.1385 48.6613 43.3908 48.7413C43.6551 48.8267 43.9246 48.8953 44.1977 48.9466L45.0944 49.09C45.3971 49.1226 45.6997 49.1586 46.0031 49.1869C46.308 49.2011 46.6121 49.227 46.9176 49.2329C48.1444 49.2587 49.3705 49.1586 50.5765 48.9343C53.0048 48.4778 55.3271 47.5813 57.4266 46.2898C58.478 45.6427 59.474 44.9111 60.4045 44.1025C61.3274 43.3083 62.1677 42.4246 62.9128 41.4645L63.111 41.1968L63.2096 41.0627L63.2942 40.9374C63.4056 40.773 63.5076 40.6025 63.5998 40.4267C63.7779 40.0902 63.9109 39.7321 63.9953 39.3614C64.0728 39.0276 64.0875 38.6824 64.0387 38.3432C64.0174 38.1929 63.9764 38.0459 63.9169 37.906C63.8641 37.773 63.792 37.6483 63.7028 37.536C63.6157 37.42 63.5122 37.3172 63.3954 37.2306C63.2709 37.1344 63.1354 37.053 62.9919 36.9879C62.6592 36.8429 62.3055 36.7506 61.9439 36.7144C61.5369 36.6725 61.1267 36.6718 60.7196 36.7124C60.2926 36.753 59.8692 36.8248 59.4529 36.927C58.5809 37.1501 57.7314 37.4519 56.915 37.8287C56.4942 38.0173 56.0747 38.2203 55.6546 38.434C55.2386 38.6472 54.8268 38.8682 54.4192 39.097C52.7875 40.0267 51.2307 41.0795 49.7624 42.246C47.1298 44.344 44.7515 46.7369 42.6752 49.377C40.5865 52.0336 38.7416 54.8695 37.1625 57.8511C36.3665 59.3429 35.624 60.8631 34.9351 62.4114C34.5935 63.186 34.2588 63.9634 33.9497 64.7529L33.4809 65.9349L33.0363 67.1269C32.7331 67.9191 32.4705 68.727 32.1873 69.5272C31.9281 70.3362 31.6515 71.1392 31.4097 71.9545C30.9014 73.5767 30.4502 75.2183 30.0104 76.8634C28.6322 82.1216 27.44 87.1269 26.0101 91.5179C25.3545 93.5372 24.7932 93.2897 25.0956 90.8562C25.5652 87.4184 26.1537 83.8214 26.8947 80.2584C27.4987 77.328 28.3163 74.3537 29.1936 71.4315C29.1823 71.4193 29.172 71.4078 29.1611 71.3936Z" fill="#8E7CC3"/>
<path d="M37.1706 77.2876C35.8852 78.54 34.6998 79.8891 33.625 81.3229C33.3499 81.7114 33.0698 82.0987 32.7994 82.4933C32.5421 82.8974 32.2898 83.3051 32.0501 83.7183C31.0449 85.5261 30.1732 87.4261 29.3264 89.354L28.0693 92.2631C27.6506 93.2348 27.2394 94.2164 26.7945 95.1811L26.788 95.1953C26.6349 95.5272 26.3549 95.7852 26.0096 95.9128C25.6644 96.0403 25.2821 96.0267 24.9469 95.8752C24.7359 95.7784 24.5525 95.6312 24.4132 95.4469C24.2739 95.2625 24.183 95.0469 24.1487 94.8192L23.7203 91.8628C23.2404 88.6786 22.7618 85.4913 22.3035 82.2945C21.8463 79.0976 21.4083 75.8921 21.0544 72.6616C20.9604 71.6825 20.9205 70.6991 20.9347 69.7157C20.9329 68.7822 21.1782 68.1572 21.5128 67.7627C22.0038 67.1891 22.6071 67.694 22.8631 68.9636C23.0255 69.8022 23.1373 70.6496 23.1981 71.5013C23.5472 75.4004 24.1493 79.2732 25.0007 83.0957C25.2317 84.1545 25.5126 85.2509 25.5988 86.3029C25.823 89.0297 26.3244 91.7316 26.7545 94.44L24.3902 94.1166C24.646 93.5336 24.9106 92.9552 25.1941 92.3858C26.3033 90.1352 27.2978 87.8065 28.4791 85.5433C29.5257 83.5019 30.7304 81.5437 32.0823 79.6865C33.4537 77.8421 34.9851 76.1197 36.659 74.5389C36.9919 74.2271 37.3278 73.9276 37.6667 73.644C38.0147 73.3714 38.3666 73.1163 38.7224 72.879C39.4081 72.4157 40.1486 72.0375 40.9275 71.753C41.2756 71.6274 41.5258 71.6748 41.6331 71.8408C41.7372 72.003 41.7119 72.2983 41.4726 72.6268C41.1132 73.0677 40.7227 73.4929 40.3384 73.9268C39.9571 74.3632 39.5611 74.7898 39.161 75.2076C38.8447 75.5614 38.5043 75.8981 38.1565 76.2305L37.895 76.4796L37.6439 76.7366C37.4775 76.9091 37.3114 77.0812 37.1454 77.2531L37.1706 77.2876Z" fill="#8E7CC3"/>
</svg>
