<svg width="100" height="100" viewBox="0 0 100 100" fill="none" xmlns="http://www.w3.org/2000/svg">
<path d="M74.3038 70.256C76.5778 66.416 74.5038 59.782 72.5578 56.788C70.3178 53.344 66.3718 51.874 62.6878 50.758C58.0398 49.358 55.3798 48.298 53.6238 43.27C52.0778 38.844 51.4518 34.136 49.4598 29.904C45.3878 21.25 38.7098 12.468 28.4338 15.618C19.0098 18.508 13.3538 28.218 18.5198 37.418C22.8798 45.184 33.1558 38.896 34.6018 49.448C35.9498 59.276 24.7618 67.742 31.1558 77.048C37.5158 86.306 46.2298 72.472 53.0358 68.694C57.4058 66.268 58.0718 72.094 61.5418 74.116C65.7338 76.554 71.4278 75.116 74.3038 70.256Z" fill="#FF8A65"/>
<path opacity="0.4" d="M74.3038 70.256C76.5778 66.416 74.5038 59.782 72.5578 56.788C70.3178 53.344 66.3718 51.874 62.6878 50.758C58.0398 49.358 55.3798 48.298 53.6238 43.27C52.0778 38.844 51.4518 34.136 49.4598 29.904C45.3878 21.25 38.7098 12.468 28.4338 15.618C19.0098 18.508 13.3538 28.218 18.5198 37.418C22.8798 45.184 33.1558 38.896 34.6018 49.448C35.9498 59.276 24.7618 67.742 31.1558 77.048C37.5158 86.306 46.2298 72.472 53.0358 68.694C57.4058 66.268 58.0718 72.094 61.5418 74.116C65.7338 76.554 71.4278 75.116 74.3038 70.256Z" fill="#FFCCBC"/>
<path d="M50.0002 85.512C71.4167 85.512 88.7782 84.4984 88.7782 83.248C88.7782 81.9976 71.4167 80.984 50.0002 80.984C28.5837 80.984 11.2222 81.9976 11.2222 83.248C11.2222 84.4984 28.5837 85.512 50.0002 85.512Z" fill="#F5F5F5"/>
<path d="M46.0258 82.724C46.046 82.7857 46.0509 82.8513 46.0401 82.9153C46.0292 82.9793 46.003 83.0396 45.9636 83.0912C45.9243 83.1428 45.8729 83.184 45.8141 83.2113C45.7552 83.2386 45.6906 83.2512 45.6258 83.248H17.7658C16.8958 83.248 16.8958 77.582 17.7658 77.582H45.6338C45.6984 77.5789 45.7627 77.5915 45.8214 77.6187C45.88 77.6459 45.9312 77.6869 45.9705 77.7382C46.0098 77.7896 46.0361 77.8496 46.0472 77.9133C46.0582 77.977 46.0536 78.0425 46.0338 78.104C45.6858 79.184 45.6858 81.646 46.0258 82.724Z" fill="#8E7CC3"/>
<path opacity="0.8" d="M45.9858 78.2439H29.0798C28.4138 78.2439 28.4138 82.5859 29.0798 82.5859H45.9858C45.6998 81.4959 45.6998 79.3319 45.9858 78.2439Z" fill="white"/>
<path opacity="0.2" d="M28.2378 82.724C28.258 82.7857 28.2629 82.8513 28.2521 82.9153C28.2412 82.9793 28.215 83.0396 28.1756 83.0912C28.1363 83.1428 28.0849 83.184 28.0261 83.2113C27.9672 83.2386 27.9026 83.2512 27.8378 83.248H17.7658C16.8958 83.248 16.8958 77.582 17.7658 77.582H27.8458C27.9104 77.5789 27.9747 77.5915 28.0334 77.6187C28.092 77.6459 28.1432 77.6869 28.1825 77.7382C28.2218 77.7896 28.2481 77.8496 28.2592 77.9133C28.2702 77.977 28.2656 78.0425 28.2458 78.104C27.8978 79.184 27.8978 81.646 28.2378 82.724Z" fill="#1F1F1F"/>
<path d="M22.0618 77.5819H19.7598C18.8898 77.5819 18.8898 83.2479 19.7598 83.2479H22.0618C21.1998 83.2479 21.1998 77.5819 22.0618 77.5819Z" fill="#8E7CC3"/>
<path d="M23.8758 77.5819H22.9718C22.1018 77.5819 22.1018 83.2479 22.9718 83.2479H23.8758C22.9998 83.2479 22.9998 77.5819 23.8758 77.5819Z" fill="#8E7CC3"/>
<path d="M16.1418 77.1119C16.0458 77.3439 16.2818 77.5819 16.6018 77.5819H41.6578C42.6798 77.5819 42.6798 72.4879 41.6578 72.4879H16.5998C16.2798 72.4879 16.0438 72.7239 16.1398 72.9579C16.5398 73.9279 16.5398 76.1419 16.1418 77.1119Z" fill="#263238"/>
<path opacity="0.2" d="M16.1418 77.1119C16.0458 77.3439 16.2818 77.5819 16.6018 77.5819H28.8878C29.9098 77.5819 29.9098 72.4879 28.8878 72.4879H16.5998C16.2798 72.4879 16.0438 72.7239 16.1398 72.9579C16.5398 73.9279 16.5398 76.1419 16.1418 77.1119Z" fill="#1F1F1F"/>
<path opacity="0.8" d="M16.1858 73.0819H28.3858C29.1678 73.0819 29.1678 76.9859 28.3858 76.9859H16.1858C16.5218 75.9999 16.5218 74.0619 16.1858 73.0819Z" fill="white"/>
<path opacity="0.2" d="M32.4378 73.624C32.3618 73.398 32.5818 73.178 32.8858 73.178H39.8998C40.6438 73.178 40.6438 76.89 39.8998 76.89H32.8858C32.5818 76.89 32.3618 76.672 32.4378 76.446C32.6778 75.5206 32.6778 74.5493 32.4378 73.624Z" fill="white"/>
<path d="M83.1458 74.8379C83.1679 74.9056 83.1743 74.9774 83.1643 75.0479C83.1544 75.1183 83.1285 75.1856 83.0885 75.2445C83.0485 75.3034 82.9956 75.3523 82.9338 75.3876C82.8719 75.4229 82.8028 75.4435 82.7318 75.4479H53.2918C52.3718 75.4479 52.3718 68.8479 53.2918 68.8479H82.7318C82.8017 68.8527 82.8696 68.8732 82.9305 68.9079C82.9913 68.9425 83.0436 68.9905 83.0834 69.0482C83.1232 69.1058 83.1494 69.1717 83.1602 69.2409C83.171 69.3101 83.1661 69.3809 83.1458 69.4479C82.7878 70.7179 82.7878 73.5839 83.1458 74.8379Z" fill="#8E7CC3"/>
<path opacity="0.5" d="M83.1458 74.8379C83.1679 74.9056 83.1743 74.9774 83.1643 75.0479C83.1544 75.1183 83.1285 75.1856 83.0885 75.2445C83.0485 75.3034 82.9956 75.3523 82.9338 75.3876C82.8719 75.4229 82.8028 75.4435 82.7318 75.4479H53.2918C52.3718 75.4479 52.3718 68.8479 53.2918 68.8479H82.7318C82.8017 68.8527 82.8696 68.8732 82.9305 68.9079C82.9913 68.9425 83.0436 68.9905 83.0834 69.0482C83.1232 69.1058 83.1494 69.1717 83.1602 69.2409C83.171 69.3101 83.1661 69.3809 83.1458 69.4479C82.7878 70.7179 82.7878 73.5839 83.1458 74.8379Z" fill="white"/>
<path opacity="0.8" d="M83.1058 69.6239H65.2438C64.5398 69.6239 64.5398 74.6759 65.2438 74.6759H83.1058C82.7998 73.4099 82.7998 70.8919 83.1058 69.6239Z" fill="white"/>
<path opacity="0.6" d="M64.3538 74.8379C64.3759 74.9056 64.3823 74.9774 64.3723 75.0479C64.3624 75.1183 64.3365 75.1856 64.2965 75.2445C64.2565 75.3034 64.2036 75.3523 64.1418 75.3876C64.0799 75.4229 64.0109 75.4435 63.9398 75.4479H53.2918C52.3718 75.4479 52.3718 68.8479 53.2918 68.8479H63.9398C64.0097 68.8527 64.0776 68.8732 64.1385 68.9079C64.1993 68.9425 64.2516 68.9905 64.2914 69.0482C64.3312 69.1058 64.3574 69.1717 64.3682 69.2409C64.3791 69.3101 64.3741 69.3809 64.3538 69.4479C63.9998 70.7179 63.9998 73.5839 64.3538 74.8379Z" fill="#8E7CC3"/>
<path opacity="0.5" d="M60.0338 69.342C60.0547 69.2903 60.0631 69.2345 60.0584 69.179C60.0538 69.1234 60.0361 69.0698 60.007 69.0223C59.9778 68.9748 59.9379 68.9349 59.8904 68.9056C59.843 68.8764 59.7893 68.8587 59.7338 68.854H55.6738C54.7538 68.854 54.7538 75.454 55.6738 75.454H59.7338C59.7894 75.449 59.843 75.431 59.8905 75.4016C59.9379 75.3721 59.9778 75.332 60.0069 75.2844C60.0361 75.2368 60.0537 75.183 60.0583 75.1274C60.063 75.0718 60.0546 75.0158 60.0338 74.964C59.6238 73.738 59.6238 70.564 60.0338 69.342Z" fill="white"/>
<path d="M81.0338 82.5219C81.0575 82.6096 81.0599 82.7017 81.041 82.7906C81.022 82.8794 80.9821 82.9625 80.9246 83.0328C80.8672 83.1032 80.7937 83.1589 80.7105 83.1952C80.6272 83.2316 80.5365 83.2476 80.4458 83.2419H49.8578C48.5518 83.2419 48.5498 75.4419 49.8578 75.4419H80.4578C80.5485 75.4362 80.6392 75.4522 80.7225 75.4886C80.8057 75.5249 80.8792 75.5806 80.9366 75.651C80.9941 75.7214 81.034 75.8044 81.053 75.8933C81.0719 75.9821 81.0695 76.0742 81.0458 76.1619C80.5238 77.6479 80.5258 81.0379 81.0338 82.5219Z" fill="#8E7CC3"/>
<path opacity="0.2" d="M81.0338 82.5219C81.0575 82.6096 81.0599 82.7017 81.041 82.7906C81.022 82.8794 80.9821 82.9625 80.9246 83.0328C80.8672 83.1032 80.7937 83.1589 80.7105 83.1952C80.6272 83.2316 80.5365 83.2476 80.4458 83.2419H49.8578C48.5518 83.2419 48.5498 75.4419 49.8578 75.4419H80.4578C80.5485 75.4362 80.6392 75.4522 80.7225 75.4886C80.8057 75.5249 80.8792 75.5806 80.9366 75.651C80.9941 75.7214 81.034 75.8044 81.053 75.8933C81.0719 75.9821 81.0695 76.0742 81.0458 76.1619C80.5238 77.6479 80.5258 81.0379 81.0338 82.5219Z" fill="white"/>
<path opacity="0.8" d="M80.9738 76.354H62.4798C61.4798 76.354 61.4798 82.33 62.4798 82.33H80.9758C80.5478 80.832 80.5478 77.854 80.9738 76.354Z" fill="white"/>
<path opacity="0.6" d="M61.2158 82.5259C61.2399 82.6135 61.2427 82.7056 61.224 82.7945C61.2053 82.8833 61.1656 82.9665 61.1083 83.0369C61.051 83.1074 60.9776 83.1631 60.8944 83.1994C60.8112 83.2358 60.7205 83.2517 60.6298 83.2459H49.8578C48.5518 83.2459 48.5498 75.4459 49.8578 75.4459H60.6298C60.7205 75.4403 60.8112 75.4563 60.8945 75.4926C60.9778 75.529 61.0512 75.5846 61.1086 75.655C61.1661 75.7254 61.206 75.8084 61.225 75.8973C61.2439 75.9861 61.2415 76.0782 61.2178 76.1659C60.7078 77.6519 60.7078 81.0399 61.2158 82.5259Z" fill="#8E7CC3"/>
<path opacity="0.5" d="M54.7638 75.7179C54.7805 75.6893 54.789 75.6567 54.7883 75.6237C54.7877 75.5906 54.778 75.5583 54.7602 75.5304C54.7424 75.5025 54.7173 75.4801 54.6876 75.4655C54.6579 75.451 54.6248 75.4449 54.5918 75.4479H52.7618C51.4578 75.4479 51.4578 83.2479 52.7618 83.2479H54.5998C54.6328 83.2509 54.6659 83.2449 54.6956 83.2303C54.7253 83.2157 54.7504 83.1933 54.7682 83.1654C54.786 83.1375 54.7957 83.1052 54.7963 83.0722C54.797 83.0391 54.7885 83.0065 54.7718 82.9779C53.9778 81.7719 53.9778 76.9219 54.7638 75.7179Z" fill="white"/>
<path opacity="0.5" d="M57.6198 75.718C57.6363 75.6893 57.6446 75.6566 57.6439 75.6235C57.6432 75.5904 57.6334 75.5581 57.6158 75.5302C57.5981 75.5022 57.5731 75.4796 57.5435 75.4647C57.5139 75.4499 57.4808 75.4434 57.4478 75.446H55.6178C54.3138 75.446 54.3138 83.246 55.6178 83.246H57.4478C57.4806 83.2486 57.5134 83.2422 57.5429 83.2275C57.5723 83.2128 57.5971 83.1903 57.6146 83.1625C57.6321 83.1346 57.6417 83.1026 57.6422 83.0697C57.6428 83.0368 57.6343 83.0044 57.6178 82.976C56.8338 81.772 56.8338 76.92 57.6198 75.718Z" fill="white"/>
<path d="M80.7338 64.7039C80.6984 64.1484 80.5678 63.6032 80.3478 63.0919L80.5278 63.0039C80.7564 63.5368 80.8917 64.1051 80.9278 64.6839L80.7338 64.7039Z" fill="#8E7CC3"/>
<path d="M79.4798 62.226H74.5118V62.426H79.4798V62.226Z" fill="#8E7CC3"/>
<path d="M47.1018 68.3079C46.9998 68.5799 47.2498 68.8539 47.5878 68.8539H79.4798C80.5578 68.8539 80.5578 62.9259 79.4798 62.9259H47.5878C47.2498 62.9259 46.9998 63.2019 47.1018 63.4739C47.5218 64.5999 47.5218 67.1779 47.1018 68.3079Z" fill="#8E7CC3"/>
<path opacity="0.2" d="M47.1018 68.3079C46.9998 68.5799 47.2498 68.8539 47.5878 68.8539H65.9878C67.0678 68.8539 67.0678 62.9259 65.9878 62.9259H47.5878C47.2498 62.9259 46.9998 63.2019 47.1018 63.4739C47.5218 64.5999 47.5218 67.1779 47.1018 68.3079Z" fill="#1F1F1F"/>
<path opacity="0.8" d="M47.1498 63.62H65.4538C66.2818 63.62 66.2818 68.162 65.4538 68.162H47.1498C47.5038 67.022 47.5038 64.76 47.1498 63.62Z" fill="white"/>
<path opacity="0.2" d="M69.7378 64.2479C69.6578 63.9859 69.8898 63.7319 70.2098 63.7319H77.6218C78.4078 63.7319 78.4078 68.0499 77.6218 68.0499H70.2098C69.8898 68.0499 69.6578 67.7959 69.7378 67.5319C69.9998 66.7019 69.9998 65.0799 69.7378 64.2479Z" fill="white"/>
<path d="M44.1198 19.6C43.2178 20.566 41.0158 19.6 40.6798 22.26C40.3158 25.128 41.6958 26.506 39.9138 27.26C37.1138 28.43 35.1138 33.106 39.0018 34.86C42.8898 36.614 51.1698 34.776 50.2378 31.202C49.3058 27.628 49.4898 25.71 50.5898 24.026C52.0398 21.8 51.7298 18.94 50.5478 17.904C48.7078 16.284 46.1658 17.4 44.1198 19.6Z" fill="#263238"/>
<path d="M48.9318 31.1059C48.9165 31.1065 48.9016 31.1012 48.8901 31.0912C48.8786 31.0812 48.8713 31.0671 48.8698 31.0519C48.8684 31.0439 48.8686 31.0356 48.8705 31.0277C48.8724 31.0198 48.8758 31.0123 48.8807 31.0057C48.8856 30.9992 48.8917 30.9937 48.8988 30.9896C48.9058 30.9855 48.9137 30.9829 48.9218 30.9819C49.6938 30.8759 50.1538 30.6859 50.3698 30.3819C50.6378 30.0039 50.5218 29.4419 50.3698 28.7299C50.1338 27.5719 49.8078 25.9859 50.8478 23.9819C52.1098 21.5519 51.6478 18.8879 50.4658 18.0159C50.4526 18.0063 50.4437 17.9919 50.4411 17.9758C50.4385 17.9597 50.4423 17.9432 50.4518 17.9299C50.4617 17.9166 50.4765 17.9077 50.4929 17.9051C50.5094 17.9025 50.5262 17.9064 50.5398 17.9159C51.7718 18.8179 52.2478 21.5539 50.9578 24.0399C49.9398 26.0039 50.2598 27.5659 50.4918 28.7059C50.6438 29.4459 50.7638 30.0319 50.4638 30.4539C50.2278 30.7879 49.7418 30.9939 48.9338 31.1059H48.9318Z" fill="#263238"/>
<path d="M38.8478 27.642C38.7214 27.6415 38.5952 27.6335 38.4698 27.618C38.4616 27.617 38.4537 27.6144 38.4466 27.6104C38.4394 27.6063 38.4332 27.6009 38.4281 27.5943C38.4231 27.5878 38.4194 27.5804 38.4173 27.5724C38.4152 27.5645 38.4147 27.5562 38.4158 27.548C38.4168 27.5399 38.4194 27.532 38.4235 27.5248C38.4275 27.5177 38.433 27.5114 38.4395 27.5064C38.446 27.5013 38.4535 27.4977 38.4614 27.4955C38.4694 27.4934 38.4776 27.4929 38.4858 27.494C39.0538 27.564 39.4658 27.48 39.7438 27.236C40.2638 26.778 40.2718 25.82 40.2778 24.71C40.2778 23.454 40.2958 22.032 41.1098 21.062C41.1151 21.0557 41.1215 21.0505 41.1288 21.0467C41.136 21.0429 41.144 21.0406 41.1521 21.0398C41.1603 21.0391 41.1686 21.0399 41.1764 21.0424C41.1842 21.0448 41.1915 21.0488 41.1978 21.054C41.2041 21.0593 41.2093 21.0657 41.2131 21.073C41.2169 21.0803 41.2193 21.0882 41.22 21.0964C41.2208 21.1045 41.2199 21.1128 41.2175 21.1206C41.215 21.1285 41.2111 21.1357 41.2058 21.142C40.4198 22.078 40.4058 23.476 40.4058 24.712C40.4058 25.85 40.3918 26.834 39.8298 27.33C39.5527 27.5526 39.2026 27.6639 38.8478 27.642Z" fill="#263238"/>
<path d="M58.4778 62.922C57.1438 62.906 56.6198 62.822 56.0058 62.832C55.3918 62.842 55.2458 62.95 54.6058 62.922C54.1738 62.904 54.1718 62.39 54.3378 62.038C54.4678 61.762 54.6278 61.484 54.7758 61.14L56.4678 61.264C56.6958 61.908 57.8278 62.184 58.8198 62.412C59.2138 62.506 59.0118 62.928 58.4778 62.922Z" fill="#8E7CC3"/>
<path d="M49.6558 38.352C49.6558 38.352 54.1318 42.202 58.6558 46.286C60.5678 48.016 56.5578 61.206 56.5578 61.206C56.4738 61.488 54.9818 61.086 54.7578 60.864C54.7578 60.864 54.5298 50.626 55.4998 48.564C45.4678 46.028 43.8998 41.102 43.8998 41.102L44.6198 38.046L49.6558 38.352Z" fill="#263238"/>
<path opacity="0.2" d="M44.5618 42.3159C45.1233 43.1008 45.7887 43.8059 46.5398 44.4119C47.5398 43.2419 47.2598 41.3519 47.2598 41.3519L44.5618 42.3159Z" fill="#1F1F1F"/>
<path d="M56.9058 60.6359C56.8778 60.8359 56.8298 61.1899 56.8038 61.4519C56.7998 61.4943 56.7797 61.5337 56.7478 61.5619C56.7159 61.5901 56.6744 61.6051 56.6318 61.6039C55.9625 61.5514 55.2996 61.4363 54.6518 61.2599C54.6206 61.2513 54.593 61.2328 54.5732 61.2072C54.5534 61.1816 54.5424 61.1503 54.5418 61.1179L54.5278 60.3879C54.5277 60.3642 54.5326 60.3407 54.5421 60.3189C54.5516 60.2972 54.5656 60.2777 54.5831 60.2617C54.6006 60.2457 54.6213 60.2335 54.6438 60.226C54.6663 60.2184 54.6902 60.2157 54.7138 60.2179L56.7778 60.4679C56.7974 60.4701 56.8164 60.4763 56.8336 60.486C56.8507 60.4957 56.8658 60.5088 56.8777 60.5245C56.8897 60.5402 56.8984 60.5582 56.9032 60.5774C56.908 60.5965 56.9089 60.6164 56.9058 60.6359Z" fill="#263238"/>
<path opacity="0.3" d="M56.9058 60.6359C56.8778 60.8359 56.8298 61.1899 56.8038 61.4519C56.7998 61.4943 56.7797 61.5337 56.7478 61.5619C56.7159 61.5901 56.6744 61.6051 56.6318 61.6039C55.9625 61.5514 55.2996 61.4363 54.6518 61.2599C54.6206 61.2513 54.593 61.2328 54.5732 61.2072C54.5534 61.1816 54.5424 61.1503 54.5418 61.1179L54.5278 60.3879C54.5277 60.3642 54.5326 60.3407 54.5421 60.3189C54.5516 60.2972 54.5656 60.2777 54.5831 60.2617C54.6006 60.2457 54.6213 60.2335 54.6438 60.226C54.6663 60.2184 54.6902 60.2157 54.7138 60.2179L56.7778 60.4679C56.7974 60.4701 56.8164 60.4763 56.8336 60.486C56.8507 60.4957 56.8658 60.5088 56.8777 60.5245C56.8897 60.5402 56.8984 60.5582 56.9032 60.5774C56.908 60.5965 56.9089 60.6164 56.9058 60.6359Z" fill="white"/>
<path d="M38.8938 72.488C37.5378 72.488 37.0938 71.978 36.3358 71.838C35.6958 71.718 35.5258 71.774 35.0098 71.684C34.5778 71.608 34.5438 71.312 34.8098 70.874C34.9833 70.5712 35.1305 70.254 35.2498 69.926L37.3058 70.062C37.5198 70.612 38.0138 71.73 38.7678 71.862C39.4778 72 39.4338 72.488 38.8938 72.488Z" fill="#8E7CC3"/>
<path d="M49.3458 38.34C49.3458 38.34 44.6158 46.75 42.7118 51.952C40.7118 57.416 37.5278 66.352 37.2978 70.062C36.9578 70.224 35.8418 70.162 35.2418 69.926C35.2418 69.926 34.6858 57.126 38.5358 51.998C39.4538 41.016 40.9778 39.26 42.5978 37.922L49.3458 38.34Z" fill="#263238"/>
<path d="M37.5458 69.304C37.5212 69.5572 37.5145 69.8118 37.5258 70.066C37.5285 70.1102 37.5137 70.1538 37.4844 70.1871C37.4552 70.2205 37.414 70.2409 37.3698 70.244C36.6038 70.314 35.5358 70.068 35.1978 69.984C35.1664 69.9761 35.1384 69.9582 35.1182 69.9329C35.0979 69.9076 35.0865 69.8764 35.0858 69.844L35.0598 69.128C35.0594 69.1045 35.064 69.0811 35.0732 69.0594C35.0823 69.0377 35.0959 69.0182 35.113 69.002C35.1301 68.9858 35.1504 68.9734 35.1725 68.9655C35.1947 68.9576 35.2183 68.9543 35.2418 68.956L37.4098 69.142C37.4294 69.1435 37.4486 69.1489 37.4661 69.1579C37.4836 69.1669 37.4992 69.1793 37.5118 69.1944C37.5245 69.2095 37.534 69.227 37.5398 69.2458C37.5457 69.2646 37.5477 69.2844 37.5458 69.304Z" fill="#263238"/>
<path opacity="0.3" d="M37.5458 69.304C37.5212 69.5572 37.5145 69.8118 37.5258 70.066C37.5285 70.1102 37.5137 70.1538 37.4844 70.1871C37.4552 70.2205 37.414 70.2409 37.3698 70.244C36.6038 70.314 35.5358 70.068 35.1978 69.984C35.1664 69.9761 35.1384 69.9582 35.1182 69.9329C35.0979 69.9076 35.0865 69.8764 35.0858 69.844L35.0598 69.128C35.0594 69.1045 35.064 69.0811 35.0732 69.0594C35.0823 69.0377 35.0959 69.0182 35.113 69.002C35.1301 68.9858 35.1504 68.9734 35.1725 68.9655C35.1947 68.9576 35.2183 68.9543 35.2418 68.956L37.4098 69.142C37.4294 69.1435 37.4486 69.1489 37.4661 69.1579C37.4836 69.1669 37.4992 69.1793 37.5118 69.1944C37.5245 69.2095 37.534 69.227 37.5398 69.2458C37.5457 69.2646 37.5477 69.2844 37.5458 69.304Z" fill="white"/>
<path d="M50.5998 30.0899C50.7998 30.4679 51.0158 30.8899 51.2358 31.2899C51.4558 31.6899 51.6778 32.0899 51.9018 32.4799C52.3538 33.2659 52.8258 34.0359 53.3318 34.7619L53.0598 34.5199C53.2605 34.661 53.4818 34.7703 53.7158 34.8439C53.9989 34.9389 54.2892 35.0111 54.5838 35.0599C54.8918 35.1159 55.2118 35.1539 55.5378 35.1839C55.8638 35.2139 56.2058 35.2319 56.5178 35.2519H56.5598C56.6897 35.2594 56.813 35.3119 56.9084 35.4003C57.0038 35.4888 57.0655 35.6077 57.0827 35.7367C57.1 35.8656 57.0718 35.9966 57.003 36.1071C56.9343 36.2175 56.8292 36.3006 56.7058 36.3419C56.3484 36.4608 55.9828 36.5531 55.6118 36.6179C55.239 36.6842 54.8621 36.725 54.4838 36.7399C54.0824 36.7554 53.6805 36.7312 53.2838 36.6679C52.8361 36.6005 52.4032 36.4571 52.0038 36.2439C51.9208 36.1986 51.8468 36.1382 51.7858 36.0659L51.7318 36.0019C51.4138 35.6219 51.1038 35.2339 50.8198 34.8359C50.5358 34.4379 50.2578 34.0359 49.9998 33.6359C49.7418 33.2359 49.4918 32.8099 49.2558 32.3879C49.0198 31.9659 48.7958 31.5479 48.5818 31.0859C48.4694 30.8234 48.4616 30.5279 48.5599 30.2598C48.6582 29.9917 48.8552 29.7712 49.1106 29.6435C49.366 29.5158 49.6605 29.4905 49.934 29.5727C50.2075 29.655 50.4392 29.8385 50.5818 30.0859L50.5998 30.0899Z" fill="#FFB573"/>
<path d="M49.4958 28.476C50.8018 28.906 51.0138 29.492 51.7298 31.656C51.2538 32.954 49.3298 33.612 49.3298 33.612C49.3298 33.612 47.0578 29.912 49.4958 28.476Z" fill="#8E7CC3"/>
<path d="M51.2838 31.2919C51.2098 32.0079 51.0258 32.8619 50.6398 34.5399C50.3398 35.9639 50.3358 38.7399 49.8558 38.8859C48.9338 39.3419 46.6258 39.1659 42.5978 37.9219C42.7258 35.8419 42.9678 34.4299 42.2758 29.6579C42.2322 29.4078 42.245 29.151 42.3132 28.9064C42.3814 28.6618 42.5032 28.4355 42.6699 28.2439C42.8366 28.0523 43.0439 27.9003 43.2767 27.799C43.5095 27.6976 43.762 27.6494 44.0158 27.6579C44.3078 27.6579 44.6158 27.6819 44.9298 27.7099C46.0376 27.7766 47.1391 27.923 48.2258 28.1479C48.5798 28.2279 48.9458 28.3219 49.2938 28.4179C49.9067 28.593 50.4399 28.975 50.8028 29.4991C51.1656 30.0231 51.3356 30.6567 51.2838 31.2919Z" fill="#8E7CC3"/>
<path d="M37.1838 39.564L37.5838 39.198C37.6582 39.13 37.7152 39.045 37.7501 38.9504C37.7849 38.8557 37.7964 38.7541 37.7838 38.654L37.6738 37.7C37.6527 37.5125 37.5873 37.3327 37.483 37.1755C37.3787 37.0183 37.2384 36.8882 37.0738 36.796L36.8738 36.682C36.1598 37.244 35.8018 38.376 35.8018 38.376L35.6638 38.688C35.6334 38.7511 35.6159 38.8196 35.6123 38.8895C35.6087 38.9594 35.619 39.0293 35.6426 39.0952C35.6663 39.161 35.7028 39.2216 35.75 39.2732C35.7972 39.3249 35.8543 39.3666 35.9178 39.396L36.5318 39.676C36.6397 39.722 36.7586 39.7359 36.8743 39.7161C36.9899 39.6962 37.0974 39.6434 37.1838 39.564Z" fill="#FFB573"/>
<path d="M58.1778 34.76L57.6658 34.56C57.571 34.5242 57.4691 34.5117 57.3685 34.5235C57.2679 34.5353 57.1716 34.5712 57.0878 34.628L56.2878 35.164C56.1308 35.2696 56.0014 35.4114 55.9106 35.5774C55.8197 35.7434 55.7701 35.9288 55.7658 36.118V36.356C56.5918 36.732 57.7658 36.528 57.7658 36.528L58.1058 36.508C58.1757 36.5057 58.2446 36.4895 58.3082 36.4605C58.3719 36.4314 58.4292 36.39 58.4768 36.3387C58.5244 36.2874 58.5614 36.2271 58.5856 36.1614C58.6098 36.0958 58.6207 36.0259 58.6178 35.956L58.5858 35.282C58.5765 35.1645 58.5329 35.0524 58.4604 34.9596C58.3878 34.8667 58.2895 34.7973 58.1778 34.76Z" fill="#FFB573"/>
<path d="M43.4678 30.302L43.2118 30.42L42.9318 30.548C42.7458 30.638 42.5618 30.732 42.3778 30.828C42.0078 31.028 41.6478 31.228 41.2938 31.438C40.9398 31.648 40.5978 31.882 40.2658 32.12C39.9338 32.358 39.6258 32.618 39.3258 32.884L39.4578 32.716C39.3603 32.8594 39.2747 33.0106 39.2018 33.168C39.1138 33.35 39.0318 33.548 38.9518 33.75C38.7918 34.15 38.6358 34.578 38.4918 35.008C38.3478 35.438 38.2018 35.874 38.0598 36.31L37.6278 37.624C37.5859 37.7531 37.4986 37.8626 37.3821 37.9321C37.2655 38.0016 37.1277 38.0265 36.9942 38.002C36.8608 37.9776 36.7407 37.9055 36.6564 37.7992C36.5721 37.6929 36.5292 37.5595 36.5358 37.424C36.5578 36.942 36.6018 36.474 36.6558 36.002C36.7098 35.53 36.7778 35.06 36.8558 34.588C36.9338 34.116 37.0358 33.642 37.1658 33.162C37.2298 32.922 37.2998 32.682 37.3878 32.43C37.4807 32.1526 37.6 31.8847 37.7438 31.63C37.769 31.5883 37.7978 31.5488 37.8298 31.512L37.8778 31.462C38.2072 31.0988 38.56 30.7574 38.9338 30.44C39.3022 30.1269 39.6881 29.8351 40.0898 29.566C40.4861 29.2973 40.8967 29.0503 41.3198 28.826C41.5318 28.714 41.7458 28.608 41.9638 28.504C42.0738 28.454 42.1818 28.402 42.2958 28.354C42.4098 28.306 42.5138 28.264 42.6558 28.21C42.9282 28.1011 43.2324 28.1036 43.5029 28.217C43.7735 28.3304 43.9886 28.5455 44.1019 28.8161C44.2153 29.0866 44.2178 29.3908 44.1089 29.6632C44 29.9356 43.7884 30.1542 43.5198 30.272L43.4678 30.302Z" fill="#FFB573"/>
<path d="M45.3998 28.178C44.4198 27.476 43.8238 27.4 41.4518 28.43C41.1698 29.922 42.0938 32.112 42.0938 32.112C42.0938 32.112 45.2498 30.468 45.3998 28.178Z" fill="#8E7CC3"/>
<path d="M45.6558 24.022C45.8018 25.12 45.8958 27.11 45.1118 27.726C45.1118 27.726 46.1358 27.708 48.0938 29.31C48.8278 28.51 48.4078 28.164 48.4078 28.164C47.2418 27.722 47.3238 26.84 47.5778 26.034L45.6558 24.022Z" fill="#FFB573"/>
<path d="M47.6798 28.986C46.9658 28.986 46.6038 30.024 46.6038 30.024C46.6038 30.024 44.8878 28.656 44.6538 27.694C44.8816 27.6022 45.1045 27.4987 45.3218 27.384C45.3218 27.384 47.3238 28.526 47.6798 28.986Z" fill="white"/>
<path d="M48.3638 28.9599C48.3638 28.9599 48.9038 29.1599 49.0818 29.9599C49.4478 28.4359 48.7338 28.1959 48.7338 28.1959C48.5549 28.0618 48.3324 27.999 48.1098 28.0199C48.2558 28.1218 48.3613 28.2719 48.4077 28.4438C48.4541 28.6156 48.4386 28.7984 48.3638 28.9599Z" fill="white"/>
<path opacity="0.2" d="M46.4398 24.8419L47.5758 26.0419C47.5139 26.2295 47.4691 26.4223 47.4418 26.6179C46.9938 26.4919 46.4018 25.9099 46.3818 25.4179C46.3655 25.224 46.3851 25.0287 46.4398 24.8419Z" fill="#1F1F1F"/>
<path d="M44.4238 22.4239C44.8238 24.1319 44.9698 24.8619 45.9958 25.6419C47.5378 26.8139 49.5398 26.0539 49.6478 24.2859C49.7438 22.6859 49.0598 20.1659 47.2478 19.6859C46.8638 19.5705 46.456 19.5597 46.0664 19.6546C45.6769 19.7495 45.3197 19.9466 45.0319 20.2257C44.744 20.5048 44.5359 20.8557 44.429 21.2422C44.3221 21.6286 44.3203 22.0366 44.4238 22.4239Z" fill="#FFB573"/>
<path d="M44.7578 23.652C45.3858 23.344 46.0518 21.83 45.1578 21.114C45.8958 21.252 46.7418 21.054 47.5238 20.45C48.5438 19.65 50.0458 21.636 49.5518 20.47C48.8398 18.79 46.6938 18.37 44.7518 19.766C42.8098 21.162 42.9478 22.86 44.7578 23.652Z" fill="#263238"/>
<path d="M44.2258 23.3099C44.219 23.3093 44.2126 23.3064 44.2075 23.3018C44.2024 23.2972 44.199 23.2911 44.1976 23.2844C44.1963 23.2777 44.1971 23.2707 44.2 23.2645C44.2029 23.2583 44.2078 23.2532 44.2138 23.2499C44.7138 23.0339 46.8358 22.5819 46.9258 22.5639C46.9299 22.5628 46.9342 22.5624 46.9384 22.563C46.9426 22.5636 46.9466 22.5651 46.9502 22.5674C46.9538 22.5696 46.9569 22.5727 46.9592 22.5762C46.9615 22.5797 46.9631 22.5837 46.9638 22.5879C46.965 22.5959 46.9632 22.6039 46.9588 22.6106C46.9544 22.6173 46.9476 22.622 46.9398 22.6239C46.9178 22.6239 44.7398 23.0939 44.2378 23.3079L44.2258 23.3099Z" fill="white"/>
<path opacity="0.2" d="M46.7998 22.6C46.5854 22.5057 46.3424 22.5 46.1238 22.584C46.3459 22.6332 46.5755 22.6386 46.7998 22.6Z" fill="#1F1F1F"/>
<path opacity="0.2" d="M46.7818 22.752C46.6778 22.73 46.5702 22.731 46.4666 22.7548C46.363 22.7787 46.2658 22.8248 46.1818 22.89C46.3893 22.8867 46.5937 22.8396 46.7818 22.752Z" fill="#1F1F1F"/>
<path d="M47.1718 22.5759C47.1998 22.7219 47.2978 22.8299 47.3918 22.8179C47.4858 22.8059 47.5378 22.6799 47.5098 22.5339C47.4818 22.3879 47.3818 22.2819 47.2898 22.2919C47.1978 22.3019 47.1438 22.4319 47.1718 22.5759Z" fill="#263238"/>
<path d="M48.9278 22.386C48.9558 22.53 49.0558 22.638 49.1478 22.628C49.2398 22.618 49.2938 22.488 49.2658 22.344C49.2378 22.2 49.1398 22.09 49.0458 22.102C48.9518 22.114 48.8998 22.24 48.9278 22.386Z" fill="#263238"/>
<path d="M48.9998 22.1159L49.3238 21.9719C49.3238 21.9719 49.1998 22.2659 48.9998 22.1159Z" fill="#263238"/>
<path d="M48.5998 22.6639C48.7729 22.9902 48.9866 23.2933 49.2358 23.5659C49.1676 23.6232 49.0876 23.6646 49.0014 23.6871C48.9153 23.7095 48.8252 23.7126 48.7378 23.6959L48.5998 22.6639Z" fill="#ED893E"/>
<path d="M47.9698 24.342C48.0503 24.3489 48.1313 24.3489 48.2118 24.342C48.2173 24.3413 48.2225 24.3395 48.2273 24.3366C48.232 24.3338 48.2361 24.33 48.2393 24.3255C48.2425 24.321 48.2447 24.3158 48.2458 24.3104C48.2469 24.305 48.2469 24.2994 48.2458 24.294C48.2438 24.2825 48.2376 24.2722 48.2283 24.2652C48.219 24.2581 48.2074 24.2548 48.1958 24.256C48.0148 24.278 47.8311 24.2594 47.6582 24.2016C47.4852 24.1438 47.3273 24.0483 47.1958 23.922C47.1919 23.918 47.1872 23.9149 47.182 23.9127C47.1769 23.9105 47.1714 23.9094 47.1658 23.9094C47.1602 23.9094 47.1547 23.9105 47.1495 23.9127C47.1444 23.9149 47.1397 23.918 47.1358 23.922C47.1282 23.9302 47.124 23.9409 47.124 23.952C47.124 23.9632 47.1282 23.9739 47.1358 23.982C47.3607 24.1995 47.6572 24.3275 47.9698 24.342Z" fill="#263238"/>
<path d="M44.0178 23.954C44.1142 24.0915 44.2381 24.2075 44.3816 24.2946C44.5252 24.3817 44.6853 24.438 44.8518 24.46C45.2678 24.494 45.3578 24.01 45.1458 23.58C44.9558 23.194 44.5098 22.708 44.1458 22.876C43.7818 23.044 43.7478 23.6 44.0178 23.954Z" fill="#FFB573"/>
<path d="M46.6098 21.474C46.6209 21.474 46.6319 21.4715 46.642 21.4666C46.652 21.4618 46.6608 21.4547 46.6678 21.446C46.7321 21.3636 46.8158 21.2984 46.9114 21.2562C47.007 21.214 47.1116 21.196 47.2158 21.204C47.2266 21.2057 47.2377 21.2051 47.2483 21.2024C47.2589 21.1996 47.2688 21.1947 47.2774 21.188C47.286 21.1812 47.2932 21.1728 47.2984 21.1631C47.3036 21.1535 47.3068 21.1429 47.3078 21.132C47.3087 21.109 47.3013 21.0865 47.287 21.0685C47.2726 21.0505 47.2524 21.0383 47.2298 21.034C47.0982 21.0223 46.9657 21.0435 46.8443 21.0955C46.7228 21.1475 46.6162 21.2287 46.5338 21.332C46.5241 21.3457 46.5184 21.3617 46.5174 21.3784C46.5163 21.3951 46.52 21.4118 46.5279 21.4265C46.5358 21.4413 46.5476 21.4535 46.5621 21.4619C46.5765 21.4703 46.5931 21.4745 46.6098 21.474Z" fill="#263238"/>
<path d="M49.2518 21.3999C49.2625 21.4011 49.2733 21.4001 49.2836 21.3971C49.2939 21.394 49.3035 21.3888 49.3118 21.3819C49.3198 21.3741 49.3261 21.3648 49.3304 21.3545C49.3348 21.3442 49.337 21.3331 49.337 21.3219C49.337 21.3108 49.3348 21.2997 49.3304 21.2894C49.3261 21.2791 49.3198 21.2698 49.3118 21.2619C49.2254 21.1534 49.1151 21.0663 48.9895 21.0073C48.864 20.9483 48.7265 20.9191 48.5878 20.9219C48.5767 20.9228 48.566 20.9261 48.5563 20.9314C48.5466 20.9368 48.5381 20.9442 48.5315 20.9531C48.5249 20.962 48.5202 20.9722 48.5179 20.983C48.5155 20.9939 48.5155 21.0051 48.5178 21.0159C48.5212 21.0385 48.533 21.0591 48.5507 21.0735C48.5685 21.0879 48.591 21.0952 48.6138 21.0939C48.7238 21.0928 48.8325 21.1169 48.9317 21.1644C49.0309 21.2119 49.1178 21.2815 49.1858 21.3679C49.1938 21.3778 49.2038 21.3858 49.2152 21.3913C49.2266 21.3969 49.2391 21.3998 49.2518 21.3999Z" fill="#263238"/>
<path d="M47.7138 23.4819C47.2918 23.4819 46.9258 23.0339 46.8858 22.4599C46.8616 22.1896 46.9239 21.9185 47.0638 21.6859C47.119 21.5873 47.197 21.5034 47.2913 21.4411C47.3856 21.3788 47.4934 21.34 47.6058 21.3279C48.0478 21.2979 48.4358 21.7559 48.4778 22.3499C48.5198 22.9439 48.1938 23.4499 47.7558 23.4799L47.7138 23.4819ZM47.6478 21.3999H47.6118C47.5089 21.4117 47.4103 21.4478 47.324 21.5052C47.2378 21.5625 47.1664 21.6396 47.1158 21.7299C46.983 21.9512 46.9241 22.209 46.9478 22.4659C46.9858 23.0239 47.3478 23.4539 47.7478 23.4279C48.1478 23.4019 48.4498 22.9219 48.4118 22.3639C48.3738 21.8059 48.0378 21.3999 47.6478 21.3999Z" fill="white"/>
<path d="M49.5838 23.374C49.1618 23.374 48.7938 22.928 48.7538 22.354C48.7305 22.0837 48.7928 21.8129 48.9318 21.58C48.9875 21.4813 49.0659 21.3974 49.1605 21.3351C49.2551 21.2729 49.3632 21.2341 49.4758 21.222C49.9138 21.192 50.3058 21.65 50.3458 22.242C50.3691 22.5123 50.3068 22.783 50.1678 23.016C50.1124 23.1148 50.0341 23.1989 49.9394 23.2612C49.8447 23.3235 49.7365 23.3622 49.6238 23.374H49.5838ZM49.5178 21.284H49.4798C49.3769 21.2958 49.2783 21.3318 49.192 21.3892C49.1058 21.4466 49.0344 21.5236 48.9838 21.614C48.8528 21.8359 48.7941 22.0932 48.8158 22.35C48.8538 22.89 49.1938 23.312 49.5838 23.312H49.6198C49.7228 23.3007 49.8217 23.2648 49.908 23.2074C49.9943 23.1499 50.0655 23.0726 50.1158 22.982C50.2475 22.761 50.3063 22.5042 50.2838 22.248C50.2458 21.706 49.9058 21.284 49.5178 21.284Z" fill="white"/>
<path d="M48.7998 22.4359C48.7945 22.4357 48.7893 22.434 48.7847 22.4312C48.7802 22.4284 48.7764 22.4246 48.7738 22.4199C48.6978 22.2999 48.4758 22.4299 48.4738 22.4299C48.4704 22.4321 48.4666 22.4336 48.4626 22.4343C48.4586 22.4349 48.4546 22.4348 48.4507 22.4339C48.4467 22.4329 48.443 22.4312 48.4398 22.4288C48.4366 22.4264 48.4338 22.4234 48.4318 22.4199C48.4267 22.4141 48.4239 22.4067 48.4239 22.3989C48.4239 22.3912 48.4267 22.3838 48.4318 22.3779C48.4438 22.3779 48.7078 22.2139 48.8158 22.3779C48.8183 22.3812 48.82 22.385 48.8208 22.3891C48.8217 22.3931 48.8216 22.3973 48.8207 22.4013C48.8197 22.4053 48.8179 22.4091 48.8153 22.4123C48.8127 22.4155 48.8095 22.4181 48.8058 22.4199C48.8059 22.4229 48.8054 22.4258 48.8044 22.4285C48.8034 22.4313 48.8018 22.4338 48.7998 22.4359Z" fill="white"/>
<path d="M47.2498 22.3059L47.5718 22.1639C47.5718 22.1639 47.4498 22.4579 47.2498 22.3059Z" fill="#263238"/>
</svg>
