<svg width="100" height="100" viewBox="0 0 100 100" fill="none" xmlns="http://www.w3.org/2000/svg">
<path d="M29.022 41.556C35.736 40.99 41.86 37.076 46.806 31.888C68.552 5.02796 108.428 27.888 82.84 61.172C70.372 78.43 54.878 80.762 39.074 80.7719C7.27196 82.47 5.38196 55 8.94996 47.264C12.618 39.684 22.574 42.294 29.022 41.556Z" fill="#FF8A65"/>
<path opacity="0.4" d="M29.022 41.556C35.736 40.99 41.86 37.076 46.806 31.888C68.552 5.02796 108.428 27.888 82.84 61.172C70.372 78.43 54.878 80.762 39.074 80.7719C7.27196 82.47 5.38196 55 8.94996 47.264C12.618 39.684 22.574 42.294 29.022 41.556Z" fill="#FFCCBC"/>
<path d="M60.6482 48.3479C58.7802 48.0639 57.0902 49.8599 55.8602 49.4719C54.7418 48.9916 53.4863 48.9368 52.3302 49.3179C51.3722 49.8959 50.2562 50.1299 49.0622 50.1899C49.2962 49.2799 49.2902 48.1739 49.1502 46.9579C48.6202 46.6619 48.1862 45.8339 47.8062 44.7139C48.2062 43.6099 47.7762 41.0899 47.3682 38.5959H60.4002L60.6482 48.3479Z" fill="#263238"/>
<path opacity="0.4" d="M60.6482 48.3479C58.7802 48.0639 57.0902 49.8599 55.8602 49.4719C54.7418 48.9916 53.4863 48.9368 52.3302 49.3179C51.3722 49.8959 50.2562 50.1299 49.0622 50.1899C49.2962 49.2799 49.2902 48.1739 49.1502 46.9579C48.6202 46.6619 48.1862 45.8339 47.8062 44.7139C48.2062 43.6099 47.7762 41.0899 47.3682 38.5959H60.4002L60.6482 48.3479Z" fill="white"/>
<path d="M49.8462 83.002H72.9422L70.5962 75.058H49.5462L49.8462 83.002Z" fill="#8E7CC3"/>
<path opacity="0.2" d="M49.8462 83.002H72.9422L70.5962 75.058H49.5462L49.8462 83.002Z" fill="#1F1F1F"/>
<path d="M52.3303 51.18C56.8423 49.44 60.4083 49.696 65.0463 50.64C68.0463 51.25 70.9163 54.24 71.2683 58.076C72.3943 70.332 72.6903 72.252 74.4823 80.492L53.2483 80.892C51.4663 72.006 48.1663 65.552 47.5563 57.254C47.3363 54.29 50.2003 52 52.3303 51.18Z" fill="#8E7CC3"/>
<path opacity="0.7" d="M52.3303 51.18C56.8423 49.44 60.4083 49.696 65.0463 50.64C68.0463 51.25 70.9163 54.24 71.2683 58.076C72.3943 70.332 72.6903 72.252 74.4823 80.492L53.2483 80.892C51.4663 72.006 48.1663 65.552 47.5563 57.254C47.3363 54.29 50.2003 52 52.3303 51.18Z" fill="white"/>
<path d="M47.9842 54.04L38.7802 69.784L43.9502 72.646L51.5342 60.106L47.9842 54.04Z" fill="#8E7CC3"/>
<path opacity="0.2" d="M41.5902 64.9799L42.5842 63.278L43.0102 68.284L41.5902 64.9799Z" fill="#1F1F1F"/>
<path d="M35.7122 61.634L39.1622 71.034C39.5822 72.464 41.1622 74.354 43.0102 73.42C44.8582 72.486 44.1682 71.096 43.5742 69.472L39.2882 60.52L35.7122 61.634Z" fill="#8E7CC3"/>
<path opacity="0.2" d="M47.6222 60.0179C47.3202 60.4599 45.8222 65.7899 46.6902 68.1159C46.6902 68.1159 48.5602 64.8659 49.3442 63.7259C50.1282 62.5859 47.6222 60.0179 47.6222 60.0179Z" fill="#1F1F1F"/>
<path d="M61.8522 50.644C61.8522 50.644 59.2182 55.422 55.6002 57C53.3822 56.042 53.6842 52.378 53.6842 52.378C53.8617 52.2486 54.0096 52.0829 54.1182 51.892C54.5662 51.092 54.0402 50.092 53.2462 49.292L57.0842 46.254L57.9462 45.574C58.5682 47.418 60.3462 49.73 61.8522 50.644Z" fill="#EEC1BB"/>
<path opacity="0.2" d="M57.1862 49.158C56.9462 50.042 55.9162 51.636 54.1202 51.892C54.5682 51.092 54.0422 50.092 53.2482 49.292L57.0862 46.254C57.1862 46.658 57.3842 48.454 57.1862 49.158Z" fill="#1F1F1F"/>
<path d="M52.6643 51.4C52.7823 51.148 52.2023 50.8 51.9583 50.89C47.7043 52.586 46.4223 56.09 46.7363 58.918C47.4003 64.958 49.7163 66.2 48.9863 83H51.7243C54.6583 64.086 49.7443 57.528 52.6643 51.4Z" fill="#8E7CC3"/>
<path d="M43.3803 61.746C43.2682 61.7451 43.1576 61.7209 43.0553 61.675C42.9531 61.6292 42.8615 61.5626 42.7863 61.4795C42.7111 61.3964 42.654 61.2986 42.6185 61.1923C42.583 61.0861 42.57 60.9736 42.5803 60.862C42.5696 60.7213 42.5909 60.5801 42.6425 60.4489C42.6941 60.3176 42.7747 60.1997 42.8783 60.104C42.9578 60.0346 43.0201 59.9478 43.0603 59.8503C43.1006 59.7527 43.1177 59.6472 43.1103 59.542C43.1103 58.864 42.5223 58.296 42.5103 58.29L42.6263 58.168C42.6523 58.192 43.2743 58.79 43.2743 59.542C43.2817 59.6686 43.2606 59.7953 43.2125 59.9126C43.1643 60.03 43.0905 60.135 42.9963 60.22C42.9075 60.3002 42.8385 60.4 42.7948 60.5114C42.7511 60.6227 42.7338 60.7428 42.7443 60.862C42.7443 61.564 43.3443 61.576 43.3663 61.576L43.3803 61.746Z" fill="#263238"/>
<path d="M35.5462 60.5301C35.5462 60.5301 37.1682 58.2481 37.6962 57.7301C38.6762 56.7741 38.9142 58.472 38.9142 58.472L40.1802 58.142L41.2202 57.7301L42.1722 57.8701L40.4382 58.7641L38.7502 59.4761L38.0002 60.6341L35.5462 60.5301Z" fill="#FFC3BD"/>
<path d="M42.5002 58.166C42.5362 58.268 42.6002 58.34 42.6422 58.324C42.6842 58.308 42.6862 58.232 42.6582 58.14V58.12C42.6557 58.1123 42.6524 58.1049 42.6482 58.098L41.2982 54.36L42.5002 58.166ZM42.6322 58.148C42.6542 58.212 42.6502 58.27 42.6322 58.28C42.6142 58.29 42.5642 58.244 42.5422 58.18C42.5202 58.116 42.5262 58.056 42.5522 58.048C42.5782 58.04 42.6122 58.084 42.6322 58.148Z" fill="#263238"/>
<path opacity="0.4" d="M42.5002 58.166C42.5362 58.268 42.6002 58.34 42.6422 58.324C42.6842 58.308 42.6862 58.232 42.6582 58.14V58.12C42.6557 58.1123 42.6524 58.1049 42.6482 58.098L41.2982 54.36L42.5002 58.166ZM42.6322 58.148C42.6542 58.212 42.6502 58.27 42.6322 58.28C42.6142 58.29 42.5642 58.244 42.5422 58.18C42.5202 58.116 42.5262 58.056 42.5522 58.048C42.5782 58.04 42.6122 58.084 42.6322 58.148Z" fill="white"/>
<path d="M35.5462 60.5301L38.3462 56.9141L40.7462 61.5481C39.8149 62.2008 38.7317 62.6037 37.6002 62.7181C37.3337 62.7434 37.0649 62.7118 36.8115 62.6254C36.5582 62.539 36.326 62.3998 36.1305 62.2169C35.935 62.0341 35.7806 61.8118 35.6774 61.5648C35.5743 61.3178 35.5248 61.0517 35.5322 60.7841L35.5462 60.5301Z" fill="#FFC3BD"/>
<path d="M42.1042 59.844C42.1822 59.984 41.8502 60.564 41.6762 60.676L41.0002 61.302L40.7322 61.5479L40.4582 61.034L39.2142 58.6979L41.7702 57.8979C42.1162 58.4479 42.1042 59.844 42.1042 59.844Z" fill="#FFC3BD"/>
<path d="M38.3402 56.914L39.8222 55.804L41.7342 56.26L42.4762 56.99C42.1182 57.39 41.7682 57.292 41.4222 56.99C41.0382 56.968 40.5202 56.902 40.2702 56.76C39.8116 57.1843 39.3125 57.5628 38.7802 57.89L38.3402 56.914Z" fill="#FFC3BD"/>
<path d="M39.2122 58.698L41.1242 57.95C41.3731 57.9628 41.6226 57.9426 41.8662 57.89C42.2862 57.964 42.5862 57.858 42.6662 57.438L41.8422 57.084L40.5522 57.18L38.7722 57.89L39.2122 58.698Z" fill="#FFC3BD"/>
<path d="M42.4994 58.2029L41.859 66.3759L42.0285 66.3891L42.6688 58.2162L42.4994 58.2029Z" fill="#263238"/>
<path d="M53.2482 80.9L53.0262 83.002L71.3522 82.922L70.7422 80.562L53.2482 80.9Z" fill="#263238"/>
<path d="M77.0782 83H67.2162C67.2162 83 66.9602 79.342 65.7102 71.342C65.4542 69.732 65.2062 68.1 64.9702 66.478C63.9962 59.714 63.2662 53.266 63.6162 50.864C63.6213 50.7691 63.6453 50.6761 63.6867 50.5906C63.7281 50.5051 63.7862 50.4287 63.8576 50.366C63.9289 50.3032 64.0121 50.2553 64.1022 50.2251C64.1923 50.1948 64.2875 50.1829 64.3822 50.19C68.5642 50.536 72.2922 54.288 73.2882 60.128C73.3822 60.69 73.4882 61.328 73.6022 62.02C74.0622 64.898 74.6542 68.768 75.2882 72.584C76.1582 77.782 76.2342 80.646 77.0782 83Z" fill="#8E7CC3"/>
<path opacity="0.2" d="M48.2202 66.066C48.2202 66.066 48.7262 65.89 50.3842 66.304C51.3102 66.534 52.5402 66.252 53.9642 66.23C63.7642 66.066 63.3482 62.294 66.6242 55.892L71.7602 59.322C71.7602 59.322 70.0662 72.1 64.4142 73.962C58.7622 75.824 49.0142 72.46 49.0142 72.46C48.8602 70.3163 48.5952 68.1822 48.2202 66.066Z" fill="#1F1F1F"/>
<path d="M72.2002 57.5021L72.1282 57.8661L72.0682 58.1481L71.9422 58.6721C71.8515 59.0121 71.7575 59.3421 71.6602 59.6621C71.4602 60.3101 71.2602 60.9341 71.0422 61.5561C70.5982 62.7881 70.1082 63.9821 69.5882 65.1561C69.0682 66.3301 68.5142 67.4781 67.9522 68.6201L67.0742 70.3141C66.7452 70.9597 66.2822 71.5276 65.7162 71.9801C65.2449 72.3534 64.7187 72.6516 64.1562 72.8641C63.3031 73.1785 62.4065 73.3593 61.4982 73.4001C60.7487 73.4414 59.9971 73.4247 59.2502 73.3501C57.8921 73.2118 56.5463 72.9718 55.2242 72.6321C52.6972 71.9929 50.2326 71.128 47.8602 70.0481C47.4231 69.836 47.0781 69.472 46.8897 69.0242C46.7013 68.5763 46.6824 68.0752 46.8365 67.6144C46.9905 67.1536 47.3071 66.7647 47.727 66.5202C48.1469 66.2758 48.6414 66.1925 49.1182 66.2861L49.1882 66.3021C51.4922 66.8161 53.9002 67.3141 56.2022 67.6301C57.3143 67.7886 58.4351 67.8794 59.5582 67.9021C60.0519 67.9085 60.5456 67.8838 61.0362 67.8281C61.3726 67.7987 61.7018 67.7135 62.0102 67.5761C62.0902 67.5341 62.1062 67.5081 62.0602 67.5341C61.9765 67.5932 61.908 67.6714 61.8602 67.7621L62.6022 66.0981C63.0982 64.9921 63.5802 63.8801 64.0462 62.7741C64.5122 61.6681 64.9682 60.5641 65.3882 59.4661C65.6002 58.9221 65.8142 58.3761 65.9982 57.8401C66.0942 57.5721 66.1822 57.3061 66.2642 57.0501L66.3882 56.6761L66.4422 56.5061L66.4642 56.4341C66.4642 56.4141 66.4782 56.3821 66.4742 56.4141C66.6185 55.6547 67.0585 54.9838 67.6974 54.5489C68.3364 54.1141 69.1219 53.9508 69.8812 54.0951C70.6405 54.2393 71.3114 54.6793 71.7463 55.3183C72.1812 55.9572 72.3445 56.7427 72.2002 57.5021Z" fill="#8E7CC3"/>
<path d="M43.2402 82.03C41.8942 80.58 39.2282 82.83 39.2282 80.792L39.9642 67.838L42.1882 66.328C42.7342 66.328 43.3522 67.786 43.9502 68.828L43.2402 82.03Z" fill="#8E7CC3"/>
<path opacity="0.2" d="M43.2402 82.03C41.8942 80.58 39.2282 82.83 39.2282 80.792L39.9642 67.838L42.1882 66.328C42.7342 66.328 43.3522 67.786 43.9502 68.828L43.2402 82.03Z" fill="#1F1F1F"/>
<path d="M48.1583 66.418L43.6143 66.066L45.5743 71.026C46.6677 70.7429 47.6707 70.1853 48.4883 69.406C48.6806 69.2195 48.831 68.9943 48.9297 68.7452C49.0283 68.4961 49.0728 68.2289 49.0604 67.9613C49.0479 67.6937 48.9786 67.4318 48.8573 67.193C48.7359 66.9541 48.5651 66.7438 48.3563 66.576L48.1583 66.418Z" fill="#FFC3BD"/>
<path d="M40.8362 69.258L41.5902 70.64L43.8502 71.426L45.5742 71.026L43.6142 66.066L42.1882 68.042L40.8362 69.258Z" fill="#FFC3BD"/>
<path d="M43.6143 66.066L41.5383 66.696L40.1923 67.99L40.5743 68.828L41.9703 67.838L43.7963 68.116L43.6143 66.066Z" fill="#FFC3BD"/>
<path d="M42.1882 66.328C42.1882 66.328 41.2902 67.14 41.2602 67.66C41.2302 68.18 41.3742 68.104 41.5382 68.372C41.7022 68.64 41.8002 80.276 41.8002 80.276C40.5342 80.792 39.5262 79.894 39.2202 80.792C39.2202 80.792 39.9502 68.23 39.9562 67.838C39.9622 67.446 40.8762 66.628 41.5302 66.466L42.1882 66.328Z" fill="#8E7CC3"/>
<path opacity="0.3" d="M42.1882 66.328C42.1882 66.328 41.2902 67.14 41.2602 67.66C41.2302 68.18 41.3742 68.104 41.5382 68.372C41.7022 68.64 41.8002 80.276 41.8002 80.276C40.5342 80.792 39.5262 79.894 39.2202 80.792C39.2202 80.792 39.9502 68.23 39.9562 67.838C39.9622 67.446 40.8762 66.628 41.5302 66.466L42.1882 66.328Z" fill="white"/>
<path opacity="0.2" d="M40.2002 80.4C40.2002 80.4 40.0002 72.224 40.4542 71.958C40.9082 71.692 41.3702 80.4 41.3702 80.4C40.9827 80.462 40.5878 80.462 40.2002 80.4Z" fill="#1F1F1F"/>
<path opacity="0.2" d="M41.2562 67.82C41.2562 67.82 40.1042 67.572 40.2362 67.896C40.3682 68.22 41.6002 69 41.6002 69C41.5943 68.7944 41.5756 68.5893 41.5442 68.386C41.5132 68.3259 41.4727 68.2712 41.4242 68.224C41.363 68.1776 41.3151 68.1157 41.2856 68.0447C41.2561 67.9737 41.246 67.8962 41.2562 67.82Z" fill="#1F1F1F"/>
<path d="M51.8523 34.928C47.8903 36 47.2003 38.468 48.0003 42.628C48.0203 42.736 48.0643 42.948 48.0643 42.948C46.6763 46.018 50.5503 51.06 55.7903 48.716C62.3103 45.8 58.4303 33.146 51.8523 34.928Z" fill="#EEC1BB"/>
<path d="M50.5062 41.714C50.3498 42.3915 50.112 43.0475 49.7982 43.668C49.9584 43.8004 50.1521 43.886 50.3578 43.9152C50.5636 43.9445 50.7734 43.9164 50.9642 43.834L50.5062 41.714Z" fill="#D4827D"/>
<path d="M52.8443 40.732C52.9243 41.06 53.1663 41.282 53.3843 41.228C53.6023 41.174 53.7143 40.866 53.6343 40.538C53.5543 40.21 53.3123 39.988 53.0923 40.042C52.8723 40.096 52.7623 40.4 52.8443 40.732Z" fill="#263238"/>
<path d="M53.1883 40.036L52.4062 39.932C52.4062 39.932 52.9083 40.444 53.1883 40.036Z" fill="#263238"/>
<path d="M48.7563 41.666C48.8363 41.992 49.0782 42.214 49.2962 42.162C49.5142 42.11 49.6262 41.798 49.5462 41.47C49.4662 41.142 49.2243 40.922 49.0043 40.976C48.7843 41.03 48.6743 41.338 48.7563 41.666Z" fill="#263238"/>
<path d="M49.1002 40.968L48.3182 40.864C48.3182 40.864 48.8202 41.376 49.1002 40.968Z" fill="#263238"/>
<path d="M53.9163 42.0799C53.7658 42.1126 53.6091 42.1022 53.4643 42.0499C52.9663 41.8699 52.7803 41.2499 52.7723 41.2159C52.7635 41.1852 52.7673 41.1522 52.7826 41.1242C52.7979 41.0961 52.8237 41.0752 52.8543 41.0659C52.885 41.0578 52.9177 41.0617 52.9456 41.077C52.9736 41.0922 52.9945 41.1176 53.0043 41.1479C53.0043 41.1479 53.1643 41.6859 53.5463 41.8239C53.673 41.8569 53.8057 41.859 53.9334 41.8301C54.0611 41.8012 54.18 41.7422 54.2803 41.6579C54.3068 41.6402 54.3393 41.6337 54.3706 41.6399C54.4019 41.646 54.4295 41.6644 54.4473 41.6909C54.465 41.7175 54.4715 41.75 54.4653 41.7813C54.4592 41.8126 54.4408 41.8402 54.4143 41.8579C54.2642 41.9635 54.0951 42.0389 53.9163 42.0799Z" fill="#D4827D"/>
<path d="M49.0902 43.148C48.9585 43.1737 48.8243 43.1844 48.6902 43.18C48.6608 43.1762 48.6338 43.1618 48.6142 43.1395C48.5946 43.1172 48.5838 43.0886 48.5838 43.059C48.5838 43.0293 48.5946 43.0007 48.6142 42.9784C48.6338 42.9561 48.6608 42.9417 48.6902 42.938C48.8308 42.9553 48.9734 42.941 49.1077 42.896C49.242 42.851 49.3645 42.7765 49.4662 42.678C49.6179 42.4752 49.6833 42.2207 49.6482 41.97C49.6457 41.9543 49.6463 41.9384 49.65 41.923C49.6537 41.9076 49.6603 41.8931 49.6696 41.8802C49.6789 41.8674 49.6906 41.8566 49.7041 41.8483C49.7176 41.84 49.7326 41.8344 49.7482 41.832C49.7638 41.8295 49.7798 41.8301 49.7952 41.8337C49.8106 41.8374 49.8251 41.8441 49.8379 41.8534C49.8507 41.8627 49.8616 41.8744 49.8699 41.8879C49.8782 41.9013 49.8837 41.9163 49.8862 41.932C49.9093 42.0908 49.9003 42.2526 49.8598 42.4079C49.8193 42.5631 49.748 42.7087 49.6502 42.836C49.5028 42.9986 49.3061 43.1082 49.0902 43.148Z" fill="#D4827D"/>
<path d="M55.0963 44.3641C55.074 44.3681 55.051 44.3659 55.0298 44.3578C55.0087 44.3497 54.9901 44.336 54.9763 44.3181C54.1203 43.1741 52.4762 43.2881 52.4602 43.2881C52.4445 43.2894 52.4286 43.2876 52.4136 43.2828C52.3985 43.2779 52.3845 43.2702 52.3725 43.26C52.3604 43.2498 52.3505 43.2373 52.3432 43.2232C52.336 43.2092 52.3316 43.1938 52.3302 43.1781C52.3289 43.1623 52.3307 43.1464 52.3356 43.1314C52.3404 43.1163 52.3481 43.1024 52.3583 43.0903C52.3685 43.0782 52.381 43.0683 52.3951 43.061C52.4091 43.0538 52.4245 43.0494 52.4403 43.0481C52.5143 43.0481 54.2403 42.9261 55.1703 44.1741C55.1886 44.1999 55.1962 44.232 55.1913 44.2633C55.1865 44.2947 55.1696 44.3229 55.1443 44.3421C55.1304 44.3533 55.1139 44.3609 55.0963 44.3641Z" fill="#D4827D"/>
<path d="M60.4882 36.032L60.4422 35.916C59.3382 33.452 57.1782 33.142 57.1782 33.142C56.5262 31.66 55.0842 31.526 53.6522 31.698C52.2202 31.87 51.4522 33.098 49.6682 33.064C47.8842 33.03 46.2022 36.464 45.8822 37.772C45.5622 39.08 45.6622 39.732 46.1742 40.24C46.6862 40.748 46.4142 40.982 46.3262 41.84C46.2682 42.426 47.5382 42.958 47.7262 41.604C47.8242 41.95 47.9042 42.156 47.9042 42.156C47.8622 41.966 47.8262 41.78 47.8002 41.602C46.5442 34.13 54.8562 35.162 54.8562 35.162C55.2562 37.762 57.9862 40.508 57.9862 40.508C59.1962 41.734 59.1862 43.582 59.0002 44.544C58.9503 44.7972 58.88 45.046 58.7902 45.288C58.9502 45.058 59.5302 46.412 59.5302 46.412L60.6462 48.354C61.819 48.7684 63.0683 48.9207 64.3062 48.8C65.1202 48.682 65.5762 48.1 65.8802 47.174C65.0502 46.208 64.3502 45.118 64.1382 43.574C63.8822 42.098 63.3382 40.732 62.2062 39.588C61.2822 38.298 60.5382 37.064 60.4882 36.032Z" fill="#263238"/>
<g opacity="0.4">
<path d="M60.4882 36.032L60.4422 35.916C59.3382 33.452 57.1782 33.142 57.1782 33.142C56.5262 31.66 55.0842 31.526 53.6522 31.698C52.2202 31.87 51.4522 33.098 49.6682 33.064C47.8842 33.03 46.2022 36.464 45.8822 37.772C45.5622 39.08 45.6622 39.732 46.1742 40.24C46.6862 40.748 46.4142 40.982 46.3262 41.84C46.2682 42.426 47.5382 42.958 47.7262 41.604C47.8242 41.95 47.9042 42.156 47.9042 42.156C47.8622 41.966 47.8262 41.78 47.8002 41.602C46.5442 34.13 54.8562 35.162 54.8562 35.162C55.2562 37.762 57.9862 40.508 57.9862 40.508C59.1962 41.734 59.1862 43.582 59.0002 44.544C58.9503 44.7972 58.88 45.046 58.7902 45.288C58.9502 45.058 59.5302 46.412 59.5302 46.412L60.6462 48.354C61.819 48.7684 63.0683 48.9207 64.3062 48.8C65.1202 48.682 65.5762 48.1 65.8802 47.174C65.0502 46.208 64.3502 45.118 64.1382 43.574C63.8822 42.098 63.3382 40.732 62.2062 39.588C61.2822 38.298 60.5382 37.064 60.4882 36.032Z" fill="white"/>
</g>
<path d="M57.5702 41.444C57.4242 40.798 57.7902 39.54 59.0102 39.348C60.2742 39.148 61.5422 41.512 58.6522 42.948C58.2382 43.15 57.8742 42.8 57.5702 41.444Z" fill="#EEC1BB"/>
<path d="M53.9662 38.6C53.9354 38.6031 53.9043 38.5978 53.8762 38.5848C53.848 38.5718 53.8239 38.5515 53.8062 38.526C53.2962 37.804 52.2362 37.86 52.2262 37.862C52.1801 37.8655 52.1345 37.8505 52.0994 37.8203C52.0643 37.7901 52.0427 37.7472 52.0392 37.701C52.0358 37.6549 52.0508 37.6093 52.081 37.5742C52.1112 37.5391 52.1541 37.5175 52.2002 37.514C52.2522 37.514 53.4662 37.446 54.0882 38.328C54.1053 38.3531 54.1156 38.3822 54.1182 38.4124C54.1207 38.4427 54.1154 38.4731 54.1027 38.5006C54.09 38.5282 54.0704 38.552 54.0458 38.5698C54.0212 38.5876 53.9924 38.5987 53.9622 38.602L53.9662 38.6Z" fill="#263238"/>
<g opacity="0.2">
<path d="M53.9662 38.6C53.9354 38.6031 53.9043 38.5978 53.8762 38.5848C53.848 38.5718 53.8239 38.5515 53.8062 38.526C53.2962 37.804 52.2362 37.86 52.2262 37.862C52.1801 37.8655 52.1345 37.8505 52.0994 37.8203C52.0643 37.7901 52.0427 37.7472 52.0392 37.701C52.0358 37.6549 52.0508 37.6093 52.081 37.5742C52.1112 37.5391 52.1541 37.5175 52.2002 37.514C52.2522 37.514 53.4662 37.446 54.0882 38.328C54.1053 38.3531 54.1156 38.3822 54.1182 38.4124C54.1207 38.4427 54.1154 38.4731 54.1027 38.5006C54.09 38.5282 54.0704 38.552 54.0458 38.5698C54.0212 38.5876 53.9924 38.5987 53.9622 38.602L53.9662 38.6Z" fill="white"/>
</g>
<path d="M47.9563 39.6459C47.93 39.666 47.8985 39.6782 47.8656 39.681C47.8326 39.6838 47.7996 39.6772 47.7703 39.6619C47.7294 39.6402 47.6987 39.6033 47.6848 39.5591C47.671 39.515 47.6751 39.4671 47.6963 39.4259C48.2383 38.3899 49.0623 38.2579 49.0963 38.2519C49.1421 38.245 49.1889 38.2567 49.2262 38.2842C49.2635 38.3118 49.2884 38.3531 49.2953 38.3989C49.3022 38.4448 49.2905 38.4916 49.263 38.5289C49.2354 38.5662 49.1941 38.591 49.1483 38.5979C49.1163 38.5979 48.4583 38.7199 48.0023 39.5879C47.9914 39.6104 47.9757 39.6302 47.9563 39.6459Z" fill="#263238"/>
<g opacity="0.2">
<path d="M47.9563 39.6459C47.93 39.666 47.8985 39.6782 47.8656 39.681C47.8326 39.6838 47.7996 39.6772 47.7703 39.6619C47.7294 39.6402 47.6987 39.6033 47.6848 39.5591C47.671 39.515 47.6751 39.4671 47.6963 39.4259C48.2383 38.3899 49.0623 38.2579 49.0963 38.2519C49.1421 38.245 49.1889 38.2567 49.2262 38.2842C49.2635 38.3118 49.2884 38.3531 49.2953 38.3989C49.3022 38.4448 49.2905 38.4916 49.263 38.5289C49.2354 38.5662 49.1941 38.591 49.1483 38.5979C49.1163 38.5979 48.4583 38.7199 48.0023 39.5879C47.9914 39.6104 47.9757 39.6302 47.9563 39.6459Z" fill="white"/>
</g>
<path d="M50.6462 45.466C50.5382 45.466 50.4302 45.466 50.3162 45.454C50.3107 45.454 50.3053 45.4529 50.3002 45.4508C50.2951 45.4487 50.2904 45.4456 50.2865 45.4417C50.2826 45.4378 50.2795 45.4331 50.2774 45.428C50.2753 45.4229 50.2742 45.4175 50.2742 45.412C50.2742 45.4065 50.2753 45.401 50.2774 45.3959C50.2795 45.3908 50.2826 45.3862 50.2865 45.3823C50.2904 45.3784 50.2951 45.3753 50.3002 45.3732C50.3053 45.3711 50.3107 45.37 50.3162 45.37C52.5462 45.53 53.5162 43.998 53.5342 43.982C53.5404 43.9727 53.5499 43.9663 53.5608 43.964C53.5716 43.9618 53.5829 43.9639 53.5922 43.97C53.597 43.9728 53.6011 43.9766 53.6044 43.9811C53.6077 43.9856 53.61 43.9907 53.6113 43.9961C53.6126 44.0014 53.6128 44.007 53.612 44.0125C53.6111 44.018 53.6091 44.0233 53.6062 44.028C53.2651 44.4883 52.8178 44.8594 52.3025 45.1097C51.7871 45.3601 51.2189 45.4823 50.6462 45.466Z" fill="#263238"/>
<path d="M48.7302 43.4001C48.4613 43.4001 48.1983 43.3203 47.9747 43.1709C47.751 43.0214 47.5767 42.809 47.4738 42.5605C47.3708 42.312 47.3439 42.0385 47.3964 41.7747C47.4488 41.5109 47.5784 41.2686 47.7686 41.0784C47.9588 40.8882 48.2011 40.7587 48.4649 40.7062C48.7287 40.6537 49.0022 40.6806 49.2507 40.7836C49.4992 40.8865 49.7116 41.0608 49.861 41.2845C50.0105 41.5081 50.0902 41.7711 50.0902 42.0401C50.0892 42.4004 49.9456 42.7457 49.6907 43.0006C49.4359 43.2554 49.0906 43.399 48.7302 43.4001ZM48.7302 40.8481C48.4925 40.8461 48.2595 40.9148 48.0609 41.0454C47.8622 41.1761 47.7068 41.3628 47.6145 41.5819C47.5221 41.801 47.4969 42.0425 47.5421 42.276C47.5873 42.5094 47.7008 42.7242 47.8682 42.893C48.0356 43.0618 48.2494 43.1771 48.4824 43.2242C48.7155 43.2713 48.9573 43.2482 49.1771 43.1576C49.397 43.0671 49.585 42.9133 49.7173 42.7158C49.8496 42.5182 49.9202 42.2858 49.9202 42.0481C49.9208 41.7312 49.796 41.4269 49.573 41.2018C49.3501 40.9766 49.0471 40.8487 48.7302 40.8461V40.8481Z" fill="#263238"/>
<path d="M52.5882 42.356C52.3192 42.356 52.0563 42.2762 51.8326 42.1268C51.609 41.9773 51.4347 41.7649 51.3317 41.5164C51.2288 41.2679 51.2019 40.9945 51.2543 40.7307C51.3068 40.4669 51.4363 40.2245 51.6265 40.0343C51.8167 39.8441 52.0591 39.7146 52.3229 39.6621C52.5867 39.6096 52.8602 39.6366 53.1087 39.7395C53.3572 39.8424 53.5696 40.0168 53.719 40.2404C53.8684 40.4641 53.9482 40.727 53.9482 40.996C53.9477 41.3565 53.8042 41.7021 53.5493 41.9571C53.2944 42.212 52.9487 42.3555 52.5882 42.356ZM52.5882 39.804C52.3505 39.802 52.1175 39.8707 51.9188 40.0013C51.7202 40.132 51.5648 40.3187 51.4725 40.5378C51.3801 40.7569 51.3549 40.9985 51.4001 41.2319C51.4452 41.4653 51.5587 41.6801 51.7261 41.8489C51.8936 42.0177 52.1074 42.133 52.3404 42.1801C52.5734 42.2273 52.8152 42.2041 53.0351 42.1136C53.2549 42.023 53.443 41.8693 53.5753 41.6717C53.7076 41.4742 53.7782 41.2418 53.7782 41.004C53.7793 40.6868 53.6547 40.382 53.4317 40.1564C53.2087 39.9308 52.9054 39.8026 52.5882 39.8V39.804Z" fill="#263238"/>
<path d="M50.0442 41.73L49.8782 41.698C49.8782 41.684 49.9502 41.344 50.4622 41.156C50.754 41.0412 51.0785 41.0412 51.3702 41.156L51.3002 41.308C51.0486 41.2148 50.7719 41.2148 50.5202 41.308C50.1042 41.468 50.0462 41.72 50.0442 41.73Z" fill="#263238"/>
<path d="M57.8329 39.6367L53.8409 40.6796L53.8838 40.844L57.8759 39.8012L57.8329 39.6367Z" fill="#263238"/>
<path d="M83.8022 80.386H16.0062V83.546H83.8022V80.386Z" fill="#8E7CC3"/>
<path opacity="0.2" d="M83.8022 80.386H16.0062V83.546H83.8022V80.386Z" fill="#FAFAFA"/>
<path d="M84.8142 80.386H15.1862C14.9758 80.386 14.7738 80.4689 14.6241 80.6168C14.4743 80.7646 14.3889 80.9656 14.3862 81.176C14.3889 81.3864 14.4743 81.5873 14.6241 81.7352C14.7738 81.8831 14.9758 81.966 15.1862 81.966H84.8142C85.0229 81.9634 85.2224 81.8793 85.37 81.7317C85.5176 81.5841 85.6016 81.3847 85.6042 81.176C85.6016 80.9673 85.5176 80.7678 85.37 80.6202C85.2224 80.4726 85.0229 80.3886 84.8142 80.386Z" fill="#8E7CC3"/>
<path opacity="0.4" d="M84.8142 80.386H15.1862C14.9758 80.386 14.7738 80.4689 14.6241 80.6168C14.4743 80.7646 14.3889 80.9656 14.3862 81.176C14.3889 81.3864 14.4743 81.5873 14.6241 81.7352C14.7738 81.8831 14.9758 81.966 15.1862 81.966H84.8142C85.0229 81.9634 85.2224 81.8793 85.37 81.7317C85.5176 81.5841 85.6016 81.3847 85.6042 81.176C85.6016 80.9673 85.5176 80.7678 85.37 80.6202C85.2224 80.4726 85.0229 80.3886 84.8142 80.386Z" fill="#FAFAFA"/>
<path d="M65.1679 72.2261L65.1519 72.2501L65.1359 72.2801L62.3839 77.0481L65.3439 72.3621C65.4199 72.2301 65.4379 72.1001 65.3859 72.0701C65.3339 72.0401 65.2419 72.1161 65.1679 72.2261ZM65.3479 72.1421C65.3719 72.1541 65.3639 72.2121 65.3319 72.2681C65.2999 72.3241 65.2539 72.3581 65.2319 72.3461C65.2099 72.3341 65.2159 72.2761 65.2479 72.2181C65.2799 72.1601 65.3239 72.1281 65.3479 72.1421Z" fill="#263238"/>
<path opacity="0.2" d="M65.1679 72.2261L65.1519 72.2501L65.1359 72.2801L62.3839 77.0481L65.3439 72.3621C65.4199 72.2301 65.4379 72.1001 65.3859 72.0701C65.3339 72.0401 65.2419 72.1161 65.1679 72.2261ZM65.3479 72.1421C65.3719 72.1541 65.3639 72.2121 65.3319 72.2681C65.2999 72.3241 65.2539 72.3581 65.2319 72.3461C65.2099 72.3341 65.2159 72.2761 65.2479 72.2181C65.2799 72.1601 65.3239 72.1281 65.3479 72.1421Z" fill="white"/>
<path d="M53.2739 70.904V70.914C53.2793 70.9216 53.284 70.9296 53.2879 70.938L53.3079 70.966L56.2539 75.618L53.4759 70.818C53.3959 70.692 53.2879 70.618 53.2379 70.646C53.1879 70.674 53.2099 70.788 53.2739 70.904ZM53.2739 70.704C53.2959 70.69 53.3419 70.722 53.3779 70.778C53.4139 70.834 53.4219 70.888 53.3999 70.902C53.3779 70.916 53.3299 70.884 53.2959 70.83C53.2619 70.776 53.2579 70.718 53.2819 70.704H53.2739Z" fill="#263238"/>
<path opacity="0.2" d="M53.2739 70.904V70.914C53.2793 70.9216 53.284 70.9296 53.2879 70.938L53.3079 70.966L56.2539 75.618L53.4759 70.818C53.3959 70.692 53.2879 70.618 53.2379 70.646C53.1879 70.674 53.2099 70.788 53.2739 70.904ZM53.2739 70.704C53.2959 70.69 53.3419 70.722 53.3779 70.778C53.4139 70.834 53.4219 70.888 53.3999 70.902C53.3779 70.916 53.3299 70.884 53.2959 70.83C53.2619 70.776 53.2579 70.718 53.2819 70.704H53.2739Z" fill="white"/>
<path d="M58.6359 70.4841V70.4941C58.6348 70.5034 58.6348 70.5128 58.6359 70.5221C58.6348 70.5334 58.6348 70.5448 58.6359 70.5561L59.2119 76.0321L58.8519 70.5001C58.8359 70.3501 58.7739 70.2341 58.7139 70.2401C58.6539 70.2461 58.6299 70.3521 58.6359 70.4841ZM58.7299 70.3081C58.7579 70.3081 58.7839 70.3561 58.7919 70.4201C58.7999 70.4841 58.7919 70.5401 58.7559 70.5421C58.7199 70.5441 58.7019 70.4941 58.6939 70.4301C58.6859 70.3661 58.7039 70.3121 58.7299 70.3081Z" fill="#263238"/>
<path opacity="0.2" d="M58.6359 70.4841V70.4941C58.6348 70.5034 58.6348 70.5128 58.6359 70.5221C58.6348 70.5334 58.6348 70.5448 58.6359 70.5561L59.2119 76.0321L58.8519 70.5001C58.8359 70.3501 58.7739 70.2341 58.7139 70.2401C58.6539 70.2461 58.6299 70.3521 58.6359 70.4841ZM58.7299 70.3081C58.7579 70.3081 58.7839 70.3561 58.7919 70.4201C58.7999 70.4841 58.7919 70.5401 58.7559 70.5421C58.7199 70.5441 58.7019 70.4941 58.6939 70.4301C58.6859 70.3661 58.7039 70.3121 58.7299 70.3081Z" fill="white"/>
<path d="M62.9239 71.496L62.9119 71.52L62.8999 71.552L60.6999 76.604L63.0999 71.604C63.1599 71.466 63.1639 71.334 63.0999 71.308C63.0359 71.282 62.9839 71.378 62.9239 71.496ZM63.0919 71.39C63.1159 71.4 63.1159 71.458 63.0919 71.516C63.0679 71.574 63.0259 71.616 63.0019 71.606C62.9779 71.596 62.9779 71.538 63.0019 71.478C63.0259 71.418 63.0679 71.38 63.0919 71.4V71.39Z" fill="#263238"/>
<path opacity="0.2" d="M62.9239 71.496L62.9119 71.52L62.8999 71.552L60.6999 76.604L63.0999 71.604C63.1599 71.466 63.1639 71.334 63.0999 71.308C63.0359 71.282 62.9839 71.378 62.9239 71.496ZM63.0919 71.39C63.1159 71.4 63.1159 71.458 63.0919 71.516C63.0679 71.574 63.0259 71.616 63.0019 71.606C62.9779 71.596 62.9779 71.538 63.0019 71.478C63.0259 71.418 63.0679 71.38 63.0919 71.4V71.39Z" fill="white"/>
<path d="M64.2839 78.7461H54.0979V80.2861H64.2839V78.7461Z" fill="#8E7CC3"/>
<path d="M64.2839 78.746H54.0979C54.0979 78.746 53.9499 73.974 59.1919 73.974C64.4339 73.974 64.2839 78.746 64.2839 78.746Z" fill="#8E7CC3"/>
<path opacity="0.5" d="M64.2839 78.746H54.0979C54.0979 78.746 53.9499 73.974 59.1919 73.974C64.4339 73.974 64.2839 78.746 64.2839 78.746Z" fill="white"/>
<path d="M60.9139 70.1221V70.1361C60.9139 70.1481 60.9139 70.1601 60.9139 70.1741C60.9129 70.1894 60.9129 70.2047 60.9139 70.2201L60.0319 75.0861H60.1419L61.2219 70.2281C61.2599 70.0281 61.2219 69.8421 61.1399 69.8281C61.0579 69.8141 60.9579 69.9441 60.9139 70.1221ZM61.1139 69.9221C61.1499 69.9221 61.1679 70.0061 61.1519 70.0941C61.1359 70.1821 61.0919 70.2501 61.0559 70.2441C61.0199 70.2381 61.0019 70.1601 61.0179 70.0701C61.0339 69.9801 61.0719 69.9201 61.1099 69.9261L61.1139 69.9221Z" fill="#263238"/>
<path opacity="0.2" d="M60.9139 70.1221V70.1361C60.9139 70.1481 60.9139 70.1601 60.9139 70.1741C60.9129 70.1894 60.9129 70.2047 60.9139 70.2201L60.0319 75.0861H60.1419L61.2219 70.2281C61.2599 70.0281 61.2219 69.8421 61.1399 69.8281C61.0579 69.8141 60.9579 69.9441 60.9139 70.1221ZM61.1139 69.9221C61.1499 69.9221 61.1679 70.0061 61.1519 70.0941C61.1359 70.1821 61.0919 70.2501 61.0559 70.2441C61.0199 70.2381 61.0019 70.1601 61.0179 70.0701C61.0339 69.9801 61.0719 69.9201 61.1099 69.9261L61.1139 69.9221Z" fill="white"/>
<path d="M55.9819 71.71V71.724C55.9819 71.736 55.9819 71.748 55.9819 71.762C55.9819 71.776 55.9819 71.7921 55.9959 71.8061L57.2919 76.5781L57.3899 76.5321L56.2779 71.6821C56.2239 71.4821 56.1139 71.3341 56.0319 71.3561C55.9499 71.3781 55.9459 71.53 55.9819 71.71ZM56.0739 71.448C56.1099 71.438 56.1599 71.5021 56.1819 71.5881C56.2039 71.6741 56.1959 71.7541 56.1599 71.7641C56.1239 71.7741 56.0759 71.71 56.0519 71.624C56.0279 71.538 56.0379 71.458 56.0739 71.448Z" fill="#263238"/>
<path opacity="0.2" d="M55.9819 71.71V71.724C55.9819 71.736 55.9819 71.748 55.9819 71.762C55.9819 71.776 55.9819 71.7921 55.9959 71.8061L57.2919 76.5781L57.3899 76.5321L56.2779 71.6821C56.2239 71.4821 56.1139 71.3341 56.0319 71.3561C55.9499 71.3781 55.9459 71.53 55.9819 71.71ZM56.0739 71.448C56.1099 71.438 56.1599 71.5021 56.1819 71.5881C56.2039 71.6741 56.1959 71.7541 56.1599 71.7641C56.1239 71.7741 56.0759 71.71 56.0519 71.624C56.0279 71.538 56.0379 71.458 56.0739 71.448Z" fill="white"/>
<path d="M79.6059 79.878L81.0799 72.16L79.4439 70.014L78.7099 70.138L79.4099 71.782L79.0339 80.408L79.6059 79.878Z" fill="#8E7CC3"/>
<path opacity="0.5" d="M79.6059 79.878L81.0799 72.16L79.4439 70.014L78.7099 70.138L79.4099 71.782L79.0339 80.408L79.6059 79.878Z" fill="white"/>
<path d="M78.4099 70.2L79.6879 69.982C79.6879 69.982 79.9599 65.75 79.9099 66.104C79.8539 66.492 80.1659 64.01 78.3899 63.852C77.1419 63.74 76.0839 64.452 76.2959 66.336C76.5079 68.22 78.3059 69.26 78.4099 70.2ZM76.9339 66.4C76.7839 65.308 77.2079 64.348 77.8799 64.256C78.5519 64.164 79.2199 64.974 79.3679 66.066C79.5159 67.158 79.0939 68.118 78.4219 68.21C77.7499 68.302 77.0819 67.5 76.9339 66.4Z" fill="#8E7CC3"/>
<path opacity="0.1" d="M78.4099 70.2L79.6879 69.982C79.6879 69.982 79.9599 65.75 79.9099 66.104C79.8539 66.492 80.1659 64.01 78.3899 63.852C77.1419 63.74 76.0839 64.452 76.2959 66.336C76.5079 68.22 78.3059 69.26 78.4099 70.2ZM76.9339 66.4C76.7839 65.308 77.2079 64.348 77.8799 64.256C78.5519 64.164 79.2199 64.974 79.3679 66.066C79.5159 67.158 79.0939 68.118 78.4219 68.21C77.7499 68.302 77.0819 67.5 76.9339 66.4Z" fill="white"/>
<path d="M84.1599 66.83C84.7059 65.004 83.7899 64.124 82.5439 64.012C80.7679 63.85 80.6299 66.348 80.6459 65.956C80.6599 65.598 80.1699 69.81 80.1699 69.81L81.3879 70.254C81.6559 69.356 83.6139 68.656 84.1599 66.83ZM81.7299 68.31C81.0839 68.1 80.8399 67.08 81.1819 66.032C81.5239 64.984 82.3239 64.306 82.9699 64.518C83.6159 64.73 83.8599 65.748 83.5179 66.796C83.1759 67.844 82.3739 68.522 81.7299 68.31Z" fill="#8E7CC3"/>
<path opacity="0.1" d="M84.1599 66.83C84.7059 65.004 83.7899 64.124 82.5439 64.012C80.7679 63.85 80.6299 66.348 80.6459 65.956C80.6599 65.598 80.1699 69.81 80.1699 69.81L81.3879 70.254C81.6559 69.356 83.6139 68.656 84.1599 66.83ZM81.7299 68.31C81.0839 68.1 80.8399 67.08 81.1819 66.032C81.5239 64.984 82.3239 64.306 82.9699 64.518C83.6159 64.73 83.8599 65.748 83.5179 66.796C83.1759 67.844 82.3739 68.522 81.7299 68.31Z" fill="white"/>
<path d="M78.4779 79.57L78.4099 71.714L80.4039 69.896L81.1039 70.15L80.1199 71.642L78.9459 80.196L78.4779 79.57Z" fill="#8E7CC3"/>
<path opacity="0.7" d="M78.4779 79.57L78.4099 71.714L80.4039 69.896L81.1039 70.15L80.1199 71.642L78.9459 80.196L78.4779 79.57Z" fill="white"/>
<path d="M79.1999 72.0661C79.1554 72.0212 79.1251 71.9642 79.1129 71.9022C79.1008 71.8402 79.1072 71.7759 79.1315 71.7176C79.1558 71.6592 79.1968 71.6094 79.2494 71.5743C79.3019 71.5392 79.3637 71.5205 79.4269 71.5205C79.4901 71.5205 79.5519 71.5392 79.6045 71.5743C79.6571 71.6094 79.6981 71.6592 79.7224 71.7176C79.7467 71.7759 79.7531 71.8402 79.7409 71.9022C79.7288 71.9642 79.6985 72.0212 79.6539 72.0661C79.6242 72.096 79.5888 72.1197 79.5499 72.136C79.5109 72.1522 79.4691 72.1605 79.4269 72.1605C79.3847 72.1605 79.343 72.1522 79.304 72.136C79.265 72.1197 79.2297 72.096 79.1999 72.0661Z" fill="#8E7CC3"/>
<path opacity="0.2" d="M79.1999 72.0661C79.1554 72.0212 79.1251 71.9642 79.1129 71.9022C79.1008 71.8402 79.1072 71.7759 79.1315 71.7176C79.1558 71.6592 79.1968 71.6094 79.2494 71.5743C79.3019 71.5392 79.3637 71.5205 79.4269 71.5205C79.4901 71.5205 79.5519 71.5392 79.6045 71.5743C79.6571 71.6094 79.6981 71.6592 79.7224 71.7176C79.7467 71.7759 79.7531 71.8402 79.7409 71.9022C79.7288 71.9642 79.6985 72.0212 79.6539 72.0661C79.6242 72.096 79.5888 72.1197 79.5499 72.136C79.5109 72.1522 79.4691 72.1605 79.4269 72.1605C79.3847 72.1605 79.343 72.1522 79.304 72.136C79.265 72.1197 79.2297 72.096 79.1999 72.0661Z" fill="white"/>
<path d="M81.4539 72.506H75.8539V79.854C75.8481 79.9163 75.8558 79.9792 75.8764 80.0383C75.8969 80.0974 75.9299 80.1515 75.9731 80.1968C76.0163 80.2421 76.0688 80.2776 76.1269 80.3009C76.185 80.3242 76.2474 80.3348 76.3099 80.332H80.9999C81.0601 80.3322 81.1198 80.3206 81.1755 80.2977C81.2312 80.2747 81.2818 80.241 81.3244 80.1984C81.367 80.1558 81.4007 80.1052 81.4236 80.0496C81.4465 79.9939 81.4582 79.9342 81.4579 79.874L81.4539 72.506Z" fill="#8E7CC3"/>
<path opacity="0.3" d="M81.4539 72.506H75.8539V79.854C75.8481 79.9163 75.8558 79.9792 75.8764 80.0383C75.8969 80.0974 75.9299 80.1515 75.9731 80.1968C76.0163 80.2421 76.0688 80.2776 76.1269 80.3009C76.185 80.3242 76.2474 80.3348 76.3099 80.332H80.9999C81.0601 80.3322 81.1198 80.3206 81.1755 80.2977C81.2312 80.2747 81.2818 80.241 81.3244 80.1984C81.367 80.1558 81.4007 80.1052 81.4236 80.0496C81.4465 79.9939 81.4582 79.9342 81.4579 79.874L81.4539 72.506Z" fill="white"/>
<path d="M34.2759 72.6H29.3599C29.1822 72.6 29.0118 72.5294 28.8862 72.4037C28.7605 72.2781 28.6899 72.1077 28.6899 71.93C28.6905 71.7526 28.7613 71.5827 28.8869 71.4575C29.0125 71.3323 29.1826 71.262 29.3599 71.262H34.2759C34.4533 71.262 34.6234 71.3323 34.749 71.4575C34.8746 71.5827 34.9454 71.7526 34.9459 71.93C34.9459 72.1077 34.8754 72.2781 34.7497 72.4037C34.6241 72.5294 34.4536 72.6 34.2759 72.6Z" fill="#263238"/>
<path d="M34.2759 80.348H29.3599C29.1826 80.348 29.0125 80.2777 28.8869 80.1525C28.7613 80.0273 28.6905 79.8574 28.6899 79.68C28.6899 79.5023 28.7605 79.3319 28.8862 79.2062C29.0118 79.0806 29.1822 79.01 29.3599 79.01H34.2759C34.4536 79.01 34.6241 79.0806 34.7497 79.2062C34.8754 79.3319 34.9459 79.5023 34.9459 79.68C34.9454 79.8574 34.8746 80.0273 34.749 80.1525C34.6234 80.2777 34.4533 80.348 34.2759 80.348Z" fill="#263238"/>
<path d="M33.84 72.604H29.796V79.01H33.84V72.604Z" fill="#8E7CC3"/>
<path opacity="0.3" d="M33.84 72.604H29.796V79.01H33.84V72.604Z" fill="white"/>
<path d="M29.796 73.9719L33.84 75.0139V75.1839L29.796 74.0979V73.9719Z" fill="#8E7CC3"/>
<path d="M29.796 74.246L33.84 75.288V75.456L29.796 74.372V74.246Z" fill="#8E7CC3"/>
<path d="M29.796 74.52L33.84 75.562V75.73L29.796 74.646V74.52Z" fill="#8E7CC3"/>
<path d="M29.796 74.7939L33.84 75.8359V76.0039L29.796 74.9199V74.7939Z" fill="#8E7CC3"/>
<path d="M29.796 75.078L33.84 76.12V76.288L29.796 75.204V75.078Z" fill="#8E7CC3"/>
<path d="M29.796 75.338L33.84 76.38V76.548L29.796 75.464V75.338Z" fill="#8E7CC3"/>
<path d="M29.796 76.436L31.248 75.942L31.464 75.988L29.796 76.588V76.436Z" fill="#8E7CC3"/>
<path d="M29.796 76.684L31.64 76.032L31.862 76.088L29.796 76.834V76.684Z" fill="#8E7CC3"/>
<path d="M29.796 76.9159L31.984 76.1339L32.226 76.1799L29.796 77.0699V76.9159Z" fill="#8E7CC3"/>
<path d="M29.796 77.168L32.342 76.22L32.628 76.3L29.796 77.322V77.168Z" fill="#8E7CC3"/>
<path d="M25.7859 79.0763C27.5019 77.3603 27.5019 74.5782 25.7859 72.8622C24.07 71.1462 21.2878 71.1462 19.5719 72.8622C17.8559 74.5782 17.8559 77.3603 19.5719 79.0763C21.2878 80.7922 24.07 80.7922 25.7859 79.0763Z" fill="#8E7CC3"/>
<path opacity="0.7" d="M18.7022 74.098C21.8022 74.7447 24.1702 76.396 25.8062 79.052L25.9962 78.852C25.1911 77.5864 24.1416 76.4942 22.909 75.6394C21.6765 74.7847 20.2857 74.1845 18.8182 73.874L18.7022 74.098Z" fill="white"/>
<path opacity="0.7" d="M18.9503 73.644C22.0123 74.38 24.4443 76.006 26.1503 78.662L26.3143 78.438C24.6203 75.838 22.2003 74.192 19.0943 73.438L18.9503 73.644Z" fill="white"/>
<path opacity="0.7" d="M19.2462 73.226C22.4602 74.1 24.9282 75.702 26.4462 78.24L26.5842 77.998C25.0322 75.432 22.5562 73.87 19.4222 73.03L19.2462 73.226Z" fill="white"/>
<path opacity="0.7" d="M19.6002 72.8321C22.6742 73.6181 25.1042 75.1841 26.6822 77.7721L26.7902 77.5101C25.2102 74.9741 22.8262 73.4181 19.7902 72.6541L19.6002 72.8321Z" fill="white"/>
<path opacity="0.7" d="M20.0202 72.47C23.0202 73.25 25.3622 74.77 26.8822 77.256L26.9562 76.97C25.4802 74.526 23.1822 73.044 20.2422 72.312L20.0202 72.47Z" fill="white"/>
<path opacity="0.5" d="M23.6202 76.46C22.4536 77.4215 21.4792 78.5947 20.7482 79.918L20.5822 79.828C21.3511 78.5173 22.3155 77.3317 23.4422 76.312L23.6202 76.46Z" fill="white"/>
<path opacity="0.5" d="M23.3242 76.214C22.1714 77.2249 21.1847 78.4107 20.4002 79.728L20.2422 79.63C21.0451 78.3211 22.0183 77.1246 23.1362 76.072L23.3242 76.214Z" fill="white"/>
<path opacity="0.5" d="M23.0182 75.978C21.8598 76.9956 20.8684 78.1888 20.0802 79.514L19.9382 79.396C20.6783 78.0461 21.6575 76.8418 22.8282 75.842L23.0182 75.978Z" fill="white"/>
<path opacity="0.5" d="M22.7022 75.7541C21.4802 76.7901 20.4442 77.9541 19.7802 79.2721L19.6422 79.1461C20.3151 77.7686 21.2957 76.5642 22.5082 75.6261L22.7022 75.7541Z" fill="white"/>
<path opacity="0.5" d="M22.3482 75.5161C21.124 76.4181 20.1382 77.6051 19.4762 78.9741L19.3502 78.8381C19.9543 77.4598 20.9223 76.272 22.1502 75.4021L22.3482 75.5161Z" fill="white"/>
<path opacity="0.5" d="M21.9702 75.3C20.7822 75.96 19.8982 77.15 19.1922 78.644L19.0782 78.49C19.6402 77.156 20.3502 75.928 21.7642 75.188L21.9702 75.3Z" fill="white"/>
<path opacity="0.5" d="M23.6362 71.6821C23.1447 72.0462 22.7476 72.5229 22.4782 73.0721L22.3042 72.9961C22.5692 72.4686 22.9459 72.0051 23.4082 71.6381L23.6362 71.6821Z" fill="white"/>
<path opacity="0.5" d="M23.2002 71.6001C22.7629 71.9716 22.3934 72.4162 22.1082 72.9141L21.9282 72.8421C22.1785 72.3562 22.5272 71.9278 22.9522 71.5841L23.2002 71.6001Z" fill="white"/>
<path opacity="0.5" d="M22.7242 71.576C22.3074 71.8984 21.9661 72.308 21.7242 72.776L21.5402 72.7081C21.7519 72.2682 22.0644 71.8845 22.4522 71.588L22.7242 71.576Z" fill="white"/>
<path opacity="0.5" d="M22.2342 71.6001C21.8775 71.8847 21.5827 72.2393 21.3682 72.6421L21.1823 72.5801C21.6443 71.7621 21.7402 71.8361 21.9482 71.6381L22.2342 71.6001Z" fill="white"/>
<path opacity="0.5" d="M24.0522 71.8001C23.5682 72.2088 23.1618 72.7014 22.8522 73.2541L22.6862 73.1661C22.959 72.6067 23.3565 72.1175 23.8482 71.7361L24.0522 71.8001Z" fill="white"/>
<path opacity="0.3" d="M22.3482 77.7161C22.9622 78.3581 24.0563 78.9841 25.3163 79.4821L25.1042 79.6141C23.9965 79.2895 22.9847 78.6999 22.1562 77.8961L22.3482 77.7161Z" fill="white"/>
</svg>
