<svg width="100" height="100" viewBox="0 0 100 100" fill="none" xmlns="http://www.w3.org/2000/svg">
<path d="M25.0222 28.668C21.1042 32.958 17.5882 38.71 17.5182 45.344C17.4362 52.842 21.7962 59.27 26.6702 63.344C34.1242 69.574 43.1822 72.076 52.0702 72.03C59.2822 71.994 66.7282 70.23 72.6382 64.888C78.5482 59.546 82.5822 50.102 81.3362 40.928C80.4862 34.67 77.3362 29.242 73.5202 25.246C67.7782 19.246 61.1742 14.92 53.7522 15C47.0422 15.072 40.3522 17.116 34.3122 20.89C30.8767 23.0487 27.7513 25.6654 25.0222 28.668Z" fill="#FF8A65"/>
<path opacity="0.4" d="M25.0222 28.668C21.1042 32.958 17.5882 38.71 17.5182 45.344C17.4362 52.842 21.7962 59.27 26.6702 63.344C34.1242 69.574 43.1822 72.076 52.0702 72.03C59.2822 71.994 66.7282 70.23 72.6382 64.888C78.5482 59.546 82.5822 50.102 81.3362 40.928C80.4862 34.67 77.3362 29.242 73.5202 25.246C67.7782 19.246 61.1742 14.92 53.7522 15C47.0422 15.072 40.3522 17.116 34.3122 20.89C30.8767 23.0487 27.7513 25.6654 25.0222 28.668Z" fill="#FFCCBC"/>
<path d="M50.0002 85.402C71.4167 85.402 88.7782 84.3884 88.7782 83.138C88.7782 81.8877 71.4167 80.874 50.0002 80.874C28.5837 80.874 11.2222 81.8877 11.2222 83.138C11.2222 84.3884 28.5837 85.402 50.0002 85.402Z" fill="#F5F5F5"/>
<path d="M60.888 80.6V82.51C60.888 83.554 55.466 84.4 48.778 84.4C42.09 84.4 36.666 83.554 36.666 82.51V80.6C36.666 81.642 42.088 82.488 48.778 82.488C55.468 82.488 60.888 81.65 60.888 80.6Z" fill="#263238"/>
<path d="M60.888 80.6C60.888 81.642 55.466 82.488 48.778 82.488C42.09 82.488 36.666 81.642 36.666 80.6C36.666 79.558 42.088 78.71 48.778 78.71C55.468 78.71 60.888 79.564 60.888 80.6Z" fill="#263238"/>
<path opacity="0.2" d="M60.888 80.6C60.888 81.642 55.466 82.488 48.778 82.488C42.09 82.488 36.666 81.642 36.666 80.6C36.666 79.558 42.088 78.71 48.778 78.71C55.468 78.71 60.888 79.564 60.888 80.6Z" fill="white"/>
<path d="M72.8943 65.6959V83.4159H71.9843L70.8403 65.6959H72.8943Z" fill="#8E7CC3"/>
<path opacity="0.4" d="M72.8943 65.6959V83.4159H71.9843L70.8403 65.6959H72.8943Z" fill="white"/>
<path d="M28.2002 66.1639V83.4219H29.1102L30.2542 66.1639H28.2002Z" fill="#8E7CC3"/>
<g opacity="0.6">
<path opacity="0.4" d="M28.2002 66.1639V83.4219H29.1102L30.2542 66.1639H28.2002Z" fill="white"/>
</g>
<path d="M84.5382 63.402H16.7622V64.934H84.5382V63.402Z" fill="#8E7CC3"/>
<path opacity="0.6" d="M84.5382 63.402H16.7622V64.934H84.5382V63.402Z" fill="white"/>
<path d="M21.2202 66.574H79.7382L82.1122 64.934H18.8462L21.2202 66.574Z" fill="#8E7CC3"/>
<path opacity="0.4" d="M21.2202 66.574H79.7382L82.1122 64.934H18.8462L21.2202 66.574Z" fill="white"/>
<path d="M77.5921 64.736V83.412H76.6841L75.5381 64.736H77.5921Z" fill="#8E7CC3"/>
<path opacity="0.6" d="M77.5921 64.736V83.412H76.6841L75.5381 64.736H77.5921Z" fill="white"/>
<path d="M23.0444 64.502V83.4159H23.9544L25.0984 64.502H23.0444Z" fill="#8E7CC3"/>
<path opacity="0.6" d="M23.0444 64.502V83.4159H23.9544L25.0984 64.502H23.0444Z" fill="white"/>
<path d="M23.6943 60.428L23.8023 60.628C23.8638 60.7351 23.8962 60.8565 23.8963 60.98V62.094C23.8963 62.774 24.6403 63.33 25.5543 63.33H25.8003C26.4683 63.33 27.0383 63.036 27.3023 62.612C27.3746 62.5954 27.4427 62.564 27.5023 62.52L28.1483 62.038C28.1926 62.0084 28.2291 61.9686 28.2548 61.922C28.2806 61.8754 28.2948 61.8233 28.2963 61.77V61.17C28.2963 60.97 28.0683 60.792 27.7883 60.792H27.4483C27.4303 60.752 27.4683 60.688 27.5183 60.624L27.5303 60.612C27.584 60.5504 27.6429 60.4935 27.7063 60.442L27.7203 60.43C27.7203 60.43 27.6903 60.29 27.3503 60.362C27.2523 60.382 27.1503 60.406 27.0743 60.43L27.0363 60.442H27.0103C26.7255 60.3421 26.4158 60.3379 26.1283 60.43C25.8625 60.348 25.5782 60.348 25.3123 60.43C25.2923 60.43 25.3323 60.43 25.3123 60.43C25.0313 60.3467 24.7312 60.3537 24.4543 60.45H24.3363C24.2503 60.426 24.1563 60.402 24.0563 60.382C23.7223 60.288 23.6943 60.428 23.6943 60.428ZM27.4363 62.346C27.4363 62.332 27.4503 61.452 27.4523 61.078C27.4523 60.986 27.5523 60.912 27.6783 60.912H27.8183C27.9943 60.912 28.1383 61.022 28.1383 61.152V61.7C28.1383 61.88 28.1383 61.872 27.9563 62.002L27.4363 62.346Z" fill="#8E7CC3"/>
<path d="M24.1763 56.848C24.2603 57.28 24.6063 57.61 24.9563 57.878C25.3063 58.146 25.6883 58.398 25.9063 58.782C26.1243 59.166 26.1063 59.73 25.7283 59.964C25.9249 59.8563 26.0908 59.7002 26.2103 59.5105C26.3297 59.3208 26.3988 59.1038 26.4111 58.88C26.4233 58.6561 26.3782 58.4328 26.2801 58.2313C26.1819 58.0297 26.034 57.8565 25.8503 57.728C25.5343 57.506 25.1203 57.424 24.8503 57.128C24.7405 56.9938 24.6624 56.8364 24.6219 56.6678C24.5814 56.4991 24.5795 56.3235 24.6163 56.154C24.6908 55.8724 24.7885 55.5975 24.9083 55.332C24.4523 55.46 24.0843 56.364 24.1763 56.848Z" fill="#8E7CC3"/>
<path d="M25.2821 55.688C25.4833 55.3617 25.6223 55.001 25.6921 54.624C25.7361 54.246 25.2921 53.624 25.2921 53.624C25.4819 53.7461 25.6437 53.9069 25.7669 54.0958C25.8901 54.2848 25.972 54.4978 26.0071 54.7206C26.0423 54.9435 26.0299 55.1713 25.9707 55.389C25.9116 55.6068 25.8071 55.8095 25.6641 55.984C25.4704 56.2128 25.244 56.4116 24.9921 56.574C24.9241 56.266 25.1361 55.96 25.2821 55.688Z" fill="#8E7CC3"/>
<path opacity="0.6" d="M24.1763 56.848C24.2603 57.28 24.6063 57.61 24.9563 57.878C25.3063 58.146 25.6883 58.398 25.9063 58.782C26.1243 59.166 26.1063 59.73 25.7283 59.964C25.9249 59.8563 26.0908 59.7002 26.2103 59.5105C26.3297 59.3208 26.3988 59.1038 26.4111 58.88C26.4233 58.6561 26.3782 58.4328 26.2801 58.2313C26.1819 58.0297 26.034 57.8565 25.8503 57.728C25.5343 57.506 25.1203 57.424 24.8503 57.128C24.7405 56.9938 24.6624 56.8364 24.6219 56.6678C24.5814 56.4991 24.5795 56.3235 24.6163 56.154C24.6908 55.8724 24.7885 55.5975 24.9083 55.332C24.4523 55.46 24.0843 56.364 24.1763 56.848Z" fill="white"/>
<path opacity="0.6" d="M25.2821 55.688C25.4833 55.3617 25.6223 55.001 25.6921 54.624C25.7361 54.246 25.2921 53.624 25.2921 53.624C25.4819 53.7461 25.6437 53.9069 25.7669 54.0958C25.8901 54.2848 25.972 54.4978 26.0071 54.7206C26.0423 54.9435 26.0299 55.1713 25.9707 55.389C25.9116 55.6068 25.8071 55.8095 25.6641 55.984C25.4704 56.2128 25.244 56.4116 24.9921 56.574C24.9241 56.266 25.1361 55.96 25.2821 55.688Z" fill="white"/>
<path d="M25.0004 53.73C24.8714 53.5201 24.7819 53.2882 24.7364 53.046C24.7164 52.8 25.0004 52.4 25.0004 52.4C24.8789 52.4787 24.7753 52.5822 24.6964 52.7036C24.6176 52.8251 24.5652 52.9618 24.5427 53.1049C24.5203 53.2479 24.5282 53.3941 24.5661 53.5339C24.6039 53.6736 24.6709 53.8039 24.7624 53.916C24.8862 54.0633 25.0311 54.1914 25.1924 54.296C25.2384 54.1 25.1004 53.904 25.0004 53.73Z" fill="#8E7CC3"/>
<path opacity="0.6" d="M25.0004 53.73C24.8714 53.5201 24.7819 53.2882 24.7364 53.046C24.7164 52.8 25.0004 52.4 25.0004 52.4C24.8789 52.4787 24.7753 52.5822 24.6964 52.7036C24.6176 52.8251 24.5652 52.9618 24.5427 53.1049C24.5203 53.2479 24.5282 53.3941 24.5661 53.5339C24.6039 53.6736 24.6709 53.8039 24.7624 53.916C24.8862 54.0633 25.0311 54.1914 25.1924 54.296C25.2384 54.1 25.1004 53.904 25.0004 53.73Z" fill="white"/>
<path d="M76.8844 62.86H65.2944C65.2944 62.86 65.5624 61.46 65.7164 61.42C65.8704 61.38 67.8384 59.832 70.0204 60.706C70.4984 60.894 70.8424 61.038 71.0904 61.142C71.3364 61.038 71.6904 60.894 72.1584 60.706C74.3424 59.832 76.3124 61.388 76.4644 61.42C76.6164 61.452 76.8844 62.86 76.8844 62.86Z" fill="#8E7CC3"/>
<path opacity="0.6" d="M76.8844 62.86H65.2944V62.826C65.3384 62.608 65.5704 61.45 65.7104 61.426C65.7196 61.4241 65.7284 61.4207 65.7364 61.416C66.0124 61.28 67.9144 59.87 70.0144 60.71C70.4924 60.91 70.8364 61.042 71.0824 61.148C71.3304 61.042 71.6824 60.9 72.1524 60.71C74.3364 59.838 76.3064 61.394 76.4584 61.426C76.6104 61.458 76.8844 62.86 76.8844 62.86Z" fill="white"/>
<path d="M78.2 62.86H66.478C66.478 62.86 66.748 61.4361 66.904 61.4021C67.06 61.3681 69.052 60.0121 71.26 60.8941C71.744 61.0941 72.342 61.8321 72.342 61.8321C72.342 61.8321 72.942 61.0861 73.424 60.8941C75.634 60.0121 77.624 61.3701 77.784 61.4021C77.944 61.4341 78.2 62.86 78.2 62.86Z" fill="#8E7CC3"/>
<path opacity="0.8" d="M78.2 62.86H66.478C66.478 62.86 66.748 61.4361 66.904 61.4021C67.06 61.3681 69.052 60.0121 71.26 60.8941C71.744 61.0941 72.342 61.8321 72.342 61.8321C72.342 61.8321 72.942 61.0861 73.424 60.8941C75.634 60.0121 77.624 61.3701 77.784 61.4021C77.944 61.4341 78.2 62.86 78.2 62.86Z" fill="white"/>
<path d="M72.396 62.224L72.022 62.9H72.904L72.396 62.224Z" fill="#8E7CC3"/>
<g opacity="0.3">
<path d="M72.396 62.224L72.022 62.9H72.904L72.396 62.224Z" fill="black"/>
</g>
<path opacity="0.1" d="M66.8884 61.41C66.8093 61.5705 66.747 61.7387 66.7024 61.912C66.5924 62.34 66.4784 62.86 66.4784 62.86H65.2944V62.826C65.3384 62.608 65.5704 61.45 65.7104 61.426C65.7196 61.4241 65.7284 61.4208 65.7364 61.416L66.8884 61.41Z" fill="black"/>
<path d="M78.656 63.294L72.904 63.428L72.892 63.416C72.7739 63.3115 72.6217 63.2539 72.464 63.2539C72.3063 63.2539 72.1541 63.3115 72.036 63.416L72.024 63.428L66.1 63.35L64.604 63.332L64.716 62.82H72.024C72.1433 62.7084 72.3006 62.6462 72.464 62.6462C72.6274 62.6462 72.7847 62.7084 72.904 62.82H78.504L78.656 63.294Z" fill="#8E7CC3"/>
<g opacity="0.3">
<path d="M66.216 62.8201L66.1 63.3501L64.604 63.3321L64.718 62.8201H66.216Z" fill="black"/>
</g>
<path d="M72.9043 61.908C72.9043 61.908 73.8063 60.872 74.9043 61.064C74.9003 61.064 74.1343 60.968 72.9043 61.908Z" fill="#8E7CC3"/>
<path opacity="0.4" d="M72.9043 61.908C72.9043 61.908 73.8063 60.872 74.9043 61.064C74.9003 61.064 74.1343 60.968 72.9043 61.908Z" fill="white"/>
<path d="M70.7563 62.384C70.7563 62.384 69.5563 61.728 68.5903 62.29C68.6003 62.29 69.2743 61.932 70.7563 62.384Z" fill="#8E7CC3"/>
<path opacity="0.4" d="M70.7563 62.384C70.7563 62.384 69.5563 61.728 68.5903 62.29C68.6003 62.29 69.2743 61.932 70.7563 62.384Z" fill="white"/>
<path d="M71.898 62.03C71.898 62.03 70.9321 61.052 69.8521 61.312C69.8521 61.312 70.612 61.168 71.898 62.03Z" fill="#8E7CC3"/>
<path opacity="0.4" d="M71.898 62.03C71.898 62.03 70.9321 61.052 69.8521 61.312C69.8521 61.312 70.612 61.168 71.898 62.03Z" fill="white"/>
<path d="M74.3423 61.8921C74.3423 61.8921 75.5423 61.2301 76.5083 61.7861C76.5083 61.7861 75.8203 61.4321 74.3423 61.8921Z" fill="#8E7CC3"/>
<path opacity="0.4" d="M74.3423 61.8921C74.3423 61.8921 75.5423 61.2301 76.5083 61.7861C76.5083 61.7861 75.8203 61.4321 74.3423 61.8921Z" fill="white"/>
<path d="M84.7259 81.1221H84.7359C84.7547 81.1201 84.7719 81.1108 84.7839 81.0962C84.7958 81.0816 84.8016 81.0629 84.7999 81.0441C84.7999 81.0321 84.7999 80.8921 84.7999 80.6441C84.7999 80.2861 84.7999 79.5361 84.8599 78.5321C84.8588 78.5181 84.8588 78.5041 84.8599 78.4901C84.9239 77.3681 85.0339 76.2681 85.1859 75.2161C85.3279 74.2361 85.5119 73.2861 85.7279 72.3921C85.9154 71.6236 86.1424 70.8652 86.4079 70.1201C86.4479 70.0101 86.4879 69.9001 86.5299 69.7901C86.5719 69.6801 86.5999 69.6121 86.6359 69.5221C86.7279 69.2921 86.8139 69.0701 86.8879 68.8641C87.0519 68.4101 87.1999 67.9561 87.3279 67.5161C87.4039 67.2521 87.4739 66.9901 87.5279 66.7421C87.763 65.7963 87.9169 64.8321 87.9879 63.8601C88.0139 63.4781 88.0259 63.0961 88.0219 62.7241C88.0189 62.3344 87.9949 61.9452 87.9499 61.5581C87.9499 61.5301 87.9499 61.5061 87.9499 61.4801V61.4441C87.9505 61.4302 87.947 61.4164 87.9397 61.4045C87.9324 61.3926 87.9218 61.3831 87.9091 61.3773C87.8964 61.3715 87.8823 61.3696 87.8686 61.3719C87.8548 61.3742 87.842 61.3805 87.8319 61.3901C87.8231 61.3988 87.8165 61.4096 87.8127 61.4214C87.8088 61.4332 87.8079 61.4458 87.8099 61.4581V61.4961C87.8099 61.5221 87.8099 61.5481 87.8199 61.5761C87.8633 61.9579 87.8867 62.3418 87.8899 62.7261C87.8899 63.0941 87.8899 63.4721 87.8559 63.8501C87.7854 64.8146 87.6328 65.7714 87.3999 66.7101C87.3399 66.9581 87.2719 67.2161 87.1999 67.4781C87.0739 67.9161 86.9259 68.3661 86.7619 68.8161C86.6879 69.0161 86.6039 69.2421 86.5119 69.4721C86.4759 69.5621 86.4399 69.6521 86.4059 69.7421C86.3719 69.8321 86.3219 69.9621 86.2819 70.0721C86.0142 70.8223 85.7858 71.586 85.5979 72.3601C85.3799 73.2581 85.1979 74.2141 85.0539 75.1981C84.8999 76.2541 84.7899 77.3581 84.7259 78.4801C84.7249 78.4967 84.7249 78.5134 84.7259 78.5301C84.6679 79.5301 84.6639 80.2881 84.6659 80.6481C84.6659 80.8921 84.6659 81.0481 84.6659 81.0481C84.6656 81.0655 84.6714 81.0825 84.6824 81.096C84.6934 81.1096 84.7088 81.1188 84.7259 81.1221Z" fill="#8E7CC3"/>
<path d="M87.8737 61.468C87.76 61.3482 87.6332 61.2416 87.4957 61.15C87.3448 61.0522 87.1822 60.9736 87.0117 60.916" fill="#8E7CC3"/>
<path d="M87.8718 61.538C87.8809 61.5408 87.8907 61.5408 87.8998 61.538C87.917 61.5313 87.9308 61.5181 87.9383 61.5013C87.9458 61.4844 87.9463 61.4653 87.9398 61.448C87.9367 61.4392 87.932 61.4311 87.9258 61.424C87.8047 61.3006 87.6706 61.1906 87.5258 61.096C87.3691 60.995 87.2005 60.9137 87.0238 60.854C87.0062 60.8496 86.9876 60.8519 86.9717 60.8606C86.9558 60.8692 86.9437 60.8836 86.9379 60.9007C86.9321 60.9179 86.933 60.9367 86.9404 60.9532C86.9478 60.9698 86.9611 60.9829 86.9778 60.99C87.1436 61.0448 87.3015 61.1208 87.4478 61.216C87.5805 61.3038 87.7026 61.4064 87.8118 61.522C87.8199 61.5291 87.8295 61.5343 87.8399 61.537C87.8503 61.5398 87.8612 61.5402 87.8718 61.538Z" fill="#8E7CC3"/>
<path d="M87.9537 62.8001C87.9703 62.8013 87.9867 62.7963 87.9997 62.7861L88.4958 62.4121C88.5046 62.407 88.5124 62.4001 88.5184 62.3918C88.5244 62.3835 88.5286 62.3741 88.5307 62.364C88.5327 62.354 88.5326 62.3437 88.5304 62.3337C88.5281 62.3237 88.5238 62.3143 88.5176 62.3061C88.5115 62.2979 88.5036 62.2912 88.4946 62.2863C88.4857 62.2814 88.4757 62.2784 88.4655 62.2777C88.4553 62.2769 88.445 62.2783 88.4354 62.2818C88.4258 62.2854 88.4171 62.2909 88.4097 62.2981L87.9137 62.6721C87.9061 62.6776 87.8997 62.6846 87.8948 62.6927C87.8899 62.7008 87.8867 62.7097 87.8854 62.7191C87.8841 62.7284 87.8847 62.7379 87.8872 62.747C87.8896 62.7561 87.8939 62.7646 87.8997 62.7721C87.9061 62.7805 87.9142 62.7874 87.9235 62.7922C87.9329 62.7971 87.9432 62.7997 87.9537 62.8001Z" fill="#8E7CC3"/>
<path d="M86.8178 68.92C86.8366 68.9196 86.8546 68.9122 86.8682 68.8992C86.8819 68.8863 86.8903 68.8688 86.8918 68.85C86.8803 68.7141 86.8535 68.5799 86.8118 68.45C86.7577 68.2702 86.6768 68.0996 86.5718 67.944C86.4928 67.8273 86.4016 67.7194 86.2998 67.622C86.2931 67.6153 86.2851 67.61 86.2764 67.6063C86.2676 67.6027 86.2582 67.6008 86.2488 67.6008C86.2393 67.6008 86.2299 67.6027 86.2212 67.6063C86.2124 67.61 86.2045 67.6153 86.1978 67.622C86.1911 67.6285 86.1858 67.6363 86.1822 67.6449C86.1786 67.6535 86.1768 67.6627 86.1768 67.672C86.1768 67.6813 86.1786 67.6905 86.1822 67.6991C86.1858 67.7077 86.1911 67.7155 86.1978 67.722C86.292 67.8122 86.3765 67.9121 86.4498 68.02C86.5468 68.1647 86.6217 68.3231 86.6718 68.49C86.7092 68.6036 86.734 68.721 86.7458 68.84C86.7449 68.849 86.746 68.8581 86.7488 68.8666C86.7516 68.8752 86.7562 68.8831 86.7622 68.8899C86.7682 68.8966 86.7755 68.9021 86.7837 68.9059C86.7919 68.9097 86.8007 68.9118 86.8098 68.912L86.8178 68.92Z" fill="#8E7CC3"/>
<path d="M86.3359 70.174C86.3495 70.1743 86.363 70.1707 86.3747 70.1636C86.3864 70.1565 86.3958 70.1462 86.4019 70.134C86.4775 69.989 86.582 69.8609 86.7089 69.7578C86.8358 69.6546 86.9825 69.5784 87.1399 69.534C87.1578 69.5284 87.1728 69.5161 87.1817 69.4997C87.1907 69.4833 87.1929 69.464 87.1879 69.446C87.1854 69.437 87.1811 69.4286 87.1752 69.4213C87.1694 69.414 87.1622 69.4079 87.154 69.4034C87.1458 69.399 87.1368 69.3962 87.1275 69.3952C87.1182 69.3943 87.1088 69.3952 87.0999 69.398C86.9231 69.4486 86.7587 69.535 86.617 69.652C86.4752 69.7691 86.3591 69.9141 86.2759 70.078C86.2674 70.0948 86.2657 70.1142 86.2713 70.1321C86.2769 70.15 86.2893 70.1651 86.3059 70.174H86.3359Z" fill="#8E7CC3"/>
<path d="M84.9678 76.444C85.1378 76.272 85.3158 75.578 85.4118 75.204C85.4358 75.116 85.4558 75.04 85.4718 74.984" fill="#8E7CC3"/>
<path d="M84.964 76.516C84.9741 76.5165 84.9841 76.5147 84.9934 76.5109C85.0027 76.5071 85.0111 76.5014 85.018 76.494C85.188 76.324 85.346 75.748 85.482 75.222C85.504 75.134 85.524 75.058 85.54 75.004C85.5449 74.9857 85.5424 74.9663 85.5331 74.9498C85.5237 74.9333 85.5082 74.9212 85.49 74.916C85.4717 74.9111 85.4522 74.9136 85.4357 74.923C85.4193 74.9323 85.4071 74.9478 85.402 74.966L85.344 75.188C85.256 75.528 85.074 76.236 84.916 76.388C84.9072 76.3983 84.9013 76.4107 84.899 76.424C84.8967 76.4373 84.8981 76.451 84.9031 76.4636C84.908 76.4761 84.9163 76.4871 84.9271 76.4953C84.9378 76.5035 84.9506 76.5086 84.964 76.51V76.516Z" fill="#8E7CC3"/>
<path d="M86.8598 73.5221C87.0018 74.1941 85.4858 75.3101 85.4858 75.3101C85.4858 75.3101 83.6438 74.9101 83.5018 74.2401C83.3598 73.5701 83.9238 72.5441 84.8518 72.3461C85.7798 72.1481 86.7158 72.8521 86.8598 73.5221Z" fill="#8E7CC3"/>
<path d="M89.1279 65.7421C88.8879 66.4201 87.5119 66.7941 87.5119 66.7941C87.5119 66.7941 86.6799 65.6361 86.9119 64.9581C87.1439 64.2801 87.9559 63.5841 88.5659 63.8001C89.1759 64.0161 89.3679 65.0661 89.1279 65.7421Z" fill="#8E7CC3"/>
<path d="M85.4201 67.648C85.5752 67.8062 85.7592 67.9332 85.9621 68.022C86.0638 68.0663 86.1757 68.0815 86.2855 68.0659C86.3953 68.0504 86.4987 68.0047 86.5841 67.934C86.7841 67.744 86.7621 67.42 86.6721 67.162C86.4921 66.65 85.7421 65.74 85.0881 65.922C84.1441 66.188 85.0381 67.31 85.4201 67.648Z" fill="#8E7CC3"/>
<path d="M87.1761 69.07C87.0441 69.208 86.9001 69.384 86.9501 69.57C86.9805 69.6491 87.0362 69.7159 87.1086 69.7601C87.1809 69.8042 87.2658 69.8232 87.3501 69.814C87.5191 69.7907 87.6805 69.7292 87.8221 69.634C88.1641 69.434 88.8681 69.034 88.4841 68.55C88.1001 68.066 87.4581 68.78 87.1761 69.07Z" fill="#8E7CC3"/>
<path d="M86.9999 60.6181C86.7999 60.6181 86.5999 60.5301 86.3999 60.5261C86.1999 60.5221 85.9659 60.6601 85.9999 60.8581C86.0339 61.0561 86.2439 61.1221 86.4259 61.1501C86.7384 61.1977 87.0557 61.2045 87.3699 61.1701C87.4445 61.1709 87.5164 61.1422 87.5699 61.0901C87.6619 60.9801 87.5479 60.8081 87.4139 60.7541C87.276 60.7233 87.1419 60.6777 87.0139 60.6181H86.9999Z" fill="#8E7CC3"/>
<path d="M88.8199 62.16C89.0199 62.182 89.2199 62.116 89.4199 62.132C89.6199 62.148 89.8379 62.316 89.7899 62.51C89.7419 62.704 89.5179 62.744 89.3339 62.752C89.0173 62.7649 88.7005 62.7353 88.3918 62.664C88.3186 62.6562 88.2513 62.6203 88.2038 62.564C88.1258 62.444 88.2578 62.286 88.4038 62.248C88.5466 62.2327 88.6874 62.2026 88.8238 62.158L88.8199 62.16Z" fill="#8E7CC3"/>
<path d="M87.9179 61.736C87.9367 61.7355 87.9545 61.7277 87.9675 61.7142C87.9806 61.7008 87.9879 61.6828 87.9879 61.664C87.9879 61.274 88.0359 60.902 88.1119 60.884C88.1301 60.8793 88.1457 60.8677 88.1554 60.8516C88.1651 60.8355 88.1682 60.8163 88.1639 60.798C88.1592 60.7798 88.1476 60.7642 88.1315 60.7545C88.1154 60.7448 88.0962 60.7418 88.0779 60.746C87.8479 60.802 87.8399 61.408 87.8459 61.668C87.8462 61.6772 87.8483 61.6863 87.852 61.6947C87.8558 61.703 87.8611 61.7106 87.8678 61.7169C87.8745 61.7232 87.8824 61.7282 87.891 61.7315C87.8996 61.7347 87.9087 61.7363 87.9179 61.736Z" fill="#8E7CC3"/>
<path d="M87.8257 60.818C87.9495 60.5463 88.141 60.3108 88.3817 60.134C88.6357 59.982 89.0217 60.004 89.1817 60.258C89.3417 60.512 89.1217 60.932 88.8097 61.048C88.4867 61.1326 88.146 61.1208 87.8297 61.014C87.8297 60.966 87.8297 60.916 87.8297 60.868L87.8257 60.818Z" fill="#8E7CC3"/>
<path d="M83.1999 83.3761H86.4379L86.7979 82.9301C87.6347 81.9462 88.1184 80.7106 88.1719 79.4201V79.3141H81.4619C81.4619 80.6241 81.9679 81.9141 82.9359 83.0621L83.1999 83.3761Z" fill="#8E7CC3"/>
<path opacity="0.4" d="M83.1999 83.3761H86.4379L86.7979 82.9301C87.6347 81.9462 88.1184 80.7106 88.1719 79.4201V79.3141H81.4619C81.4619 80.6241 81.9679 81.9141 82.9359 83.0621L83.1999 83.3761Z" fill="white"/>
<path d="M19.1541 75.3699L19.5541 75.2039C19.6097 75.2865 19.688 75.3511 19.7796 75.3902C19.8711 75.4292 19.972 75.4409 20.0701 75.4239C20.0701 75.4239 20.1201 75.4679 20.1181 75.4699C20.1383 75.4058 20.1383 75.3369 20.1178 75.2729C20.0974 75.2088 20.0577 75.1525 20.0041 75.1119C19.8933 75.0344 19.7588 74.9983 19.6241 75.0099C19.6454 74.9261 19.6467 74.8385 19.628 74.7541C19.6092 74.6696 19.5709 74.5908 19.5161 74.5239C19.4744 74.5584 19.4401 74.601 19.4154 74.6492C19.3906 74.6973 19.3759 74.7499 19.3721 74.8039C19.3662 74.8539 19.3714 74.9045 19.3873 74.9522C19.4032 74.9999 19.4294 75.0435 19.4641 75.0799C19.3085 75.1125 19.1626 75.181 19.0381 75.2799C19.0781 75.3179 19.1021 75.3399 19.1541 75.3699Z" fill="#8E7CC3"/>
<path opacity="0.1" d="M19.1541 75.3699L19.5541 75.2039C19.6097 75.2865 19.688 75.3511 19.7796 75.3902C19.8711 75.4292 19.972 75.4409 20.0701 75.4239C20.0701 75.4239 20.1201 75.4679 20.1181 75.4699C20.1383 75.4058 20.1383 75.3369 20.1178 75.2729C20.0974 75.2088 20.0577 75.1525 20.0041 75.1119C19.8933 75.0344 19.7588 74.9983 19.6241 75.0099C19.6454 74.9261 19.6467 74.8385 19.628 74.7541C19.6092 74.6696 19.5709 74.5908 19.5161 74.5239C19.4744 74.5584 19.4401 74.601 19.4154 74.6492C19.3906 74.6973 19.3759 74.7499 19.3721 74.8039C19.3662 74.8539 19.3714 74.9045 19.3873 74.9522C19.4032 74.9999 19.4294 75.0435 19.4641 75.0799C19.3085 75.1125 19.1626 75.181 19.0381 75.2799C19.0781 75.3179 19.1021 75.3399 19.1541 75.3699Z" fill="white"/>
<path d="M14.2761 76.36C13.6658 75.707 12.901 75.218 12.0521 74.938C12.0261 74.842 11.9181 74.778 11.8901 74.682C12.8876 74.8934 13.8065 75.3781 14.5441 76.082C14.4721 76.214 14.3481 76.236 14.2761 76.36Z" fill="#263238"/>
<g opacity="0.3">
<path d="M14.2761 76.36C13.6658 75.707 12.901 75.218 12.0521 74.938C12.0261 74.842 11.9181 74.778 11.8901 74.682C12.8876 74.8934 13.8065 75.3781 14.5441 76.082C14.4721 76.214 14.3481 76.236 14.2761 76.36Z" fill="white"/>
</g>
<path d="M15.074 69.502C14.97 69.762 15.128 70.136 15.456 70.128C15.314 69.82 14.444 69.742 14.2 70.014C14.096 70.132 14.216 70.344 14.342 70.44C14.4746 70.5161 14.6184 70.5707 14.768 70.602C14.292 70.432 13.568 71.002 13.568 71.432C13.4788 71.394 13.3785 71.3917 13.2876 71.4255C13.1968 71.4594 13.1225 71.5269 13.08 71.614C13.028 71.814 13.156 72.04 13.504 71.994C13.3724 72.0958 13.2788 72.2387 13.238 72.4C13.142 72.702 13.174 72.986 13.512 73.062C13.5727 73.0724 13.6349 73.0706 13.695 73.0569C13.755 73.0432 13.8118 73.0177 13.862 72.982C13.462 73.122 13.142 73.428 13.262 73.728C13.324 73.892 13.662 73.828 13.662 73.828C13.002 74.368 13.416 74.418 13.526 74.466C13.314 74.666 13.48 74.988 13.792 75.012C14.17 75.042 14.064 74.956 14.31 74.98C14.2902 75.0298 14.2849 75.0841 14.2945 75.1368C14.3041 75.1895 14.3283 75.2384 14.3644 75.278C14.4004 75.3176 14.4469 75.3463 14.4984 75.3608C14.55 75.3753 14.6046 75.375 14.656 75.36C15.0077 75.2677 15.3161 75.0555 15.528 74.76C15.464 74.902 15.508 75.122 15.692 75.096C16.032 75.122 16.23 74.862 16.428 74.674C16.594 74.982 16.916 75.122 17.304 75.17C17.4289 75.1888 17.5565 75.171 17.6715 75.1188C17.7865 75.0667 17.8839 74.9823 17.952 74.876C18.0156 74.774 18.039 74.6519 18.0175 74.5336C17.9961 74.4153 17.9314 74.3092 17.836 74.236C17.9582 74.3121 18.0941 74.3637 18.236 74.388C18.2733 74.3936 18.3114 74.3874 18.3451 74.3703C18.3787 74.3532 18.4062 74.3261 18.4238 74.2927C18.4414 74.2594 18.4481 74.2213 18.4432 74.1839C18.4382 74.1466 18.4217 74.1116 18.396 74.084C18.3377 74.025 18.2885 73.9576 18.25 73.884C18.4461 73.9371 18.6523 73.9405 18.85 73.894C18.9124 73.8825 18.9707 73.8551 19.0194 73.8144C19.068 73.7737 19.1053 73.7211 19.1276 73.6617C19.15 73.6023 19.1566 73.5382 19.1468 73.4755C19.1371 73.4129 19.1113 73.3538 19.072 73.304C18.9795 73.1936 18.8633 73.1053 18.7321 73.0458C18.6009 72.9862 18.458 72.9569 18.314 72.96C18.806 72.904 18.926 72.908 19.314 72.618C19.43 72.45 19.46 72.196 19.286 72.078C19.1895 72.0202 19.0787 71.9907 18.9663 71.9928C18.8538 71.9949 18.7442 72.0286 18.65 72.09C18.7639 71.9803 18.8509 71.8458 18.9043 71.697C18.9577 71.5482 18.9761 71.3891 18.958 71.232C18.952 71.1612 18.9254 71.0936 18.8814 71.0377C18.8375 70.9818 18.7782 70.94 18.7107 70.9175C18.6433 70.8949 18.5707 70.8926 18.502 70.9108C18.4333 70.9291 18.3714 70.967 18.324 71.02C18.2438 71.0958 18.1836 71.1903 18.1487 71.2949C18.1139 71.3996 18.1054 71.5113 18.124 71.62C18.2523 71.3299 18.306 71.0122 18.28 70.696C18.274 70.5925 18.2338 70.494 18.1658 70.4158C18.0977 70.3376 18.0057 70.2842 17.904 70.264C17.462 70.176 16.946 70.244 16.904 70.588C17.022 69.6 15.532 69.25 15.074 69.502Z" fill="#8E7CC3"/>
<path opacity="0.2" d="M15.074 69.502C14.97 69.762 15.128 70.136 15.456 70.128C15.314 69.82 14.444 69.742 14.2 70.014C14.096 70.132 14.216 70.344 14.342 70.44C14.4746 70.5161 14.6184 70.5707 14.768 70.602C14.292 70.432 13.568 71.002 13.568 71.432C13.4788 71.394 13.3785 71.3917 13.2876 71.4255C13.1968 71.4594 13.1225 71.5269 13.08 71.614C13.028 71.814 13.156 72.04 13.504 71.994C13.3724 72.0958 13.2788 72.2387 13.238 72.4C13.142 72.702 13.174 72.986 13.512 73.062C13.5727 73.0724 13.6349 73.0706 13.695 73.0569C13.755 73.0432 13.8118 73.0177 13.862 72.982C13.462 73.122 13.142 73.428 13.262 73.728C13.324 73.892 13.662 73.828 13.662 73.828C13.002 74.368 13.416 74.418 13.526 74.466C13.314 74.666 13.48 74.988 13.792 75.012C14.17 75.042 14.064 74.956 14.31 74.98C14.2902 75.0298 14.2849 75.0841 14.2945 75.1368C14.3041 75.1895 14.3283 75.2384 14.3644 75.278C14.4004 75.3176 14.4469 75.3463 14.4984 75.3608C14.55 75.3753 14.6046 75.375 14.656 75.36C15.0077 75.2677 15.3161 75.0555 15.528 74.76C15.464 74.902 15.508 75.122 15.692 75.096C16.032 75.122 16.23 74.862 16.428 74.674C16.594 74.982 16.916 75.122 17.304 75.17C17.4289 75.1888 17.5565 75.171 17.6715 75.1188C17.7865 75.0667 17.8839 74.9823 17.952 74.876C18.0156 74.774 18.039 74.6519 18.0175 74.5336C17.9961 74.4153 17.9314 74.3092 17.836 74.236C17.9582 74.3121 18.0941 74.3637 18.236 74.388C18.2733 74.3936 18.3114 74.3874 18.3451 74.3703C18.3787 74.3532 18.4062 74.3261 18.4238 74.2927C18.4414 74.2594 18.4481 74.2213 18.4432 74.1839C18.4382 74.1466 18.4217 74.1116 18.396 74.084C18.3377 74.025 18.2885 73.9576 18.25 73.884C18.4461 73.9371 18.6523 73.9405 18.85 73.894C18.9124 73.8825 18.9707 73.8551 19.0194 73.8144C19.068 73.7737 19.1053 73.7211 19.1276 73.6617C19.15 73.6023 19.1566 73.5382 19.1468 73.4755C19.1371 73.4129 19.1113 73.3538 19.072 73.304C18.9795 73.1936 18.8633 73.1053 18.7321 73.0458C18.6009 72.9862 18.458 72.9569 18.314 72.96C18.806 72.904 18.926 72.908 19.314 72.618C19.43 72.45 19.46 72.196 19.286 72.078C19.1895 72.0202 19.0787 71.9907 18.9663 71.9928C18.8538 71.9949 18.7442 72.0286 18.65 72.09C18.7639 71.9803 18.8509 71.8458 18.9043 71.697C18.9577 71.5482 18.9761 71.3891 18.958 71.232C18.952 71.1612 18.9254 71.0936 18.8814 71.0377C18.8375 70.9818 18.7782 70.94 18.7107 70.9175C18.6433 70.8949 18.5707 70.8926 18.502 70.9108C18.4333 70.9291 18.3714 70.967 18.324 71.02C18.2438 71.0958 18.1836 71.1903 18.1487 71.2949C18.1139 71.3996 18.1054 71.5113 18.124 71.62C18.2523 71.3299 18.306 71.0122 18.28 70.696C18.274 70.5925 18.2338 70.494 18.1658 70.4158C18.0977 70.3376 18.0057 70.2842 17.904 70.264C17.462 70.176 16.946 70.244 16.904 70.588C17.022 69.6 15.532 69.25 15.074 69.502Z" fill="black"/>
<path d="M16.9539 74.84C16.8546 75.1242 16.6913 75.3819 16.4767 75.5931C16.2621 75.8043 16.0018 75.9633 15.7159 76.058C15.5052 76.1008 15.3026 76.1771 15.1159 76.284C15.065 76.3259 15.0263 76.3807 15.0038 76.4427C14.9814 76.5048 14.976 76.5717 14.9883 76.6365C15.0005 76.7013 15.03 76.7616 15.0736 76.8111C15.1171 76.8606 15.1732 76.8975 15.2359 76.918C15.5716 77.0173 15.8848 77.181 16.1579 77.4C16.4859 77.688 16.6879 78.218 16.5359 78.628C16.2759 78.842 15.7899 78.746 15.5559 78.506C15.4739 78.068 15.0119 77.83 14.6059 77.65C14.1239 77.438 13.5719 77.118 13.6939 76.514C13.7353 76.3684 13.8115 76.2351 13.9161 76.1256C14.0207 76.0162 14.1504 75.9339 14.2939 75.886C16.1999 75.312 16.3959 74.392 16.3959 74.392C16.6139 74.392 16.6579 74.314 16.8759 74.314C16.933 74.3875 16.9702 74.4746 16.9839 74.5667C16.9975 74.6589 16.9872 74.753 16.9539 74.84Z" fill="#263238"/>
<path opacity="0.3" d="M16.9539 74.84C16.8546 75.1242 16.6913 75.3819 16.4767 75.5931C16.2621 75.8043 16.0018 75.9633 15.7159 76.058C15.5052 76.1008 15.3026 76.1771 15.1159 76.284C15.065 76.3259 15.0263 76.3807 15.0038 76.4427C14.9814 76.5048 14.976 76.5717 14.9883 76.6365C15.0005 76.7013 15.03 76.7616 15.0736 76.8111C15.1171 76.8606 15.1732 76.8975 15.2359 76.918C15.5716 77.0173 15.8848 77.181 16.1579 77.4C16.4859 77.688 16.6879 78.218 16.5359 78.628C16.2759 78.842 15.7899 78.746 15.5559 78.506C15.4739 78.068 15.0119 77.83 14.6059 77.65C14.1239 77.438 13.5719 77.118 13.6939 76.514C13.7353 76.3684 13.8115 76.2351 13.9161 76.1256C14.0207 76.0162 14.1504 75.9339 14.2939 75.886C16.1999 75.312 16.3959 74.392 16.3959 74.392C16.6139 74.392 16.6579 74.314 16.8759 74.314C16.933 74.3875 16.9702 74.4746 16.9839 74.5667C16.9975 74.6589 16.9872 74.753 16.9539 74.84Z" fill="white"/>
<path d="M11.9841 79.626L14.5041 78.668C15.4988 78.2917 16.5937 78.274 17.6001 78.618L20.5341 79.618C17.7663 80.602 14.7439 80.602 11.9761 79.618L11.9841 79.626Z" fill="#263238"/>
<path d="M21.244 82.5379V82.5639C21.1476 82.8415 20.9671 83.082 20.7277 83.2523C20.4883 83.4225 20.2017 83.514 19.908 83.5139H12.612C12.3177 83.514 12.0307 83.4223 11.7909 83.2517C11.5511 83.0811 11.3704 82.84 11.274 82.5619V82.5379C11.0438 81.881 11.0382 81.1664 11.258 80.5059L11.6 79.4299H20.9L21.254 80.5059C21.4747 81.1658 21.4712 81.8802 21.244 82.5379Z" fill="#8E7CC3"/>
<g opacity="0.4">
<path d="M21.244 82.5379V82.5639C21.1476 82.8415 20.9671 83.082 20.7277 83.2523C20.4883 83.4225 20.2017 83.514 19.908 83.5139H12.612C12.3177 83.514 12.0307 83.4223 11.7909 83.2517C11.5511 83.0811 11.3704 82.84 11.274 82.5619V82.5379C11.0438 81.881 11.0382 81.1664 11.258 80.5059L11.6 79.4299H20.9L21.254 80.5059C21.4747 81.1658 21.4712 81.8802 21.244 82.5379Z" fill="white"/>
</g>
<path d="M16.094 77.988C16.5436 77.3824 17.1632 76.9243 17.874 76.672C17.928 76.652 18.01 76.518 17.962 76.486C17.3371 76.6233 16.7409 76.8683 16.2 77.21C15.9827 77.3384 15.8107 77.5314 15.708 77.762C15.832 77.932 15.882 78 16.094 77.988Z" fill="#263238"/>
<path opacity="0.3" d="M16.094 77.988C16.5436 77.3824 17.1632 76.9243 17.874 76.672C17.928 76.652 18.01 76.518 17.962 76.486C17.3371 76.6233 16.7409 76.8683 16.2 77.21C15.9827 77.3384 15.8107 77.5314 15.708 77.762C15.832 77.932 15.882 78 16.094 77.988Z" fill="white"/>
<path d="M15.5461 68.886C15.5169 68.9517 15.5041 69.0236 15.5087 69.0954C15.5133 69.1672 15.5352 69.2368 15.5725 69.2983C15.6099 69.3598 15.6615 69.4113 15.7231 69.4485C15.7847 69.4857 15.8543 69.5075 15.9261 69.512C15.7861 69.204 14.9261 69.126 14.6721 69.398C14.5661 69.516 14.6881 69.728 14.8141 69.824C14.9467 69.9 15.0905 69.9547 15.2401 69.986C14.7621 69.816 14.0401 70.386 14.0401 70.816C13.9506 70.7783 13.8501 70.7762 13.7591 70.81C13.6681 70.8438 13.5934 70.911 13.5501 70.998C13.4981 71.198 13.6281 71.424 13.9741 71.378C13.8408 71.485 13.7472 71.6336 13.7081 71.8C13.6141 72.102 13.6441 72.386 13.9841 72.462C14.1068 72.4824 14.2325 72.4537 14.3341 72.382C13.9341 72.522 13.6141 72.828 13.7341 73.128C13.7941 73.292 14.1341 73.228 14.1341 73.228C13.4761 73.768 13.8881 73.818 14.0001 73.866C13.7861 74.066 13.9541 74.388 14.2661 74.412C14.6421 74.442 14.5381 74.356 14.7841 74.38C14.7637 74.4296 14.7578 74.4839 14.7671 74.5367C14.7763 74.5896 14.8003 74.6387 14.8363 74.6784C14.8723 74.7182 14.9188 74.7469 14.9704 74.7614C15.0221 74.7758 15.0767 74.7753 15.1281 74.76C15.4801 74.6672 15.789 74.4551 16.0021 74.16C15.9381 74.302 15.9801 74.522 16.1641 74.496C16.5041 74.522 16.7021 74.262 16.9021 74.074C17.0681 74.384 17.3901 74.522 17.7761 74.57C17.9012 74.5886 18.0291 74.5708 18.1444 74.5187C18.2597 74.4666 18.3575 74.3823 18.4261 74.276C18.4893 74.1738 18.5124 74.0519 18.491 73.9337C18.4695 73.8155 18.4051 73.7095 18.3101 73.636C18.4319 73.7129 18.5679 73.7646 18.7101 73.788C18.7474 73.7935 18.7855 73.7873 18.8192 73.7703C18.8528 73.7532 18.8804 73.7261 18.8979 73.6927C18.9155 73.6593 18.9223 73.6213 18.9173 73.5839C18.9123 73.5465 18.8958 73.5116 18.8701 73.484C18.8106 73.4254 18.7607 73.3579 18.7221 73.284C18.9182 73.3367 19.1243 73.3401 19.3221 73.294C19.3843 73.2822 19.4424 73.2545 19.4908 73.2137C19.5392 73.1729 19.5763 73.1203 19.5984 73.061C19.6205 73.0016 19.627 72.9376 19.6171 72.8751C19.6072 72.8125 19.5814 72.7536 19.5421 72.704C19.4532 72.592 19.3405 72.5012 19.2122 72.4382C19.0838 72.3753 18.9431 72.3417 18.8001 72.34C19.2941 72.284 19.4121 72.288 19.8001 71.998C19.9161 71.83 19.9461 71.576 19.7721 71.458C19.6759 71.4006 19.5654 71.3712 19.4534 71.3734C19.3413 71.3755 19.2321 71.409 19.1381 71.47C19.2512 71.3597 19.3378 71.2252 19.3911 71.0765C19.4445 70.9278 19.4633 70.769 19.4461 70.612C19.4386 70.5424 19.4113 70.4765 19.3675 70.422C19.3237 70.3675 19.2652 70.3267 19.199 70.3044C19.1327 70.2821 19.0614 70.2792 18.9935 70.2961C18.9257 70.3131 18.8641 70.3491 18.8161 70.4C18.7362 70.476 18.6762 70.5704 18.6414 70.6751C18.6065 70.7797 18.5978 70.8912 18.6161 71C18.7435 70.7095 18.7971 70.3921 18.7721 70.076C18.766 69.9731 18.7263 69.8752 18.6591 69.7971C18.5919 69.7191 18.5009 69.6653 18.4001 69.644C17.9581 69.556 17.4401 69.624 17.4001 69.968C17.4921 68.978 16.0001 68.634 15.5461 68.886Z" fill="#8E7CC3"/>
<path d="M17.716 75.5099C17.6231 75.4581 17.5195 75.4287 17.4133 75.4238C17.3071 75.419 17.2012 75.4388 17.104 75.4819C17.1186 75.5791 17.1589 75.6706 17.2208 75.747C17.2827 75.8233 17.3639 75.8816 17.456 75.9159C17.377 75.9056 17.2967 75.9192 17.2254 75.9548C17.1542 75.9904 17.0952 76.0465 17.056 76.1159C17.0234 76.1833 17.0126 76.2593 17.0251 76.3331C17.0377 76.407 17.0729 76.4751 17.126 76.5279H17.17C17.1279 76.5816 17.105 76.6478 17.1051 76.716C17.1052 76.7842 17.1282 76.8504 17.1704 76.904C17.2127 76.9575 17.2717 76.9953 17.338 77.0112C17.4043 77.0272 17.474 77.0204 17.536 76.9919C17.5789 77.0488 17.6334 77.096 17.6957 77.1304C17.7581 77.1649 17.827 77.1858 17.898 77.1919C17.9685 77.1926 18.0383 77.1779 18.1025 77.1489C18.1667 77.1199 18.2239 77.0772 18.27 77.0239C18.246 77.1359 18.382 77.2819 18.488 77.3219C18.5426 77.3394 18.6005 77.3443 18.6573 77.3363C18.714 77.3284 18.7683 77.3077 18.816 77.2759C18.9101 77.2111 18.9904 77.1282 19.052 77.0319C19.1611 76.8499 19.208 76.6373 19.1856 76.4262C19.1633 76.2151 19.0728 76.0171 18.928 75.8619C18.646 75.5499 18.136 75.4679 17.716 75.5099Z" fill="#8E7CC3"/>
<path opacity="0.2" d="M17.716 75.5099C17.6231 75.4581 17.5195 75.4287 17.4133 75.4238C17.3071 75.419 17.2012 75.4388 17.104 75.4819C17.1186 75.5791 17.1589 75.6706 17.2208 75.747C17.2827 75.8233 17.3639 75.8816 17.456 75.9159C17.377 75.9056 17.2967 75.9192 17.2254 75.9548C17.1542 75.9904 17.0952 76.0465 17.056 76.1159C17.0234 76.1833 17.0126 76.2593 17.0251 76.3331C17.0377 76.407 17.0729 76.4751 17.126 76.5279H17.17C17.1279 76.5816 17.105 76.6478 17.1051 76.716C17.1052 76.7842 17.1282 76.8504 17.1704 76.904C17.2127 76.9575 17.2717 76.9953 17.338 77.0112C17.4043 77.0272 17.474 77.0204 17.536 76.9919C17.5789 77.0488 17.6334 77.096 17.6957 77.1304C17.7581 77.1649 17.827 77.1858 17.898 77.1919C17.9685 77.1926 18.0383 77.1779 18.1025 77.1489C18.1667 77.1199 18.2239 77.0772 18.27 77.0239C18.246 77.1359 18.382 77.2819 18.488 77.3219C18.5426 77.3394 18.6005 77.3443 18.6573 77.3363C18.714 77.3284 18.7683 77.3077 18.816 77.2759C18.9101 77.2111 18.9904 77.1282 19.052 77.0319C19.1611 76.8499 19.208 76.6373 19.1856 76.4262C19.1633 76.2151 19.0728 76.0171 18.928 75.8619C18.646 75.5499 18.136 75.4679 17.716 75.5099Z" fill="black"/>
<path d="M18.3998 75.056C18.3745 74.993 18.3657 74.9247 18.3741 74.8573C18.3825 74.79 18.4079 74.7259 18.4479 74.6711C18.4879 74.6163 18.5412 74.5726 18.6028 74.5441C18.6643 74.5155 18.7321 74.5031 18.7998 74.508C18.9818 74.562 19.2718 74.732 19.2878 74.922C19.2932 75.0175 19.2705 75.1126 19.2226 75.1954C19.1746 75.2782 19.1034 75.3452 19.0178 75.388C19.1998 75.222 19.7198 75.348 19.7938 75.588C19.8678 75.828 19.5778 76.088 19.3618 75.972C19.7238 75.962 20.1398 76.466 20.1018 76.826C20.0452 76.8834 19.9775 76.9288 19.9029 76.9595C19.8283 76.9902 19.7483 77.0056 19.6677 77.0046C19.587 77.0037 19.5074 76.9865 19.4335 76.9541C19.3597 76.9217 19.2931 76.8747 19.2378 76.816C19.4138 76.934 19.5798 77.254 19.4698 77.436C19.4105 77.5241 19.3207 77.5872 19.2177 77.6131C19.1146 77.6389 19.0057 77.6257 18.9118 77.576C18.6298 77.414 18.4778 77.08 18.6918 76.834C18.5466 76.819 18.4002 76.8472 18.271 76.9152C18.1418 76.9832 18.0356 77.0878 17.9658 77.216C17.8378 76.992 17.9958 76.648 18.2218 76.524C17.8978 76.354 17.5938 76.19 17.2378 76.274C17.3158 76.034 17.4998 75.734 17.7458 75.674C17.8699 75.6495 17.9982 75.657 18.1186 75.6958C18.239 75.7347 18.3474 75.8036 18.4338 75.896C18.2232 75.8634 18.0297 75.7608 17.8846 75.6048C17.7394 75.4488 17.6511 75.2484 17.6338 75.036C17.8198 74.854 18.4478 75.092 18.3998 75.056Z" fill="#8E7CC3"/>
<path d="M10.9397 73.5279C10.9014 73.5118 10.8595 73.5063 10.8184 73.5119C10.7772 73.5175 10.7383 73.5341 10.7057 73.5599C10.6833 73.5914 10.6712 73.6292 10.6712 73.6679C10.6712 73.7066 10.6833 73.7444 10.7057 73.7759C10.7501 73.8392 10.8073 73.8924 10.8737 73.9319C10.8352 73.9338 10.7975 73.9446 10.7639 73.9636C10.7302 73.9826 10.7015 74.0091 10.6799 74.0412C10.6584 74.0732 10.6446 74.1099 10.6397 74.1482C10.6348 74.1865 10.6389 74.2255 10.6517 74.2619C10.6823 74.3352 10.734 74.3977 10.8003 74.4416C10.8665 74.4854 10.9443 74.5085 11.0237 74.5079C11.0056 74.5354 10.9937 74.5665 10.989 74.5991C10.9842 74.6317 10.9867 74.6649 10.9962 74.6964C11.0058 74.7279 11.0222 74.7569 11.0442 74.7814C11.0662 74.8058 11.0934 74.8251 11.1237 74.8379C11.187 74.8603 11.2543 74.8691 11.3212 74.8636C11.3881 74.8581 11.453 74.8384 11.5117 74.8059C11.6281 74.7404 11.7491 74.6836 11.8737 74.6359C11.885 74.7062 11.9087 74.7739 11.9437 74.8359C11.9621 74.8653 11.9878 74.8894 12.0183 74.9059C12.0488 74.9224 12.0831 74.9307 12.1177 74.9299C12.1349 74.9286 12.1516 74.9236 12.1667 74.9153C12.1818 74.9069 12.1949 74.8955 12.2051 74.8816C12.2154 74.8678 12.2225 74.8519 12.2261 74.835C12.2296 74.8181 12.2295 74.8007 12.2257 74.7839C12.3187 74.8753 12.4317 74.9438 12.5557 74.9839C12.5906 74.9968 12.6289 74.9968 12.6637 74.9839C12.7237 74.9579 12.7297 74.8719 12.7017 74.8139C12.6737 74.7559 12.6237 74.7099 12.5957 74.6519C12.5789 74.6242 12.5731 74.5911 12.5794 74.5593C12.5857 74.5275 12.6036 74.4992 12.6297 74.4799C12.8755 74.3799 13.0887 74.2137 13.2457 73.9999C13.2777 73.9539 13.3077 73.8919 13.2757 73.8459C13.2601 73.8294 13.2405 73.8171 13.2188 73.8101C13.1972 73.8031 13.1741 73.8017 13.1517 73.8059C12.9854 73.8119 12.8217 73.85 12.6697 73.9179C12.6666 73.8092 12.6857 73.701 12.7257 73.5999C12.7453 73.5489 12.7517 73.4937 12.7444 73.4395C12.737 73.3854 12.7162 73.3339 12.6837 73.2899C12.6372 73.2517 12.5789 73.2308 12.5187 73.2308C12.4586 73.2308 12.4003 73.2517 12.3537 73.2899C12.2639 73.3715 12.1952 73.4738 12.1537 73.5879C12.1048 73.465 12.0122 73.3646 11.8937 73.3059C11.8345 73.2776 11.7685 73.2667 11.7034 73.2745C11.6382 73.2823 11.5766 73.3084 11.5257 73.3499C11.4778 73.3939 11.4482 73.4545 11.443 73.5194C11.4378 73.5843 11.4574 73.6488 11.4977 73.6999C11.3657 73.7359 11.3257 73.7659 11.2197 73.6879C11.1377 73.6169 11.0426 73.5625 10.9397 73.5279Z" fill="#8E7CC3"/>
<path opacity="0.2" d="M10.9397 73.5279C10.9014 73.5118 10.8595 73.5063 10.8184 73.5119C10.7772 73.5175 10.7383 73.5341 10.7057 73.5599C10.6833 73.5914 10.6712 73.6292 10.6712 73.6679C10.6712 73.7066 10.6833 73.7444 10.7057 73.7759C10.7501 73.8392 10.8073 73.8924 10.8737 73.9319C10.8352 73.9338 10.7975 73.9446 10.7639 73.9636C10.7302 73.9826 10.7015 74.0091 10.6799 74.0412C10.6584 74.0732 10.6446 74.1099 10.6397 74.1482C10.6348 74.1865 10.6389 74.2255 10.6517 74.2619C10.6823 74.3352 10.734 74.3977 10.8003 74.4416C10.8665 74.4854 10.9443 74.5085 11.0237 74.5079C11.0056 74.5354 10.9937 74.5665 10.989 74.5991C10.9842 74.6317 10.9867 74.6649 10.9962 74.6964C11.0058 74.7279 11.0222 74.7569 11.0442 74.7814C11.0662 74.8058 11.0934 74.8251 11.1237 74.8379C11.187 74.8603 11.2543 74.8691 11.3212 74.8636C11.3881 74.8581 11.453 74.8384 11.5117 74.8059C11.6281 74.7404 11.7491 74.6836 11.8737 74.6359C11.885 74.7062 11.9087 74.7739 11.9437 74.8359C11.9621 74.8653 11.9878 74.8894 12.0183 74.9059C12.0488 74.9224 12.0831 74.9307 12.1177 74.9299C12.1349 74.9286 12.1516 74.9236 12.1667 74.9153C12.1818 74.9069 12.1949 74.8955 12.2051 74.8816C12.2154 74.8678 12.2225 74.8519 12.2261 74.835C12.2296 74.8181 12.2295 74.8007 12.2257 74.7839C12.3187 74.8753 12.4317 74.9438 12.5557 74.9839C12.5906 74.9968 12.6289 74.9968 12.6637 74.9839C12.7237 74.9579 12.7297 74.8719 12.7017 74.8139C12.6737 74.7559 12.6237 74.7099 12.5957 74.6519C12.5789 74.6242 12.5731 74.5911 12.5794 74.5593C12.5857 74.5275 12.6036 74.4992 12.6297 74.4799C12.8755 74.3799 13.0887 74.2137 13.2457 73.9999C13.2777 73.9539 13.3077 73.8919 13.2757 73.8459C13.2601 73.8294 13.2405 73.8171 13.2188 73.8101C13.1972 73.8031 13.1741 73.8017 13.1517 73.8059C12.9854 73.8119 12.8217 73.85 12.6697 73.9179C12.6666 73.8092 12.6857 73.701 12.7257 73.5999C12.7453 73.5489 12.7517 73.4937 12.7444 73.4395C12.737 73.3854 12.7162 73.3339 12.6837 73.2899C12.6372 73.2517 12.5789 73.2308 12.5187 73.2308C12.4586 73.2308 12.4003 73.2517 12.3537 73.2899C12.2639 73.3715 12.1952 73.4738 12.1537 73.5879C12.1048 73.465 12.0122 73.3646 11.8937 73.3059C11.8345 73.2776 11.7685 73.2667 11.7034 73.2745C11.6382 73.2823 11.5766 73.3084 11.5257 73.3499C11.4778 73.3939 11.4482 73.4545 11.443 73.5194C11.4378 73.5843 11.4574 73.6488 11.4977 73.6999C11.3657 73.7359 11.3257 73.7659 11.2197 73.6879C11.1377 73.6169 11.0426 73.5625 10.9397 73.5279Z" fill="black"/>
<path d="M12.354 74.7459C12.262 74.3459 12.154 74.2919 12.484 74.0499C12.6179 74.0696 12.7547 74.0561 12.8823 74.0108C13.0098 73.9655 13.1244 73.8897 13.216 73.7899C13.3079 73.6834 13.3739 73.5569 13.4086 73.4205C13.4433 73.2841 13.4458 73.1415 13.416 73.0039C13.1694 73.0889 12.9425 73.2227 12.7487 73.3972C12.5549 73.5718 12.3982 73.7836 12.288 74.0199C12.3502 73.9099 12.384 73.7861 12.3865 73.6597C12.3889 73.5333 12.3599 73.4083 12.302 73.2959C12.2586 73.1999 12.1878 73.1188 12.0985 73.063C12.0091 73.0071 11.9053 72.9789 11.8 72.9819V73.0239C11.7908 73.1108 11.8015 73.1986 11.8313 73.2807C11.8611 73.3629 11.9092 73.4371 11.972 73.4979C12.0453 73.5829 12.0941 73.6863 12.1131 73.7969C12.1322 73.9076 12.1207 74.0213 12.08 74.1259C11.964 74.4179 12.13 74.2699 11.864 74.4359C11.9054 74.378 11.9337 74.3117 11.9468 74.2416C11.9598 74.1716 11.9574 74.0996 11.9397 74.0306C11.922 73.9616 11.8894 73.8973 11.8442 73.8422C11.7989 73.7872 11.7422 73.7427 11.678 73.7119C11.5257 73.8125 11.4109 73.9605 11.3513 74.133C11.2916 74.3054 11.2904 74.4927 11.348 74.6659C11.226 74.3999 10.948 74.1939 10.748 74.2379C10.616 74.2659 10.148 74.5539 10.188 74.9419C10.472 74.7539 10.556 74.7819 10.87 74.9079C11.0278 74.9731 11.1678 75.0749 11.2784 75.205C11.3891 75.3351 11.467 75.4896 11.506 75.6559C11.974 75.6599 12.464 75.2199 12.354 74.7459Z" fill="#8E7CC3"/>
<path d="M11.258 73.234C11.2488 73.3526 11.2699 73.4717 11.3195 73.5798C11.3691 73.688 11.4455 73.7817 11.5413 73.8522C11.6372 73.9226 11.7495 73.9675 11.8675 73.9825C11.9856 73.9975 12.1055 73.9822 12.216 73.938C12.144 73.816 12.07 73.704 11.998 73.592C11.919 73.4719 11.8092 73.3753 11.6801 73.3123C11.5509 73.2493 11.4072 73.2223 11.264 73.234H11.258Z" fill="#8E7CC3"/>
<path opacity="0.1" d="M11.258 73.234C11.2488 73.3526 11.2699 73.4717 11.3195 73.5798C11.3691 73.688 11.4455 73.7817 11.5413 73.8522C11.6372 73.9226 11.7495 73.9675 11.8675 73.9825C11.9856 73.9975 12.1055 73.9822 12.216 73.938C12.144 73.816 12.07 73.704 11.998 73.592C11.919 73.4719 11.8092 73.3753 11.6801 73.3123C11.5509 73.2493 11.4072 73.2223 11.264 73.234H11.258Z" fill="white"/>
<path d="M12.224 74.296C12.2427 74.437 12.3077 74.5678 12.4086 74.668C12.5095 74.7683 12.6408 74.8322 12.782 74.85C12.8177 74.7137 12.8022 74.569 12.7385 74.4433C12.6747 74.3176 12.5671 74.2196 12.436 74.168C12.356 74.142 12.216 74.212 12.224 74.296Z" fill="#8E7CC3"/>
<path d="M12.3481 75.0979C12.2635 75.1334 12.1925 75.1949 12.1453 75.2735C12.098 75.3521 12.077 75.4436 12.0852 75.535C12.0935 75.6263 12.1306 75.7126 12.1911 75.7814C12.2517 75.8503 12.3325 75.8981 12.422 75.9179C12.664 75.6939 12.5861 75.3239 12.3481 75.0979Z" fill="#8E7CC3"/>
<path d="M10.9039 75.7259C10.8885 75.5874 10.9243 75.4481 11.0046 75.3342C11.085 75.2203 11.2042 75.1398 11.3399 75.1079C11.4024 75.1724 11.4395 75.2573 11.4443 75.347C11.4491 75.4367 11.4212 75.5251 11.3659 75.5959C11.3187 75.6709 11.2453 75.7258 11.1599 75.7498C11.0746 75.7738 10.9833 75.7653 10.9039 75.7259Z" fill="#8E7CC3"/>
<path opacity="0.1" d="M10.9039 75.7259C10.8885 75.5874 10.9243 75.4481 11.0046 75.3342C11.085 75.2203 11.2042 75.1398 11.3399 75.1079C11.4024 75.1724 11.4395 75.2573 11.4443 75.347C11.4491 75.4367 11.4212 75.5251 11.3659 75.5959C11.3187 75.6709 11.2453 75.7258 11.1599 75.7498C11.0746 75.7738 10.9833 75.7653 10.9039 75.7259Z" fill="white"/>
<path opacity="0.1" d="M17.2898 70.298C17.248 70.18 17.1796 70.0733 17.0898 69.986C17.0447 69.9434 16.9869 69.9167 16.9252 69.9098C16.8635 69.903 16.8012 69.9164 16.7478 69.948C16.7076 69.9878 16.6763 70.0356 16.656 70.0884C16.6357 70.1411 16.6267 70.1976 16.6298 70.254C16.62 70.3356 16.6255 70.4184 16.6458 70.498C16.6569 70.5379 16.6774 70.5745 16.7056 70.6048C16.7338 70.6351 16.7688 70.6581 16.8078 70.672C16.6998 70.6326 16.5845 70.6169 16.4698 70.626C16.4183 70.6285 16.3692 70.6485 16.3307 70.6827C16.2921 70.7169 16.2664 70.7632 16.2578 70.814C16.2591 70.8574 16.273 70.8994 16.2979 70.935C16.3227 70.9705 16.3575 70.998 16.3978 71.014C16.4781 71.0451 16.5638 71.0594 16.6498 71.056C16.5821 71.0871 16.5236 71.1351 16.4798 71.1953C16.436 71.2555 16.4085 71.326 16.3998 71.4C16.3928 71.4256 16.3922 71.4525 16.3981 71.4783C16.4041 71.5041 16.4163 71.5281 16.4338 71.548C16.4552 71.561 16.4792 71.5692 16.504 71.5719C16.5289 71.5747 16.5541 71.572 16.5778 71.564C16.7363 71.5309 16.8853 71.4625 17.0138 71.364C16.9878 71.4391 16.9803 71.5194 16.9918 71.598C17.001 71.6396 17.0232 71.6771 17.0553 71.7052C17.0873 71.7332 17.1274 71.7503 17.1698 71.754C17.2074 71.7489 17.2428 71.7333 17.2719 71.7088C17.3009 71.6844 17.3224 71.6522 17.3338 71.616C17.3534 71.5417 17.3582 71.4642 17.3478 71.388C17.4158 71.388 17.4338 71.466 17.4638 71.528C17.5058 71.6122 17.5716 71.6823 17.653 71.7296C17.7344 71.7768 17.8278 71.7992 17.9218 71.794C18.0154 71.7857 18.1036 71.7466 18.1727 71.683C18.2418 71.6193 18.2879 71.5346 18.3038 71.442C18.315 71.3485 18.2917 71.254 18.2383 71.1764C18.1849 71.0987 18.1051 71.0432 18.0138 71.02C18.1163 70.9866 18.2252 70.9776 18.3318 70.994C18.3867 71.0096 18.4447 71.0107 18.5002 70.997C18.5556 70.9833 18.6065 70.9554 18.6478 70.916C18.6785 70.8721 18.6927 70.8187 18.688 70.7653C18.6832 70.7119 18.6598 70.6619 18.6218 70.624C18.5832 70.5871 18.5372 70.5588 18.4869 70.5409C18.4366 70.523 18.3831 70.5159 18.3298 70.52C18.2229 70.5273 18.1176 70.551 18.0178 70.59C18.1218 70.59 18.1338 70.414 18.0918 70.318C18.0666 70.2725 18.0271 70.2364 17.9794 70.2155C17.9317 70.1945 17.8784 70.1898 17.8278 70.202C17.7238 70.216 17.3398 70.2 17.2898 70.298Z" fill="white"/>
<path opacity="0.1" d="M15.8361 72.134C15.6946 72.1171 15.5511 72.1378 15.4201 72.194C15.356 72.2245 15.3057 72.2782 15.2793 72.3442C15.253 72.4102 15.2526 72.4837 15.2781 72.55C15.3073 72.5934 15.3481 72.6276 15.3959 72.6488C15.4436 72.6701 15.4964 72.6774 15.5481 72.67C15.6515 72.653 15.7506 72.6163 15.8401 72.562C15.809 72.6172 15.7967 72.6809 15.805 72.7437C15.8133 72.8065 15.8418 72.8648 15.8861 72.91C15.9105 72.9277 15.9386 72.9397 15.9682 72.9451C15.9979 72.9505 16.0284 72.9491 16.0574 72.941C16.0865 72.9329 16.1133 72.9184 16.1359 72.8985C16.1586 72.8786 16.1764 72.8538 16.1881 72.826C16.2509 72.9179 16.2988 73.0192 16.3301 73.126C16.3635 73.2333 16.4345 73.3249 16.5301 73.384C16.5541 73.3969 16.5805 73.4047 16.6076 73.4071C16.6348 73.4094 16.6621 73.4061 16.688 73.3975C16.7138 73.3889 16.7376 73.3751 16.7579 73.357C16.7783 73.3388 16.7946 73.3167 16.8061 73.292C16.8092 73.2641 16.8173 73.237 16.8301 73.212C16.8601 73.17 16.9301 73.18 16.9741 73.212C17.0117 73.2497 17.0533 73.2833 17.0981 73.312C17.1247 73.3194 17.1525 73.3213 17.1798 73.3174C17.2071 73.3136 17.2333 73.3041 17.2568 73.2897C17.2803 73.2752 17.3005 73.256 17.3162 73.2334C17.3319 73.2107 17.3428 73.1851 17.3481 73.158C17.3646 73.0465 17.3487 72.9326 17.3021 72.83C17.2749 72.7316 17.228 72.6397 17.1641 72.56C17.1312 72.5209 17.0871 72.4929 17.0377 72.4797C16.9884 72.4665 16.9362 72.4687 16.8881 72.486C16.8654 72.4961 16.8455 72.5116 16.8302 72.5312C16.8149 72.5508 16.8046 72.5738 16.8003 72.5983C16.7959 72.6228 16.7976 72.648 16.8053 72.6716C16.8129 72.6953 16.8263 72.7167 16.8441 72.734C16.8201 72.632 16.7061 72.582 16.6041 72.552C16.5009 72.5263 16.3938 72.5196 16.2881 72.532C16.3219 72.472 16.3347 72.4025 16.3245 72.3344C16.3144 72.2663 16.2819 72.2036 16.2321 72.156C16.1774 72.1099 16.1092 72.0828 16.0378 72.0789C15.9664 72.0749 15.8956 72.0943 15.8361 72.134Z" fill="white"/>
<path opacity="0.1" d="M17.9458 72.344C17.8419 72.4201 17.7607 72.523 17.7107 72.6417C17.6606 72.7604 17.6438 72.8904 17.6618 73.018C17.6632 73.0634 17.676 73.1077 17.6991 73.1469C17.7221 73.186 17.7547 73.2187 17.7938 73.242C17.8429 73.2554 17.8952 73.2496 17.9401 73.2259C17.9851 73.2021 18.0193 73.1621 18.0358 73.114C18.0655 73.0174 18.0703 72.9149 18.0498 72.816C18.0719 72.8798 18.1168 72.9332 18.1758 72.966C18.2102 72.9914 18.252 73.0052 18.2948 73.0052C18.3377 73.0052 18.3794 72.9914 18.4138 72.966C18.4279 72.9504 18.4377 72.9314 18.4424 72.911C18.447 72.8905 18.4462 72.8691 18.4402 72.849C18.4342 72.8289 18.4231 72.8107 18.4079 72.7962C18.3928 72.7816 18.3741 72.7712 18.3538 72.766C18.5317 72.8237 18.7242 72.8174 18.8978 72.748C18.9518 72.726 19.0118 72.692 19.0238 72.634C19.0358 72.576 18.9718 72.498 18.9038 72.466C18.8286 72.4454 18.7598 72.4062 18.7038 72.352C18.7898 72.322 18.8198 72.23 18.8538 72.152C18.87 72.1096 18.8714 72.0629 18.8575 72.0196C18.8437 71.9764 18.8156 71.9391 18.7778 71.914C18.7298 71.8991 18.6789 71.8961 18.6294 71.9051C18.58 71.9142 18.5335 71.935 18.4938 71.966C18.3025 72.0789 18.1194 72.2052 17.9458 72.344Z" fill="white"/>
<path opacity="0.1" d="M16.0178 70.466C15.7257 70.4003 15.4196 70.4422 15.1558 70.584C15.0894 70.6148 15.0327 70.6632 14.9918 70.724C14.9727 70.7545 14.9637 70.7903 14.9662 70.8263C14.9687 70.8622 14.9826 70.8964 15.0058 70.924C14.9475 70.8875 14.8774 70.8749 14.81 70.8886C14.7427 70.9024 14.6832 70.9416 14.6438 70.998C14.6327 71.0273 14.628 71.0587 14.6299 71.0899C14.6318 71.1212 14.6403 71.1518 14.6548 71.1796C14.6694 71.2073 14.6896 71.2317 14.7143 71.2511C14.7389 71.2705 14.7674 71.2844 14.7978 71.292C14.7649 71.3001 14.7341 71.3153 14.7077 71.3367C14.6813 71.3581 14.66 71.385 14.6453 71.4156C14.6306 71.4462 14.6228 71.4797 14.6226 71.5136C14.6223 71.5476 14.6296 71.5812 14.6438 71.612C14.674 71.6766 14.7208 71.732 14.7795 71.7724C14.8382 71.8129 14.9067 71.8369 14.9778 71.842C15.1199 71.8539 15.2629 71.8397 15.3998 71.8C15.419 71.7615 15.4301 71.7195 15.4324 71.6765C15.4347 71.6335 15.4282 71.5906 15.4132 71.5503C15.3982 71.5099 15.375 71.4731 15.3452 71.4421C15.3154 71.4111 15.2795 71.3866 15.2398 71.37C15.3098 71.402 15.3618 71.342 15.4038 71.278C15.4237 71.2449 15.4316 71.2059 15.4262 71.1676C15.4207 71.1294 15.4022 71.0942 15.3738 71.068C15.5035 71.1132 15.6452 71.1097 15.7725 71.0582C15.8999 71.0067 16.0041 70.9107 16.0658 70.788C16.1178 70.686 16.1258 70.492 16.0178 70.466Z" fill="white"/>
<path d="M65.1699 56.094C65.1699 56.094 67.4299 57.894 67.5699 57.862C68.3699 57.698 68.5179 57.628 69.3879 57.462C69.5097 57.4377 69.6234 57.3828 69.7182 57.3026C69.8131 57.2223 69.886 57.1193 69.9301 57.0032C69.9743 56.8871 69.9883 56.7617 69.9708 56.6387C69.9532 56.5157 69.9048 56.3992 69.8299 56.3L69.7279 56.164C69.6469 56.0552 69.5373 55.9709 69.4112 55.9208C69.2851 55.8706 69.1476 55.8565 69.0139 55.88L67.7399 56.102L65.8939 54.916L65.1699 56.094Z" fill="#FF8B7B"/>
<path d="M54.5781 42.2681C55.1781 41.9941 56.1501 43.1001 56.4481 43.6921C57.2321 45.2541 60.1881 50.1781 60.1881 50.1781C60.5341 50.3781 65.0221 53.9341 66.1041 54.4921C66.6661 54.7821 65.5561 56.7681 65.0141 56.4421C63.9721 55.8141 62.9141 55.2141 61.8501 54.6241C61.5001 54.4241 61.1501 54.2341 60.7981 54.0461L59.7301 53.4681C58.9279 53.0315 58.1941 52.4796 57.5521 51.8301C56.8983 51.1806 56.3425 50.4395 55.9021 49.6301L55.7401 49.3281L55.6021 49.0621L55.3241 48.5281C55.1401 48.1721 54.9521 47.8174 54.7601 47.4641C54.1981 46.4121 53.6241 45.3661 53.0221 44.3321C52.9431 44.1971 52.8933 44.047 52.876 43.8915C52.8587 43.736 52.8742 43.5786 52.9215 43.4295C52.9688 43.2804 53.0469 43.1429 53.1507 43.0259C53.2545 42.9088 53.3817 42.8149 53.5241 42.7501L54.5781 42.2681Z" fill="#263238"/>
<path d="M64.026 72.1621C61.2 74.2261 53.2 70.5101 49.344 68.5401C45.48 70.5101 37.48 74.2261 34.66 72.1621C30.018 68.7621 36.386 63.5941 38.038 62.5461C39.69 61.4981 41.532 60.7961 43.362 60.1041C45.192 59.4121 47.362 60.5661 49.344 60.6081C51.32 60.5641 53.478 59.4081 55.324 60.1041C57.17 60.8001 58.998 61.5041 60.648 62.5461C62.298 63.5881 68.67 68.7601 64.026 72.1621Z" fill="#8E7CC3"/>
<path opacity="0.2" d="M50.1998 64.722C47.3658 64.832 44.2358 65.6161 41.4518 66.1461C41.0518 66.2241 39.5998 67.038 39.5278 67.444C50.5238 64.722 39.5358 67.444 50.1998 64.722Z" fill="black"/>
<path opacity="0.2" d="M49.7041 64.8141C52.5361 64.9261 55.6681 65.7101 58.4521 66.2401C58.8521 66.3161 60.3041 67.1301 60.3761 67.5361C49.3881 64.8141 60.3761 67.5361 49.7041 64.8141Z" fill="black"/>
<path d="M51.348 65.848L50.964 66.678L50.604 67.454L50.542 67.588L50.104 67.298L50.07 67.274L49.8 67.094L49.45 66.862L49.318 66.776L48.368 66.144L47.978 65.3L47.454 65.522H47.438L47.21 65.37L48.638 64.384L49.006 64.584L49.294 64.74L49.366 64.778L50.062 65.152L50.206 65.232L50.574 65.432L51.348 65.848Z" fill="#FF8B7B"/>
<path opacity="0.2" d="M50.5399 67.5921L49.4019 66.9601L50.2119 65.2141L51.3479 65.8461L50.5399 67.5921Z" fill="black"/>
<path d="M50.3619 69.3861C49.9241 69.1154 49.4714 68.8697 49.0059 68.6501L50.9739 64.5541L52.3739 65.0441L50.3619 69.3861Z" fill="#8E7CC3"/>
<path opacity="0.2" d="M50.3619 69.3861C49.9241 69.1154 49.4714 68.8697 49.0059 68.6501L50.9739 64.5541L52.3739 65.0441L50.3619 69.3861Z" fill="white"/>
<path d="M49.384 64.7001L49.336 64.7201L49.29 64.7401L47.974 65.2981L47.45 65.5201H47.434C47.3794 65.5417 47.3223 65.5565 47.264 65.5641C47.2327 65.5661 47.2013 65.5661 47.17 65.5641C47.1461 65.5671 47.1219 65.5671 47.098 65.5641H47.084C47.0547 65.566 47.0253 65.566 46.996 65.5641H46.96L46.82 65.5441L46.63 65.5181C45.378 65.3561 45.046 65.4401 43.63 65.7041C43.294 65.7681 43.16 64.9601 43.886 64.6521C45.086 64.1421 45.116 64.1961 46.142 63.7621C47.018 63.3921 48.006 62.9241 48.698 62.6161C48.7371 62.5991 48.7794 62.591 48.822 62.5922C48.8646 62.5933 48.9065 62.6038 48.9446 62.6229C48.9827 62.6419 49.0162 62.6691 49.0427 62.7025C49.0692 62.7359 49.0881 62.7746 49.098 62.8161L49.47 64.5141C49.4797 64.5502 49.4764 64.5887 49.4607 64.6227C49.445 64.6566 49.4178 64.684 49.384 64.7001Z" fill="#263238"/>
<path d="M50.7219 64.416L52.1499 65.402L48.8139 67.622L48.0059 65.878L50.7219 64.416Z" fill="#FF8B7B"/>
<path opacity="0.2" d="M48.8158 67.6221L49.9518 66.9901L49.1438 65.2461L48.0078 65.8761L48.8158 67.6221Z" fill="black"/>
<path d="M50.0437 68.18C50.0437 68.18 49.6317 68.478 49.2117 68.766L48.8117 69.038L47.5097 66.224L47.1097 65.38L46.9697 65.074L48.1397 64.674L48.3717 64.592L48.4737 64.81L48.4997 64.868L48.7717 65.456V65.466L49.0217 66.002L49.2497 66.498L49.5457 67.136L49.5757 67.2L49.7357 67.546L50.0437 68.18Z" fill="#8E7CC3"/>
<path opacity="0.2" d="M50.0437 68.18C50.0437 68.18 49.6317 68.478 49.2117 68.766L48.8117 69.038L47.5097 66.224L47.1097 65.38L46.9697 65.074L48.1397 64.674L48.3717 64.592L48.4737 64.81L48.4997 64.868L48.7717 65.456V65.466L49.0217 66.002L49.2497 66.498L49.5457 67.136L49.5757 67.2L49.7357 67.546L50.0437 68.18Z" fill="white"/>
<path d="M51.9061 65.548L49.9721 64.73C49.9374 64.7158 49.9089 64.6896 49.8916 64.6563C49.8744 64.623 49.8696 64.5846 49.8781 64.548L50.2501 62.848C50.2597 62.8064 50.2784 62.7674 50.3048 62.7338C50.3313 62.7002 50.3648 62.6729 50.403 62.6538C50.4412 62.6347 50.4832 62.6242 50.5259 62.6232C50.5686 62.6222 50.6111 62.6307 50.6501 62.648C51.3421 62.956 52.3321 63.422 53.2081 63.794C54.2321 64.228 54.2621 64.174 55.4641 64.684C56.1901 64.99 56.0541 65.8 55.7201 65.736C54.1961 65.448 53.9321 65.376 52.3981 65.596C52.2329 65.626 52.0625 65.6094 51.9061 65.548Z" fill="#263238"/>
<path d="M45.8901 41.85C48.3021 41.554 51.7241 41.58 53.9961 41.976C54.5576 42.0762 55.0701 42.3599 55.453 42.7826C55.836 43.2054 56.0678 43.7433 56.1121 44.312C56.3961 47.776 55.6281 53.832 54.9681 59.926C49.6241 61.726 44.2021 59.902 44.2021 59.902C44.1381 59.258 44.2901 57.846 44.5081 56.338C44.9187 53.534 44.8252 50.6792 44.2321 47.908C44.0201 46.92 43.8121 45.878 43.6501 44.78C43.6009 44.44 43.6202 44.0936 43.7067 43.7612C43.7932 43.4287 43.9452 43.1169 44.1539 42.844C44.3625 42.571 44.6236 42.3425 44.9217 42.1719C45.2199 42.0012 45.5491 41.8918 45.8901 41.85Z" fill="#263238"/>
<path opacity="0.2" d="M43.9277 46.4201C43.9277 46.4201 44.5037 49.2201 44.5837 50.0001C44.6637 50.7801 45.6617 45.1361 45.6617 45.1361L43.9277 46.4201Z" fill="black"/>
<path d="M34.4259 56.4001C34.4259 56.4001 32.1179 58.2401 31.9639 58.2001C31.1499 58.0321 30.9959 57.9601 30.1079 57.7821C29.9834 57.7571 29.8673 57.701 29.7704 57.619C29.6734 57.5371 29.5988 57.4319 29.5535 57.3133C29.5081 57.1947 29.4936 57.0665 29.5111 56.9408C29.5287 56.815 29.5778 56.6957 29.6539 56.5941L29.7599 56.4541C29.8433 56.3435 29.9556 56.2582 30.0844 56.2073C30.2132 56.1565 30.3535 56.1422 30.4899 56.1661L31.7999 56.4001L33.6839 55.1881L34.4259 56.4001Z" fill="#FF8B7B"/>
<path d="M45.2499 42.268C44.6339 41.988 43.6499 43.12 43.3399 43.724C42.5399 45.324 39.5179 50.354 39.5179 50.354C39.1639 50.554 34.5779 54.192 33.4719 54.754C32.8979 55.05 34.0319 57.08 34.5859 56.754C35.6499 56.112 36.7319 55.498 37.8179 54.896C38.1759 54.696 38.5339 54.496 38.8939 54.296L39.9859 53.706C40.8058 53.2591 41.5558 52.6945 42.2119 52.03C42.8801 51.365 43.4481 50.6064 43.8979 49.778L44.0639 49.47L44.1999 49.2L44.4839 48.654C44.6719 48.29 44.8639 47.928 45.0599 47.568C45.6339 46.492 46.2219 45.424 46.8379 44.368C46.9182 44.2299 46.9687 44.0765 46.9862 43.9177C47.0036 43.759 46.9876 43.5983 46.9392 43.446C46.8908 43.2938 46.811 43.1534 46.705 43.0339C46.5991 42.9143 46.4692 42.8183 46.3239 42.752L45.2499 42.268Z" fill="#263238"/>
<path d="M47.9998 37.078C48.3318 38.508 48.6898 41.132 47.6338 42.11C48.4858 42.87 49.7178 43.64 50.6858 43.498C51.9038 43.318 52.5438 42.448 52.3778 42.022C50.6538 41.672 50.7098 40.482 50.9778 39.362L47.9998 37.078Z" fill="#FF8B7B"/>
<path opacity="0.2" d="M49.1998 38.01L50.9658 39.36C50.8973 39.622 50.8537 39.8898 50.8358 40.16C50.1798 40.084 49.3478 39.584 49.0758 38.918C48.9118 38.498 49.0378 38.062 49.1998 38.01Z" fill="black"/>
<path d="M51.5181 32.8121C52.3481 31.8521 53.6821 30.5621 52.1881 29.4121C51.8665 29.493 51.5303 29.4959 51.2074 29.4204C50.8845 29.3449 50.5844 29.1932 50.3321 28.9781C49.5761 28.3521 48.5081 28.3781 47.9061 28.3521C48.0708 28.5818 48.1596 28.8573 48.1601 29.1401C48.0261 30.7401 46.7101 32.2841 46.2101 33.7801C46.0478 34.2237 46.0478 34.7104 46.2101 35.1541C46.463 35.6836 46.8932 36.1081 47.4261 36.3541C48.5204 35.6074 49.6555 34.9224 50.8261 34.3021C50.9001 34.3021 50.9181 34.1821 50.9281 34.1121C51.0003 33.6324 51.2046 33.1822 51.5181 32.8121Z" fill="#263238"/>
<path d="M47.4218 34.9241C47.6218 36.8461 47.6438 37.9821 48.6618 38.9241C50.1918 40.3481 52.5338 39.3621 52.9098 37.4161C53.2478 35.6661 52.8598 32.8161 50.9378 32.1301C50.5145 31.9765 50.0589 31.9339 49.6144 32.0064C49.1699 32.079 48.7515 32.2641 48.3989 32.5443C48.0463 32.8245 47.7714 33.1903 47.6003 33.6069C47.4293 34.0235 47.3679 34.477 47.4218 34.9241Z" fill="#FF8B7B"/>
<path d="M51.7278 32.6C51.3918 32.47 51.4338 32.478 51.1078 32.628C50.2958 32.228 49.2898 32.514 48.9618 32.61C49.0536 32.9367 49.1125 33.2717 49.1378 33.61C49.1728 33.8116 49.1337 34.019 49.0278 34.194C48.9058 34.36 48.6898 34.424 48.5258 34.55C48.4011 34.6617 48.3052 34.8018 48.2463 34.9585C48.1875 35.1152 48.1674 35.2839 48.1878 35.45C48.2158 35.782 47.8238 35.974 47.4378 36.02C47.202 35.6635 47.0723 35.2474 47.0638 34.82C46.6118 33.22 48.5238 31.9 48.4878 31.82C49.4747 31.5828 50.5089 31.6334 51.4678 31.966C51.5976 32.157 51.6861 32.3729 51.7278 32.6Z" fill="#263238"/>
<path d="M46.664 36.5701C46.8213 37.0299 47.1542 37.4088 47.59 37.6241C48.172 37.9041 48.574 37.4121 48.508 36.8041C48.448 36.2581 48.072 35.4541 47.444 35.4281C46.816 35.4021 46.476 36.0001 46.664 36.5701Z" fill="#FF8B7B"/>
<path d="M51.5098 35.4C51.5098 35.4 51.9858 36.252 52.4358 36.632C52.1958 36.926 51.7098 36.872 51.7098 36.872L51.5098 35.4Z" fill="#FF5652"/>
<path d="M51.2498 37.698C51.0736 37.6853 50.9018 37.6365 50.7453 37.5546C50.5887 37.4728 50.4507 37.3595 50.3398 37.222C50.3327 37.2122 50.3297 37.1999 50.3316 37.188C50.3335 37.176 50.34 37.1652 50.3498 37.158C50.3596 37.1509 50.3719 37.148 50.3838 37.1498C50.3958 37.1517 50.4066 37.1582 50.4138 37.168C50.5396 37.3179 50.699 37.436 50.879 37.5128C51.059 37.5896 51.2545 37.6229 51.4498 37.61C51.4558 37.6098 51.4619 37.6107 51.4675 37.6127C51.4732 37.6148 51.4784 37.618 51.4829 37.6221C51.4874 37.6262 51.491 37.6311 51.4935 37.6366C51.4961 37.642 51.4975 37.648 51.4978 37.654C51.4983 37.6601 51.4976 37.6663 51.4957 37.6721C51.4937 37.6779 51.4905 37.6832 51.4864 37.6877C51.4823 37.6923 51.4772 37.6959 51.4716 37.6983C51.466 37.7008 51.4599 37.702 51.4538 37.702C51.3858 37.7058 51.3176 37.7044 51.2498 37.698Z" fill="#263238"/>
<path d="M50.9098 35.692C50.3338 35.868 50.0418 35.652 50.0218 35.64C50.0115 35.6334 50.0042 35.6229 50.0016 35.6109C49.9989 35.5989 50.0012 35.5864 50.0078 35.576C50.0144 35.5657 50.0249 35.5584 50.0369 35.5558C50.0489 35.5532 50.0615 35.5554 50.0718 35.562C50.0718 35.562 50.4378 35.822 51.0718 35.536C51.0827 35.5312 51.0951 35.5308 51.1063 35.5349C51.1175 35.539 51.1266 35.5473 51.1318 35.558C51.1348 35.5635 51.1366 35.5695 51.1371 35.5757C51.1376 35.5819 51.1368 35.5881 51.1347 35.594C51.1327 35.5998 51.1294 35.6052 51.1251 35.6097C51.1208 35.6142 51.1156 35.6177 51.1098 35.62C51.045 35.649 50.9782 35.673 50.9098 35.692Z" fill="#263238"/>
<path d="M52.81 35.468C52.264 35.724 52.036 35.552 52.01 35.542C51.9989 35.5372 51.9902 35.5282 51.9857 35.517C51.9812 35.5057 51.9813 35.4932 51.986 35.482C51.9884 35.4763 51.9919 35.4711 51.9964 35.4668C52.0008 35.4624 52.0061 35.459 52.0119 35.4568C52.0177 35.4545 52.0239 35.4535 52.0301 35.4537C52.0363 35.4539 52.0424 35.4554 52.048 35.458C52.048 35.458 52.356 35.658 52.934 35.29C52.9444 35.2834 52.9569 35.2812 52.9689 35.2838C52.9809 35.2864 52.9914 35.2937 52.998 35.304C53.0047 35.3144 53.0069 35.3269 53.0043 35.3389C53.0017 35.3509 52.9944 35.3614 52.984 35.368C52.9286 35.4056 52.8704 35.4391 52.81 35.468Z" fill="#263238"/>
<path d="M50.0518 34.6701C50.0361 34.6684 50.021 34.6629 50.0078 34.6541C49.9978 34.6473 49.9892 34.6385 49.9826 34.6283C49.9761 34.6181 49.9716 34.6067 49.9696 34.5948C49.9675 34.5828 49.9679 34.5705 49.9707 34.5587C49.9735 34.5469 49.9786 34.5358 49.9858 34.5261C50.0664 34.4036 50.175 34.3021 50.3027 34.2301C50.4303 34.1581 50.5734 34.1176 50.7198 34.1121C50.7441 34.1131 50.767 34.1234 50.7837 34.141C50.8005 34.1585 50.8099 34.1818 50.8098 34.2061C50.8096 34.2183 50.8069 34.2304 50.8019 34.2416C50.7969 34.2528 50.7897 34.2629 50.7808 34.2713C50.7718 34.2797 50.7613 34.2862 50.7498 34.2904C50.7383 34.2947 50.7261 34.2966 50.7138 34.2961C50.5982 34.3019 50.4856 34.3353 50.3854 34.3934C50.2852 34.4514 50.2004 34.5326 50.1378 34.6301C50.1281 34.6435 50.1151 34.6542 50.1 34.6612C50.085 34.6682 50.0684 34.6712 50.0518 34.6701Z" fill="#263238"/>
<path d="M52.8817 34.614C52.8667 34.6125 52.8523 34.6074 52.8397 34.599C52.8272 34.5906 52.8169 34.5793 52.8097 34.566C52.7591 34.4608 52.6837 34.3695 52.59 34.2998C52.4963 34.2301 52.3871 34.1842 52.2717 34.166C52.2475 34.1635 52.2252 34.1516 52.2095 34.133C52.1939 34.1143 52.186 34.0903 52.1877 34.066C52.1882 34.0539 52.1912 34.042 52.1964 34.0311C52.2017 34.0202 52.2092 34.0105 52.2184 34.0026C52.2276 33.9947 52.2383 33.9888 52.2499 33.9853C52.2615 33.9818 52.2737 33.9806 52.2857 33.982C52.4311 34.0023 52.5694 34.0575 52.6889 34.1428C52.8083 34.2281 52.9054 34.3411 52.9717 34.472C52.9776 34.4826 52.9813 34.4943 52.9826 34.5063C52.9838 34.5184 52.9826 34.5305 52.9791 34.5421C52.9756 34.5537 52.9697 34.5644 52.9619 34.5737C52.9541 34.583 52.9445 34.5905 52.9337 34.596C52.9185 34.607 52.9004 34.6132 52.8817 34.614Z" fill="#263238"/>
<path d="M50.4998 44.334L49.2998 43.096C49.6378 43.044 49.9438 42.896 50.2818 42.844C50.5758 43.272 50.5858 43.822 50.4998 44.334Z" fill="#8E7CC3"/>
<path opacity="0.2" d="M50.4998 44.334L49.2998 43.096C49.6378 43.044 49.9438 42.896 50.2818 42.844C50.5758 43.272 50.5858 43.822 50.4998 44.334Z" fill="black"/>
<path d="M50.3559 42.926C49.6839 43.35 49.7839 43.416 49.0879 44.274C48.3479 43.582 47.0739 42.718 46.5459 41.854C46.7281 41.3333 47.0993 40.9 47.5859 40.64C48.6339 41.2369 49.571 42.0103 50.3559 42.926Z" fill="#8E7CC3"/>
<g opacity="0.2">
<path d="M50.3559 42.926C49.6839 43.35 49.7839 43.416 49.0879 44.274C48.3479 43.582 47.0739 42.718 46.5459 41.854C46.7281 41.3333 47.0993 40.9 47.5859 40.64C48.6339 41.2369 49.571 42.0103 50.3559 42.926Z" fill="white"/>
</g>
<path d="M50.7822 42.7781C50.5312 43.2383 50.4352 43.7671 50.5082 44.2861C50.8582 43.8261 51.1802 43.3721 51.5302 42.9121C51.2967 42.8034 51.0389 42.7572 50.7822 42.7781Z" fill="#8E7CC3"/>
<path opacity="0.2" d="M50.7822 42.7781C50.5312 43.2383 50.4352 43.7671 50.5082 44.2861C50.8582 43.8261 51.1802 43.3721 51.5302 42.9121C51.2967 42.8034 51.0389 42.7572 50.7822 42.7781Z" fill="black"/>
<path d="M52.0001 44.1561C51.5531 43.7374 51.1342 43.2898 50.7461 42.8161C51.0599 42.2719 51.1678 41.6331 51.0501 41.0161C51.2962 40.9369 51.5615 40.9405 51.8053 41.0265C52.0492 41.1125 52.2581 41.276 52.4001 41.4921C52.8201 42.1521 52.2641 43.4281 52.0001 44.1561Z" fill="#8E7CC3"/>
<path opacity="0.2" d="M52.0001 44.1561C51.5531 43.7374 51.1342 43.2898 50.7461 42.8161C51.0599 42.2719 51.1678 41.6331 51.0501 41.0161C51.2962 40.9369 51.5615 40.9405 51.8053 41.0265C52.0492 41.1125 52.2581 41.276 52.4001 41.4921C52.8201 42.1521 52.2641 43.4281 52.0001 44.1561Z" fill="white"/>
<path d="M49.2158 72.0661C48.6446 72.0676 48.0791 71.9526 47.5538 71.7281C47.5415 71.7231 47.5304 71.7156 47.521 71.7062C47.5116 71.6969 47.5042 71.6857 47.4991 71.6734C47.4941 71.6611 47.4916 71.648 47.4917 71.6347C47.4918 71.6214 47.4946 71.6083 47.4998 71.5961C47.5108 71.572 47.5307 71.5531 47.5553 71.5434C47.5799 71.5337 47.6074 71.5339 47.6318 71.5441C48.1638 71.77 48.7379 71.8796 49.3157 71.8654C49.8935 71.8513 50.4615 71.7138 50.9818 71.4621C51.0057 71.4504 51.0332 71.4487 51.0583 71.4573C51.0835 71.466 51.1041 71.4842 51.1158 71.5081C51.1275 71.532 51.1292 71.5595 51.1206 71.5846C51.1119 71.6097 51.0937 71.6304 51.0698 71.6421C50.492 71.9223 49.858 72.0673 49.2158 72.0661Z" fill="#8E7CC3"/>
<path d="M48.9421 73.5101C47.6686 73.5123 46.4053 73.2825 45.2141 72.8321C45.2017 72.8273 45.1904 72.8202 45.1808 72.8111C45.1712 72.802 45.1635 72.7911 45.1581 72.7791C45.1528 72.767 45.1498 72.754 45.1495 72.7408C45.1491 72.7276 45.1513 72.7144 45.1561 72.7021C45.1608 72.6897 45.1679 72.6784 45.177 72.6688C45.1861 72.6592 45.197 72.6515 45.2091 72.6461C45.2211 72.6408 45.2341 72.6378 45.2474 72.6374C45.2606 72.6371 45.2737 72.6393 45.2861 72.6441C47.6639 73.5403 50.2881 73.5318 52.6601 72.6201C52.6724 72.6153 52.6856 72.6131 52.6988 72.6134C52.712 72.6138 52.725 72.6168 52.7371 72.6221C52.7492 72.6275 52.76 72.6352 52.7691 72.6448C52.7782 72.6544 52.7853 72.6657 52.7901 72.6781C52.7948 72.6904 52.797 72.7036 52.7967 72.7168C52.7963 72.73 52.7934 72.743 52.788 72.7551C52.7826 72.7671 52.7749 72.778 52.7653 72.7871C52.7557 72.7962 52.7444 72.8033 52.7321 72.8081C51.523 73.2745 50.238 73.5125 48.9421 73.5101Z" fill="#8E7CC3"/>
</svg>
