<svg width="80" height="71" viewBox="0 0 80 71" fill="none" xmlns="http://www.w3.org/2000/svg">
<path d="M15.0222 13.668C11.1042 17.958 7.58823 23.71 7.51823 30.344C7.43623 37.842 11.7962 44.27 16.6702 48.344C24.1242 54.574 33.1822 57.076 42.0702 57.03C49.2822 56.994 56.7282 55.23 62.6382 49.888C68.5482 44.546 72.5822 35.102 71.3362 25.928C70.4862 19.67 67.3362 14.242 63.5202 10.246C57.7782 4.24599 51.1742 -0.0800072 43.7522 -7.15652e-06C37.0422 0.0719928 30.3522 2.11599 24.3122 5.88999C20.8767 8.04871 17.7513 10.6654 15.0222 13.668Z" fill="#FF8A65"/>
<path opacity="0.4" d="M15.0222 13.668C11.1042 17.958 7.58823 23.71 7.51823 30.344C7.43623 37.842 11.7962 44.27 16.6702 48.344C24.1242 54.574 33.1822 57.076 42.0702 57.03C49.2822 56.994 56.7282 55.23 62.6382 49.888C68.5482 44.546 72.5822 35.102 71.3362 25.928C70.4862 19.67 67.3362 14.242 63.5202 10.246C57.7782 4.24599 51.1742 -0.0800072 43.7522 -7.15652e-06C37.0422 0.0719928 30.3522 2.11599 24.3122 5.88999C20.8767 8.04871 17.7513 10.6654 15.0222 13.668Z" fill="#FFCCBC"/>
<path d="M40.0002 70.402C61.4167 70.402 78.7782 69.3884 78.7782 68.138C78.7782 66.8877 61.4167 65.874 40.0002 65.874C18.5837 65.874 1.22217 66.8877 1.22217 68.138C1.22217 69.3884 18.5837 70.402 40.0002 70.402Z" fill="#F5F5F5"/>
<path d="M50.888 65.6V67.51C50.888 68.554 45.466 69.4 38.778 69.4C32.09 69.4 26.666 68.554 26.666 67.51V65.6C26.666 66.642 32.088 67.488 38.778 67.488C45.468 67.488 50.888 66.65 50.888 65.6Z" fill="#263238"/>
<path d="M50.888 65.6C50.888 66.642 45.466 67.488 38.778 67.488C32.09 67.488 26.666 66.642 26.666 65.6C26.666 64.558 32.088 63.71 38.778 63.71C45.468 63.71 50.888 64.564 50.888 65.6Z" fill="#263238"/>
<path opacity="0.2" d="M50.888 65.6C50.888 66.642 45.466 67.488 38.778 67.488C32.09 67.488 26.666 66.642 26.666 65.6C26.666 64.558 32.088 63.71 38.778 63.71C45.468 63.71 50.888 64.564 50.888 65.6Z" fill="white"/>
<path d="M62.8942 50.6959V68.4159H61.9842L60.8402 50.6959H62.8942Z" fill="#8E7CC3"/>
<path opacity="0.4" d="M62.8942 50.6959V68.4159H61.9842L60.8402 50.6959H62.8942Z" fill="white"/>
<path d="M18.2002 51.1639V68.4219H19.1102L20.2542 51.1639H18.2002Z" fill="#8E7CC3"/>
<g opacity="0.6">
<path opacity="0.4" d="M18.2002 51.1639V68.4219H19.1102L20.2542 51.1639H18.2002Z" fill="white"/>
</g>
<path d="M74.5382 48.402H6.76221V49.934H74.5382V48.402Z" fill="#8E7CC3"/>
<path opacity="0.6" d="M74.5382 48.402H6.76221V49.934H74.5382V48.402Z" fill="white"/>
<path d="M11.2202 51.574H69.7382L72.1122 49.934H8.84619L11.2202 51.574Z" fill="#8E7CC3"/>
<path opacity="0.4" d="M11.2202 51.574H69.7382L72.1122 49.934H8.84619L11.2202 51.574Z" fill="white"/>
<path d="M67.5922 49.736V68.412H66.6842L65.5382 49.736H67.5922Z" fill="#8E7CC3"/>
<path opacity="0.6" d="M67.5922 49.736V68.412H66.6842L65.5382 49.736H67.5922Z" fill="white"/>
<path d="M13.0442 49.502V68.4159H13.9542L15.0982 49.502H13.0442Z" fill="#8E7CC3"/>
<path opacity="0.6" d="M13.0442 49.502V68.4159H13.9542L15.0982 49.502H13.0442Z" fill="white"/>
<path d="M13.6942 45.428L13.8022 45.628C13.8637 45.7351 13.8961 45.8565 13.8962 45.98V47.094C13.8962 47.774 14.6402 48.33 15.5542 48.33H15.8002C16.4682 48.33 17.0382 48.036 17.3022 47.612C17.3745 47.5954 17.4425 47.564 17.5022 47.52L18.1482 47.038C18.1925 47.0084 18.229 46.9686 18.2547 46.922C18.2805 46.8754 18.2947 46.8233 18.2962 46.77V46.17C18.2962 45.97 18.0682 45.792 17.7882 45.792H17.4482C17.4302 45.752 17.4682 45.688 17.5182 45.624L17.5302 45.612C17.5838 45.5504 17.6427 45.4935 17.7062 45.442L17.7202 45.43C17.7202 45.43 17.6902 45.29 17.3502 45.362C17.2522 45.382 17.1502 45.406 17.0742 45.43L17.0362 45.442H17.0102C16.7254 45.3421 16.4157 45.3379 16.1282 45.43C15.8624 45.348 15.578 45.348 15.3122 45.43C15.2922 45.43 15.3322 45.43 15.3122 45.43C15.0312 45.3467 14.7311 45.3537 14.4542 45.45H14.3362C14.2502 45.426 14.1562 45.402 14.0562 45.382C13.7222 45.288 13.6942 45.428 13.6942 45.428ZM17.4362 47.346C17.4362 47.332 17.4502 46.452 17.4522 46.078C17.4522 45.986 17.5522 45.912 17.6782 45.912H17.8182C17.9942 45.912 18.1382 46.022 18.1382 46.152V46.7C18.1382 46.88 18.1382 46.872 17.9562 47.002L17.4362 47.346Z" fill="#8E7CC3"/>
<path d="M14.1762 41.848C14.2602 42.28 14.6062 42.61 14.9562 42.878C15.3062 43.146 15.6882 43.398 15.9062 43.782C16.1242 44.166 16.1062 44.73 15.7282 44.964C15.9248 44.8563 16.0907 44.7002 16.2101 44.5105C16.3296 44.3208 16.3987 44.1038 16.4109 43.88C16.4231 43.6561 16.3781 43.4328 16.2799 43.2313C16.1818 43.0297 16.0339 42.8565 15.8502 42.728C15.5342 42.506 15.1202 42.424 14.8502 42.128C14.7404 41.9938 14.6623 41.8364 14.6218 41.6678C14.5813 41.4991 14.5793 41.3235 14.6162 41.154C14.6907 40.8724 14.7883 40.5975 14.9082 40.332C14.4522 40.46 14.0842 41.364 14.1762 41.848Z" fill="#8E7CC3"/>
<path d="M15.2822 40.688C15.4834 40.3617 15.6224 40.001 15.6922 39.624C15.7362 39.246 15.2922 38.624 15.2922 38.624C15.482 38.7461 15.6438 38.9069 15.767 39.0958C15.8903 39.2848 15.9721 39.4978 16.0073 39.7206C16.0424 39.9435 16.03 40.1713 15.9709 40.389C15.9117 40.6068 15.8072 40.8095 15.6642 40.984C15.4705 41.2128 15.2441 41.4116 14.9922 41.574C14.9242 41.266 15.1362 40.96 15.2822 40.688Z" fill="#8E7CC3"/>
<path opacity="0.6" d="M14.1762 41.848C14.2602 42.28 14.6062 42.61 14.9562 42.878C15.3062 43.146 15.6882 43.398 15.9062 43.782C16.1242 44.166 16.1062 44.73 15.7282 44.964C15.9248 44.8563 16.0907 44.7002 16.2101 44.5105C16.3296 44.3208 16.3987 44.1038 16.4109 43.88C16.4231 43.6561 16.3781 43.4328 16.2799 43.2313C16.1818 43.0297 16.0339 42.8565 15.8502 42.728C15.5342 42.506 15.1202 42.424 14.8502 42.128C14.7404 41.9938 14.6623 41.8364 14.6218 41.6678C14.5813 41.4991 14.5793 41.3235 14.6162 41.154C14.6907 40.8724 14.7883 40.5975 14.9082 40.332C14.4522 40.46 14.0842 41.364 14.1762 41.848Z" fill="white"/>
<path opacity="0.6" d="M15.2822 40.688C15.4834 40.3617 15.6224 40.001 15.6922 39.624C15.7362 39.246 15.2922 38.624 15.2922 38.624C15.482 38.7461 15.6438 38.9069 15.767 39.0958C15.8903 39.2848 15.9721 39.4978 16.0073 39.7206C16.0424 39.9435 16.03 40.1713 15.9709 40.389C15.9117 40.6068 15.8072 40.8095 15.6642 40.984C15.4705 41.2128 15.2441 41.4116 14.9922 41.574C14.9242 41.266 15.1362 40.96 15.2822 40.688Z" fill="white"/>
<path d="M15.0002 38.73C14.8711 38.5201 14.7816 38.2882 14.7362 38.046C14.7162 37.8 15.0002 37.4 15.0002 37.4C14.8786 37.4787 14.7751 37.5822 14.6962 37.7036C14.6173 37.8251 14.565 37.9618 14.5425 38.1049C14.52 38.2479 14.528 38.3941 14.5658 38.5339C14.6037 38.6736 14.6706 38.8039 14.7622 38.916C14.8859 39.0633 15.0308 39.1914 15.1922 39.296C15.2382 39.1 15.1002 38.904 15.0002 38.73Z" fill="#8E7CC3"/>
<path opacity="0.6" d="M15.0002 38.73C14.8711 38.5201 14.7816 38.2882 14.7362 38.046C14.7162 37.8 15.0002 37.4 15.0002 37.4C14.8786 37.4787 14.7751 37.5822 14.6962 37.7036C14.6173 37.8251 14.565 37.9618 14.5425 38.1049C14.52 38.2479 14.528 38.3941 14.5658 38.5339C14.6037 38.6736 14.6706 38.8039 14.7622 38.916C14.8859 39.0633 15.0308 39.1914 15.1922 39.296C15.2382 39.1 15.1002 38.904 15.0002 38.73Z" fill="white"/>
<path d="M66.8842 47.86H55.2942C55.2942 47.86 55.5622 46.46 55.7162 46.42C55.8702 46.38 57.8382 44.832 60.0202 45.706C60.4982 45.894 60.8422 46.038 61.0902 46.142C61.3362 46.038 61.6902 45.894 62.1582 45.706C64.3422 44.832 66.3122 46.388 66.4642 46.42C66.6162 46.452 66.8842 47.86 66.8842 47.86Z" fill="#8E7CC3"/>
<path opacity="0.6" d="M66.8842 47.86H55.2942V47.826C55.3382 47.608 55.5702 46.45 55.7102 46.426C55.7193 46.4241 55.7281 46.4207 55.7362 46.416C56.0122 46.28 57.9142 44.87 60.0142 45.71C60.4922 45.91 60.8362 46.042 61.0822 46.148C61.3302 46.042 61.6822 45.9 62.1522 45.71C64.3362 44.838 66.3062 46.394 66.4582 46.426C66.6102 46.458 66.8842 47.86 66.8842 47.86Z" fill="white"/>
<path d="M68.2003 47.86H56.4783C56.4783 47.86 56.7483 46.4361 56.9043 46.4021C57.0603 46.3681 59.0523 45.0121 61.2603 45.8941C61.7443 46.0941 62.3423 46.8321 62.3423 46.8321C62.3423 46.8321 62.9423 46.0861 63.4243 45.8941C65.6343 45.0121 67.6243 46.3701 67.7843 46.4021C67.9443 46.4341 68.2003 47.86 68.2003 47.86Z" fill="#8E7CC3"/>
<path opacity="0.8" d="M68.2003 47.86H56.4783C56.4783 47.86 56.7483 46.4361 56.9043 46.4021C57.0603 46.3681 59.0523 45.0121 61.2603 45.8941C61.7443 46.0941 62.3423 46.8321 62.3423 46.8321C62.3423 46.8321 62.9423 46.0861 63.4243 45.8941C65.6343 45.0121 67.6243 46.3701 67.7843 46.4021C67.9443 46.4341 68.2003 47.86 68.2003 47.86Z" fill="white"/>
<path d="M62.3962 47.224L62.0222 47.9H62.9042L62.3962 47.224Z" fill="#8E7CC3"/>
<g opacity="0.3">
<path d="M62.3962 47.224L62.0222 47.9H62.9042L62.3962 47.224Z" fill="#1F1F1F"/>
</g>
<path opacity="0.1" d="M56.8882 46.41C56.8091 46.5705 56.7468 46.7387 56.7022 46.912C56.5922 47.34 56.4782 47.86 56.4782 47.86H55.2942V47.826C55.3382 47.608 55.5702 46.45 55.7102 46.426C55.7193 46.4241 55.7281 46.4208 55.7362 46.416L56.8882 46.41Z" fill="#1F1F1F"/>
<path d="M68.6562 48.294L62.9042 48.428L62.8922 48.416C62.7741 48.3115 62.6219 48.2539 62.4643 48.2539C62.3066 48.2539 62.1543 48.3115 62.0362 48.416L62.0242 48.428L56.1003 48.35L54.6042 48.332L54.7162 47.82H62.0242C62.1436 47.7084 62.3009 47.6462 62.4643 47.6462C62.6276 47.6462 62.7849 47.7084 62.9042 47.82H68.5042L68.6562 48.294Z" fill="#8E7CC3"/>
<g opacity="0.3">
<path d="M56.2162 47.8201L56.1003 48.3501L54.6042 48.3321L54.7182 47.8201H56.2162Z" fill="#1F1F1F"/>
</g>
<path d="M62.9042 46.908C62.9042 46.908 63.8062 45.872 64.9042 46.064C64.9002 46.064 64.1342 45.968 62.9042 46.908Z" fill="#8E7CC3"/>
<path opacity="0.4" d="M62.9042 46.908C62.9042 46.908 63.8062 45.872 64.9042 46.064C64.9002 46.064 64.1342 45.968 62.9042 46.908Z" fill="white"/>
<path d="M60.7562 47.384C60.7562 47.384 59.5562 46.728 58.5902 47.29C58.6002 47.29 59.2742 46.932 60.7562 47.384Z" fill="#8E7CC3"/>
<path opacity="0.4" d="M60.7562 47.384C60.7562 47.384 59.5562 46.728 58.5902 47.29C58.6002 47.29 59.2742 46.932 60.7562 47.384Z" fill="white"/>
<path d="M61.8982 47.03C61.8982 47.03 60.9322 46.052 59.8522 46.312C59.8522 46.312 60.6122 46.168 61.8982 47.03Z" fill="#8E7CC3"/>
<path opacity="0.4" d="M61.8982 47.03C61.8982 47.03 60.9322 46.052 59.8522 46.312C59.8522 46.312 60.6122 46.168 61.8982 47.03Z" fill="white"/>
<path d="M64.3422 46.8921C64.3422 46.8921 65.5422 46.2301 66.5082 46.7861C66.5082 46.7861 65.8202 46.4321 64.3422 46.8921Z" fill="#8E7CC3"/>
<path opacity="0.4" d="M64.3422 46.8921C64.3422 46.8921 65.5422 46.2301 66.5082 46.7861C66.5082 46.7861 65.8202 46.4321 64.3422 46.8921Z" fill="white"/>
<path d="M74.7259 66.1221H74.7359C74.7547 66.1201 74.7719 66.1108 74.7839 66.0962C74.7958 66.0816 74.8016 66.0629 74.7999 66.0441C74.7999 66.0321 74.7999 65.8921 74.7999 65.6441C74.7999 65.2861 74.7999 64.5361 74.8599 63.5321C74.8588 63.5181 74.8588 63.5041 74.8599 63.4901C74.9239 62.3681 75.0339 61.2681 75.1859 60.2161C75.3279 59.2361 75.5119 58.2861 75.7279 57.3921C75.9154 56.6236 76.1424 55.8652 76.4079 55.1201C76.4479 55.0101 76.4879 54.9001 76.5299 54.7901C76.5719 54.6801 76.5999 54.6121 76.6359 54.5221C76.7279 54.2921 76.8139 54.0701 76.8879 53.8641C77.0519 53.4101 77.1999 52.9561 77.3279 52.5161C77.4039 52.2521 77.4739 51.9901 77.5279 51.7421C77.763 50.7963 77.9169 49.8321 77.9879 48.8601C78.0139 48.4781 78.0259 48.0961 78.0219 47.7241C78.0189 47.3344 77.9949 46.9452 77.9499 46.5581C77.9499 46.5301 77.9499 46.5061 77.9499 46.4801V46.4441C77.9505 46.4302 77.947 46.4164 77.9397 46.4045C77.9324 46.3926 77.9218 46.3831 77.9091 46.3773C77.8964 46.3715 77.8823 46.3696 77.8686 46.3719C77.8548 46.3742 77.842 46.3805 77.8319 46.3901C77.8231 46.3988 77.8165 46.4096 77.8127 46.4214C77.8088 46.4332 77.8079 46.4458 77.8099 46.4581V46.4961C77.8099 46.5221 77.8099 46.5481 77.8199 46.5761C77.8633 46.9579 77.8867 47.3418 77.8899 47.7261C77.8899 48.0941 77.8899 48.4721 77.8559 48.8501C77.7854 49.8146 77.6328 50.7714 77.3999 51.7101C77.3399 51.9581 77.2719 52.2161 77.1999 52.4781C77.0739 52.9161 76.9259 53.3661 76.7619 53.8161C76.6879 54.0161 76.6039 54.2421 76.5119 54.4721C76.4759 54.5621 76.4399 54.6521 76.4059 54.7421C76.3719 54.8321 76.3219 54.9621 76.2819 55.0721C76.0142 55.8223 75.7858 56.586 75.5979 57.3601C75.3799 58.2581 75.1979 59.2141 75.0539 60.1981C74.8999 61.2541 74.7899 62.3581 74.7259 63.4801C74.7249 63.4967 74.7249 63.5134 74.7259 63.5301C74.6679 64.5301 74.6639 65.2881 74.6659 65.6481C74.6659 65.8921 74.6659 66.0481 74.6659 66.0481C74.6656 66.0655 74.6714 66.0825 74.6824 66.096C74.6934 66.1096 74.7088 66.1188 74.7259 66.1221Z" fill="#8E7CC3"/>
<path d="M77.874 46.468C77.7602 46.3482 77.6334 46.2416 77.496 46.15C77.345 46.0522 77.1824 45.9736 77.012 45.916" fill="#8E7CC3"/>
<path d="M77.8719 46.538C77.8811 46.5408 77.8908 46.5408 77.8999 46.538C77.9171 46.5313 77.9309 46.5181 77.9384 46.5013C77.9459 46.4844 77.9465 46.4653 77.9399 46.448C77.9368 46.4392 77.9321 46.4311 77.9259 46.424C77.8048 46.3006 77.6707 46.1906 77.5259 46.096C77.3692 45.995 77.2006 45.9137 77.0239 45.854C77.0064 45.8496 76.9877 45.8519 76.9718 45.8606C76.9559 45.8692 76.9438 45.8836 76.938 45.9007C76.9322 45.9179 76.9331 45.9367 76.9405 45.9532C76.9479 45.9698 76.9613 45.9829 76.9779 45.99C77.1437 46.0448 77.3017 46.1208 77.4479 46.216C77.5806 46.3038 77.7027 46.4064 77.8119 46.522C77.82 46.5291 77.8297 46.5343 77.8401 46.537C77.8505 46.5398 77.8614 46.5402 77.8719 46.538Z" fill="#8E7CC3"/>
<path d="M77.9539 47.8001C77.9704 47.8013 77.9868 47.7963 77.9999 47.7861L78.4959 47.4121C78.5048 47.407 78.5125 47.4001 78.5185 47.3918C78.5245 47.3835 78.5287 47.3741 78.5308 47.364C78.5329 47.354 78.5328 47.3437 78.5305 47.3337C78.5283 47.3237 78.5239 47.3143 78.5178 47.3061C78.5116 47.2979 78.5037 47.2912 78.4948 47.2863C78.4858 47.2814 78.4758 47.2784 78.4656 47.2777C78.4554 47.2769 78.4452 47.2783 78.4356 47.2818C78.4259 47.2854 78.4172 47.2909 78.4099 47.2981L77.9139 47.6721C77.9062 47.6776 77.8998 47.6846 77.8949 47.6927C77.8901 47.7008 77.8869 47.7097 77.8856 47.7191C77.8843 47.7284 77.8849 47.7379 77.8873 47.747C77.8898 47.7561 77.894 47.7646 77.8999 47.7721C77.9062 47.7805 77.9143 47.7874 77.9237 47.7922C77.933 47.7971 77.9433 47.7997 77.9539 47.8001Z" fill="#8E7CC3"/>
<path d="M76.8179 53.92C76.8367 53.9196 76.8547 53.9122 76.8684 53.8992C76.882 53.8863 76.8904 53.8688 76.8919 53.85C76.8805 53.7141 76.8536 53.5799 76.8119 53.45C76.7578 53.2702 76.6769 53.0996 76.5719 52.944C76.4929 52.8273 76.4017 52.7194 76.2999 52.622C76.2932 52.6153 76.2853 52.61 76.2765 52.6063C76.2677 52.6027 76.2584 52.6008 76.2489 52.6008C76.2394 52.6008 76.23 52.6027 76.2213 52.6063C76.2125 52.61 76.2046 52.6153 76.1979 52.622C76.1912 52.6285 76.186 52.6363 76.1823 52.6449C76.1787 52.6535 76.1769 52.6627 76.1769 52.672C76.1769 52.6813 76.1787 52.6905 76.1823 52.6991C76.186 52.7077 76.1912 52.7155 76.1979 52.722C76.2921 52.8122 76.3766 52.9121 76.4499 53.02C76.547 53.1647 76.6218 53.3231 76.6719 53.49C76.7093 53.6036 76.7341 53.721 76.7459 53.84C76.7451 53.849 76.7461 53.8581 76.7489 53.8666C76.7517 53.8752 76.7563 53.8831 76.7623 53.8899C76.7683 53.8966 76.7756 53.9021 76.7838 53.9059C76.792 53.9097 76.8009 53.9118 76.8099 53.912L76.8179 53.92Z" fill="#8E7CC3"/>
<path d="M76.3359 55.174C76.3495 55.1743 76.363 55.1707 76.3747 55.1636C76.3864 55.1565 76.3958 55.1462 76.4019 55.134C76.4775 54.989 76.582 54.8609 76.7089 54.7578C76.8358 54.6546 76.9825 54.5784 77.1399 54.534C77.1578 54.5284 77.1728 54.5161 77.1817 54.4997C77.1907 54.4833 77.1929 54.464 77.1879 54.446C77.1854 54.437 77.1811 54.4286 77.1752 54.4213C77.1694 54.414 77.1622 54.4079 77.154 54.4034C77.1458 54.399 77.1368 54.3962 77.1275 54.3952C77.1182 54.3943 77.1088 54.3952 77.0999 54.398C76.9231 54.4486 76.7587 54.535 76.617 54.652C76.4752 54.7691 76.3591 54.9141 76.2759 55.078C76.2674 55.0948 76.2657 55.1142 76.2713 55.1321C76.2769 55.15 76.2893 55.1651 76.3059 55.174H76.3359Z" fill="#8E7CC3"/>
<path d="M74.9679 61.444C75.1379 61.272 75.3159 60.578 75.4119 60.204C75.4359 60.116 75.4559 60.04 75.4719 59.984" fill="#8E7CC3"/>
<path d="M74.9639 61.516C74.9739 61.5165 74.984 61.5147 74.9933 61.5109C75.0026 61.5071 75.011 61.5014 75.0179 61.494C75.1879 61.324 75.3459 60.748 75.4819 60.222C75.5039 60.134 75.5239 60.058 75.5399 60.004C75.5448 59.9857 75.5423 59.9663 75.5329 59.9498C75.5236 59.9333 75.5081 59.9212 75.4899 59.916C75.4716 59.9111 75.4521 59.9136 75.4356 59.923C75.4191 59.9323 75.407 59.9478 75.4019 59.966L75.3439 60.188C75.2559 60.528 75.0739 61.236 74.9159 61.388C74.907 61.3983 74.9012 61.4107 74.8989 61.424C74.8966 61.4373 74.898 61.451 74.903 61.4636C74.9079 61.4761 74.9162 61.4871 74.9269 61.4953C74.9377 61.5035 74.9504 61.5086 74.9639 61.51V61.516Z" fill="#8E7CC3"/>
<path d="M76.8599 58.5221C77.0019 59.1941 75.4859 60.3101 75.4859 60.3101C75.4859 60.3101 73.6439 59.9101 73.5019 59.2401C73.3599 58.5701 73.9239 57.5441 74.8519 57.3461C75.7799 57.1481 76.7159 57.8521 76.8599 58.5221Z" fill="#8E7CC3"/>
<path d="M79.1279 50.7421C78.8879 51.4201 77.5119 51.7941 77.5119 51.7941C77.5119 51.7941 76.6799 50.6361 76.9119 49.9581C77.1439 49.2801 77.9559 48.5841 78.5659 48.8001C79.1759 49.0161 79.3679 50.0661 79.1279 50.7421Z" fill="#8E7CC3"/>
<path d="M75.42 52.648C75.5751 52.8062 75.759 52.9332 75.962 53.022C76.0637 53.0663 76.1756 53.0815 76.2854 53.0659C76.3952 53.0504 76.4986 53.0047 76.584 52.934C76.784 52.744 76.762 52.42 76.672 52.162C76.492 51.65 75.742 50.74 75.088 50.922C74.144 51.188 75.038 52.31 75.42 52.648Z" fill="#8E7CC3"/>
<path d="M77.176 54.07C77.044 54.208 76.9 54.384 76.95 54.57C76.9804 54.6491 77.0361 54.7159 77.1084 54.7601C77.1808 54.8042 77.2657 54.8232 77.35 54.814C77.519 54.7907 77.6804 54.7292 77.822 54.634C78.164 54.434 78.868 54.034 78.484 53.55C78.1 53.066 77.458 53.78 77.176 54.07Z" fill="#8E7CC3"/>
<path d="M76.9999 45.6181C76.7999 45.6181 76.5999 45.5301 76.3999 45.5261C76.1999 45.5221 75.9659 45.6601 75.9999 45.8581C76.0339 46.0561 76.2439 46.1221 76.4259 46.1501C76.7384 46.1977 77.0557 46.2045 77.3699 46.1701C77.4445 46.1709 77.5164 46.1422 77.5699 46.0901C77.6619 45.9801 77.5479 45.8081 77.4139 45.7541C77.276 45.7233 77.1419 45.6777 77.0139 45.6181H76.9999Z" fill="#8E7CC3"/>
<path d="M78.82 47.16C79.02 47.182 79.22 47.116 79.42 47.132C79.62 47.148 79.838 47.316 79.79 47.51C79.742 47.704 79.518 47.744 79.334 47.752C79.0175 47.7649 78.7006 47.7353 78.392 47.664C78.3188 47.6562 78.2514 47.6203 78.204 47.564C78.126 47.444 78.258 47.286 78.404 47.248C78.5467 47.2327 78.6875 47.2026 78.824 47.158L78.82 47.16Z" fill="#8E7CC3"/>
<path d="M77.9179 46.736C77.9367 46.7355 77.9545 46.7277 77.9675 46.7142C77.9806 46.7008 77.9879 46.6828 77.9879 46.664C77.9879 46.274 78.0359 45.902 78.1119 45.884C78.1301 45.8793 78.1457 45.8677 78.1554 45.8516C78.1651 45.8355 78.1682 45.8163 78.1639 45.798C78.1592 45.7798 78.1476 45.7642 78.1315 45.7545C78.1154 45.7448 78.0962 45.7418 78.0779 45.746C77.8479 45.802 77.8399 46.408 77.8459 46.668C77.8462 46.6772 77.8483 46.6863 77.852 46.6947C77.8558 46.703 77.8611 46.7106 77.8678 46.7169C77.8745 46.7232 77.8824 46.7282 77.891 46.7315C77.8996 46.7347 77.9087 46.7363 77.9179 46.736Z" fill="#8E7CC3"/>
<path d="M77.8259 45.818C77.9498 45.5463 78.1412 45.3108 78.3819 45.134C78.6359 44.982 79.0219 45.004 79.1819 45.258C79.3419 45.512 79.1219 45.932 78.8099 46.048C78.4869 46.1326 78.1463 46.1208 77.8299 46.014C77.8299 45.966 77.8299 45.916 77.8299 45.868L77.8259 45.818Z" fill="#8E7CC3"/>
<path d="M73.1999 68.3761H76.4379L76.7979 67.9301C77.6347 66.9462 78.1184 65.7106 78.1719 64.4201V64.3141H71.4619C71.4619 65.6241 71.9679 66.9141 72.9359 68.0621L73.1999 68.3761Z" fill="#8E7CC3"/>
<path opacity="0.4" d="M73.1999 68.3761H76.4379L76.7979 67.9301C77.6347 66.9462 78.1184 65.7106 78.1719 64.4201V64.3141H71.4619C71.4619 65.6241 71.9679 66.9141 72.9359 68.0621L73.1999 68.3761Z" fill="white"/>
<path d="M9.15396 60.3699L9.55396 60.2039C9.60959 60.2865 9.6879 60.3511 9.77946 60.3902C9.87101 60.4292 9.9719 60.4409 10.07 60.4239C10.07 60.4239 10.12 60.4679 10.118 60.4699C10.1382 60.4058 10.1381 60.3369 10.1177 60.2729C10.0973 60.2088 10.0576 60.1525 10.004 60.1119C9.89319 60.0344 9.75868 59.9983 9.62396 60.0099C9.64529 59.9261 9.64662 59.8385 9.62787 59.7541C9.60911 59.6696 9.57078 59.5908 9.51596 59.5239C9.47427 59.5584 9.44001 59.601 9.41525 59.6492C9.3905 59.6973 9.37578 59.7499 9.37196 59.8039C9.36606 59.8539 9.37125 59.9045 9.38715 59.9522C9.40305 59.9999 9.42928 60.0435 9.46396 60.0799C9.30834 60.1125 9.16247 60.181 9.03796 60.2799C9.07796 60.3179 9.10196 60.3399 9.15396 60.3699Z" fill="#8E7CC3"/>
<path opacity="0.1" d="M9.15396 60.3699L9.55396 60.2039C9.60959 60.2865 9.6879 60.3511 9.77946 60.3902C9.87101 60.4292 9.9719 60.4409 10.07 60.4239C10.07 60.4239 10.12 60.4679 10.118 60.4699C10.1382 60.4058 10.1381 60.3369 10.1177 60.2729C10.0973 60.2088 10.0576 60.1525 10.004 60.1119C9.89319 60.0344 9.75868 59.9983 9.62396 60.0099C9.64529 59.9261 9.64662 59.8385 9.62787 59.7541C9.60911 59.6696 9.57078 59.5908 9.51596 59.5239C9.47427 59.5584 9.44001 59.601 9.41525 59.6492C9.3905 59.6973 9.37578 59.7499 9.37196 59.8039C9.36606 59.8539 9.37125 59.9045 9.38715 59.9522C9.40305 59.9999 9.42928 60.0435 9.46396 60.0799C9.30834 60.1125 9.16247 60.181 9.03796 60.2799C9.07796 60.3179 9.10196 60.3399 9.15396 60.3699Z" fill="white"/>
<path d="M4.27595 61.36C3.66558 60.707 2.90079 60.218 2.05195 59.938C2.02595 59.842 1.91795 59.778 1.88995 59.682C2.88739 59.8934 3.80633 60.3781 4.54395 61.082C4.47195 61.214 4.34795 61.236 4.27595 61.36Z" fill="#263238"/>
<g opacity="0.3">
<path d="M4.27595 61.36C3.66558 60.707 2.90079 60.218 2.05195 59.938C2.02595 59.842 1.91795 59.778 1.88995 59.682C2.88739 59.8934 3.80633 60.3781 4.54395 61.082C4.47195 61.214 4.34795 61.236 4.27595 61.36Z" fill="white"/>
</g>
<path d="M5.074 54.502C4.97 54.762 5.128 55.136 5.456 55.128C5.314 54.82 4.444 54.742 4.2 55.014C4.096 55.132 4.216 55.344 4.342 55.44C4.4746 55.5161 4.61836 55.5707 4.768 55.602C4.292 55.432 3.568 56.002 3.568 56.432C3.47883 56.394 3.37847 56.3917 3.28765 56.4255C3.19683 56.4594 3.12249 56.5269 3.08 56.614C3.028 56.814 3.156 57.04 3.504 56.994C3.37244 57.0958 3.27878 57.2387 3.238 57.4C3.142 57.702 3.174 57.986 3.512 58.062C3.57273 58.0724 3.63491 58.0706 3.69497 58.0569C3.75503 58.0432 3.81179 58.0177 3.862 57.982C3.462 58.122 3.142 58.428 3.262 58.728C3.324 58.892 3.662 58.828 3.662 58.828C3.002 59.368 3.416 59.418 3.526 59.466C3.314 59.666 3.48 59.988 3.792 60.012C4.17 60.042 4.064 59.956 4.31 59.98C4.29025 60.0298 4.28487 60.0841 4.29449 60.1368C4.3041 60.1895 4.32831 60.2384 4.36437 60.278C4.40043 60.3176 4.44688 60.3463 4.49844 60.3608C4.54999 60.3753 4.60459 60.375 4.656 60.36C5.00771 60.2677 5.31614 60.0555 5.528 59.76C5.464 59.902 5.508 60.122 5.692 60.096C6.032 60.122 6.23 59.862 6.428 59.674C6.594 59.982 6.916 60.122 7.304 60.17C7.42886 60.1888 7.55649 60.171 7.67148 60.1188C7.78647 60.0667 7.8839 59.9823 7.952 59.876C8.01561 59.774 8.03897 59.6519 8.01753 59.5336C7.99608 59.4153 7.93137 59.3092 7.836 59.236C7.95823 59.3121 8.09408 59.3637 8.236 59.388C8.27331 59.3936 8.31143 59.3874 8.34508 59.3703C8.37873 59.3532 8.40624 59.3261 8.42381 59.2927C8.44138 59.2594 8.44814 59.2213 8.44316 59.1839C8.43818 59.1466 8.4217 59.1116 8.396 59.084C8.33767 59.025 8.28847 58.9576 8.25 58.884C8.44607 58.9371 8.65226 58.9405 8.85 58.894C8.91237 58.8825 8.97071 58.8551 9.01936 58.8144C9.06801 58.7737 9.10531 58.7211 9.12765 58.6617C9.14998 58.6023 9.1566 58.5382 9.14685 58.4755C9.1371 58.4129 9.11131 58.3538 9.072 58.304C8.97947 58.1936 8.86333 58.1053 8.73213 58.0458C8.60093 57.9862 8.45804 57.9569 8.314 57.96C8.806 57.904 8.926 57.908 9.314 57.618C9.43 57.45 9.46 57.196 9.286 57.078C9.18952 57.0202 9.07873 56.9907 8.96628 56.9928C8.85382 56.9949 8.74423 57.0286 8.65 57.09C8.76386 56.9803 8.85088 56.8458 8.9043 56.697C8.95772 56.5482 8.9761 56.3891 8.958 56.232C8.952 56.1612 8.92539 56.0936 8.88145 56.0377C8.83751 55.9818 8.77816 55.94 8.71072 55.9175C8.64329 55.8949 8.57074 55.8926 8.50201 55.9108C8.43328 55.9291 8.3714 55.967 8.324 56.02C8.24383 56.0958 8.18364 56.1903 8.14875 56.2949C8.11385 56.3996 8.10535 56.5113 8.124 56.62C8.25233 56.3299 8.30596 56.0122 8.28 55.696C8.27401 55.5925 8.23384 55.494 8.16579 55.4158C8.09774 55.3376 8.00566 55.2842 7.904 55.264C7.462 55.176 6.946 55.244 6.904 55.588C7.022 54.6 5.532 54.25 5.074 54.502Z" fill="#8E7CC3"/>
<path opacity="0.2" d="M5.074 54.502C4.97 54.762 5.128 55.136 5.456 55.128C5.314 54.82 4.444 54.742 4.2 55.014C4.096 55.132 4.216 55.344 4.342 55.44C4.4746 55.5161 4.61836 55.5707 4.768 55.602C4.292 55.432 3.568 56.002 3.568 56.432C3.47883 56.394 3.37847 56.3917 3.28765 56.4255C3.19683 56.4594 3.12249 56.5269 3.08 56.614C3.028 56.814 3.156 57.04 3.504 56.994C3.37244 57.0958 3.27878 57.2387 3.238 57.4C3.142 57.702 3.174 57.986 3.512 58.062C3.57273 58.0724 3.63491 58.0706 3.69497 58.0569C3.75503 58.0432 3.81179 58.0177 3.862 57.982C3.462 58.122 3.142 58.428 3.262 58.728C3.324 58.892 3.662 58.828 3.662 58.828C3.002 59.368 3.416 59.418 3.526 59.466C3.314 59.666 3.48 59.988 3.792 60.012C4.17 60.042 4.064 59.956 4.31 59.98C4.29025 60.0298 4.28487 60.0841 4.29449 60.1368C4.3041 60.1895 4.32831 60.2384 4.36437 60.278C4.40043 60.3176 4.44688 60.3463 4.49844 60.3608C4.54999 60.3753 4.60459 60.375 4.656 60.36C5.00771 60.2677 5.31614 60.0555 5.528 59.76C5.464 59.902 5.508 60.122 5.692 60.096C6.032 60.122 6.23 59.862 6.428 59.674C6.594 59.982 6.916 60.122 7.304 60.17C7.42886 60.1888 7.55649 60.171 7.67148 60.1188C7.78647 60.0667 7.8839 59.9823 7.952 59.876C8.01561 59.774 8.03897 59.6519 8.01753 59.5336C7.99608 59.4153 7.93137 59.3092 7.836 59.236C7.95823 59.3121 8.09408 59.3637 8.236 59.388C8.27331 59.3936 8.31143 59.3874 8.34508 59.3703C8.37873 59.3532 8.40624 59.3261 8.42381 59.2927C8.44138 59.2594 8.44814 59.2213 8.44316 59.1839C8.43818 59.1466 8.4217 59.1116 8.396 59.084C8.33767 59.025 8.28847 58.9576 8.25 58.884C8.44607 58.9371 8.65226 58.9405 8.85 58.894C8.91237 58.8825 8.97071 58.8551 9.01936 58.8144C9.06801 58.7737 9.10531 58.7211 9.12765 58.6617C9.14998 58.6023 9.1566 58.5382 9.14685 58.4755C9.1371 58.4129 9.11131 58.3538 9.072 58.304C8.97947 58.1936 8.86333 58.1053 8.73213 58.0458C8.60093 57.9862 8.45804 57.9569 8.314 57.96C8.806 57.904 8.926 57.908 9.314 57.618C9.43 57.45 9.46 57.196 9.286 57.078C9.18952 57.0202 9.07873 56.9907 8.96628 56.9928C8.85382 56.9949 8.74423 57.0286 8.65 57.09C8.76386 56.9803 8.85088 56.8458 8.9043 56.697C8.95772 56.5482 8.9761 56.3891 8.958 56.232C8.952 56.1612 8.92539 56.0936 8.88145 56.0377C8.83751 55.9818 8.77816 55.94 8.71072 55.9175C8.64329 55.8949 8.57074 55.8926 8.50201 55.9108C8.43328 55.9291 8.3714 55.967 8.324 56.02C8.24383 56.0958 8.18364 56.1903 8.14875 56.2949C8.11385 56.3996 8.10535 56.5113 8.124 56.62C8.25233 56.3299 8.30596 56.0122 8.28 55.696C8.27401 55.5925 8.23384 55.494 8.16579 55.4158C8.09774 55.3376 8.00566 55.2842 7.904 55.264C7.462 55.176 6.946 55.244 6.904 55.588C7.022 54.6 5.532 54.25 5.074 54.502Z" fill="#1F1F1F"/>
<path d="M6.95392 59.84C6.85462 60.1242 6.69135 60.3819 6.4767 60.5931C6.26205 60.8043 6.00177 60.9633 5.71592 61.058C5.50515 61.1008 5.3026 61.1771 5.11592 61.284C5.065 61.3259 5.02629 61.3807 5.00383 61.4427C4.98138 61.5048 4.976 61.5717 4.98827 61.6365C5.00053 61.7013 5.02999 61.7616 5.07356 61.8111C5.11713 61.8606 5.1732 61.8975 5.23592 61.918C5.57161 62.0173 5.88477 62.181 6.15792 62.4C6.48592 62.688 6.68792 63.218 6.53592 63.628C6.27592 63.842 5.78992 63.746 5.55592 63.506C5.47392 63.068 5.01192 62.83 4.60592 62.65C4.12392 62.438 3.57192 62.118 3.69392 61.514C3.73527 61.3684 3.81154 61.2351 3.9161 61.1256C4.02066 61.0162 4.15035 60.9339 4.29392 60.886C6.19992 60.312 6.39592 59.392 6.39592 59.392C6.61392 59.392 6.65792 59.314 6.87592 59.314C6.93302 59.3875 6.97019 59.4746 6.98386 59.5667C6.99752 59.6589 6.98721 59.753 6.95392 59.84Z" fill="#263238"/>
<path opacity="0.3" d="M6.95392 59.84C6.85462 60.1242 6.69135 60.3819 6.4767 60.5931C6.26205 60.8043 6.00177 60.9633 5.71592 61.058C5.50515 61.1008 5.3026 61.1771 5.11592 61.284C5.065 61.3259 5.02629 61.3807 5.00383 61.4427C4.98138 61.5048 4.976 61.5717 4.98827 61.6365C5.00053 61.7013 5.02999 61.7616 5.07356 61.8111C5.11713 61.8606 5.1732 61.8975 5.23592 61.918C5.57161 62.0173 5.88477 62.181 6.15792 62.4C6.48592 62.688 6.68792 63.218 6.53592 63.628C6.27592 63.842 5.78992 63.746 5.55592 63.506C5.47392 63.068 5.01192 62.83 4.60592 62.65C4.12392 62.438 3.57192 62.118 3.69392 61.514C3.73527 61.3684 3.81154 61.2351 3.9161 61.1256C4.02066 61.0162 4.15035 60.9339 4.29392 60.886C6.19992 60.312 6.39592 59.392 6.39592 59.392C6.61392 59.392 6.65792 59.314 6.87592 59.314C6.93302 59.3875 6.97019 59.4746 6.98386 59.5667C6.99752 59.6589 6.98721 59.753 6.95392 59.84Z" fill="white"/>
<path d="M1.98395 64.626L4.50395 63.668C5.49872 63.2917 6.59355 63.274 7.59995 63.618L10.534 64.618C7.76614 65.602 4.74376 65.602 1.97595 64.618L1.98395 64.626Z" fill="#263238"/>
<path d="M11.244 67.5379V67.5639C11.1476 67.8415 10.9671 68.082 10.7277 68.2523C10.4883 68.4225 10.2017 68.514 9.90796 68.5139H2.61196C2.31766 68.514 2.03066 68.4223 1.79087 68.2517C1.55107 68.0811 1.3704 67.84 1.27396 67.5619V67.5379C1.04385 66.881 1.03822 66.1664 1.25796 65.5059L1.59996 64.4299H10.9L11.254 65.5059C11.4747 66.1658 11.4712 66.8802 11.244 67.5379Z" fill="#8E7CC3"/>
<g opacity="0.4">
<path d="M11.244 67.5379V67.5639C11.1476 67.8415 10.9671 68.082 10.7277 68.2523C10.4883 68.4225 10.2017 68.514 9.90796 68.5139H2.61196C2.31766 68.514 2.03066 68.4223 1.79087 68.2517C1.55107 68.0811 1.3704 67.84 1.27396 67.5619V67.5379C1.04385 66.881 1.03822 66.1664 1.25796 65.5059L1.59996 64.4299H10.9L11.254 65.5059C11.4747 66.1658 11.4712 66.8802 11.244 67.5379Z" fill="white"/>
</g>
<path d="M6.09401 62.988C6.54359 62.3824 7.16322 61.9243 7.87401 61.672C7.92801 61.652 8.01001 61.518 7.96201 61.486C7.33713 61.6233 6.74091 61.8683 6.20001 62.21C5.98268 62.3384 5.81073 62.5314 5.70801 62.762C5.83201 62.932 5.88201 63 6.09401 62.988Z" fill="#263238"/>
<path opacity="0.3" d="M6.09401 62.988C6.54359 62.3824 7.16322 61.9243 7.87401 61.672C7.92801 61.652 8.01001 61.518 7.96201 61.486C7.33713 61.6233 6.74091 61.8683 6.20001 62.21C5.98268 62.3384 5.81073 62.5314 5.70801 62.762C5.83201 62.932 5.88201 63 6.09401 62.988Z" fill="white"/>
<path d="M5.54599 53.886C5.51681 53.9517 5.50398 54.0236 5.50858 54.0954C5.51318 54.1672 5.53509 54.2368 5.57242 54.2983C5.60974 54.3598 5.6614 54.4113 5.72296 54.4485C5.78453 54.4857 5.85418 54.5075 5.92599 54.512C5.78599 54.204 4.92599 54.126 4.67199 54.398C4.56599 54.516 4.68799 54.728 4.81399 54.824C4.94659 54.9 5.09035 54.9547 5.23999 54.986C4.76199 54.816 4.03999 55.386 4.03999 55.816C3.95048 55.7783 3.85 55.7762 3.75898 55.81C3.66797 55.8438 3.59324 55.911 3.54999 55.998C3.49799 56.198 3.62799 56.424 3.97399 56.378C3.84072 56.485 3.74708 56.6336 3.70799 56.8C3.61399 57.102 3.64399 57.386 3.98399 57.462C4.10664 57.4824 4.23241 57.4537 4.33399 57.382C3.93399 57.522 3.61399 57.828 3.73399 58.128C3.79399 58.292 4.13399 58.228 4.13399 58.228C3.47599 58.768 3.88799 58.818 3.99999 58.866C3.78599 59.066 3.95399 59.388 4.26599 59.412C4.64199 59.442 4.53799 59.356 4.78399 59.38C4.76362 59.4296 4.75771 59.4839 4.76694 59.5367C4.77617 59.5896 4.80017 59.6387 4.83615 59.6784C4.87214 59.7182 4.91865 59.7469 4.97029 59.7614C5.02193 59.7758 5.07661 59.7753 5.12799 59.76C5.48 59.6672 5.78891 59.4551 6.00199 59.16C5.93799 59.302 5.97999 59.522 6.16399 59.496C6.50399 59.522 6.70199 59.262 6.90199 59.074C7.06799 59.384 7.38999 59.522 7.77599 59.57C7.90113 59.5886 8.029 59.5708 8.14429 59.5187C8.25957 59.4666 8.35738 59.3823 8.42599 59.276C8.48915 59.1738 8.51225 59.0519 8.49083 58.9337C8.46941 58.8155 8.40499 58.7095 8.30999 58.636C8.4318 58.7129 8.56782 58.7646 8.70999 58.788C8.7473 58.7935 8.78542 58.7873 8.81907 58.7703C8.85272 58.7532 8.88023 58.7261 8.8978 58.6927C8.91537 58.6593 8.92213 58.6213 8.91715 58.5839C8.91217 58.5465 8.89569 58.5116 8.86999 58.484C8.81052 58.4254 8.76059 58.3579 8.72199 58.284C8.91811 58.3367 9.12422 58.3401 9.32199 58.294C9.38419 58.2822 9.4423 58.2545 9.49071 58.2137C9.53911 58.1729 9.57616 58.1203 9.59828 58.061C9.6204 58.0016 9.62684 57.9376 9.61698 57.8751C9.60712 57.8125 9.58129 57.7536 9.54199 57.704C9.45313 57.592 9.34042 57.5012 9.21207 57.4382C9.08371 57.3753 8.94294 57.3417 8.79999 57.34C9.29399 57.284 9.41199 57.288 9.79999 56.998C9.91599 56.83 9.94599 56.576 9.77199 56.458C9.67573 56.4006 9.56533 56.3712 9.45327 56.3734C9.34122 56.3755 9.232 56.409 9.13799 56.47C9.25111 56.3597 9.33764 56.2252 9.391 56.0765C9.44437 55.9278 9.46317 55.769 9.44599 55.612C9.43848 55.5424 9.41121 55.4765 9.36741 55.422C9.32361 55.3675 9.26511 55.3267 9.19883 55.3044C9.13255 55.2821 9.06127 55.2792 8.99342 55.2961C8.92557 55.3131 8.864 55.3491 8.81599 55.4C8.73611 55.476 8.67611 55.5704 8.64124 55.6751C8.60637 55.7797 8.5977 55.8912 8.61599 56C8.74334 55.7095 8.79693 55.3921 8.77199 55.076C8.76588 54.9731 8.72617 54.8752 8.65896 54.7971C8.59175 54.7191 8.50076 54.6653 8.39999 54.644C7.95799 54.556 7.43999 54.624 7.39999 54.968C7.49199 53.978 5.99999 53.634 5.54599 53.886Z" fill="#8E7CC3"/>
<path d="M7.71601 60.5099C7.62315 60.4581 7.51952 60.4287 7.41331 60.4238C7.3071 60.419 7.20121 60.4388 7.10401 60.4819C7.11856 60.5791 7.15888 60.6706 7.22078 60.747C7.28269 60.8233 7.36391 60.8816 7.45601 60.9159C7.377 60.9056 7.29671 60.9192 7.22545 60.9548C7.15418 60.9904 7.09518 61.0465 7.05601 61.1159C7.02336 61.1833 7.01256 61.2593 7.02511 61.3331C7.03765 61.407 7.07293 61.4751 7.12601 61.5279H7.17001C7.12788 61.5816 7.10502 61.6478 7.1051 61.716C7.10517 61.7842 7.12817 61.8504 7.17041 61.904C7.21265 61.9575 7.27167 61.9953 7.33798 62.0112C7.40429 62.0272 7.47403 62.0204 7.53601 61.9919C7.57895 62.0488 7.63337 62.096 7.69573 62.1304C7.7581 62.1649 7.82702 62.1858 7.89801 62.1919C7.96849 62.1926 8.03826 62.1779 8.1025 62.1489C8.16674 62.1199 8.22389 62.0772 8.27001 62.0239C8.24601 62.1359 8.38201 62.2819 8.48801 62.3219C8.54263 62.3394 8.60047 62.3443 8.65725 62.3363C8.71403 62.3284 8.76829 62.3077 8.81601 62.2759C8.91014 62.2111 8.99038 62.1282 9.05201 62.0319C9.16109 61.8499 9.20799 61.6373 9.18562 61.4262C9.16325 61.2151 9.07283 61.0171 8.92801 60.8619C8.64601 60.5499 8.13601 60.4679 7.71601 60.5099Z" fill="#8E7CC3"/>
<path opacity="0.2" d="M7.71601 60.5099C7.62315 60.4581 7.51952 60.4287 7.41331 60.4238C7.3071 60.419 7.20121 60.4388 7.10401 60.4819C7.11856 60.5791 7.15888 60.6706 7.22078 60.747C7.28269 60.8233 7.36391 60.8816 7.45601 60.9159C7.377 60.9056 7.29671 60.9192 7.22545 60.9548C7.15418 60.9904 7.09518 61.0465 7.05601 61.1159C7.02336 61.1833 7.01256 61.2593 7.02511 61.3331C7.03765 61.407 7.07293 61.4751 7.12601 61.5279H7.17001C7.12788 61.5816 7.10502 61.6478 7.1051 61.716C7.10517 61.7842 7.12817 61.8504 7.17041 61.904C7.21265 61.9575 7.27167 61.9953 7.33798 62.0112C7.40429 62.0272 7.47403 62.0204 7.53601 61.9919C7.57895 62.0488 7.63337 62.096 7.69573 62.1304C7.7581 62.1649 7.82702 62.1858 7.89801 62.1919C7.96849 62.1926 8.03826 62.1779 8.1025 62.1489C8.16674 62.1199 8.22389 62.0772 8.27001 62.0239C8.24601 62.1359 8.38201 62.2819 8.48801 62.3219C8.54263 62.3394 8.60047 62.3443 8.65725 62.3363C8.71403 62.3284 8.76829 62.3077 8.81601 62.2759C8.91014 62.2111 8.99038 62.1282 9.05201 62.0319C9.16109 61.8499 9.20799 61.6373 9.18562 61.4262C9.16325 61.2151 9.07283 61.0171 8.92801 60.8619C8.64601 60.5499 8.13601 60.4679 7.71601 60.5099Z" fill="#1F1F1F"/>
<path d="M8.39991 60.056C8.37463 59.993 8.36579 59.9247 8.3742 59.8573C8.38262 59.79 8.40802 59.7259 8.44803 59.6711C8.48803 59.6163 8.54132 59.5726 8.60287 59.5441C8.66443 59.5155 8.73224 59.5031 8.79991 59.508C8.98191 59.562 9.27191 59.732 9.28791 59.922C9.29334 60.0175 9.27066 60.1126 9.22268 60.1954C9.1747 60.2782 9.10351 60.3452 9.01791 60.388C9.19991 60.222 9.71991 60.348 9.79391 60.588C9.86791 60.828 9.57791 61.088 9.36191 60.972C9.72391 60.962 10.1399 61.466 10.1019 61.826C10.0453 61.8834 9.97764 61.9288 9.90305 61.9595C9.82846 61.9902 9.74844 62.0056 9.66779 62.0046C9.58714 62.0037 9.5075 61.9865 9.43364 61.9541C9.35978 61.9217 9.29321 61.8747 9.23792 61.816C9.41392 61.934 9.57991 62.254 9.46991 62.436C9.41062 62.5241 9.32081 62.5872 9.21777 62.6131C9.11474 62.6389 9.00579 62.6257 8.91191 62.576C8.62991 62.414 8.47791 62.08 8.69191 61.834C8.54672 61.819 8.40032 61.8472 8.27113 61.9152C8.14195 61.9832 8.03576 62.0878 7.96591 62.216C7.83791 61.992 7.99591 61.648 8.22191 61.524C7.89791 61.354 7.59392 61.19 7.23792 61.274C7.31592 61.034 7.49992 60.734 7.74592 60.674C7.87001 60.6495 7.99831 60.657 8.11869 60.6958C8.23907 60.7347 8.34757 60.8036 8.43391 60.896C8.22331 60.8634 8.02983 60.7608 7.88468 60.6048C7.73953 60.4488 7.65119 60.2484 7.63391 60.036C7.81991 59.854 8.44791 60.092 8.39991 60.056Z" fill="#8E7CC3"/>
<path d="M0.93999 58.5279C0.901694 58.5118 0.859775 58.5063 0.818613 58.5119C0.777451 58.5175 0.738555 58.5341 0.705989 58.5599C0.683507 58.5914 0.671423 58.6292 0.671423 58.6679C0.671423 58.7066 0.683507 58.7444 0.705989 58.7759C0.750318 58.8392 0.80758 58.8924 0.873989 58.9319C0.835403 58.9338 0.797786 58.9446 0.764135 58.9636C0.730485 58.9826 0.701731 59.0091 0.680168 59.0412C0.658605 59.0732 0.644829 59.1099 0.639936 59.1482C0.635044 59.1865 0.639171 59.2255 0.651989 59.2619C0.682566 59.3352 0.734274 59.3977 0.800524 59.4416C0.866773 59.4854 0.944566 59.5085 1.02399 59.5079C1.00583 59.5354 0.993955 59.5665 0.989199 59.5991C0.984444 59.6317 0.986929 59.6649 0.996477 59.6964C1.00603 59.7279 1.0224 59.7569 1.04444 59.7814C1.06648 59.8058 1.09364 59.8251 1.12399 59.8379C1.18724 59.8603 1.25454 59.8691 1.32143 59.8636C1.38831 59.8581 1.45327 59.8384 1.51199 59.8059C1.6283 59.7404 1.7493 59.6836 1.87399 59.6359C1.88527 59.7062 1.90898 59.7739 1.94399 59.8359C1.96236 59.8653 1.98805 59.8894 2.01856 59.9059C2.04906 59.9224 2.08333 59.9307 2.11799 59.9299C2.13517 59.9286 2.15187 59.9236 2.16695 59.9153C2.18203 59.9069 2.19514 59.8955 2.20539 59.8816C2.21564 59.8678 2.22278 59.8519 2.22634 59.835C2.22989 59.8181 2.22977 59.8007 2.22599 59.7839C2.31893 59.8753 2.43193 59.9438 2.55599 59.9839C2.59084 59.9968 2.62914 59.9968 2.66399 59.9839C2.72399 59.9579 2.72999 59.8719 2.70199 59.8139C2.67399 59.7559 2.62399 59.7099 2.59599 59.6519C2.57917 59.6242 2.57334 59.5911 2.57963 59.5593C2.58592 59.5275 2.60388 59.4992 2.62999 59.4799C2.87572 59.3799 3.08894 59.2137 3.24599 58.9999C3.27799 58.9539 3.30799 58.8919 3.27599 58.8459C3.26032 58.8294 3.24076 58.8171 3.21909 58.8101C3.19743 58.8031 3.17436 58.8017 3.15199 58.8059C2.98562 58.8119 2.82197 58.85 2.66999 58.9179C2.66685 58.8092 2.6859 58.701 2.72599 58.5999C2.74554 58.5489 2.75194 58.4937 2.7446 58.4395C2.73726 58.3854 2.71642 58.3339 2.68399 58.2899C2.63748 58.2517 2.57917 58.2308 2.51899 58.2308C2.45881 58.2308 2.4005 58.2517 2.35399 58.2899C2.26413 58.3715 2.19549 58.4738 2.15399 58.5879C2.10508 58.465 2.01247 58.3646 1.89399 58.3059C1.83479 58.2776 1.76876 58.2667 1.7036 58.2745C1.63844 58.2823 1.57684 58.3084 1.52599 58.3499C1.47801 58.3939 1.44846 58.4545 1.44327 58.5194C1.43807 58.5843 1.45762 58.6488 1.49799 58.6999C1.36599 58.7359 1.32599 58.7659 1.21999 58.6879C1.13795 58.6169 1.04284 58.5625 0.93999 58.5279Z" fill="#8E7CC3"/>
<path opacity="0.2" d="M0.93999 58.5279C0.901694 58.5118 0.859775 58.5063 0.818613 58.5119C0.777451 58.5175 0.738555 58.5341 0.705989 58.5599C0.683507 58.5914 0.671423 58.6292 0.671423 58.6679C0.671423 58.7066 0.683507 58.7444 0.705989 58.7759C0.750318 58.8392 0.80758 58.8924 0.873989 58.9319C0.835403 58.9338 0.797786 58.9446 0.764135 58.9636C0.730485 58.9826 0.701731 59.0091 0.680168 59.0412C0.658605 59.0732 0.644829 59.1099 0.639936 59.1482C0.635044 59.1865 0.639171 59.2255 0.651989 59.2619C0.682566 59.3352 0.734274 59.3977 0.800524 59.4416C0.866773 59.4854 0.944566 59.5085 1.02399 59.5079C1.00583 59.5354 0.993955 59.5665 0.989199 59.5991C0.984444 59.6317 0.986929 59.6649 0.996477 59.6964C1.00603 59.7279 1.0224 59.7569 1.04444 59.7814C1.06648 59.8058 1.09364 59.8251 1.12399 59.8379C1.18724 59.8603 1.25454 59.8691 1.32143 59.8636C1.38831 59.8581 1.45327 59.8384 1.51199 59.8059C1.6283 59.7404 1.7493 59.6836 1.87399 59.6359C1.88527 59.7062 1.90898 59.7739 1.94399 59.8359C1.96236 59.8653 1.98805 59.8894 2.01856 59.9059C2.04906 59.9224 2.08333 59.9307 2.11799 59.9299C2.13517 59.9286 2.15187 59.9236 2.16695 59.9153C2.18203 59.9069 2.19514 59.8955 2.20539 59.8816C2.21564 59.8678 2.22278 59.8519 2.22634 59.835C2.22989 59.8181 2.22977 59.8007 2.22599 59.7839C2.31893 59.8753 2.43193 59.9438 2.55599 59.9839C2.59084 59.9968 2.62914 59.9968 2.66399 59.9839C2.72399 59.9579 2.72999 59.8719 2.70199 59.8139C2.67399 59.7559 2.62399 59.7099 2.59599 59.6519C2.57917 59.6242 2.57334 59.5911 2.57963 59.5593C2.58592 59.5275 2.60388 59.4992 2.62999 59.4799C2.87572 59.3799 3.08894 59.2137 3.24599 58.9999C3.27799 58.9539 3.30799 58.8919 3.27599 58.8459C3.26032 58.8294 3.24076 58.8171 3.21909 58.8101C3.19743 58.8031 3.17436 58.8017 3.15199 58.8059C2.98562 58.8119 2.82197 58.85 2.66999 58.9179C2.66685 58.8092 2.6859 58.701 2.72599 58.5999C2.74554 58.5489 2.75194 58.4937 2.7446 58.4395C2.73726 58.3854 2.71642 58.3339 2.68399 58.2899C2.63748 58.2517 2.57917 58.2308 2.51899 58.2308C2.45881 58.2308 2.4005 58.2517 2.35399 58.2899C2.26413 58.3715 2.19549 58.4738 2.15399 58.5879C2.10508 58.465 2.01247 58.3646 1.89399 58.3059C1.83479 58.2776 1.76876 58.2667 1.7036 58.2745C1.63844 58.2823 1.57684 58.3084 1.52599 58.3499C1.47801 58.3939 1.44846 58.4545 1.44327 58.5194C1.43807 58.5843 1.45762 58.6488 1.49799 58.6999C1.36599 58.7359 1.32599 58.7659 1.21999 58.6879C1.13795 58.6169 1.04284 58.5625 0.93999 58.5279Z" fill="#1F1F1F"/>
<path d="M2.35396 59.7459C2.26196 59.3459 2.15396 59.2919 2.48396 59.0499C2.61793 59.0696 2.75467 59.0561 2.88226 59.0108C3.00985 58.9655 3.12441 58.8897 3.21596 58.7899C3.30794 58.6834 3.37389 58.5569 3.4086 58.4205C3.44331 58.2841 3.44583 58.1415 3.41596 58.0039C3.16941 58.0889 2.94248 58.2227 2.74869 58.3972C2.5549 58.5718 2.39822 58.7836 2.28796 59.0199C2.35017 58.9099 2.38402 58.7861 2.38646 58.6597C2.38891 58.5333 2.35987 58.4083 2.30196 58.2959C2.2586 58.1999 2.1878 58.1188 2.09847 58.063C2.00914 58.0071 1.90528 57.9789 1.79996 57.9819V58.0239C1.79081 58.1108 1.80154 58.1986 1.83134 58.2807C1.86114 58.3629 1.90923 58.4371 1.97196 58.4979C2.04531 58.5829 2.09412 58.6863 2.11314 58.7969C2.13217 58.9076 2.1207 59.0213 2.07996 59.1259C1.96396 59.4179 2.12996 59.2699 1.86396 59.4359C1.90541 59.378 1.93367 59.3117 1.94676 59.2416C1.95985 59.1716 1.95744 59.0996 1.93972 59.0306C1.92199 58.9616 1.88937 58.8973 1.84415 58.8422C1.79893 58.7872 1.74221 58.7427 1.67796 58.7119C1.52574 58.8125 1.41092 58.9605 1.35126 59.133C1.29161 59.3054 1.29045 59.4927 1.34796 59.6659C1.22596 59.3999 0.947964 59.1939 0.747964 59.2379C0.615964 59.2659 0.147963 59.5539 0.187963 59.9419C0.471963 59.7539 0.555963 59.7819 0.869963 59.9079C1.0278 59.9731 1.16783 60.0749 1.27844 60.205C1.38905 60.3351 1.46705 60.4896 1.50596 60.6559C1.97396 60.6599 2.46396 60.2199 2.35396 59.7459Z" fill="#8E7CC3"/>
<path d="M1.25795 58.234C1.24876 58.3526 1.26995 58.4717 1.31954 58.5798C1.36912 58.688 1.44546 58.7817 1.54134 58.8522C1.63723 58.9226 1.74949 58.9675 1.86753 58.9825C1.98557 58.9975 2.10548 58.9822 2.21595 58.938C2.14395 58.816 2.06995 58.704 1.99795 58.592C1.91904 58.4719 1.80923 58.3753 1.68008 58.3123C1.55092 58.2493 1.40718 58.2223 1.26395 58.234H1.25795Z" fill="#8E7CC3"/>
<path opacity="0.1" d="M1.25795 58.234C1.24876 58.3526 1.26995 58.4717 1.31954 58.5798C1.36912 58.688 1.44546 58.7817 1.54134 58.8522C1.63723 58.9226 1.74949 58.9675 1.86753 58.9825C1.98557 58.9975 2.10548 58.9822 2.21595 58.938C2.14395 58.816 2.06995 58.704 1.99795 58.592C1.91904 58.4719 1.80923 58.3753 1.68008 58.3123C1.55092 58.2493 1.40718 58.2223 1.26395 58.234H1.25795Z" fill="white"/>
<path d="M2.22396 59.296C2.24273 59.437 2.30765 59.5678 2.4086 59.668C2.50954 59.7683 2.64083 59.8322 2.78196 59.85C2.81771 59.7137 2.80224 59.569 2.73847 59.4433C2.67471 59.3176 2.56708 59.2196 2.43596 59.168C2.35596 59.142 2.21596 59.212 2.22396 59.296Z" fill="#8E7CC3"/>
<path d="M2.34793 60.0979C2.26341 60.1334 2.1924 60.1949 2.14515 60.2735C2.09791 60.3521 2.07688 60.4436 2.08512 60.535C2.09336 60.6263 2.13044 60.7126 2.19099 60.7814C2.25154 60.8503 2.33242 60.8981 2.42193 60.9179C2.66393 60.6939 2.58593 60.3239 2.34793 60.0979Z" fill="#8E7CC3"/>
<path d="M0.903961 60.7259C0.888524 60.5874 0.924361 60.4481 1.0047 60.3342C1.08503 60.2203 1.2043 60.1398 1.33996 60.1079C1.40248 60.1724 1.43955 60.2573 1.44433 60.347C1.44911 60.4367 1.42127 60.5251 1.36596 60.5959C1.31872 60.6709 1.24532 60.7258 1.15997 60.7498C1.07462 60.7738 0.983396 60.7653 0.903961 60.7259Z" fill="#8E7CC3"/>
<path opacity="0.1" d="M0.903961 60.7259C0.888524 60.5874 0.924361 60.4481 1.0047 60.3342C1.08503 60.2203 1.2043 60.1398 1.33996 60.1079C1.40248 60.1724 1.43955 60.2573 1.44433 60.347C1.44911 60.4367 1.42127 60.5251 1.36596 60.5959C1.31872 60.6709 1.24532 60.7258 1.15997 60.7498C1.07462 60.7738 0.983396 60.7653 0.903961 60.7259Z" fill="white"/>
<path opacity="0.1" d="M7.28993 55.298C7.24814 55.18 7.1797 55.0733 7.08993 54.986C7.04477 54.9434 6.98698 54.9167 6.92529 54.9098C6.86359 54.903 6.80134 54.9164 6.74793 54.948C6.70776 54.9878 6.67647 55.0356 6.65613 55.0884C6.63579 55.1411 6.62686 55.1976 6.62993 55.254C6.62016 55.3356 6.62559 55.4184 6.64594 55.498C6.65701 55.5379 6.6775 55.5745 6.7057 55.6048C6.73389 55.6351 6.76896 55.6581 6.80793 55.672C6.69989 55.6326 6.5846 55.6169 6.46993 55.626C6.41846 55.6285 6.36937 55.6485 6.33081 55.6827C6.29225 55.7169 6.26654 55.7632 6.25793 55.814C6.25917 55.8574 6.27309 55.8994 6.29798 55.935C6.32286 55.9705 6.35761 55.998 6.39793 56.014C6.47818 56.0451 6.56395 56.0594 6.64993 56.056C6.58225 56.0871 6.5237 56.1351 6.47991 56.1953C6.43613 56.2555 6.40859 56.326 6.39993 56.4C6.3929 56.4256 6.39232 56.4525 6.39826 56.4783C6.40419 56.5041 6.41645 56.5281 6.43393 56.548C6.45533 56.561 6.4793 56.5692 6.50417 56.5719C6.52904 56.5747 6.55421 56.572 6.57793 56.564C6.73642 56.5309 6.88543 56.4625 7.01393 56.364C6.98796 56.4391 6.98041 56.5194 6.99193 56.598C7.00114 56.6396 7.02337 56.6771 7.05538 56.7052C7.08739 56.7332 7.12752 56.7503 7.16993 56.754C7.20755 56.7489 7.24294 56.7333 7.27198 56.7088C7.30102 56.6844 7.32251 56.6522 7.33393 56.616C7.35356 56.5417 7.35832 56.4642 7.34793 56.388C7.41593 56.388 7.43393 56.466 7.46393 56.528C7.50597 56.6122 7.57174 56.6823 7.65313 56.7296C7.73451 56.7768 7.82796 56.7992 7.92193 56.794C8.01551 56.7857 8.1037 56.7466 8.17279 56.683C8.24188 56.6193 8.28799 56.5346 8.30393 56.442C8.31508 56.3485 8.29179 56.254 8.23843 56.1764C8.18507 56.0987 8.10527 56.0432 8.01393 56.02C8.11643 55.9866 8.22536 55.9776 8.33194 55.994C8.38684 56.0096 8.44487 56.0107 8.50029 55.997C8.55571 55.9833 8.6066 55.9554 8.64793 55.916C8.67862 55.8721 8.69284 55.8187 8.68808 55.7653C8.68333 55.7119 8.65991 55.6619 8.62193 55.624C8.5833 55.5871 8.53733 55.5588 8.48702 55.5409C8.43671 55.523 8.38318 55.5159 8.32993 55.52C8.22298 55.5273 8.11777 55.551 8.01793 55.59C8.12193 55.59 8.13393 55.414 8.09193 55.318C8.06669 55.2725 8.02719 55.2364 7.9795 55.2155C7.93182 55.1945 7.87857 55.1898 7.82793 55.202C7.72393 55.216 7.33993 55.2 7.28993 55.298Z" fill="white"/>
<path opacity="0.1" d="M5.836 57.134C5.69447 57.1171 5.551 57.1378 5.42 57.194C5.35583 57.2245 5.30555 57.2782 5.27922 57.3442C5.2529 57.4102 5.25246 57.4837 5.278 57.55C5.30717 57.5934 5.34798 57.6276 5.39574 57.6488C5.44349 57.6701 5.49626 57.6774 5.548 57.67C5.65134 57.653 5.75045 57.6163 5.84 57.562C5.8089 57.6172 5.79657 57.6809 5.80487 57.7437C5.81317 57.8065 5.84164 57.8648 5.886 57.91C5.91037 57.9277 5.93844 57.9397 5.9681 57.9451C5.99777 57.9505 6.02826 57.9491 6.0573 57.941C6.08634 57.9329 6.11318 57.9184 6.13582 57.8985C6.15845 57.8786 6.17629 57.8538 6.188 57.826C6.25076 57.9179 6.29868 58.0192 6.33 58.126C6.36338 58.2333 6.43441 58.3249 6.53 58.384C6.554 58.3969 6.58038 58.4047 6.60752 58.4071C6.63466 58.4094 6.662 58.4061 6.68784 58.3975C6.71368 58.3889 6.73749 58.3751 6.75781 58.357C6.77813 58.3388 6.79453 58.3167 6.806 58.292C6.80905 58.2641 6.81718 58.237 6.83 58.212C6.86 58.17 6.93 58.18 6.974 58.212C7.01158 58.2497 7.05316 58.2833 7.098 58.312C7.12456 58.3194 7.15236 58.3213 7.17967 58.3174C7.20697 58.3136 7.23318 58.3041 7.25666 58.2897C7.28014 58.2752 7.30037 58.256 7.31609 58.2334C7.33181 58.2107 7.34267 58.1851 7.348 58.158C7.36452 58.0465 7.34855 57.9326 7.302 57.83C7.27481 57.7316 7.22785 57.6397 7.164 57.56C7.13107 57.5209 7.08696 57.4929 7.03761 57.4797C6.98827 57.4665 6.93605 57.4687 6.888 57.486C6.86529 57.4961 6.8454 57.5116 6.83008 57.5312C6.81476 57.5508 6.80448 57.5738 6.80014 57.5983C6.7958 57.6228 6.79752 57.648 6.80517 57.6716C6.81282 57.6953 6.82615 57.7167 6.844 57.734C6.82 57.632 6.706 57.582 6.604 57.552C6.50073 57.5263 6.39368 57.5196 6.288 57.532C6.32173 57.472 6.33454 57.4025 6.3244 57.3344C6.31426 57.2663 6.28175 57.2036 6.232 57.156C6.1773 57.1099 6.1091 57.0828 6.03767 57.0789C5.96625 57.0749 5.89547 57.0943 5.836 57.134Z" fill="white"/>
<path opacity="0.1" d="M7.94594 57.344C7.84206 57.4201 7.76079 57.523 7.71078 57.6417C7.66076 57.7604 7.64388 57.8904 7.66193 58.018C7.6633 58.0634 7.67612 58.1077 7.6992 58.1469C7.72227 58.186 7.75486 58.2187 7.79393 58.242C7.84299 58.2554 7.89531 58.2496 7.94027 58.2259C7.98522 58.2021 8.01943 58.1621 8.03593 58.114C8.06562 58.0174 8.07043 57.9149 8.04993 57.816C8.07201 57.8798 8.11688 57.9332 8.17593 57.966C8.21037 57.9914 8.25209 58.0052 8.29493 58.0052C8.33778 58.0052 8.3795 57.9914 8.41393 57.966C8.42802 57.9504 8.43786 57.9314 8.44248 57.911C8.44711 57.8905 8.44637 57.8691 8.44033 57.849C8.4343 57.8289 8.42318 57.8107 8.40804 57.7962C8.3929 57.7816 8.37427 57.7712 8.35393 57.766C8.5318 57.8237 8.72428 57.8174 8.89793 57.748C8.95193 57.726 9.01193 57.692 9.02394 57.634C9.03594 57.576 8.97193 57.498 8.90393 57.466C8.82875 57.4454 8.75997 57.4062 8.70393 57.352C8.78993 57.322 8.81993 57.23 8.85393 57.152C8.87016 57.1096 8.87148 57.0629 8.85767 57.0196C8.84386 56.9764 8.81574 56.9391 8.77793 56.914C8.72991 56.8991 8.67901 56.8961 8.62956 56.9051C8.58011 56.9142 8.53358 56.935 8.49393 56.966C8.30261 57.0789 8.11949 57.2052 7.94594 57.344Z" fill="white"/>
<path opacity="0.1" d="M6.01795 55.466C5.72578 55.4003 5.41972 55.4422 5.15595 55.584C5.0895 55.6148 5.03277 55.6632 4.99195 55.724C4.97279 55.7545 4.96382 55.7903 4.96633 55.8263C4.96885 55.8622 4.98272 55.8964 5.00595 55.924C4.94764 55.8875 4.87755 55.8749 4.81016 55.8886C4.74278 55.9024 4.68327 55.9416 4.64395 55.998C4.63286 56.0273 4.6281 56.0587 4.62999 56.0899C4.63188 56.1212 4.64038 56.1518 4.65493 56.1796C4.66948 56.2073 4.68974 56.2317 4.7144 56.2511C4.73905 56.2705 4.76753 56.2844 4.79795 56.292C4.76498 56.3001 4.7342 56.3153 4.70783 56.3367C4.68146 56.3581 4.66015 56.385 4.64543 56.4156C4.63071 56.4462 4.62294 56.4797 4.62269 56.5136C4.62243 56.5476 4.62969 56.5812 4.64395 56.612C4.67407 56.6766 4.72092 56.732 4.77965 56.7724C4.83837 56.8129 4.90683 56.8369 4.97795 56.842C5.12 56.8539 5.26305 56.8397 5.39995 56.8C5.41917 56.7615 5.43026 56.7195 5.43256 56.6765C5.43485 56.6335 5.42829 56.5906 5.41329 56.5503C5.39829 56.5099 5.37516 56.4731 5.34534 56.4421C5.31553 56.4111 5.27965 56.3866 5.23995 56.37C5.30995 56.402 5.36195 56.342 5.40395 56.278C5.42386 56.2449 5.43175 56.2059 5.42629 56.1676C5.42083 56.1294 5.40234 56.0942 5.37395 56.068C5.50364 56.1132 5.64534 56.1097 5.77266 56.0582C5.89997 56.0067 6.00422 55.9107 6.06595 55.788C6.11795 55.686 6.12595 55.492 6.01795 55.466Z" fill="white"/>
<path d="M55.1699 41.094C55.1699 41.094 57.4299 42.894 57.5699 42.862C58.3699 42.698 58.5179 42.628 59.3879 42.462C59.5097 42.4377 59.6234 42.3828 59.7182 42.3026C59.8131 42.2223 59.886 42.1193 59.9301 42.0032C59.9743 41.8871 59.9883 41.7617 59.9708 41.6387C59.9532 41.5157 59.9048 41.3992 59.8299 41.3L59.7279 41.164C59.6469 41.0552 59.5373 40.9709 59.4112 40.9208C59.2851 40.8706 59.1476 40.8565 59.0139 40.88L57.7399 41.102L55.8939 39.916L55.1699 41.094Z" fill="#FF8B7B"/>
<path d="M44.578 27.2681C45.178 26.9941 46.1499 28.1001 46.4479 28.6921C47.2319 30.2541 50.1879 35.1781 50.1879 35.1781C50.5339 35.3781 55.0219 38.9341 56.1039 39.4921C56.6659 39.7821 55.556 41.7681 55.0139 41.4421C53.9719 40.8141 52.9139 40.2141 51.8499 39.6241C51.4999 39.4241 51.1499 39.2341 50.7979 39.0461L49.7299 38.4681C48.9278 38.0315 48.194 37.4796 47.5519 36.8301C46.8982 36.1806 46.3424 35.4395 45.902 34.6301L45.74 34.3281L45.602 34.0621L45.3239 33.5281C45.1399 33.1721 44.9519 32.8174 44.7599 32.4641C44.1979 31.4121 43.6239 30.3661 43.0219 29.3321C42.943 29.1971 42.8932 29.047 42.8759 28.8915C42.8586 28.736 42.8741 28.5786 42.9214 28.4295C42.9687 28.2804 43.0468 28.1429 43.1506 28.0259C43.2544 27.9088 43.3816 27.8149 43.5239 27.7501L44.578 27.2681Z" fill="#263238"/>
<path d="M54.026 57.1621C51.2 59.2261 43.2 55.5101 39.344 53.5401C35.48 55.5101 27.48 59.2261 24.66 57.1621C20.018 53.7621 26.386 48.5941 28.038 47.5461C29.69 46.4981 31.532 45.7961 33.362 45.1041C35.192 44.4121 37.362 45.5661 39.344 45.6081C41.32 45.5641 43.478 44.4081 45.324 45.1041C47.17 45.8001 48.998 46.5041 50.648 47.5461C52.298 48.5881 58.67 53.7601 54.026 57.1621Z" fill="#8E7CC3"/>
<path opacity="0.2" d="M40.2 49.722C37.366 49.832 34.236 50.6161 31.452 51.1461C31.052 51.2241 29.6 52.038 29.528 52.444C40.524 49.722 29.536 52.444 40.2 49.722Z" fill="#1F1F1F"/>
<path opacity="0.2" d="M39.704 49.8141C42.536 49.9261 45.668 50.7101 48.452 51.2401C48.852 51.3161 50.304 52.1301 50.376 52.5361C39.388 49.8141 50.376 52.5361 39.704 49.8141Z" fill="#1F1F1F"/>
<path d="M41.348 50.848L40.964 51.678L40.604 52.454L40.542 52.588L40.104 52.298L40.07 52.274L39.8 52.094L39.45 51.862L39.318 51.776L38.368 51.144L37.978 50.3L37.454 50.522H37.438L37.21 50.37L38.638 49.384L39.006 49.584L39.294 49.74L39.366 49.778L40.062 50.152L40.206 50.232L40.574 50.432L41.348 50.848Z" fill="#FF8B7B"/>
<path opacity="0.2" d="M40.54 52.5921L39.402 51.9601L40.212 50.2141L41.348 50.8461L40.54 52.5921Z" fill="#1F1F1F"/>
<path d="M40.362 54.3861C39.9242 54.1154 39.4715 53.8697 39.006 53.6501L40.974 49.5541L42.374 50.0441L40.362 54.3861Z" fill="#8E7CC3"/>
<path opacity="0.2" d="M40.362 54.3861C39.9242 54.1154 39.4715 53.8697 39.006 53.6501L40.974 49.5541L42.374 50.0441L40.362 54.3861Z" fill="white"/>
<path d="M39.384 49.7001L39.336 49.7201L39.29 49.7401L37.974 50.2981L37.45 50.5201H37.434C37.3794 50.5417 37.3223 50.5565 37.264 50.5641C37.2327 50.5661 37.2013 50.5661 37.17 50.5641C37.1461 50.5671 37.1219 50.5671 37.098 50.5641H37.084C37.0547 50.566 37.0253 50.566 36.996 50.5641H36.96L36.82 50.5441L36.63 50.5181C35.378 50.3561 35.046 50.4401 33.63 50.7041C33.294 50.7681 33.16 49.9601 33.886 49.6521C35.086 49.1421 35.116 49.1961 36.142 48.7621C37.018 48.3921 38.006 47.9241 38.698 47.6161C38.7371 47.5991 38.7794 47.591 38.822 47.5922C38.8646 47.5933 38.9065 47.6038 38.9446 47.6229C38.9827 47.6419 39.0162 47.6691 39.0427 47.7025C39.0692 47.7359 39.0881 47.7746 39.098 47.8161L39.47 49.5141C39.4797 49.5502 39.4764 49.5887 39.4607 49.6227C39.445 49.6566 39.4178 49.684 39.384 49.7001Z" fill="#263238"/>
<path d="M40.722 49.416L42.15 50.402L38.814 52.622L38.006 50.878L40.722 49.416Z" fill="#FF8B7B"/>
<path opacity="0.2" d="M38.8159 52.6221L39.9519 51.9901L39.1439 50.2461L38.0079 50.8761L38.8159 52.6221Z" fill="#1F1F1F"/>
<path d="M40.044 53.18C40.044 53.18 39.632 53.478 39.212 53.766L38.812 54.038L37.51 51.224L37.11 50.38L36.97 50.074L38.14 49.674L38.372 49.592L38.474 49.81L38.5 49.868L38.772 50.456V50.466L39.022 51.002L39.25 51.498L39.546 52.136L39.576 52.2L39.736 52.546L40.044 53.18Z" fill="#8E7CC3"/>
<path opacity="0.2" d="M40.044 53.18C40.044 53.18 39.632 53.478 39.212 53.766L38.812 54.038L37.51 51.224L37.11 50.38L36.97 50.074L38.14 49.674L38.372 49.592L38.474 49.81L38.5 49.868L38.772 50.456V50.466L39.022 51.002L39.25 51.498L39.546 52.136L39.576 52.2L39.736 52.546L40.044 53.18Z" fill="white"/>
<path d="M41.9059 50.548L39.9719 49.73C39.9372 49.7158 39.9086 49.6896 39.8914 49.6563C39.8742 49.623 39.8694 49.5846 39.8779 49.548L40.2499 47.848C40.2595 47.8064 40.2782 47.7674 40.3046 47.7338C40.331 47.7002 40.3646 47.6729 40.4028 47.6538C40.441 47.6347 40.483 47.6242 40.5257 47.6232C40.5684 47.6222 40.6108 47.6307 40.6499 47.648C41.3419 47.956 42.3319 48.422 43.2079 48.794C44.2319 49.228 44.2619 49.174 45.4639 49.684C46.1899 49.99 46.0539 50.8 45.7199 50.736C44.1959 50.448 43.9319 50.376 42.3979 50.596C42.2326 50.626 42.0622 50.6094 41.9059 50.548Z" fill="#263238"/>
<path d="M35.89 26.85C38.302 26.554 41.724 26.58 43.996 26.976C44.5575 27.0762 45.07 27.3599 45.4529 27.7826C45.8359 28.2054 46.0677 28.7433 46.112 29.312C46.396 32.776 45.628 38.832 44.968 44.926C39.624 46.726 34.202 44.902 34.202 44.902C34.138 44.258 34.29 42.846 34.508 41.338C34.9186 38.534 34.8251 35.6792 34.232 32.908C34.02 31.92 33.812 30.878 33.65 29.78C33.6008 29.44 33.6201 29.0936 33.7066 28.7612C33.7931 28.4287 33.9451 28.1169 34.1538 27.844C34.3624 27.571 34.6235 27.3425 34.9216 27.1719C35.2197 27.0012 35.549 26.8918 35.89 26.85Z" fill="#263238"/>
<path opacity="0.2" d="M33.928 31.4201C33.928 31.4201 34.504 34.2201 34.584 35.0001C34.664 35.7801 35.662 30.1361 35.662 30.1361L33.928 31.4201Z" fill="#1F1F1F"/>
<path d="M24.4259 41.4001C24.4259 41.4001 22.1179 43.2401 21.9639 43.2001C21.1499 43.0321 20.9959 42.9601 20.1079 42.7821C19.9834 42.7571 19.8673 42.701 19.7704 42.619C19.6734 42.5371 19.5988 42.4319 19.5535 42.3133C19.5081 42.1947 19.4936 42.0665 19.5111 41.9408C19.5287 41.815 19.5778 41.6957 19.6539 41.5941L19.7599 41.4541C19.8433 41.3435 19.9556 41.2582 20.0844 41.2073C20.2132 41.1565 20.3535 41.1422 20.4899 41.1661L21.7999 41.4001L23.6839 40.1881L24.4259 41.4001Z" fill="#FF8B7B"/>
<path d="M35.2499 27.268C34.6339 26.988 33.6499 28.12 33.3399 28.724C32.5399 30.324 29.5179 35.354 29.5179 35.354C29.1639 35.554 24.5779 39.192 23.4719 39.754C22.8979 40.05 24.0319 42.08 24.5859 41.754C25.6499 41.112 26.7319 40.498 27.8179 39.896C28.1759 39.696 28.5339 39.496 28.8939 39.296L29.9859 38.706C30.8058 38.2591 31.5558 37.6945 32.2119 37.03C32.8801 36.365 33.4481 35.6064 33.8979 34.778L34.0639 34.47L34.1999 34.2L34.4839 33.654C34.6719 33.29 34.8639 32.928 35.0599 32.568C35.6339 31.492 36.2219 30.424 36.8379 29.368C36.9182 29.2299 36.9687 29.0765 36.9862 28.9177C37.0036 28.759 36.9876 28.5983 36.9392 28.446C36.8908 28.2938 36.811 28.1534 36.705 28.0339C36.5991 27.9143 36.4692 27.8183 36.3239 27.752L35.2499 27.268Z" fill="#263238"/>
<path d="M37.9999 22.078C38.3319 23.508 38.6899 26.132 37.6339 27.11C38.4859 27.87 39.7179 28.64 40.6859 28.498C41.9039 28.318 42.5439 27.448 42.3779 27.022C40.6539 26.672 40.7099 25.482 40.9779 24.362L37.9999 22.078Z" fill="#FF8B7B"/>
<path opacity="0.2" d="M39.1999 23.01L40.9659 24.36C40.8974 24.622 40.8539 24.8898 40.8359 25.16C40.1799 25.084 39.3479 24.584 39.0759 23.918C38.9119 23.498 39.0379 23.062 39.1999 23.01Z" fill="#1F1F1F"/>
<path d="M41.518 17.8121C42.3479 16.8521 43.682 15.5621 42.188 14.4121C41.8664 14.493 41.5301 14.4959 41.2073 14.4204C40.8844 14.3449 40.5842 14.1932 40.332 13.9781C39.576 13.3521 38.508 13.3781 37.906 13.3521C38.0707 13.5818 38.1595 13.8573 38.16 14.1401C38.026 15.7401 36.71 17.2841 36.21 18.7801C36.0477 19.2237 36.0477 19.7104 36.21 20.1541C36.4629 20.6836 36.8931 21.1081 37.426 21.3541C38.5203 20.6074 39.6554 19.9224 40.826 19.3021C40.9 19.3021 40.918 19.1821 40.928 19.1121C41.0002 18.6324 41.2045 18.1822 41.518 17.8121Z" fill="#263238"/>
<path d="M37.422 19.9241C37.622 21.8461 37.644 22.9821 38.662 23.9241C40.192 25.3481 42.534 24.3621 42.91 22.4161C43.248 20.6661 42.86 17.8161 40.938 17.1301C40.5146 16.9765 40.059 16.9339 39.6145 17.0064C39.1701 17.079 38.7516 17.2641 38.399 17.5443C38.0464 17.8245 37.7715 18.1903 37.6005 18.6069C37.4294 19.0235 37.368 19.477 37.422 19.9241Z" fill="#FF8B7B"/>
<path d="M41.7279 17.6C41.3919 17.47 41.4339 17.478 41.1079 17.628C40.2959 17.228 39.2899 17.514 38.9619 17.61C39.0537 17.9367 39.1127 18.2717 39.1379 18.61C39.1729 18.8116 39.1338 19.019 39.0279 19.194C38.9059 19.36 38.6899 19.424 38.5259 19.55C38.4012 19.6617 38.3053 19.8018 38.2465 19.9585C38.1876 20.1152 38.1675 20.2839 38.1879 20.45C38.2159 20.782 37.8239 20.974 37.4379 21.02C37.2021 20.6635 37.0724 20.2474 37.0639 19.82C36.6119 18.22 38.5239 16.9 38.4879 16.82C39.4748 16.5828 40.509 16.6334 41.4679 16.966C41.5977 17.157 41.6863 17.3729 41.7279 17.6Z" fill="#263238"/>
<path d="M36.664 21.5701C36.8213 22.0299 37.1542 22.4088 37.59 22.6241C38.172 22.9041 38.574 22.4121 38.508 21.8041C38.448 21.2581 38.072 20.4541 37.444 20.4281C36.816 20.4021 36.476 21.0001 36.664 21.5701Z" fill="#FF8B7B"/>
<path d="M41.5099 20.4C41.5099 20.4 41.9859 21.252 42.4359 21.632C42.1959 21.926 41.7099 21.872 41.7099 21.872L41.5099 20.4Z" fill="#FF5652"/>
<path d="M41.2499 22.698C41.0737 22.6853 40.902 22.6365 40.7454 22.5546C40.5889 22.4728 40.4508 22.3595 40.3399 22.222C40.3328 22.2122 40.3299 22.1999 40.3317 22.188C40.3336 22.176 40.3401 22.1652 40.3499 22.158C40.3597 22.1509 40.372 22.148 40.384 22.1498C40.3959 22.1517 40.4067 22.1582 40.4139 22.168C40.5398 22.3179 40.6991 22.436 40.8791 22.5128C41.0591 22.5896 41.2546 22.6229 41.4499 22.61C41.4559 22.6098 41.462 22.6107 41.4677 22.6127C41.4733 22.6148 41.4786 22.618 41.483 22.6221C41.4875 22.6262 41.4911 22.6311 41.4936 22.6366C41.4962 22.642 41.4976 22.648 41.4979 22.654C41.4985 22.6601 41.4977 22.6663 41.4958 22.6721C41.4938 22.6779 41.4907 22.6832 41.4865 22.6877C41.4824 22.6923 41.4773 22.6959 41.4717 22.6983C41.4661 22.7008 41.46 22.702 41.4539 22.702C41.3859 22.7058 41.3177 22.7044 41.2499 22.698Z" fill="#263238"/>
<path d="M40.9099 20.692C40.3339 20.868 40.0419 20.652 40.0219 20.64C40.0116 20.6334 40.0043 20.6229 40.0017 20.6109C39.9991 20.5989 40.0013 20.5864 40.0079 20.576C40.0146 20.5657 40.025 20.5584 40.037 20.5558C40.049 20.5532 40.0616 20.5554 40.0719 20.562C40.0719 20.562 40.4379 20.822 41.0719 20.536C41.0828 20.5312 41.0952 20.5308 41.1064 20.5349C41.1176 20.539 41.1267 20.5473 41.1319 20.558C41.1349 20.5635 41.1367 20.5695 41.1372 20.5757C41.1378 20.5819 41.1369 20.5881 41.1349 20.594C41.1328 20.5998 41.1295 20.6052 41.1252 20.6097C41.1209 20.6142 41.1157 20.6177 41.1099 20.62C41.0452 20.649 40.9783 20.673 40.9099 20.692Z" fill="#263238"/>
<path d="M42.8099 20.468C42.2639 20.724 42.0359 20.552 42.0099 20.542C41.9988 20.5372 41.9901 20.5282 41.9856 20.517C41.9811 20.5057 41.9812 20.4932 41.9859 20.482C41.9883 20.4763 41.9918 20.4711 41.9963 20.4668C42.0007 20.4624 42.006 20.459 42.0118 20.4568C42.0176 20.4545 42.0238 20.4535 42.03 20.4537C42.0362 20.4539 42.0423 20.4554 42.0479 20.458C42.0479 20.458 42.3559 20.658 42.9339 20.29C42.9442 20.2834 42.9568 20.2812 42.9688 20.2838C42.9808 20.2864 42.9913 20.2937 42.9979 20.304C43.0045 20.3144 43.0068 20.3269 43.0042 20.3389C43.0015 20.3509 42.9942 20.3614 42.9839 20.368C42.9285 20.4056 42.8703 20.4391 42.8099 20.468Z" fill="#263238"/>
<path d="M40.052 19.6701C40.0362 19.6684 40.0211 19.6629 40.008 19.6541C39.9979 19.6473 39.9894 19.6385 39.9828 19.6283C39.9762 19.6181 39.9717 19.6067 39.9697 19.5948C39.9676 19.5828 39.968 19.5705 39.9708 19.5587C39.9736 19.5469 39.9788 19.5358 39.986 19.5261C40.0665 19.4036 40.1751 19.3021 40.3028 19.2301C40.4305 19.1581 40.5735 19.1176 40.72 19.1121C40.7442 19.1131 40.7671 19.1234 40.7839 19.141C40.8006 19.1585 40.81 19.1818 40.81 19.2061C40.8097 19.2183 40.807 19.2304 40.802 19.2416C40.797 19.2528 40.7899 19.2629 40.7809 19.2713C40.772 19.2797 40.7614 19.2862 40.7499 19.2904C40.7385 19.2947 40.7262 19.2966 40.714 19.2961C40.5983 19.3019 40.4857 19.3353 40.3855 19.3934C40.2854 19.4514 40.2005 19.5326 40.138 19.6301C40.1282 19.6435 40.1152 19.6542 40.1001 19.6612C40.0851 19.6682 40.0685 19.6712 40.052 19.6701Z" fill="#263238"/>
<path d="M42.882 19.614C42.867 19.6125 42.8525 19.6074 42.84 19.599C42.8274 19.5906 42.8171 19.5793 42.81 19.566C42.7593 19.4608 42.6839 19.3695 42.5902 19.2998C42.4965 19.2301 42.3873 19.1842 42.272 19.166C42.2477 19.1635 42.2254 19.1516 42.2098 19.133C42.1941 19.1143 42.1863 19.0903 42.188 19.066C42.1884 19.0539 42.1914 19.042 42.1967 19.0311C42.202 19.0202 42.2094 19.0105 42.2186 19.0026C42.2278 18.9947 42.2386 18.9888 42.2502 18.9853C42.2617 18.9818 42.2739 18.9806 42.286 18.982C42.4314 19.0023 42.5697 19.0575 42.6891 19.1428C42.8086 19.2281 42.9056 19.3411 42.972 19.472C42.9778 19.4826 42.9815 19.4943 42.9828 19.5063C42.9841 19.5184 42.9829 19.5305 42.9793 19.5421C42.9758 19.5537 42.97 19.5644 42.9622 19.5737C42.9544 19.583 42.9448 19.5905 42.934 19.596C42.9188 19.607 42.9007 19.6132 42.882 19.614Z" fill="#263238"/>
<path d="M40.4999 29.334L39.2999 28.096C39.6379 28.044 39.9439 27.896 40.2819 27.844C40.5759 28.272 40.5859 28.822 40.4999 29.334Z" fill="#8E7CC3"/>
<path opacity="0.2" d="M40.4999 29.334L39.2999 28.096C39.6379 28.044 39.9439 27.896 40.2819 27.844C40.5759 28.272 40.5859 28.822 40.4999 29.334Z" fill="#1F1F1F"/>
<path d="M40.3559 27.926C39.6839 28.35 39.7839 28.416 39.0879 29.274C38.3479 28.582 37.0739 27.718 36.5459 26.854C36.7281 26.3333 37.0993 25.9 37.5859 25.64C38.6339 26.2369 39.571 27.0103 40.3559 27.926Z" fill="#8E7CC3"/>
<g opacity="0.2">
<path d="M40.3559 27.926C39.6839 28.35 39.7839 28.416 39.0879 29.274C38.3479 28.582 37.0739 27.718 36.5459 26.854C36.7281 26.3333 37.0993 25.9 37.5859 25.64C38.6339 26.2369 39.571 27.0103 40.3559 27.926Z" fill="white"/>
</g>
<path d="M40.7819 27.7781C40.531 28.2383 40.4349 28.7671 40.5079 29.2861C40.8579 28.8261 41.1799 28.3721 41.5299 27.9121C41.2964 27.8034 41.0387 27.7572 40.7819 27.7781Z" fill="#8E7CC3"/>
<path opacity="0.2" d="M40.7819 27.7781C40.531 28.2383 40.4349 28.7671 40.5079 29.2861C40.8579 28.8261 41.1799 28.3721 41.5299 27.9121C41.2964 27.8034 41.0387 27.7572 40.7819 27.7781Z" fill="#1F1F1F"/>
<path d="M42 29.1561C41.553 28.7374 41.1341 28.2898 40.746 27.8161C41.0598 27.2719 41.1677 26.6331 41.05 26.0161C41.2961 25.9369 41.5614 25.9405 41.8052 26.0265C42.0491 26.1125 42.258 26.276 42.4 26.4921C42.82 27.1521 42.264 28.4281 42 29.1561Z" fill="#8E7CC3"/>
<path opacity="0.2" d="M42 29.1561C41.553 28.7374 41.1341 28.2898 40.746 27.8161C41.0598 27.2719 41.1677 26.6331 41.05 26.0161C41.2961 25.9369 41.5614 25.9405 41.8052 26.0265C42.0491 26.1125 42.258 26.276 42.4 26.4921C42.82 27.1521 42.264 28.4281 42 29.1561Z" fill="white"/>
<path d="M39.2159 57.0661C38.6447 57.0676 38.0792 56.9526 37.5539 56.7281C37.5416 56.7231 37.5305 56.7156 37.5211 56.7062C37.5117 56.6969 37.5043 56.6857 37.4993 56.6734C37.4942 56.6611 37.4917 56.648 37.4918 56.6347C37.4919 56.6214 37.4947 56.6083 37.4999 56.5961C37.5109 56.572 37.5308 56.5531 37.5554 56.5434C37.58 56.5337 37.6075 56.5339 37.6319 56.5441C38.1639 56.77 38.738 56.8796 39.3158 56.8654C39.8936 56.8513 40.4617 56.7138 40.9819 56.4621C41.0058 56.4504 41.0333 56.4487 41.0585 56.4573C41.0836 56.466 41.1043 56.4842 41.1159 56.5081C41.1276 56.532 41.1293 56.5595 41.1207 56.5846C41.1121 56.6097 41.0938 56.6304 41.0699 56.6421C40.4921 56.9223 39.8581 57.0673 39.2159 57.0661Z" fill="#8E7CC3"/>
<path d="M38.942 58.5101C37.6684 58.5123 36.4051 58.2825 35.214 57.8321C35.2016 57.8273 35.1903 57.8202 35.1807 57.8111C35.1711 57.802 35.1634 57.7911 35.158 57.7791C35.1526 57.767 35.1497 57.754 35.1493 57.7408C35.149 57.7276 35.1512 57.7144 35.156 57.7021C35.1607 57.6897 35.1678 57.6784 35.1769 57.6688C35.186 57.6592 35.1969 57.6515 35.2089 57.6461C35.221 57.6408 35.234 57.6378 35.2472 57.6374C35.2605 57.6371 35.2736 57.6393 35.2859 57.6441C37.6638 58.5403 40.288 58.5318 42.6599 57.6201C42.6723 57.6153 42.6854 57.6131 42.6987 57.6134C42.7119 57.6138 42.7249 57.6168 42.737 57.6221C42.749 57.6275 42.7599 57.6352 42.769 57.6448C42.7781 57.6544 42.7852 57.6657 42.79 57.6781C42.7947 57.6904 42.7969 57.7036 42.7966 57.7168C42.7962 57.73 42.7933 57.743 42.7879 57.7551C42.7825 57.7671 42.7748 57.778 42.7652 57.7871C42.7556 57.7962 42.7443 57.8033 42.732 57.8081C41.5229 58.2745 40.2378 58.5125 38.942 58.5101Z" fill="#8E7CC3"/>
</svg>
