<svg width="100" height="100" viewBox="0 0 100 100" fill="none" xmlns="http://www.w3.org/2000/svg">
<path d="M83.1059 30.2C82.2799 26.94 80.4919 23.788 77.6699 20.982C74.3439 17.676 69.1479 14.282 62.3059 15.214C49.6739 16.936 49.3719 25.698 40.9059 23.878C31.3059 21.816 20.0319 23.052 16.8239 31.918C10.7279 48.766 45.3999 69.476 64.5779 63.9C76.5239 60.428 87.4859 47.514 83.1059 30.2Z" fill="#FF8A65"/>
<path opacity="0.4" d="M83.1059 30.2C82.2799 26.94 80.4919 23.788 77.6699 20.982C74.3439 17.676 69.1479 14.282 62.3059 15.214C49.6739 16.936 49.3719 25.698 40.9059 23.878C31.3059 21.816 20.0319 23.052 16.8239 31.918C10.7279 48.766 45.3999 69.476 64.5779 63.9C76.5239 60.428 87.4859 47.514 83.1059 30.2Z" fill="#FFCCBC"/>
<path d="M91.7761 88.046C91.7761 88.722 73.0721 89.272 50.0001 89.272C26.9281 89.272 8.22412 88.722 8.22412 88.046C8.22412 87.37 26.9281 86.818 50.0001 86.818C73.0721 86.818 91.7761 87.368 91.7761 88.046Z" fill="#F5F5F5"/>
<path d="M54.7842 56.1219C54.7842 56.1219 49.2102 59.154 48.8002 59.2C48.2382 59.278 41.7542 56.6 41.7542 56.6L39.5062 58.8539C39.5062 58.8539 44.8702 62.0679 47.7062 62.9419C50.5422 63.8159 57.1162 60.426 57.1162 60.426L54.7842 56.1219Z" fill="#895555"/>
<path d="M42.8602 57.4C42.8602 57.4 42.9122 56.226 42.2462 55.52C41.5802 54.814 41.2462 54.07 40.7102 53.578C40.1742 53.086 39.9102 53.752 40.0642 54.256C40.2182 54.76 40.7882 55.638 40.3902 55.7C39.9922 55.762 36.7602 54.5 36.2182 54.648C35.6762 54.796 36.1322 55.162 36.1322 55.162C36.1322 55.162 35.4062 54.886 35.1422 55.162C34.8782 55.438 35.2822 55.748 35.2822 55.748C35.2822 55.748 34.7882 55.58 34.7082 55.948C34.6282 56.316 37.4422 57.708 37.5182 57.832C37.5182 57.832 35.9482 56.768 35.5602 57.05C35.1722 57.332 36.0162 57.966 36.6782 58.488C37.4119 59.0192 38.2612 59.3687 39.1562 59.508C40.2142 59.686 41.6242 60.182 42.2202 59.384C42.8162 58.586 42.8602 57.4 42.8602 57.4Z" fill="#895555"/>
<g opacity="0.2">
<path d="M35.3582 55.868C36.1862 56.19 37.0022 56.538 37.8002 56.912C37.7094 57.1246 37.6332 57.3431 37.5722 57.566C37.5442 57.678 37.7222 57.678 37.7542 57.566C37.9458 56.8713 38.2871 56.2269 38.7542 55.6781C38.8322 55.5841 38.6922 55.5 38.6142 55.592C38.4971 55.7321 38.3876 55.8783 38.2862 56.03C38.284 56.0222 38.28 56.015 38.2744 56.0091C38.2688 56.0032 38.2619 55.9987 38.2542 55.9961C37.6469 55.6524 37.0002 55.3838 36.3282 55.1961C36.2222 55.1701 36.1462 55.332 36.2542 55.362C36.9114 55.546 37.5439 55.8085 38.1382 56.144C38.1622 56.156 38.2102 56.428 38.2342 56.422C38.1062 56.622 37.9682 56.542 37.8722 56.748C37.0722 56.372 36.2622 56.024 35.4302 55.704C35.3302 55.666 35.2582 55.83 35.3582 55.868Z" fill="#1F1F1F"/>
</g>
<g opacity="0.2">
<path d="M41.3002 58.51C40.4762 57.85 40.1942 56.892 40.5502 56.03C40.5922 55.932 40.4162 55.864 40.3742 55.962C39.9862 56.898 40.3042 57.922 41.1902 58.636C41.2842 58.706 41.4002 58.58 41.3002 58.51Z" fill="#1F1F1F"/>
</g>
<path d="M88.0642 83.814L81.6762 84.514L81.3782 80.464L85.9822 80.264L88.0642 83.814Z" fill="#895555"/>
<path d="M85.9642 85.324C85.5642 85.592 85.1922 85.758 84.9182 85.324L84.5282 84.702C84.3942 84.46 84.4602 84.196 84.4882 83.928C84.7042 81.892 83.0482 82.014 82.7342 81.442C82.3342 80.708 84.9342 79.89 85.0402 79.786L87.3242 77.486C87.5122 77.286 88.0822 77.162 88.2802 77.37C88.3164 77.4065 88.3467 77.4483 88.3702 77.494L90.3202 81.038L93.0502 86C93.7942 87.352 92.1462 88.28 91.7222 87.786C89.8262 85.566 88.4642 85.028 87.4102 84.532C86.9115 84.7642 86.4285 85.0288 85.9642 85.324Z" fill="#8E7CC3"/>
<path opacity="0.4" d="M93.0502 86L90.3202 81.032L88.3702 77.488C88.3467 77.4424 88.3164 77.4005 88.2802 77.364C88.1442 77.222 87.8402 77.238 87.6002 77.324L87.4002 77.44L92.9242 87.48C93.1052 87.2816 93.2156 87.029 93.2384 86.7614C93.2612 86.4938 93.195 86.2262 93.0502 86Z" fill="white"/>
<path d="M89.0882 85.2921C89.1652 84.9781 89.3009 84.6816 89.4882 84.4181C89.5422 84.3381 89.4122 84.2641 89.3582 84.3421C89.1658 84.6173 89.0261 84.9259 88.9462 85.2521C88.9429 85.2707 88.9466 85.29 88.9567 85.306C88.9669 85.3221 88.9826 85.3337 89.0009 85.3387C89.0192 85.3438 89.0387 85.3418 89.0556 85.3331C89.0725 85.3245 89.0855 85.3098 89.0922 85.2921H89.0882Z" fill="#263238"/>
<path d="M88.1822 84.77C88.2604 84.4805 88.3824 84.2046 88.5442 83.952C88.5962 83.87 88.4662 83.796 88.4142 83.876C88.2457 84.1397 88.1189 84.4277 88.0382 84.73C88.0356 84.7395 88.0348 84.7494 88.036 84.7591C88.0372 84.7689 88.0403 84.7783 88.0451 84.7868C88.05 84.7953 88.0564 84.8029 88.0642 84.8089C88.0719 84.815 88.0807 84.8194 88.0902 84.822C88.0996 84.8247 88.1095 84.8254 88.1193 84.8242C88.129 84.823 88.1384 84.8199 88.147 84.8151C88.1555 84.8103 88.163 84.8038 88.1691 84.7961C88.1751 84.7883 88.1796 84.7795 88.1822 84.77Z" fill="#263238"/>
<path d="M87.4662 84.422C87.4669 84.19 87.5403 83.964 87.6762 83.776C87.6811 83.7674 87.6842 83.758 87.6854 83.7483C87.6867 83.7385 87.686 83.7287 87.6834 83.7192C87.6808 83.7097 87.6763 83.7008 87.6703 83.6931C87.6643 83.6853 87.6568 83.6788 87.6482 83.674C87.6397 83.6691 87.6303 83.666 87.6205 83.6648C87.6108 83.6635 87.6009 83.6643 87.5914 83.6669C87.582 83.6695 87.5731 83.6739 87.5653 83.6799C87.5576 83.6859 87.5511 83.6934 87.5462 83.702C87.3964 83.9121 87.316 84.1639 87.3162 84.422C87.3191 84.4398 87.3283 84.4559 87.342 84.4676C87.3558 84.4793 87.3732 84.4857 87.3912 84.4857C87.4093 84.4857 87.4267 84.4793 87.4404 84.4676C87.4542 84.4559 87.4633 84.4398 87.4662 84.422Z" fill="#263238"/>
<path d="M86.6002 84.86C86.4829 84.6422 86.4082 84.4039 86.3802 84.158C86.3802 84.1382 86.3725 84.1192 86.3587 84.105C86.3449 84.0908 86.326 84.0826 86.3062 84.082C86.2861 84.082 86.2667 84.09 86.2525 84.1043C86.2382 84.1185 86.2302 84.1379 86.2302 84.158C86.2596 84.4304 86.3411 84.6945 86.4702 84.936C86.5142 85.02 86.6442 84.936 86.6002 84.86Z" fill="#263238"/>
<g opacity="0.3">
<path d="M85.4102 82.4C85.5347 82.3378 85.6414 82.245 85.7201 82.1302C85.7988 82.0155 85.847 81.8826 85.8602 81.744C85.8416 81.5717 85.7789 81.4071 85.6782 81.266L84.8942 79.932H84.8782C84.1982 80.214 82.5282 80.884 82.8362 81.442C83.0782 81.882 84.2362 81.852 84.4762 82.916C84.8102 82.722 85.2502 82.498 85.4102 82.4Z" fill="#1F1F1F"/>
</g>
<path d="M78.6382 69.3441L77.0862 67.0701L68.4722 68.2921L67.2722 69.9321C67.2722 69.9321 54.0242 75.5081 52.0722 76.8061C50.0302 78.1681 48.2402 79.7481 49.0522 82.9581C49.8642 86.1681 53.3842 86.9221 57.4002 87.4001C61.4162 87.8781 79.2502 86.0901 79.2502 86.0901L78.1562 80.7561L64.5562 80.1161C64.5562 80.1161 75.8422 79.5161 76.8622 78.5901C80.4502 75.3481 78.6382 69.3441 78.6382 69.3441Z" fill="#263238"/>
<path opacity="0.2" d="M78.6382 69.3441L77.0862 67.0701L68.4722 68.2921L67.2722 69.9321C67.2722 69.9321 54.0242 75.5081 52.0722 76.8061C50.0302 78.1681 48.2402 79.7481 49.0522 82.9581C49.8642 86.1681 53.3842 86.9221 57.4002 87.4001C61.4162 87.8781 79.2502 86.0901 79.2502 86.0901L78.1562 80.7561L64.5562 80.1161C64.5562 80.1161 75.8422 79.5161 76.8622 78.5901C80.4502 75.3481 78.6382 69.3441 78.6382 69.3441Z" fill="white"/>
<path d="M84.9462 69.574L83.4002 67.298L71.2582 68.872L71.7602 70.716C71.7602 70.716 60.3422 75.736 58.4002 77.034C56.3562 78.398 54.5682 79.978 55.3782 83.186C56.1882 86.394 59.6982 87.15 63.7082 87.636C67.7182 88.122 83.9482 86.268 83.9482 86.268L83.5962 79.468L70.8742 80.354C70.8742 80.354 82.1502 79.754 83.1782 78.83C86.8862 75.524 85.7422 71.07 84.9462 69.574Z" fill="#263238"/>
<path opacity="0.2" d="M84.9462 69.574L83.4002 67.298L71.2582 68.872L71.7602 70.716C71.7602 70.716 60.3422 75.736 58.4002 77.034C56.3562 78.398 54.5682 79.978 55.3782 83.186C56.1882 86.394 59.6982 87.15 63.7082 87.636C67.7182 88.122 83.9482 86.268 83.9482 86.268L83.5962 79.468L70.8742 80.354C70.8742 80.354 82.1502 79.754 83.1782 78.83C86.8862 75.524 85.7422 71.07 84.9462 69.574Z" fill="white"/>
<path d="M59.0782 52.3L52.6502 56.8401L55.8762 62.724L61.6762 59.512L59.0782 52.3Z" fill="#8E7CC3"/>
<path d="M59.0782 52.2999C60.2122 51.4419 67.0242 47.5359 71.4202 47.3459L79.4882 59.5659C79.4882 59.5659 83.5262 64.326 84.9002 68.928C81.1182 74.182 67.7942 73.9619 67.0782 70.0159C67.1642 70.0699 67.9822 69.7659 66.3802 66.6819C63.5582 61.2479 60.3642 58.9259 58.1802 53.7979C58.1362 53.6699 58.9642 52.3859 59.0782 52.2999Z" fill="#8E7CC3"/>
<path d="M54.2222 41.2681L54.0002 41.5801C53.8244 41.6638 53.6813 41.8033 53.5931 41.9769C53.5049 42.1505 53.4767 42.3484 53.5128 42.5398C53.5488 42.7311 53.6472 42.9051 53.7925 43.0347C53.9379 43.1643 54.122 43.2421 54.3162 43.2561C54.3743 43.2513 54.4321 43.2685 54.4782 43.3041C54.5422 43.3741 54.4882 43.4801 54.4482 43.5641C54.2482 43.9801 54.5382 44.5061 54.9602 44.6841C55.1773 44.7589 55.4083 44.7846 55.6366 44.7594C55.8649 44.7341 56.0847 44.6586 56.2802 44.5381C55.8602 43.3141 54.6502 42.4901 54.2222 41.2681Z" fill="#263238"/>
<path d="M64.6622 40.552C64.891 40.4581 65.087 40.2987 65.2254 40.0937C65.3639 39.8887 65.4386 39.6474 65.4402 39.4C65.4455 39.2634 65.41 39.1283 65.3382 39.012C65.1382 38.706 64.6862 38.724 64.3222 38.778C64.4724 38.6396 64.5809 38.4619 64.6353 38.265C64.6897 38.0681 64.688 37.8599 64.6302 37.664C64.5851 37.4139 64.445 37.1909 64.2392 37.0418C64.0334 36.8927 63.7779 36.829 63.5262 36.864C63.2135 36.8913 62.9064 36.9633 62.6142 37.078L63.3122 43.018C63.7195 42.9498 64.1096 42.8023 64.4602 42.584C64.635 42.4745 64.7858 42.3306 64.9033 42.1612C65.0209 41.9917 65.1028 41.8001 65.1442 41.598C65.1791 41.3954 65.1518 41.1869 65.0657 41.0001C64.9797 40.8133 64.839 40.6571 64.6622 40.552Z" fill="#263238"/>
<path d="M67.4982 49.31C65.4002 48.7 63.8002 44.924 63.1882 42.856L60.5562 48.534C60.7595 48.7073 60.9506 48.8944 61.1282 49.094C61.461 49.4431 61.698 49.8723 61.8162 50.34C61.8864 50.8601 61.9305 51.3834 61.9482 51.908C61.9482 51.908 62.2342 53.12 65.1482 51.746C66.4862 51.282 67.4982 49.31 67.4982 49.31Z" fill="#895555"/>
<path d="M63.1642 40.826C63.8402 43.75 64.2802 45.384 63.2242 47.296C61.6362 50.172 57.6962 49.97 56.1362 47.312C54.7362 44.912 53.8622 40.54 56.4202 38.548C58.9402 36.586 62.4902 37.902 63.1642 40.826Z" fill="#895555"/>
<path d="M62.5102 37.262C61.6342 35.804 57.5602 37.024 56.6642 38.176C56.5302 38.348 59.2922 38.796 59.1302 38.788L60.3782 38.826C60.5422 38.734 60.9442 38.826 61.2802 39.304C61.2802 39.304 62.4622 43.742 64.1222 44.626C65.0062 43.826 64.5462 42.064 64.5602 40.928C64.5822 39.234 64.4902 36.8 62.5102 37.262Z" fill="#263238"/>
<path d="M65.0422 42.864C65.0293 43.2412 64.9418 43.6121 64.785 43.9553C64.6281 44.2986 64.4049 44.6074 64.1282 44.864C63.3762 45.556 62.7682 44.72 62.5822 43.792C62.4142 42.954 62.3622 41.89 63.3082 41.55C64.2542 41.21 65.0582 41.938 65.0422 42.864Z" fill="#895555"/>
<path d="M59.2002 42.934C59.2882 43.228 59.2002 43.514 59.0002 43.572C58.8002 43.63 58.5722 43.438 58.4842 43.144C58.3962 42.85 58.4842 42.566 58.6842 42.508C58.8842 42.45 59.1062 42.642 59.2002 42.934Z" fill="#263238"/>
<path d="M56.2542 43.89C56.3422 44.184 56.2542 44.468 56.0542 44.526C55.8542 44.584 55.6262 44.394 55.5382 44.1C55.4502 43.806 55.5382 43.522 55.7382 43.464C55.9382 43.406 56.1682 43.6 56.2542 43.89Z" fill="#263238"/>
<path d="M57.1682 43.436C57.1682 43.436 56.6482 45.184 56.5202 45.87C57.0502 46.112 57.7202 45.722 57.7202 45.722L57.1682 43.436Z" fill="#6D3939"/>
<path d="M59.5182 41.328C59.4979 41.3441 59.4738 41.3546 59.4482 41.3585C59.4225 41.3623 59.3963 41.3594 59.3722 41.35C59.2002 41.2821 59.0151 41.2543 58.8308 41.2685C58.6465 41.2827 58.4678 41.3386 58.3082 41.432C58.2769 41.4526 58.239 41.4608 58.202 41.4548C58.165 41.4489 58.1315 41.4293 58.1082 41.4C58.0865 41.3687 58.0782 41.33 58.0849 41.2925C58.0917 41.2551 58.113 41.2218 58.1442 41.2C58.3441 41.0782 58.5694 41.0044 58.8026 40.9843C59.0358 40.9641 59.2704 40.9983 59.4882 41.084C59.5061 41.0902 59.5224 41.0999 59.5364 41.1127C59.5503 41.1255 59.5614 41.141 59.5691 41.1582C59.5768 41.1755 59.5809 41.1941 59.581 41.213C59.5812 41.2319 59.5776 41.2506 59.5702 41.268C59.5585 41.2922 59.5406 41.3129 59.5182 41.328Z" fill="#263238"/>
<path opacity="0.2" d="M63.0422 43.6C63.0306 43.5997 63.0194 43.5953 63.0107 43.5877C63.0019 43.58 62.9961 43.5695 62.9942 43.558C62.9465 43.2896 62.9721 43.0132 63.0682 42.758C63.1405 42.536 63.2875 42.3459 63.4842 42.22C63.5866 42.1556 63.7057 42.1228 63.8266 42.1257C63.9476 42.1285 64.065 42.1669 64.1642 42.236C64.1729 42.2456 64.1778 42.2581 64.1778 42.271C64.1778 42.284 64.1729 42.2964 64.1642 42.306C64.1545 42.3153 64.1417 42.3205 64.1282 42.3205C64.1148 42.3205 64.1019 42.3153 64.0922 42.306C64.0083 42.2515 63.9103 42.2225 63.8102 42.2225C63.7101 42.2225 63.6122 42.2515 63.5282 42.306C63.3512 42.42 63.2191 42.5917 63.1542 42.792C63.0643 43.0285 63.0401 43.2849 63.0842 43.534C63.0857 43.5405 63.0858 43.5472 63.0845 43.5537C63.0833 43.5602 63.0807 43.5663 63.0769 43.5718C63.0731 43.5772 63.0683 43.5818 63.0627 43.5853C63.0571 43.5888 63.0508 43.5911 63.0442 43.592L63.0422 43.6Z" fill="#1F1F1F"/>
<path d="M54.5802 43.0481C54.5517 43.05 54.5233 43.0437 54.4982 43.0301C54.481 43.0211 54.4657 43.0087 54.4534 42.9936C54.441 42.9786 54.4319 42.9612 54.4265 42.9425C54.4211 42.9238 54.4195 42.9042 54.4218 42.8849C54.4242 42.8655 54.4305 42.8469 54.4402 42.8301C54.5513 42.6262 54.7087 42.4512 54.8998 42.3192C55.0908 42.1872 55.3102 42.1018 55.5402 42.0701C55.5593 42.0681 55.5786 42.07 55.5969 42.0757C55.6153 42.0813 55.6323 42.0905 55.647 42.1028C55.6617 42.1151 55.6738 42.1302 55.6826 42.1473C55.6914 42.1643 55.6967 42.1829 55.6982 42.2021C55.7004 42.2405 55.6874 42.2782 55.6619 42.307C55.6364 42.3359 55.6006 42.3535 55.5622 42.3561C55.38 42.3823 55.2067 42.4515 55.0565 42.5579C54.9063 42.6643 54.7835 42.8049 54.6982 42.9681C54.6862 42.9897 54.6693 43.0082 54.6488 43.0221C54.6283 43.036 54.6048 43.0449 54.5802 43.0481Z" fill="#263238"/>
<path d="M62.8602 35.628C62.4262 35.042 61.5002 35.178 60.8762 35.526C60.6522 34.71 59.4242 34.592 58.7522 34.832C58.0802 35.072 57.8842 35.432 57.8842 35.432C57.9422 35.432 57.5442 35.102 57.3262 34.992C56.9232 34.7956 56.4716 34.7211 56.0268 34.7776C55.582 34.8341 55.1634 35.0191 54.8222 35.31C54.4871 35.6194 54.2476 36.0184 54.132 36.4596C54.0165 36.9009 54.0297 37.366 54.1702 37.8C53.8789 37.6631 53.5456 37.6455 53.2415 37.7509C52.9374 37.8562 52.6864 38.0762 52.5422 38.364C52.4181 38.6652 52.4107 39.0019 52.5217 39.3081C52.6327 39.6144 52.854 39.8683 53.1422 40.02C53.0113 40.0709 52.8922 40.1479 52.792 40.2464C52.6919 40.3448 52.6128 40.4626 52.5597 40.5926C52.5066 40.7226 52.4805 40.8621 52.4831 41.0025C52.4856 41.1429 52.5167 41.2814 52.5745 41.4093C52.6324 41.5373 52.7156 41.6522 52.8193 41.747C52.9229 41.8417 53.0448 41.9143 53.1775 41.9604C53.3101 42.0065 53.4508 42.0251 53.5909 42.0151C53.7309 42.005 53.8675 41.9666 53.9922 41.902C54.2142 42.488 54.5162 43.212 54.7382 43.798L54.8582 41.342C55.2322 41.06 55.2582 40.846 55.1962 40.37C55.6842 40.834 56.1562 40.632 56.7762 40.406C57.0877 40.2855 57.3605 40.0823 57.5653 39.8184C57.77 39.5545 57.8989 39.2397 57.9382 38.908C58.4522 39.392 59.2102 39.64 59.8642 39.412C60.5182 39.184 60.9702 38.412 60.7542 37.744C61.0417 37.9613 61.3968 38.0699 61.7566 38.0505C62.1164 38.0311 62.4578 37.885 62.7202 37.638C62.9704 37.3698 63.1209 37.0237 63.1463 36.6578C63.1718 36.2919 63.0708 35.9283 62.8602 35.628Z" fill="#263238"/>
<path d="M58.2382 46.6C58.6035 46.7939 58.9544 47.0138 59.2882 47.258C59.3382 47.208 59.3942 47.158 59.4422 47.104C60.1422 46.404 60.2422 45.848 60.1242 45.444C60.0661 45.248 59.9626 45.0685 59.8222 44.92C59.7452 44.8338 59.6563 44.7591 59.5582 44.698C59.4082 45.298 58.8082 45.994 58.4722 46.356C58.3182 46.5 58.2382 46.6 58.2382 46.6Z" fill="#263238"/>
<path d="M58.4582 46.352L58.7742 46.538C59.4302 45.878 59.8042 45.326 59.8082 44.914C59.7311 44.8279 59.6422 44.7532 59.5442 44.692C59.4002 45.292 58.8002 45.988 58.4582 46.352Z" fill="white"/>
<path d="M59.4302 47.1001C60.1302 46.4001 60.2302 45.8441 60.1122 45.4401C59.8511 45.711 59.6399 46.0258 59.4882 46.3701C59.3943 46.6017 59.3741 46.8566 59.4302 47.1001Z" fill="#C15854"/>
<path opacity="0.2" d="M58.8482 55.52L60.9002 59.942L61.6122 59.548L58.8482 55.52Z" fill="#1F1F1F"/>
<g opacity="0.2">
<path d="M72.9582 62.9401C72.6243 64.3082 72.0361 65.6013 71.2242 66.7521C70.4041 67.9043 69.2523 68.7792 67.9222 69.2601C69.3802 68.9981 71.0242 68.3501 71.8982 67.1501C72.7747 65.9329 73.1539 64.4272 72.9582 62.9401Z" fill="#1F1F1F"/>
</g>
<path opacity="0.2" d="M70.3422 74.8C70.3422 74.8 71.5662 74.91 73.0102 73.746C74.4542 72.582 74.4542 72.046 74.9382 71.78C75.4222 71.514 84.1722 66.98 84.1722 66.98L83.4302 65.066L73.0102 71.422L70.3422 74.8Z" fill="#1F1F1F"/>
<path d="M80.6002 54.558C80.7682 54.604 86.3442 62.758 85.7562 64.374C85.1682 65.99 73.7842 71.774 73.9562 71.774C74.1282 71.774 72.6502 69.048 72.6502 69.048L79.6942 63.166L75.9222 58.166L80.6002 54.558Z" fill="#895555"/>
<path d="M67.0242 73.9821L65.1202 72.5701C65.1202 72.5701 63.5842 75.8361 63.7602 76.1301C63.9362 76.4241 64.7222 76.6401 65.4002 76.1421C66.0782 75.6441 67.0242 73.9821 67.0242 73.9821Z" fill="#8E7CC3"/>
<path opacity="0.5" d="M67.0242 73.9821L65.1202 72.5701C65.1202 72.5701 63.5842 75.8361 63.7602 76.1301C63.9362 76.4241 64.7222 76.6401 65.4002 76.1421C66.0782 75.6441 67.0242 73.9821 67.0242 73.9821Z" fill="white"/>
<path d="M70.9622 74.858L68.6822 75.508C68.6822 75.508 70.3342 78.708 70.6822 78.754C71.0302 78.8 71.6822 78.304 71.6922 77.46C71.7022 76.616 70.9622 74.858 70.9622 74.858Z" fill="#8E7CC3"/>
<path opacity="0.5" d="M70.9622 74.858L68.6822 75.508C68.6822 75.508 70.3342 78.708 70.6822 78.754C71.0302 78.8 71.6822 78.304 71.6922 77.46C71.7022 76.616 70.9622 74.858 70.9622 74.858Z" fill="white"/>
<path d="M71.7502 74.7161L72.3642 72.4301C72.3642 72.4301 75.7922 73.5521 75.8842 73.8841C75.9762 74.2161 75.5982 74.9321 74.7682 75.0841C73.9382 75.2361 71.7502 74.7161 71.7502 74.7161Z" fill="#8E7CC3"/>
<path opacity="0.5" d="M71.7502 74.7161L72.3642 72.4301C72.3642 72.4301 75.7922 73.5521 75.8842 73.8841C75.9762 74.2161 75.5982 74.9321 74.7682 75.0841C73.9382 75.2361 71.7502 74.7161 71.7502 74.7161Z" fill="white"/>
<path opacity="0.2" d="M67.0242 73.982C66.6987 74.5391 66.3358 75.0737 65.9382 75.582C65.3245 74.701 65.0361 73.6341 65.1222 72.564L67.0242 73.982Z" fill="#1F1F1F"/>
<path d="M69.7722 70.712L68.0562 69.0781C68.0562 69.0781 71.0082 67.016 71.3322 67.13C71.6562 67.244 72.0042 67.988 71.6222 68.744C71.2402 69.5 69.7722 70.712 69.7722 70.712Z" fill="#8E7CC3"/>
<path opacity="0.5" d="M69.7722 70.712L68.0562 69.0781C68.0562 69.0781 71.0082 67.016 71.3322 67.13C71.6562 67.244 72.0042 67.988 71.6222 68.744C71.2402 69.5 69.7722 70.712 69.7722 70.712Z" fill="white"/>
<path opacity="0.2" d="M69.7722 70.712C70.2692 70.2959 70.737 69.8462 71.1722 69.366C70.1993 68.9132 69.0991 68.8128 68.0602 69.082L69.7722 70.712Z" fill="#1F1F1F"/>
<path opacity="0.2" d="M69.2422 76.56C69.2422 76.56 70.1142 76.62 70.7342 76.266C71.3542 75.912 71.2242 75.538 71.2242 75.538L69.0242 76.154L69.2422 76.56Z" fill="#1F1F1F"/>
<path d="M65.8582 70.212C67.1142 68.72 69.4322 68.612 71.0362 69.954C72.6402 71.296 72.9242 73.608 71.6682 75.1C70.4122 76.592 68.0962 76.7001 66.4902 75.3581C64.8842 74.0161 64.6002 71.704 65.8582 70.212Z" fill="#8E7CC3"/>
<path opacity="0.5" d="M65.8582 70.212C67.1142 68.72 69.4322 68.612 71.0362 69.954C72.6402 71.296 72.9242 73.608 71.6682 75.1C70.4122 76.592 68.0962 76.7001 66.4902 75.3581C64.8842 74.0161 64.6002 71.704 65.8582 70.212Z" fill="white"/>
<path opacity="0.5" d="M67.0982 71.502C67.8302 70.634 69.1782 70.566 70.1122 71.352C71.0462 72.138 71.2102 73.478 70.4802 74.352C69.7502 75.226 68.4002 75.288 67.4662 74.502C66.5322 73.716 66.3682 72.37 67.0982 71.502Z" fill="white"/>
<path opacity="0.2" d="M65.0802 72.584C65.9387 72.491 66.7282 72.07 67.2838 71.4089C67.8394 70.7478 68.1183 69.8977 68.0622 69.036C67.2033 69.1281 66.4132 69.5488 65.8574 70.2101C65.3016 70.8714 65.0231 71.7221 65.0802 72.584Z" fill="#1F1F1F"/>
<path d="M60.1602 68.642C60.3091 68.4025 60.5258 68.2125 60.7826 68.0961C61.0395 67.9797 61.3252 67.9421 61.6035 67.988C61.8817 68.034 62.1401 68.1614 62.346 68.3542C62.5518 68.547 62.6959 68.7965 62.7599 69.0711C62.824 69.3458 62.8051 69.6333 62.7058 69.8973C62.6065 70.1612 62.4311 70.3898 62.2018 70.5541C61.9726 70.7184 61.6998 70.811 61.4179 70.8202C61.136 70.8295 60.8577 70.7549 60.6182 70.606C60.4592 70.5071 60.3212 70.3779 60.2121 70.2256C60.103 70.0734 60.025 69.9012 59.9825 69.7188C59.9399 69.5365 59.9337 69.3475 59.9642 69.1627C59.9947 68.978 60.0613 68.801 60.1602 68.642Z" fill="#8E7CC3"/>
<path opacity="0.5" d="M60.1602 68.642C60.3091 68.4025 60.5258 68.2125 60.7826 68.0961C61.0395 67.9797 61.3252 67.9421 61.6035 67.988C61.8817 68.034 62.1401 68.1614 62.346 68.3542C62.5518 68.547 62.6959 68.7965 62.7599 69.0711C62.824 69.3458 62.8051 69.6333 62.7058 69.8973C62.6065 70.1612 62.4311 70.3898 62.2018 70.5541C61.9726 70.7184 61.6998 70.811 61.4179 70.8202C61.136 70.8295 60.8577 70.7549 60.6182 70.606C60.4592 70.5071 60.3212 70.3779 60.2121 70.2256C60.103 70.0734 60.025 69.9012 59.9825 69.7188C59.9399 69.5365 59.9337 69.3475 59.9642 69.1627C59.9947 68.978 60.0613 68.801 60.1602 68.642Z" fill="white"/>
<path opacity="0.5" d="M60.7702 70.1041C60.9114 70.2225 61.0845 70.2965 61.2677 70.3166C61.4508 70.3367 61.6359 70.302 61.7993 70.217C61.9628 70.132 62.0975 70.0004 62.1862 69.8389C62.2749 69.6774 62.3138 69.4932 62.2978 69.3096C62.2819 69.126 62.2119 68.9512 62.0967 68.8074C61.9815 68.6636 61.8262 68.5572 61.6505 68.5016C61.4748 68.446 61.2866 68.4437 61.1096 68.495C60.9326 68.5464 60.7749 68.6491 60.6562 68.7901C60.5773 68.8838 60.5177 68.9921 60.4808 69.1089C60.4438 69.2257 60.4302 69.3486 60.4408 69.4707C60.4514 69.5927 60.4859 69.7115 60.5425 69.8202C60.599 69.9288 60.6764 70.0253 60.7702 70.1041Z" fill="white"/>
<path d="M63.3642 67.02C63.5803 67.2011 63.8453 67.3141 64.1256 67.3447C64.4059 67.3753 64.689 67.322 64.9391 67.1918C65.1892 67.0615 65.395 66.86 65.5306 66.6127C65.6661 66.3655 65.7254 66.0836 65.7008 65.8027C65.6762 65.5218 65.5689 65.2545 65.3924 65.0346C65.2159 64.8147 64.9782 64.652 64.7093 64.5672C64.4404 64.4823 64.1523 64.4791 63.8816 64.5579C63.6109 64.6368 63.3696 64.7941 63.1882 65.01C63.0675 65.1534 62.9762 65.3192 62.9197 65.4979C62.8632 65.6767 62.8425 65.8648 62.8588 66.0516C62.8752 66.2383 62.9282 66.42 63.015 66.5862C63.1017 66.7524 63.2204 66.8998 63.3642 67.02Z" fill="#8E7CC3"/>
<path opacity="0.5" d="M63.3642 67.02C63.5803 67.2011 63.8453 67.3141 64.1256 67.3447C64.4059 67.3753 64.689 67.322 64.9391 67.1918C65.1892 67.0615 65.395 66.86 65.5306 66.6127C65.6661 66.3655 65.7254 66.0836 65.7008 65.8027C65.6762 65.5218 65.5689 65.2545 65.3924 65.0346C65.2159 64.8147 64.9782 64.652 64.7093 64.5672C64.4404 64.4823 64.1523 64.4791 63.8816 64.5579C63.6109 64.6368 63.3696 64.7941 63.1882 65.01C63.0675 65.1534 62.9762 65.3192 62.9197 65.4979C62.8632 65.6767 62.8425 65.8648 62.8588 66.0516C62.8752 66.2383 62.9282 66.42 63.015 66.5862C63.1017 66.7524 63.2204 66.8998 63.3642 67.02Z" fill="white"/>
<path opacity="0.5" d="M63.6722 66.6461C63.8131 66.765 63.9861 66.8395 64.1694 66.8601C64.3526 66.8807 64.5379 66.8465 64.7017 66.7618C64.8655 66.677 65.0004 66.5456 65.0895 66.3842C65.1786 66.2227 65.2178 66.0384 65.2021 65.8547C65.1864 65.6709 65.1166 65.496 65.0014 65.3519C64.8862 65.2079 64.7309 65.1013 64.5552 65.0455C64.3794 64.9898 64.191 64.9875 64.0139 65.0388C63.8368 65.0902 63.6789 65.1929 63.5602 65.3341C63.4023 65.5234 63.3255 65.7674 63.3465 66.0131C63.3674 66.2587 63.4845 66.4862 63.6722 66.6461Z" fill="white"/>
<path d="M62.1862 72C63.4382 73.054 65.5202 72.636 66.8502 71.06C68.1802 69.484 68.2322 67.354 66.9802 66.298C65.7282 65.242 63.6442 65.664 62.3142 67.24C60.9842 68.816 60.9422 70.936 62.1862 72Z" fill="#8E7CC3"/>
<path opacity="0.5" d="M62.1862 72C63.4382 73.054 65.5202 72.636 66.8502 71.06C68.1802 69.484 68.2322 67.354 66.9802 66.298C65.7282 65.242 63.6442 65.664 62.3142 67.24C60.9842 68.816 60.9422 70.936 62.1862 72Z" fill="white"/>
<path d="M65.6342 67.9C65.8602 68.1 66.1082 68.17 66.1882 68.076C66.2682 67.982 66.1462 67.75 65.9202 67.558C65.6942 67.366 65.4442 67.288 65.3642 67.384C65.2842 67.48 65.4002 67.708 65.6342 67.9Z" fill="#263238"/>
<path d="M63.2562 70.732C63.4822 70.932 63.7322 71.002 63.8122 70.906C63.8922 70.81 63.7702 70.58 63.5422 70.39C63.3142 70.2 63.0682 70.12 62.9862 70.214C62.9042 70.308 63.0282 70.538 63.2562 70.732Z" fill="#263238"/>
<path d="M64.6002 69.97C64.7862 70.124 65.1202 70.024 65.3542 69.748C65.5882 69.472 65.6242 69.13 65.4382 68.974C65.2522 68.818 64.9222 68.918 64.6882 69.194C64.4542 69.47 64.4242 69.816 64.6002 69.97Z" fill="#263238"/>
<path opacity="0.2" d="M71.9162 74.7641C72.1152 74.389 72.2504 73.9835 72.3162 73.5641L72.3982 73.222C72.3982 73.222 72.4862 74.2041 72.2922 74.8341L71.9162 74.7641Z" fill="#1F1F1F"/>
<path d="M73.5582 69.114C73.5582 69.114 72.6542 68.374 71.7882 68.43C70.9222 68.486 70.8642 68.466 70.2762 68.744C69.8002 68.97 69.8142 69.238 69.8142 69.238C70.2342 69.448 70.9602 69.822 70.9302 69.948C70.8302 70.348 67.8862 72.05 67.6362 72.584C67.3862 73.118 67.9062 72.996 67.9062 72.996C67.9062 72.996 67.2742 73.396 67.2822 73.796C67.2902 74.196 67.7402 74.08 67.7402 74.08C67.6886 74.1103 67.6455 74.1531 67.6148 74.2045C67.5841 74.2559 67.5669 74.3142 67.5647 74.374C67.5625 74.4338 67.5754 74.4932 67.6023 74.5467C67.6291 74.6002 67.669 74.646 67.7182 74.68C67.9802 74.92 70.3342 73.68 70.4602 73.694C70.4602 73.694 68.8002 74.236 68.7322 74.736C68.6642 75.236 69.5962 74.988 70.3322 74.81C71.0682 74.632 71.9142 74.096 72.5322 73.512C73.3122 72.784 74.5142 71.986 74.3862 70.974C74.2753 70.293 73.9901 69.6522 73.5582 69.114Z" fill="#895555"/>
<path opacity="0.2" d="M79.6922 63.168C79.9616 63.0201 80.2639 62.9425 80.5712 62.9425C80.8785 62.9425 81.1808 63.0201 81.4502 63.168C81.201 62.8836 80.8635 62.691 80.4919 62.621C80.1202 62.551 79.7358 62.6077 79.4002 62.782L79.6922 63.168Z" fill="#1F1F1F"/>
<path opacity="0.2" d="M76.6102 59.074L76.0782 59.474C76.0782 59.474 72.4482 55.124 72.4782 55.186C72.5082 55.248 76.0882 60.54 76.0882 60.54L76.9742 59.568L76.6102 59.074Z" fill="#1F1F1F"/>
<path d="M71.0902 47.366C72.6009 47.2335 74.1027 47.7037 75.2682 48.674C77.1282 50.194 81.4502 54.462 81.4502 54.462L76.3402 59.33L70.4662 53.412L71.0902 47.366Z" fill="#8E7CC3"/>
<path opacity="0.2" d="M70.9082 52C70.5962 50.574 71.5422 49.066 72.9082 48.6C73.1031 48.5345 73.3041 48.4889 73.5082 48.464C73.1324 48.5867 72.7766 48.764 72.4522 48.99C71.9703 49.3258 71.5786 49.7752 71.3117 50.2985C71.0448 50.8217 70.9111 51.4027 70.9222 51.99L70.9082 52Z" fill="#1F1F1F"/>
<path d="M30.4222 42.698C30.5623 42.6341 30.6774 42.5258 30.7497 42.3899C30.822 42.2539 30.8475 42.0979 30.8222 41.946C30.7915 41.7955 30.7278 41.6535 30.6359 41.5305C30.5439 41.4074 30.4258 41.3061 30.2902 41.234C30.0141 41.092 29.7103 41.0121 29.4002 41C29.105 40.9562 28.8035 40.9964 28.5302 41.116L29.8242 44.858C30.1192 44.7379 30.3842 44.5542 30.6002 44.32C30.818 44.0837 30.9344 43.7713 30.9242 43.45C30.9183 43.2905 30.8683 43.1357 30.7797 43.0029C30.691 42.8701 30.5673 42.7646 30.4222 42.698Z" fill="#263238"/>
<path d="M30.1181 39.61C29.6961 39.318 29.1921 39.268 28.7041 39.226C28.9184 38.9801 29.0524 38.6745 29.0881 38.3503C29.1238 38.0261 29.0597 37.6987 28.9041 37.412C28.4221 36.586 27.3881 36.652 26.5761 36.924C25.8661 37.162 25.1381 37.524 24.6981 38.228C24.6675 38.0291 24.5908 37.8402 24.4741 37.6763C24.3574 37.5124 24.204 37.378 24.0261 37.284C23.6958 37.1288 23.3269 37.0752 22.9661 37.13C22.3358 37.1866 21.7438 37.4569 21.2881 37.896C21.0404 38.1454 20.8461 38.4427 20.7172 38.7697C20.5882 39.0967 20.5273 39.4466 20.5381 39.798C19.7381 39.44 18.7561 39.838 18.3041 40.702C17.8521 41.566 17.9841 42.802 18.6041 43.502C18.2821 43.854 18.3001 44.38 18.4881 44.85C18.6761 45.32 19.7061 45.148 20.1381 45.07L27.0921 42.55C27.9221 43.054 28.9141 42.564 29.7521 42.076C30.1521 41.848 30.5721 41.57 30.7061 41.076C30.7621 40.8009 30.7363 40.5154 30.6318 40.2549C30.5273 39.9943 30.3487 39.7701 30.1181 39.61Z" fill="#263238"/>
<path d="M26.7361 43.66C26.7361 43.66 29.0001 47.74 29.1061 49C29.9741 49.738 30.5901 48.242 30.5561 46.236C30.5301 44.596 29.6741 42.824 28.2561 42.186C26.2641 41.298 26.7361 43.66 26.7361 43.66Z" fill="#263238"/>
<path d="M29.5461 56.186C28.7961 55.986 27.1321 55.526 26.4281 55.386C26.243 55.2242 26.1021 55.018 26.0185 54.7867C25.9348 54.5555 25.9113 54.3068 25.9501 54.064C26.0139 53.6203 26.1307 53.1859 26.2981 52.77L25.7341 52.154L22.8001 49.4C22.9401 51.312 23.2821 54.376 21.8241 55.468C21.8241 55.468 20.5481 56.436 19.7701 56.678C19.4861 57.552 18.0061 61.638 18.0061 61.638L30.7401 60.6C31.0281 58.618 29.4721 56.522 29.5461 56.186Z" fill="#B97964"/>
<path opacity="0.2" d="M26.0762 54.2339C25.2762 53.7979 24.3922 53.0339 24.4622 52.1019C24.4836 51.7623 24.546 51.4265 24.6482 51.1019L26.3102 53.1439C26.1939 53.498 26.1154 53.8634 26.0762 54.2339Z" fill="#1F1F1F"/>
<path d="M22.0181 46.354C22.3901 49.26 22.4881 50.496 24.0481 51.972C26.3961 54.19 29.8481 53.29 30.3461 50.372C30.7921 47.75 30.1081 43.436 27.1981 42.314C24.3341 41.212 21.6441 43.446 22.0181 46.354Z" fill="#B97964"/>
<path d="M25.9741 47.3779C25.9741 47.6519 26.1341 47.8839 26.3261 47.8979C26.5181 47.9119 26.6701 47.6979 26.6681 47.4259C26.6661 47.1539 26.5081 46.9199 26.3181 46.9059C26.1281 46.8919 25.9721 47.1039 25.9741 47.3779Z" fill="#263238"/>
<path d="M28.9421 47.124C28.9301 47.388 29.0721 47.622 29.2621 47.648C29.4521 47.674 29.6181 47.476 29.6301 47.212C29.6421 46.948 29.5001 46.712 29.3101 46.688C29.1201 46.664 28.9561 46.858 28.9421 47.124Z" fill="#263238"/>
<path d="M25.2001 46.438C25.2189 46.4398 25.2379 46.4374 25.2555 46.4308C25.2732 46.4242 25.2891 46.4137 25.3021 46.4C25.422 46.2736 25.5713 46.1789 25.7368 46.1244C25.9022 46.07 26.0786 46.0574 26.2501 46.088C26.2678 46.0927 26.2862 46.0937 26.3042 46.091C26.3223 46.0882 26.3395 46.0817 26.3549 46.072C26.3704 46.0622 26.3836 46.0493 26.3938 46.0342C26.4039 46.019 26.4109 46.002 26.4141 45.984C26.4204 45.9457 26.4122 45.9065 26.3911 45.874C26.37 45.8414 26.3376 45.8179 26.3001 45.808C26.0841 45.7665 25.8612 45.7797 25.6516 45.8464C25.442 45.9131 25.2524 46.0312 25.1001 46.19C25.0742 46.2168 25.0598 46.2527 25.0598 46.29C25.0598 46.3273 25.0742 46.3632 25.1001 46.39C25.1261 46.4182 25.1619 46.4354 25.2001 46.438Z" fill="#263238"/>
<path d="M29.7201 45.842C29.7541 45.8305 29.7821 45.806 29.7981 45.774C29.8058 45.7569 29.81 45.7385 29.8105 45.7198C29.8111 45.7011 29.8079 45.6825 29.8012 45.665C29.7945 45.6475 29.7844 45.6316 29.7715 45.618C29.7587 45.6044 29.7432 45.5936 29.7261 45.586C29.5208 45.4785 29.2935 45.4197 29.0619 45.4141C28.8302 45.4086 28.6003 45.4564 28.3901 45.554C28.3739 45.5625 28.3598 45.5744 28.3486 45.5889C28.3374 45.6034 28.3295 45.6201 28.3253 45.638C28.3212 45.6558 28.3209 45.6743 28.3244 45.6922C28.328 45.7102 28.3354 45.7271 28.3461 45.742C28.3671 45.7739 28.399 45.797 28.4359 45.807C28.4727 45.8169 28.512 45.813 28.5461 45.796C28.7134 45.7213 28.8955 45.6859 29.0785 45.6925C29.2616 45.6991 29.4407 45.7475 29.6021 45.834C29.6389 45.852 29.6813 45.8549 29.7201 45.842Z" fill="#263238"/>
<path d="M21.2221 48.762C21.3841 49.0245 21.5963 49.2525 21.8464 49.433C22.0966 49.6136 22.3799 49.743 22.6801 49.814C23.4581 49.98 23.8121 48.724 23.5201 47.96C23.3838 47.6161 23.1291 47.3323 22.8021 47.1596C22.475 46.9868 22.097 46.9366 21.7361 47.018C21.0001 47.2 20.8001 48.094 21.2221 48.762Z" fill="#B97964"/>
<path d="M27.9202 46.9399C28.2053 47.5525 28.5525 48.1342 28.9562 48.6759C28.9776 48.7035 28.9923 48.7357 28.9991 48.77C29.006 48.8042 29.0048 48.8396 28.9957 48.8733C28.9866 48.907 28.9698 48.9382 28.9466 48.9643C28.9235 48.9905 28.8945 49.0109 28.8622 49.0239C28.6103 49.1095 28.3397 49.124 28.0802 49.0659L27.9202 46.9399Z" fill="#A24E3F"/>
<path d="M26.2581 46.896L26.9361 46.77C26.9361 46.77 26.5461 47.252 26.2581 46.896Z" fill="#263238"/>
<path d="M29.2401 46.6879L29.9241 46.6019C29.9241 46.6019 29.5061 47.0579 29.2401 46.6879Z" fill="#263238"/>
<path d="M21.2302 44.76C20.8302 45.332 21.6302 46.992 21.6302 46.992C21.6302 46.992 23.0302 46.576 23.1062 48.684C23.6222 48.77 24.2022 46.802 24.1182 44.824C24.0002 43.706 21.9282 43.75 21.2302 44.76Z" fill="#263238"/>
<path opacity="0.2" d="M22.5042 49.068H22.4922C22.3316 49.0405 22.1791 48.9778 22.0457 48.8844C21.9122 48.7911 21.801 48.6693 21.7202 48.528C21.6742 48.4485 21.6453 48.3603 21.6353 48.2691C21.6253 48.1778 21.6344 48.0855 21.6622 47.998C21.7111 47.8739 21.8059 47.7735 21.927 47.7176C22.0481 47.6617 22.186 47.6547 22.3122 47.698C22.3183 47.7002 22.324 47.7036 22.3288 47.7081C22.3335 47.7125 22.3374 47.7179 22.34 47.7239C22.3426 47.7299 22.344 47.7364 22.344 47.7429C22.344 47.7495 22.3427 47.7559 22.3402 47.762C22.338 47.7681 22.3345 47.7738 22.3301 47.7785C22.3256 47.7833 22.3202 47.7871 22.3142 47.7898C22.3082 47.7924 22.3017 47.7938 22.2952 47.7938C22.2887 47.7938 22.2822 47.7925 22.2762 47.79C22.1744 47.7576 22.0642 47.765 21.9678 47.8106C21.8713 47.8563 21.7957 47.9368 21.7562 48.036C21.7338 48.1099 21.7269 48.1876 21.7359 48.2644C21.7448 48.3411 21.7694 48.4151 21.8082 48.482C21.8825 48.6108 21.9846 48.7215 22.107 48.8059C22.2295 48.8904 22.3693 48.9464 22.5162 48.97C22.5226 48.9713 22.5286 48.974 22.534 48.9779C22.5393 48.9817 22.5438 48.9865 22.5471 48.9922C22.5505 48.9978 22.5527 49.004 22.5536 49.0105C22.5544 49.017 22.554 49.0236 22.5522 49.03C22.5498 49.0409 22.5438 49.0507 22.535 49.0576C22.5262 49.0645 22.5153 49.0682 22.5042 49.068Z" fill="#1F1F1F"/>
<path d="M28.3481 50.018C28.1637 50.322 28.0013 50.6388 27.8621 50.966L27.6801 50.922C26.8541 50.71 26.5421 50.34 26.4461 49.992C26.4042 49.8212 26.4042 49.6428 26.4461 49.472C26.465 49.3747 26.4973 49.2805 26.5421 49.192C26.9121 49.566 27.6661 49.822 28.0741 49.942C28.2401 50 28.3481 50.018 28.3481 50.018Z" fill="#263238"/>
<path d="M28.0681 49.942L27.9181 50.218C27.1421 50.018 26.6221 49.77 26.4401 49.472C26.459 49.3747 26.4913 49.2805 26.5361 49.192C26.9061 49.566 27.6601 49.822 28.0681 49.942Z" fill="white"/>
<path d="M27.6801 50.9219C26.8541 50.7099 26.5421 50.3399 26.4461 49.9919C26.7579 50.0787 27.0519 50.2202 27.3141 50.4099C27.4865 50.5382 27.6145 50.7173 27.6801 50.9219Z" fill="#C15854"/>
<path d="M29.4781 43.138C28.8621 41.854 26.3481 40.662 23.4561 41.902C20.8441 43.016 19.6161 46.198 21.5041 46.34C23.3921 46.482 26.5501 44.85 26.5501 44.85L29.4781 43.138Z" fill="#263238"/>
<path d="M22.8981 50.922C22.8981 50.922 20.0141 48.688 19.6981 45.596C19.6981 45.596 20.9281 41.668 26.2641 41.38L27.4801 41.62C27.4801 41.62 22.0501 44.632 22.8981 50.922Z" fill="#8E7CC3"/>
<path d="M26.4141 41.4C26.8855 41.2125 27.4072 41.1937 27.8909 41.3468C28.3745 41.4999 28.7904 41.8154 29.0681 42.24C29.7552 43.2519 30.2314 44.3919 30.4681 45.592C30.4681 45.592 30.0681 43.542 28.9401 42.912C28.2697 42.5335 27.5725 42.2046 26.8541 41.928L26.4141 41.4Z" fill="#8E7CC3"/>
<path opacity="0.3" d="M25.9681 42.79L26.1401 41.392L25.7361 41.42L25.4921 43.212L25.9681 42.79Z" fill="#1F1F1F"/>
<path opacity="0.3" d="M20.0381 44.85C20.0381 44.85 20.4381 47.628 22.8521 50.218L22.8221 49.102C22.8221 49.102 21.2061 46.582 20.4841 44.172C20.3134 44.3827 20.164 44.6098 20.0381 44.85Z" fill="#1F1F1F"/>
<path opacity="0.3" d="M21.3201 43.262C21.6957 44.6367 22.3252 45.9289 23.1761 47.072C23.2697 46.7639 23.3792 46.4608 23.5041 46.164C22.8822 45.0856 22.3472 43.9594 21.9041 42.796C21.7006 42.9399 21.5056 43.0955 21.3201 43.262Z" fill="#1F1F1F"/>
<path opacity="0.3" d="M23.8241 41.8259C23.5761 41.9079 23.3421 41.9999 23.1221 42.0979C23.4137 43.0018 23.8168 43.8658 24.3221 44.6699C24.4921 44.4139 24.6701 44.1719 24.8501 43.9479C24.4728 43.2582 24.1303 42.55 23.8241 41.8259Z" fill="#1F1F1F"/>
<path opacity="0.3" d="M28.8701 42.876L28.4001 41.564C28.4001 41.564 28.7361 41.84 28.8381 41.964C28.9401 42.088 29.2561 43.146 29.2381 43.14L28.8701 42.876Z" fill="#1F1F1F"/>
<path d="M26.1281 41.478C26.1281 41.478 26.8061 39.984 27.5461 40.444C28.2861 40.904 29.3921 43.128 28.6221 43.044C27.8521 42.96 26.1781 43.212 25.9681 42.796C25.7581 42.38 26.1281 41.478 26.1281 41.478Z" fill="#8E7CC3"/>
<path opacity="0.3" d="M26.1101 42.9159L27.8361 40.6899C27.8361 40.6899 28.2361 41.2059 28.2701 41.2519C28.3041 41.2979 27.0121 43.0399 27.0121 43.0399C27.0121 43.0399 26.2541 43.0419 26.1101 42.9159Z" fill="#1F1F1F"/>
<path d="M49.9981 89.534L50.7061 86.706L43.7521 83.502L42.6281 87.8L49.9981 89.534Z" fill="#B97964"/>
<path opacity="0.3" d="M47.4281 85.196L49.4481 86.034L48.4621 89.142L46.2781 88.658L47.4281 85.196Z" fill="#1F1F1F"/>
<path d="M49.8601 86.0859L49.2501 86.9259C49.1837 87.0205 49.1405 87.1292 49.1238 87.2435C49.1071 87.3578 49.1175 87.4744 49.1541 87.584C49.4641 88.546 48.9541 88.7299 47.9541 88.8059C47.6721 89.1119 47.9921 89.4799 48.0741 89.5819L49.9021 91.8619C49.9448 91.9164 49.9997 91.9601 50.0623 91.9895C50.1249 92.019 50.1935 92.0335 50.2626 92.0317C50.3318 92.03 50.3996 92.0121 50.4606 91.9795C50.5216 91.9469 50.5742 91.9005 50.6141 91.8439L52.6141 89.0739L55.4261 85.1999C56.1921 84.1419 55.2841 83.1519 54.8701 83.5159C53.0181 85.1599 51.4361 86.1299 50.4281 86.3159C50.2481 86.3579 50.2561 86.1879 49.8601 86.0859Z" fill="#263238"/>
<path d="M51.8281 84.736C51.8278 84.6696 51.8121 84.6041 51.7823 84.5448C51.7525 84.4855 51.7093 84.4338 51.6561 84.394C51.6293 84.3703 51.5965 84.3543 51.5613 84.3476C51.5261 84.3409 51.4898 84.3438 51.4561 84.356C51.0781 84.484 50.8081 85.888 50.7801 86.048C50.7769 86.0594 50.7773 86.0715 50.7812 86.0827C50.785 86.0939 50.7923 86.1037 50.8018 86.1106C50.8114 86.1176 50.8229 86.1215 50.8348 86.1217C50.8466 86.122 50.8583 86.1186 50.8681 86.112C51.1162 85.8979 51.3414 85.6586 51.5401 85.398C51.7042 85.2136 51.8051 84.9817 51.8281 84.736ZM51.4901 84.48C51.5043 84.4739 51.52 84.4723 51.535 84.4755C51.5501 84.4788 51.5637 84.4866 51.5741 84.498C51.6113 84.5281 51.6415 84.5658 51.6629 84.6086C51.6843 84.6514 51.6963 84.6982 51.6981 84.746C51.6981 85.114 51.2101 85.634 50.9281 85.902C51.0521 85.328 51.2841 84.552 51.4901 84.48Z" fill="#8E7CC3"/>
<path d="M50.9081 86.084C51.0061 85.674 50.9661 84.638 50.6661 84.484C50.6061 84.448 50.5061 84.438 50.3841 84.568C49.9021 85.094 50.7561 86.09 50.8001 86.122C50.8031 86.1314 50.8094 86.1395 50.8179 86.1448C50.8263 86.1501 50.8364 86.1522 50.8462 86.1507C50.856 86.1493 50.8651 86.1444 50.8716 86.1369C50.8782 86.1295 50.8819 86.1199 50.8821 86.11L50.9081 86.084ZM50.4561 84.64C50.5441 84.54 50.5821 84.568 50.5961 84.578C50.7841 84.67 50.8681 85.46 50.7961 85.934C50.6061 85.688 50.1561 85.04 50.4201 84.676L50.4561 84.64Z" fill="#8E7CC3"/>
<path d="M50.8721 87.068C50.8619 87.068 50.8518 87.065 50.8433 87.0593C50.8347 87.0536 50.8281 87.0455 50.8241 87.036C50.7555 86.8613 50.7253 86.6739 50.7357 86.4864C50.746 86.299 50.7967 86.1161 50.8841 85.95C50.8873 85.9442 50.8915 85.9391 50.8966 85.9349C50.9018 85.9308 50.9076 85.9277 50.914 85.9259C50.9203 85.924 50.9269 85.9234 50.9335 85.9241C50.94 85.9248 50.9463 85.9268 50.9521 85.93C50.9578 85.9329 50.9629 85.937 50.967 85.9419C50.9712 85.9469 50.9742 85.9526 50.9761 85.9588C50.978 85.9649 50.9786 85.9714 50.9779 85.9778C50.9772 85.9842 50.9752 85.9904 50.9721 85.996C50.8916 86.149 50.8451 86.3175 50.8358 86.4901C50.8265 86.6627 50.8546 86.8353 50.9181 86.996C50.9207 87.002 50.922 87.0085 50.922 87.015C50.9219 87.0216 50.9206 87.028 50.9179 87.034C50.9153 87.04 50.9115 87.0454 50.9067 87.0499C50.9019 87.0544 50.8963 87.0578 50.8901 87.06C50.8852 87.0646 50.8789 87.0674 50.8721 87.068Z" fill="#8E7CC3"/>
<path d="M51.6421 86.832C51.6328 86.8311 51.624 86.8277 51.6166 86.822C51.6091 86.8164 51.6034 86.8087 51.6001 86.8C51.5312 86.6251 51.5006 86.4374 51.5106 86.2497C51.5207 86.062 51.571 85.8786 51.6581 85.712C51.6648 85.7007 51.6756 85.6923 51.6882 85.6886C51.7008 85.6849 51.7144 85.6861 51.7261 85.692C51.7378 85.6984 51.7466 85.709 51.7507 85.7216C51.7547 85.7343 51.7538 85.748 51.7481 85.76C51.6673 85.9128 51.6205 86.0813 51.6108 86.2539C51.6011 86.4265 51.6289 86.5991 51.6921 86.76C51.6947 86.7662 51.696 86.7728 51.696 86.7795C51.696 86.7862 51.6947 86.7928 51.6921 86.7989C51.6895 86.8051 51.6856 86.8107 51.6808 86.8153C51.676 86.82 51.6704 86.8236 51.6641 86.826L51.6421 86.832Z" fill="#8E7CC3"/>
<path d="M52.4421 86.4219C52.4338 86.422 52.4257 86.4201 52.4183 86.4162C52.411 86.4124 52.4047 86.4068 52.4001 86.3999C52.3309 86.225 52.3005 86.0372 52.3108 85.8494C52.3212 85.6615 52.3721 85.4782 52.4601 85.3119C52.463 85.3062 52.4671 85.3011 52.4721 85.297C52.477 85.2929 52.4827 85.2898 52.4889 85.2879C52.495 85.2861 52.5015 85.2855 52.5079 85.2862C52.5143 85.2868 52.5205 85.2888 52.5261 85.2919C52.5321 85.2949 52.5374 85.299 52.5417 85.3041C52.5461 85.3091 52.5494 85.315 52.5514 85.3213C52.5535 85.3276 52.5542 85.3343 52.5537 85.341C52.5531 85.3476 52.5512 85.354 52.5481 85.3599C52.4673 85.5127 52.4205 85.6812 52.4108 85.8538C52.4011 86.0264 52.4289 86.199 52.4921 86.3599C52.4967 86.3721 52.4964 86.3857 52.4911 86.3976C52.4859 86.4096 52.4762 86.419 52.4641 86.4239L52.4421 86.4219Z" fill="#8E7CC3"/>
<path d="M30.1222 72.364L33.1882 75C38.0342 74.882 54.2282 73.238 54.7242 78.366C56.8542 84.308 42.0322 84.74 32.2202 85.496C32.1878 85.4991 32.1567 85.51 32.1296 85.5277C32.1024 85.5455 32.0799 85.5696 32.0642 85.598C31.9882 85.726 31.6942 86.016 30.6502 86.666C28.0782 88.266 26.4502 88.744 24.2122 88.586C20.3662 88.306 16.9162 86.1 17.2302 80.4C17.3188 78.0943 17.8242 75.8236 18.7222 73.698L30.1222 72.364Z" fill="#263238"/>
<path opacity="0.2" d="M21.8481 72.568L18.9501 80.278C18.9501 80.278 31.7221 77.64 39.6761 81.522C39.6761 81.522 47.7201 79.182 49.2761 77.722C40.5621 82.57 31.9981 78.232 31.9981 78.232L21.8481 72.568Z" fill="#1F1F1F"/>
<path d="M32.2301 86.3239L33.7001 88.8419L40.9101 86.2719L38.7121 82.4139L32.2301 86.3239Z" fill="#B97964"/>
<path d="M35.3201 88.66L34.6481 87.872C34.5723 87.785 34.4769 87.7172 34.3699 87.6741C34.2628 87.631 34.1471 87.6138 34.0321 87.624C33.0321 87.698 32.9661 87.156 33.1281 86.164C32.8961 85.818 32.4641 86.042 32.3441 86.098L29.6981 87.338C29.5915 87.3868 29.5085 87.4758 29.4673 87.5856C29.4261 87.6954 29.43 87.8171 29.4781 87.924C29.4959 87.9644 29.5202 88.0015 29.5501 88.034L31.7681 90.634L34.8781 94.278C35.7241 95.278 36.9021 94.624 36.6461 94.136C35.4821 91.948 34.9121 90.184 34.9621 89.158C34.9661 88.974 35.1281 89.022 35.3201 88.66Z" fill="#263238"/>
<path d="M36.1701 90.892C36.2346 90.9077 36.3018 90.9081 36.3664 90.8932C36.431 90.8783 36.4912 90.8484 36.5421 90.806C36.5712 90.7855 36.5944 90.7577 36.6091 90.7254C36.6239 90.693 36.6298 90.6573 36.6261 90.622C36.5901 90.222 35.2901 89.634 35.1401 89.57C35.1327 89.5661 35.1245 89.5641 35.1161 89.5641C35.1078 89.5641 35.0996 89.5661 35.0921 89.57C35.0849 89.5724 35.0783 89.5763 35.0726 89.5814C35.0669 89.5865 35.0624 89.5927 35.0592 89.5996C35.056 89.6066 35.0543 89.6141 35.0541 89.6217C35.0539 89.6293 35.0553 89.6369 35.0581 89.644C35.2078 89.9352 35.3874 90.21 35.5941 90.464C35.7356 90.6644 35.9374 90.8144 36.1701 90.892ZM36.4981 90.624C36.5009 90.6388 36.4989 90.6541 36.4924 90.6678C36.4859 90.6814 36.4754 90.6927 36.4621 90.7C36.4239 90.7293 36.3799 90.7502 36.333 90.7612C36.2861 90.7722 36.2374 90.7732 36.1901 90.764C35.8321 90.682 35.4441 90.08 35.2501 89.744C35.7781 90 36.4781 90.4 36.4981 90.624Z" fill="#8E7CC3"/>
<path d="M35.0761 89.6819C35.4521 89.8719 36.4761 90.0819 36.6961 89.8239C36.7461 89.7739 36.7781 89.6799 36.6821 89.5299C36.2821 88.9299 35.1141 89.5299 35.0821 89.5679C35.0718 89.5722 35.0628 89.5794 35.0564 89.5886C35.05 89.5978 35.0465 89.6087 35.0461 89.6199C35.0513 89.633 35.0604 89.6442 35.0721 89.6519L35.0761 89.6819ZM36.5861 89.5799C36.6621 89.6899 36.6261 89.7199 36.6121 89.7319C36.4801 89.8939 35.6921 89.7879 35.2481 89.6119C35.5321 89.4839 36.2661 89.1999 36.5581 89.5419L36.5861 89.5799Z" fill="#8E7CC3"/>
<path d="M35.1801 89.7759C35.1677 89.776 35.1557 89.7717 35.1461 89.7639C35.0158 89.6496 34.8625 89.5646 34.6966 89.5146C34.5306 89.4645 34.3559 89.4507 34.1841 89.4739C34.1772 89.476 34.17 89.4765 34.1629 89.4754C34.1558 89.4744 34.1491 89.4719 34.143 89.468C34.137 89.4641 34.1319 89.459 34.128 89.4529C34.1242 89.4469 34.1216 89.4401 34.1206 89.433C34.1196 89.4259 34.1201 89.4187 34.1222 89.4118C34.1242 89.405 34.1277 89.3986 34.1323 89.3932C34.137 89.3878 34.1428 89.3834 34.1494 89.3805C34.1559 89.3775 34.163 89.3759 34.1701 89.3759C34.3562 89.3496 34.5457 89.3641 34.7257 89.4183C34.9056 89.4725 35.0716 89.5652 35.2121 89.69C35.2172 89.6943 35.2212 89.6996 35.224 89.7057C35.2268 89.7117 35.2283 89.7183 35.2283 89.7249C35.2283 89.7316 35.2268 89.7382 35.224 89.7442C35.2212 89.7503 35.2172 89.7556 35.2121 89.7599C35.2082 89.7647 35.2033 89.7686 35.1978 89.7713C35.1923 89.7741 35.1863 89.7757 35.1801 89.7759Z" fill="#8E7CC3"/>
<path d="M35.2281 90.582C35.2221 90.5822 35.216 90.5811 35.2105 90.5786C35.205 90.5762 35.2 90.5726 35.1961 90.568C35.0661 90.4533 34.9128 90.3682 34.7467 90.3185C34.5806 90.2688 34.4057 90.2556 34.2341 90.28C34.2275 90.281 34.2208 90.2808 34.2144 90.2792C34.2079 90.2777 34.2018 90.2749 34.1964 90.271C34.191 90.2671 34.1865 90.2621 34.183 90.2565C34.1795 90.2508 34.1772 90.2445 34.1761 90.238C34.1751 90.2314 34.1753 90.2247 34.1769 90.2182C34.1784 90.2117 34.1812 90.2056 34.1851 90.2003C34.189 90.1949 34.1939 90.1903 34.1996 90.1868C34.2053 90.1833 34.2115 90.181 34.2181 90.18C34.4045 90.1539 34.5943 90.1684 34.7745 90.2226C34.9547 90.2768 35.1211 90.3694 35.2621 90.494C35.2713 90.5033 35.2764 90.5159 35.2764 90.529C35.2764 90.542 35.2713 90.5546 35.2621 90.564C35.2579 90.5691 35.2527 90.5733 35.2469 90.5764C35.2411 90.5794 35.2347 90.5813 35.2281 90.582Z" fill="#8E7CC3"/>
<path d="M35.4381 91.456C35.4321 91.4562 35.4261 91.4551 35.4205 91.4527C35.415 91.4502 35.4101 91.4466 35.4061 91.442C35.2761 91.3273 35.1228 91.2422 34.9567 91.1925C34.7906 91.1428 34.6158 91.1296 34.4441 91.154C34.4376 91.155 34.4309 91.1548 34.4244 91.1532C34.4179 91.1517 34.4118 91.1489 34.4064 91.145C34.4011 91.1411 34.3965 91.1362 34.393 91.1305C34.3895 91.1248 34.3872 91.1185 34.3861 91.112C34.3851 91.1054 34.3853 91.0987 34.3869 91.0922C34.3884 91.0858 34.3912 91.0797 34.3951 91.0743C34.399 91.0689 34.4039 91.0643 34.4096 91.0609C34.4153 91.0574 34.4216 91.055 34.4281 91.054C34.6145 91.0279 34.8043 91.0424 34.9845 91.0966C35.1647 91.1508 35.3311 91.2434 35.4721 91.368C35.4813 91.3773 35.4864 91.3899 35.4864 91.403C35.4864 91.4161 35.4813 91.4286 35.4721 91.438C35.4679 91.4431 35.4628 91.4473 35.4569 91.4504C35.4511 91.4535 35.4447 91.4554 35.4381 91.456Z" fill="#8E7CC3"/>
<path d="M47.6422 84.942C47.6422 84.942 30.0002 76.78 24.1702 77.048C18.3402 77.316 17.5162 82.448 19.9142 85.658C22.3122 88.868 26.7502 88.418 26.7502 88.418C26.7502 88.418 23.7342 85.376 24.1702 84.186C24.6062 82.996 26.3122 84.658 26.3122 84.658C26.3122 84.658 36.9122 88.084 46.2002 88.87L47.6422 84.942Z" fill="#263238"/>
<path opacity="0.2" d="M32.4922 86L25.7722 83.618C25.7722 83.618 27.5082 85.388 32.0762 86.784C36.6762 88.184 39.0022 87.822 39.0022 87.822C38.7482 87.958 32.4922 86 32.4922 86Z" fill="#1F1F1F"/>
<path opacity="0.2" d="M39.5922 81.4899L46.0222 84.2119L46.6662 84.1059L40.5582 81.2579L39.5922 81.4899Z" fill="#1F1F1F"/>
<path d="M33.2661 68.838C33.2661 68.826 33.0661 63.316 33.0661 63.316C33.0821 62.882 33.2041 58.456 31.1381 57.088C29.7621 55.826 28.6961 57.134 27.9581 58.53C27.2501 59.868 28.3581 63.8 28.3581 63.8L29.6181 63.68C29.6461 65.694 29.7321 68.46 29.9921 69.718C30.4241 71.814 30.9921 72.162 34.4781 72.098C36.4541 72.062 38.4281 72.07 38.4281 72.07L39.0801 70.04C39.0801 70.04 33.9441 69.134 33.2661 68.838Z" fill="#8E7CC3"/>
<path opacity="0.5" d="M33.2661 68.838C33.2661 68.826 33.0661 63.316 33.0661 63.316C33.0821 62.882 33.2041 58.456 31.1381 57.088C29.7621 55.826 28.6961 57.134 27.9581 58.53C27.2501 59.868 28.3581 63.8 28.3581 63.8L29.6181 63.68C29.6461 65.694 29.7321 68.46 29.9921 69.718C30.4241 71.814 30.9921 72.162 34.4781 72.098C36.4541 72.062 38.4281 72.07 38.4281 72.07L39.0801 70.04C39.0801 70.04 33.9441 69.134 33.2661 68.838Z" fill="white"/>
<g opacity="0.3">
<path d="M31.2461 59.5859C31.4981 60.1179 31.6661 60.4019 31.7061 61.0159C32.0021 65.5179 30.6281 66.2839 30.6241 66.8359L30.8241 63.4359C30.9761 62.1019 31.0881 60.9199 31.2461 59.5859Z" fill="#1F1F1F"/>
</g>
<path d="M17.8002 62.4L16.6602 56.636C17.8422 55.174 22.6322 54.236 22.6322 54.236C22.6722 56.41 26.5782 56.62 26.0422 54.852C26.9908 55.1222 27.9254 55.4399 28.8422 55.804C30.2902 56.424 31.0622 56.888 31.3442 57.748C31.3442 57.748 31.8022 59.638 31.0902 63.386C30.8902 64.416 30.1662 69.88 30.2902 71.692L32.6082 74.51C31.4622 75.464 29.4342 76.864 27.8742 76.604C21.8462 75.604 18.2342 74.914 18.2342 74.914C18.3562 73.808 19.0162 72.08 19.2162 71.258C19.2162 70.186 18.9842 69.458 18.7002 67.556C18.6622 67.188 17.9242 62.762 17.8002 62.4Z" fill="#8E7CC3"/>
<path opacity="0.5" d="M17.8002 62.4L16.6602 56.636C17.8422 55.174 22.6322 54.236 22.6322 54.236C22.6722 56.41 26.5782 56.62 26.0422 54.852C26.9908 55.1222 27.9254 55.4399 28.8422 55.804C30.2902 56.424 31.0622 56.888 31.3442 57.748C31.3442 57.748 31.8022 59.638 31.0902 63.386C30.8902 64.416 30.1662 69.88 30.2902 71.692L32.6082 74.51C31.4622 75.464 29.4342 76.864 27.8742 76.604C21.8462 75.604 18.2342 74.914 18.2342 74.914C18.3562 73.808 19.0162 72.08 19.2162 71.258C19.2162 70.186 18.9842 69.458 18.7002 67.556C18.6622 67.188 17.9242 62.762 17.8002 62.4Z" fill="white"/>
<path opacity="0.3" d="M18.5482 66.524C18.5482 66.524 19.8802 63.14 19.8802 60.188L17.7382 62.016L18.5482 66.524Z" fill="#1F1F1F"/>
<path d="M37.5242 69.9539C37.5242 69.9539 38.0362 69.2479 38.7482 69.1539C39.4602 69.0599 40.0002 68.7779 40.5362 68.7359C41.0722 68.6939 40.9242 69.2119 40.5982 69.4299C40.2722 69.6479 39.5382 69.8979 39.7422 70.1159C39.9462 70.3339 42.4022 71.0959 42.6502 71.4319C42.8982 71.7679 42.4622 71.7679 42.4622 71.7679C42.4622 71.7679 43.0102 71.9439 43.0362 72.2259C43.0622 72.5079 42.6862 72.5019 42.6862 72.5019C42.6862 72.5019 43.0502 72.6319 42.9282 72.8779C42.8062 73.1239 40.5282 72.6379 40.4282 72.6779C40.4282 72.6779 41.8282 72.7859 41.9262 73.1259C42.0242 73.4659 41.2382 73.4499 40.6142 73.4479C39.9431 73.4158 39.2889 73.2268 38.7042 72.8959C38.0062 72.5099 36.9602 72.1479 36.9822 71.4099C37.0042 70.6719 37.5242 69.9539 37.5242 69.9539Z" fill="#B97964"/>
<path d="M45.1421 76.078C46.3484 76.9294 47.4852 77.875 48.5421 78.906C49.7961 80.162 49.9521 85.62 50.3581 87.906L48.9201 88.814C48.9201 88.814 46.8441 83.272 46.2661 81.214C46.2661 81.214 42.1701 78.414 42.6001 78.5L45.1421 76.078Z" fill="#B97964"/>
<path d="M38.4781 75.3C38.4541 75.266 43.2641 80.154 44.2661 82.58C44.7581 83.768 43.8501 87.236 43.3241 90.58L41.6241 90.236C41.6241 90.236 41.4541 83.99 41.3521 83.916C40.3961 83.22 34.4721 79.092 33.8201 77.916L38.4781 75.3Z" fill="#B97964"/>
<path d="M43.4961 79.886L40.8801 77.574L43.1181 80.222L38.7681 82.508C38.7681 82.508 37.2001 81.32 34.8001 79.43C33.2641 78.23 32.8961 77.672 32.5701 74.988L41.4581 72.568C41.4581 72.568 41.6581 73.266 41.8081 73.368C41.8081 73.368 45.6081 75.968 47.5901 77.668L43.4961 79.886Z" fill="#8E7CC3"/>
<path d="M50.3321 87.244L49.7841 87.418C49.7212 87.4407 49.6651 87.4787 49.6207 87.5287C49.5763 87.5786 49.5452 87.6389 49.5301 87.704C49.3721 88.304 49.0741 88.19 48.5821 87.832C48.3541 87.872 48.3821 88.18 48.3941 88.264L48.5301 90.114C48.5305 90.187 48.5586 90.2572 48.6087 90.3103C48.6588 90.3634 48.7272 90.3955 48.8001 90.4C48.8245 90.4018 48.8491 90.3984 48.8721 90.39L50.6841 89.814L53.2201 89.014C53.9121 88.796 53.8661 87.956 53.3641 87.97C51.9801 88.05 51.0621 87.896 50.5301 87.594C50.4281 87.532 50.4861 87.452 50.3321 87.244Z" fill="#263238"/>
<path d="M51.6782 87.354C51.6991 87.3188 51.7124 87.2797 51.7172 87.239C51.7221 87.1983 51.7183 87.1571 51.7061 87.118C51.7021 87.0965 51.6927 87.0764 51.6787 87.0596C51.6647 87.0428 51.6466 87.0299 51.6262 87.022C51.4082 86.936 50.8402 87.522 50.7762 87.59C50.7728 87.5991 50.7728 87.609 50.7762 87.618C50.7756 87.6273 50.7786 87.6364 50.7845 87.6434C50.7905 87.6505 50.799 87.655 50.8081 87.656C50.9904 87.6498 51.1711 87.6209 51.3462 87.57C51.4788 87.5394 51.5964 87.4629 51.6782 87.354ZM51.6022 87.094C51.6109 87.0973 51.6185 87.103 51.6241 87.1105C51.6298 87.1179 51.6333 87.1267 51.6342 87.136C51.6501 87.1938 51.643 87.2555 51.6142 87.308C51.5002 87.492 51.1061 87.554 50.8901 87.576C51.1301 87.34 51.4821 87.048 51.6001 87.094H51.6022Z" fill="#8E7CC3"/>
<path d="M50.8241 87.658C50.9981 87.494 51.3061 86.966 51.2241 86.766C51.2061 86.724 51.1621 86.682 51.0641 86.696C50.6641 86.766 50.7581 87.596 50.7701 87.63C50.77 87.6369 50.7718 87.6438 50.7754 87.6498C50.7789 87.6558 50.784 87.6607 50.7901 87.664C50.7972 87.6668 50.8051 87.6668 50.8121 87.664L50.8241 87.658ZM51.0661 86.764C51.1401 86.75 51.1481 86.78 51.1521 86.79C51.2121 86.91 51.0001 87.334 50.8201 87.54C50.8081 87.34 50.8021 86.846 51.0401 86.77L51.0661 86.764Z" fill="#8E7CC3"/>
<path d="M50.5121 88.154H50.5021C50.4894 88.1511 50.4782 88.1435 50.4708 88.1328C50.4634 88.122 50.4603 88.1089 50.4621 88.096C50.4818 87.9843 50.5266 87.8786 50.5931 87.7867C50.6596 87.6949 50.7461 87.6194 50.8461 87.566C50.8578 87.5603 50.8713 87.5595 50.8836 87.5636C50.8959 87.5677 50.9061 87.5764 50.9121 87.588C50.9178 87.6 50.9187 87.6137 50.9147 87.6263C50.9106 87.639 50.9018 87.6496 50.8901 87.656C50.8039 87.7022 50.7294 87.7675 50.6723 87.8469C50.6151 87.9262 50.5767 88.0176 50.5601 88.114C50.5582 88.1253 50.5523 88.1355 50.5435 88.1428C50.5347 88.1502 50.5236 88.1541 50.5121 88.154Z" fill="#8E7CC3"/>
<path d="M50.9461 88.342C50.9395 88.3408 50.9332 88.3383 50.9276 88.3346C50.9219 88.3309 50.9171 88.3261 50.9134 88.3205C50.9096 88.3149 50.9071 88.3086 50.9058 88.302C50.9046 88.2953 50.9047 88.2885 50.9061 88.282C50.9254 88.1707 50.9699 88.0653 51.0361 87.9738C51.1023 87.8823 51.1885 87.8071 51.2881 87.754C51.3001 87.7482 51.3139 87.7473 51.3265 87.7514C51.3392 87.7555 51.3498 87.7643 51.3561 87.776C51.3618 87.7877 51.3626 87.8011 51.3585 87.8134C51.3544 87.8257 51.3457 87.836 51.3341 87.842C51.2478 87.8885 51.1732 87.9542 51.1161 88.0339C51.0589 88.1136 51.0206 88.2053 51.0041 88.302C51.0017 88.3149 50.9943 88.3264 50.9834 88.3339C50.9725 88.3414 50.9591 88.3443 50.9461 88.342Z" fill="#8E7CC3"/>
<path d="M51.4501 88.456H51.4402C51.4273 88.4527 51.416 88.4447 51.4087 88.4336C51.4013 88.4225 51.3983 88.4091 51.4001 88.396C51.4198 88.2846 51.4646 88.1791 51.5311 88.0876C51.5977 87.9961 51.6842 87.921 51.7842 87.868C51.7959 87.8623 51.8093 87.8615 51.8216 87.8656C51.8339 87.8697 51.8442 87.8784 51.8501 87.89C51.8532 87.8959 51.8551 87.9023 51.8557 87.9089C51.8563 87.9156 51.8555 87.9223 51.8534 87.9286C51.8514 87.9349 51.8481 87.9408 51.8438 87.9458C51.8394 87.9509 51.8341 87.955 51.8282 87.958C51.742 88.004 51.6676 88.0692 51.6107 88.1487C51.5538 88.2281 51.516 88.3196 51.5001 88.416C51.4975 88.4273 51.4911 88.4373 51.482 88.4446C51.473 88.4518 51.4618 88.4558 51.4501 88.456Z" fill="#8E7CC3"/>
<path opacity="0.3" d="M50.3321 87.244L49.7841 87.418C49.7212 87.4407 49.6651 87.4787 49.6207 87.5287C49.5763 87.5786 49.5452 87.6389 49.5301 87.704C49.3721 88.304 49.0741 88.19 48.5821 87.832C48.3541 87.872 48.3821 88.18 48.3941 88.264L48.5301 90.114C48.5305 90.187 48.5586 90.2572 48.6087 90.3103C48.6588 90.3634 48.7272 90.3955 48.8001 90.4C48.8245 90.4018 48.8491 90.3984 48.8721 90.39L50.6841 89.814L53.2201 89.014C53.9121 88.796 53.8661 87.956 53.3641 87.97C51.9801 88.05 51.0621 87.896 50.5301 87.594C50.4281 87.532 50.4861 87.452 50.3321 87.244Z" fill="#1F1F1F"/>
<path d="M43.5341 89.142H42.9601C42.8931 89.1451 42.8279 89.1651 42.7706 89.2C42.7132 89.235 42.6656 89.2838 42.6321 89.342C42.3001 89.866 42.0501 89.668 41.6881 89.176C41.4581 89.146 41.3981 89.45 41.3781 89.53L40.9481 91.33C40.928 91.399 40.9343 91.473 40.9657 91.5377C40.9971 91.6024 41.0515 91.6531 41.1181 91.68C41.1406 91.6881 41.1643 91.6922 41.1881 91.692H45.7501C46.4761 91.692 46.6861 90.876 46.2041 90.738C44.8601 90.396 44.0321 89.972 43.6161 89.522C43.5401 89.444 43.6181 89.386 43.5341 89.142Z" fill="#263238"/>
<path d="M44.7842 89.654C44.8152 89.6273 44.84 89.5941 44.857 89.5568C44.8739 89.5195 44.8825 89.479 44.8822 89.438C44.8848 89.4161 44.882 89.3938 44.874 89.3733C44.866 89.3527 44.853 89.3344 44.8362 89.32C44.6542 89.174 43.9342 89.562 43.8542 89.606C43.8492 89.6083 43.8449 89.6116 43.8414 89.6157C43.838 89.6199 43.8355 89.6248 43.8342 89.63C43.8313 89.6388 43.8318 89.6483 43.8355 89.6568C43.8392 89.6653 43.8458 89.6721 43.8542 89.676C44.0302 89.7246 44.2116 89.7514 44.3942 89.756C44.5323 89.7712 44.6712 89.7349 44.7842 89.654ZM44.7842 89.384C44.7916 89.3898 44.7972 89.3976 44.8003 89.4064C44.8035 89.4153 44.8042 89.4248 44.8022 89.434C44.8015 89.4637 44.795 89.4929 44.783 89.52C44.771 89.5472 44.7537 89.5716 44.7322 89.592C44.5682 89.732 44.1742 89.672 43.9602 89.626C44.2662 89.474 44.6902 89.304 44.8002 89.384H44.7842Z" fill="#8E7CC3"/>
<path d="M43.8781 89.684C44.0941 89.58 44.5481 89.172 44.5221 88.954C44.5221 88.91 44.4921 88.856 44.3941 88.84C43.9941 88.788 43.8301 89.604 43.8301 89.64C43.8271 89.6459 43.8256 89.6524 43.8256 89.659C43.8256 89.6656 43.8271 89.6721 43.8301 89.678H43.8541L43.8781 89.684ZM44.3801 88.908C44.4541 88.908 44.4541 88.946 44.4541 88.958C44.4741 89.09 44.1461 89.43 43.9101 89.572C43.9601 89.382 44.1101 88.906 44.3541 88.906L44.3801 88.908Z" fill="#8E7CC3"/>
<path d="M43.4462 90.066H43.4222C43.4164 90.0628 43.4113 90.0586 43.4071 90.0535C43.403 90.0484 43.3999 90.0425 43.398 90.0361C43.3962 90.0298 43.3956 90.0232 43.3963 90.0167C43.397 90.0101 43.399 90.0038 43.4022 89.998C43.4545 89.898 43.5289 89.8111 43.6197 89.7439C43.7104 89.6767 43.8152 89.6309 43.9262 89.61C43.9327 89.6088 43.9395 89.609 43.946 89.6105C43.9525 89.6121 43.9586 89.6148 43.964 89.6188C43.9694 89.6227 43.974 89.6276 43.9774 89.6333C43.9809 89.639 43.9832 89.6454 43.9842 89.652C43.9853 89.6584 43.9851 89.6651 43.9836 89.6715C43.982 89.6778 43.9792 89.6838 43.9753 89.6891C43.9713 89.6943 43.9664 89.6987 43.9607 89.702C43.955 89.7052 43.9487 89.7073 43.9422 89.708C43.8462 89.7266 43.7557 89.7667 43.6774 89.8252C43.5992 89.8837 43.5351 89.9592 43.4902 90.046C43.4852 90.0529 43.4786 90.0584 43.4709 90.0619C43.4631 90.0654 43.4546 90.0668 43.4462 90.066Z" fill="#8E7CC3"/>
<path d="M43.8002 90.3759C43.7924 90.3787 43.7839 90.3787 43.7762 90.3759C43.7702 90.373 43.7648 90.3689 43.7605 90.3638C43.7562 90.3587 43.753 90.3528 43.7512 90.3464C43.7493 90.34 43.7487 90.3332 43.7496 90.3266C43.7505 90.32 43.7527 90.3137 43.7561 90.3079C43.8085 90.2079 43.8829 90.121 43.9736 90.0538C44.0644 89.9867 44.1692 89.9409 44.2801 89.9199C44.2934 89.9178 44.307 89.9211 44.3178 89.9289C44.3287 89.9368 44.336 89.9487 44.3382 89.9619C44.3403 89.9752 44.337 89.9888 44.3292 89.9996C44.3213 90.0105 44.3094 90.0178 44.2961 90.0199C44.2001 90.0375 44.1093 90.0769 44.0309 90.1352C43.9525 90.1935 43.8886 90.269 43.8442 90.3559C43.8392 90.3629 43.8326 90.3684 43.8249 90.3719C43.8171 90.3754 43.8086 90.3768 43.8002 90.3759Z" fill="#8E7CC3"/>
<path d="M44.2482 90.638H44.2242C44.2128 90.6313 44.2045 90.6206 44.2008 90.6079C44.1971 90.5953 44.1983 90.5818 44.2042 90.57C44.2569 90.4698 44.3316 90.3829 44.4227 90.3157C44.5138 90.2485 44.6189 90.2028 44.7302 90.182C44.737 90.1801 44.7441 90.1796 44.7511 90.1806C44.7581 90.1816 44.7648 90.184 44.7707 90.1878C44.7767 90.1916 44.7818 90.1966 44.7857 90.2025C44.7896 90.2084 44.7922 90.215 44.7933 90.222C44.7945 90.229 44.7941 90.2361 44.7923 90.2429C44.7905 90.2498 44.7872 90.2561 44.7828 90.2616C44.7783 90.2671 44.7728 90.2716 44.7664 90.2747C44.7601 90.2779 44.7532 90.2797 44.7462 90.28C44.65 90.2986 44.5592 90.3387 44.4806 90.3972C44.402 90.4557 44.3376 90.5312 44.2922 90.618C44.2871 90.6248 44.2804 90.6302 44.2727 90.6337C44.265 90.6372 44.2566 90.6387 44.2482 90.638Z" fill="#8E7CC3"/>
<path d="M40.2001 62.77L45.2301 62.908L48.7741 59.976L49.7741 61.514C49.7741 61.514 46.5901 65.262 45.0461 65.528C43.5021 65.794 40.0641 65.5739 40.0641 65.5739L40.2001 62.77Z" fill="#B97964"/>
<path d="M48.5181 60.516C48.5181 60.516 48.2981 59.916 48.5181 59.43C48.7381 58.944 48.8061 58.506 49.0021 58.162C49.1981 57.818 49.4541 58.12 49.4541 58.41C49.4541 58.7 49.3021 59.252 49.5201 59.21C49.7381 59.168 51.2221 57.986 51.5201 57.972C51.8181 57.958 51.6501 58.228 51.6501 58.228C51.6501 58.228 51.9841 57.962 52.1681 58.064C52.3521 58.166 52.1921 58.394 52.1921 58.394C52.1921 58.394 52.4221 58.224 52.5241 58.394C52.6261 58.564 51.3821 59.766 51.3641 59.844C51.3641 59.844 52.0101 59.028 52.2601 59.112C52.5101 59.196 52.1721 59.666 51.9121 60.048C51.6206 60.4475 51.2398 60.7735 50.8001 61C50.2761 61.268 49.6181 61.758 49.1761 61.44C48.8812 61.1935 48.6546 60.8753 48.5181 60.516Z" fill="#B97964"/>
<g opacity="0.2">
<path d="M52.2002 58.474C51.8202 58.778 51.4502 59.096 51.0942 59.424C51.1774 59.5197 51.2536 59.6213 51.3222 59.728C51.3542 59.782 51.2622 59.812 51.2282 59.76C51.0123 59.4282 50.7271 59.1471 50.3922 58.936C50.3362 58.9 50.3922 58.834 50.4502 58.87C50.535 58.9229 50.6165 58.981 50.6942 59.044C50.6944 59.0394 50.6956 59.0349 50.6977 59.0308C50.6998 59.0266 50.7026 59.023 50.7062 59.02C50.9678 58.7406 51.2619 58.4935 51.5822 58.284C51.6322 58.252 51.7002 58.324 51.6482 58.358C51.3344 58.5628 51.0463 58.8045 50.7902 59.078C50.7802 59.088 50.7902 59.24 50.7902 59.238C50.8902 59.32 50.9502 59.258 51.0342 59.35C51.3888 59.022 51.7575 58.7053 52.1402 58.4C52.1722 58.364 52.2362 58.438 52.2002 58.474Z" fill="#1F1F1F"/>
</g>
<g opacity="0.2">
<path d="M49.5162 60.836C49.6723 60.6311 49.7556 60.3799 49.7527 60.1222C49.7498 59.8646 49.6609 59.6153 49.5002 59.414C49.4622 59.37 49.5422 59.306 49.5802 59.35C49.9382 59.776 49.9402 60.364 49.5942 60.884C49.5913 60.8897 49.5873 60.8948 49.5824 60.899C49.5775 60.9031 49.5718 60.9061 49.5656 60.9079C49.5595 60.9097 49.553 60.9101 49.5467 60.9093C49.5403 60.9084 49.5342 60.9062 49.5288 60.9029C49.5233 60.8995 49.5186 60.8951 49.515 60.8898C49.5113 60.8845 49.5089 60.8785 49.5077 60.8722C49.5065 60.8659 49.5066 60.8595 49.5081 60.8532C49.5096 60.847 49.5123 60.8411 49.5162 60.836Z" fill="#1F1F1F"/>
</g>
<path opacity="0.2" d="M51.4001 59.93C51.3905 59.9337 51.3798 59.9337 51.3701 59.93C51.3654 59.9255 51.3615 59.9201 51.3589 59.9141C51.3563 59.9081 51.355 59.9016 51.355 59.895C51.355 59.8885 51.3563 59.882 51.3589 59.876C51.3615 59.8699 51.3654 59.8645 51.3701 59.86C51.574 59.6094 51.7988 59.3766 52.0421 59.164C52.0473 59.1598 52.0532 59.1567 52.0595 59.1548C52.0658 59.1528 52.0725 59.1522 52.0791 59.1528C52.0857 59.1535 52.0921 59.1554 52.0979 59.1585C52.1038 59.1617 52.1089 59.1659 52.1131 59.171C52.1173 59.1762 52.1205 59.1821 52.1224 59.1884C52.1243 59.1947 52.125 59.2014 52.1243 59.208C52.1237 59.2146 52.1217 59.221 52.1186 59.2268C52.1155 59.2327 52.1113 59.2378 52.1061 59.242C51.868 59.4497 51.6479 59.6772 51.4481 59.922C51.4415 59.9273 51.4336 59.9309 51.4252 59.9323C51.4168 59.9337 51.4082 59.9329 51.4001 59.93Z" fill="#1F1F1F"/>
<path d="M33.1861 66.432C33.0501 66.97 31.5681 71.674 31.5681 71.674L32.7181 77.674L31.2341 77.778C31.2341 77.778 29.1401 72.578 29.1881 71.59C29.2361 70.602 30.3561 65.96 30.3561 65.96L33.1861 66.432Z" fill="#B97964"/>
<path d="M32.8281 77.652C32.8281 77.652 33.1101 78.052 32.9301 78.404C32.7501 78.756 32.7301 79.076 32.5801 79.338C32.4301 79.6 32.1361 79.418 32.1081 79.218C32.0801 79.018 32.1721 78.618 31.9581 78.666C31.7441 78.714 30.3941 79.708 30.0901 79.752C29.7861 79.796 29.9361 79.592 29.9361 79.592C29.9361 79.592 29.6301 79.812 29.4381 79.764C29.2461 79.716 29.3801 79.538 29.3801 79.538C29.3801 79.538 29.1681 79.682 29.0501 79.572C28.9321 79.462 30.0401 78.492 30.0501 78.436C30.0501 78.436 29.4921 79.074 29.2361 79.046C28.9801 79.018 29.2661 78.646 29.4841 78.358C29.7646 78.0268 30.1132 77.7601 30.5061 77.576C31.0001 77.33 31.6021 76.916 32.0741 77.086C32.3727 77.2017 32.6337 77.3975 32.8281 77.652Z" fill="#B97964"/>
<path d="M42.0501 73.1479C42.0501 73.1479 40.8501 69.2379 40.5221 65.4179C40.4461 64.5039 39.6921 62.3299 38.7841 62.1979C37.9885 62.0692 37.1768 62.078 36.3841 62.2239C32.8361 62.6559 31.9201 63.7119 31.9201 63.7119C31.9201 63.7119 31.8361 70.1999 32.5441 76.1419C36.4361 75.9439 40.4581 74.9819 42.0501 73.1479Z" fill="#263238"/>
<path opacity="0.2" d="M32.2002 70.9479C32.0642 69.7039 31.9782 68.5479 31.9202 67.5339C32.347 67.1664 32.8973 66.9741 33.4602 66.9959C33.4602 66.9959 33.7262 69.7139 32.2002 70.9479Z" fill="#1F1F1F"/>
<path d="M31.9141 63.712C30.4441 64.422 29.2061 68.266 29.2061 68.266L32.6941 69.126L33.5101 66.326L31.9141 63.712Z" fill="#263238"/>
<path d="M38.5801 62.174C38.5801 62.174 40.2921 62.194 41.2061 62.44C42.1201 62.686 44.3141 62.7659 44.3141 62.7659L44.2161 66.22L40.1281 66.3L38.5801 62.174Z" fill="#263238"/>
<path opacity="0.2" d="M40.6142 66.2999L40.1522 64.1539L41.3502 66.2759L40.6142 66.2999Z" fill="#1F1F1F"/>
<path d="M32.5661 52.5999C32.4788 52.4306 32.3311 52.3002 32.1521 52.2346C31.9732 52.1691 31.7762 52.1731 31.6001 52.2459C31.6998 52.2221 31.787 52.1619 31.8446 52.0772C31.9023 51.9925 31.9264 51.8894 31.9121 51.7879C31.8938 51.6866 31.8516 51.5911 31.7889 51.5094C31.7263 51.4277 31.6452 51.362 31.5521 51.3179C31.3631 51.2322 31.1595 51.1833 30.9521 51.1739C30.291 51.101 29.6221 51.1567 28.9821 51.3379C28.4981 51.4819 28.0141 51.7379 27.7601 52.1719C27.5061 52.6059 27.5601 53.2539 27.9961 53.5219C27.5621 53.4719 27.1841 53.8519 27.0281 54.2599C26.8281 54.7639 26.9141 55.4179 27.3601 55.7199C27.8061 56.0219 28.3881 55.8739 28.8761 55.6759C28.5521 56.0759 28.2501 56.5899 28.4321 57.0759C28.4946 57.2196 28.5879 57.3479 28.7054 57.4515C28.8229 57.5552 28.9618 57.6318 29.1121 57.6759C29.461 57.7946 29.8426 57.7708 30.1741 57.6099C30.3372 57.5285 30.4788 57.4099 30.5876 57.2636C30.6963 57.1173 30.7691 56.9475 30.8001 56.7679L32.1901 53.5679C32.2791 53.5299 32.3596 53.4746 32.4269 53.405C32.4942 53.3355 32.5469 53.2532 32.5819 53.1631C32.6169 53.0729 32.6336 52.9766 32.6309 52.8799C32.6282 52.7832 32.6062 52.688 32.5661 52.5999Z" fill="#263238"/>
<path d="M33.7021 51.576C33.5964 51.5324 33.4802 51.5212 33.3681 51.544C33.1302 51.588 32.9024 51.6754 32.6961 51.802C32.3847 51.9682 32.1179 52.2069 31.9181 52.498C31.8555 52.5962 31.8064 52.7025 31.7721 52.814C31.7646 52.7893 31.7552 52.7652 31.7441 52.742C31.6643 52.6032 31.5576 52.4818 31.4301 52.385C31.3027 52.2881 31.1572 52.2177 31.0021 52.178C30.6536 52.0696 30.2832 52.0523 29.9261 52.128C29.8661 52.1336 29.8081 52.1527 29.7565 52.1838C29.7049 52.215 29.661 52.2574 29.6281 52.308C29.6096 52.3565 29.6043 52.4091 29.6127 52.4604C29.6212 52.5117 29.643 52.5599 29.6761 52.6C29.7428 52.6804 29.8234 52.7482 29.9141 52.8C30.3141 53.052 30.7021 53.304 31.1141 53.516C30.8326 53.6236 30.5762 53.788 30.3608 53.9989C30.1454 54.2098 29.9757 54.4627 29.8621 54.742C29.7411 55.0396 29.7058 55.3652 29.7601 55.682C29.8169 56.0006 29.9973 56.2838 30.2621 56.47C30.3816 56.5551 30.5255 56.5993 30.6721 56.596C30.773 56.5806 30.8694 56.5442 30.9552 56.489C31.041 56.4339 31.1143 56.3613 31.1701 56.276C31.5581 55.75 31.5221 55.006 31.8861 54.466C32.0241 54.266 32.2201 54.084 32.2741 53.844L32.1281 53.87C32.2741 53.82 32.2821 53.594 32.1701 53.488L32.1441 53.468C32.3441 53.394 32.5561 53.318 32.7561 53.228C33.1218 53.0789 33.4482 52.8475 33.7101 52.552C33.8368 52.4119 33.9183 52.237 33.9441 52.05C33.9553 51.9559 33.9383 51.8606 33.8952 51.7762C33.8521 51.6918 33.7849 51.6221 33.7021 51.576Z" fill="#8E7CC3"/>
<path d="M36.1161 60.342C36.0168 60.5154 35.8735 60.6595 35.7008 60.7599C35.528 60.8603 35.3319 60.9134 35.1321 60.914C34.7315 60.9081 34.3435 60.7727 34.0261 60.528C33.8336 60.6434 33.6199 60.7191 33.3977 60.7507C33.1755 60.7823 32.9492 60.7691 32.7321 60.712C32.5158 60.6508 32.3219 60.5284 32.1735 60.3595C32.0252 60.1906 31.9289 59.9824 31.8961 59.76C31.9011 59.6709 31.8772 59.5826 31.8281 59.508C31.7951 59.4764 31.7565 59.4513 31.7141 59.434C31.4263 59.3163 31.151 59.1703 30.8921 58.998C30.6329 58.8219 30.4456 58.5586 30.3641 58.256C30.2721 57.83 30.4821 57.402 30.6981 57.024C30.7394 56.9652 30.763 56.8958 30.7661 56.824C30.751 56.7493 30.7157 56.6801 30.6641 56.624C30.5202 56.4202 30.4249 56.1861 30.3858 55.9397C30.3468 55.6933 30.3648 55.4412 30.4387 55.2028C30.5125 54.9645 30.6401 54.7463 30.8117 54.5652C30.9833 54.384 31.1942 54.2447 31.4281 54.158C31.5009 54.1408 31.5692 54.1081 31.6281 54.062C31.6703 54.0147 31.7029 53.9597 31.7241 53.9C31.9251 53.4578 32.2196 53.0645 32.5874 52.7472C32.9551 52.4299 33.3873 52.1961 33.8541 52.062C34.1301 51.984 34.4541 51.952 34.6801 52.124C34.9612 51.6992 35.3336 51.3426 35.7701 51.08C36.3441 50.71 37.0441 50.432 37.7001 50.614C38.1272 50.7519 38.4992 51.0223 38.7621 51.386C39.0214 51.6953 39.1915 52.0693 39.2541 52.468C39.2839 52.6672 39.2671 52.8706 39.2049 53.0621C39.1428 53.2537 39.0371 53.4282 38.8961 53.572C39.0015 53.5756 39.1028 53.6132 39.185 53.6792C39.2672 53.7451 39.3258 53.836 39.3521 53.938C39.3992 54.1446 39.3867 54.3603 39.3161 54.56C39.2221 54.896 39.0501 55.248 38.7261 55.378" fill="#263238"/>
<path d="M34.4102 60.0099C34.7442 60.6099 34.6522 60.5639 34.7322 61.2539C34.8182 62.0019 34.9322 63.0099 34.9322 63.0099C35.0482 63.1639 35.9442 63.5779 36.6862 63.7019C37.9262 63.9019 38.2982 63.5379 38.0022 62.5739C37.8894 62.2735 37.8709 61.9458 37.9491 61.6345C38.0274 61.3233 38.1987 61.0433 38.4402 60.8319C39.5622 59.7539 34.4102 60.0099 34.4102 60.0099Z" fill="#B97964"/>
<path opacity="0.2" d="M34.4102 60.01C34.6814 60.4367 34.8934 60.8982 35.0402 61.382C35.8102 62.336 36.9242 62.448 37.9582 62.408C37.8702 61.996 37.8742 61.236 38.4342 60.822C39.5622 59.754 34.4102 60.01 34.4102 60.01Z" fill="#1F1F1F"/>
<path d="M32.1881 58.158C33.4041 60.07 34.0021 61.258 35.6801 61.66C38.2061 62.272 40.4801 59.87 39.9281 57.598C39.4501 55.55 37.5421 52.772 34.9281 53.166C32.3141 53.56 30.9781 56.252 32.1881 58.158Z" fill="#B97964"/>
<path d="M35.9641 55.8399C35.9712 55.8131 35.9712 55.7848 35.9641 55.7579C35.9489 55.7259 35.9219 55.7009 35.8887 55.6883C35.8556 55.6756 35.8188 55.6762 35.7861 55.6899C35.5893 55.7676 35.4146 55.8925 35.2775 56.0536C35.1404 56.2148 35.0452 56.4072 35.0001 56.6139C34.9967 56.6309 34.9967 56.6484 35.0002 56.6654C35.0037 56.6824 35.0107 56.6984 35.0206 56.7126C35.0305 56.7268 35.0432 56.7389 35.0579 56.7481C35.0726 56.7572 35.089 56.7633 35.1061 56.7659C35.1407 56.7707 35.1758 56.7623 35.2044 56.7422C35.2329 56.7222 35.2529 56.6921 35.2601 56.6579C35.3004 56.4943 35.38 56.3428 35.4918 56.2167C35.6036 56.0906 35.7444 55.9936 35.9021 55.9339C35.9182 55.9232 35.9319 55.9093 35.9425 55.8932C35.9532 55.877 35.9605 55.8589 35.9641 55.8399Z" fill="#263238"/>
<path d="M38.4722 54.588C38.494 54.5718 38.5107 54.5495 38.5202 54.524C38.524 54.5068 38.5244 54.489 38.5213 54.4716C38.5183 54.4542 38.5118 54.4377 38.5024 54.4228C38.4929 54.4079 38.4806 54.3951 38.4661 54.385C38.4517 54.3749 38.4354 54.3678 38.4182 54.364C38.2133 54.3129 37.9991 54.3118 37.7937 54.3609C37.5883 54.41 37.3978 54.5077 37.2382 54.646C37.2136 54.6707 37.1998 54.7041 37.1998 54.739C37.1998 54.7738 37.2136 54.8072 37.2382 54.832C37.2635 54.8562 37.2971 54.8697 37.3322 54.8697C37.3672 54.8697 37.4008 54.8562 37.4262 54.832C37.556 54.7248 37.7099 54.6507 37.8746 54.6158C38.0393 54.581 38.21 54.5866 38.3722 54.632C38.3909 54.6317 38.4094 54.6277 38.4266 54.6201C38.4438 54.6126 38.4593 54.6016 38.4722 54.588Z" fill="#263238"/>
<path d="M37.8901 57.022L38.7001 57.222C38.7001 57.222 38.6541 57.538 38.1101 57.86L37.8901 57.022Z" fill="#A24E3F"/>
<path d="M38.6001 58.4559C38.6565 58.7701 38.6449 59.0926 38.5661 59.4019L38.4001 59.4339C37.6601 59.5759 37.2661 59.3939 37.0561 59.1499C36.9018 58.9566 36.8204 58.7152 36.8261 58.4679C37.2661 58.6299 37.9641 58.5519 38.3461 58.4939C38.4314 58.4858 38.5162 58.4731 38.6001 58.4559Z" fill="#263238"/>
<path d="M38.3442 58.5L38.3262 58.782C37.6242 58.912 37.1122 58.91 36.8502 58.74C36.8303 58.6528 36.8222 58.5633 36.8262 58.474C37.2642 58.636 37.9602 58.558 38.3442 58.5Z" fill="white"/>
<path d="M38.4001 59.4399C37.6581 59.5799 37.2661 59.3999 37.0541 59.1559C37.3385 59.1049 37.6297 59.1049 37.9141 59.1559C38.1016 59.1981 38.2714 59.2973 38.4001 59.4399Z" fill="#C15854"/>
<path d="M35.8781 57.4239C35.9561 57.6359 36.1361 57.7659 36.2781 57.7119C36.4201 57.6579 36.4581 57.4439 36.3841 57.2319C36.3101 57.0199 36.1241 56.892 35.9841 56.946C35.8441 57 35.8001 57.2119 35.8781 57.4239Z" fill="#263238"/>
<path d="M38.0701 56.3259C38.1501 56.5359 38.3301 56.6679 38.4701 56.6119C38.6101 56.5559 38.6501 56.3439 38.5741 56.1319C38.4981 55.9199 38.3181 55.7939 38.1741 55.8439C38.0301 55.8939 38.0001 56.1139 38.0701 56.3259Z" fill="#263238"/>
<path d="M38.3682 53.496C37.6035 53.1596 36.7767 52.9874 35.9413 52.9905C35.1058 52.9936 34.2803 53.172 33.5182 53.514C32.7182 53.876 31.9702 54.474 31.7182 55.314C31.5182 56.008 31.1042 57.094 31.4402 57.736C31.7762 58.378 32.3322 59.36 32.8222 59.896L33.7542 60.458C33.827 60.3813 33.8826 60.2898 33.9171 60.1897C33.9516 60.0897 33.9642 59.9834 33.9542 59.878C33.9361 59.6663 33.9558 59.453 34.0122 59.248C34.0882 59.048 33.6522 58.714 33.8482 58.794C33.9982 58.854 33.9742 59.038 34.1102 59.124C34.2982 59.246 34.5362 59.34 34.6382 59.142C34.7402 58.944 34.8382 58.91 34.9222 58.638C34.9562 58.518 35.0522 58.408 34.9902 58.298C34.9505 58.1963 34.9348 58.0868 34.9442 57.978C34.9161 57.7174 34.7868 57.4783 34.5842 57.312C34.3817 57.1496 34.1558 57.0188 33.9142 56.924C34.0554 56.8517 34.1777 56.7472 34.2712 56.6189C34.3647 56.4907 34.4268 56.3423 34.4525 56.1857C34.4781 56.029 34.4667 55.8686 34.4191 55.7172C34.3714 55.5658 34.2889 55.4277 34.1782 55.314C34.5031 55.3532 34.8306 55.2649 35.0917 55.0676C35.3528 54.8702 35.5272 54.5793 35.5782 54.256C35.8566 54.3578 36.1587 54.3762 36.4474 54.3091C36.7362 54.242 36.9991 54.0922 37.2042 53.878C37.54 54.0563 37.925 54.1195 38.3002 54.058C38.4582 54.034 38.6422 53.946 38.6442 53.788C38.6462 53.63 38.4982 53.554 38.3682 53.496Z" fill="#263238"/>
<path d="M34.1542 58.664C34.1542 58.664 33.2801 57.816 32.7221 58.332C31.6481 59.332 33.2141 60.834 34.1021 60.458C34.9901 60.082 34.8202 59.116 34.1542 58.664Z" fill="#B97964"/>
<path opacity="0.2" d="M33.7301 60.1H33.7181C33.2921 60.002 32.8641 59.61 32.9181 59.152C32.9159 59.0483 32.953 58.9475 33.0221 58.87C33.0659 58.8263 33.1186 58.7924 33.1765 58.7707C33.2345 58.7489 33.2964 58.7399 33.3581 58.744C33.3716 58.744 33.3845 58.7492 33.3942 58.7585C33.4039 58.7679 33.4096 58.7806 33.4101 58.794C33.4101 58.8073 33.4049 58.82 33.3955 58.8294C33.3861 58.8388 33.3734 58.844 33.3601 58.844C33.3125 58.8406 33.2646 58.8469 33.2196 58.8628C33.1745 58.8786 33.1332 58.9035 33.0981 58.936C33.0457 58.9963 33.0178 59.0741 33.0201 59.154C32.9721 59.554 33.3561 59.912 33.7441 60.004C33.7556 60.0073 33.7654 60.0146 33.772 60.0245C33.7785 60.0344 33.7813 60.0463 33.7799 60.0581C33.7784 60.0699 33.7728 60.0808 33.7641 60.0889C33.7553 60.0969 33.744 60.1016 33.7321 60.102L33.7301 60.1Z" fill="#1F1F1F"/>
<path opacity="0.2" d="M18.7341 72.908C18.7341 72.908 23.8801 72.158 25.0381 71.708L25.6601 71.548C26.4366 71.6981 27.2285 71.7518 28.0181 71.708C29.2981 71.586 30.2181 71.248 30.9981 70.64C31.6881 70.098 32.0801 69.24 32.0361 69.252C31.9921 69.264 24.6361 70.13 24.6361 70.13L19.0821 71.704L18.7341 72.908Z" fill="#1F1F1F"/>
<path d="M23.1921 68.2659L23.3461 71.2599L25.9421 70.5079L26.0921 67.9659L23.1921 68.2659Z" fill="#B97964"/>
<path d="M23.3641 67.966L17.8901 68.312C17.8901 68.312 18.2121 66.556 18.5481 64.832C19.3701 62.362 20.5481 58.62 20.3721 57.992C19.9021 56.568 18.7381 55.518 17.1301 56.218C15.8641 56.768 14.6221 63.344 14.6221 63.344C14.3101 64.774 13.8981 66.944 13.7841 67.898C13.4021 71.074 14.0821 72.73 17.9381 72.448C21.6741 72.178 23.5381 71.462 23.5381 71.462L23.3641 67.966Z" fill="#8E7CC3"/>
<path opacity="0.5" d="M23.3641 67.966L17.8901 68.312C17.8901 68.312 18.2121 66.556 18.5481 64.832C19.3701 62.362 20.5481 58.62 20.3721 57.992C19.9021 56.568 18.7381 55.518 17.1301 56.218C15.8641 56.768 14.6221 63.344 14.6221 63.344C14.3101 64.774 13.8981 66.944 13.7841 67.898C13.4021 71.074 14.0821 72.73 17.9381 72.448C21.6741 72.178 23.5381 71.462 23.5381 71.462L23.3641 67.966Z" fill="white"/>
<path d="M25.4281 68.6759C25.4281 68.6759 25.6281 67.7379 26.3001 67.3139C26.9721 66.8899 27.3941 66.3739 27.9161 66.0939C28.4381 65.8139 28.5161 66.3979 28.2881 66.7639C28.0601 67.1299 27.4301 67.7079 27.7341 67.8379C28.0381 67.9679 30.8521 67.6379 31.2521 67.8639C31.6521 68.0899 31.2141 68.2859 31.2141 68.2859C31.2141 68.2859 31.8441 68.2159 31.9981 68.4859C32.1521 68.7559 31.7661 68.9199 31.7661 68.9199C31.7661 68.9199 32.1921 68.8879 32.1801 69.1919C32.1681 69.4959 29.6561 70.0239 29.5701 70.1059C29.5701 70.1059 31.0301 69.5879 31.2801 69.8879C31.5301 70.1879 30.7321 70.5219 30.1001 70.7979C29.4107 71.0681 28.667 71.1709 27.9301 71.0979C27.0561 71.0219 25.8381 71.1239 25.5301 70.3719C25.2221 69.6199 25.4281 68.6759 25.4281 68.6759Z" fill="#B97964"/>
</svg>
