<svg width="100" height="100" viewBox="0 0 100 100" fill="none" xmlns="http://www.w3.org/2000/svg">
<rect width="100" height="100" fill="#1E1E1E"/>
<g clip-path="url(#clip0_21_95)">
<rect width="1440" height="3456.28" transform="translate(-1012 -1109)" fill="white"/>
<g clip-path="url(#clip1_21_95)">
<rect x="-1012" y="-24" width="1440" height="257" rx="4" fill="#EDE7F6"/>
<path d="M25.0222 28.668C21.1042 32.958 17.5882 38.71 17.5182 45.344C17.4362 52.842 21.7962 59.27 26.6702 63.344C34.1242 69.574 43.1822 72.076 52.0702 72.03C59.2822 71.994 66.7282 70.23 72.6382 64.888C78.5482 59.546 82.5822 50.102 81.3362 40.928C80.4862 34.67 77.3362 29.242 73.5202 25.246C67.7782 19.246 61.1742 14.92 53.7522 15C47.0422 15.072 40.3522 17.116 34.3122 20.89C30.8767 23.0487 27.7513 25.6654 25.0222 28.668Z" fill="#FF8A65"/>
<path opacity="0.4" d="M25.0222 28.668C21.1042 32.958 17.5882 38.71 17.5182 45.344C17.4362 52.842 21.7962 59.27 26.6702 63.344C34.1242 69.574 43.1822 72.076 52.0702 72.03C59.2822 71.994 66.7282 70.23 72.6382 64.888C78.5482 59.546 82.5822 50.102 81.3362 40.928C80.4862 34.67 77.3362 29.242 73.5202 25.246C67.7782 19.246 61.1742 14.92 53.7522 15C47.0422 15.072 40.3522 17.116 34.3122 20.89C30.8767 23.0487 27.7513 25.6654 25.0222 28.668Z" fill="#FFCCBC"/>
<path d="M50.0002 85.402C71.4167 85.402 88.7782 84.3884 88.7782 83.138C88.7782 81.8877 71.4167 80.874 50.0002 80.874C28.5837 80.874 11.2222 81.8877 11.2222 83.138C11.2222 84.3884 28.5837 85.402 50.0002 85.402Z" fill="#F5F5F5"/>
<path d="M60.888 80.6V82.51C60.888 83.554 55.466 84.4 48.778 84.4C42.09 84.4 36.666 83.554 36.666 82.51V80.6C36.666 81.642 42.088 82.488 48.778 82.488C55.468 82.488 60.888 81.65 60.888 80.6Z" fill="#263238"/>
<path d="M60.888 80.6C60.888 81.642 55.466 82.488 48.778 82.488C42.09 82.488 36.666 81.642 36.666 80.6C36.666 79.558 42.088 78.71 48.778 78.71C55.468 78.71 60.888 79.564 60.888 80.6Z" fill="#263238"/>
<path opacity="0.2" d="M60.888 80.6C60.888 81.642 55.466 82.488 48.778 82.488C42.09 82.488 36.666 81.642 36.666 80.6C36.666 79.558 42.088 78.71 48.778 78.71C55.468 78.71 60.888 79.564 60.888 80.6Z" fill="white"/>
<path d="M72.8942 65.6959V83.4159H71.9842L70.8402 65.6959H72.8942Z" fill="#8E7CC3"/>
<path opacity="0.4" d="M72.8942 65.6959V83.4159H71.9842L70.8402 65.6959H72.8942Z" fill="white"/>
<path d="M28.2002 66.1639V83.4219H29.1102L30.2542 66.1639H28.2002Z" fill="#8E7CC3"/>
<g opacity="0.6">
<path opacity="0.4" d="M28.2002 66.1639V83.4219H29.1102L30.2542 66.1639H28.2002Z" fill="white"/>
</g>
<path d="M84.5382 63.402H16.7622V64.934H84.5382V63.402Z" fill="#8E7CC3"/>
<path opacity="0.6" d="M84.5382 63.402H16.7622V64.934H84.5382V63.402Z" fill="white"/>
<path d="M21.2202 66.574H79.7382L82.1122 64.934H18.8462L21.2202 66.574Z" fill="#8E7CC3"/>
<path opacity="0.4" d="M21.2202 66.574H79.7382L82.1122 64.934H18.8462L21.2202 66.574Z" fill="white"/>
<path d="M77.5922 64.736V83.412H76.6842L75.5382 64.736H77.5922Z" fill="#8E7CC3"/>
<path opacity="0.6" d="M77.5922 64.736V83.412H76.6842L75.5382 64.736H77.5922Z" fill="white"/>
<path d="M23.0442 64.502V83.4159H23.9542L25.0982 64.502H23.0442Z" fill="#8E7CC3"/>
<path opacity="0.6" d="M23.0442 64.502V83.4159H23.9542L25.0982 64.502H23.0442Z" fill="white"/>
<path d="M23.6942 60.428L23.8022 60.628C23.8637 60.7351 23.8961 60.8565 23.8962 60.98V62.094C23.8962 62.774 24.6402 63.33 25.5542 63.33H25.8002C26.4682 63.33 27.0382 63.036 27.3022 62.612C27.3745 62.5954 27.4425 62.564 27.5022 62.52L28.1482 62.038C28.1925 62.0084 28.229 61.9686 28.2547 61.922C28.2805 61.8754 28.2947 61.8233 28.2962 61.77V61.17C28.2962 60.97 28.0682 60.792 27.7882 60.792H27.4482C27.4302 60.752 27.4682 60.688 27.5182 60.624L27.5302 60.612C27.5838 60.5504 27.6427 60.4935 27.7062 60.442L27.7202 60.43C27.7202 60.43 27.6902 60.29 27.3502 60.362C27.2522 60.382 27.1502 60.406 27.0742 60.43L27.0362 60.442H27.0102C26.7254 60.3421 26.4157 60.3379 26.1282 60.43C25.8624 60.348 25.578 60.348 25.3122 60.43C25.2922 60.43 25.3322 60.43 25.3122 60.43C25.0312 60.3467 24.7311 60.3537 24.4542 60.45H24.3362C24.2502 60.426 24.1562 60.402 24.0562 60.382C23.7222 60.288 23.6942 60.428 23.6942 60.428ZM27.4362 62.346C27.4362 62.332 27.4502 61.452 27.4522 61.078C27.4522 60.986 27.5522 60.912 27.6782 60.912H27.8182C27.9942 60.912 28.1382 61.022 28.1382 61.152V61.7C28.1382 61.88 28.1382 61.872 27.9562 62.002L27.4362 62.346Z" fill="#8E7CC3"/>
<path d="M24.1762 56.848C24.2602 57.28 24.6062 57.61 24.9562 57.878C25.3062 58.146 25.6882 58.398 25.9062 58.782C26.1242 59.166 26.1062 59.73 25.7282 59.964C25.9248 59.8563 26.0907 59.7002 26.2101 59.5105C26.3296 59.3208 26.3987 59.1038 26.4109 58.88C26.4231 58.6561 26.3781 58.4328 26.2799 58.2313C26.1818 58.0297 26.0339 57.8565 25.8502 57.728C25.5342 57.506 25.1202 57.424 24.8502 57.128C24.7404 56.9938 24.6623 56.8364 24.6218 56.6678C24.5813 56.4991 24.5793 56.3235 24.6162 56.154C24.6907 55.8724 24.7883 55.5975 24.9082 55.332C24.4522 55.46 24.0842 56.364 24.1762 56.848Z" fill="#8E7CC3"/>
<path d="M25.2822 55.688C25.4834 55.3617 25.6224 55.001 25.6922 54.624C25.7362 54.246 25.2922 53.624 25.2922 53.624C25.482 53.7461 25.6438 53.9069 25.767 54.0958C25.8903 54.2848 25.9721 54.4978 26.0073 54.7206C26.0424 54.9435 26.03 55.1713 25.9709 55.389C25.9117 55.6068 25.8072 55.8095 25.6642 55.984C25.4705 56.2128 25.2441 56.4116 24.9922 56.574C24.9242 56.266 25.1362 55.96 25.2822 55.688Z" fill="#8E7CC3"/>
<path opacity="0.6" d="M24.1762 56.848C24.2602 57.28 24.6062 57.61 24.9562 57.878C25.3062 58.146 25.6882 58.398 25.9062 58.782C26.1242 59.166 26.1062 59.73 25.7282 59.964C25.9248 59.8563 26.0907 59.7002 26.2101 59.5105C26.3296 59.3208 26.3987 59.1038 26.4109 58.88C26.4231 58.6561 26.3781 58.4328 26.2799 58.2313C26.1818 58.0297 26.0339 57.8565 25.8502 57.728C25.5342 57.506 25.1202 57.424 24.8502 57.128C24.7404 56.9938 24.6623 56.8364 24.6218 56.6678C24.5813 56.4991 24.5793 56.3235 24.6162 56.154C24.6907 55.8724 24.7883 55.5975 24.9082 55.332C24.4522 55.46 24.0842 56.364 24.1762 56.848Z" fill="white"/>
<path opacity="0.6" d="M25.2822 55.688C25.4834 55.3617 25.6224 55.001 25.6922 54.624C25.7362 54.246 25.2922 53.624 25.2922 53.624C25.482 53.7461 25.6438 53.9069 25.767 54.0958C25.8903 54.2848 25.9721 54.4978 26.0073 54.7206C26.0424 54.9435 26.03 55.1713 25.9709 55.389C25.9117 55.6068 25.8072 55.8095 25.6642 55.984C25.4705 56.2128 25.2441 56.4116 24.9922 56.574C24.9242 56.266 25.1362 55.96 25.2822 55.688Z" fill="white"/>
<path d="M25.0002 53.73C24.8711 53.5201 24.7816 53.2882 24.7362 53.046C24.7162 52.8 25.0002 52.4 25.0002 52.4C24.8786 52.4787 24.7751 52.5822 24.6962 52.7036C24.6173 52.8251 24.565 52.9618 24.5425 53.1049C24.52 53.2479 24.528 53.3941 24.5658 53.5339C24.6037 53.6736 24.6706 53.8039 24.7622 53.916C24.8859 54.0633 25.0308 54.1914 25.1922 54.296C25.2382 54.1 25.1002 53.904 25.0002 53.73Z" fill="#8E7CC3"/>
<path opacity="0.6" d="M25.0002 53.73C24.8711 53.5201 24.7816 53.2882 24.7362 53.046C24.7162 52.8 25.0002 52.4 25.0002 52.4C24.8786 52.4787 24.7751 52.5822 24.6962 52.7036C24.6173 52.8251 24.565 52.9618 24.5425 53.1049C24.52 53.2479 24.528 53.3941 24.5658 53.5339C24.6037 53.6736 24.6706 53.8039 24.7622 53.916C24.8859 54.0633 25.0308 54.1914 25.1922 54.296C25.2382 54.1 25.1002 53.904 25.0002 53.73Z" fill="white"/>
<path d="M76.8842 62.86H65.2942C65.2942 62.86 65.5622 61.46 65.7162 61.42C65.8702 61.38 67.8382 59.832 70.0202 60.706C70.4982 60.894 70.8422 61.038 71.0902 61.142C71.3362 61.038 71.6902 60.894 72.1582 60.706C74.3422 59.832 76.3122 61.388 76.4642 61.42C76.6162 61.452 76.8842 62.86 76.8842 62.86Z" fill="#8E7CC3"/>
<path opacity="0.6" d="M76.8842 62.86H65.2942V62.826C65.3382 62.608 65.5702 61.45 65.7102 61.426C65.7193 61.4241 65.7281 61.4207 65.7362 61.416C66.0122 61.28 67.9142 59.87 70.0142 60.71C70.4922 60.91 70.8362 61.042 71.0822 61.148C71.3302 61.042 71.6822 60.9 72.1522 60.71C74.3362 59.838 76.3062 61.394 76.4582 61.426C76.6102 61.458 76.8842 62.86 76.8842 62.86Z" fill="white"/>
<path d="M78.2003 62.86H66.4783C66.4783 62.86 66.7483 61.4361 66.9043 61.4021C67.0603 61.3681 69.0523 60.0121 71.2603 60.8941C71.7443 61.0941 72.3423 61.8321 72.3423 61.8321C72.3423 61.8321 72.9423 61.0861 73.4243 60.8941C75.6343 60.0121 77.6243 61.3701 77.7843 61.4021C77.9443 61.4341 78.2003 62.86 78.2003 62.86Z" fill="#8E7CC3"/>
<path opacity="0.8" d="M78.2003 62.86H66.4783C66.4783 62.86 66.7483 61.4361 66.9043 61.4021C67.0603 61.3681 69.0523 60.0121 71.2603 60.8941C71.7443 61.0941 72.3423 61.8321 72.3423 61.8321C72.3423 61.8321 72.9423 61.0861 73.4243 60.8941C75.6343 60.0121 77.6243 61.3701 77.7843 61.4021C77.9443 61.4341 78.2003 62.86 78.2003 62.86Z" fill="white"/>
<path d="M72.3962 62.224L72.0222 62.9H72.9042L72.3962 62.224Z" fill="#8E7CC3"/>
<g opacity="0.3">
<path d="M72.3962 62.224L72.0222 62.9H72.9042L72.3962 62.224Z" fill="#1F1F1F"/>
</g>
<path opacity="0.1" d="M66.8882 61.41C66.8091 61.5705 66.7468 61.7387 66.7022 61.912C66.5922 62.34 66.4782 62.86 66.4782 62.86H65.2942V62.826C65.3382 62.608 65.5702 61.45 65.7102 61.426C65.7193 61.4241 65.7281 61.4208 65.7362 61.416L66.8882 61.41Z" fill="#1F1F1F"/>
<path d="M78.6562 63.294L72.9042 63.428L72.8922 63.416C72.7741 63.3115 72.6219 63.2539 72.4643 63.2539C72.3066 63.2539 72.1543 63.3115 72.0362 63.416L72.0242 63.428L66.1003 63.35L64.6042 63.332L64.7162 62.82H72.0242C72.1436 62.7084 72.3009 62.6462 72.4643 62.6462C72.6276 62.6462 72.7849 62.7084 72.9042 62.82H78.5042L78.6562 63.294Z" fill="#8E7CC3"/>
<g opacity="0.3">
<path d="M66.2162 62.8201L66.1003 63.3501L64.6042 63.3321L64.7182 62.8201H66.2162Z" fill="#1F1F1F"/>
</g>
<path d="M72.9042 61.908C72.9042 61.908 73.8062 60.872 74.9042 61.064C74.9002 61.064 74.1342 60.968 72.9042 61.908Z" fill="#8E7CC3"/>
<path opacity="0.4" d="M72.9042 61.908C72.9042 61.908 73.8062 60.872 74.9042 61.064C74.9002 61.064 74.1342 60.968 72.9042 61.908Z" fill="white"/>
<path d="M70.7562 62.384C70.7562 62.384 69.5562 61.728 68.5902 62.29C68.6002 62.29 69.2742 61.932 70.7562 62.384Z" fill="#8E7CC3"/>
<path opacity="0.4" d="M70.7562 62.384C70.7562 62.384 69.5562 61.728 68.5902 62.29C68.6002 62.29 69.2742 61.932 70.7562 62.384Z" fill="white"/>
<path d="M71.8982 62.03C71.8982 62.03 70.9322 61.052 69.8522 61.312C69.8522 61.312 70.6122 61.168 71.8982 62.03Z" fill="#8E7CC3"/>
<path opacity="0.4" d="M71.8982 62.03C71.8982 62.03 70.9322 61.052 69.8522 61.312C69.8522 61.312 70.6122 61.168 71.8982 62.03Z" fill="white"/>
<path d="M74.3422 61.8921C74.3422 61.8921 75.5422 61.2301 76.5082 61.7861C76.5082 61.7861 75.8202 61.4321 74.3422 61.8921Z" fill="#8E7CC3"/>
<path opacity="0.4" d="M74.3422 61.8921C74.3422 61.8921 75.5422 61.2301 76.5082 61.7861C76.5082 61.7861 75.8202 61.4321 74.3422 61.8921Z" fill="white"/>
<path d="M84.7259 81.1221H84.7359C84.7547 81.1201 84.7719 81.1108 84.7839 81.0962C84.7958 81.0816 84.8016 81.0629 84.7999 81.0441C84.7999 81.0321 84.7999 80.8921 84.7999 80.6441C84.7999 80.2861 84.7999 79.5361 84.8599 78.5321C84.8588 78.5181 84.8588 78.5041 84.8599 78.4901C84.9239 77.3681 85.0339 76.2681 85.1859 75.2161C85.3279 74.2361 85.5119 73.2861 85.7279 72.3921C85.9154 71.6236 86.1424 70.8652 86.4079 70.1201C86.4479 70.0101 86.4879 69.9001 86.5299 69.7901C86.5719 69.6801 86.5999 69.6121 86.6359 69.5221C86.7279 69.2921 86.8139 69.0701 86.8879 68.8641C87.0519 68.4101 87.1999 67.9561 87.3279 67.5161C87.4039 67.2521 87.4739 66.9901 87.5279 66.7421C87.763 65.7963 87.9169 64.8321 87.9879 63.8601C88.0139 63.4781 88.0259 63.0961 88.0219 62.7241C88.0189 62.3344 87.9949 61.9452 87.9499 61.5581C87.9499 61.5301 87.9499 61.5061 87.9499 61.4801V61.4441C87.9505 61.4302 87.947 61.4164 87.9397 61.4045C87.9324 61.3926 87.9218 61.3831 87.9091 61.3773C87.8964 61.3715 87.8823 61.3696 87.8686 61.3719C87.8548 61.3742 87.842 61.3805 87.8319 61.3901C87.8231 61.3988 87.8165 61.4096 87.8127 61.4214C87.8088 61.4332 87.8079 61.4458 87.8099 61.4581V61.4961C87.8099 61.5221 87.8099 61.5481 87.8199 61.5761C87.8633 61.9579 87.8867 62.3418 87.8899 62.7261C87.8899 63.0941 87.8899 63.4721 87.8559 63.8501C87.7854 64.8146 87.6328 65.7714 87.3999 66.7101C87.3399 66.9581 87.2719 67.2161 87.1999 67.4781C87.0739 67.9161 86.9259 68.3661 86.7619 68.8161C86.6879 69.0161 86.6039 69.2421 86.5119 69.4721C86.4759 69.5621 86.4399 69.6521 86.4059 69.7421C86.3719 69.8321 86.3219 69.9621 86.2819 70.0721C86.0142 70.8223 85.7858 71.586 85.5979 72.3601C85.3799 73.2581 85.1979 74.2141 85.0539 75.1981C84.8999 76.2541 84.7899 77.3581 84.7259 78.4801C84.7249 78.4967 84.7249 78.5134 84.7259 78.5301C84.6679 79.5301 84.6639 80.2881 84.6659 80.6481C84.6659 80.8921 84.6659 81.0481 84.6659 81.0481C84.6656 81.0655 84.6714 81.0825 84.6824 81.096C84.6934 81.1096 84.7088 81.1188 84.7259 81.1221Z" fill="#8E7CC3"/>
<path d="M87.874 61.468C87.7602 61.3482 87.6334 61.2416 87.496 61.15C87.345 61.0522 87.1824 60.9736 87.012 60.916" fill="#8E7CC3"/>
<path d="M87.8719 61.538C87.8811 61.5408 87.8908 61.5408 87.8999 61.538C87.9171 61.5313 87.9309 61.5181 87.9384 61.5013C87.9459 61.4844 87.9465 61.4653 87.9399 61.448C87.9368 61.4392 87.9321 61.4311 87.9259 61.424C87.8048 61.3006 87.6707 61.1906 87.5259 61.096C87.3692 60.995 87.2006 60.9137 87.0239 60.854C87.0064 60.8496 86.9877 60.8519 86.9718 60.8606C86.9559 60.8692 86.9438 60.8836 86.938 60.9007C86.9322 60.9179 86.9331 60.9367 86.9405 60.9532C86.9479 60.9698 86.9613 60.9829 86.9779 60.99C87.1437 61.0448 87.3017 61.1208 87.4479 61.216C87.5806 61.3038 87.7027 61.4064 87.8119 61.522C87.82 61.5291 87.8297 61.5343 87.8401 61.537C87.8505 61.5398 87.8614 61.5402 87.8719 61.538Z" fill="#8E7CC3"/>
<path d="M87.9539 62.8001C87.9704 62.8013 87.9868 62.7963 87.9999 62.7861L88.4959 62.4121C88.5048 62.407 88.5125 62.4001 88.5185 62.3918C88.5245 62.3835 88.5287 62.3741 88.5308 62.364C88.5329 62.354 88.5328 62.3437 88.5305 62.3337C88.5283 62.3237 88.5239 62.3143 88.5178 62.3061C88.5116 62.2979 88.5037 62.2912 88.4948 62.2863C88.4858 62.2814 88.4758 62.2784 88.4656 62.2777C88.4554 62.2769 88.4452 62.2783 88.4356 62.2818C88.4259 62.2854 88.4172 62.2909 88.4099 62.2981L87.9139 62.6721C87.9062 62.6776 87.8998 62.6846 87.8949 62.6927C87.8901 62.7008 87.8869 62.7097 87.8856 62.7191C87.8843 62.7284 87.8849 62.7379 87.8873 62.747C87.8898 62.7561 87.894 62.7646 87.8999 62.7721C87.9062 62.7805 87.9143 62.7874 87.9237 62.7922C87.933 62.7971 87.9433 62.7997 87.9539 62.8001Z" fill="#8E7CC3"/>
<path d="M86.8179 68.92C86.8367 68.9196 86.8547 68.9122 86.8684 68.8992C86.882 68.8863 86.8904 68.8688 86.8919 68.85C86.8805 68.7141 86.8536 68.5799 86.8119 68.45C86.7578 68.2702 86.6769 68.0996 86.5719 67.944C86.4929 67.8273 86.4017 67.7194 86.2999 67.622C86.2932 67.6153 86.2853 67.61 86.2765 67.6063C86.2677 67.6027 86.2584 67.6008 86.2489 67.6008C86.2394 67.6008 86.23 67.6027 86.2213 67.6063C86.2125 67.61 86.2046 67.6153 86.1979 67.622C86.1912 67.6285 86.186 67.6363 86.1823 67.6449C86.1787 67.6535 86.1769 67.6627 86.1769 67.672C86.1769 67.6813 86.1787 67.6905 86.1823 67.6991C86.186 67.7077 86.1912 67.7155 86.1979 67.722C86.2921 67.8122 86.3766 67.9121 86.4499 68.02C86.547 68.1647 86.6218 68.3231 86.6719 68.49C86.7093 68.6036 86.7341 68.721 86.7459 68.84C86.7451 68.849 86.7461 68.8581 86.7489 68.8666C86.7517 68.8752 86.7563 68.8831 86.7623 68.8899C86.7683 68.8966 86.7756 68.9021 86.7838 68.9059C86.792 68.9097 86.8009 68.9118 86.8099 68.912L86.8179 68.92Z" fill="#8E7CC3"/>
<path d="M86.3359 70.174C86.3495 70.1743 86.363 70.1707 86.3747 70.1636C86.3864 70.1565 86.3958 70.1462 86.4019 70.134C86.4775 69.989 86.582 69.8609 86.7089 69.7578C86.8358 69.6546 86.9825 69.5784 87.1399 69.534C87.1578 69.5284 87.1728 69.5161 87.1817 69.4997C87.1907 69.4833 87.1929 69.464 87.1879 69.446C87.1854 69.437 87.1811 69.4286 87.1752 69.4213C87.1694 69.414 87.1622 69.4079 87.154 69.4034C87.1458 69.399 87.1368 69.3962 87.1275 69.3952C87.1182 69.3943 87.1088 69.3952 87.0999 69.398C86.9231 69.4486 86.7587 69.535 86.617 69.652C86.4752 69.7691 86.3591 69.9141 86.2759 70.078C86.2674 70.0948 86.2657 70.1142 86.2713 70.1321C86.2769 70.15 86.2893 70.1651 86.3059 70.174H86.3359Z" fill="#8E7CC3"/>
<path d="M84.9679 76.444C85.1379 76.272 85.3159 75.578 85.4119 75.204C85.4359 75.116 85.4559 75.04 85.4719 74.984" fill="#8E7CC3"/>
<path d="M84.9639 76.516C84.9739 76.5165 84.984 76.5147 84.9933 76.5109C85.0026 76.5071 85.011 76.5014 85.0179 76.494C85.1879 76.324 85.3459 75.748 85.4819 75.222C85.5039 75.134 85.5239 75.058 85.5399 75.004C85.5448 74.9857 85.5423 74.9663 85.5329 74.9498C85.5236 74.9333 85.5081 74.9212 85.4899 74.916C85.4716 74.9111 85.4521 74.9136 85.4356 74.923C85.4191 74.9323 85.407 74.9478 85.4019 74.966L85.3439 75.188C85.2559 75.528 85.0739 76.236 84.9159 76.388C84.907 76.3983 84.9012 76.4107 84.8989 76.424C84.8966 76.4373 84.898 76.451 84.903 76.4636C84.9079 76.4761 84.9162 76.4871 84.9269 76.4953C84.9377 76.5035 84.9504 76.5086 84.9639 76.51V76.516Z" fill="#8E7CC3"/>
<path d="M86.8599 73.5221C87.0019 74.1941 85.4859 75.3101 85.4859 75.3101C85.4859 75.3101 83.6439 74.9101 83.5019 74.2401C83.3599 73.5701 83.9239 72.5441 84.8519 72.3461C85.7799 72.1481 86.7159 72.8521 86.8599 73.5221Z" fill="#8E7CC3"/>
<path d="M89.1279 65.7421C88.8879 66.4201 87.5119 66.7941 87.5119 66.7941C87.5119 66.7941 86.6799 65.6361 86.9119 64.9581C87.1439 64.2801 87.9559 63.5841 88.5659 63.8001C89.1759 64.0161 89.3679 65.0661 89.1279 65.7421Z" fill="#8E7CC3"/>
<path d="M85.42 67.648C85.5751 67.8062 85.759 67.9332 85.962 68.022C86.0637 68.0663 86.1756 68.0815 86.2854 68.0659C86.3952 68.0504 86.4986 68.0047 86.584 67.934C86.784 67.744 86.762 67.42 86.672 67.162C86.492 66.65 85.742 65.74 85.088 65.922C84.144 66.188 85.038 67.31 85.42 67.648Z" fill="#8E7CC3"/>
<path d="M87.176 69.07C87.044 69.208 86.9 69.384 86.95 69.57C86.9804 69.6491 87.0361 69.7159 87.1084 69.7601C87.1808 69.8042 87.2657 69.8232 87.35 69.814C87.519 69.7907 87.6804 69.7292 87.822 69.634C88.164 69.434 88.868 69.034 88.484 68.55C88.1 68.066 87.458 68.78 87.176 69.07Z" fill="#8E7CC3"/>
<path d="M86.9999 60.6181C86.7999 60.6181 86.5999 60.5301 86.3999 60.5261C86.1999 60.5221 85.9659 60.6601 85.9999 60.8581C86.0339 61.0561 86.2439 61.1221 86.4259 61.1501C86.7384 61.1977 87.0557 61.2045 87.3699 61.1701C87.4445 61.1709 87.5164 61.1422 87.5699 61.0901C87.6619 60.9801 87.5479 60.8081 87.4139 60.7541C87.276 60.7233 87.1419 60.6777 87.0139 60.6181H86.9999Z" fill="#8E7CC3"/>
<path d="M88.82 62.16C89.02 62.182 89.22 62.116 89.42 62.132C89.62 62.148 89.838 62.316 89.79 62.51C89.742 62.704 89.518 62.744 89.334 62.752C89.0175 62.7649 88.7006 62.7353 88.392 62.664C88.3188 62.6562 88.2514 62.6203 88.204 62.564C88.126 62.444 88.258 62.286 88.404 62.248C88.5467 62.2327 88.6875 62.2026 88.824 62.158L88.82 62.16Z" fill="#8E7CC3"/>
<path d="M87.9179 61.736C87.9367 61.7355 87.9545 61.7277 87.9675 61.7142C87.9806 61.7008 87.9879 61.6828 87.9879 61.664C87.9879 61.274 88.0359 60.902 88.1119 60.884C88.1301 60.8793 88.1457 60.8677 88.1554 60.8516C88.1651 60.8355 88.1682 60.8163 88.1639 60.798C88.1592 60.7798 88.1476 60.7642 88.1315 60.7545C88.1154 60.7448 88.0962 60.7418 88.0779 60.746C87.8479 60.802 87.8399 61.408 87.8459 61.668C87.8462 61.6772 87.8483 61.6863 87.852 61.6947C87.8558 61.703 87.8611 61.7106 87.8678 61.7169C87.8745 61.7232 87.8824 61.7282 87.891 61.7315C87.8996 61.7347 87.9087 61.7363 87.9179 61.736Z" fill="#8E7CC3"/>
<path d="M87.8259 60.818C87.9498 60.5463 88.1412 60.3108 88.3819 60.134C88.6359 59.982 89.0219 60.004 89.1819 60.258C89.3419 60.512 89.1219 60.932 88.8099 61.048C88.4869 61.1326 88.1463 61.1208 87.8299 61.014C87.8299 60.966 87.8299 60.916 87.8299 60.868L87.8259 60.818Z" fill="#8E7CC3"/>
<path d="M83.1999 83.3761H86.4379L86.7979 82.9301C87.6347 81.9462 88.1184 80.7106 88.1719 79.4201V79.3141H81.4619C81.4619 80.6241 81.9679 81.9141 82.9359 83.0621L83.1999 83.3761Z" fill="#8E7CC3"/>
<path opacity="0.4" d="M83.1999 83.3761H86.4379L86.7979 82.9301C87.6347 81.9462 88.1184 80.7106 88.1719 79.4201V79.3141H81.4619C81.4619 80.6241 81.9679 81.9141 82.9359 83.0621L83.1999 83.3761Z" fill="white"/>
<path d="M19.154 75.3699L19.554 75.2039C19.6096 75.2865 19.6879 75.3511 19.7795 75.3902C19.871 75.4292 19.9719 75.4409 20.07 75.4239C20.07 75.4239 20.12 75.4679 20.118 75.4699C20.1382 75.4058 20.1381 75.3369 20.1177 75.2729C20.0973 75.2088 20.0576 75.1525 20.004 75.1119C19.8932 75.0344 19.7587 74.9983 19.624 75.0099C19.6453 74.9261 19.6466 74.8385 19.6279 74.7541C19.6091 74.6696 19.5708 74.5908 19.516 74.5239C19.4743 74.5584 19.44 74.601 19.4153 74.6492C19.3905 74.6973 19.3758 74.7499 19.372 74.8039C19.3661 74.8539 19.3713 74.9045 19.3872 74.9522C19.4031 74.9999 19.4293 75.0435 19.464 75.0799C19.3083 75.1125 19.1625 75.181 19.038 75.2799C19.078 75.3179 19.102 75.3399 19.154 75.3699Z" fill="#8E7CC3"/>
<path opacity="0.1" d="M19.154 75.3699L19.554 75.2039C19.6096 75.2865 19.6879 75.3511 19.7795 75.3902C19.871 75.4292 19.9719 75.4409 20.07 75.4239C20.07 75.4239 20.12 75.4679 20.118 75.4699C20.1382 75.4058 20.1381 75.3369 20.1177 75.2729C20.0973 75.2088 20.0576 75.1525 20.004 75.1119C19.8932 75.0344 19.7587 74.9983 19.624 75.0099C19.6453 74.9261 19.6466 74.8385 19.6279 74.7541C19.6091 74.6696 19.5708 74.5908 19.516 74.5239C19.4743 74.5584 19.44 74.601 19.4153 74.6492C19.3905 74.6973 19.3758 74.7499 19.372 74.8039C19.3661 74.8539 19.3713 74.9045 19.3872 74.9522C19.4031 74.9999 19.4293 75.0435 19.464 75.0799C19.3083 75.1125 19.1625 75.181 19.038 75.2799C19.078 75.3179 19.102 75.3399 19.154 75.3699Z" fill="white"/>
<path d="M14.276 76.36C13.6656 75.707 12.9008 75.218 12.052 74.938C12.026 74.842 11.918 74.778 11.89 74.682C12.8874 74.8934 13.8063 75.3781 14.544 76.082C14.472 76.214 14.348 76.236 14.276 76.36Z" fill="#263238"/>
<g opacity="0.3">
<path d="M14.276 76.36C13.6656 75.707 12.9008 75.218 12.052 74.938C12.026 74.842 11.918 74.778 11.89 74.682C12.8874 74.8934 13.8063 75.3781 14.544 76.082C14.472 76.214 14.348 76.236 14.276 76.36Z" fill="white"/>
</g>
<path d="M15.074 69.502C14.97 69.762 15.128 70.136 15.456 70.128C15.314 69.82 14.444 69.742 14.2 70.014C14.096 70.132 14.216 70.344 14.342 70.44C14.4746 70.5161 14.6184 70.5707 14.768 70.602C14.292 70.432 13.568 71.002 13.568 71.432C13.4788 71.394 13.3785 71.3917 13.2876 71.4255C13.1968 71.4594 13.1225 71.5269 13.08 71.614C13.028 71.814 13.156 72.04 13.504 71.994C13.3724 72.0958 13.2788 72.2387 13.238 72.4C13.142 72.702 13.174 72.986 13.512 73.062C13.5727 73.0724 13.6349 73.0706 13.695 73.0569C13.755 73.0432 13.8118 73.0177 13.862 72.982C13.462 73.122 13.142 73.428 13.262 73.728C13.324 73.892 13.662 73.828 13.662 73.828C13.002 74.368 13.416 74.418 13.526 74.466C13.314 74.666 13.48 74.988 13.792 75.012C14.17 75.042 14.064 74.956 14.31 74.98C14.2902 75.0298 14.2849 75.0841 14.2945 75.1368C14.3041 75.1895 14.3283 75.2384 14.3644 75.278C14.4004 75.3176 14.4469 75.3463 14.4984 75.3608C14.55 75.3753 14.6046 75.375 14.656 75.36C15.0077 75.2677 15.3161 75.0555 15.528 74.76C15.464 74.902 15.508 75.122 15.692 75.096C16.032 75.122 16.23 74.862 16.428 74.674C16.594 74.982 16.916 75.122 17.304 75.17C17.4289 75.1888 17.5565 75.171 17.6715 75.1188C17.7865 75.0667 17.8839 74.9823 17.952 74.876C18.0156 74.774 18.039 74.6519 18.0175 74.5336C17.9961 74.4153 17.9314 74.3092 17.836 74.236C17.9582 74.3121 18.0941 74.3637 18.236 74.388C18.2733 74.3936 18.3114 74.3874 18.3451 74.3703C18.3787 74.3532 18.4062 74.3261 18.4238 74.2927C18.4414 74.2594 18.4481 74.2213 18.4432 74.1839C18.4382 74.1466 18.4217 74.1116 18.396 74.084C18.3377 74.025 18.2885 73.9576 18.25 73.884C18.4461 73.9371 18.6523 73.9405 18.85 73.894C18.9124 73.8825 18.9707 73.8551 19.0194 73.8144C19.068 73.7737 19.1053 73.7211 19.1276 73.6617C19.15 73.6023 19.1566 73.5382 19.1468 73.4755C19.1371 73.4129 19.1113 73.3538 19.072 73.304C18.9795 73.1936 18.8633 73.1053 18.7321 73.0458C18.6009 72.9862 18.458 72.9569 18.314 72.96C18.806 72.904 18.926 72.908 19.314 72.618C19.43 72.45 19.46 72.196 19.286 72.078C19.1895 72.0202 19.0787 71.9907 18.9663 71.9928C18.8538 71.9949 18.7442 72.0286 18.65 72.09C18.7639 71.9803 18.8509 71.8458 18.9043 71.697C18.9577 71.5482 18.9761 71.3891 18.958 71.232C18.952 71.1612 18.9254 71.0936 18.8814 71.0377C18.8375 70.9818 18.7782 70.94 18.7107 70.9175C18.6433 70.8949 18.5707 70.8926 18.502 70.9108C18.4333 70.9291 18.3714 70.967 18.324 71.02C18.2438 71.0958 18.1836 71.1903 18.1487 71.2949C18.1139 71.3996 18.1054 71.5113 18.124 71.62C18.2523 71.3299 18.306 71.0122 18.28 70.696C18.274 70.5925 18.2338 70.494 18.1658 70.4158C18.0977 70.3376 18.0057 70.2842 17.904 70.264C17.462 70.176 16.946 70.244 16.904 70.588C17.022 69.6 15.532 69.25 15.074 69.502Z" fill="#8E7CC3"/>
<path opacity="0.2" d="M15.074 69.502C14.97 69.762 15.128 70.136 15.456 70.128C15.314 69.82 14.444 69.742 14.2 70.014C14.096 70.132 14.216 70.344 14.342 70.44C14.4746 70.5161 14.6184 70.5707 14.768 70.602C14.292 70.432 13.568 71.002 13.568 71.432C13.4788 71.394 13.3785 71.3917 13.2876 71.4255C13.1968 71.4594 13.1225 71.5269 13.08 71.614C13.028 71.814 13.156 72.04 13.504 71.994C13.3724 72.0958 13.2788 72.2387 13.238 72.4C13.142 72.702 13.174 72.986 13.512 73.062C13.5727 73.0724 13.6349 73.0706 13.695 73.0569C13.755 73.0432 13.8118 73.0177 13.862 72.982C13.462 73.122 13.142 73.428 13.262 73.728C13.324 73.892 13.662 73.828 13.662 73.828C13.002 74.368 13.416 74.418 13.526 74.466C13.314 74.666 13.48 74.988 13.792 75.012C14.17 75.042 14.064 74.956 14.31 74.98C14.2902 75.0298 14.2849 75.0841 14.2945 75.1368C14.3041 75.1895 14.3283 75.2384 14.3644 75.278C14.4004 75.3176 14.4469 75.3463 14.4984 75.3608C14.55 75.3753 14.6046 75.375 14.656 75.36C15.0077 75.2677 15.3161 75.0555 15.528 74.76C15.464 74.902 15.508 75.122 15.692 75.096C16.032 75.122 16.23 74.862 16.428 74.674C16.594 74.982 16.916 75.122 17.304 75.17C17.4289 75.1888 17.5565 75.171 17.6715 75.1188C17.7865 75.0667 17.8839 74.9823 17.952 74.876C18.0156 74.774 18.039 74.6519 18.0175 74.5336C17.9961 74.4153 17.9314 74.3092 17.836 74.236C17.9582 74.3121 18.0941 74.3637 18.236 74.388C18.2733 74.3936 18.3114 74.3874 18.3451 74.3703C18.3787 74.3532 18.4062 74.3261 18.4238 74.2927C18.4414 74.2594 18.4481 74.2213 18.4432 74.1839C18.4382 74.1466 18.4217 74.1116 18.396 74.084C18.3377 74.025 18.2885 73.9576 18.25 73.884C18.4461 73.9371 18.6523 73.9405 18.85 73.894C18.9124 73.8825 18.9707 73.8551 19.0194 73.8144C19.068 73.7737 19.1053 73.7211 19.1276 73.6617C19.15 73.6023 19.1566 73.5382 19.1468 73.4755C19.1371 73.4129 19.1113 73.3538 19.072 73.304C18.9795 73.1936 18.8633 73.1053 18.7321 73.0458C18.6009 72.9862 18.458 72.9569 18.314 72.96C18.806 72.904 18.926 72.908 19.314 72.618C19.43 72.45 19.46 72.196 19.286 72.078C19.1895 72.0202 19.0787 71.9907 18.9663 71.9928C18.8538 71.9949 18.7442 72.0286 18.65 72.09C18.7639 71.9803 18.8509 71.8458 18.9043 71.697C18.9577 71.5482 18.9761 71.3891 18.958 71.232C18.952 71.1612 18.9254 71.0936 18.8814 71.0377C18.8375 70.9818 18.7782 70.94 18.7107 70.9175C18.6433 70.8949 18.5707 70.8926 18.502 70.9108C18.4333 70.9291 18.3714 70.967 18.324 71.02C18.2438 71.0958 18.1836 71.1903 18.1487 71.2949C18.1139 71.3996 18.1054 71.5113 18.124 71.62C18.2523 71.3299 18.306 71.0122 18.28 70.696C18.274 70.5925 18.2338 70.494 18.1658 70.4158C18.0977 70.3376 18.0057 70.2842 17.904 70.264C17.462 70.176 16.946 70.244 16.904 70.588C17.022 69.6 15.532 69.25 15.074 69.502Z" fill="#1F1F1F"/>
<path d="M16.9539 74.84C16.8546 75.1242 16.6913 75.3819 16.4767 75.5931C16.2621 75.8043 16.0018 75.9633 15.7159 76.058C15.5052 76.1008 15.3026 76.1771 15.1159 76.284C15.065 76.3259 15.0263 76.3807 15.0038 76.4427C14.9814 76.5048 14.976 76.5717 14.9883 76.6365C15.0005 76.7013 15.03 76.7616 15.0736 76.8111C15.1171 76.8606 15.1732 76.8975 15.2359 76.918C15.5716 77.0173 15.8848 77.181 16.1579 77.4C16.4859 77.688 16.6879 78.218 16.5359 78.628C16.2759 78.842 15.7899 78.746 15.5559 78.506C15.4739 78.068 15.0119 77.83 14.6059 77.65C14.1239 77.438 13.5719 77.118 13.6939 76.514C13.7353 76.3684 13.8115 76.2351 13.9161 76.1256C14.0207 76.0162 14.1504 75.9339 14.2939 75.886C16.1999 75.312 16.3959 74.392 16.3959 74.392C16.6139 74.392 16.6579 74.314 16.8759 74.314C16.933 74.3875 16.9702 74.4746 16.9839 74.5667C16.9975 74.6589 16.9872 74.753 16.9539 74.84Z" fill="#263238"/>
<path opacity="0.3" d="M16.9539 74.84C16.8546 75.1242 16.6913 75.3819 16.4767 75.5931C16.2621 75.8043 16.0018 75.9633 15.7159 76.058C15.5052 76.1008 15.3026 76.1771 15.1159 76.284C15.065 76.3259 15.0263 76.3807 15.0038 76.4427C14.9814 76.5048 14.976 76.5717 14.9883 76.6365C15.0005 76.7013 15.03 76.7616 15.0736 76.8111C15.1171 76.8606 15.1732 76.8975 15.2359 76.918C15.5716 77.0173 15.8848 77.181 16.1579 77.4C16.4859 77.688 16.6879 78.218 16.5359 78.628C16.2759 78.842 15.7899 78.746 15.5559 78.506C15.4739 78.068 15.0119 77.83 14.6059 77.65C14.1239 77.438 13.5719 77.118 13.6939 76.514C13.7353 76.3684 13.8115 76.2351 13.9161 76.1256C14.0207 76.0162 14.1504 75.9339 14.2939 75.886C16.1999 75.312 16.3959 74.392 16.3959 74.392C16.6139 74.392 16.6579 74.314 16.8759 74.314C16.933 74.3875 16.9702 74.4746 16.9839 74.5667C16.9975 74.6589 16.9872 74.753 16.9539 74.84Z" fill="white"/>
<path d="M11.984 79.626L14.504 78.668C15.4987 78.2917 16.5935 78.274 17.6 78.618L20.534 79.618C17.7661 80.602 14.7438 80.602 11.976 79.618L11.984 79.626Z" fill="#263238"/>
<path d="M21.244 82.5379V82.5639C21.1476 82.8415 20.9671 83.082 20.7277 83.2523C20.4883 83.4225 20.2017 83.514 19.908 83.5139H12.612C12.3177 83.514 12.0307 83.4223 11.7909 83.2517C11.5511 83.0811 11.3704 82.84 11.274 82.5619V82.5379C11.0438 81.881 11.0382 81.1664 11.258 80.5059L11.6 79.4299H20.9L21.254 80.5059C21.4747 81.1658 21.4712 81.8802 21.244 82.5379Z" fill="#8E7CC3"/>
<g opacity="0.4">
<path d="M21.244 82.5379V82.5639C21.1476 82.8415 20.9671 83.082 20.7277 83.2523C20.4883 83.4225 20.2017 83.514 19.908 83.5139H12.612C12.3177 83.514 12.0307 83.4223 11.7909 83.2517C11.5511 83.0811 11.3704 82.84 11.274 82.5619V82.5379C11.0438 81.881 11.0382 81.1664 11.258 80.5059L11.6 79.4299H20.9L21.254 80.5059C21.4747 81.1658 21.4712 81.8802 21.244 82.5379Z" fill="white"/>
</g>
<path d="M16.094 77.988C16.5436 77.3824 17.1632 76.9243 17.874 76.672C17.928 76.652 18.01 76.518 17.962 76.486C17.3371 76.6233 16.7409 76.8683 16.2 77.21C15.9827 77.3384 15.8107 77.5314 15.708 77.762C15.832 77.932 15.882 78 16.094 77.988Z" fill="#263238"/>
<path opacity="0.3" d="M16.094 77.988C16.5436 77.3824 17.1632 76.9243 17.874 76.672C17.928 76.652 18.01 76.518 17.962 76.486C17.3371 76.6233 16.7409 76.8683 16.2 77.21C15.9827 77.3384 15.8107 77.5314 15.708 77.762C15.832 77.932 15.882 78 16.094 77.988Z" fill="white"/>
<path d="M15.546 68.886C15.5168 68.9517 15.504 69.0236 15.5086 69.0954C15.5132 69.1672 15.5351 69.2368 15.5724 69.2983C15.6097 69.3598 15.6614 69.4113 15.723 69.4485C15.7845 69.4857 15.8542 69.5075 15.926 69.512C15.786 69.204 14.926 69.126 14.672 69.398C14.566 69.516 14.688 69.728 14.814 69.824C14.9466 69.9 15.0904 69.9547 15.24 69.986C14.762 69.816 14.04 70.386 14.04 70.816C13.9505 70.7783 13.85 70.7762 13.759 70.81C13.668 70.8438 13.5932 70.911 13.55 70.998C13.498 71.198 13.628 71.424 13.974 71.378C13.8407 71.485 13.7471 71.6336 13.708 71.8C13.614 72.102 13.644 72.386 13.984 72.462C14.1066 72.4824 14.2324 72.4537 14.334 72.382C13.934 72.522 13.614 72.828 13.734 73.128C13.794 73.292 14.134 73.228 14.134 73.228C13.476 73.768 13.888 73.818 14 73.866C13.786 74.066 13.954 74.388 14.266 74.412C14.642 74.442 14.538 74.356 14.784 74.38C14.7636 74.4296 14.7577 74.4839 14.7669 74.5367C14.7762 74.5896 14.8002 74.6387 14.8362 74.6784C14.8721 74.7182 14.9186 74.7469 14.9703 74.7614C15.0219 74.7758 15.0766 74.7753 15.128 74.76C15.48 74.6672 15.7889 74.4551 16.002 74.16C15.938 74.302 15.98 74.522 16.164 74.496C16.504 74.522 16.702 74.262 16.902 74.074C17.068 74.384 17.39 74.522 17.776 74.57C17.9011 74.5886 18.029 74.5708 18.1443 74.5187C18.2596 74.4666 18.3574 74.3823 18.426 74.276C18.4892 74.1738 18.5123 74.0519 18.4908 73.9337C18.4694 73.8155 18.405 73.7095 18.31 73.636C18.4318 73.7129 18.5678 73.7646 18.71 73.788C18.7473 73.7935 18.7854 73.7873 18.8191 73.7703C18.8527 73.7532 18.8802 73.7261 18.8978 73.6927C18.9154 73.6593 18.9221 73.6213 18.9171 73.5839C18.9122 73.5465 18.8957 73.5116 18.87 73.484C18.8105 73.4254 18.7606 73.3579 18.722 73.284C18.9181 73.3367 19.1242 73.3401 19.322 73.294C19.3842 73.2822 19.4423 73.2545 19.4907 73.2137C19.5391 73.1729 19.5762 73.1203 19.5983 73.061C19.6204 73.0016 19.6268 72.9376 19.617 72.8751C19.6071 72.8125 19.5813 72.7536 19.542 72.704C19.4531 72.592 19.3404 72.5012 19.2121 72.4382C19.0837 72.3753 18.9429 72.3417 18.8 72.34C19.294 72.284 19.412 72.288 19.8 71.998C19.916 71.83 19.946 71.576 19.772 71.458C19.6757 71.4006 19.5653 71.3712 19.4533 71.3734C19.3412 71.3755 19.232 71.409 19.138 71.47C19.2511 71.3597 19.3376 71.2252 19.391 71.0765C19.4444 70.9278 19.4632 70.769 19.446 70.612C19.4385 70.5424 19.4112 70.4765 19.3674 70.422C19.3236 70.3675 19.2651 70.3267 19.1988 70.3044C19.1325 70.2821 19.0613 70.2792 18.9934 70.2961C18.9256 70.3131 18.864 70.3491 18.816 70.4C18.7361 70.476 18.6761 70.5704 18.6412 70.6751C18.6064 70.7797 18.5977 70.8912 18.616 71C18.7433 70.7095 18.7969 70.3921 18.772 70.076C18.7659 69.9731 18.7262 69.8752 18.659 69.7971C18.5918 69.7191 18.5008 69.6653 18.4 69.644C17.958 69.556 17.44 69.624 17.4 69.968C17.492 68.978 16 68.634 15.546 68.886Z" fill="#8E7CC3"/>
<path d="M17.716 75.5099C17.6231 75.4581 17.5195 75.4287 17.4133 75.4238C17.3071 75.419 17.2012 75.4388 17.104 75.4819C17.1186 75.5791 17.1589 75.6706 17.2208 75.747C17.2827 75.8233 17.3639 75.8816 17.456 75.9159C17.377 75.9056 17.2967 75.9192 17.2254 75.9548C17.1542 75.9904 17.0952 76.0465 17.056 76.1159C17.0234 76.1833 17.0126 76.2593 17.0251 76.3331C17.0377 76.407 17.0729 76.4751 17.126 76.5279H17.17C17.1279 76.5816 17.105 76.6478 17.1051 76.716C17.1052 76.7842 17.1282 76.8504 17.1704 76.904C17.2127 76.9575 17.2717 76.9953 17.338 77.0112C17.4043 77.0272 17.474 77.0204 17.536 76.9919C17.5789 77.0488 17.6334 77.096 17.6957 77.1304C17.7581 77.1649 17.827 77.1858 17.898 77.1919C17.9685 77.1926 18.0383 77.1779 18.1025 77.1489C18.1667 77.1199 18.2239 77.0772 18.27 77.0239C18.246 77.1359 18.382 77.2819 18.488 77.3219C18.5426 77.3394 18.6005 77.3443 18.6573 77.3363C18.714 77.3284 18.7683 77.3077 18.816 77.2759C18.9101 77.2111 18.9904 77.1282 19.052 77.0319C19.1611 76.8499 19.208 76.6373 19.1856 76.4262C19.1633 76.2151 19.0728 76.0171 18.928 75.8619C18.646 75.5499 18.136 75.4679 17.716 75.5099Z" fill="#8E7CC3"/>
<path opacity="0.2" d="M17.716 75.5099C17.6231 75.4581 17.5195 75.4287 17.4133 75.4238C17.3071 75.419 17.2012 75.4388 17.104 75.4819C17.1186 75.5791 17.1589 75.6706 17.2208 75.747C17.2827 75.8233 17.3639 75.8816 17.456 75.9159C17.377 75.9056 17.2967 75.9192 17.2254 75.9548C17.1542 75.9904 17.0952 76.0465 17.056 76.1159C17.0234 76.1833 17.0126 76.2593 17.0251 76.3331C17.0377 76.407 17.0729 76.4751 17.126 76.5279H17.17C17.1279 76.5816 17.105 76.6478 17.1051 76.716C17.1052 76.7842 17.1282 76.8504 17.1704 76.904C17.2127 76.9575 17.2717 76.9953 17.338 77.0112C17.4043 77.0272 17.474 77.0204 17.536 76.9919C17.5789 77.0488 17.6334 77.096 17.6957 77.1304C17.7581 77.1649 17.827 77.1858 17.898 77.1919C17.9685 77.1926 18.0383 77.1779 18.1025 77.1489C18.1667 77.1199 18.2239 77.0772 18.27 77.0239C18.246 77.1359 18.382 77.2819 18.488 77.3219C18.5426 77.3394 18.6005 77.3443 18.6573 77.3363C18.714 77.3284 18.7683 77.3077 18.816 77.2759C18.9101 77.2111 18.9904 77.1282 19.052 77.0319C19.1611 76.8499 19.208 76.6373 19.1856 76.4262C19.1633 76.2151 19.0728 76.0171 18.928 75.8619C18.646 75.5499 18.136 75.4679 17.716 75.5099Z" fill="#1F1F1F"/>
<path d="M18.3999 75.056C18.3746 74.993 18.3658 74.9247 18.3742 74.8573C18.3826 74.79 18.408 74.7259 18.448 74.6711C18.488 74.6163 18.5413 74.5726 18.6029 74.5441C18.6644 74.5155 18.7322 74.5031 18.7999 74.508C18.9819 74.562 19.2719 74.732 19.2879 74.922C19.2933 75.0175 19.2707 75.1126 19.2227 75.1954C19.1747 75.2782 19.1035 75.3452 19.0179 75.388C19.1999 75.222 19.7199 75.348 19.7939 75.588C19.8679 75.828 19.5779 76.088 19.3619 75.972C19.7239 75.962 20.1399 76.466 20.1019 76.826C20.0453 76.8834 19.9776 76.9288 19.903 76.9595C19.8285 76.9902 19.7484 77.0056 19.6678 77.0046C19.5871 77.0037 19.5075 76.9865 19.4336 76.9541C19.3598 76.9217 19.2932 76.8747 19.2379 76.816C19.4139 76.934 19.5799 77.254 19.4699 77.436C19.4106 77.5241 19.3208 77.5872 19.2178 77.6131C19.1147 77.6389 19.0058 77.6257 18.9119 77.576C18.6299 77.414 18.4779 77.08 18.6919 76.834C18.5467 76.819 18.4003 76.8472 18.2711 76.9152C18.142 76.9832 18.0358 77.0878 17.9659 77.216C17.8379 76.992 17.9959 76.648 18.2219 76.524C17.8979 76.354 17.5939 76.19 17.2379 76.274C17.3159 76.034 17.4999 75.734 17.7459 75.674C17.87 75.6495 17.9983 75.657 18.1187 75.6958C18.2391 75.7347 18.3476 75.8036 18.4339 75.896C18.2233 75.8634 18.0298 75.7608 17.8847 75.6048C17.7395 75.4488 17.6512 75.2484 17.6339 75.036C17.8199 74.854 18.4479 75.092 18.3999 75.056Z" fill="#8E7CC3"/>
<path d="M10.94 73.5279C10.9017 73.5118 10.8598 73.5063 10.8186 73.5119C10.7775 73.5175 10.7386 73.5341 10.706 73.5599C10.6835 73.5914 10.6714 73.6292 10.6714 73.6679C10.6714 73.7066 10.6835 73.7444 10.706 73.7759C10.7503 73.8392 10.8076 73.8924 10.874 73.9319C10.8354 73.9338 10.7978 73.9446 10.7641 73.9636C10.7305 73.9826 10.7017 74.0091 10.6802 74.0412C10.6586 74.0732 10.6448 74.1099 10.6399 74.1482C10.635 74.1865 10.6392 74.2255 10.652 74.2619C10.6826 74.3352 10.7343 74.3977 10.8005 74.4416C10.8668 74.4854 10.9446 74.5085 11.024 74.5079C11.0058 74.5354 10.994 74.5665 10.9892 74.5991C10.9844 74.6317 10.9869 74.6649 10.9965 74.6964C11.006 74.7279 11.0224 74.7569 11.0444 74.7814C11.0665 74.8058 11.0936 74.8251 11.124 74.8379C11.1872 74.8603 11.2545 74.8691 11.3214 74.8636C11.3883 74.8581 11.4533 74.8384 11.512 74.8059C11.6283 74.7404 11.7493 74.6836 11.874 74.6359C11.8853 74.7062 11.909 74.7739 11.944 74.8359C11.9624 74.8653 11.9881 74.8894 12.0186 74.9059C12.0491 74.9224 12.0833 74.9307 12.118 74.9299C12.1352 74.9286 12.1519 74.9236 12.167 74.9153C12.182 74.9069 12.1951 74.8955 12.2054 74.8816C12.2156 74.8678 12.2228 74.8519 12.2263 74.835C12.2299 74.8181 12.2298 74.8007 12.226 74.7839C12.3189 74.8753 12.4319 74.9438 12.556 74.9839C12.5908 74.9968 12.6291 74.9968 12.664 74.9839C12.724 74.9579 12.73 74.8719 12.702 74.8139C12.674 74.7559 12.624 74.7099 12.596 74.6519C12.5792 74.6242 12.5733 74.5911 12.5796 74.5593C12.5859 74.5275 12.6039 74.4992 12.63 74.4799C12.8757 74.3799 13.0889 74.2137 13.246 73.9999C13.278 73.9539 13.308 73.8919 13.276 73.8459C13.2603 73.8294 13.2408 73.8171 13.2191 73.8101C13.1974 73.8031 13.1744 73.8017 13.152 73.8059C12.9856 73.8119 12.822 73.85 12.67 73.9179C12.6668 73.8092 12.6859 73.701 12.726 73.5999C12.7455 73.5489 12.7519 73.4937 12.7446 73.4395C12.7373 73.3854 12.7164 73.3339 12.684 73.2899C12.6375 73.2517 12.5792 73.2308 12.519 73.2308C12.4588 73.2308 12.4005 73.2517 12.354 73.2899C12.2641 73.3715 12.1955 73.4738 12.154 73.5879C12.1051 73.465 12.0125 73.3646 11.894 73.3059C11.8348 73.2776 11.7688 73.2667 11.7036 73.2745C11.6384 73.2823 11.5768 73.3084 11.526 73.3499C11.478 73.3939 11.4485 73.4545 11.4433 73.5194C11.4381 73.5843 11.4576 73.6488 11.498 73.6999C11.366 73.7359 11.326 73.7659 11.22 73.6879C11.138 73.6169 11.0428 73.5625 10.94 73.5279Z" fill="#8E7CC3"/>
<path opacity="0.2" d="M10.94 73.5279C10.9017 73.5118 10.8598 73.5063 10.8186 73.5119C10.7775 73.5175 10.7386 73.5341 10.706 73.5599C10.6835 73.5914 10.6714 73.6292 10.6714 73.6679C10.6714 73.7066 10.6835 73.7444 10.706 73.7759C10.7503 73.8392 10.8076 73.8924 10.874 73.9319C10.8354 73.9338 10.7978 73.9446 10.7641 73.9636C10.7305 73.9826 10.7017 74.0091 10.6802 74.0412C10.6586 74.0732 10.6448 74.1099 10.6399 74.1482C10.635 74.1865 10.6392 74.2255 10.652 74.2619C10.6826 74.3352 10.7343 74.3977 10.8005 74.4416C10.8668 74.4854 10.9446 74.5085 11.024 74.5079C11.0058 74.5354 10.994 74.5665 10.9892 74.5991C10.9844 74.6317 10.9869 74.6649 10.9965 74.6964C11.006 74.7279 11.0224 74.7569 11.0444 74.7814C11.0665 74.8058 11.0936 74.8251 11.124 74.8379C11.1872 74.8603 11.2545 74.8691 11.3214 74.8636C11.3883 74.8581 11.4533 74.8384 11.512 74.8059C11.6283 74.7404 11.7493 74.6836 11.874 74.6359C11.8853 74.7062 11.909 74.7739 11.944 74.8359C11.9624 74.8653 11.9881 74.8894 12.0186 74.9059C12.0491 74.9224 12.0833 74.9307 12.118 74.9299C12.1352 74.9286 12.1519 74.9236 12.167 74.9153C12.182 74.9069 12.1951 74.8955 12.2054 74.8816C12.2156 74.8678 12.2228 74.8519 12.2263 74.835C12.2299 74.8181 12.2298 74.8007 12.226 74.7839C12.3189 74.8753 12.4319 74.9438 12.556 74.9839C12.5908 74.9968 12.6291 74.9968 12.664 74.9839C12.724 74.9579 12.73 74.8719 12.702 74.8139C12.674 74.7559 12.624 74.7099 12.596 74.6519C12.5792 74.6242 12.5733 74.5911 12.5796 74.5593C12.5859 74.5275 12.6039 74.4992 12.63 74.4799C12.8757 74.3799 13.0889 74.2137 13.246 73.9999C13.278 73.9539 13.308 73.8919 13.276 73.8459C13.2603 73.8294 13.2408 73.8171 13.2191 73.8101C13.1974 73.8031 13.1744 73.8017 13.152 73.8059C12.9856 73.8119 12.822 73.85 12.67 73.9179C12.6668 73.8092 12.6859 73.701 12.726 73.5999C12.7455 73.5489 12.7519 73.4937 12.7446 73.4395C12.7373 73.3854 12.7164 73.3339 12.684 73.2899C12.6375 73.2517 12.5792 73.2308 12.519 73.2308C12.4588 73.2308 12.4005 73.2517 12.354 73.2899C12.2641 73.3715 12.1955 73.4738 12.154 73.5879C12.1051 73.465 12.0125 73.3646 11.894 73.3059C11.8348 73.2776 11.7688 73.2667 11.7036 73.2745C11.6384 73.2823 11.5768 73.3084 11.526 73.3499C11.478 73.3939 11.4485 73.4545 11.4433 73.5194C11.4381 73.5843 11.4576 73.6488 11.498 73.6999C11.366 73.7359 11.326 73.7659 11.22 73.6879C11.138 73.6169 11.0428 73.5625 10.94 73.5279Z" fill="#1F1F1F"/>
<path d="M12.354 74.7459C12.262 74.3459 12.154 74.2919 12.484 74.0499C12.6179 74.0696 12.7547 74.0561 12.8823 74.0108C13.0098 73.9655 13.1244 73.8897 13.216 73.7899C13.3079 73.6834 13.3739 73.5569 13.4086 73.4205C13.4433 73.2841 13.4458 73.1415 13.416 73.0039C13.1694 73.0889 12.9425 73.2227 12.7487 73.3972C12.5549 73.5718 12.3982 73.7836 12.288 74.0199C12.3502 73.9099 12.384 73.7861 12.3865 73.6597C12.3889 73.5333 12.3599 73.4083 12.302 73.2959C12.2586 73.1999 12.1878 73.1188 12.0985 73.063C12.0091 73.0071 11.9053 72.9789 11.8 72.9819V73.0239C11.7908 73.1108 11.8015 73.1986 11.8313 73.2807C11.8611 73.3629 11.9092 73.4371 11.972 73.4979C12.0453 73.5829 12.0941 73.6863 12.1131 73.7969C12.1322 73.9076 12.1207 74.0213 12.08 74.1259C11.964 74.4179 12.13 74.2699 11.864 74.4359C11.9054 74.378 11.9337 74.3117 11.9468 74.2416C11.9598 74.1716 11.9574 74.0996 11.9397 74.0306C11.922 73.9616 11.8894 73.8973 11.8442 73.8422C11.7989 73.7872 11.7422 73.7427 11.678 73.7119C11.5257 73.8125 11.4109 73.9605 11.3513 74.133C11.2916 74.3054 11.2904 74.4927 11.348 74.6659C11.226 74.3999 10.948 74.1939 10.748 74.2379C10.616 74.2659 10.148 74.5539 10.188 74.9419C10.472 74.7539 10.556 74.7819 10.87 74.9079C11.0278 74.9731 11.1678 75.0749 11.2784 75.205C11.3891 75.3351 11.467 75.4896 11.506 75.6559C11.974 75.6599 12.464 75.2199 12.354 74.7459Z" fill="#8E7CC3"/>
<path d="M11.258 73.234C11.2488 73.3526 11.2699 73.4717 11.3195 73.5798C11.3691 73.688 11.4455 73.7817 11.5413 73.8522C11.6372 73.9226 11.7495 73.9675 11.8675 73.9825C11.9856 73.9975 12.1055 73.9822 12.216 73.938C12.144 73.816 12.07 73.704 11.998 73.592C11.919 73.4719 11.8092 73.3753 11.6801 73.3123C11.5509 73.2493 11.4072 73.2223 11.264 73.234H11.258Z" fill="#8E7CC3"/>
<path opacity="0.1" d="M11.258 73.234C11.2488 73.3526 11.2699 73.4717 11.3195 73.5798C11.3691 73.688 11.4455 73.7817 11.5413 73.8522C11.6372 73.9226 11.7495 73.9675 11.8675 73.9825C11.9856 73.9975 12.1055 73.9822 12.216 73.938C12.144 73.816 12.07 73.704 11.998 73.592C11.919 73.4719 11.8092 73.3753 11.6801 73.3123C11.5509 73.2493 11.4072 73.2223 11.264 73.234H11.258Z" fill="white"/>
<path d="M12.224 74.296C12.2427 74.437 12.3077 74.5678 12.4086 74.668C12.5095 74.7683 12.6408 74.8322 12.782 74.85C12.8177 74.7137 12.8022 74.569 12.7385 74.4433C12.6747 74.3176 12.5671 74.2196 12.436 74.168C12.356 74.142 12.216 74.212 12.224 74.296Z" fill="#8E7CC3"/>
<path d="M12.3479 75.0979C12.2634 75.1334 12.1924 75.1949 12.1452 75.2735C12.0979 75.3521 12.0769 75.4436 12.0851 75.535C12.0934 75.6263 12.1304 75.7126 12.191 75.7814C12.2515 75.8503 12.3324 75.8981 12.4219 75.9179C12.6639 75.6939 12.5859 75.3239 12.3479 75.0979Z" fill="#8E7CC3"/>
<path d="M10.904 75.7259C10.8885 75.5874 10.9244 75.4481 11.0047 75.3342C11.085 75.2203 11.2043 75.1398 11.34 75.1079C11.4025 75.1724 11.4396 75.2573 11.4443 75.347C11.4491 75.4367 11.4213 75.5251 11.366 75.5959C11.3187 75.6709 11.2453 75.7258 11.16 75.7498C11.0746 75.7738 10.9834 75.7653 10.904 75.7259Z" fill="#8E7CC3"/>
<path opacity="0.1" d="M10.904 75.7259C10.8885 75.5874 10.9244 75.4481 11.0047 75.3342C11.085 75.2203 11.2043 75.1398 11.34 75.1079C11.4025 75.1724 11.4396 75.2573 11.4443 75.347C11.4491 75.4367 11.4213 75.5251 11.366 75.5959C11.3187 75.6709 11.2453 75.7258 11.16 75.7498C11.0746 75.7738 10.9834 75.7653 10.904 75.7259Z" fill="white"/>
<path opacity="0.1" d="M17.2899 70.298C17.2481 70.18 17.1797 70.0733 17.0899 69.986C17.0448 69.9434 16.987 69.9167 16.9253 69.9098C16.8636 69.903 16.8013 69.9164 16.7479 69.948C16.7078 69.9878 16.6765 70.0356 16.6561 70.0884C16.6358 70.1411 16.6269 70.1976 16.6299 70.254C16.6202 70.3356 16.6256 70.4184 16.6459 70.498C16.657 70.5379 16.6775 70.5745 16.7057 70.6048C16.7339 70.6351 16.769 70.6581 16.8079 70.672C16.6999 70.6326 16.5846 70.6169 16.4699 70.626C16.4185 70.6285 16.3694 70.6485 16.3308 70.6827C16.2923 70.7169 16.2665 70.7632 16.2579 70.814C16.2592 70.8574 16.2731 70.8994 16.298 70.935C16.3229 70.9705 16.3576 70.998 16.3979 71.014C16.4782 71.0451 16.5639 71.0594 16.6499 71.056C16.5822 71.0871 16.5237 71.1351 16.4799 71.1953C16.4361 71.2555 16.4086 71.326 16.3999 71.4C16.3929 71.4256 16.3923 71.4525 16.3983 71.4783C16.4042 71.5041 16.4165 71.5281 16.4339 71.548C16.4553 71.561 16.4793 71.5692 16.5042 71.5719C16.529 71.5747 16.5542 71.572 16.5779 71.564C16.7364 71.5309 16.8854 71.4625 17.0139 71.364C16.988 71.4391 16.9804 71.5194 16.9919 71.598C17.0011 71.6396 17.0234 71.6771 17.0554 71.7052C17.0874 71.7332 17.1275 71.7503 17.1699 71.754C17.2075 71.7489 17.2429 71.7333 17.272 71.7088C17.301 71.6844 17.3225 71.6522 17.3339 71.616C17.3536 71.5417 17.3583 71.4642 17.3479 71.388C17.4159 71.388 17.4339 71.466 17.4639 71.528C17.506 71.6122 17.5717 71.6823 17.6531 71.7296C17.7345 71.7768 17.828 71.7992 17.9219 71.794C18.0155 71.7857 18.1037 71.7466 18.1728 71.683C18.2419 71.6193 18.288 71.5346 18.3039 71.442C18.3151 71.3485 18.2918 71.254 18.2384 71.1764C18.1851 71.0987 18.1053 71.0432 18.0139 71.02C18.1164 70.9866 18.2254 70.9776 18.3319 70.994C18.3868 71.0096 18.4449 71.0107 18.5003 70.997C18.5557 70.9833 18.6066 70.9554 18.6479 70.916C18.6786 70.8721 18.6928 70.8187 18.6881 70.7653C18.6833 70.7119 18.6599 70.6619 18.6219 70.624C18.5833 70.5871 18.5373 70.5588 18.487 70.5409C18.4367 70.523 18.3832 70.5159 18.3299 70.52C18.223 70.5273 18.1178 70.551 18.0179 70.59C18.1219 70.59 18.1339 70.414 18.0919 70.318C18.0667 70.2725 18.0272 70.2364 17.9795 70.2155C17.9318 70.1945 17.8786 70.1898 17.8279 70.202C17.7239 70.216 17.3399 70.2 17.2899 70.298Z" fill="white"/>
<path opacity="0.1" d="M15.836 72.134C15.6945 72.1171 15.551 72.1378 15.42 72.194C15.3558 72.2245 15.3056 72.2782 15.2792 72.3442C15.2529 72.4102 15.2525 72.4837 15.278 72.55C15.3072 72.5934 15.348 72.6276 15.3957 72.6488C15.4435 72.6701 15.4963 72.6774 15.548 72.67C15.6513 72.653 15.7505 72.6163 15.84 72.562C15.8089 72.6172 15.7966 72.6809 15.8049 72.7437C15.8132 72.8065 15.8416 72.8648 15.886 72.91C15.9104 72.9277 15.9384 72.9397 15.9681 72.9451C15.9978 72.9505 16.0283 72.9491 16.0573 72.941C16.0863 72.9329 16.1132 72.9184 16.1358 72.8985C16.1584 72.8786 16.1763 72.8538 16.188 72.826C16.2508 72.9179 16.2987 73.0192 16.33 73.126C16.3634 73.2333 16.4344 73.3249 16.53 73.384C16.554 73.3969 16.5804 73.4047 16.6075 73.4071C16.6347 73.4094 16.662 73.4061 16.6878 73.3975C16.7137 73.3889 16.7375 73.3751 16.7578 73.357C16.7781 73.3388 16.7945 73.3167 16.806 73.292C16.809 73.2641 16.8172 73.237 16.83 73.212C16.86 73.17 16.93 73.18 16.974 73.212C17.0116 73.2497 17.0532 73.2833 17.098 73.312C17.1246 73.3194 17.1524 73.3213 17.1797 73.3174C17.207 73.3136 17.2332 73.3041 17.2567 73.2897C17.2801 73.2752 17.3004 73.256 17.3161 73.2334C17.3318 73.2107 17.3427 73.1851 17.348 73.158C17.3645 73.0465 17.3486 72.9326 17.302 72.83C17.2748 72.7316 17.2279 72.6397 17.164 72.56C17.1311 72.5209 17.087 72.4929 17.0376 72.4797C16.9883 72.4665 16.9361 72.4687 16.888 72.486C16.8653 72.4961 16.8454 72.5116 16.8301 72.5312C16.8148 72.5508 16.8045 72.5738 16.8001 72.5983C16.7958 72.6228 16.7975 72.648 16.8052 72.6716C16.8128 72.6953 16.8261 72.7167 16.844 72.734C16.82 72.632 16.706 72.582 16.604 72.552C16.5007 72.5263 16.3937 72.5196 16.288 72.532C16.3217 72.472 16.3345 72.4025 16.3244 72.3344C16.3143 72.2663 16.2818 72.2036 16.232 72.156C16.1773 72.1099 16.1091 72.0828 16.0377 72.0789C15.9662 72.0749 15.8955 72.0943 15.836 72.134Z" fill="white"/>
<path opacity="0.1" d="M17.9459 72.344C17.8421 72.4201 17.7608 72.523 17.7108 72.6417C17.6608 72.7604 17.6439 72.8904 17.6619 73.018C17.6633 73.0634 17.6761 73.1077 17.6992 73.1469C17.7223 73.186 17.7549 73.2187 17.7939 73.242C17.843 73.2554 17.8953 73.2496 17.9403 73.2259C17.9852 73.2021 18.0194 73.1621 18.0359 73.114C18.0656 73.0174 18.0704 72.9149 18.0499 72.816C18.072 72.8798 18.1169 72.9332 18.1759 72.966C18.2104 72.9914 18.2521 73.0052 18.2949 73.0052C18.3378 73.0052 18.3795 72.9914 18.4139 72.966C18.428 72.9504 18.4379 72.9314 18.4425 72.911C18.4471 72.8905 18.4464 72.8691 18.4403 72.849C18.4343 72.8289 18.4232 72.8107 18.408 72.7962C18.3929 72.7816 18.3743 72.7712 18.3539 72.766C18.5318 72.8237 18.7243 72.8174 18.8979 72.748C18.9519 72.726 19.0119 72.692 19.0239 72.634C19.0359 72.576 18.9719 72.498 18.9039 72.466C18.8287 72.4454 18.76 72.4062 18.7039 72.352C18.7899 72.322 18.8199 72.23 18.8539 72.152C18.8702 72.1096 18.8715 72.0629 18.8577 72.0196C18.8439 71.9764 18.8157 71.9391 18.7779 71.914C18.7299 71.8991 18.679 71.8961 18.6296 71.9051C18.5801 71.9142 18.5336 71.935 18.4939 71.966C18.3026 72.0789 18.1195 72.2052 17.9459 72.344Z" fill="white"/>
<path opacity="0.1" d="M16.018 70.466C15.7258 70.4003 15.4197 70.4422 15.156 70.584C15.0895 70.6148 15.0328 70.6632 14.992 70.724C14.9728 70.7545 14.9638 70.7903 14.9663 70.8263C14.9688 70.8622 14.9827 70.8964 15.006 70.924C14.9476 70.8875 14.8775 70.8749 14.8102 70.8886C14.7428 70.9024 14.6833 70.9416 14.644 70.998C14.6329 71.0273 14.6281 71.0587 14.63 71.0899C14.6319 71.1212 14.6404 71.1518 14.6549 71.1796C14.6695 71.2073 14.6897 71.2317 14.7144 71.2511C14.739 71.2705 14.7675 71.2844 14.798 71.292C14.765 71.3001 14.7342 71.3153 14.7078 71.3367C14.6815 71.3581 14.6602 71.385 14.6454 71.4156C14.6307 71.4462 14.6229 71.4797 14.6227 71.5136C14.6224 71.5476 14.6297 71.5812 14.644 71.612C14.6741 71.6766 14.7209 71.732 14.7796 71.7724C14.8384 71.8129 14.9068 71.8369 14.978 71.842C15.12 71.8539 15.263 71.8397 15.4 71.8C15.4192 71.7615 15.4303 71.7195 15.4326 71.6765C15.4349 71.6335 15.4283 71.5906 15.4133 71.5503C15.3983 71.5099 15.3752 71.4731 15.3453 71.4421C15.3155 71.4111 15.2797 71.3866 15.24 71.37C15.31 71.402 15.362 71.342 15.404 71.278C15.4239 71.2449 15.4318 71.2059 15.4263 71.1676C15.4208 71.1294 15.4023 71.0942 15.374 71.068C15.5036 71.1132 15.6453 71.1097 15.7727 71.0582C15.9 71.0067 16.0042 70.9107 16.066 70.788C16.118 70.686 16.126 70.492 16.018 70.466Z" fill="white"/>
<path d="M65.1699 56.094C65.1699 56.094 67.4299 57.894 67.5699 57.862C68.3699 57.698 68.5179 57.628 69.3879 57.462C69.5097 57.4377 69.6234 57.3828 69.7182 57.3026C69.8131 57.2223 69.886 57.1193 69.9301 57.0032C69.9743 56.8871 69.9883 56.7617 69.9708 56.6387C69.9532 56.5157 69.9048 56.3992 69.8299 56.3L69.7279 56.164C69.6469 56.0552 69.5373 55.9709 69.4112 55.9208C69.2851 55.8706 69.1476 55.8565 69.0139 55.88L67.7399 56.102L65.8939 54.916L65.1699 56.094Z" fill="#FF8B7B"/>
<path d="M54.578 42.2681C55.178 41.9941 56.1499 43.1001 56.4479 43.6921C57.2319 45.2541 60.1879 50.1781 60.1879 50.1781C60.5339 50.3781 65.0219 53.9341 66.1039 54.4921C66.6659 54.7821 65.556 56.7681 65.0139 56.4421C63.9719 55.8141 62.9139 55.2141 61.8499 54.6241C61.4999 54.4241 61.1499 54.2341 60.7979 54.0461L59.7299 53.4681C58.9278 53.0315 58.194 52.4796 57.5519 51.8301C56.8982 51.1806 56.3424 50.4395 55.902 49.6301L55.74 49.3281L55.602 49.0621L55.3239 48.5281C55.1399 48.1721 54.9519 47.8174 54.7599 47.4641C54.1979 46.4121 53.6239 45.3661 53.0219 44.3321C52.943 44.1971 52.8932 44.047 52.8759 43.8915C52.8586 43.736 52.8741 43.5786 52.9214 43.4295C52.9687 43.2804 53.0468 43.1429 53.1506 43.0259C53.2544 42.9088 53.3816 42.8149 53.5239 42.7501L54.578 42.2681Z" fill="#263238"/>
<path d="M64.026 72.1621C61.2 74.2261 53.2 70.5101 49.344 68.5401C45.48 70.5101 37.48 74.2261 34.66 72.1621C30.018 68.7621 36.386 63.5941 38.038 62.5461C39.69 61.4981 41.532 60.7961 43.362 60.1041C45.192 59.4121 47.362 60.5661 49.344 60.6081C51.32 60.5641 53.478 59.4081 55.324 60.1041C57.17 60.8001 58.998 61.5041 60.648 62.5461C62.298 63.5881 68.67 68.7601 64.026 72.1621Z" fill="#8E7CC3"/>
<path opacity="0.2" d="M50.2 64.722C47.366 64.832 44.236 65.6161 41.452 66.1461C41.052 66.2241 39.6 67.038 39.528 67.444C50.524 64.722 39.536 67.444 50.2 64.722Z" fill="#1F1F1F"/>
<path opacity="0.2" d="M49.704 64.8141C52.536 64.9261 55.668 65.7101 58.452 66.2401C58.852 66.3161 60.304 67.1301 60.376 67.5361C49.388 64.8141 60.376 67.5361 49.704 64.8141Z" fill="#1F1F1F"/>
<path d="M51.348 65.848L50.964 66.678L50.604 67.454L50.542 67.588L50.104 67.298L50.07 67.274L49.8 67.094L49.45 66.862L49.318 66.776L48.368 66.144L47.978 65.3L47.454 65.522H47.438L47.21 65.37L48.638 64.384L49.006 64.584L49.294 64.74L49.366 64.778L50.062 65.152L50.206 65.232L50.574 65.432L51.348 65.848Z" fill="#FF8B7B"/>
<path opacity="0.2" d="M50.54 67.5921L49.402 66.9601L50.212 65.2141L51.348 65.8461L50.54 67.5921Z" fill="#1F1F1F"/>
<path d="M50.362 69.3861C49.9242 69.1154 49.4715 68.8697 49.006 68.6501L50.974 64.5541L52.374 65.0441L50.362 69.3861Z" fill="#8E7CC3"/>
<path opacity="0.2" d="M50.362 69.3861C49.9242 69.1154 49.4715 68.8697 49.006 68.6501L50.974 64.5541L52.374 65.0441L50.362 69.3861Z" fill="white"/>
<path d="M49.384 64.7001L49.336 64.7201L49.29 64.7401L47.974 65.2981L47.45 65.5201H47.434C47.3794 65.5417 47.3223 65.5565 47.264 65.5641C47.2327 65.5661 47.2013 65.5661 47.17 65.5641C47.1461 65.5671 47.1219 65.5671 47.098 65.5641H47.084C47.0547 65.566 47.0253 65.566 46.996 65.5641H46.96L46.82 65.5441L46.63 65.5181C45.378 65.3561 45.046 65.4401 43.63 65.7041C43.294 65.7681 43.16 64.9601 43.886 64.6521C45.086 64.1421 45.116 64.1961 46.142 63.7621C47.018 63.3921 48.006 62.9241 48.698 62.6161C48.7371 62.5991 48.7794 62.591 48.822 62.5922C48.8646 62.5933 48.9065 62.6038 48.9446 62.6229C48.9827 62.6419 49.0162 62.6691 49.0427 62.7025C49.0692 62.7359 49.0881 62.7746 49.098 62.8161L49.47 64.5141C49.4797 64.5502 49.4764 64.5887 49.4607 64.6227C49.445 64.6566 49.4178 64.684 49.384 64.7001Z" fill="#263238"/>
<path d="M50.722 64.416L52.15 65.402L48.814 67.622L48.006 65.878L50.722 64.416Z" fill="#FF8B7B"/>
<path opacity="0.2" d="M48.8159 67.6221L49.9519 66.9901L49.1439 65.2461L48.0079 65.8761L48.8159 67.6221Z" fill="#1F1F1F"/>
<path d="M50.044 68.18C50.044 68.18 49.632 68.478 49.212 68.766L48.812 69.038L47.51 66.224L47.11 65.38L46.97 65.074L48.14 64.674L48.372 64.592L48.474 64.81L48.5 64.868L48.772 65.456V65.466L49.022 66.002L49.25 66.498L49.546 67.136L49.576 67.2L49.736 67.546L50.044 68.18Z" fill="#8E7CC3"/>
<path opacity="0.2" d="M50.044 68.18C50.044 68.18 49.632 68.478 49.212 68.766L48.812 69.038L47.51 66.224L47.11 65.38L46.97 65.074L48.14 64.674L48.372 64.592L48.474 64.81L48.5 64.868L48.772 65.456V65.466L49.022 66.002L49.25 66.498L49.546 67.136L49.576 67.2L49.736 67.546L50.044 68.18Z" fill="white"/>
<path d="M51.9059 65.548L49.9719 64.73C49.9372 64.7158 49.9086 64.6896 49.8914 64.6563C49.8742 64.623 49.8694 64.5846 49.8779 64.548L50.2499 62.848C50.2595 62.8064 50.2782 62.7674 50.3046 62.7338C50.331 62.7002 50.3646 62.6729 50.4028 62.6538C50.441 62.6347 50.483 62.6242 50.5257 62.6232C50.5684 62.6222 50.6108 62.6307 50.6499 62.648C51.3419 62.956 52.3319 63.422 53.2079 63.794C54.2319 64.228 54.2619 64.174 55.4639 64.684C56.1899 64.99 56.0539 65.8 55.7199 65.736C54.1959 65.448 53.9319 65.376 52.3979 65.596C52.2326 65.626 52.0622 65.6094 51.9059 65.548Z" fill="#263238"/>
<path d="M45.89 41.85C48.302 41.554 51.724 41.58 53.996 41.976C54.5575 42.0762 55.07 42.3599 55.4529 42.7826C55.8359 43.2054 56.0677 43.7433 56.112 44.312C56.396 47.776 55.628 53.832 54.968 59.926C49.624 61.726 44.202 59.902 44.202 59.902C44.138 59.258 44.29 57.846 44.508 56.338C44.9186 53.534 44.8251 50.6792 44.232 47.908C44.02 46.92 43.812 45.878 43.65 44.78C43.6008 44.44 43.6201 44.0936 43.7066 43.7612C43.7931 43.4287 43.9451 43.1169 44.1538 42.844C44.3624 42.571 44.6235 42.3425 44.9216 42.1719C45.2197 42.0012 45.549 41.8918 45.89 41.85Z" fill="#263238"/>
<path opacity="0.2" d="M43.928 46.4201C43.928 46.4201 44.504 49.2201 44.584 50.0001C44.664 50.7801 45.662 45.1361 45.662 45.1361L43.928 46.4201Z" fill="#1F1F1F"/>
<path d="M34.4259 56.4001C34.4259 56.4001 32.1179 58.2401 31.9639 58.2001C31.1499 58.0321 30.9959 57.9601 30.1079 57.7821C29.9834 57.7571 29.8673 57.701 29.7704 57.619C29.6734 57.5371 29.5988 57.4319 29.5535 57.3133C29.5081 57.1947 29.4936 57.0665 29.5111 56.9408C29.5287 56.815 29.5778 56.6957 29.6539 56.5941L29.7599 56.4541C29.8433 56.3435 29.9556 56.2582 30.0844 56.2073C30.2132 56.1565 30.3535 56.1422 30.4899 56.1661L31.7999 56.4001L33.6839 55.1881L34.4259 56.4001Z" fill="#FF8B7B"/>
<path d="M45.2499 42.268C44.6339 41.988 43.6499 43.12 43.3399 43.724C42.5399 45.324 39.5179 50.354 39.5179 50.354C39.1639 50.554 34.5779 54.192 33.4719 54.754C32.8979 55.05 34.0319 57.08 34.5859 56.754C35.6499 56.112 36.7319 55.498 37.8179 54.896C38.1759 54.696 38.5339 54.496 38.8939 54.296L39.9859 53.706C40.8058 53.2591 41.5558 52.6945 42.2119 52.03C42.8801 51.365 43.4481 50.6064 43.8979 49.778L44.0639 49.47L44.1999 49.2L44.4839 48.654C44.6719 48.29 44.8639 47.928 45.0599 47.568C45.6339 46.492 46.2219 45.424 46.8379 44.368C46.9182 44.2299 46.9687 44.0765 46.9862 43.9177C47.0036 43.759 46.9876 43.5983 46.9392 43.446C46.8908 43.2938 46.811 43.1534 46.705 43.0339C46.5991 42.9143 46.4692 42.8183 46.3239 42.752L45.2499 42.268Z" fill="#263238"/>
<path d="M47.9999 37.078C48.3319 38.508 48.6899 41.132 47.6339 42.11C48.4859 42.87 49.7179 43.64 50.6859 43.498C51.9039 43.318 52.5439 42.448 52.3779 42.022C50.6539 41.672 50.7099 40.482 50.9779 39.362L47.9999 37.078Z" fill="#FF8B7B"/>
<path opacity="0.2" d="M49.1999 38.01L50.9659 39.36C50.8974 39.622 50.8539 39.8898 50.8359 40.16C50.1799 40.084 49.3479 39.584 49.0759 38.918C48.9119 38.498 49.0379 38.062 49.1999 38.01Z" fill="#1F1F1F"/>
<path d="M51.518 32.8121C52.3479 31.8521 53.682 30.5621 52.188 29.4121C51.8664 29.493 51.5301 29.4959 51.2073 29.4204C50.8844 29.3449 50.5842 29.1932 50.332 28.9781C49.576 28.3521 48.508 28.3781 47.906 28.3521C48.0707 28.5818 48.1595 28.8573 48.16 29.1401C48.026 30.7401 46.71 32.2841 46.21 33.7801C46.0477 34.2237 46.0477 34.7104 46.21 35.1541C46.4629 35.6836 46.8931 36.1081 47.426 36.3541C48.5203 35.6074 49.6554 34.9224 50.826 34.3021C50.9 34.3021 50.918 34.1821 50.928 34.1121C51.0002 33.6324 51.2045 33.1822 51.518 32.8121Z" fill="#263238"/>
<path d="M47.422 34.9241C47.622 36.8461 47.644 37.9821 48.662 38.9241C50.192 40.3481 52.534 39.3621 52.91 37.4161C53.248 35.6661 52.86 32.8161 50.938 32.1301C50.5146 31.9765 50.059 31.9339 49.6145 32.0064C49.1701 32.079 48.7516 32.2641 48.399 32.5443C48.0464 32.8245 47.7715 33.1903 47.6005 33.6069C47.4294 34.0235 47.368 34.477 47.422 34.9241Z" fill="#FF8B7B"/>
<path d="M51.7279 32.6C51.3919 32.47 51.4339 32.478 51.1079 32.628C50.2959 32.228 49.2899 32.514 48.9619 32.61C49.0537 32.9367 49.1127 33.2717 49.1379 33.61C49.1729 33.8116 49.1338 34.019 49.0279 34.194C48.9059 34.36 48.6899 34.424 48.5259 34.55C48.4012 34.6617 48.3053 34.8018 48.2465 34.9585C48.1876 35.1152 48.1675 35.2839 48.1879 35.45C48.2159 35.782 47.8239 35.974 47.4379 36.02C47.2021 35.6635 47.0724 35.2474 47.0639 34.82C46.6119 33.22 48.5239 31.9 48.4879 31.82C49.4748 31.5828 50.509 31.6334 51.4679 31.966C51.5977 32.157 51.6863 32.3729 51.7279 32.6Z" fill="#263238"/>
<path d="M46.664 36.5701C46.8213 37.0299 47.1542 37.4088 47.59 37.6241C48.172 37.9041 48.574 37.4121 48.508 36.8041C48.448 36.2581 48.072 35.4541 47.444 35.4281C46.816 35.4021 46.476 36.0001 46.664 36.5701Z" fill="#FF8B7B"/>
<path d="M51.5099 35.4C51.5099 35.4 51.9859 36.252 52.4359 36.632C52.1959 36.926 51.7099 36.872 51.7099 36.872L51.5099 35.4Z" fill="#FF5652"/>
<path d="M51.2499 37.698C51.0737 37.6853 50.902 37.6365 50.7454 37.5546C50.5889 37.4728 50.4508 37.3595 50.3399 37.222C50.3328 37.2122 50.3299 37.1999 50.3317 37.188C50.3336 37.176 50.3401 37.1652 50.3499 37.158C50.3597 37.1509 50.372 37.148 50.384 37.1498C50.3959 37.1517 50.4067 37.1582 50.4139 37.168C50.5398 37.3179 50.6991 37.436 50.8791 37.5128C51.0591 37.5896 51.2546 37.6229 51.4499 37.61C51.4559 37.6098 51.462 37.6107 51.4677 37.6127C51.4733 37.6148 51.4786 37.618 51.483 37.6221C51.4875 37.6262 51.4911 37.6311 51.4936 37.6366C51.4962 37.642 51.4976 37.648 51.4979 37.654C51.4985 37.6601 51.4977 37.6663 51.4958 37.6721C51.4938 37.6779 51.4907 37.6832 51.4865 37.6877C51.4824 37.6923 51.4773 37.6959 51.4717 37.6983C51.4661 37.7008 51.46 37.702 51.4539 37.702C51.3859 37.7058 51.3177 37.7044 51.2499 37.698Z" fill="#263238"/>
<path d="M50.9099 35.692C50.3339 35.868 50.0419 35.652 50.0219 35.64C50.0116 35.6334 50.0043 35.6229 50.0017 35.6109C49.9991 35.5989 50.0013 35.5864 50.0079 35.576C50.0146 35.5657 50.025 35.5584 50.037 35.5558C50.049 35.5532 50.0616 35.5554 50.0719 35.562C50.0719 35.562 50.4379 35.822 51.0719 35.536C51.0828 35.5312 51.0952 35.5308 51.1064 35.5349C51.1176 35.539 51.1267 35.5473 51.1319 35.558C51.1349 35.5635 51.1367 35.5695 51.1372 35.5757C51.1378 35.5819 51.1369 35.5881 51.1349 35.594C51.1328 35.5998 51.1295 35.6052 51.1252 35.6097C51.1209 35.6142 51.1157 35.6177 51.1099 35.62C51.0452 35.649 50.9783 35.673 50.9099 35.692Z" fill="#263238"/>
<path d="M52.8099 35.468C52.2639 35.724 52.0359 35.552 52.0099 35.542C51.9988 35.5372 51.9901 35.5282 51.9856 35.517C51.9811 35.5057 51.9812 35.4932 51.9859 35.482C51.9883 35.4763 51.9918 35.4711 51.9963 35.4668C52.0007 35.4624 52.006 35.459 52.0118 35.4568C52.0176 35.4545 52.0238 35.4535 52.03 35.4537C52.0362 35.4539 52.0423 35.4554 52.0479 35.458C52.0479 35.458 52.3559 35.658 52.9339 35.29C52.9442 35.2834 52.9568 35.2812 52.9688 35.2838C52.9808 35.2864 52.9913 35.2937 52.9979 35.304C53.0045 35.3144 53.0068 35.3269 53.0042 35.3389C53.0015 35.3509 52.9942 35.3614 52.9839 35.368C52.9285 35.4056 52.8703 35.4391 52.8099 35.468Z" fill="#263238"/>
<path d="M50.052 34.6701C50.0362 34.6684 50.0211 34.6629 50.008 34.6541C49.9979 34.6473 49.9894 34.6385 49.9828 34.6283C49.9762 34.6181 49.9717 34.6067 49.9697 34.5948C49.9676 34.5828 49.968 34.5705 49.9708 34.5587C49.9736 34.5469 49.9788 34.5358 49.986 34.5261C50.0665 34.4036 50.1751 34.3021 50.3028 34.2301C50.4305 34.1581 50.5735 34.1176 50.72 34.1121C50.7442 34.1131 50.7671 34.1234 50.7839 34.141C50.8006 34.1585 50.81 34.1818 50.81 34.2061C50.8097 34.2183 50.807 34.2304 50.802 34.2416C50.797 34.2528 50.7899 34.2629 50.7809 34.2713C50.772 34.2797 50.7614 34.2862 50.7499 34.2904C50.7385 34.2947 50.7262 34.2966 50.714 34.2961C50.5983 34.3019 50.4857 34.3353 50.3855 34.3934C50.2854 34.4514 50.2005 34.5326 50.138 34.6301C50.1282 34.6435 50.1152 34.6542 50.1001 34.6612C50.0851 34.6682 50.0685 34.6712 50.052 34.6701Z" fill="#263238"/>
<path d="M52.882 34.614C52.867 34.6125 52.8525 34.6074 52.84 34.599C52.8274 34.5906 52.8171 34.5793 52.81 34.566C52.7593 34.4608 52.6839 34.3695 52.5902 34.2998C52.4965 34.2301 52.3873 34.1842 52.272 34.166C52.2477 34.1635 52.2254 34.1516 52.2098 34.133C52.1941 34.1143 52.1863 34.0903 52.188 34.066C52.1884 34.0539 52.1914 34.042 52.1967 34.0311C52.202 34.0202 52.2094 34.0105 52.2186 34.0026C52.2278 33.9947 52.2386 33.9888 52.2502 33.9853C52.2617 33.9818 52.2739 33.9806 52.286 33.982C52.4314 34.0023 52.5697 34.0575 52.6891 34.1428C52.8086 34.2281 52.9056 34.3411 52.972 34.472C52.9778 34.4826 52.9815 34.4943 52.9828 34.5063C52.9841 34.5184 52.9829 34.5305 52.9793 34.5421C52.9758 34.5537 52.97 34.5644 52.9622 34.5737C52.9544 34.583 52.9448 34.5905 52.934 34.596C52.9188 34.607 52.9007 34.6132 52.882 34.614Z" fill="#263238"/>
<path d="M50.4999 44.334L49.2999 43.096C49.6379 43.044 49.9439 42.896 50.2819 42.844C50.5759 43.272 50.5859 43.822 50.4999 44.334Z" fill="#8E7CC3"/>
<path opacity="0.2" d="M50.4999 44.334L49.2999 43.096C49.6379 43.044 49.9439 42.896 50.2819 42.844C50.5759 43.272 50.5859 43.822 50.4999 44.334Z" fill="#1F1F1F"/>
<path d="M50.3559 42.926C49.6839 43.35 49.7839 43.416 49.0879 44.274C48.3479 43.582 47.0739 42.718 46.5459 41.854C46.7281 41.3333 47.0993 40.9 47.5859 40.64C48.6339 41.2369 49.571 42.0103 50.3559 42.926Z" fill="#8E7CC3"/>
<g opacity="0.2">
<path d="M50.3559 42.926C49.6839 43.35 49.7839 43.416 49.0879 44.274C48.3479 43.582 47.0739 42.718 46.5459 41.854C46.7281 41.3333 47.0993 40.9 47.5859 40.64C48.6339 41.2369 49.571 42.0103 50.3559 42.926Z" fill="white"/>
</g>
<path d="M50.7819 42.7781C50.531 43.2383 50.4349 43.7671 50.5079 44.2861C50.8579 43.8261 51.1799 43.3721 51.5299 42.9121C51.2964 42.8034 51.0387 42.7572 50.7819 42.7781Z" fill="#8E7CC3"/>
<path opacity="0.2" d="M50.7819 42.7781C50.531 43.2383 50.4349 43.7671 50.5079 44.2861C50.8579 43.8261 51.1799 43.3721 51.5299 42.9121C51.2964 42.8034 51.0387 42.7572 50.7819 42.7781Z" fill="#1F1F1F"/>
<path d="M52 44.1561C51.553 43.7374 51.1341 43.2898 50.746 42.8161C51.0598 42.2719 51.1677 41.6331 51.05 41.0161C51.2961 40.9369 51.5614 40.9405 51.8052 41.0265C52.0491 41.1125 52.258 41.276 52.4 41.4921C52.82 42.1521 52.264 43.4281 52 44.1561Z" fill="#8E7CC3"/>
<path opacity="0.2" d="M52 44.1561C51.553 43.7374 51.1341 43.2898 50.746 42.8161C51.0598 42.2719 51.1677 41.6331 51.05 41.0161C51.2961 40.9369 51.5614 40.9405 51.8052 41.0265C52.0491 41.1125 52.258 41.276 52.4 41.4921C52.82 42.1521 52.264 43.4281 52 44.1561Z" fill="white"/>
<path d="M49.2159 72.0661C48.6447 72.0676 48.0792 71.9526 47.5539 71.7281C47.5416 71.7231 47.5305 71.7156 47.5211 71.7062C47.5117 71.6969 47.5043 71.6857 47.4993 71.6734C47.4942 71.6611 47.4917 71.648 47.4918 71.6347C47.4919 71.6214 47.4947 71.6083 47.4999 71.5961C47.5109 71.572 47.5308 71.5531 47.5554 71.5434C47.58 71.5337 47.6075 71.5339 47.6319 71.5441C48.1639 71.77 48.738 71.8796 49.3158 71.8654C49.8936 71.8513 50.4617 71.7138 50.9819 71.4621C51.0058 71.4504 51.0333 71.4487 51.0585 71.4573C51.0836 71.466 51.1043 71.4842 51.1159 71.5081C51.1276 71.532 51.1293 71.5595 51.1207 71.5846C51.1121 71.6097 51.0938 71.6304 51.0699 71.6421C50.4921 71.9223 49.8581 72.0673 49.2159 72.0661Z" fill="#8E7CC3"/>
<path d="M48.942 73.5101C47.6684 73.5123 46.4051 73.2825 45.214 72.8321C45.2016 72.8273 45.1903 72.8202 45.1807 72.8111C45.1711 72.802 45.1634 72.7911 45.158 72.7791C45.1526 72.767 45.1497 72.754 45.1493 72.7408C45.149 72.7276 45.1512 72.7144 45.156 72.7021C45.1607 72.6897 45.1678 72.6784 45.1769 72.6688C45.186 72.6592 45.1969 72.6515 45.2089 72.6461C45.221 72.6408 45.234 72.6378 45.2472 72.6374C45.2605 72.6371 45.2736 72.6393 45.2859 72.6441C47.6638 73.5403 50.288 73.5318 52.6599 72.6201C52.6723 72.6153 52.6854 72.6131 52.6987 72.6134C52.7119 72.6138 52.7249 72.6168 52.737 72.6221C52.749 72.6275 52.7599 72.6352 52.769 72.6448C52.7781 72.6544 52.7852 72.6657 52.79 72.6781C52.7947 72.6904 52.7969 72.7036 52.7966 72.7168C52.7962 72.73 52.7933 72.743 52.7879 72.7551C52.7825 72.7671 52.7748 72.778 52.7652 72.7871C52.7556 72.7962 52.7443 72.8033 52.732 72.8081C51.5229 73.2745 50.2378 73.5125 48.942 73.5101Z" fill="#8E7CC3"/>
</g>
</g>
<defs>
<clipPath id="clip0_21_95">
<rect width="1440" height="3456.28" fill="white" transform="translate(-1012 -1109)"/>
</clipPath>
<clipPath id="clip1_21_95">
<rect width="1440" height="2816" fill="white" transform="translate(-1012 -1035)"/>
</clipPath>
</defs>
</svg>
