<svg width="279" height="62" viewBox="0 0 279 62" fill="none" xmlns="http://www.w3.org/2000/svg">
<path d="M32.5437 44.0547C32.047 44.1815 31.5632 44.3519 31.0924 44.5494C30.8551 44.6446 30.6274 44.7597 30.3974 44.8699C30.1736 44.9916 29.9472 45.1093 29.7322 45.2457L29.5688 45.3444L29.4105 45.4508C29.3063 45.5235 29.1971 45.5897 29.0965 45.6672L28.7915 45.8958C28.6917 45.9731 28.5962 46.052 28.5059 46.131C28.1426 46.4463 27.8726 46.7848 27.7782 47.1115C27.7279 47.2721 27.7186 47.4438 27.7392 47.6272C27.7643 47.8101 27.8212 48.0009 27.9128 48.1837C28.0009 48.3676 28.1234 48.5411 28.2612 48.6968C28.4039 48.8543 28.567 48.9926 28.7471 49.1098C29.4678 49.5828 30.4589 49.6923 31.3631 49.4715C31.8163 49.3624 32.2511 49.1734 32.6296 48.9146C32.8197 48.7831 32.9919 48.6435 33.1518 48.4716C33.2318 48.3854 33.3174 48.3043 33.3876 48.2088C33.4612 48.1164 33.5387 48.0272 33.6019 47.926C34.1458 47.1459 34.4424 46.1761 34.5115 45.1852C34.5465 44.689 34.526 44.1858 34.453 43.6907C34.3807 43.1981 34.2513 42.7039 34.0828 42.2208C33.7451 41.2539 33.243 40.3318 32.6572 39.4526C32.0369 38.5203 31.3171 37.6262 30.577 36.7553C29.8341 35.887 29.0471 35.0576 28.2212 34.2717C26.5668 32.7025 24.7392 31.3258 22.7458 30.25C21.4088 29.524 20.0078 28.8665 18.6255 28.1266C17.935 27.7546 17.2474 27.3643 16.579 26.9271C15.9123 26.4878 15.2597 26.0087 14.6613 25.4478C14.0597 24.8934 13.5166 24.2518 13.0774 23.5339C12.8632 23.1716 12.6716 22.7937 12.5174 22.3995C12.3684 22.0028 12.2374 21.6028 12.162 21.1814C11.994 20.3434 11.9901 19.4798 12.1247 18.6473C12.2594 17.8136 12.5377 17.0132 12.9142 16.2691C13.2924 15.5251 13.7744 14.8369 14.3429 14.2264C14.411 14.1474 14.4861 14.0749 14.5611 14.0023L14.7855 13.7838C14.9384 13.6416 15.1015 13.51 15.2596 13.3733C15.4254 13.2488 15.5892 13.1213 15.7584 13.0019L16.0169 12.83C16.103 12.7727 16.1887 12.7144 16.2788 12.664C17.6954 11.8063 19.2922 11.3091 20.9013 11.108C21.7073 11.0081 22.5191 10.9791 23.327 11.0144C24.1355 11.0497 24.9442 11.1515 25.74 11.3277C26.5352 11.5068 27.3186 11.7624 28.0695 12.1082C28.8193 12.4544 29.5385 12.8911 30.1825 13.4346L30.4177 13.646C30.4955 13.7173 30.5764 13.7849 30.6481 13.863L30.8689 14.091C30.9051 14.1295 30.9434 14.1662 30.9779 14.2063L31.0803 14.3281C31.3579 14.643 31.6186 15.0025 31.8293 15.3762C32.2556 16.1257 32.5388 16.947 32.6688 17.7943C32.796 18.6412 32.7789 19.5183 32.5693 20.3695C32.4643 20.7945 32.3122 21.2119 32.1091 21.6082C31.9073 22.0049 31.6476 22.3765 31.345 22.7094C31.049 23.0372 30.6775 23.3501 30.2746 23.5746C29.8709 23.8012 29.4374 23.9594 28.9967 24.0559C28.1136 24.2494 27.2042 24.1979 26.3488 23.9424C25.9208 23.8142 25.5058 23.6284 25.1204 23.3804C24.7362 23.1323 24.3766 22.8254 24.0845 22.4487C23.7921 22.0738 23.5659 21.6353 23.4362 21.1703C23.4061 21.0541 23.38 20.9357 23.3573 20.8188L23.3129 20.4698C23.2981 20.2366 23.2904 20.0014 23.3137 19.7705C23.3515 19.3075 23.4628 18.8595 23.6233 18.4413C23.7868 18.0241 23.9997 17.638 24.2401 17.278C24.4805 16.9175 24.7522 16.5853 25.0472 16.2803C25.3415 15.9745 25.6557 15.6911 25.9896 15.4327C26.6467 14.9288 27.3579 14.4997 28.1024 14.1461C28.8498 13.7993 29.6286 13.5267 30.4227 13.3298C31.2176 13.1369 32.026 13.0124 32.8362 12.9554C33.6466 12.9009 34.4584 12.9074 35.2639 12.971C36.069 13.0376 36.8678 13.1588 37.6551 13.3296C38.4417 13.5031 39.2161 13.7278 39.9743 13.9984C41.8409 14.6714 43.5939 15.6314 45.1712 16.8327C46.7456 18.035 48.1457 19.4872 49.2388 21.1664C50.3318 22.8429 51.1037 24.7519 51.3908 26.7673C51.6715 28.7949 51.4014 30.8644 50.6907 32.7598C50.3356 33.7088 49.863 34.6145 49.2855 35.4528C48.9963 35.8719 48.675 36.2694 48.3341 36.6502C47.9884 37.0274 47.6151 37.3802 47.2207 37.71C46.8212 38.0343 46.3976 38.3302 45.9542 38.5964C45.5058 38.8546 45.0387 39.0817 44.5548 39.2705C44.0674 39.4498 43.5694 39.6001 43.0569 39.6999C42.5457 39.8009 42.0252 39.8539 41.5023 39.8599C40.4581 39.8713 39.3953 39.6937 38.4058 39.2699C37.9126 39.0576 37.4381 38.786 37.0099 38.4481C36.5808 38.1146 36.2013 37.7253 35.8745 37.3058C35.2189 36.4646 34.7686 35.5173 34.4389 34.5605C34.2741 34.0807 34.1396 33.5965 34.0266 33.1099C33.914 32.623 33.8224 32.1271 33.7612 31.6223C33.6392 30.6149 33.6428 29.5607 33.8743 28.5208C33.9307 28.2612 34.0058 28.0042 34.0919 27.7504C34.1345 27.6231 34.1891 27.4955 34.2381 27.3685C34.2927 27.2435 34.3519 27.1206 34.4101 26.9973C34.6576 26.5118 34.9682 26.0602 35.3377 25.6559C35.7071 25.2521 36.1367 24.895 36.6228 24.6126C37.1076 24.3303 37.6527 24.1241 38.2262 24.0405C38.7972 23.9516 39.3967 23.9846 39.9559 24.1384C40.5161 24.2909 41.0328 24.5562 41.4821 24.8891C42.382 25.5602 43.0281 26.4758 43.4304 27.4776C43.532 27.7285 43.6121 27.9879 43.6823 28.2499C43.7469 28.5139 43.7993 28.7815 43.8302 29.0536C43.8584 29.326 43.8767 29.6008 43.8647 29.878C43.8644 29.9471 43.8598 30.0163 43.8541 30.0856C43.8482 30.1543 43.8452 30.2257 43.8363 30.292L43.7798 30.6884C43.6875 31.2125 43.554 31.7312 43.3532 32.2176C43.3292 32.2788 43.3071 32.3412 43.2814 32.4015L43.1997 32.5801C43.1437 32.6983 43.0935 32.8202 43.032 32.9348L42.8474 33.2788C42.7872 33.3945 42.7145 33.5009 42.6484 33.6123C42.5176 33.8365 42.3642 34.0418 42.2196 34.2546C42.0628 34.456 41.9132 34.6649 41.7456 34.8555C41.4219 35.2487 41.069 35.6101 40.7066 35.9581C40.344 36.3062 39.9605 36.6264 39.5717 36.9378C39.1804 37.2478 38.772 37.5223 38.3687 37.8077C37.5433 38.3478 36.6978 38.861 35.8077 39.2858L35.4767 39.4505C35.3671 39.507 35.252 39.5515 35.1399 39.6026L34.463 39.8994C34.2354 39.9936 34.0036 40.0772 33.774 40.1664L33.4288 40.2981C33.3136 40.3416 33.1953 40.3763 33.0787 40.4159L32.3766 40.6458C32.1405 40.7155 31.9022 40.778 31.6651 40.8442L31.309 40.9421C31.1896 40.9723 31.069 40.9971 30.949 41.0248L30.2282 41.1863L29.5008 41.3146L29.1369 41.3779L28.7704 41.4246L28.0373 41.5162L27.3005 41.5726L26.932 41.6001L26.5625 41.6103L25.8236 41.6291L25.0842 41.6128C24.961 41.6093 24.8377 41.6088 24.7146 41.6027L24.3456 41.5762C24.0998 41.5574 23.8535 41.5427 23.6079 41.5202L22.8733 41.4295C22.3819 41.3738 21.9002 41.2825 21.4258 41.1963C20.4772 41.0189 19.557 40.8231 18.6511 40.7011C18.1054 40.629 17.5622 40.5768 17.0304 40.576C16.5043 40.5749 15.9777 40.6203 15.4689 40.7237C14.9612 40.8295 14.4712 40.9906 14.0228 41.213C13.5777 41.44 13.1793 41.7312 12.8511 42.0811C12.2007 42.7773 11.8612 43.767 11.8538 44.7647C11.8519 45.0132 11.8704 45.2656 11.9076 45.508C11.9451 45.7459 12.0069 45.9828 12.0899 46.2136C12.2561 46.6754 12.507 47.1129 12.8211 47.4918C13.1223 47.8545 13.4671 48.1488 13.8269 48.3608C14.1869 48.5735 14.561 48.7026 14.9247 48.7521C15.1066 48.7782 15.2863 48.7815 15.4614 48.7677L15.527 48.7635L15.5863 48.7547C15.6255 48.7476 15.666 48.7472 15.7042 48.7358C15.7431 48.7271 15.7818 48.7183 15.8202 48.7097C15.8581 48.6975 15.8957 48.6855 15.9331 48.6736C16.2319 48.5708 16.5011 48.3933 16.726 48.1809C16.9528 47.9697 17.1324 47.7225 17.2764 47.4737C17.417 47.2224 17.5174 46.9653 17.5821 46.716C17.7121 46.2163 17.6931 45.7483 17.5619 45.3695C17.5391 45.3 17.5108 45.2374 17.4868 45.1763C17.457 45.1192 17.4321 45.0624 17.4045 45.0125C17.3752 44.9639 17.3484 44.9179 17.3242 44.8746C17.2969 44.8344 17.2717 44.7974 17.2499 44.7627C17.1595 44.6274 17.1082 44.546 17.1247 44.5027C17.1394 44.4614 17.2155 44.4658 17.3595 44.5238C17.4954 44.5904 17.7029 44.7175 17.9045 44.9705C18.1054 45.22 18.2951 45.5959 18.3661 46.0685C18.4368 46.5388 18.3995 47.0978 18.194 47.678C18.0912 47.9678 17.9467 48.2631 17.7497 48.5501C17.5518 48.8357 17.3042 49.1179 16.984 49.3567C16.6653 49.5936 16.2765 49.7965 15.831 49.8877C15.7762 49.8984 15.7182 49.9128 15.6651 49.9195C15.6115 49.9265 15.5577 49.9336 15.5036 49.9406C15.3952 49.9521 15.2848 49.9594 15.1735 49.9613C14.9504 49.967 14.7237 49.9461 14.4964 49.9102C13.9205 49.8142 13.3743 49.583 12.8944 49.2673C12.4132 48.9511 11.9933 48.5519 11.6421 48.0988C11.2915 47.6452 11.0074 47.1364 10.8108 46.5862C10.7124 46.3113 10.6357 46.0262 10.5849 45.7336C10.5366 45.4444 10.5072 45.1581 10.501 44.8671C10.4958 44.577 10.5107 44.2861 10.5463 43.9967C10.5831 43.7074 10.6439 43.4203 10.7247 43.138C10.8046 42.8553 10.9125 42.5791 11.0412 42.3122C11.17 42.0453 11.3213 41.7871 11.4997 41.547C11.5853 41.4245 11.686 41.3149 11.7795 41.1993C11.8773 41.0878 11.9842 40.9853 12.0869 40.879C12.1972 40.782 12.3062 40.6826 12.4199 40.5907C12.5373 40.5047 12.6504 40.4109 12.7722 40.3333C13.2532 40.0102 13.7716 39.769 14.2977 39.5931C14.6003 39.4886 14.9087 39.414 15.2174 39.3474C15.5271 39.2897 15.8378 39.24 16.1496 39.2153C16.4611 39.1842 16.7732 39.1781 17.0848 39.1785C17.393 39.1841 17.6991 39.1983 18.0017 39.226C19.215 39.3309 20.3723 39.5866 21.5017 39.8035C21.7843 39.8583 22.065 39.9106 22.3448 39.9585L22.7635 40.0271L23.1823 40.0801C23.7393 40.1622 24.3018 40.1969 24.8635 40.2354C25.9892 40.2871 27.1188 40.2417 28.239 40.1161L28.6588 40.0644C28.7987 40.0471 28.9389 40.032 29.0774 40.0051L29.9111 39.8611L30.7371 39.6783L30.9435 39.6324L31.1475 39.5765L31.5555 39.4646C32.6401 39.1571 33.7061 38.7774 34.7289 38.302C35.7507 37.8254 36.735 37.2709 37.6692 36.6421C38.6087 36.0155 39.4752 35.3056 40.2396 34.5061C40.9987 33.7057 41.6368 32.8024 42.0474 31.8184C42.253 31.327 42.3881 30.8137 42.4567 30.2946C42.4651 30.23 42.4769 30.1641 42.483 30.1007L42.4967 29.9126C42.5001 29.7865 42.5031 29.6602 42.4962 29.5332C42.4847 29.2796 42.4513 29.0252 42.3979 28.7741C42.2893 28.2717 42.0972 27.7842 41.8405 27.3374C41.5799 26.8934 41.2533 26.49 40.8717 26.1649C40.489 25.8421 40.0527 25.6001 39.5931 25.4764C39.134 25.3469 38.6523 25.3557 38.1864 25.4667C38.1275 25.4764 38.0709 25.4986 38.0134 25.5158C37.9565 25.5355 37.8977 25.5481 37.842 25.5725C37.7302 25.6196 37.6163 25.6607 37.5089 25.7208C37.2889 25.8269 37.0831 25.968 36.8856 26.1198C36.4957 26.4321 36.151 26.8159 35.8844 27.2505C35.3374 28.1067 35.1171 29.1614 35.1049 30.2285C35.0992 31.2988 35.2992 32.3981 35.6055 33.4617C35.7578 33.9915 35.9451 34.5053 36.1719 34.9922C36.3967 35.4804 36.6682 35.9371 36.9849 36.347C37.0271 36.405 37.0724 36.46 37.1192 36.5134C37.1657 36.5671 37.2101 36.6231 37.258 36.6753C37.356 36.7771 37.4504 36.8832 37.5557 36.9763C37.6558 37.0759 37.7663 37.1619 37.8737 37.2521C37.9279 37.2963 37.9866 37.3342 38.0426 37.3758C38.1002 37.4153 38.1532 37.4608 38.2147 37.4952C38.6866 37.796 39.2116 38.0286 39.7716 38.1656C40.8892 38.4482 42.1108 38.4094 43.2432 38.1021C44.3824 37.7967 45.4387 37.2195 46.3387 36.4613C47.2409 35.7035 47.9897 34.7721 48.5726 33.7649C49.5012 32.1535 50.0241 30.2874 50.048 28.4205C50.0522 27.9539 50.0242 27.4882 49.9692 27.0263C49.9095 26.5677 49.814 26.1026 49.6986 25.647C49.4592 24.7358 49.1133 23.8501 48.6723 23.01C47.791 21.3276 46.5468 19.83 45.0926 18.5778C43.6369 17.3251 41.9691 16.3094 40.1901 15.5788C38.4121 14.8531 36.5098 14.4105 34.5984 14.3244C32.6909 14.2387 30.7636 14.5096 29.0316 15.246C28.5984 15.4278 28.1814 15.6438 27.779 15.8823C27.5762 15.9994 27.3832 16.1314 27.1885 16.2607C26.9997 16.3986 26.8083 16.535 26.6339 16.68C25.9291 17.2597 25.3243 17.9755 24.9706 18.7654C24.7945 19.1593 24.6853 19.5697 24.6631 19.9765L24.6572 20.0528L24.6595 20.1287L24.6625 20.2806C24.6656 20.3818 24.6858 20.481 24.6947 20.5816C24.7304 20.7747 24.7821 20.9616 24.8616 21.139C25.1726 21.8523 25.8884 22.3917 26.7034 22.6498C27.3101 22.8427 27.9733 22.8915 28.5965 22.7822C28.9081 22.7281 29.2094 22.6332 29.4848 22.4963C29.6219 22.4272 29.7555 22.3518 29.8782 22.2628L29.9708 22.1967C30.0014 22.1743 30.0288 22.1483 30.0581 22.1245L30.1452 22.0518L30.2305 21.9692C30.4581 21.7488 30.6569 21.4985 30.8234 21.2252C30.9887 20.9511 31.1207 20.6541 31.2203 20.3436C31.419 19.7224 31.488 19.048 31.4327 18.3804C31.3787 17.7125 31.2072 17.05 30.9291 16.4407C30.7898 16.1363 30.6249 15.8443 30.4323 15.5742C30.3818 15.508 30.3366 15.4401 30.2824 15.3749L30.1194 15.1795C30.0154 15.0453 29.892 14.9274 29.7752 14.8038C28.8185 13.8299 27.5511 13.1645 26.2077 12.7613C24.8602 12.3575 23.4252 12.2061 22.0063 12.2694C20.5895 12.3378 19.1832 12.6352 17.9066 13.2077C17.269 13.4936 16.6656 13.8483 16.1168 14.2713C15.5716 14.691 15.0849 15.1859 14.6723 15.7394C13.8507 16.8452 13.3209 18.1792 13.245 19.5331C13.2104 20.1367 13.271 20.7364 13.4231 21.3191C13.5793 21.904 13.8155 22.4658 14.1366 22.9834C14.4571 23.5013 14.8501 23.9796 15.2923 24.4185C15.7354 24.8572 16.2299 25.2539 16.7488 25.6239C17.7894 26.3634 18.9327 26.9879 20.0976 27.5913C21.2633 28.1955 22.4569 28.776 23.6289 29.4357C25.9836 30.7684 28.0952 32.4841 29.9651 34.4074C30.4323 34.8893 30.8847 35.3845 31.325 35.8898C31.7615 36.3988 32.1903 36.9112 32.6016 37.4425C33.0133 37.9736 33.4118 38.52 33.78 39.092C34.1471 39.6647 34.4848 40.262 34.7741 40.8879C35.06 41.5152 35.2945 42.1722 35.4568 42.8511C35.6187 43.5359 35.6881 44.2413 35.6712 44.9454C35.6562 45.6497 35.5354 46.3548 35.3142 47.0326C35.0957 47.7109 34.7526 48.3579 34.2952 48.9207C34.1866 49.0659 34.0559 49.193 33.9324 49.3259C33.8066 49.4577 33.6638 49.5801 33.5204 49.6948C33.2295 49.9217 32.9142 50.1127 32.5839 50.2679C31.9212 50.5735 31.1994 50.7388 30.4686 50.7428C29.7401 50.7472 28.9942 50.5873 28.3351 50.2209C27.6789 49.8565 27.1202 49.2874 26.8079 48.58C26.651 48.2277 26.5561 47.8358 26.5576 47.4289C26.5599 47.2259 26.5884 47.0198 26.6423 46.8214C26.6966 46.6238 26.7764 46.4364 26.8723 46.2641C27.065 45.9182 27.3165 45.6346 27.5773 45.3873C27.7083 45.2634 27.8427 45.1484 27.978 45.0391C28.1137 44.9306 28.2526 44.8301 28.3899 44.7254C29.5046 43.9131 30.7677 43.32 32.0861 42.9506C34.7251 42.2122 37.585 42.3425 40.1418 43.3185C40.651 43.5143 41.1488 43.7376 41.6224 44.0029C42.0968 44.2658 42.5564 44.554 42.9839 44.883C43.4143 45.2094 43.8193 45.5588 44.1961 45.9468C44.5706 46.3365 44.9181 46.7696 45.1755 47.2732C45.3034 47.5246 45.4071 47.794 45.4718 48.0764C45.5353 48.3583 45.5661 48.6499 45.5326 48.9577C45.4989 49.2582 45.4081 49.544 45.2745 49.8055C45.1403 50.0667 44.9626 50.3053 44.7411 50.5052C44.5203 50.7043 44.251 50.8651 43.9475 50.9451C43.645 51.0258 43.3142 51.0178 43.0203 50.9196C42.7235 50.8231 42.4652 50.6432 42.2663 50.428C42.0663 50.2122 41.9197 49.9623 41.8183 49.7008C41.7168 49.4389 41.6616 49.1631 41.6519 48.8846C41.648 48.746 41.6551 48.6035 41.6745 48.4681C41.694 48.3344 41.721 48.2025 41.7576 48.0745C41.9019 47.5597 42.1628 47.1081 42.4517 46.7045C42.7434 46.2995 43.0619 45.9386 43.3841 45.5829C43.7082 45.2283 44.0478 44.8889 44.4106 44.5783C44.7728 44.2676 45.1577 43.9846 45.5677 43.7484C45.9776 43.5123 46.4156 43.3291 46.8664 43.2124C47.7732 42.9734 48.7365 43.0875 49.5276 43.4861C49.8909 43.6707 50.1709 43.8918 50.364 44.1128C50.5551 44.3354 50.6777 44.5405 50.7399 44.7114C50.8107 44.8785 50.8242 45.0086 50.827 45.0852C50.8292 45.162 50.8117 45.1907 50.7771 45.1738C50.7426 45.1573 50.6905 45.0968 50.6259 44.9954C50.5524 44.8979 50.4573 44.7631 50.3148 44.6098C50.1662 44.4615 49.9771 44.2894 49.7128 44.1334C49.4478 43.9812 49.1147 43.8373 48.7123 43.7573C48.4289 43.6965 48.1354 43.6803 47.847 43.694C47.702 43.6979 47.5601 43.7222 47.4183 43.7434L47.2103 43.7922C47.1408 43.8082 47.0687 43.8357 46.998 43.8564C46.715 43.9503 46.4395 44.0743 46.1734 44.2241C45.9074 44.3742 45.6527 44.5536 45.4064 44.749C44.913 45.1399 44.462 45.6099 44.0328 46.1121C43.8192 46.3629 43.6053 46.6274 43.412 46.8854C43.2191 47.1447 43.0454 47.4057 42.9094 47.6696C42.7729 47.9334 42.676 48.199 42.6308 48.4606C42.623 48.4933 42.6219 48.526 42.6168 48.5586C42.6122 48.5916 42.6077 48.6243 42.608 48.6521C42.6072 48.6813 42.6042 48.71 42.6039 48.7395L42.6073 48.8289C42.6174 48.9482 42.6339 49.0706 42.6724 49.1871C42.7429 49.421 42.871 49.634 43.0218 49.7733C43.0979 49.8411 43.1766 49.8933 43.2562 49.9275C43.3365 49.9578 43.4206 49.9723 43.502 49.9749C43.6612 49.9689 43.8353 49.9066 43.999 49.759C44.1646 49.6205 44.2989 49.4082 44.3824 49.1891C44.4191 49.0781 44.4519 48.9648 44.4584 48.8549C44.468 48.7992 44.4624 48.7468 44.4641 48.6937C44.4655 48.6681 44.4586 48.6329 44.4568 48.6029C44.4533 48.5717 44.4528 48.5405 44.4456 48.5093C44.4281 48.3844 44.3926 48.2593 44.3514 48.134C44.3034 48.0093 44.253 47.8836 44.1829 47.7603C43.9636 47.3521 43.6304 46.9611 43.2503 46.5956C42.8621 46.2304 42.4444 45.8872 42.0006 45.5805C41.5568 45.2729 41.0831 45.0057 40.5938 44.7689C40.1034 44.5341 39.5957 44.3291 39.0718 44.1701C38.0262 43.8477 36.9308 43.6648 35.8315 43.6433C34.7324 43.614 33.6308 43.7456 32.5755 44.0234C32.5657 44.0338 32.5563 44.0433 32.5437 44.0547Z" fill="#8E7CC3"/>
<path d="M63.155 31.45C63.155 29.184 63.661 27.16 64.673 25.378C65.707 23.574 67.104 22.177 68.864 21.187C70.646 20.175 72.637 19.669 74.837 19.669C77.411 19.669 79.666 20.329 81.602 21.649C83.538 22.969 84.891 24.795 85.661 27.127H80.348C79.82 26.027 79.072 25.202 78.104 24.652C77.158 24.102 76.058 23.827 74.804 23.827C73.462 23.827 72.263 24.146 71.207 24.784C70.173 25.4 69.359 26.28 68.765 27.424C68.193 28.568 67.907 29.91 67.907 31.45C67.907 32.968 68.193 34.31 68.765 35.476C69.359 36.62 70.173 37.511 71.207 38.149C72.263 38.765 73.462 39.073 74.804 39.073C76.058 39.073 77.158 38.798 78.104 38.248C79.072 37.676 79.82 36.84 80.348 35.74H85.661C84.891 38.094 83.538 39.931 81.602 41.251C79.688 42.549 77.433 43.198 74.837 43.198C72.637 43.198 70.646 42.703 68.864 41.713C67.104 40.701 65.707 39.304 64.673 37.522C63.661 35.74 63.155 33.716 63.155 31.45ZM101.817 43L96.7351 34.024H94.5571V43H89.9371V19.966H98.5831C100.365 19.966 101.883 20.285 103.137 20.923C104.391 21.539 105.326 22.386 105.942 23.464C106.58 24.52 106.899 25.708 106.899 27.028C106.899 28.546 106.459 29.921 105.579 31.153C104.699 32.363 103.39 33.199 101.652 33.661L107.163 43H101.817ZM94.5571 30.559H98.4181C99.6721 30.559 100.607 30.262 101.223 29.668C101.839 29.052 102.147 28.205 102.147 27.127C102.147 26.071 101.839 25.257 101.223 24.685C100.607 24.091 99.6721 23.794 98.4181 23.794H94.5571V30.559ZM125.532 38.611H116.358L114.84 43H109.989L118.272 19.933H123.651L131.934 43H127.05L125.532 38.611ZM124.278 34.915L120.945 25.279L117.612 34.915H124.278ZM149.583 19.966V23.695H139.98V29.602H147.339V33.265H139.98V43H135.36V19.966H149.583ZM168.864 19.966V23.695H162.726V43H158.106V23.695H151.968V19.966H168.864ZM180.518 43.231C178.912 43.231 177.46 42.956 176.162 42.406C174.886 41.856 173.874 41.064 173.126 40.03C172.378 38.996 171.993 37.775 171.971 36.367H176.921C176.987 37.313 177.317 38.061 177.911 38.611C178.527 39.161 179.363 39.436 180.419 39.436C181.497 39.436 182.344 39.183 182.96 38.677C183.576 38.149 183.884 37.467 183.884 36.631C183.884 35.949 183.675 35.388 183.257 34.948C182.839 34.508 182.311 34.167 181.673 33.925C181.057 33.661 180.199 33.375 179.099 33.067C177.603 32.627 176.382 32.198 175.436 31.78C174.512 31.34 173.709 30.691 173.027 29.833C172.367 28.953 172.037 27.787 172.037 26.335C172.037 24.971 172.378 23.783 173.06 22.771C173.742 21.759 174.699 20.989 175.931 20.461C177.163 19.911 178.571 19.636 180.155 19.636C182.531 19.636 184.456 20.219 185.93 21.385C187.426 22.529 188.251 24.135 188.405 26.203H183.323C183.279 25.411 182.938 24.762 182.3 24.256C181.684 23.728 180.859 23.464 179.825 23.464C178.923 23.464 178.197 23.695 177.647 24.157C177.119 24.619 176.855 25.29 176.855 26.17C176.855 26.786 177.053 27.303 177.449 27.721C177.867 28.117 178.373 28.447 178.967 28.711C179.583 28.953 180.441 29.239 181.541 29.569C183.037 30.009 184.258 30.449 185.204 30.889C186.15 31.329 186.964 31.989 187.646 32.869C188.328 33.749 188.669 34.904 188.669 36.334C188.669 37.566 188.35 38.71 187.712 39.766C187.074 40.822 186.139 41.669 184.907 42.307C183.675 42.923 182.212 43.231 180.518 43.231ZM213.695 19.966L205.247 43H199.637L191.189 19.966H196.139L202.475 38.281L208.778 19.966H213.695ZM221.415 19.966V43H216.795V19.966H221.415ZM230.93 39.337H238.52V43H226.31V19.966H230.93V39.337ZM246.406 39.337H253.996V43H241.786V19.966H246.406V39.337ZM271.387 38.611H262.213L260.695 43H255.844L264.127 19.933H269.506L277.789 43H272.905L271.387 38.611ZM270.133 34.915L266.8 25.279L263.467 34.915H270.133Z" fill="#5E548E"/>
</svg>
