<svg width="217" height="40" viewBox="0 0 217 40" fill="none" xmlns="http://www.w3.org/2000/svg">
<path d="M1.155 20.45C1.155 18.184 1.661 16.16 2.673 14.378C3.707 12.574 5.104 11.177 6.864 10.187C8.646 9.175 10.637 8.669 12.837 8.669C15.411 8.669 17.666 9.329 19.602 10.649C21.538 11.969 22.891 13.795 23.661 16.127H18.348C17.82 15.027 17.072 14.202 16.104 13.652C15.158 13.102 14.058 12.827 12.804 12.827C11.462 12.827 10.263 13.146 9.207 13.784C8.173 14.4 7.359 15.28 6.765 16.424C6.193 17.568 5.907 18.91 5.907 20.45C5.907 21.968 6.193 23.31 6.765 24.476C7.359 25.62 8.173 26.511 9.207 27.149C10.263 27.765 11.462 28.073 12.804 28.073C14.058 28.073 15.158 27.798 16.104 27.248C17.072 26.676 17.82 25.84 18.348 24.74H23.661C22.891 27.094 21.538 28.931 19.602 30.251C17.688 31.549 15.433 32.198 12.837 32.198C10.637 32.198 8.646 31.703 6.864 30.713C5.104 29.701 3.707 28.304 2.673 26.522C1.661 24.74 1.155 22.716 1.155 20.45ZM39.8171 32L34.7351 23.024H32.5571V32H27.9371V8.966H36.5831C38.3651 8.966 39.8831 9.285 41.1371 9.923C42.3911 10.539 43.3261 11.386 43.9421 12.464C44.5801 13.52 44.8991 14.708 44.8991 16.028C44.8991 17.546 44.4591 18.921 43.5791 20.153C42.6991 21.363 41.3901 22.199 39.6521 22.661L45.1631 32H39.8171ZM32.5571 19.559H36.4181C37.6721 19.559 38.6071 19.262 39.2231 18.668C39.8391 18.052 40.1471 17.205 40.1471 16.127C40.1471 15.071 39.8391 14.257 39.2231 13.685C38.6071 13.091 37.6721 12.794 36.4181 12.794H32.5571V19.559ZM63.5317 27.611H54.3577L52.8397 32H47.9887L56.2717 8.933H61.6507L69.9337 32H65.0497L63.5317 27.611ZM62.2777 23.915L58.9447 14.279L55.6117 23.915H62.2777ZM87.5828 8.966V12.695H77.9798V18.602H85.3388V22.265H77.9798V32H73.3598V8.966H87.5828ZM106.864 8.966V12.695H100.726V32H96.1058V12.695H89.9678V8.966H106.864ZM118.518 32.231C116.912 32.231 115.46 31.956 114.162 31.406C112.886 30.856 111.874 30.064 111.126 29.03C110.378 27.996 109.993 26.775 109.971 25.367H114.921C114.987 26.313 115.317 27.061 115.911 27.611C116.527 28.161 117.363 28.436 118.419 28.436C119.497 28.436 120.344 28.183 120.96 27.677C121.576 27.149 121.884 26.467 121.884 25.631C121.884 24.949 121.675 24.388 121.257 23.948C120.839 23.508 120.311 23.167 119.673 22.925C119.057 22.661 118.199 22.375 117.099 22.067C115.603 21.627 114.382 21.198 113.436 20.78C112.512 20.34 111.709 19.691 111.027 18.833C110.367 17.953 110.037 16.787 110.037 15.335C110.037 13.971 110.378 12.783 111.06 11.771C111.742 10.759 112.699 9.989 113.931 9.461C115.163 8.911 116.571 8.636 118.155 8.636C120.531 8.636 122.456 9.219 123.93 10.385C125.426 11.529 126.251 13.135 126.405 15.203H121.323C121.279 14.411 120.938 13.762 120.3 13.256C119.684 12.728 118.859 12.464 117.825 12.464C116.923 12.464 116.197 12.695 115.647 13.157C115.119 13.619 114.855 14.29 114.855 15.17C114.855 15.786 115.053 16.303 115.449 16.721C115.867 17.117 116.373 17.447 116.967 17.711C117.583 17.953 118.441 18.239 119.541 18.569C121.037 19.009 122.258 19.449 123.204 19.889C124.15 20.329 124.964 20.989 125.646 21.869C126.328 22.749 126.669 23.904 126.669 25.334C126.669 26.566 126.35 27.71 125.712 28.766C125.074 29.822 124.139 30.669 122.907 31.307C121.675 31.923 120.212 32.231 118.518 32.231ZM151.695 8.966L143.247 32H137.637L129.189 8.966H134.139L140.475 27.281L146.778 8.966H151.695ZM159.415 8.966V32H154.795V8.966H159.415ZM168.93 28.337H176.52V32H164.31V8.966H168.93V28.337ZM184.406 28.337H191.996V32H179.786V8.966H184.406V28.337ZM209.387 27.611H200.213L198.695 32H193.844L202.127 8.933H207.506L215.789 32H210.905L209.387 27.611ZM208.133 23.915L204.8 14.279L201.467 23.915H208.133Z" fill="#5E548E"/>
</svg>
